<?xml version="1.0" encoding="UTF-8" standalone="no"?>
<!DOCTYPE svg PUBLIC "-//W3C//DTD SVG 1.1//EN"
 "http://www.w3.org/Graphics/SVG/1.1/DTD/svg11.dtd">
<!-- Generated by graphviz version 2.43.0 (0)
 -->
<!-- Title: snakemake_dag Pages: 1 -->
<svg width="940pt" height="996pt"
 viewBox="0.00 0.00 940.00 996.00" xmlns="http://www.w3.org/2000/svg" xmlns:xlink="http://www.w3.org/1999/xlink">
<g id="graph0" class="graph" transform="scale(1 1) rotate(0) translate(4 992)">
<title>snakemake_dag</title>
<polygon fill="white" stroke="transparent" points="-4,4 -4,-992 936,-992 936,4 -4,4"/>
<!-- 0 -->
<g id="node1" class="node">
<title>0</title>
<path fill="none" stroke="#d85656" stroke-width="2" d="M532,-36C532,-36 502,-36 502,-36 496,-36 490,-30 490,-24 490,-24 490,-12 490,-12 490,-6 496,0 502,0 502,0 532,0 532,0 538,0 544,-6 544,-12 544,-12 544,-24 544,-24 544,-30 538,-36 532,-36"/>
<text text-anchor="middle" x="517" y="-15.5" font-family="sans" font-size="10.00">all</text>
</g>
<!-- 1 -->
<g id="node2" class="node">
<title>1</title>
<path fill="none" stroke="#568ad8" stroke-width="2" d="M763.5,-484C763.5,-484 676.5,-484 676.5,-484 670.5,-484 664.5,-478 664.5,-472 664.5,-472 664.5,-460 664.5,-460 664.5,-454 670.5,-448 676.5,-448 676.5,-448 763.5,-448 763.5,-448 769.5,-448 775.5,-454 775.5,-460 775.5,-460 775.5,-472 775.5,-472 775.5,-478 769.5,-484 763.5,-484"/>
<text text-anchor="middle" x="720" y="-463.5" font-family="sans" font-size="10.00">samtools_view_md</text>
</g>
<!-- 1&#45;&gt;0 -->
<g id="edge1" class="edge">
<title>1&#45;&gt;0</title>
<path fill="none" stroke="grey" stroke-width="2" d="M736.58,-447.68C760.01,-421.28 800,-368.42 800,-315 800,-315 800,-315 800,-161 800,-52.32 631.22,-26.81 554.35,-20.83"/>
<polygon fill="grey" stroke="grey" stroke-width="2" points="554.36,-17.32 544.14,-20.11 553.86,-24.31 554.36,-17.32"/>
</g>
<!-- 16 -->
<g id="node17" class="node">
<title>16</title>
<path fill="none" stroke="#56d88a" stroke-width="2" d="M612,-334.5C612,-334.5 568,-334.5 568,-334.5 562,-334.5 556,-328.5 556,-322.5 556,-322.5 556,-305.5 556,-305.5 556,-299.5 562,-293.5 568,-293.5 568,-293.5 612,-293.5 612,-293.5 618,-293.5 624,-299.5 624,-305.5 624,-305.5 624,-322.5 624,-322.5 624,-328.5 618,-334.5 612,-334.5"/>
<text text-anchor="middle" x="590" y="-322.5" font-family="sans" font-size="10.00">strelka2</text>
<text text-anchor="middle" x="590" y="-311.5" font-family="sans" font-size="10.00">normal: L2</text>
<text text-anchor="middle" x="590" y="-300.5" font-family="sans" font-size="10.00">tumor: L1</text>
</g>
<!-- 1&#45;&gt;16 -->
<g id="edge28" class="edge">
<title>1&#45;&gt;16</title>
<path fill="none" stroke="grey" stroke-width="2" d="M712.08,-447.72C702.91,-428.85 686.54,-398.33 667,-376 655.56,-362.93 641.03,-350.6 627.69,-340.5"/>
<polygon fill="grey" stroke="grey" stroke-width="2" points="629.69,-337.63 619.57,-334.5 625.54,-343.26 629.69,-337.63"/>
</g>
<!-- 17 -->
<g id="node18" class="node">
<title>17</title>
<path fill="none" stroke="#56d88a" stroke-width="2" d="M708,-334.5C708,-334.5 664,-334.5 664,-334.5 658,-334.5 652,-328.5 652,-322.5 652,-322.5 652,-305.5 652,-305.5 652,-299.5 658,-293.5 664,-293.5 664,-293.5 708,-293.5 708,-293.5 714,-293.5 720,-299.5 720,-305.5 720,-305.5 720,-322.5 720,-322.5 720,-328.5 714,-334.5 708,-334.5"/>
<text text-anchor="middle" x="686" y="-322.5" font-family="sans" font-size="10.00">strelka2</text>
<text text-anchor="middle" x="686" y="-311.5" font-family="sans" font-size="10.00">normal: L1</text>
<text text-anchor="middle" x="686" y="-300.5" font-family="sans" font-size="10.00">tumor: L2</text>
</g>
<!-- 1&#45;&gt;17 -->
<g id="edge35" class="edge">
<title>1&#45;&gt;17</title>
<path fill="none" stroke="grey" stroke-width="2" d="M728.92,-447.84C737.16,-429.6 746.88,-400.11 738,-376 733.37,-363.43 724.87,-351.69 716.06,-341.93"/>
<polygon fill="grey" stroke="grey" stroke-width="2" points="718.44,-339.36 709,-334.55 713.39,-344.19 718.44,-339.36"/>
</g>
<!-- 22 -->
<g id="node23" class="node">
<title>22</title>
<path fill="none" stroke="#d6d856" stroke-width="2" d="M645.5,-412C645.5,-412 554.5,-412 554.5,-412 548.5,-412 542.5,-406 542.5,-400 542.5,-400 542.5,-388 542.5,-388 542.5,-382 548.5,-376 554.5,-376 554.5,-376 645.5,-376 645.5,-376 651.5,-376 657.5,-382 657.5,-388 657.5,-388 657.5,-400 657.5,-400 657.5,-406 651.5,-412 645.5,-412"/>
<text text-anchor="middle" x="600" y="-391.5" font-family="sans" font-size="10.00">samtools_index_md</text>
</g>
<!-- 1&#45;&gt;22 -->
<g id="edge45" class="edge">
<title>1&#45;&gt;22</title>
<path fill="none" stroke="grey" stroke-width="2" d="M690.64,-447.88C674.95,-438.72 655.44,-427.34 638.55,-417.48"/>
<polygon fill="grey" stroke="grey" stroke-width="2" points="639.87,-414.21 629.47,-412.19 636.34,-420.25 639.87,-414.21"/>
</g>
<!-- 25 -->
<g id="node26" class="node">
<title>25</title>
<path fill="none" stroke="#d8a456" stroke-width="2" d="M523,-340C523,-340 353,-340 353,-340 347,-340 341,-334 341,-328 341,-328 341,-300 341,-300 341,-294 347,-288 353,-288 353,-288 523,-288 523,-288 529,-288 535,-294 535,-300 535,-300 535,-328 535,-328 535,-334 529,-340 523,-340"/>
<text text-anchor="middle" x="438" y="-328" font-family="sans" font-size="10.00">gatk_mutect2</text>
<text text-anchor="middle" x="438" y="-317" font-family="sans" font-size="10.00">interval: 0000&#45;scattered.interval_list</text>
<text text-anchor="middle" x="438" y="-306" font-family="sans" font-size="10.00">normal: L2</text>
<text text-anchor="middle" x="438" y="-295" font-family="sans" font-size="10.00">tumor: L1</text>
</g>
<!-- 1&#45;&gt;25 -->
<g id="edge49" class="edge">
<title>1&#45;&gt;25</title>
<path fill="none" stroke="grey" stroke-width="2" d="M664.13,-456.8C625.56,-449.34 574.17,-435.76 534,-412 506.15,-395.53 480.7,-369.03 463.01,-347.89"/>
<polygon fill="grey" stroke="grey" stroke-width="2" points="465.66,-345.6 456.62,-340.08 460.24,-350.04 465.66,-345.6"/>
</g>
<!-- 26 -->
<g id="node27" class="node">
<title>26</title>
<path fill="none" stroke="#d8a456" stroke-width="2" d="M311,-340C311,-340 141,-340 141,-340 135,-340 129,-334 129,-328 129,-328 129,-300 129,-300 129,-294 135,-288 141,-288 141,-288 311,-288 311,-288 317,-288 323,-294 323,-300 323,-300 323,-328 323,-328 323,-334 317,-340 311,-340"/>
<text text-anchor="middle" x="226" y="-328" font-family="sans" font-size="10.00">gatk_mutect2</text>
<text text-anchor="middle" x="226" y="-317" font-family="sans" font-size="10.00">interval: 0000&#45;scattered.interval_list</text>
<text text-anchor="middle" x="226" y="-306" font-family="sans" font-size="10.00">normal: L1</text>
<text text-anchor="middle" x="226" y="-295" font-family="sans" font-size="10.00">tumor: L2</text>
</g>
<!-- 1&#45;&gt;26 -->
<g id="edge56" class="edge">
<title>1&#45;&gt;26</title>
<path fill="none" stroke="grey" stroke-width="2" d="M664.14,-454.55C616.39,-445.09 546.07,-429.92 486,-412 420.37,-392.42 347.46,-364.68 295.59,-343.87"/>
<polygon fill="grey" stroke="grey" stroke-width="2" points="296.74,-340.56 286.16,-340.07 294.12,-347.06 296.74,-340.56"/>
</g>
<!-- 2 -->
<g id="node3" class="node">
<title>2</title>
<path fill="none" stroke="#568ad8" stroke-width="2" d="M251.5,-484C251.5,-484 164.5,-484 164.5,-484 158.5,-484 152.5,-478 152.5,-472 152.5,-472 152.5,-460 152.5,-460 152.5,-454 158.5,-448 164.5,-448 164.5,-448 251.5,-448 251.5,-448 257.5,-448 263.5,-454 263.5,-460 263.5,-460 263.5,-472 263.5,-472 263.5,-478 257.5,-484 251.5,-484"/>
<text text-anchor="middle" x="208" y="-463.5" font-family="sans" font-size="10.00">samtools_view_md</text>
</g>
<!-- 2&#45;&gt;0 -->
<g id="edge2" class="edge">
<title>2&#45;&gt;0</title>
<path fill="none" stroke="grey" stroke-width="2" d="M177.05,-447.89C138.04,-423.78 76,-375.88 76,-315 76,-315 76,-315 76,-161 76,-76.44 373.46,-35 479.78,-22.88"/>
<polygon fill="grey" stroke="grey" stroke-width="2" points="480.2,-26.36 489.75,-21.77 479.42,-19.4 480.2,-26.36"/>
</g>
<!-- 2&#45;&gt;16 -->
<g id="edge29" class="edge">
<title>2&#45;&gt;16</title>
<path fill="none" stroke="grey" stroke-width="2" d="M260.73,-447.97C327.69,-425.76 446.28,-384.46 544,-340 544.85,-339.61 545.71,-339.22 546.57,-338.81"/>
<polygon fill="grey" stroke="grey" stroke-width="2" points="548.43,-341.8 555.86,-334.24 545.34,-335.52 548.43,-341.8"/>
</g>
<!-- 2&#45;&gt;17 -->
<g id="edge34" class="edge">
<title>2&#45;&gt;17</title>
<path fill="none" stroke="grey" stroke-width="2" d="M263.52,-462.22C379.21,-455.92 637.84,-438.95 667,-412 685.19,-395.18 688.91,-366.48 688.69,-344.65"/>
<polygon fill="grey" stroke="grey" stroke-width="2" points="692.18,-344.43 688.31,-334.57 685.19,-344.69 692.18,-344.43"/>
</g>
<!-- 23 -->
<g id="node24" class="node">
<title>23</title>
<path fill="none" stroke="#d6d856" stroke-width="2" d="M321.5,-412C321.5,-412 230.5,-412 230.5,-412 224.5,-412 218.5,-406 218.5,-400 218.5,-400 218.5,-388 218.5,-388 218.5,-382 224.5,-376 230.5,-376 230.5,-376 321.5,-376 321.5,-376 327.5,-376 333.5,-382 333.5,-388 333.5,-388 333.5,-400 333.5,-400 333.5,-406 327.5,-412 321.5,-412"/>
<text text-anchor="middle" x="276" y="-391.5" font-family="sans" font-size="10.00">samtools_index_md</text>
</g>
<!-- 2&#45;&gt;23 -->
<g id="edge46" class="edge">
<title>2&#45;&gt;23</title>
<path fill="none" stroke="grey" stroke-width="2" d="M224.81,-447.7C233.13,-439.14 243.31,-428.66 252.39,-419.3"/>
<polygon fill="grey" stroke="grey" stroke-width="2" points="254.93,-421.72 259.38,-412.1 249.91,-416.84 254.93,-421.72"/>
</g>
<!-- 2&#45;&gt;25 -->
<g id="edge50" class="edge">
<title>2&#45;&gt;25</title>
<path fill="none" stroke="grey" stroke-width="2" d="M202.62,-447.95C197.61,-428.42 193.07,-396.49 209,-376 213.15,-370.66 273.37,-354.74 331.01,-340.49"/>
<polygon fill="grey" stroke="grey" stroke-width="2" points="332.1,-343.83 340.97,-338.04 330.43,-337.03 332.1,-343.83"/>
</g>
<!-- 2&#45;&gt;26 -->
<g id="edge55" class="edge">
<title>2&#45;&gt;26</title>
<path fill="none" stroke="grey" stroke-width="2" d="M194.44,-447.97C187.44,-438.09 179.63,-425.05 176,-412 171.71,-396.59 170.61,-391.07 176,-376 179.6,-365.94 185.65,-356.34 192.33,-347.86"/>
<polygon fill="grey" stroke="grey" stroke-width="2" points="195.1,-350 198.86,-340.09 189.74,-345.49 195.1,-350"/>
</g>
<!-- 3 -->
<g id="node4" class="node">
<title>3</title>
<path fill="none" stroke="#56d8d8" stroke-width="2" d="M613,-180C613,-180 567,-180 567,-180 561,-180 555,-174 555,-168 555,-168 555,-156 555,-156 555,-150 561,-144 567,-144 567,-144 613,-144 613,-144 619,-144 625,-150 625,-156 625,-156 625,-168 625,-168 625,-174 619,-180 613,-180"/>
<text text-anchor="middle" x="590" y="-159.5" font-family="sans" font-size="10.00">strelka2sql</text>
</g>
<!-- 3&#45;&gt;0 -->
<g id="edge3" class="edge">
<title>3&#45;&gt;0</title>
<path fill="none" stroke="grey" stroke-width="2" d="M581.19,-143.87C568.59,-119.35 545.29,-74.03 530.5,-45.26"/>
<polygon fill="grey" stroke="grey" stroke-width="2" points="533.52,-43.48 525.84,-36.19 527.3,-46.68 533.52,-43.48"/>
</g>
<!-- 4 -->
<g id="node5" class="node">
<title>4</title>
<path fill="none" stroke="#bed856" stroke-width="2" d="M461.5,-108C461.5,-108 414.5,-108 414.5,-108 408.5,-108 402.5,-102 402.5,-96 402.5,-96 402.5,-84 402.5,-84 402.5,-78 408.5,-72 414.5,-72 414.5,-72 461.5,-72 461.5,-72 467.5,-72 473.5,-78 473.5,-84 473.5,-84 473.5,-96 473.5,-96 473.5,-102 467.5,-108 461.5,-108"/>
<text text-anchor="middle" x="438" y="-87.5" font-family="sans" font-size="10.00">mutect2sql</text>
</g>
<!-- 4&#45;&gt;0 -->
<g id="edge4" class="edge">
<title>4&#45;&gt;0</title>
<path fill="none" stroke="grey" stroke-width="2" d="M457.53,-71.7C467.38,-62.97 479.49,-52.24 490.2,-42.75"/>
<polygon fill="grey" stroke="grey" stroke-width="2" points="492.53,-45.36 497.7,-36.1 487.89,-40.12 492.53,-45.36"/>
</g>
<!-- 5 -->
<g id="node6" class="node">
<title>5</title>
<path fill="none" stroke="#56d873" stroke-width="2" d="M766.5,-556C766.5,-556 671.5,-556 671.5,-556 665.5,-556 659.5,-550 659.5,-544 659.5,-544 659.5,-532 659.5,-532 659.5,-526 665.5,-520 671.5,-520 671.5,-520 766.5,-520 766.5,-520 772.5,-520 778.5,-526 778.5,-532 778.5,-532 778.5,-544 778.5,-544 778.5,-550 772.5,-556 766.5,-556"/>
<text text-anchor="middle" x="719" y="-535.5" font-family="sans" font-size="10.00">gatk_markduplicates</text>
</g>
<!-- 5&#45;&gt;1 -->
<g id="edge5" class="edge">
<title>5&#45;&gt;1</title>
<path fill="none" stroke="grey" stroke-width="2" d="M719.25,-519.7C719.36,-511.98 719.49,-502.71 719.61,-494.11"/>
<polygon fill="grey" stroke="grey" stroke-width="2" points="723.11,-494.15 719.76,-484.1 716.11,-494.05 723.11,-494.15"/>
</g>
<!-- 6 -->
<g id="node7" class="node">
<title>6</title>
<path fill="none" stroke="#d86e56" stroke-width="2" d="M503,-988C503,-988 447,-988 447,-988 441,-988 435,-982 435,-976 435,-976 435,-964 435,-964 435,-958 441,-952 447,-952 447,-952 503,-952 503,-952 509,-952 515,-958 515,-964 515,-964 515,-976 515,-976 515,-982 509,-988 503,-988"/>
<text text-anchor="middle" x="475" y="-967.5" font-family="sans" font-size="10.00">cp_reference</text>
</g>
<!-- 6&#45;&gt;1 -->
<g id="edge6" class="edge">
<title>6&#45;&gt;1</title>
<path fill="none" stroke="grey" stroke-width="2" d="M515.18,-967.42C594.69,-963.54 768.4,-951.2 815,-916 849.75,-889.75 856,-870.55 856,-827 856,-827 856,-827 856,-609 856,-554.57 803.25,-512.86 763.45,-489.14"/>
<polygon fill="grey" stroke="grey" stroke-width="2" points="765.08,-486.04 754.67,-484.07 761.58,-492.1 765.08,-486.04"/>
</g>
<!-- 6&#45;&gt;2 -->
<g id="edge8" class="edge">
<title>6&#45;&gt;2</title>
<path fill="none" stroke="grey" stroke-width="2" d="M434.99,-967.79C359.09,-964.65 198.37,-953.61 160,-916 84.74,-842.23 116,-788.39 116,-683 116,-683 116,-683 116,-609 116,-566.16 128.85,-555.38 153,-520 160.18,-509.48 169.72,-499.38 178.84,-490.88"/>
<polygon fill="grey" stroke="grey" stroke-width="2" points="181.24,-493.43 186.34,-484.14 176.56,-488.23 181.24,-493.43"/>
</g>
<!-- 6&#45;&gt;5 -->
<g id="edge14" class="edge">
<title>6&#45;&gt;5</title>
<path fill="none" stroke="grey" stroke-width="2" d="M515.24,-966.99C582.23,-962.7 712.04,-950.11 740,-916 750.14,-903.63 740.55,-895.99 740,-880 738.89,-847.94 743.45,-838.94 735,-808 730.29,-790.74 721.35,-789.35 717,-772 701.43,-709.9 713.89,-692.02 713,-628 712.78,-612 712.1,-607.97 713,-592 713.48,-583.55 714.38,-574.38 715.34,-566.07"/>
<polygon fill="grey" stroke="grey" stroke-width="2" points="718.81,-566.5 716.56,-556.14 711.87,-565.64 718.81,-566.5"/>
</g>
<!-- 7 -->
<g id="node8" class="node">
<title>7</title>
<path fill="none" stroke="#56d873" stroke-width="2" d="M269.5,-556C269.5,-556 174.5,-556 174.5,-556 168.5,-556 162.5,-550 162.5,-544 162.5,-544 162.5,-532 162.5,-532 162.5,-526 168.5,-520 174.5,-520 174.5,-520 269.5,-520 269.5,-520 275.5,-520 281.5,-526 281.5,-532 281.5,-532 281.5,-544 281.5,-544 281.5,-550 275.5,-556 269.5,-556"/>
<text text-anchor="middle" x="222" y="-535.5" font-family="sans" font-size="10.00">gatk_markduplicates</text>
</g>
<!-- 6&#45;&gt;7 -->
<g id="edge17" class="edge">
<title>6&#45;&gt;7</title>
<path fill="none" stroke="grey" stroke-width="2" d="M434.8,-965.9C366.55,-959.91 231.8,-944.74 195,-916 160.68,-889.19 154,-870.55 154,-827 154,-827 154,-827 154,-681 154,-640.55 154.38,-627.91 173,-592 178.39,-581.61 186.37,-571.74 194.33,-563.41"/>
<polygon fill="grey" stroke="grey" stroke-width="2" points="196.94,-565.74 201.56,-556.21 192.01,-560.78 196.94,-565.74"/>
</g>
<!-- 6&#45;&gt;16 -->
<g id="edge27" class="edge">
<title>6&#45;&gt;16</title>
<path fill="none" stroke="grey" stroke-width="2" d="M515.23,-967.7C599.72,-964.26 792.16,-952.53 845,-916 882.14,-890.32 894,-872.15 894,-827 894,-827 894,-827 894,-609 894,-472.24 805.92,-453.15 693,-376 673.83,-362.9 651.77,-349.62 633,-338.81"/>
<polygon fill="grey" stroke="grey" stroke-width="2" points="634.5,-335.63 624.08,-333.71 631.03,-341.71 634.5,-335.63"/>
</g>
<!-- 6&#45;&gt;17 -->
<g id="edge33" class="edge">
<title>6&#45;&gt;17</title>
<path fill="none" stroke="grey" stroke-width="2" d="M515.14,-968.01C604.72,-965.13 817.75,-954.33 877,-916 916.04,-890.74 932,-873.5 932,-827 932,-827 932,-827 932,-465 932,-371.55 801,-334.61 730.19,-321.47"/>
<polygon fill="grey" stroke="grey" stroke-width="2" points="730.66,-318 720.21,-319.7 729.44,-324.89 730.66,-318"/>
</g>
<!-- 20 -->
<g id="node21" class="node">
<title>20</title>
<path fill="none" stroke="#d88d56" stroke-width="2" d="M804,-772C804,-772 738,-772 738,-772 732,-772 726,-766 726,-760 726,-760 726,-748 726,-748 726,-742 732,-736 738,-736 738,-736 804,-736 804,-736 810,-736 816,-742 816,-748 816,-748 816,-760 816,-760 816,-766 810,-772 804,-772"/>
<text text-anchor="middle" x="771" y="-751.5" font-family="sans" font-size="10.00">samtools_view</text>
</g>
<!-- 6&#45;&gt;20 -->
<g id="edge42" class="edge">
<title>6&#45;&gt;20</title>
<path fill="none" stroke="grey" stroke-width="2" d="M515.27,-968.5C592.9,-966.61 758.7,-957.65 794,-916 826.04,-878.2 803.34,-816.56 785.9,-781.53"/>
<polygon fill="grey" stroke="grey" stroke-width="2" points="788.87,-779.67 781.17,-772.4 782.66,-782.89 788.87,-779.67"/>
</g>
<!-- 21 -->
<g id="node22" class="node">
<title>21</title>
<path fill="none" stroke="#d88d56" stroke-width="2" d="M300,-772C300,-772 234,-772 234,-772 228,-772 222,-766 222,-760 222,-760 222,-748 222,-748 222,-742 228,-736 234,-736 234,-736 300,-736 300,-736 306,-736 312,-742 312,-748 312,-748 312,-760 312,-760 312,-766 306,-772 300,-772"/>
<text text-anchor="middle" x="267" y="-751.5" font-family="sans" font-size="10.00">samtools_view</text>
</g>
<!-- 6&#45;&gt;21 -->
<g id="edge44" class="edge">
<title>6&#45;&gt;21</title>
<path fill="none" stroke="grey" stroke-width="2" d="M434.91,-966.96C368.17,-962.64 238.85,-949.99 211,-916 177.89,-875.58 217.08,-814.35 244.59,-780.22"/>
<polygon fill="grey" stroke="grey" stroke-width="2" points="247.59,-782.09 251.29,-772.16 242.21,-777.62 247.59,-782.09"/>
</g>
<!-- 24 -->
<g id="node25" class="node">
<title>24</title>
<path fill="none" stroke="#59d856" stroke-width="2" d="M413.5,-916C413.5,-916 368.5,-916 368.5,-916 362.5,-916 356.5,-910 356.5,-904 356.5,-904 356.5,-892 356.5,-892 356.5,-886 362.5,-880 368.5,-880 368.5,-880 413.5,-880 413.5,-880 419.5,-880 425.5,-886 425.5,-892 425.5,-892 425.5,-904 425.5,-904 425.5,-910 419.5,-916 413.5,-916"/>
<text text-anchor="middle" x="391" y="-895.5" font-family="sans" font-size="10.00">bwa_index</text>
</g>
<!-- 6&#45;&gt;24 -->
<g id="edge47" class="edge">
<title>6&#45;&gt;24</title>
<path fill="none" stroke="grey" stroke-width="2" d="M454.24,-951.7C443.76,-942.97 430.89,-932.24 419.5,-922.75"/>
<polygon fill="grey" stroke="grey" stroke-width="2" points="421.45,-919.82 411.53,-916.1 416.97,-925.19 421.45,-919.82"/>
</g>
<!-- 6&#45;&gt;25 -->
<g id="edge48" class="edge">
<title>6&#45;&gt;25</title>
<path fill="none" stroke="grey" stroke-width="2" d="M434.78,-966.09C355.08,-959.8 180.15,-943.26 127,-916 77.78,-890.75 40,-882.32 40,-827 40,-827 40,-827 40,-753 40,-572 44.59,-478.16 194,-376 197.09,-373.89 266.96,-356.52 331.14,-340.85"/>
<polygon fill="grey" stroke="grey" stroke-width="2" points="332.08,-344.22 340.97,-338.45 330.42,-337.42 332.08,-344.22"/>
</g>
<!-- 6&#45;&gt;26 -->
<g id="edge54" class="edge">
<title>6&#45;&gt;26</title>
<path fill="none" stroke="grey" stroke-width="2" d="M434.71,-968.03C343.09,-965.16 122.22,-954.35 60,-916 19.39,-890.97 0,-874.7 0,-827 0,-827 0,-827 0,-465 0,-402.55 60.65,-364.55 119.11,-342.42"/>
<polygon fill="grey" stroke="grey" stroke-width="2" points="120.65,-345.59 128.84,-338.87 118.25,-339.01 120.65,-345.59"/>
</g>
<!-- 27 -->
<g id="node28" class="node">
<title>27</title>
<path fill="none" stroke="#56c1d8" stroke-width="2" d="M714,-844C714,-844 670,-844 670,-844 664,-844 658,-838 658,-832 658,-832 658,-820 658,-820 658,-814 664,-808 670,-808 670,-808 714,-808 714,-808 720,-808 726,-814 726,-820 726,-820 726,-832 726,-832 726,-838 720,-844 714,-844"/>
<text text-anchor="middle" x="692" y="-823.5" font-family="sans" font-size="10.00">bwa_mem</text>
</g>
<!-- 6&#45;&gt;27 -->
<g id="edge60" class="edge">
<title>6&#45;&gt;27</title>
<path fill="none" stroke="grey" stroke-width="2" d="M515.22,-966.38C578.64,-961.32 697.32,-947.75 723,-916 737.9,-897.58 726.02,-871.52 712.89,-852.35"/>
<polygon fill="grey" stroke="grey" stroke-width="2" points="715.59,-850.11 706.87,-844.09 709.93,-854.23 715.59,-850.11"/>
</g>
<!-- 28 -->
<g id="node29" class="node">
<title>28</title>
<path fill="none" stroke="#56c1d8" stroke-width="2" d="M373,-844C373,-844 329,-844 329,-844 323,-844 317,-838 317,-832 317,-832 317,-820 317,-820 317,-814 323,-808 329,-808 329,-808 373,-808 373,-808 379,-808 385,-814 385,-820 385,-820 385,-832 385,-832 385,-838 379,-844 373,-844"/>
<text text-anchor="middle" x="351" y="-823.5" font-family="sans" font-size="10.00">bwa_mem</text>
</g>
<!-- 6&#45;&gt;28 -->
<g id="edge65" class="edge">
<title>6&#45;&gt;28</title>
<path fill="none" stroke="grey" stroke-width="2" d="M434.91,-964.01C405.4,-958 367.21,-944.83 348,-916 335.92,-897.87 338.05,-872.74 342.4,-853.8"/>
<polygon fill="grey" stroke="grey" stroke-width="2" points="345.82,-854.56 344.97,-844 339.05,-852.78 345.82,-854.56"/>
</g>
<!-- 30 -->
<g id="node31" class="node">
<title>30</title>
<path fill="none" stroke="#d8bc56" stroke-width="2" d="M604,-916C604,-916 536,-916 536,-916 530,-916 524,-910 524,-904 524,-904 524,-892 524,-892 524,-886 530,-880 536,-880 536,-880 604,-880 604,-880 610,-880 616,-886 616,-892 616,-892 616,-904 616,-904 616,-910 610,-916 604,-916"/>
<text text-anchor="middle" x="570" y="-895.5" font-family="sans" font-size="10.00">samtools_faidx</text>
</g>
<!-- 6&#45;&gt;30 -->
<g id="edge70" class="edge">
<title>6&#45;&gt;30</title>
<path fill="none" stroke="grey" stroke-width="2" d="M498.48,-951.7C510.56,-942.8 525.45,-931.82 538.52,-922.2"/>
<polygon fill="grey" stroke="grey" stroke-width="2" points="540.81,-924.85 546.79,-916.1 536.66,-919.22 540.81,-924.85"/>
</g>
<!-- 31 -->
<g id="node32" class="node">
<title>31</title>
<path fill="none" stroke="#88d856" stroke-width="2" d="M494,-916C494,-916 456,-916 456,-916 450,-916 444,-910 444,-904 444,-904 444,-892 444,-892 444,-886 450,-880 456,-880 456,-880 494,-880 494,-880 500,-880 506,-886 506,-892 506,-892 506,-904 506,-904 506,-910 500,-916 494,-916"/>
<text text-anchor="middle" x="475" y="-895.5" font-family="sans" font-size="10.00">gatk_dict</text>
</g>
<!-- 6&#45;&gt;31 -->
<g id="edge71" class="edge">
<title>6&#45;&gt;31</title>
<path fill="none" stroke="grey" stroke-width="2" d="M475,-951.7C475,-943.98 475,-934.71 475,-926.11"/>
<polygon fill="grey" stroke="grey" stroke-width="2" points="478.5,-926.1 475,-916.1 471.5,-926.1 478.5,-926.1"/>
</g>
<!-- 7&#45;&gt;2 -->
<g id="edge7" class="edge">
<title>7&#45;&gt;2</title>
<path fill="none" stroke="grey" stroke-width="2" d="M218.54,-519.7C217,-511.98 215.14,-502.71 213.42,-494.11"/>
<polygon fill="grey" stroke="grey" stroke-width="2" points="216.81,-493.22 211.42,-484.1 209.95,-494.6 216.81,-493.22"/>
</g>
<!-- 8 -->
<g id="node9" class="node">
<title>8</title>
<path fill="none" stroke="#56a2d8" stroke-width="2" d="M613.5,-252C613.5,-252 566.5,-252 566.5,-252 560.5,-252 554.5,-246 554.5,-240 554.5,-240 554.5,-228 554.5,-228 554.5,-222 560.5,-216 566.5,-216 566.5,-216 613.5,-216 613.5,-216 619.5,-216 625.5,-222 625.5,-228 625.5,-228 625.5,-240 625.5,-240 625.5,-246 619.5,-252 613.5,-252"/>
<text text-anchor="middle" x="590" y="-231.5" font-family="sans" font-size="10.00">strelka2tsv</text>
</g>
<!-- 8&#45;&gt;3 -->
<g id="edge9" class="edge">
<title>8&#45;&gt;3</title>
<path fill="none" stroke="grey" stroke-width="2" d="M590,-215.7C590,-207.98 590,-198.71 590,-190.11"/>
<polygon fill="grey" stroke="grey" stroke-width="2" points="593.5,-190.1 590,-180.1 586.5,-190.1 593.5,-190.1"/>
</g>
<!-- 9 -->
<g id="node10" class="node">
<title>9</title>
<path fill="none" stroke="#56a2d8" stroke-width="2" d="M704.5,-252C704.5,-252 657.5,-252 657.5,-252 651.5,-252 645.5,-246 645.5,-240 645.5,-240 645.5,-228 645.5,-228 645.5,-222 651.5,-216 657.5,-216 657.5,-216 704.5,-216 704.5,-216 710.5,-216 716.5,-222 716.5,-228 716.5,-228 716.5,-240 716.5,-240 716.5,-246 710.5,-252 704.5,-252"/>
<text text-anchor="middle" x="681" y="-231.5" font-family="sans" font-size="10.00">strelka2tsv</text>
</g>
<!-- 9&#45;&gt;3 -->
<g id="edge10" class="edge">
<title>9&#45;&gt;3</title>
<path fill="none" stroke="grey" stroke-width="2" d="M658.51,-215.7C647.04,-206.88 632.94,-196.03 620.52,-186.47"/>
<polygon fill="grey" stroke="grey" stroke-width="2" points="622.3,-183.43 612.24,-180.1 618.03,-188.98 622.3,-183.43"/>
</g>
<!-- 10 -->
<g id="node11" class="node">
<title>10</title>
<path fill="none" stroke="#56d8c1" stroke-width="2" d="M462,-180C462,-180 414,-180 414,-180 408,-180 402,-174 402,-168 402,-168 402,-156 402,-156 402,-150 408,-144 414,-144 414,-144 462,-144 462,-144 468,-144 474,-150 474,-156 474,-156 474,-168 474,-168 474,-174 468,-180 462,-180"/>
<text text-anchor="middle" x="438" y="-159.5" font-family="sans" font-size="10.00">mutect2tsv</text>
</g>
<!-- 10&#45;&gt;4 -->
<g id="edge11" class="edge">
<title>10&#45;&gt;4</title>
<path fill="none" stroke="grey" stroke-width="2" d="M438,-143.7C438,-135.98 438,-126.71 438,-118.11"/>
<polygon fill="grey" stroke="grey" stroke-width="2" points="441.5,-118.1 438,-108.1 434.5,-118.1 441.5,-118.1"/>
</g>
<!-- 11 -->
<g id="node12" class="node">
<title>11</title>
<path fill="none" stroke="#56d8c1" stroke-width="2" d="M341,-180C341,-180 293,-180 293,-180 287,-180 281,-174 281,-168 281,-168 281,-156 281,-156 281,-150 287,-144 293,-144 293,-144 341,-144 341,-144 347,-144 353,-150 353,-156 353,-156 353,-168 353,-168 353,-174 347,-180 341,-180"/>
<text text-anchor="middle" x="317" y="-159.5" font-family="sans" font-size="10.00">mutect2tsv</text>
</g>
<!-- 11&#45;&gt;4 -->
<g id="edge12" class="edge">
<title>11&#45;&gt;4</title>
<path fill="none" stroke="grey" stroke-width="2" d="M346.6,-143.88C362.57,-134.64 382.46,-123.13 399.61,-113.21"/>
<polygon fill="grey" stroke="grey" stroke-width="2" points="401.38,-116.23 408.29,-108.19 397.88,-110.17 401.38,-116.23"/>
</g>
<!-- 12 -->
<g id="node13" class="node">
<title>12</title>
<path fill="none" stroke="#5673d8" stroke-width="2" d="M802,-700C802,-700 740,-700 740,-700 734,-700 728,-694 728,-688 728,-688 728,-676 728,-676 728,-670 734,-664 740,-664 740,-664 802,-664 802,-664 808,-664 814,-670 814,-676 814,-676 814,-688 814,-688 814,-694 808,-700 802,-700"/>
<text text-anchor="middle" x="771" y="-679.5" font-family="sans" font-size="10.00">samtools_sort</text>
</g>
<!-- 12&#45;&gt;5 -->
<g id="edge13" class="edge">
<title>12&#45;&gt;5</title>
<path fill="none" stroke="grey" stroke-width="2" d="M751.04,-663.93C741.38,-654.42 730.67,-641.74 725,-628 716.95,-608.46 715.77,-584.47 716.43,-566.32"/>
<polygon fill="grey" stroke="grey" stroke-width="2" points="719.94,-566.31 717.02,-556.12 712.95,-565.91 719.94,-566.31"/>
</g>
<!-- 13 -->
<g id="node14" class="node">
<title>13</title>
<path fill="none" stroke="#70d856" stroke-width="2" d="M816,-628C816,-628 746,-628 746,-628 740,-628 734,-622 734,-616 734,-616 734,-604 734,-604 734,-598 740,-592 746,-592 746,-592 816,-592 816,-592 822,-592 828,-598 828,-604 828,-604 828,-616 828,-616 828,-622 822,-628 816,-628"/>
<text text-anchor="middle" x="781" y="-607.5" font-family="sans" font-size="10.00">samtools_index</text>
</g>
<!-- 12&#45;&gt;13 -->
<g id="edge24" class="edge">
<title>12&#45;&gt;13</title>
<path fill="none" stroke="grey" stroke-width="2" d="M773.47,-663.7C774.57,-655.98 775.9,-646.71 777.13,-638.11"/>
<polygon fill="grey" stroke="grey" stroke-width="2" points="780.61,-638.5 778.56,-628.1 773.68,-637.51 780.61,-638.5"/>
</g>
<!-- 13&#45;&gt;5 -->
<g id="edge15" class="edge">
<title>13&#45;&gt;5</title>
<path fill="none" stroke="grey" stroke-width="2" d="M765.67,-591.7C758.24,-583.3 749.18,-573.07 741.02,-563.86"/>
<polygon fill="grey" stroke="grey" stroke-width="2" points="743.4,-561.27 734.15,-556.1 738.16,-565.91 743.4,-561.27"/>
</g>
<!-- 14 -->
<g id="node15" class="node">
<title>14</title>
<path fill="none" stroke="#5673d8" stroke-width="2" d="M298,-700C298,-700 236,-700 236,-700 230,-700 224,-694 224,-688 224,-688 224,-676 224,-676 224,-670 230,-664 236,-664 236,-664 298,-664 298,-664 304,-664 310,-670 310,-676 310,-676 310,-688 310,-688 310,-694 304,-700 298,-700"/>
<text text-anchor="middle" x="267" y="-679.5" font-family="sans" font-size="10.00">samtools_sort</text>
</g>
<!-- 14&#45;&gt;7 -->
<g id="edge16" class="edge">
<title>14&#45;&gt;7</title>
<path fill="none" stroke="grey" stroke-width="2" d="M276.53,-663.86C285.46,-645.37 295.91,-615.44 285,-592 279.57,-580.34 270.18,-570.34 260.28,-562.26"/>
<polygon fill="grey" stroke="grey" stroke-width="2" points="262.38,-559.45 252.3,-556.2 258.15,-565.03 262.38,-559.45"/>
</g>
<!-- 15 -->
<g id="node16" class="node">
<title>15</title>
<path fill="none" stroke="#70d856" stroke-width="2" d="M264,-628C264,-628 194,-628 194,-628 188,-628 182,-622 182,-616 182,-616 182,-604 182,-604 182,-598 188,-592 194,-592 194,-592 264,-592 264,-592 270,-592 276,-598 276,-604 276,-604 276,-616 276,-616 276,-622 270,-628 264,-628"/>
<text text-anchor="middle" x="229" y="-607.5" font-family="sans" font-size="10.00">samtools_index</text>
</g>
<!-- 14&#45;&gt;15 -->
<g id="edge26" class="edge">
<title>14&#45;&gt;15</title>
<path fill="none" stroke="grey" stroke-width="2" d="M257.61,-663.7C253.24,-655.64 247.94,-645.89 243.1,-636.98"/>
<polygon fill="grey" stroke="grey" stroke-width="2" points="246.13,-635.22 238.29,-628.1 239.98,-638.56 246.13,-635.22"/>
</g>
<!-- 15&#45;&gt;7 -->
<g id="edge18" class="edge">
<title>15&#45;&gt;7</title>
<path fill="none" stroke="grey" stroke-width="2" d="M227.27,-591.7C226.5,-583.98 225.57,-574.71 224.71,-566.11"/>
<polygon fill="grey" stroke="grey" stroke-width="2" points="228.19,-565.71 223.71,-556.1 221.22,-566.4 228.19,-565.71"/>
</g>
<!-- 16&#45;&gt;8 -->
<g id="edge19" class="edge">
<title>16&#45;&gt;8</title>
<path fill="none" stroke="grey" stroke-width="2" d="M590,-293.32C590,-283.87 590,-272.4 590,-262.14"/>
<polygon fill="grey" stroke="grey" stroke-width="2" points="593.5,-262.03 590,-252.03 586.5,-262.03 593.5,-262.03"/>
</g>
<!-- 17&#45;&gt;9 -->
<g id="edge20" class="edge">
<title>17&#45;&gt;9</title>
<path fill="none" stroke="grey" stroke-width="2" d="M684.74,-293.32C684.13,-283.87 683.4,-272.4 682.74,-262.14"/>
<polygon fill="grey" stroke="grey" stroke-width="2" points="686.22,-261.78 682.09,-252.03 679.24,-262.23 686.22,-261.78"/>
</g>
<!-- 18 -->
<g id="node19" class="node">
<title>18</title>
<path fill="none" stroke="#56d8a2" stroke-width="2" d="M473.5,-252C473.5,-252 402.5,-252 402.5,-252 396.5,-252 390.5,-246 390.5,-240 390.5,-240 390.5,-228 390.5,-228 390.5,-222 396.5,-216 402.5,-216 402.5,-216 473.5,-216 473.5,-216 479.5,-216 485.5,-222 485.5,-228 485.5,-228 485.5,-240 485.5,-240 485.5,-246 479.5,-252 473.5,-252"/>
<text text-anchor="middle" x="438" y="-231.5" font-family="sans" font-size="10.00">gatk_gathervcfs</text>
</g>
<!-- 18&#45;&gt;10 -->
<g id="edge21" class="edge">
<title>18&#45;&gt;10</title>
<path fill="none" stroke="grey" stroke-width="2" d="M438,-215.7C438,-207.98 438,-198.71 438,-190.11"/>
<polygon fill="grey" stroke="grey" stroke-width="2" points="441.5,-190.1 438,-180.1 434.5,-190.1 441.5,-190.1"/>
</g>
<!-- 19 -->
<g id="node20" class="node">
<title>19</title>
<path fill="none" stroke="#56d8a2" stroke-width="2" d="M291.5,-252C291.5,-252 220.5,-252 220.5,-252 214.5,-252 208.5,-246 208.5,-240 208.5,-240 208.5,-228 208.5,-228 208.5,-222 214.5,-216 220.5,-216 220.5,-216 291.5,-216 291.5,-216 297.5,-216 303.5,-222 303.5,-228 303.5,-228 303.5,-240 303.5,-240 303.5,-246 297.5,-252 291.5,-252"/>
<text text-anchor="middle" x="256" y="-231.5" font-family="sans" font-size="10.00">gatk_gathervcfs</text>
</g>
<!-- 19&#45;&gt;11 -->
<g id="edge22" class="edge">
<title>19&#45;&gt;11</title>
<path fill="none" stroke="grey" stroke-width="2" d="M271.08,-215.7C278.39,-207.3 287.31,-197.07 295.34,-187.86"/>
<polygon fill="grey" stroke="grey" stroke-width="2" points="298.16,-189.94 302.09,-180.1 292.89,-185.34 298.16,-189.94"/>
</g>
<!-- 20&#45;&gt;12 -->
<g id="edge23" class="edge">
<title>20&#45;&gt;12</title>
<path fill="none" stroke="grey" stroke-width="2" d="M771,-735.7C771,-727.98 771,-718.71 771,-710.11"/>
<polygon fill="grey" stroke="grey" stroke-width="2" points="774.5,-710.1 771,-700.1 767.5,-710.1 774.5,-710.1"/>
</g>
<!-- 21&#45;&gt;14 -->
<g id="edge25" class="edge">
<title>21&#45;&gt;14</title>
<path fill="none" stroke="grey" stroke-width="2" d="M267,-735.7C267,-727.98 267,-718.71 267,-710.11"/>
<polygon fill="grey" stroke="grey" stroke-width="2" points="270.5,-710.1 267,-700.1 263.5,-710.1 270.5,-710.1"/>
</g>
<!-- 22&#45;&gt;16 -->
<g id="edge30" class="edge">
<title>22&#45;&gt;16</title>
<path fill="none" stroke="grey" stroke-width="2" d="M597.78,-375.69C596.62,-366.6 595.15,-355.21 593.81,-344.76"/>
<polygon fill="grey" stroke="grey" stroke-width="2" points="597.27,-344.21 592.53,-334.74 590.33,-345.1 597.27,-344.21"/>
</g>
<!-- 22&#45;&gt;17 -->
<g id="edge37" class="edge">
<title>22&#45;&gt;17</title>
<path fill="none" stroke="grey" stroke-width="2" d="M619.09,-375.69C630.15,-365.65 644.31,-352.81 656.76,-341.52"/>
<polygon fill="grey" stroke="grey" stroke-width="2" points="659.18,-344.05 664.24,-334.74 654.48,-338.86 659.18,-344.05"/>
</g>
<!-- 22&#45;&gt;25 -->
<g id="edge51" class="edge">
<title>22&#45;&gt;25</title>
<path fill="none" stroke="grey" stroke-width="2" d="M564.45,-375.88C545.38,-366.7 521.34,-355.13 499.35,-344.54"/>
<polygon fill="grey" stroke="grey" stroke-width="2" points="500.61,-341.26 490.08,-340.07 497.57,-347.57 500.61,-341.26"/>
</g>
<!-- 22&#45;&gt;26 -->
<g id="edge58" class="edge">
<title>22&#45;&gt;26</title>
<path fill="none" stroke="grey" stroke-width="2" d="M542.37,-382.23C490.24,-372.35 411.13,-357 333.03,-340.19"/>
<polygon fill="grey" stroke="grey" stroke-width="2" points="333.53,-336.72 323.01,-338.03 332.05,-343.56 333.53,-336.72"/>
</g>
<!-- 23&#45;&gt;16 -->
<g id="edge31" class="edge">
<title>23&#45;&gt;16</title>
<path fill="none" stroke="grey" stroke-width="2" d="M333.71,-379.1C338.54,-378.02 343.35,-376.98 348,-376 434.68,-357.82 460.49,-369.51 544,-340 545.21,-339.57 546.42,-339.12 547.63,-338.64"/>
<polygon fill="grey" stroke="grey" stroke-width="2" points="549.15,-341.79 556.9,-334.57 546.34,-335.39 549.15,-341.79"/>
</g>
<!-- 23&#45;&gt;17 -->
<g id="edge36" class="edge">
<title>23&#45;&gt;17</title>
<path fill="none" stroke="grey" stroke-width="2" d="M333.71,-389.65C405.25,-384.31 530.3,-371.1 633,-340 636.12,-339.06 639.28,-337.96 642.43,-336.76"/>
<polygon fill="grey" stroke="grey" stroke-width="2" points="643.88,-339.95 651.8,-332.91 641.22,-333.47 643.88,-339.95"/>
</g>
<!-- 23&#45;&gt;25 -->
<g id="edge52" class="edge">
<title>23&#45;&gt;25</title>
<path fill="none" stroke="grey" stroke-width="2" d="M311.55,-375.88C330.62,-366.7 354.66,-355.13 376.65,-344.54"/>
<polygon fill="grey" stroke="grey" stroke-width="2" points="378.43,-347.57 385.92,-340.07 375.39,-341.26 378.43,-347.57"/>
</g>
<!-- 23&#45;&gt;26 -->
<g id="edge57" class="edge">
<title>23&#45;&gt;26</title>
<path fill="none" stroke="grey" stroke-width="2" d="M264.9,-375.69C259.85,-367.8 253.67,-358.17 247.75,-348.93"/>
<polygon fill="grey" stroke="grey" stroke-width="2" points="250.53,-346.79 242.19,-340.26 244.64,-350.56 250.53,-346.79"/>
</g>
<!-- 24&#45;&gt;16 -->
<g id="edge32" class="edge">
<title>24&#45;&gt;16</title>
<path fill="none" stroke="grey" stroke-width="2" d="M409.86,-879.73C434.91,-854.82 476,-806.14 476,-755 476,-755 476,-755 476,-465 476,-413.14 519.73,-367.97 553.03,-341.11"/>
<polygon fill="grey" stroke="grey" stroke-width="2" points="555.52,-343.6 561.23,-334.68 551.2,-338.09 555.52,-343.6"/>
</g>
<!-- 24&#45;&gt;17 -->
<g id="edge38" class="edge">
<title>24&#45;&gt;17</title>
<path fill="none" stroke="grey" stroke-width="2" d="M425.75,-880.42C492.04,-848.24 630,-778.47 630,-755 630,-755 630,-755 630,-609 630,-568.36 622.71,-549.18 651,-520 693.93,-475.73 747.48,-532.94 785,-484 821.08,-436.95 762.08,-375.58 720.78,-341.24"/>
<polygon fill="grey" stroke="grey" stroke-width="2" points="722.76,-338.33 712.79,-334.74 718.34,-343.76 722.76,-338.33"/>
</g>
<!-- 24&#45;&gt;25 -->
<g id="edge53" class="edge">
<title>24&#45;&gt;25</title>
<path fill="none" stroke="grey" stroke-width="2" d="M400.74,-879.68C414.51,-853.53 438,-802 438,-755 438,-755 438,-755 438,-465 438,-425.75 438,-380.72 438,-350.32"/>
<polygon fill="grey" stroke="grey" stroke-width="2" points="441.5,-350.21 438,-340.21 434.5,-350.21 441.5,-350.21"/>
</g>
<!-- 24&#45;&gt;26 -->
<g id="edge59" class="edge">
<title>24&#45;&gt;26</title>
<path fill="none" stroke="grey" stroke-width="2" d="M356.32,-879.99C288.85,-844.48 142.95,-755.05 102,-628 67.64,-521.4 29.36,-462.92 100,-376 110.28,-363.35 123.83,-353.14 138.22,-344.96"/>
<polygon fill="grey" stroke="grey" stroke-width="2" points="140.09,-347.93 147.27,-340.13 136.8,-341.75 140.09,-347.93"/>
</g>
<!-- 24&#45;&gt;27 -->
<g id="edge62" class="edge">
<title>24&#45;&gt;27</title>
<path fill="none" stroke="grey" stroke-width="2" d="M425.85,-882.82C428.92,-881.79 432,-880.83 435,-880 525.85,-854.89 552.8,-867.82 644,-844 645.42,-843.63 646.85,-843.24 648.29,-842.82"/>
<polygon fill="grey" stroke="grey" stroke-width="2" points="649.34,-846.16 657.87,-839.88 647.29,-839.47 649.34,-846.16"/>
</g>
<!-- 24&#45;&gt;28 -->
<g id="edge67" class="edge">
<title>24&#45;&gt;28</title>
<path fill="none" stroke="grey" stroke-width="2" d="M381.11,-879.7C376.51,-871.64 370.94,-861.89 365.85,-852.98"/>
<polygon fill="grey" stroke="grey" stroke-width="2" points="368.77,-851.05 360.77,-844.1 362.7,-854.52 368.77,-851.05"/>
</g>
<!-- 25&#45;&gt;18 -->
<g id="edge39" class="edge">
<title>25&#45;&gt;18</title>
<path fill="none" stroke="grey" stroke-width="2" d="M438,-287.89C438,-279.84 438,-270.88 438,-262.66"/>
<polygon fill="grey" stroke="grey" stroke-width="2" points="441.5,-262.41 438,-252.41 434.5,-262.41 441.5,-262.41"/>
</g>
<!-- 26&#45;&gt;19 -->
<g id="edge40" class="edge">
<title>26&#45;&gt;19</title>
<path fill="none" stroke="grey" stroke-width="2" d="M235.66,-287.89C238.86,-279.57 242.43,-270.28 245.68,-261.83"/>
<polygon fill="grey" stroke="grey" stroke-width="2" points="248.98,-263 249.3,-252.41 242.45,-260.49 248.98,-263"/>
</g>
<!-- 27&#45;&gt;20 -->
<g id="edge41" class="edge">
<title>27&#45;&gt;20</title>
<path fill="none" stroke="grey" stroke-width="2" d="M711.53,-807.7C721.38,-798.97 733.49,-788.24 744.2,-778.75"/>
<polygon fill="grey" stroke="grey" stroke-width="2" points="746.53,-781.36 751.7,-772.1 741.89,-776.12 746.53,-781.36"/>
</g>
<!-- 28&#45;&gt;21 -->
<g id="edge43" class="edge">
<title>28&#45;&gt;21</title>
<path fill="none" stroke="grey" stroke-width="2" d="M330.24,-807.7C319.76,-798.97 306.89,-788.24 295.5,-778.75"/>
<polygon fill="grey" stroke="grey" stroke-width="2" points="297.45,-775.82 287.53,-772.1 292.97,-781.19 297.45,-775.82"/>
</g>
<!-- 29 -->
<g id="node30" class="node">
<title>29</title>
<path fill="none" stroke="#a7d856" stroke-width="2" d="M702,-916C702,-916 646,-916 646,-916 640,-916 634,-910 634,-904 634,-904 634,-892 634,-892 634,-886 640,-880 646,-880 646,-880 702,-880 702,-880 708,-880 714,-886 714,-892 714,-892 714,-904 714,-904 714,-910 708,-916 702,-916"/>
<text text-anchor="middle" x="674" y="-901" font-family="sans" font-size="10.00">trimmomatic</text>
<text text-anchor="middle" x="674" y="-890" font-family="sans" font-size="10.00">library: L1</text>
</g>
<!-- 29&#45;&gt;27 -->
<g id="edge61" class="edge">
<title>29&#45;&gt;27</title>
<path fill="none" stroke="grey" stroke-width="2" d="M678.45,-879.7C680.45,-871.9 682.87,-862.51 685.1,-853.83"/>
<polygon fill="grey" stroke="grey" stroke-width="2" points="688.5,-854.66 687.6,-844.1 681.72,-852.92 688.5,-854.66"/>
</g>
<!-- 30&#45;&gt;27 -->
<g id="edge63" class="edge">
<title>30&#45;&gt;27</title>
<path fill="none" stroke="grey" stroke-width="2" d="M599.84,-879.88C615.94,-870.64 636,-859.13 653.29,-849.21"/>
<polygon fill="grey" stroke="grey" stroke-width="2" points="655.11,-852.2 662.04,-844.19 651.63,-846.13 655.11,-852.2"/>
</g>
<!-- 30&#45;&gt;28 -->
<g id="edge68" class="edge">
<title>30&#45;&gt;28</title>
<path fill="none" stroke="grey" stroke-width="2" d="M523.82,-882.24C485.81,-870.09 432.28,-852.98 394.9,-841.03"/>
<polygon fill="grey" stroke="grey" stroke-width="2" points="395.88,-837.67 385.29,-837.96 393.75,-844.34 395.88,-837.67"/>
</g>
<!-- 31&#45;&gt;27 -->
<g id="edge64" class="edge">
<title>31&#45;&gt;27</title>
<path fill="none" stroke="grey" stroke-width="2" d="M506.29,-883.25C509.22,-882.1 512.15,-881 515,-880 571.18,-860.32 587.25,-861.95 644,-844 645.4,-843.56 646.81,-843.1 648.24,-842.64"/>
<polygon fill="grey" stroke="grey" stroke-width="2" points="649.38,-845.95 657.75,-839.45 647.15,-839.31 649.38,-845.95"/>
</g>
<!-- 31&#45;&gt;28 -->
<g id="edge69" class="edge">
<title>31&#45;&gt;28</title>
<path fill="none" stroke="grey" stroke-width="2" d="M444.67,-879.88C428.3,-870.64 407.92,-859.13 390.35,-849.21"/>
<polygon fill="grey" stroke="grey" stroke-width="2" points="391.88,-846.06 381.45,-844.19 388.44,-852.15 391.88,-846.06"/>
</g>
<!-- 32 -->
<g id="node33" class="node">
<title>32</title>
<path fill="none" stroke="#a7d856" stroke-width="2" d="M288,-916C288,-916 232,-916 232,-916 226,-916 220,-910 220,-904 220,-904 220,-892 220,-892 220,-886 226,-880 232,-880 232,-880 288,-880 288,-880 294,-880 300,-886 300,-892 300,-892 300,-904 300,-904 300,-910 294,-916 288,-916"/>
<text text-anchor="middle" x="260" y="-901" font-family="sans" font-size="10.00">trimmomatic</text>
<text text-anchor="middle" x="260" y="-890" font-family="sans" font-size="10.00">library: L2</text>
</g>
<!-- 32&#45;&gt;28 -->
<g id="edge66" class="edge">
<title>32&#45;&gt;28</title>
<path fill="none" stroke="grey" stroke-width="2" d="M282.49,-879.7C293.96,-870.88 308.06,-860.03 320.48,-850.47"/>
<polygon fill="grey" stroke="grey" stroke-width="2" points="322.97,-852.98 328.76,-844.1 318.7,-847.43 322.97,-852.98"/>
</g>
</g>
</svg>
