<?xml version="1.0" encoding="UTF-8" standalone="no"?>
<!DOCTYPE svg PUBLIC "-//W3C//DTD SVG 1.1//EN"
 "http://www.w3.org/Graphics/SVG/1.1/DTD/svg11.dtd">
<!-- Generated by graphviz version 2.43.0 (0)
 -->
<!-- Title: snakemake_dag Pages: 1 -->
<svg width="934pt" height="836pt"
 viewBox="0.00 0.00 934.33 836.00" xmlns="http://www.w3.org/2000/svg" xmlns:xlink="http://www.w3.org/1999/xlink">
<g id="graph0" class="graph" transform="scale(1 1) rotate(0) translate(4 832)">
<title>snakemake_dag</title>
<polygon fill="white" stroke="transparent" points="-4,4 -4,-832 930.33,-832 930.33,4 -4,4"/>
<!-- 0 -->
<g id="node1" class="node">
<title>0</title>
<path fill="none" stroke="#59d856" stroke-width="2" d="M369.24,-36C369.24,-36 339.24,-36 339.24,-36 333.24,-36 327.24,-30 327.24,-24 327.24,-24 327.24,-12 327.24,-12 327.24,-6 333.24,0 339.24,0 339.24,0 369.24,0 369.24,0 375.24,0 381.24,-6 381.24,-12 381.24,-12 381.24,-24 381.24,-24 381.24,-30 375.24,-36 369.24,-36"/>
<text text-anchor="middle" x="354.24" y="-15.5" font-family="sans" font-size="10.00">all</text>
</g>
<!-- 1 -->
<g id="node2" class="node">
<title>1</title>
<path fill="none" stroke="#78d856" stroke-width="2" d="M248.24,-180C248.24,-180 202.24,-180 202.24,-180 196.24,-180 190.24,-174 190.24,-168 190.24,-168 190.24,-156 190.24,-156 190.24,-150 196.24,-144 202.24,-144 202.24,-144 248.24,-144 248.24,-144 254.24,-144 260.24,-150 260.24,-156 260.24,-156 260.24,-168 260.24,-168 260.24,-174 254.24,-180 248.24,-180"/>
<text text-anchor="middle" x="225.24" y="-165" font-family="sans" font-size="10.00">strelka2</text>
<text text-anchor="middle" x="225.24" y="-154" font-family="sans" font-size="10.00">tumor: AL1</text>
</g>
<!-- 1&#45;&gt;0 -->
<g id="edge1" class="edge">
<title>1&#45;&gt;0</title>
<path fill="none" stroke="grey" stroke-width="2" d="M240.8,-143.87C263.47,-118.92 305.69,-72.45 331.74,-43.77"/>
<polygon fill="grey" stroke="grey" stroke-width="2" points="334.49,-45.94 338.63,-36.19 329.31,-41.24 334.49,-45.94"/>
</g>
<!-- 2 -->
<g id="node3" class="node">
<title>2</title>
<path fill="none" stroke="#d87556" stroke-width="2" d="M498.24,-108C498.24,-108 468.24,-108 468.24,-108 462.24,-108 456.24,-102 456.24,-96 456.24,-96 456.24,-84 456.24,-84 456.24,-78 462.24,-72 468.24,-72 468.24,-72 498.24,-72 498.24,-72 504.24,-72 510.24,-78 510.24,-84 510.24,-84 510.24,-96 510.24,-96 510.24,-102 504.24,-108 498.24,-108"/>
<text text-anchor="middle" x="483.24" y="-87.5" font-family="sans" font-size="10.00">multiqc</text>
</g>
<!-- 2&#45;&gt;0 -->
<g id="edge2" class="edge">
<title>2&#45;&gt;0</title>
<path fill="none" stroke="grey" stroke-width="2" d="M456.2,-74.33C437.02,-63.92 411.08,-49.84 390.17,-38.49"/>
<polygon fill="grey" stroke="grey" stroke-width="2" points="391.71,-35.35 381.25,-33.65 388.37,-41.5 391.71,-35.35"/>
</g>
<!-- 3 -->
<g id="node4" class="node">
<title>3</title>
<path fill="none" stroke="#569ad8" stroke-width="2" d="M532.24,-828C532.24,-828 476.24,-828 476.24,-828 470.24,-828 464.24,-822 464.24,-816 464.24,-816 464.24,-804 464.24,-804 464.24,-798 470.24,-792 476.24,-792 476.24,-792 532.24,-792 532.24,-792 538.24,-792 544.24,-798 544.24,-804 544.24,-804 544.24,-816 544.24,-816 544.24,-822 538.24,-828 532.24,-828"/>
<text text-anchor="middle" x="504.24" y="-807.5" font-family="sans" font-size="10.00">cp_reference</text>
</g>
<!-- 3&#45;&gt;1 -->
<g id="edge3" class="edge">
<title>3&#45;&gt;1</title>
<path fill="none" stroke="grey" stroke-width="2" d="M464.01,-806.3C344.89,-797.22 2.24,-762.78 2.24,-667 2.24,-667 2.24,-667 2.24,-305 2.24,-264.55 -6.72,-245.22 21.24,-216 42.89,-193.38 126.72,-177.33 179.95,-169.16"/>
<polygon fill="grey" stroke="grey" stroke-width="2" points="180.79,-172.57 190.16,-167.63 179.75,-165.65 180.79,-172.57"/>
</g>
<!-- 4 -->
<g id="node5" class="node">
<title>4</title>
<path fill="none" stroke="#d85656" stroke-width="2" d="M266.74,-324C266.74,-324 179.74,-324 179.74,-324 173.74,-324 167.74,-318 167.74,-312 167.74,-312 167.74,-300 167.74,-300 167.74,-294 173.74,-288 179.74,-288 179.74,-288 266.74,-288 266.74,-288 272.74,-288 278.74,-294 278.74,-300 278.74,-300 278.74,-312 278.74,-312 278.74,-318 272.74,-324 266.74,-324"/>
<text text-anchor="middle" x="223.24" y="-303.5" font-family="sans" font-size="10.00">samtools_view_md</text>
</g>
<!-- 3&#45;&gt;4 -->
<g id="edge17" class="edge">
<title>3&#45;&gt;4</title>
<path fill="none" stroke="grey" stroke-width="2" d="M464.02,-800.72C437.74,-793.29 404.63,-779.77 384.24,-756 357.56,-724.91 360.24,-707.97 360.24,-667 360.24,-667 360.24,-667 360.24,-449 360.24,-394.54 307.41,-352.96 267.36,-329.26"/>
<polygon fill="grey" stroke="grey" stroke-width="2" points="268.94,-326.13 258.52,-324.19 265.46,-332.21 268.94,-326.13"/>
</g>
<!-- 5 -->
<g id="node6" class="node">
<title>5</title>
<path fill="none" stroke="#d85656" stroke-width="2" d="M691.74,-324C691.74,-324 604.74,-324 604.74,-324 598.74,-324 592.74,-318 592.74,-312 592.74,-312 592.74,-300 592.74,-300 592.74,-294 598.74,-288 604.74,-288 604.74,-288 691.74,-288 691.74,-288 697.74,-288 703.74,-294 703.74,-300 703.74,-300 703.74,-312 703.74,-312 703.74,-318 697.74,-324 691.74,-324"/>
<text text-anchor="middle" x="648.24" y="-303.5" font-family="sans" font-size="10.00">samtools_view_md</text>
</g>
<!-- 3&#45;&gt;5 -->
<g id="edge19" class="edge">
<title>3&#45;&gt;5</title>
<path fill="none" stroke="grey" stroke-width="2" d="M524.69,-791.8C534.76,-782.25 546.22,-769.58 553.24,-756 628.8,-609.93 644.27,-407.52 647.43,-334.58"/>
<polygon fill="grey" stroke="grey" stroke-width="2" points="650.94,-334.52 647.83,-324.39 643.94,-334.25 650.94,-334.52"/>
</g>
<!-- 14 -->
<g id="node15" class="node">
<title>14</title>
<path fill="none" stroke="#d8b456" stroke-width="2" d="M331.74,-180C331.74,-180 290.74,-180 290.74,-180 284.74,-180 278.74,-174 278.74,-168 278.74,-168 278.74,-156 278.74,-156 278.74,-150 284.74,-144 290.74,-144 290.74,-144 331.74,-144 331.74,-144 337.74,-144 343.74,-150 343.74,-156 343.74,-156 343.74,-168 343.74,-168 343.74,-174 337.74,-180 331.74,-180"/>
<text text-anchor="middle" x="311.24" y="-159.5" font-family="sans" font-size="10.00">mosdepth</text>
</g>
<!-- 3&#45;&gt;14 -->
<g id="edge24" class="edge">
<title>3&#45;&gt;14</title>
<path fill="none" stroke="grey" stroke-width="2" d="M479.66,-791.93C448.34,-767.96 398.24,-721.14 398.24,-667 398.24,-667 398.24,-667 398.24,-305 398.24,-258.16 363.4,-213.74 337.81,-187.43"/>
<polygon fill="grey" stroke="grey" stroke-width="2" points="340.1,-184.77 330.55,-180.18 335.16,-189.72 340.1,-184.77"/>
</g>
<!-- 15 -->
<g id="node16" class="node">
<title>15</title>
<path fill="none" stroke="#d8b456" stroke-width="2" d="M809.74,-180C809.74,-180 768.74,-180 768.74,-180 762.74,-180 756.74,-174 756.74,-168 756.74,-168 756.74,-156 756.74,-156 756.74,-150 762.74,-144 768.74,-144 768.74,-144 809.74,-144 809.74,-144 815.74,-144 821.74,-150 821.74,-156 821.74,-156 821.74,-168 821.74,-168 821.74,-174 815.74,-180 809.74,-180"/>
<text text-anchor="middle" x="789.24" y="-159.5" font-family="sans" font-size="10.00">mosdepth</text>
</g>
<!-- 3&#45;&gt;15 -->
<g id="edge28" class="edge">
<title>3&#45;&gt;15</title>
<path fill="none" stroke="grey" stroke-width="2" d="M544.57,-809.18C635,-808.74 850.12,-802.68 902.24,-756 932.59,-728.81 924.24,-707.75 924.24,-667 924.24,-667 924.24,-667 924.24,-521 924.24,-388.86 842.73,-245.92 806.38,-188.75"/>
<polygon fill="grey" stroke="grey" stroke-width="2" points="809.11,-186.52 800.75,-180.01 803.23,-190.31 809.11,-186.52"/>
</g>
<!-- 16 -->
<g id="node17" class="node">
<title>16</title>
<path fill="none" stroke="#56b9d8" stroke-width="2" d="M264.74,-396C264.74,-396 169.74,-396 169.74,-396 163.74,-396 157.74,-390 157.74,-384 157.74,-384 157.74,-372 157.74,-372 157.74,-366 163.74,-360 169.74,-360 169.74,-360 264.74,-360 264.74,-360 270.74,-360 276.74,-366 276.74,-372 276.74,-372 276.74,-384 276.74,-384 276.74,-390 270.74,-396 264.74,-396"/>
<text text-anchor="middle" x="217.24" y="-375.5" font-family="sans" font-size="10.00">gatk_markduplicates</text>
</g>
<!-- 3&#45;&gt;16 -->
<g id="edge33" class="edge">
<title>3&#45;&gt;16</title>
<path fill="none" stroke="grey" stroke-width="2" d="M464.19,-809.59C375.89,-808.6 172.24,-792.69 172.24,-667 172.24,-667 172.24,-667 172.24,-521 172.24,-479.13 190.24,-433.42 203.47,-405.48"/>
<polygon fill="grey" stroke="grey" stroke-width="2" points="206.68,-406.89 207.92,-396.37 200.39,-403.82 206.68,-406.89"/>
</g>
<!-- 17 -->
<g id="node18" class="node">
<title>17</title>
<path fill="none" stroke="#56b9d8" stroke-width="2" d="M795.74,-396C795.74,-396 700.74,-396 700.74,-396 694.74,-396 688.74,-390 688.74,-384 688.74,-384 688.74,-372 688.74,-372 688.74,-366 694.74,-360 700.74,-360 700.74,-360 795.74,-360 795.74,-360 801.74,-360 807.74,-366 807.74,-372 807.74,-372 807.74,-384 807.74,-384 807.74,-390 801.74,-396 795.74,-396"/>
<text text-anchor="middle" x="748.24" y="-375.5" font-family="sans" font-size="10.00">gatk_markduplicates</text>
</g>
<!-- 3&#45;&gt;17 -->
<g id="edge36" class="edge">
<title>3&#45;&gt;17</title>
<path fill="none" stroke="grey" stroke-width="2" d="M544.36,-808.06C584.35,-804.88 644.65,-793.62 679.24,-756 706.62,-726.23 698.24,-707.45 698.24,-667 698.24,-667 698.24,-667 698.24,-521 698.24,-478.68 718.24,-433.09 732.94,-405.3"/>
<polygon fill="grey" stroke="grey" stroke-width="2" points="736.17,-406.7 737.88,-396.24 730.02,-403.35 736.17,-406.7"/>
</g>
<!-- 18 -->
<g id="node19" class="node">
<title>18</title>
<path fill="none" stroke="#d6d856" stroke-width="2" d="M657.74,-756C657.74,-756 612.74,-756 612.74,-756 606.74,-756 600.74,-750 600.74,-744 600.74,-744 600.74,-732 600.74,-732 600.74,-726 606.74,-720 612.74,-720 612.74,-720 657.74,-720 657.74,-720 663.74,-720 669.74,-726 669.74,-732 669.74,-732 669.74,-744 669.74,-744 669.74,-750 663.74,-756 657.74,-756"/>
<text text-anchor="middle" x="635.24" y="-735.5" font-family="sans" font-size="10.00">bwa_index</text>
</g>
<!-- 3&#45;&gt;18 -->
<g id="edge38" class="edge">
<title>3&#45;&gt;18</title>
<path fill="none" stroke="grey" stroke-width="2" d="M536.29,-791.88C553.73,-782.55 575.51,-770.92 594.18,-760.94"/>
<polygon fill="grey" stroke="grey" stroke-width="2" points="595.9,-763.99 603.07,-756.19 592.6,-757.82 595.9,-763.99"/>
</g>
<!-- 23 -->
<g id="node24" class="node">
<title>23</title>
<path fill="none" stroke="#567bd8" stroke-width="2" d="M320.24,-612C320.24,-612 254.24,-612 254.24,-612 248.24,-612 242.24,-606 242.24,-600 242.24,-600 242.24,-588 242.24,-588 242.24,-582 248.24,-576 254.24,-576 254.24,-576 320.24,-576 320.24,-576 326.24,-576 332.24,-582 332.24,-588 332.24,-588 332.24,-600 332.24,-600 332.24,-606 326.24,-612 320.24,-612"/>
<text text-anchor="middle" x="287.24" y="-591.5" font-family="sans" font-size="10.00">samtools_view</text>
</g>
<!-- 3&#45;&gt;23 -->
<g id="edge44" class="edge">
<title>3&#45;&gt;23</title>
<path fill="none" stroke="grey" stroke-width="2" d="M464.19,-805.26C428.87,-799.94 378.18,-787.07 346.24,-756 308.92,-719.69 295.05,-657.84 290.02,-622.3"/>
<polygon fill="grey" stroke="grey" stroke-width="2" points="293.46,-621.65 288.72,-612.17 286.52,-622.54 293.46,-621.65"/>
</g>
<!-- 24 -->
<g id="node25" class="node">
<title>24</title>
<path fill="none" stroke="#567bd8" stroke-width="2" d="M818.24,-612C818.24,-612 752.24,-612 752.24,-612 746.24,-612 740.24,-606 740.24,-600 740.24,-600 740.24,-588 740.24,-588 740.24,-582 746.24,-576 752.24,-576 752.24,-576 818.24,-576 818.24,-576 824.24,-576 830.24,-582 830.24,-588 830.24,-588 830.24,-600 830.24,-600 830.24,-606 824.24,-612 818.24,-612"/>
<text text-anchor="middle" x="785.24" y="-591.5" font-family="sans" font-size="10.00">samtools_view</text>
</g>
<!-- 3&#45;&gt;24 -->
<g id="edge46" class="edge">
<title>3&#45;&gt;24</title>
<path fill="none" stroke="grey" stroke-width="2" d="M544.4,-809.16C590.32,-807.23 665.2,-797.31 712.24,-756 751.06,-721.91 732.91,-694.59 755.24,-648 759.54,-639.04 764.72,-629.51 769.57,-621.04"/>
<polygon fill="grey" stroke="grey" stroke-width="2" points="772.62,-622.75 774.63,-612.35 766.57,-619.23 772.62,-622.75"/>
</g>
<!-- 25 -->
<g id="node26" class="node">
<title>25</title>
<path fill="none" stroke="#b6d856" stroke-width="2" d="M482.24,-684C482.24,-684 438.24,-684 438.24,-684 432.24,-684 426.24,-678 426.24,-672 426.24,-672 426.24,-660 426.24,-660 426.24,-654 432.24,-648 438.24,-648 438.24,-648 482.24,-648 482.24,-648 488.24,-648 494.24,-654 494.24,-660 494.24,-660 494.24,-672 494.24,-672 494.24,-678 488.24,-684 482.24,-684"/>
<text text-anchor="middle" x="460.24" y="-663.5" font-family="sans" font-size="10.00">bwa_mem</text>
</g>
<!-- 3&#45;&gt;25 -->
<g id="edge47" class="edge">
<title>3&#45;&gt;25</title>
<path fill="none" stroke="grey" stroke-width="2" d="M482.09,-791.87C471.83,-782.52 460.72,-770 455.24,-756 447.51,-736.24 449.49,-712.12 453,-693.98"/>
<polygon fill="grey" stroke="grey" stroke-width="2" points="456.45,-694.58 455.18,-684.06 449.62,-693.08 456.45,-694.58"/>
</g>
<!-- 26 -->
<g id="node27" class="node">
<title>26</title>
<path fill="none" stroke="#b6d856" stroke-width="2" d="M820.24,-684C820.24,-684 776.24,-684 776.24,-684 770.24,-684 764.24,-678 764.24,-672 764.24,-672 764.24,-660 764.24,-660 764.24,-654 770.24,-648 776.24,-648 776.24,-648 820.24,-648 820.24,-648 826.24,-648 832.24,-654 832.24,-660 832.24,-660 832.24,-672 832.24,-672 832.24,-678 826.24,-684 820.24,-684"/>
<text text-anchor="middle" x="798.24" y="-663.5" font-family="sans" font-size="10.00">bwa_mem</text>
</g>
<!-- 3&#45;&gt;26 -->
<g id="edge50" class="edge">
<title>3&#45;&gt;26</title>
<path fill="none" stroke="grey" stroke-width="2" d="M544.3,-804.48C605.39,-796.91 718.15,-780.11 750.24,-756 770.66,-740.67 783.37,-714.03 790.54,-693.89"/>
<polygon fill="grey" stroke="grey" stroke-width="2" points="793.89,-694.91 793.71,-684.32 787.24,-692.71 793.89,-694.91"/>
</g>
<!-- 4&#45;&gt;1 -->
<g id="edge4" class="edge">
<title>4&#45;&gt;1</title>
<path fill="none" stroke="grey" stroke-width="2" d="M198.31,-287.86C187.18,-278.67 175.24,-266.29 169.24,-252 163.05,-237.25 162.92,-230.7 169.24,-216 174.03,-204.87 182.43,-194.99 191.29,-186.86"/>
<polygon fill="grey" stroke="grey" stroke-width="2" points="193.78,-189.34 199.12,-180.18 189.24,-184.01 193.78,-189.34"/>
</g>
<!-- 6 -->
<g id="node7" class="node">
<title>6</title>
<path fill="none" stroke="#d89556" stroke-width="2" d="M281.74,-252C281.74,-252 190.74,-252 190.74,-252 184.74,-252 178.74,-246 178.74,-240 178.74,-240 178.74,-228 178.74,-228 178.74,-222 184.74,-216 190.74,-216 190.74,-216 281.74,-216 281.74,-216 287.74,-216 293.74,-222 293.74,-228 293.74,-228 293.74,-240 293.74,-240 293.74,-246 287.74,-252 281.74,-252"/>
<text text-anchor="middle" x="236.24" y="-231.5" font-family="sans" font-size="10.00">samtools_index_md</text>
</g>
<!-- 4&#45;&gt;6 -->
<g id="edge20" class="edge">
<title>4&#45;&gt;6</title>
<path fill="none" stroke="grey" stroke-width="2" d="M226.46,-287.7C227.89,-279.98 229.61,-270.71 231.21,-262.11"/>
<polygon fill="grey" stroke="grey" stroke-width="2" points="234.68,-262.58 233.07,-252.1 227.8,-261.3 234.68,-262.58"/>
</g>
<!-- 12 -->
<g id="node13" class="node">
<title>12</title>
<path fill="none" stroke="#56d8b9" stroke-width="2" d="M109.74,-252C109.74,-252 42.74,-252 42.74,-252 36.74,-252 30.74,-246 30.74,-240 30.74,-240 30.74,-228 30.74,-228 30.74,-222 36.74,-216 42.74,-216 42.74,-216 109.74,-216 109.74,-216 115.74,-216 121.74,-222 121.74,-228 121.74,-228 121.74,-240 121.74,-240 121.74,-246 115.74,-252 109.74,-252"/>
<text text-anchor="middle" x="76.24" y="-231.5" font-family="sans" font-size="10.00">samtools_stats</text>
</g>
<!-- 4&#45;&gt;12 -->
<g id="edge22" class="edge">
<title>4&#45;&gt;12</title>
<path fill="none" stroke="grey" stroke-width="2" d="M187.28,-287.88C167.36,-278.39 142.42,-266.51 121.22,-256.42"/>
<polygon fill="grey" stroke="grey" stroke-width="2" points="122.62,-253.21 112.09,-252.07 119.61,-259.53 122.62,-253.21"/>
</g>
<!-- 4&#45;&gt;14 -->
<g id="edge25" class="edge">
<title>4&#45;&gt;14</title>
<path fill="none" stroke="grey" stroke-width="2" d="M262.31,-287.91C277.28,-279.34 292.98,-267.44 302.24,-252 313.33,-233.52 315.04,-208.92 314.28,-190.27"/>
<polygon fill="grey" stroke="grey" stroke-width="2" points="317.76,-189.81 313.6,-180.07 310.78,-190.28 317.76,-189.81"/>
</g>
<!-- 5&#45;&gt;1 -->
<g id="edge5" class="edge">
<title>5&#45;&gt;1</title>
<path fill="none" stroke="grey" stroke-width="2" d="M594.17,-287.9C520.58,-264.46 384.92,-220.6 270.24,-180 270.14,-179.97 270.04,-179.93 269.95,-179.9"/>
<polygon fill="grey" stroke="grey" stroke-width="2" points="271.16,-176.61 260.56,-176.5 268.78,-183.19 271.16,-176.61"/>
</g>
<!-- 7 -->
<g id="node8" class="node">
<title>7</title>
<path fill="none" stroke="#d89556" stroke-width="2" d="M748.74,-252C748.74,-252 657.74,-252 657.74,-252 651.74,-252 645.74,-246 645.74,-240 645.74,-240 645.74,-228 645.74,-228 645.74,-222 651.74,-216 657.74,-216 657.74,-216 748.74,-216 748.74,-216 754.74,-216 760.74,-222 760.74,-228 760.74,-228 760.74,-240 760.74,-240 760.74,-246 754.74,-252 748.74,-252"/>
<text text-anchor="middle" x="703.24" y="-231.5" font-family="sans" font-size="10.00">samtools_index_md</text>
</g>
<!-- 5&#45;&gt;7 -->
<g id="edge21" class="edge">
<title>5&#45;&gt;7</title>
<path fill="none" stroke="grey" stroke-width="2" d="M661.84,-287.7C668.36,-279.39 676.31,-269.28 683.49,-260.14"/>
<polygon fill="grey" stroke="grey" stroke-width="2" points="686.38,-262.13 689.8,-252.1 680.87,-257.81 686.38,-262.13"/>
</g>
<!-- 13 -->
<g id="node14" class="node">
<title>13</title>
<path fill="none" stroke="#56d8b9" stroke-width="2" d="M615.74,-252C615.74,-252 548.74,-252 548.74,-252 542.74,-252 536.74,-246 536.74,-240 536.74,-240 536.74,-228 536.74,-228 536.74,-222 542.74,-216 548.74,-216 548.74,-216 615.74,-216 615.74,-216 621.74,-216 627.74,-222 627.74,-228 627.74,-228 627.74,-240 627.74,-240 627.74,-246 621.74,-252 615.74,-252"/>
<text text-anchor="middle" x="582.24" y="-231.5" font-family="sans" font-size="10.00">samtools_stats</text>
</g>
<!-- 5&#45;&gt;13 -->
<g id="edge23" class="edge">
<title>5&#45;&gt;13</title>
<path fill="none" stroke="grey" stroke-width="2" d="M631.93,-287.7C623.93,-279.22 614.17,-268.86 605.42,-259.58"/>
<polygon fill="grey" stroke="grey" stroke-width="2" points="607.78,-256.98 598.37,-252.1 602.68,-261.78 607.78,-256.98"/>
</g>
<!-- 5&#45;&gt;15 -->
<g id="edge29" class="edge">
<title>5&#45;&gt;15</title>
<path fill="none" stroke="grey" stroke-width="2" d="M703.82,-292.98C727.56,-285.12 753.57,-272.38 770.24,-252 784.36,-234.75 788.68,-209.48 789.73,-190.27"/>
<polygon fill="grey" stroke="grey" stroke-width="2" points="793.23,-190.13 790.01,-180.04 786.23,-189.94 793.23,-190.13"/>
</g>
<!-- 6&#45;&gt;1 -->
<g id="edge6" class="edge">
<title>6&#45;&gt;1</title>
<path fill="none" stroke="grey" stroke-width="2" d="M233.52,-215.7C232.31,-207.98 230.85,-198.71 229.5,-190.11"/>
<polygon fill="grey" stroke="grey" stroke-width="2" points="232.94,-189.44 227.93,-180.1 226.02,-190.53 232.94,-189.44"/>
</g>
<!-- 6&#45;&gt;14 -->
<g id="edge27" class="edge">
<title>6&#45;&gt;14</title>
<path fill="none" stroke="grey" stroke-width="2" d="M254.78,-215.7C264.04,-207.05 275.4,-196.45 285.5,-187.03"/>
<polygon fill="grey" stroke="grey" stroke-width="2" points="287.99,-189.49 292.92,-180.1 283.22,-184.37 287.99,-189.49"/>
</g>
<!-- 7&#45;&gt;1 -->
<g id="edge7" class="edge">
<title>7&#45;&gt;1</title>
<path fill="none" stroke="grey" stroke-width="2" d="M645.4,-217.56C642.65,-217 639.92,-216.47 637.24,-216 475.85,-187.47 429.84,-217.28 270.24,-180 270.14,-179.98 270.04,-179.95 269.94,-179.93"/>
<polygon fill="grey" stroke="grey" stroke-width="2" points="270.91,-176.57 260.34,-177.26 269.04,-183.31 270.91,-176.57"/>
</g>
<!-- 7&#45;&gt;15 -->
<g id="edge31" class="edge">
<title>7&#45;&gt;15</title>
<path fill="none" stroke="grey" stroke-width="2" d="M724.5,-215.7C735.33,-206.88 748.66,-196.03 760.4,-186.47"/>
<polygon fill="grey" stroke="grey" stroke-width="2" points="762.68,-189.13 768.23,-180.1 758.26,-183.7 762.68,-189.13"/>
</g>
<!-- 8 -->
<g id="node9" class="node">
<title>8</title>
<path fill="none" stroke="#56d8d8" stroke-width="2" d="M420.74,-180C420.74,-180 373.74,-180 373.74,-180 367.74,-180 361.74,-174 361.74,-168 361.74,-168 361.74,-156 361.74,-156 361.74,-150 367.74,-144 373.74,-144 373.74,-144 420.74,-144 420.74,-144 426.74,-144 432.74,-150 432.74,-156 432.74,-156 432.74,-168 432.74,-168 432.74,-174 426.74,-180 420.74,-180"/>
<text text-anchor="middle" x="397.24" y="-165" font-family="sans" font-size="10.00">fastqc</text>
<text text-anchor="middle" x="397.24" y="-154" font-family="sans" font-size="10.00">library: AL1</text>
</g>
<!-- 8&#45;&gt;2 -->
<g id="edge8" class="edge">
<title>8&#45;&gt;2</title>
<path fill="none" stroke="grey" stroke-width="2" d="M418.5,-143.7C429.33,-134.88 442.66,-124.03 454.4,-114.47"/>
<polygon fill="grey" stroke="grey" stroke-width="2" points="456.68,-117.13 462.23,-108.1 452.26,-111.7 456.68,-117.13"/>
</g>
<!-- 9 -->
<g id="node10" class="node">
<title>9</title>
<path fill="none" stroke="#56d8d8" stroke-width="2" d="M503.74,-180C503.74,-180 462.74,-180 462.74,-180 456.74,-180 450.74,-174 450.74,-168 450.74,-168 450.74,-156 450.74,-156 450.74,-150 456.74,-144 462.74,-144 462.74,-144 503.74,-144 503.74,-144 509.74,-144 515.74,-150 515.74,-156 515.74,-156 515.74,-168 515.74,-168 515.74,-174 509.74,-180 503.74,-180"/>
<text text-anchor="middle" x="483.24" y="-165" font-family="sans" font-size="10.00">fastqc</text>
<text text-anchor="middle" x="483.24" y="-154" font-family="sans" font-size="10.00">library: T1</text>
</g>
<!-- 9&#45;&gt;2 -->
<g id="edge9" class="edge">
<title>9&#45;&gt;2</title>
<path fill="none" stroke="grey" stroke-width="2" d="M483.24,-143.7C483.24,-135.98 483.24,-126.71 483.24,-118.11"/>
<polygon fill="grey" stroke="grey" stroke-width="2" points="486.74,-118.1 483.24,-108.1 479.74,-118.1 486.74,-118.1"/>
</g>
<!-- 10 -->
<g id="node11" class="node">
<title>10</title>
<path fill="none" stroke="#56d89a" stroke-width="2" d="M532.24,-756C532.24,-756 476.24,-756 476.24,-756 470.24,-756 464.24,-750 464.24,-744 464.24,-744 464.24,-732 464.24,-732 464.24,-726 470.24,-720 476.24,-720 476.24,-720 532.24,-720 532.24,-720 538.24,-720 544.24,-726 544.24,-732 544.24,-732 544.24,-744 544.24,-744 544.24,-750 538.24,-756 532.24,-756"/>
<text text-anchor="middle" x="504.24" y="-741" font-family="sans" font-size="10.00">trimmomatic</text>
<text text-anchor="middle" x="504.24" y="-730" font-family="sans" font-size="10.00">library: AL1</text>
</g>
<!-- 10&#45;&gt;2 -->
<g id="edge10" class="edge">
<title>10&#45;&gt;2</title>
<path fill="none" stroke="grey" stroke-width="2" d="M504.65,-719.92C505.66,-675.55 508.24,-553.05 508.24,-451 508.24,-451 508.24,-451 508.24,-305 508.24,-233.05 548.9,-211.95 525.24,-144 521.71,-133.86 515.34,-124.19 508.6,-115.96"/>
<polygon fill="grey" stroke="grey" stroke-width="2" points="511.07,-113.46 501.85,-108.24 505.8,-118.07 511.07,-113.46"/>
</g>
<!-- 10&#45;&gt;25 -->
<g id="edge48" class="edge">
<title>10&#45;&gt;25</title>
<path fill="none" stroke="grey" stroke-width="2" d="M493.37,-719.7C488.25,-711.56 482.05,-701.69 476.4,-692.7"/>
<polygon fill="grey" stroke="grey" stroke-width="2" points="479.28,-690.71 470.99,-684.1 473.35,-694.43 479.28,-690.71"/>
</g>
<!-- 11 -->
<g id="node12" class="node">
<title>11</title>
<path fill="none" stroke="#56d89a" stroke-width="2" d="M881.24,-756C881.24,-756 825.24,-756 825.24,-756 819.24,-756 813.24,-750 813.24,-744 813.24,-744 813.24,-732 813.24,-732 813.24,-726 819.24,-720 825.24,-720 825.24,-720 881.24,-720 881.24,-720 887.24,-720 893.24,-726 893.24,-732 893.24,-732 893.24,-744 893.24,-744 893.24,-750 887.24,-756 881.24,-756"/>
<text text-anchor="middle" x="853.24" y="-741" font-family="sans" font-size="10.00">trimmomatic</text>
<text text-anchor="middle" x="853.24" y="-730" font-family="sans" font-size="10.00">library: T1</text>
</g>
<!-- 11&#45;&gt;2 -->
<g id="edge11" class="edge">
<title>11&#45;&gt;2</title>
<path fill="none" stroke="grey" stroke-width="2" d="M859.92,-719.81C869.56,-693.4 886.24,-641.06 886.24,-595 886.24,-595 886.24,-595 886.24,-521 886.24,-425.59 903.24,-402.41 903.24,-307 903.24,-307 903.24,-307 903.24,-233 903.24,-182.12 875.37,-169.32 831.24,-144 778.78,-113.9 599.4,-98.66 520.73,-93.3"/>
<polygon fill="grey" stroke="grey" stroke-width="2" points="520.53,-89.78 510.32,-92.61 520.06,-96.76 520.53,-89.78"/>
</g>
<!-- 11&#45;&gt;26 -->
<g id="edge51" class="edge">
<title>11&#45;&gt;26</title>
<path fill="none" stroke="grey" stroke-width="2" d="M839.65,-719.7C833.12,-711.39 825.17,-701.28 817.99,-692.14"/>
<polygon fill="grey" stroke="grey" stroke-width="2" points="820.61,-689.81 811.68,-684.1 815.11,-694.13 820.61,-689.81"/>
</g>
<!-- 12&#45;&gt;2 -->
<g id="edge12" class="edge">
<title>12&#45;&gt;2</title>
<path fill="none" stroke="grey" stroke-width="2" d="M91.04,-215.82C109.82,-195.23 144.24,-161.35 181.24,-144 269.72,-102.52 386.6,-93.27 445.65,-91.37"/>
<polygon fill="grey" stroke="grey" stroke-width="2" points="446.08,-94.85 455.98,-91.09 445.89,-87.86 446.08,-94.85"/>
</g>
<!-- 13&#45;&gt;2 -->
<g id="edge13" class="edge">
<title>13&#45;&gt;2</title>
<path fill="none" stroke="grey" stroke-width="2" d="M581.07,-215.81C579.03,-196.74 573.45,-165.78 558.24,-144 548.36,-129.84 533.42,-118.18 519.47,-109.44"/>
<polygon fill="grey" stroke="grey" stroke-width="2" points="520.89,-106.21 510.5,-104.11 517.31,-112.23 520.89,-106.21"/>
</g>
<!-- 14&#45;&gt;2 -->
<g id="edge14" class="edge">
<title>14&#45;&gt;2</title>
<path fill="none" stroke="grey" stroke-width="2" d="M344,-147.67C373.29,-135.75 416.16,-118.3 446.58,-105.92"/>
<polygon fill="grey" stroke="grey" stroke-width="2" points="448.04,-109.1 455.99,-102.09 445.4,-102.62 448.04,-109.1"/>
</g>
<!-- 15&#45;&gt;2 -->
<g id="edge15" class="edge">
<title>15&#45;&gt;2</title>
<path fill="none" stroke="grey" stroke-width="2" d="M756.49,-153.51C699.07,-140.37 580.59,-113.27 520.28,-99.47"/>
<polygon fill="grey" stroke="grey" stroke-width="2" points="520.94,-96.03 510.41,-97.22 519.38,-102.86 520.94,-96.03"/>
</g>
<!-- 16&#45;&gt;4 -->
<g id="edge16" class="edge">
<title>16&#45;&gt;4</title>
<path fill="none" stroke="grey" stroke-width="2" d="M218.72,-359.7C219.39,-351.98 220.18,-342.71 220.92,-334.11"/>
<polygon fill="grey" stroke="grey" stroke-width="2" points="224.41,-334.37 221.78,-324.1 217.43,-333.77 224.41,-334.37"/>
</g>
<!-- 17&#45;&gt;5 -->
<g id="edge18" class="edge">
<title>17&#45;&gt;5</title>
<path fill="none" stroke="grey" stroke-width="2" d="M723.78,-359.88C710.95,-350.89 695.05,-339.76 681.15,-330.03"/>
<polygon fill="grey" stroke="grey" stroke-width="2" points="683,-327.06 672.8,-324.19 678.98,-332.79 683,-327.06"/>
</g>
<!-- 18&#45;&gt;14 -->
<g id="edge26" class="edge">
<title>18&#45;&gt;14</title>
<path fill="none" stroke="grey" stroke-width="2" d="M632.24,-719.88C619.05,-649.18 560.15,-376.05 412.24,-216 403.37,-206.4 376.8,-192.61 353.14,-181.51"/>
<polygon fill="grey" stroke="grey" stroke-width="2" points="354.47,-178.26 343.92,-177.24 351.53,-184.62 354.47,-178.26"/>
</g>
<!-- 18&#45;&gt;15 -->
<g id="edge30" class="edge">
<title>18&#45;&gt;15</title>
<path fill="none" stroke="grey" stroke-width="2" d="M640.3,-719.68C647.61,-693.11 660.24,-640.56 660.24,-595 660.24,-595 660.24,-595 660.24,-449 660.24,-408.46 660.45,-395.38 680.24,-360 697.04,-329.97 777.85,-283.71 791.24,-252 799.48,-232.48 798.32,-208.34 795.47,-190.13"/>
<polygon fill="grey" stroke="grey" stroke-width="2" points="798.89,-189.38 793.65,-180.17 792,-190.64 798.89,-189.38"/>
</g>
<!-- 18&#45;&gt;25 -->
<g id="edge49" class="edge">
<title>18&#45;&gt;25</title>
<path fill="none" stroke="grey" stroke-width="2" d="M600.67,-723.17C572.89,-712.06 533.72,-696.39 503.81,-684.43"/>
<polygon fill="grey" stroke="grey" stroke-width="2" points="505.03,-681.15 494.45,-680.68 502.43,-687.65 505.03,-681.15"/>
</g>
<!-- 18&#45;&gt;26 -->
<g id="edge52" class="edge">
<title>18&#45;&gt;26</title>
<path fill="none" stroke="grey" stroke-width="2" d="M669.81,-722.15C694.53,-711.54 727.99,-697.17 754.56,-685.76"/>
<polygon fill="grey" stroke="grey" stroke-width="2" points="756.2,-688.87 764,-681.7 753.43,-682.43 756.2,-688.87"/>
</g>
<!-- 19 -->
<g id="node20" class="node">
<title>19</title>
<path fill="none" stroke="#97d856" stroke-width="2" d="M316.24,-540C316.24,-540 254.24,-540 254.24,-540 248.24,-540 242.24,-534 242.24,-528 242.24,-528 242.24,-516 242.24,-516 242.24,-510 248.24,-504 254.24,-504 254.24,-504 316.24,-504 316.24,-504 322.24,-504 328.24,-510 328.24,-516 328.24,-516 328.24,-528 328.24,-528 328.24,-534 322.24,-540 316.24,-540"/>
<text text-anchor="middle" x="285.24" y="-519.5" font-family="sans" font-size="10.00">samtools_sort</text>
</g>
<!-- 19&#45;&gt;16 -->
<g id="edge32" class="edge">
<title>19&#45;&gt;16</title>
<path fill="none" stroke="grey" stroke-width="2" d="M260.53,-503.89C249.12,-494.63 236.51,-482.18 229.24,-468 219.44,-448.86 216.71,-424.51 216.29,-406.12"/>
<polygon fill="grey" stroke="grey" stroke-width="2" points="219.79,-406.06 216.27,-396.06 212.79,-406.07 219.79,-406.06"/>
</g>
<!-- 20 -->
<g id="node21" class="node">
<title>20</title>
<path fill="none" stroke="#56d87b" stroke-width="2" d="M320.24,-468C320.24,-468 250.24,-468 250.24,-468 244.24,-468 238.24,-462 238.24,-456 238.24,-456 238.24,-444 238.24,-444 238.24,-438 244.24,-432 250.24,-432 250.24,-432 320.24,-432 320.24,-432 326.24,-432 332.24,-438 332.24,-444 332.24,-444 332.24,-456 332.24,-456 332.24,-462 326.24,-468 320.24,-468"/>
<text text-anchor="middle" x="285.24" y="-447.5" font-family="sans" font-size="10.00">samtools_index</text>
</g>
<!-- 19&#45;&gt;20 -->
<g id="edge40" class="edge">
<title>19&#45;&gt;20</title>
<path fill="none" stroke="grey" stroke-width="2" d="M285.24,-503.7C285.24,-495.98 285.24,-486.71 285.24,-478.11"/>
<polygon fill="grey" stroke="grey" stroke-width="2" points="288.74,-478.1 285.24,-468.1 281.74,-478.1 288.74,-478.1"/>
</g>
<!-- 20&#45;&gt;16 -->
<g id="edge34" class="edge">
<title>20&#45;&gt;16</title>
<path fill="none" stroke="grey" stroke-width="2" d="M268.43,-431.7C260.12,-423.14 249.94,-412.66 240.85,-403.3"/>
<polygon fill="grey" stroke="grey" stroke-width="2" points="243.34,-400.84 233.86,-396.1 238.31,-405.72 243.34,-400.84"/>
</g>
<!-- 21 -->
<g id="node22" class="node">
<title>21</title>
<path fill="none" stroke="#97d856" stroke-width="2" d="M816.24,-540C816.24,-540 754.24,-540 754.24,-540 748.24,-540 742.24,-534 742.24,-528 742.24,-528 742.24,-516 742.24,-516 742.24,-510 748.24,-504 754.24,-504 754.24,-504 816.24,-504 816.24,-504 822.24,-504 828.24,-510 828.24,-516 828.24,-516 828.24,-528 828.24,-528 828.24,-534 822.24,-540 816.24,-540"/>
<text text-anchor="middle" x="785.24" y="-519.5" font-family="sans" font-size="10.00">samtools_sort</text>
</g>
<!-- 21&#45;&gt;17 -->
<g id="edge35" class="edge">
<title>21&#45;&gt;17</title>
<path fill="none" stroke="grey" stroke-width="2" d="M772.9,-503.73C766.47,-493.78 759.14,-480.74 755.24,-468 749.09,-447.9 747.5,-424.12 747.35,-406.2"/>
<polygon fill="grey" stroke="grey" stroke-width="2" points="750.85,-406.16 747.42,-396.14 743.85,-406.11 750.85,-406.16"/>
</g>
<!-- 22 -->
<g id="node23" class="node">
<title>22</title>
<path fill="none" stroke="#56d87b" stroke-width="2" d="M846.24,-468C846.24,-468 776.24,-468 776.24,-468 770.24,-468 764.24,-462 764.24,-456 764.24,-456 764.24,-444 764.24,-444 764.24,-438 770.24,-432 776.24,-432 776.24,-432 846.24,-432 846.24,-432 852.24,-432 858.24,-438 858.24,-444 858.24,-444 858.24,-456 858.24,-456 858.24,-462 852.24,-468 846.24,-468"/>
<text text-anchor="middle" x="811.24" y="-447.5" font-family="sans" font-size="10.00">samtools_index</text>
</g>
<!-- 21&#45;&gt;22 -->
<g id="edge42" class="edge">
<title>21&#45;&gt;22</title>
<path fill="none" stroke="grey" stroke-width="2" d="M791.67,-503.7C794.6,-495.81 798.13,-486.3 801.38,-477.55"/>
<polygon fill="grey" stroke="grey" stroke-width="2" points="804.69,-478.7 804.89,-468.1 798.13,-476.26 804.69,-478.7"/>
</g>
<!-- 22&#45;&gt;17 -->
<g id="edge37" class="edge">
<title>22&#45;&gt;17</title>
<path fill="none" stroke="grey" stroke-width="2" d="M795.67,-431.7C788.04,-423.22 778.72,-412.86 770.37,-403.58"/>
<polygon fill="grey" stroke="grey" stroke-width="2" points="772.93,-401.2 763.64,-396.1 767.72,-405.88 772.93,-401.2"/>
</g>
<!-- 23&#45;&gt;19 -->
<g id="edge39" class="edge">
<title>23&#45;&gt;19</title>
<path fill="none" stroke="grey" stroke-width="2" d="M286.75,-575.7C286.53,-567.98 286.26,-558.71 286.02,-550.11"/>
<polygon fill="grey" stroke="grey" stroke-width="2" points="289.51,-550 285.73,-540.1 282.52,-550.2 289.51,-550"/>
</g>
<!-- 24&#45;&gt;21 -->
<g id="edge41" class="edge">
<title>24&#45;&gt;21</title>
<path fill="none" stroke="grey" stroke-width="2" d="M785.24,-575.7C785.24,-567.98 785.24,-558.71 785.24,-550.11"/>
<polygon fill="grey" stroke="grey" stroke-width="2" points="788.74,-550.1 785.24,-540.1 781.74,-550.1 788.74,-550.1"/>
</g>
<!-- 25&#45;&gt;23 -->
<g id="edge43" class="edge">
<title>25&#45;&gt;23</title>
<path fill="none" stroke="grey" stroke-width="2" d="M426.06,-651.17C401.11,-641.08 366.86,-627.22 338.63,-615.79"/>
<polygon fill="grey" stroke="grey" stroke-width="2" points="339.89,-612.53 329.3,-612.02 337.26,-619.01 339.89,-612.53"/>
</g>
<!-- 26&#45;&gt;24 -->
<g id="edge45" class="edge">
<title>26&#45;&gt;24</title>
<path fill="none" stroke="grey" stroke-width="2" d="M795.03,-647.7C793.6,-639.98 791.87,-630.71 790.28,-622.11"/>
<polygon fill="grey" stroke="grey" stroke-width="2" points="793.69,-621.3 788.42,-612.1 786.8,-622.58 793.69,-621.3"/>
</g>
</g>
</svg>
