<?xml version="1.0" encoding="UTF-8" standalone="no"?>
<!DOCTYPE svg PUBLIC "-//W3C//DTD SVG 1.1//EN"
 "http://www.w3.org/Graphics/SVG/1.1/DTD/svg11.dtd">
<!-- Generated by graphviz version 2.43.0 (0)
 -->
<!-- Title: snakemake_dag Pages: 1 -->
<svg width="178pt" height="188pt"
 viewBox="0.00 0.00 177.50 188.00" xmlns="http://www.w3.org/2000/svg" xmlns:xlink="http://www.w3.org/1999/xlink">
<g id="graph0" class="graph" transform="scale(1 1) rotate(0) translate(4 184)">
<title>snakemake_dag</title>
<polygon fill="white" stroke="transparent" points="-4,4 -4,-184 173.5,-184 173.5,4 -4,4"/>
<!-- 0 -->
<g id="node1" class="node">
<title>0</title>
<path fill="none" stroke="#56d8d8" stroke-width="2" d="M82,-36C82,-36 52,-36 52,-36 46,-36 40,-30 40,-24 40,-24 40,-12 40,-12 40,-6 46,0 52,0 52,0 82,0 82,0 88,0 94,-6 94,-12 94,-12 94,-24 94,-24 94,-30 88,-36 82,-36"/>
<text text-anchor="middle" x="67" y="-15.5" font-family="sans" font-size="10.00">all</text>
</g>
<!-- 1 -->
<g id="node2" class="node">
<title>1</title>
<path fill="none" stroke="#59d856" stroke-width="2" d="M110,-108C110,-108 80,-108 80,-108 74,-108 68,-102 68,-96 68,-96 68,-84 68,-84 68,-78 74,-72 80,-72 80,-72 110,-72 110,-72 116,-72 122,-78 122,-84 122,-84 122,-96 122,-96 122,-102 116,-108 110,-108"/>
<text text-anchor="middle" x="95" y="-87.5" font-family="sans" font-size="10.00">multiqc</text>
</g>
<!-- 1&#45;&gt;0 -->
<g id="edge1" class="edge">
<title>1&#45;&gt;0</title>
<path fill="none" stroke="grey" stroke-width="2" d="M88.08,-71.7C84.93,-63.81 81.12,-54.3 77.62,-45.55"/>
<polygon fill="grey" stroke="grey" stroke-width="2" points="80.81,-44.09 73.84,-36.1 74.31,-46.69 80.81,-44.09"/>
</g>
<!-- 2 -->
<g id="node3" class="node">
<title>2</title>
<path fill="none" stroke="#d85656" stroke-width="2" d="M68,-180C68,-180 12,-180 12,-180 6,-180 0,-174 0,-168 0,-168 0,-156 0,-156 0,-150 6,-144 12,-144 12,-144 68,-144 68,-144 74,-144 80,-150 80,-156 80,-156 80,-168 80,-168 80,-174 74,-180 68,-180"/>
<text text-anchor="middle" x="40" y="-165" font-family="sans" font-size="10.00">trimmomatic</text>
<text text-anchor="middle" x="40" y="-154" font-family="sans" font-size="10.00">library: AL1</text>
</g>
<!-- 2&#45;&gt;0 -->
<g id="edge2" class="edge">
<title>2&#45;&gt;0</title>
<path fill="none" stroke="grey" stroke-width="2" d="M43.26,-143.87C47.86,-119.67 56.31,-75.21 61.79,-46.39"/>
<polygon fill="grey" stroke="grey" stroke-width="2" points="65.3,-46.67 63.73,-36.19 58.43,-45.36 65.3,-46.67"/>
</g>
<!-- 2&#45;&gt;1 -->
<g id="edge4" class="edge">
<title>2&#45;&gt;1</title>
<path fill="none" stroke="grey" stroke-width="2" d="M53.6,-143.7C60.12,-135.39 68.07,-125.28 75.25,-116.14"/>
<polygon fill="grey" stroke="grey" stroke-width="2" points="78.13,-118.13 81.56,-108.1 72.63,-113.81 78.13,-118.13"/>
</g>
<!-- 3 -->
<g id="node4" class="node">
<title>3</title>
<path fill="none" stroke="#d6d856" stroke-width="2" d="M157.5,-180C157.5,-180 110.5,-180 110.5,-180 104.5,-180 98.5,-174 98.5,-168 98.5,-168 98.5,-156 98.5,-156 98.5,-150 104.5,-144 110.5,-144 110.5,-144 157.5,-144 157.5,-144 163.5,-144 169.5,-150 169.5,-156 169.5,-156 169.5,-168 169.5,-168 169.5,-174 163.5,-180 157.5,-180"/>
<text text-anchor="middle" x="134" y="-165" font-family="sans" font-size="10.00">fastqc</text>
<text text-anchor="middle" x="134" y="-154" font-family="sans" font-size="10.00">library: AL1</text>
</g>
<!-- 3&#45;&gt;1 -->
<g id="edge3" class="edge">
<title>3&#45;&gt;1</title>
<path fill="none" stroke="grey" stroke-width="2" d="M124.36,-143.7C119.87,-135.64 114.44,-125.89 109.48,-116.98"/>
<polygon fill="grey" stroke="grey" stroke-width="2" points="112.45,-115.14 104.53,-108.1 106.34,-118.54 112.45,-115.14"/>
</g>
</g>
</svg>
