<?xml version="1.0" encoding="UTF-8" standalone="no"?>
<!DOCTYPE svg PUBLIC "-//W3C//DTD SVG 1.1//EN"
 "http://www.w3.org/Graphics/SVG/1.1/DTD/svg11.dtd">
<!-- Generated by graphviz version 2.43.0 (0)
 -->
<!-- Title: snakemake_dag Pages: 1 -->
<svg width="408pt" height="620pt"
 viewBox="0.00 0.00 408.15 620.00" xmlns="http://www.w3.org/2000/svg" xmlns:xlink="http://www.w3.org/1999/xlink">
<g id="graph0" class="graph" transform="scale(1 1) rotate(0) translate(4 616)">
<title>snakemake_dag</title>
<polygon fill="white" stroke="transparent" points="-4,4 -4,-616 404.15,-616 404.15,4 -4,4"/>
<!-- 0 -->
<g id="node1" class="node">
<title>0</title>
<path fill="none" stroke="#56d8b9" stroke-width="2" d="M229.5,-36C229.5,-36 199.5,-36 199.5,-36 193.5,-36 187.5,-30 187.5,-24 187.5,-24 187.5,-12 187.5,-12 187.5,-6 193.5,0 199.5,0 199.5,0 229.5,0 229.5,0 235.5,0 241.5,-6 241.5,-12 241.5,-12 241.5,-24 241.5,-24 241.5,-30 235.5,-36 229.5,-36"/>
<text text-anchor="middle" x="214.5" y="-15.5" font-family="sans" font-size="10.00">all</text>
</g>
<!-- 1 -->
<g id="node2" class="node">
<title>1</title>
<path fill="none" stroke="#d85656" stroke-width="2" d="M144.5,-468C144.5,-468 114.5,-468 114.5,-468 108.5,-468 102.5,-462 102.5,-456 102.5,-456 102.5,-444 102.5,-444 102.5,-438 108.5,-432 114.5,-432 114.5,-432 144.5,-432 144.5,-432 150.5,-432 156.5,-438 156.5,-444 156.5,-444 156.5,-456 156.5,-456 156.5,-462 150.5,-468 144.5,-468"/>
<text text-anchor="middle" x="129.5" y="-447.5" font-family="sans" font-size="10.00">multiqc</text>
</g>
<!-- 1&#45;&gt;0 -->
<g id="edge1" class="edge">
<title>1&#45;&gt;0</title>
<path fill="none" stroke="grey" stroke-width="2" d="M132.74,-431.58C137.41,-404.87 145.5,-352.15 145.5,-307 145.5,-307 145.5,-307 145.5,-161 145.5,-116.48 173.28,-71.29 193.58,-44.2"/>
<polygon fill="grey" stroke="grey" stroke-width="2" points="196.52,-46.12 199.87,-36.07 190.98,-41.84 196.52,-46.12"/>
</g>
<!-- 2 -->
<g id="node3" class="node">
<title>2</title>
<path fill="none" stroke="#56d86b" stroke-width="2" d="M355,-108C355,-108 268,-108 268,-108 262,-108 256,-102 256,-96 256,-96 256,-84 256,-84 256,-78 262,-72 268,-72 268,-72 355,-72 355,-72 361,-72 367,-78 367,-84 367,-84 367,-96 367,-96 367,-102 361,-108 355,-108"/>
<text text-anchor="middle" x="311.5" y="-87.5" font-family="sans" font-size="10.00">samtools_view_md</text>
</g>
<!-- 2&#45;&gt;0 -->
<g id="edge2" class="edge">
<title>2&#45;&gt;0</title>
<path fill="none" stroke="grey" stroke-width="2" d="M287.52,-71.7C275.19,-62.8 259.98,-51.82 246.65,-42.2"/>
<polygon fill="grey" stroke="grey" stroke-width="2" points="248.36,-39.12 238.2,-36.1 244.26,-44.79 248.36,-39.12"/>
</g>
<!-- 3 -->
<g id="node4" class="node">
<title>3</title>
<path fill="none" stroke="#68d856" stroke-width="2" d="M59,-540C59,-540 12,-540 12,-540 6,-540 0,-534 0,-528 0,-528 0,-516 0,-516 0,-510 6,-504 12,-504 12,-504 59,-504 59,-504 65,-504 71,-510 71,-516 71,-516 71,-528 71,-528 71,-534 65,-540 59,-540"/>
<text text-anchor="middle" x="35.5" y="-525" font-family="sans" font-size="10.00">fastqc</text>
<text text-anchor="middle" x="35.5" y="-514" font-family="sans" font-size="10.00">library: AL1</text>
</g>
<!-- 3&#45;&gt;1 -->
<g id="edge3" class="edge">
<title>3&#45;&gt;1</title>
<path fill="none" stroke="grey" stroke-width="2" d="M58.74,-503.7C70.69,-494.8 85.42,-483.82 98.35,-474.2"/>
<polygon fill="grey" stroke="grey" stroke-width="2" points="100.6,-476.88 106.53,-468.1 96.42,-471.27 100.6,-476.88"/>
</g>
<!-- 4 -->
<g id="node5" class="node">
<title>4</title>
<path fill="none" stroke="#d87d56" stroke-width="2" d="M157.5,-540C157.5,-540 101.5,-540 101.5,-540 95.5,-540 89.5,-534 89.5,-528 89.5,-528 89.5,-516 89.5,-516 89.5,-510 95.5,-504 101.5,-504 101.5,-504 157.5,-504 157.5,-504 163.5,-504 169.5,-510 169.5,-516 169.5,-516 169.5,-528 169.5,-528 169.5,-534 163.5,-540 157.5,-540"/>
<text text-anchor="middle" x="129.5" y="-525" font-family="sans" font-size="10.00">trimmomatic</text>
<text text-anchor="middle" x="129.5" y="-514" font-family="sans" font-size="10.00">library: AL1</text>
</g>
<!-- 4&#45;&gt;1 -->
<g id="edge4" class="edge">
<title>4&#45;&gt;1</title>
<path fill="none" stroke="grey" stroke-width="2" d="M129.5,-503.7C129.5,-495.98 129.5,-486.71 129.5,-478.11"/>
<polygon fill="grey" stroke="grey" stroke-width="2" points="133,-478.1 129.5,-468.1 126,-478.1 133,-478.1"/>
</g>
<!-- 10 -->
<g id="node11" class="node">
<title>10</title>
<path fill="none" stroke="#567bd8" stroke-width="2" d="M276.5,-468C276.5,-468 232.5,-468 232.5,-468 226.5,-468 220.5,-462 220.5,-456 220.5,-456 220.5,-444 220.5,-444 220.5,-438 226.5,-432 232.5,-432 232.5,-432 276.5,-432 276.5,-432 282.5,-432 288.5,-438 288.5,-444 288.5,-444 288.5,-456 288.5,-456 288.5,-462 282.5,-468 276.5,-468"/>
<text text-anchor="middle" x="254.5" y="-447.5" font-family="sans" font-size="10.00">bwa_mem</text>
</g>
<!-- 4&#45;&gt;10 -->
<g id="edge15" class="edge">
<title>4&#45;&gt;10</title>
<path fill="none" stroke="grey" stroke-width="2" d="M160.08,-503.88C176.57,-494.64 197.12,-483.13 214.84,-473.21"/>
<polygon fill="grey" stroke="grey" stroke-width="2" points="216.79,-476.13 223.8,-468.19 213.37,-470.02 216.79,-476.13"/>
</g>
<!-- 5 -->
<g id="node6" class="node">
<title>5</title>
<path fill="none" stroke="#56d892" stroke-width="2" d="M359,-180C359,-180 264,-180 264,-180 258,-180 252,-174 252,-168 252,-168 252,-156 252,-156 252,-150 258,-144 264,-144 264,-144 359,-144 359,-144 365,-144 371,-150 371,-156 371,-156 371,-168 371,-168 371,-174 365,-180 359,-180"/>
<text text-anchor="middle" x="311.5" y="-159.5" font-family="sans" font-size="10.00">gatk_markduplicates</text>
</g>
<!-- 5&#45;&gt;2 -->
<g id="edge5" class="edge">
<title>5&#45;&gt;2</title>
<path fill="none" stroke="grey" stroke-width="2" d="M311.5,-143.7C311.5,-135.98 311.5,-126.71 311.5,-118.11"/>
<polygon fill="grey" stroke="grey" stroke-width="2" points="315,-118.1 311.5,-108.1 308,-118.1 315,-118.1"/>
</g>
<!-- 6 -->
<g id="node7" class="node">
<title>6</title>
<path fill="none" stroke="#56d0d8" stroke-width="2" d="M351.5,-612C351.5,-612 295.5,-612 295.5,-612 289.5,-612 283.5,-606 283.5,-600 283.5,-600 283.5,-588 283.5,-588 283.5,-582 289.5,-576 295.5,-576 295.5,-576 351.5,-576 351.5,-576 357.5,-576 363.5,-582 363.5,-588 363.5,-588 363.5,-600 363.5,-600 363.5,-606 357.5,-612 351.5,-612"/>
<text text-anchor="middle" x="323.5" y="-591.5" font-family="sans" font-size="10.00">cp_reference</text>
</g>
<!-- 6&#45;&gt;2 -->
<g id="edge6" class="edge">
<title>6&#45;&gt;2</title>
<path fill="none" stroke="grey" stroke-width="2" d="M339.99,-575.77C362.34,-550.53 399.5,-501.05 399.5,-451 399.5,-451 399.5,-451 399.5,-233 399.5,-192.55 402.09,-178.2 380.5,-144 373.11,-132.29 362.17,-122.18 351.17,-114.01"/>
<polygon fill="grey" stroke="grey" stroke-width="2" points="353,-111.02 342.8,-108.15 348.98,-116.76 353,-111.02"/>
</g>
<!-- 6&#45;&gt;5 -->
<g id="edge8" class="edge">
<title>6&#45;&gt;5</title>
<path fill="none" stroke="grey" stroke-width="2" d="M331.19,-575.91C342.29,-549.62 361.5,-497.45 361.5,-451 361.5,-451 361.5,-451 361.5,-305 361.5,-262.68 341.5,-217.09 326.8,-189.3"/>
<polygon fill="grey" stroke="grey" stroke-width="2" points="329.72,-187.35 321.86,-180.24 323.57,-190.7 329.72,-187.35"/>
</g>
<!-- 9 -->
<g id="node10" class="node">
<title>9</title>
<path fill="none" stroke="#d8a456" stroke-width="2" d="M304.5,-396C304.5,-396 238.5,-396 238.5,-396 232.5,-396 226.5,-390 226.5,-384 226.5,-384 226.5,-372 226.5,-372 226.5,-366 232.5,-360 238.5,-360 238.5,-360 304.5,-360 304.5,-360 310.5,-360 316.5,-366 316.5,-372 316.5,-372 316.5,-384 316.5,-384 316.5,-390 310.5,-396 304.5,-396"/>
<text text-anchor="middle" x="271.5" y="-375.5" font-family="sans" font-size="10.00">samtools_view</text>
</g>
<!-- 6&#45;&gt;9 -->
<g id="edge13" class="edge">
<title>6&#45;&gt;9</title>
<path fill="none" stroke="grey" stroke-width="2" d="M322.39,-575.69C320.1,-545.78 313.64,-482.72 297.5,-432 294.61,-422.92 290.39,-413.44 286.18,-405.05"/>
<polygon fill="grey" stroke="grey" stroke-width="2" points="289.25,-403.36 281.52,-396.12 283.05,-406.61 289.25,-403.36"/>
</g>
<!-- 6&#45;&gt;10 -->
<g id="edge14" class="edge">
<title>6&#45;&gt;10</title>
<path fill="none" stroke="grey" stroke-width="2" d="M283.47,-584.36C259.56,-576.92 231.09,-563.51 216.5,-540 203.9,-519.7 217.03,-494.49 231.19,-476.08"/>
<polygon fill="grey" stroke="grey" stroke-width="2" points="234.05,-478.11 237.67,-468.15 228.63,-473.68 234.05,-478.11"/>
</g>
<!-- 11 -->
<g id="node12" class="node">
<title>11</title>
<path fill="none" stroke="#56a9d8" stroke-width="2" d="M283,-540C283,-540 238,-540 238,-540 232,-540 226,-534 226,-528 226,-528 226,-516 226,-516 226,-510 232,-504 238,-504 238,-504 283,-504 283,-504 289,-504 295,-510 295,-516 295,-516 295,-528 295,-528 295,-534 289,-540 283,-540"/>
<text text-anchor="middle" x="260.5" y="-519.5" font-family="sans" font-size="10.00">bwa_index</text>
</g>
<!-- 6&#45;&gt;11 -->
<g id="edge17" class="edge">
<title>6&#45;&gt;11</title>
<path fill="none" stroke="grey" stroke-width="2" d="M307.93,-575.7C300.3,-567.22 290.98,-556.86 282.62,-547.58"/>
<polygon fill="grey" stroke="grey" stroke-width="2" points="285.19,-545.2 275.89,-540.1 279.98,-549.88 285.19,-545.2"/>
</g>
<!-- 7 -->
<g id="node8" class="node">
<title>7</title>
<path fill="none" stroke="#8fd856" stroke-width="2" d="M302.5,-324C302.5,-324 240.5,-324 240.5,-324 234.5,-324 228.5,-318 228.5,-312 228.5,-312 228.5,-300 228.5,-300 228.5,-294 234.5,-288 240.5,-288 240.5,-288 302.5,-288 302.5,-288 308.5,-288 314.5,-294 314.5,-300 314.5,-300 314.5,-312 314.5,-312 314.5,-318 308.5,-324 302.5,-324"/>
<text text-anchor="middle" x="271.5" y="-303.5" font-family="sans" font-size="10.00">samtools_sort</text>
</g>
<!-- 7&#45;&gt;5 -->
<g id="edge7" class="edge">
<title>7&#45;&gt;5</title>
<path fill="none" stroke="grey" stroke-width="2" d="M281.99,-287.95C287.74,-277.85 294.49,-264.6 298.5,-252 304.92,-231.82 308.19,-208.04 309.84,-190.14"/>
<polygon fill="grey" stroke="grey" stroke-width="2" points="313.33,-190.35 310.66,-180.1 306.36,-189.78 313.33,-190.35"/>
</g>
<!-- 8 -->
<g id="node9" class="node">
<title>8</title>
<path fill="none" stroke="#b6d856" stroke-width="2" d="M277.5,-252C277.5,-252 207.5,-252 207.5,-252 201.5,-252 195.5,-246 195.5,-240 195.5,-240 195.5,-228 195.5,-228 195.5,-222 201.5,-216 207.5,-216 207.5,-216 277.5,-216 277.5,-216 283.5,-216 289.5,-222 289.5,-228 289.5,-228 289.5,-240 289.5,-240 289.5,-246 283.5,-252 277.5,-252"/>
<text text-anchor="middle" x="242.5" y="-231.5" font-family="sans" font-size="10.00">samtools_index</text>
</g>
<!-- 7&#45;&gt;8 -->
<g id="edge11" class="edge">
<title>7&#45;&gt;8</title>
<path fill="none" stroke="grey" stroke-width="2" d="M264.33,-287.7C261.07,-279.81 257.13,-270.3 253.5,-261.55"/>
<polygon fill="grey" stroke="grey" stroke-width="2" points="256.65,-260 249.59,-252.1 250.18,-262.68 256.65,-260"/>
</g>
<!-- 8&#45;&gt;5 -->
<g id="edge9" class="edge">
<title>8&#45;&gt;5</title>
<path fill="none" stroke="grey" stroke-width="2" d="M259.56,-215.7C268,-207.14 278.32,-196.66 287.54,-187.3"/>
<polygon fill="grey" stroke="grey" stroke-width="2" points="290.11,-189.68 294.64,-180.1 285.13,-184.77 290.11,-189.68"/>
</g>
<!-- 9&#45;&gt;7 -->
<g id="edge10" class="edge">
<title>9&#45;&gt;7</title>
<path fill="none" stroke="grey" stroke-width="2" d="M271.5,-359.7C271.5,-351.98 271.5,-342.71 271.5,-334.11"/>
<polygon fill="grey" stroke="grey" stroke-width="2" points="275,-334.1 271.5,-324.1 268,-334.1 275,-334.1"/>
</g>
<!-- 10&#45;&gt;9 -->
<g id="edge12" class="edge">
<title>10&#45;&gt;9</title>
<path fill="none" stroke="grey" stroke-width="2" d="M258.7,-431.7C260.6,-423.9 262.88,-414.51 264.98,-405.83"/>
<polygon fill="grey" stroke="grey" stroke-width="2" points="268.39,-406.65 267.35,-396.1 261.58,-405 268.39,-406.65"/>
</g>
<!-- 11&#45;&gt;10 -->
<g id="edge16" class="edge">
<title>11&#45;&gt;10</title>
<path fill="none" stroke="grey" stroke-width="2" d="M259.02,-503.7C258.36,-495.98 257.56,-486.71 256.82,-478.11"/>
<polygon fill="grey" stroke="grey" stroke-width="2" points="260.31,-477.77 255.97,-468.1 253.33,-478.37 260.31,-477.77"/>
</g>
</g>
</svg>
