<?xml version="1.0" encoding="UTF-8" standalone="no"?>
<!DOCTYPE svg PUBLIC "-//W3C//DTD SVG 1.1//EN"
 "http://www.w3.org/Graphics/SVG/1.1/DTD/svg11.dtd">
<!-- Generated by graphviz version 2.43.0 (0)
 -->
<!-- Title: snakemake_dag Pages: 1 -->
<svg width="974pt" height="913pt"
 viewBox="0.00 0.00 974.00 913.00" xmlns="http://www.w3.org/2000/svg" xmlns:xlink="http://www.w3.org/1999/xlink">
<g id="graph0" class="graph" transform="scale(1 1) rotate(0) translate(4 909)">
<title>snakemake_dag</title>
<polygon fill="white" stroke="transparent" points="-4,4 -4,-909 970,-909 970,4 -4,4"/>
<!-- 0 -->
<g id="node1" class="node">
<title>0</title>
<path fill="none" stroke="#56d8c1" stroke-width="2" d="M348,-36C348,-36 318,-36 318,-36 312,-36 306,-30 306,-24 306,-24 306,-12 306,-12 306,-6 312,0 318,0 318,0 348,0 348,0 354,0 360,-6 360,-12 360,-12 360,-24 360,-24 360,-30 354,-36 348,-36"/>
<text text-anchor="middle" x="333" y="-15.5" font-family="sans" font-size="10.00">all</text>
</g>
<!-- 1 -->
<g id="node2" class="node">
<title>1</title>
<path fill="none" stroke="#56a9d8" stroke-width="2" d="M556,-257C556,-257 512,-257 512,-257 506,-257 500,-251 500,-245 500,-245 500,-228 500,-228 500,-222 506,-216 512,-216 512,-216 556,-216 556,-216 562,-216 568,-222 568,-228 568,-228 568,-245 568,-245 568,-251 562,-257 556,-257"/>
<text text-anchor="middle" x="534" y="-245" font-family="sans" font-size="10.00">strelka2</text>
<text text-anchor="middle" x="534" y="-234" font-family="sans" font-size="10.00">normal: L2</text>
<text text-anchor="middle" x="534" y="-223" font-family="sans" font-size="10.00">tumor: L1</text>
</g>
<!-- 1&#45;&gt;0 -->
<g id="edge1" class="edge">
<title>1&#45;&gt;0</title>
<path fill="none" stroke="grey" stroke-width="2" d="M515.81,-215.91C479.15,-176.42 396.44,-87.33 356.06,-43.84"/>
<polygon fill="grey" stroke="grey" stroke-width="2" points="358.4,-41.22 349.03,-36.27 353.27,-45.98 358.4,-41.22"/>
</g>
<!-- 2 -->
<g id="node3" class="node">
<title>2</title>
<path fill="none" stroke="#d86e56" stroke-width="2" d="M342.5,-108C342.5,-108 223.5,-108 223.5,-108 217.5,-108 211.5,-102 211.5,-96 211.5,-96 211.5,-84 211.5,-84 211.5,-78 217.5,-72 223.5,-72 223.5,-72 342.5,-72 342.5,-72 348.5,-72 354.5,-78 354.5,-84 354.5,-84 354.5,-96 354.5,-96 354.5,-102 348.5,-108 342.5,-108"/>
<text text-anchor="middle" x="283" y="-87.5" font-family="sans" font-size="10.00">gatk_filtervarianttranches</text>
</g>
<!-- 2&#45;&gt;0 -->
<g id="edge2" class="edge">
<title>2&#45;&gt;0</title>
<path fill="none" stroke="grey" stroke-width="2" d="M295.36,-71.7C301.23,-63.47 308.37,-53.48 314.84,-44.42"/>
<polygon fill="grey" stroke="grey" stroke-width="2" points="317.82,-46.28 320.78,-36.1 312.12,-42.21 317.82,-46.28"/>
</g>
<!-- 3 -->
<g id="node4" class="node">
<title>3</title>
<path fill="none" stroke="#56d8d8" stroke-width="2" d="M508,-905C508,-905 452,-905 452,-905 446,-905 440,-899 440,-893 440,-893 440,-881 440,-881 440,-875 446,-869 452,-869 452,-869 508,-869 508,-869 514,-869 520,-875 520,-881 520,-881 520,-893 520,-893 520,-899 514,-905 508,-905"/>
<text text-anchor="middle" x="480" y="-884.5" font-family="sans" font-size="10.00">cp_reference</text>
</g>
<!-- 3&#45;&gt;1 -->
<g id="edge3" class="edge">
<title>3&#45;&gt;1</title>
<path fill="none" stroke="grey" stroke-width="2" d="M520.3,-875.9C531.48,-873.36 543.67,-870.84 555,-869 635.46,-855.97 852.55,-878.75 920,-833 956.85,-808 966,-788.53 966,-744 966,-744 966,-744 966,-382 966,-300.89 688.62,-256.98 578.39,-242.74"/>
<polygon fill="grey" stroke="grey" stroke-width="2" points="578.62,-239.24 568.26,-241.45 577.74,-246.19 578.62,-239.24"/>
</g>
<!-- 4 -->
<g id="node5" class="node">
<title>4</title>
<path fill="none" stroke="#56d86b" stroke-width="2" d="M479.5,-401C479.5,-401 392.5,-401 392.5,-401 386.5,-401 380.5,-395 380.5,-389 380.5,-389 380.5,-377 380.5,-377 380.5,-371 386.5,-365 392.5,-365 392.5,-365 479.5,-365 479.5,-365 485.5,-365 491.5,-371 491.5,-377 491.5,-377 491.5,-389 491.5,-389 491.5,-395 485.5,-401 479.5,-401"/>
<text text-anchor="middle" x="436" y="-380.5" font-family="sans" font-size="10.00">samtools_view_md</text>
</g>
<!-- 3&#45;&gt;4 -->
<g id="edge11" class="edge">
<title>3&#45;&gt;4</title>
<path fill="none" stroke="grey" stroke-width="2" d="M520.38,-876.66C572.26,-864.34 656.98,-843.06 668,-833 699.26,-804.44 702,-786.34 702,-744 702,-744 702,-744 702,-526 702,-480.44 579.04,-431.19 500.32,-404.33"/>
<polygon fill="grey" stroke="grey" stroke-width="2" points="501.07,-400.89 490.47,-401.01 498.83,-407.52 501.07,-400.89"/>
</g>
<!-- 5 -->
<g id="node6" class="node">
<title>5</title>
<path fill="none" stroke="#56d86b" stroke-width="2" d="M653.5,-401C653.5,-401 566.5,-401 566.5,-401 560.5,-401 554.5,-395 554.5,-389 554.5,-389 554.5,-377 554.5,-377 554.5,-371 560.5,-365 566.5,-365 566.5,-365 653.5,-365 653.5,-365 659.5,-365 665.5,-371 665.5,-377 665.5,-377 665.5,-389 665.5,-389 665.5,-395 659.5,-401 653.5,-401"/>
<text text-anchor="middle" x="610" y="-380.5" font-family="sans" font-size="10.00">samtools_view_md</text>
</g>
<!-- 3&#45;&gt;5 -->
<g id="edge13" class="edge">
<title>3&#45;&gt;5</title>
<path fill="none" stroke="grey" stroke-width="2" d="M520.38,-876.34C531.56,-873.8 543.72,-871.17 555,-869 726.69,-835.96 928,-918.84 928,-744 928,-744 928,-744 928,-526 928,-416.58 769.09,-390.9 675.94,-385.25"/>
<polygon fill="grey" stroke="grey" stroke-width="2" points="675.93,-381.74 665.76,-384.69 675.55,-388.73 675.93,-381.74"/>
</g>
<!-- 8 -->
<g id="node9" class="node">
<title>8</title>
<path fill="none" stroke="#566bd8" stroke-width="2" d="M161.5,-833C161.5,-833 116.5,-833 116.5,-833 110.5,-833 104.5,-827 104.5,-821 104.5,-821 104.5,-809 104.5,-809 104.5,-803 110.5,-797 116.5,-797 116.5,-797 161.5,-797 161.5,-797 167.5,-797 173.5,-803 173.5,-809 173.5,-809 173.5,-821 173.5,-821 173.5,-827 167.5,-833 161.5,-833"/>
<text text-anchor="middle" x="139" y="-812.5" font-family="sans" font-size="10.00">bwa_index</text>
</g>
<!-- 3&#45;&gt;8 -->
<g id="edge16" class="edge">
<title>3&#45;&gt;8</title>
<path fill="none" stroke="grey" stroke-width="2" d="M439.58,-881.29C383.83,-874.25 280.21,-859.22 183.77,-832.91"/>
<polygon fill="grey" stroke="grey" stroke-width="2" points="184.43,-829.47 173.86,-830.16 182.56,-836.21 184.43,-829.47"/>
</g>
<!-- 9 -->
<g id="node10" class="node">
<title>9</title>
<path fill="none" stroke="#56d89a" stroke-width="2" d="M184.5,-180C184.5,-180 81.5,-180 81.5,-180 75.5,-180 69.5,-174 69.5,-168 69.5,-168 69.5,-156 69.5,-156 69.5,-150 75.5,-144 81.5,-144 81.5,-144 184.5,-144 184.5,-144 190.5,-144 196.5,-150 196.5,-156 196.5,-156 196.5,-168 196.5,-168 196.5,-174 190.5,-180 184.5,-180"/>
<text text-anchor="middle" x="133" y="-159.5" font-family="sans" font-size="10.00">gatk_cnnscorevariants</text>
</g>
<!-- 3&#45;&gt;9 -->
<g id="edge17" class="edge">
<title>3&#45;&gt;9</title>
<path fill="none" stroke="grey" stroke-width="2" d="M439.96,-882.58C342.93,-874.06 100.85,-851.22 69,-833 25.56,-808.14 0,-794.05 0,-744 0,-744 0,-744 0,-310 0,-254.33 53.11,-210.32 92.2,-185.46"/>
<polygon fill="grey" stroke="grey" stroke-width="2" points="94.13,-188.38 100.8,-180.15 90.46,-182.43 94.13,-188.38"/>
</g>
<!-- 10 -->
<g id="node11" class="node">
<title>10</title>
<path fill="none" stroke="#c6d856" stroke-width="2" d="M483.5,-473C483.5,-473 388.5,-473 388.5,-473 382.5,-473 376.5,-467 376.5,-461 376.5,-461 376.5,-449 376.5,-449 376.5,-443 382.5,-437 388.5,-437 388.5,-437 483.5,-437 483.5,-437 489.5,-437 495.5,-443 495.5,-449 495.5,-449 495.5,-461 495.5,-461 495.5,-467 489.5,-473 483.5,-473"/>
<text text-anchor="middle" x="436" y="-452.5" font-family="sans" font-size="10.00">gatk_markduplicates</text>
</g>
<!-- 3&#45;&gt;10 -->
<g id="edge21" class="edge">
<title>3&#45;&gt;10</title>
<path fill="none" stroke="grey" stroke-width="2" d="M520.04,-875.4C566.06,-862.86 636.4,-842.51 645,-833 672.13,-803 664,-784.45 664,-744 664,-744 664,-744 664,-598 664,-522.48 572.77,-485.69 505.72,-468.84"/>
<polygon fill="grey" stroke="grey" stroke-width="2" points="506.15,-465.34 495.61,-466.4 504.51,-472.15 506.15,-465.34"/>
</g>
<!-- 11 -->
<g id="node12" class="node">
<title>11</title>
<path fill="none" stroke="#c6d856" stroke-width="2" d="M837.5,-473C837.5,-473 742.5,-473 742.5,-473 736.5,-473 730.5,-467 730.5,-461 730.5,-461 730.5,-449 730.5,-449 730.5,-443 736.5,-437 742.5,-437 742.5,-437 837.5,-437 837.5,-437 843.5,-437 849.5,-443 849.5,-449 849.5,-449 849.5,-461 849.5,-461 849.5,-467 843.5,-473 837.5,-473"/>
<text text-anchor="middle" x="790" y="-452.5" font-family="sans" font-size="10.00">gatk_markduplicates</text>
</g>
<!-- 3&#45;&gt;11 -->
<g id="edge24" class="edge">
<title>3&#45;&gt;11</title>
<path fill="none" stroke="grey" stroke-width="2" d="M520.09,-876.89C531.38,-874.33 543.67,-871.55 555,-869 626.53,-852.9 663.04,-883.71 716,-833 745.59,-804.67 740,-784.97 740,-744 740,-744 740,-744 740,-598 740,-555.68 760,-510.09 774.7,-482.3"/>
<polygon fill="grey" stroke="grey" stroke-width="2" points="777.93,-483.7 779.64,-473.24 771.78,-480.35 777.93,-483.7"/>
</g>
<!-- 12 -->
<g id="node13" class="node">
<title>12</title>
<path fill="none" stroke="#d8c356" stroke-width="2" d="M237.5,-257C237.5,-257 142.5,-257 142.5,-257 136.5,-257 130.5,-251 130.5,-245 130.5,-245 130.5,-228 130.5,-228 130.5,-222 136.5,-216 142.5,-216 142.5,-216 237.5,-216 237.5,-216 243.5,-216 249.5,-222 249.5,-228 249.5,-228 249.5,-245 249.5,-245 249.5,-251 243.5,-257 237.5,-257"/>
<text text-anchor="middle" x="190" y="-245" font-family="sans" font-size="10.00">gatk_haplotypecaller</text>
<text text-anchor="middle" x="190" y="-234" font-family="sans" font-size="10.00">normal: L2</text>
<text text-anchor="middle" x="190" y="-223" font-family="sans" font-size="10.00">tumor: L1</text>
</g>
<!-- 3&#45;&gt;12 -->
<g id="edge26" class="edge">
<title>3&#45;&gt;12</title>
<path fill="none" stroke="grey" stroke-width="2" d="M439.81,-882.15C340.17,-872.4 88.92,-846.59 77,-833 66.45,-820.97 75.91,-812.96 77,-797 85.24,-676.6 114,-648.68 114,-528 114,-528 114,-528 114,-382 114,-337.3 142.84,-292.84 164.98,-265.29"/>
<polygon fill="grey" stroke="grey" stroke-width="2" points="167.92,-267.23 171.6,-257.3 162.53,-262.77 167.92,-267.23"/>
</g>
<!-- 17 -->
<g id="node18" class="node">
<title>17</title>
<path fill="none" stroke="#5682d8" stroke-width="2" d="M392,-689C392,-689 326,-689 326,-689 320,-689 314,-683 314,-677 314,-677 314,-665 314,-665 314,-659 320,-653 326,-653 326,-653 392,-653 392,-653 398,-653 404,-659 404,-665 404,-665 404,-677 404,-677 404,-683 398,-689 392,-689"/>
<text text-anchor="middle" x="359" y="-668.5" font-family="sans" font-size="10.00">samtools_view</text>
</g>
<!-- 3&#45;&gt;17 -->
<g id="edge37" class="edge">
<title>3&#45;&gt;17</title>
<path fill="none" stroke="grey" stroke-width="2" d="M439.84,-881.9C343.49,-871.86 106.29,-845.95 95,-833 27.54,-755.62 208.18,-704 303.9,-682.84"/>
<polygon fill="grey" stroke="grey" stroke-width="2" points="304.7,-686.25 313.73,-680.71 303.22,-679.41 304.7,-686.25"/>
</g>
<!-- 18 -->
<g id="node19" class="node">
<title>18</title>
<path fill="none" stroke="#5682d8" stroke-width="2" d="M846,-689C846,-689 780,-689 780,-689 774,-689 768,-683 768,-677 768,-677 768,-665 768,-665 768,-659 774,-653 780,-653 780,-653 846,-653 846,-653 852,-653 858,-659 858,-665 858,-665 858,-677 858,-677 858,-683 852,-689 846,-689"/>
<text text-anchor="middle" x="813" y="-668.5" font-family="sans" font-size="10.00">samtools_view</text>
</g>
<!-- 3&#45;&gt;18 -->
<g id="edge39" class="edge">
<title>3&#45;&gt;18</title>
<path fill="none" stroke="grey" stroke-width="2" d="M520.02,-876.59C531.31,-874.02 543.62,-871.32 555,-869 643.07,-851.06 685.21,-890.85 754,-833 794.06,-799.31 806.92,-735.96 811.05,-699.58"/>
<polygon fill="grey" stroke="grey" stroke-width="2" points="814.57,-699.51 812.07,-689.22 807.61,-698.82 814.57,-699.51"/>
</g>
<!-- 19 -->
<g id="node20" class="node">
<title>19</title>
<path fill="none" stroke="#59d856" stroke-width="2" d="M381,-761C381,-761 337,-761 337,-761 331,-761 325,-755 325,-749 325,-749 325,-737 325,-737 325,-731 331,-725 337,-725 337,-725 381,-725 381,-725 387,-725 393,-731 393,-737 393,-737 393,-749 393,-749 393,-755 387,-761 381,-761"/>
<text text-anchor="middle" x="359" y="-740.5" font-family="sans" font-size="10.00">bwa_mem</text>
</g>
<!-- 3&#45;&gt;19 -->
<g id="edge40" class="edge">
<title>3&#45;&gt;19</title>
<path fill="none" stroke="grey" stroke-width="2" d="M439.99,-885.27C401.89,-882.17 346.43,-870.91 319,-833 304.66,-813.19 319.22,-787.41 334.64,-768.71"/>
<polygon fill="grey" stroke="grey" stroke-width="2" points="337.29,-771 341.22,-761.16 332.01,-766.4 337.29,-771"/>
</g>
<!-- 20 -->
<g id="node21" class="node">
<title>20</title>
<path fill="none" stroke="#59d856" stroke-width="2" d="M513,-761C513,-761 469,-761 469,-761 463,-761 457,-755 457,-749 457,-749 457,-737 457,-737 457,-731 463,-725 469,-725 469,-725 513,-725 513,-725 519,-725 525,-731 525,-737 525,-737 525,-749 525,-749 525,-755 519,-761 513,-761"/>
<text text-anchor="middle" x="491" y="-740.5" font-family="sans" font-size="10.00">bwa_mem</text>
</g>
<!-- 3&#45;&gt;20 -->
<g id="edge45" class="edge">
<title>3&#45;&gt;20</title>
<path fill="none" stroke="grey" stroke-width="2" d="M492.31,-868.78C498.65,-858.84 505.73,-845.8 509,-833 514.29,-812.32 508.94,-788.61 502.74,-770.87"/>
<polygon fill="grey" stroke="grey" stroke-width="2" points="505.88,-769.28 499.06,-761.18 499.34,-771.77 505.88,-769.28"/>
</g>
<!-- 22 -->
<g id="node23" class="node">
<title>22</title>
<path fill="none" stroke="#68d856" stroke-width="2" d="M488,-833C488,-833 420,-833 420,-833 414,-833 408,-827 408,-821 408,-821 408,-809 408,-809 408,-803 414,-797 420,-797 420,-797 488,-797 488,-797 494,-797 500,-803 500,-809 500,-809 500,-821 500,-821 500,-827 494,-833 488,-833"/>
<text text-anchor="middle" x="454" y="-812.5" font-family="sans" font-size="10.00">samtools_faidx</text>
</g>
<!-- 3&#45;&gt;22 -->
<g id="edge51" class="edge">
<title>3&#45;&gt;22</title>
<path fill="none" stroke="grey" stroke-width="2" d="M473.57,-868.7C470.64,-860.81 467.11,-851.3 463.86,-842.55"/>
<polygon fill="grey" stroke="grey" stroke-width="2" points="467.12,-841.26 460.35,-833.1 460.55,-843.7 467.12,-841.26"/>
</g>
<!-- 23 -->
<g id="node24" class="node">
<title>23</title>
<path fill="none" stroke="#d89556" stroke-width="2" d="M378,-833C378,-833 340,-833 340,-833 334,-833 328,-827 328,-821 328,-821 328,-809 328,-809 328,-803 334,-797 340,-797 340,-797 378,-797 378,-797 384,-797 390,-803 390,-809 390,-809 390,-821 390,-821 390,-827 384,-833 378,-833"/>
<text text-anchor="middle" x="359" y="-812.5" font-family="sans" font-size="10.00">gatk_dict</text>
</g>
<!-- 3&#45;&gt;23 -->
<g id="edge52" class="edge">
<title>3&#45;&gt;23</title>
<path fill="none" stroke="grey" stroke-width="2" d="M450.4,-868.88C434.43,-859.64 414.54,-848.13 397.39,-838.21"/>
<polygon fill="grey" stroke="grey" stroke-width="2" points="399.12,-835.17 388.71,-833.19 395.62,-841.23 399.12,-835.17"/>
</g>
<!-- 4&#45;&gt;1 -->
<g id="edge4" class="edge">
<title>4&#45;&gt;1</title>
<path fill="none" stroke="grey" stroke-width="2" d="M473.47,-364.89C488.55,-356.19 504.77,-344.21 515,-329 527.17,-310.91 531.8,-286.6 533.45,-267.59"/>
<polygon fill="grey" stroke="grey" stroke-width="2" points="536.96,-267.57 534.1,-257.37 529.97,-267.12 536.96,-267.57"/>
</g>
<!-- 6 -->
<g id="node7" class="node">
<title>6</title>
<path fill="none" stroke="#97d856" stroke-width="2" d="M321.5,-329C321.5,-329 230.5,-329 230.5,-329 224.5,-329 218.5,-323 218.5,-317 218.5,-317 218.5,-305 218.5,-305 218.5,-299 224.5,-293 230.5,-293 230.5,-293 321.5,-293 321.5,-293 327.5,-293 333.5,-299 333.5,-305 333.5,-305 333.5,-317 333.5,-317 333.5,-323 327.5,-329 321.5,-329"/>
<text text-anchor="middle" x="276" y="-308.5" font-family="sans" font-size="10.00">samtools_index_md</text>
</g>
<!-- 4&#45;&gt;6 -->
<g id="edge14" class="edge">
<title>4&#45;&gt;6</title>
<path fill="none" stroke="grey" stroke-width="2" d="M396.86,-364.88C374.99,-355.31 347.54,-343.3 324.34,-333.15"/>
<polygon fill="grey" stroke="grey" stroke-width="2" points="325.58,-329.87 315.01,-329.07 322.77,-336.28 325.58,-329.87"/>
</g>
<!-- 4&#45;&gt;12 -->
<g id="edge27" class="edge">
<title>4&#45;&gt;12</title>
<path fill="none" stroke="grey" stroke-width="2" d="M380.28,-375.76C321.27,-368 233.44,-352.8 210,-329 194.14,-312.9 189.61,-287.3 188.78,-267.27"/>
<polygon fill="grey" stroke="grey" stroke-width="2" points="192.27,-267.05 188.64,-257.1 185.27,-267.14 192.27,-267.05"/>
</g>
<!-- 5&#45;&gt;1 -->
<g id="edge5" class="edge">
<title>5&#45;&gt;1</title>
<path fill="none" stroke="grey" stroke-width="2" d="M607.88,-364.66C605.03,-346.01 598.77,-315.93 586,-293 580.24,-282.65 572.13,-272.74 564.02,-264.23"/>
<polygon fill="grey" stroke="grey" stroke-width="2" points="566.5,-261.75 556.96,-257.13 561.53,-266.69 566.5,-261.75"/>
</g>
<!-- 7 -->
<g id="node8" class="node">
<title>7</title>
<path fill="none" stroke="#97d856" stroke-width="2" d="M493.5,-329C493.5,-329 402.5,-329 402.5,-329 396.5,-329 390.5,-323 390.5,-317 390.5,-317 390.5,-305 390.5,-305 390.5,-299 396.5,-293 402.5,-293 402.5,-293 493.5,-293 493.5,-293 499.5,-293 505.5,-299 505.5,-305 505.5,-305 505.5,-317 505.5,-317 505.5,-323 499.5,-329 493.5,-329"/>
<text text-anchor="middle" x="448" y="-308.5" font-family="sans" font-size="10.00">samtools_index_md</text>
</g>
<!-- 5&#45;&gt;7 -->
<g id="edge15" class="edge">
<title>5&#45;&gt;7</title>
<path fill="none" stroke="grey" stroke-width="2" d="M570.37,-364.88C548.22,-355.31 520.44,-343.3 496.94,-333.15"/>
<polygon fill="grey" stroke="grey" stroke-width="2" points="498.07,-329.82 487.5,-329.07 495.29,-336.25 498.07,-329.82"/>
</g>
<!-- 5&#45;&gt;12 -->
<g id="edge28" class="edge">
<title>5&#45;&gt;12</title>
<path fill="none" stroke="grey" stroke-width="2" d="M554.5,-372.47C497,-362.01 411.5,-344.62 382,-329 361.15,-317.96 363.15,-305.26 343,-293 317.31,-277.37 286.54,-265.14 259.35,-256.19"/>
<polygon fill="grey" stroke="grey" stroke-width="2" points="260.1,-252.75 249.51,-253.04 257.96,-259.42 260.1,-252.75"/>
</g>
<!-- 6&#45;&gt;1 -->
<g id="edge6" class="edge">
<title>6&#45;&gt;1</title>
<path fill="none" stroke="grey" stroke-width="2" d="M333.58,-293.82C380.98,-280.5 447.16,-261.9 490.29,-249.78"/>
<polygon fill="grey" stroke="grey" stroke-width="2" points="491.25,-253.15 499.93,-247.07 489.35,-246.41 491.25,-253.15"/>
</g>
<!-- 6&#45;&gt;12 -->
<g id="edge29" class="edge">
<title>6&#45;&gt;12</title>
<path fill="none" stroke="grey" stroke-width="2" d="M255.62,-292.82C245.29,-284.11 232.52,-273.35 221,-263.64"/>
<polygon fill="grey" stroke="grey" stroke-width="2" points="223.17,-260.89 213.27,-257.12 218.66,-266.24 223.17,-260.89"/>
</g>
<!-- 7&#45;&gt;1 -->
<g id="edge7" class="edge">
<title>7&#45;&gt;1</title>
<path fill="none" stroke="grey" stroke-width="2" d="M468.38,-292.82C478.71,-284.11 491.48,-273.35 503,-263.64"/>
<polygon fill="grey" stroke="grey" stroke-width="2" points="505.34,-266.24 510.73,-257.12 500.83,-260.89 505.34,-266.24"/>
</g>
<!-- 7&#45;&gt;12 -->
<g id="edge30" class="edge">
<title>7&#45;&gt;12</title>
<path fill="none" stroke="grey" stroke-width="2" d="M390.42,-293.82C351.65,-282.92 300.31,-268.5 259.29,-256.97"/>
<polygon fill="grey" stroke="grey" stroke-width="2" points="260.22,-253.6 249.64,-254.26 258.32,-260.33 260.22,-253.6"/>
</g>
<!-- 8&#45;&gt;1 -->
<g id="edge8" class="edge">
<title>8&#45;&gt;1</title>
<path fill="none" stroke="grey" stroke-width="2" d="M170.47,-796.85C205.48,-778.08 263.97,-747.66 316,-725 358.16,-706.64 379.72,-720.74 413,-689 535.35,-572.3 518.11,-497.13 536,-329 538.18,-308.49 537.64,-285.26 536.57,-267.33"/>
<polygon fill="grey" stroke="grey" stroke-width="2" points="540.05,-266.93 535.88,-257.19 533.07,-267.41 540.05,-266.93"/>
</g>
<!-- 8&#45;&gt;9 -->
<g id="edge19" class="edge">
<title>8&#45;&gt;9</title>
<path fill="none" stroke="grey" stroke-width="2" d="M132.5,-796.88C116.4,-752.93 76,-632.23 76,-528 76,-528 76,-528 76,-310 76,-265.24 99.25,-217.69 116.06,-189.17"/>
<polygon fill="grey" stroke="grey" stroke-width="2" points="119.27,-190.62 121.47,-180.26 113.28,-186.99 119.27,-190.62"/>
</g>
<!-- 8&#45;&gt;12 -->
<g id="edge31" class="edge">
<title>8&#45;&gt;12</title>
<path fill="none" stroke="grey" stroke-width="2" d="M141.57,-797C145.36,-770.4 152,-717.3 152,-672 152,-672 152,-672 152,-382 152,-340.93 166.54,-295.39 177.63,-266.62"/>
<polygon fill="grey" stroke="grey" stroke-width="2" points="180.94,-267.76 181.38,-257.17 174.43,-265.17 180.94,-267.76"/>
</g>
<!-- 8&#45;&gt;19 -->
<g id="edge42" class="edge">
<title>8&#45;&gt;19</title>
<path fill="none" stroke="grey" stroke-width="2" d="M173.96,-800.15C177,-799.05 180.05,-797.98 183,-797 239.07,-778.33 254.67,-778.87 311,-761 312.4,-760.56 313.81,-760.1 315.24,-759.63"/>
<polygon fill="grey" stroke="grey" stroke-width="2" points="316.38,-762.94 324.74,-756.44 314.15,-756.31 316.38,-762.94"/>
</g>
<!-- 8&#45;&gt;20 -->
<g id="edge47" class="edge">
<title>8&#45;&gt;20</title>
<path fill="none" stroke="grey" stroke-width="2" d="M173.85,-799.79C176.92,-798.77 180,-797.82 183,-797 278.18,-771.09 304.88,-778.25 402,-761 416.58,-758.41 432.48,-755.42 446.74,-752.69"/>
<polygon fill="grey" stroke="grey" stroke-width="2" points="447.65,-756.08 456.8,-750.75 446.32,-749.2 447.65,-756.08"/>
</g>
<!-- 9&#45;&gt;2 -->
<g id="edge9" class="edge">
<title>9&#45;&gt;2</title>
<path fill="none" stroke="grey" stroke-width="2" d="M169.69,-143.88C190.02,-134.39 215.47,-122.51 237.1,-112.42"/>
<polygon fill="grey" stroke="grey" stroke-width="2" points="238.84,-115.47 246.43,-108.07 235.88,-109.13 238.84,-115.47"/>
</g>
<!-- 10&#45;&gt;4 -->
<g id="edge10" class="edge">
<title>10&#45;&gt;4</title>
<path fill="none" stroke="grey" stroke-width="2" d="M436,-436.7C436,-428.98 436,-419.71 436,-411.11"/>
<polygon fill="grey" stroke="grey" stroke-width="2" points="439.5,-411.1 436,-401.1 432.5,-411.1 439.5,-411.1"/>
</g>
<!-- 11&#45;&gt;5 -->
<g id="edge12" class="edge">
<title>11&#45;&gt;5</title>
<path fill="none" stroke="grey" stroke-width="2" d="M745.97,-436.88C721.03,-427.18 689.66,-414.98 663.34,-404.74"/>
<polygon fill="grey" stroke="grey" stroke-width="2" points="664.48,-401.43 653.89,-401.07 661.94,-407.95 664.48,-401.43"/>
</g>
<!-- 12&#45;&gt;9 -->
<g id="edge18" class="edge">
<title>12&#45;&gt;9</title>
<path fill="none" stroke="grey" stroke-width="2" d="M174.42,-215.69C167.76,-207.21 159.9,-197.22 152.83,-188.23"/>
<polygon fill="grey" stroke="grey" stroke-width="2" points="155.55,-186.02 146.62,-180.32 150.05,-190.34 155.55,-186.02"/>
</g>
<!-- 13 -->
<g id="node14" class="node">
<title>13</title>
<path fill="none" stroke="#56d882" stroke-width="2" d="M392,-617C392,-617 330,-617 330,-617 324,-617 318,-611 318,-605 318,-605 318,-593 318,-593 318,-587 324,-581 330,-581 330,-581 392,-581 392,-581 398,-581 404,-587 404,-593 404,-593 404,-605 404,-605 404,-611 398,-617 392,-617"/>
<text text-anchor="middle" x="361" y="-596.5" font-family="sans" font-size="10.00">samtools_sort</text>
</g>
<!-- 13&#45;&gt;10 -->
<g id="edge20" class="edge">
<title>13&#45;&gt;10</title>
<path fill="none" stroke="grey" stroke-width="2" d="M384.96,-580.88C396.34,-571.53 409.14,-559.01 417,-545 427.67,-526 432.36,-501.64 434.41,-483.21"/>
<polygon fill="grey" stroke="grey" stroke-width="2" points="437.91,-483.41 435.34,-473.13 430.94,-482.76 437.91,-483.41"/>
</g>
<!-- 14 -->
<g id="node15" class="node">
<title>14</title>
<path fill="none" stroke="#d88556" stroke-width="2" d="M396,-545C396,-545 326,-545 326,-545 320,-545 314,-539 314,-533 314,-533 314,-521 314,-521 314,-515 320,-509 326,-509 326,-509 396,-509 396,-509 402,-509 408,-515 408,-521 408,-521 408,-533 408,-533 408,-539 402,-545 396,-545"/>
<text text-anchor="middle" x="361" y="-524.5" font-family="sans" font-size="10.00">samtools_index</text>
</g>
<!-- 13&#45;&gt;14 -->
<g id="edge33" class="edge">
<title>13&#45;&gt;14</title>
<path fill="none" stroke="grey" stroke-width="2" d="M361,-580.7C361,-572.98 361,-563.71 361,-555.11"/>
<polygon fill="grey" stroke="grey" stroke-width="2" points="364.5,-555.1 361,-545.1 357.5,-555.1 364.5,-555.1"/>
</g>
<!-- 14&#45;&gt;10 -->
<g id="edge22" class="edge">
<title>14&#45;&gt;10</title>
<path fill="none" stroke="grey" stroke-width="2" d="M379.54,-508.7C388.8,-500.05 400.16,-489.45 410.26,-480.03"/>
<polygon fill="grey" stroke="grey" stroke-width="2" points="412.75,-482.49 417.67,-473.1 407.98,-477.37 412.75,-482.49"/>
</g>
<!-- 15 -->
<g id="node16" class="node">
<title>15</title>
<path fill="none" stroke="#56d882" stroke-width="2" d="M844,-617C844,-617 782,-617 782,-617 776,-617 770,-611 770,-605 770,-605 770,-593 770,-593 770,-587 776,-581 782,-581 782,-581 844,-581 844,-581 850,-581 856,-587 856,-593 856,-593 856,-605 856,-605 856,-611 850,-617 844,-617"/>
<text text-anchor="middle" x="813" y="-596.5" font-family="sans" font-size="10.00">samtools_sort</text>
</g>
<!-- 15&#45;&gt;11 -->
<g id="edge23" class="edge">
<title>15&#45;&gt;11</title>
<path fill="none" stroke="grey" stroke-width="2" d="M806.7,-580.57C803.27,-570.34 799.27,-557.09 797,-545 793.16,-524.57 791.42,-501.11 790.64,-483.4"/>
<polygon fill="grey" stroke="grey" stroke-width="2" points="794.13,-483.07 790.26,-473.21 787.13,-483.33 794.13,-483.07"/>
</g>
<!-- 16 -->
<g id="node17" class="node">
<title>16</title>
<path fill="none" stroke="#d88556" stroke-width="2" d="M888,-545C888,-545 818,-545 818,-545 812,-545 806,-539 806,-533 806,-533 806,-521 806,-521 806,-515 812,-509 818,-509 818,-509 888,-509 888,-509 894,-509 900,-515 900,-521 900,-521 900,-533 900,-533 900,-539 894,-545 888,-545"/>
<text text-anchor="middle" x="853" y="-524.5" font-family="sans" font-size="10.00">samtools_index</text>
</g>
<!-- 15&#45;&gt;16 -->
<g id="edge35" class="edge">
<title>15&#45;&gt;16</title>
<path fill="none" stroke="grey" stroke-width="2" d="M822.89,-580.7C827.49,-572.64 833.06,-562.89 838.15,-553.98"/>
<polygon fill="grey" stroke="grey" stroke-width="2" points="841.3,-555.52 843.23,-545.1 835.23,-552.05 841.3,-555.52"/>
</g>
<!-- 16&#45;&gt;11 -->
<g id="edge25" class="edge">
<title>16&#45;&gt;11</title>
<path fill="none" stroke="grey" stroke-width="2" d="M837.43,-508.7C829.8,-500.22 820.48,-489.86 812.12,-480.58"/>
<polygon fill="grey" stroke="grey" stroke-width="2" points="814.69,-478.2 805.39,-473.1 809.48,-482.88 814.69,-478.2"/>
</g>
<!-- 17&#45;&gt;13 -->
<g id="edge32" class="edge">
<title>17&#45;&gt;13</title>
<path fill="none" stroke="grey" stroke-width="2" d="M359.49,-652.7C359.71,-644.98 359.98,-635.71 360.23,-627.11"/>
<polygon fill="grey" stroke="grey" stroke-width="2" points="363.72,-627.2 360.51,-617.1 356.73,-627 363.72,-627.2"/>
</g>
<!-- 18&#45;&gt;15 -->
<g id="edge34" class="edge">
<title>18&#45;&gt;15</title>
<path fill="none" stroke="grey" stroke-width="2" d="M813,-652.7C813,-644.98 813,-635.71 813,-627.11"/>
<polygon fill="grey" stroke="grey" stroke-width="2" points="816.5,-627.1 813,-617.1 809.5,-627.1 816.5,-627.1"/>
</g>
<!-- 19&#45;&gt;17 -->
<g id="edge36" class="edge">
<title>19&#45;&gt;17</title>
<path fill="none" stroke="grey" stroke-width="2" d="M359,-724.7C359,-716.98 359,-707.71 359,-699.11"/>
<polygon fill="grey" stroke="grey" stroke-width="2" points="362.5,-699.1 359,-689.1 355.5,-699.1 362.5,-699.1"/>
</g>
<!-- 20&#45;&gt;18 -->
<g id="edge38" class="edge">
<title>20&#45;&gt;18</title>
<path fill="none" stroke="grey" stroke-width="2" d="M525.15,-734.58C580.73,-722.49 691.23,-698.47 757.98,-683.96"/>
<polygon fill="grey" stroke="grey" stroke-width="2" points="758.88,-687.35 767.9,-681.8 757.39,-680.51 758.88,-687.35"/>
</g>
<!-- 21 -->
<g id="node22" class="node">
<title>21</title>
<path fill="none" stroke="#d8ac56" stroke-width="2" d="M260,-833C260,-833 204,-833 204,-833 198,-833 192,-827 192,-821 192,-821 192,-809 192,-809 192,-803 198,-797 204,-797 204,-797 260,-797 260,-797 266,-797 272,-803 272,-809 272,-809 272,-821 272,-821 272,-827 266,-833 260,-833"/>
<text text-anchor="middle" x="232" y="-812.5" font-family="sans" font-size="10.00">trimmomatic</text>
</g>
<!-- 21&#45;&gt;19 -->
<g id="edge41" class="edge">
<title>21&#45;&gt;19</title>
<path fill="none" stroke="grey" stroke-width="2" d="M263.07,-796.88C279.83,-787.64 300.71,-776.13 318.7,-766.21"/>
<polygon fill="grey" stroke="grey" stroke-width="2" points="320.74,-769.08 327.81,-761.19 317.37,-762.95 320.74,-769.08"/>
</g>
<!-- 22&#45;&gt;19 -->
<g id="edge43" class="edge">
<title>22&#45;&gt;19</title>
<path fill="none" stroke="grey" stroke-width="2" d="M430.52,-796.7C418.44,-787.8 403.55,-776.82 390.48,-767.2"/>
<polygon fill="grey" stroke="grey" stroke-width="2" points="392.34,-764.22 382.21,-761.1 388.19,-769.85 392.34,-764.22"/>
</g>
<!-- 22&#45;&gt;20 -->
<g id="edge48" class="edge">
<title>22&#45;&gt;20</title>
<path fill="none" stroke="grey" stroke-width="2" d="M463.15,-796.7C467.4,-788.64 472.56,-778.89 477.27,-769.98"/>
<polygon fill="grey" stroke="grey" stroke-width="2" points="480.38,-771.58 481.96,-761.1 474.19,-768.31 480.38,-771.58"/>
</g>
<!-- 23&#45;&gt;19 -->
<g id="edge44" class="edge">
<title>23&#45;&gt;19</title>
<path fill="none" stroke="grey" stroke-width="2" d="M359,-796.7C359,-788.98 359,-779.71 359,-771.11"/>
<polygon fill="grey" stroke="grey" stroke-width="2" points="362.5,-771.1 359,-761.1 355.5,-771.1 362.5,-771.1"/>
</g>
<!-- 23&#45;&gt;20 -->
<g id="edge49" class="edge">
<title>23&#45;&gt;20</title>
<path fill="none" stroke="grey" stroke-width="2" d="M390.28,-797.41C408.05,-787.99 430.52,-776.07 449.72,-765.89"/>
<polygon fill="grey" stroke="grey" stroke-width="2" points="451.37,-768.98 458.56,-761.2 448.09,-762.79 451.37,-768.98"/>
</g>
<!-- 24 -->
<g id="node25" class="node">
<title>24</title>
<path fill="none" stroke="#d8ac56" stroke-width="2" d="M624,-833C624,-833 568,-833 568,-833 562,-833 556,-827 556,-821 556,-821 556,-809 556,-809 556,-803 562,-797 568,-797 568,-797 624,-797 624,-797 630,-797 636,-803 636,-809 636,-809 636,-821 636,-821 636,-827 630,-833 624,-833"/>
<text text-anchor="middle" x="596" y="-812.5" font-family="sans" font-size="10.00">trimmomatic</text>
</g>
<!-- 24&#45;&gt;20 -->
<g id="edge46" class="edge">
<title>24&#45;&gt;20</title>
<path fill="none" stroke="grey" stroke-width="2" d="M570.31,-796.88C556.71,-787.81 539.83,-776.55 525.14,-766.76"/>
<polygon fill="grey" stroke="grey" stroke-width="2" points="527.05,-763.82 516.78,-761.19 523.16,-769.65 527.05,-763.82"/>
</g>
<!-- 25 -->
<g id="node26" class="node">
<title>25</title>
<path fill="none" stroke="#d6d856" stroke-width="2" d="M252.5,-905C252.5,-905 211.5,-905 211.5,-905 205.5,-905 199.5,-899 199.5,-893 199.5,-893 199.5,-881 199.5,-881 199.5,-875 205.5,-869 211.5,-869 211.5,-869 252.5,-869 252.5,-869 258.5,-869 264.5,-875 264.5,-881 264.5,-881 264.5,-893 264.5,-893 264.5,-899 258.5,-905 252.5,-905"/>
<text text-anchor="middle" x="232" y="-890" font-family="sans" font-size="10.00">cp_reads</text>
<text text-anchor="middle" x="232" y="-879" font-family="sans" font-size="10.00">library: L1</text>
</g>
<!-- 25&#45;&gt;21 -->
<g id="edge50" class="edge">
<title>25&#45;&gt;21</title>
<path fill="none" stroke="grey" stroke-width="2" d="M232,-868.7C232,-860.98 232,-851.71 232,-843.11"/>
<polygon fill="grey" stroke="grey" stroke-width="2" points="235.5,-843.1 232,-833.1 228.5,-843.1 235.5,-843.1"/>
</g>
<!-- 26 -->
<g id="node27" class="node">
<title>26</title>
<path fill="none" stroke="#d6d856" stroke-width="2" d="M616.5,-905C616.5,-905 575.5,-905 575.5,-905 569.5,-905 563.5,-899 563.5,-893 563.5,-893 563.5,-881 563.5,-881 563.5,-875 569.5,-869 575.5,-869 575.5,-869 616.5,-869 616.5,-869 622.5,-869 628.5,-875 628.5,-881 628.5,-881 628.5,-893 628.5,-893 628.5,-899 622.5,-905 616.5,-905"/>
<text text-anchor="middle" x="596" y="-890" font-family="sans" font-size="10.00">cp_reads</text>
<text text-anchor="middle" x="596" y="-879" font-family="sans" font-size="10.00">library: L2</text>
</g>
<!-- 26&#45;&gt;24 -->
<g id="edge53" class="edge">
<title>26&#45;&gt;24</title>
<path fill="none" stroke="grey" stroke-width="2" d="M596,-868.7C596,-860.98 596,-851.71 596,-843.11"/>
<polygon fill="grey" stroke="grey" stroke-width="2" points="599.5,-843.1 596,-833.1 592.5,-843.1 599.5,-843.1"/>
</g>
</g>
</svg>
