<?xml version="1.0" encoding="UTF-8" standalone="no"?>
<!DOCTYPE svg PUBLIC "-//W3C//DTD SVG 1.1//EN"
 "http://www.w3.org/Graphics/SVG/1.1/DTD/svg11.dtd">
<!-- Generated by graphviz version 2.43.0 (0)
 -->
<!-- Title: snakemake_dag Pages: 1 -->
<svg width="460pt" height="836pt"
 viewBox="0.00 0.00 459.74 836.00" xmlns="http://www.w3.org/2000/svg" xmlns:xlink="http://www.w3.org/1999/xlink">
<g id="graph0" class="graph" transform="scale(1 1) rotate(0) translate(4 832)">
<title>snakemake_dag</title>
<polygon fill="white" stroke="transparent" points="-4,4 -4,-832 455.74,-832 455.74,4 -4,4"/>
<!-- 0 -->
<g id="node1" class="node">
<title>0</title>
<path fill="none" stroke="#56d8d0" stroke-width="2" d="M364,-36C364,-36 334,-36 334,-36 328,-36 322,-30 322,-24 322,-24 322,-12 322,-12 322,-6 328,0 334,0 334,0 364,0 364,0 370,0 376,-6 376,-12 376,-12 376,-24 376,-24 376,-30 370,-36 364,-36"/>
<text text-anchor="middle" x="349" y="-15.5" font-family="sans" font-size="10.00">all</text>
</g>
<!-- 1 -->
<g id="node2" class="node">
<title>1</title>
<path fill="none" stroke="#56c1d8" stroke-width="2" d="M247,-108C247,-108 217,-108 217,-108 211,-108 205,-102 205,-96 205,-96 205,-84 205,-84 205,-78 211,-72 217,-72 217,-72 247,-72 247,-72 253,-72 259,-78 259,-84 259,-84 259,-96 259,-96 259,-102 253,-108 247,-108"/>
<text text-anchor="middle" x="232" y="-87.5" font-family="sans" font-size="10.00">multiqc</text>
</g>
<!-- 1&#45;&gt;0 -->
<g id="edge1" class="edge">
<title>1&#45;&gt;0</title>
<path fill="none" stroke="grey" stroke-width="2" d="M259.14,-72.76C275.12,-63.2 295.53,-50.99 312.86,-40.62"/>
<polygon fill="grey" stroke="grey" stroke-width="2" points="314.82,-43.53 321.61,-35.39 311.23,-37.52 314.82,-43.53"/>
</g>
<!-- 2 -->
<g id="node3" class="node">
<title>2</title>
<path fill="none" stroke="#ced856" stroke-width="2" d="M391.5,-324C391.5,-324 304.5,-324 304.5,-324 298.5,-324 292.5,-318 292.5,-312 292.5,-312 292.5,-300 292.5,-300 292.5,-294 298.5,-288 304.5,-288 304.5,-288 391.5,-288 391.5,-288 397.5,-288 403.5,-294 403.5,-300 403.5,-300 403.5,-312 403.5,-312 403.5,-318 397.5,-324 391.5,-324"/>
<text text-anchor="middle" x="348" y="-303.5" font-family="sans" font-size="10.00">samtools_view_md</text>
</g>
<!-- 2&#45;&gt;0 -->
<g id="edge2" class="edge">
<title>2&#45;&gt;0</title>
<path fill="none" stroke="grey" stroke-width="2" d="M403.63,-287.96C420.55,-279.88 437.23,-268.31 447,-252 455.22,-238.27 450.66,-231.58 447,-216 431.49,-150.01 390.39,-80.84 366.63,-44.62"/>
<polygon fill="grey" stroke="grey" stroke-width="2" points="369.45,-42.52 360.99,-36.14 363.62,-46.4 369.45,-42.52"/>
</g>
<!-- 5 -->
<g id="node6" class="node">
<title>5</title>
<path fill="none" stroke="#569ad8" stroke-width="2" d="M425.5,-252C425.5,-252 358.5,-252 358.5,-252 352.5,-252 346.5,-246 346.5,-240 346.5,-240 346.5,-228 346.5,-228 346.5,-222 352.5,-216 358.5,-216 358.5,-216 425.5,-216 425.5,-216 431.5,-216 437.5,-222 437.5,-228 437.5,-228 437.5,-240 437.5,-240 437.5,-246 431.5,-252 425.5,-252"/>
<text text-anchor="middle" x="392" y="-231.5" font-family="sans" font-size="10.00">samtools_stats</text>
</g>
<!-- 2&#45;&gt;5 -->
<g id="edge9" class="edge">
<title>2&#45;&gt;5</title>
<path fill="none" stroke="grey" stroke-width="2" d="M358.88,-287.7C363.99,-279.56 370.2,-269.69 375.84,-260.7"/>
<polygon fill="grey" stroke="grey" stroke-width="2" points="378.89,-262.43 381.25,-252.1 372.96,-258.71 378.89,-262.43"/>
</g>
<!-- 6 -->
<g id="node7" class="node">
<title>6</title>
<path fill="none" stroke="#56d88a" stroke-width="2" d="M252.5,-180C252.5,-180 211.5,-180 211.5,-180 205.5,-180 199.5,-174 199.5,-168 199.5,-168 199.5,-156 199.5,-156 199.5,-150 205.5,-144 211.5,-144 211.5,-144 252.5,-144 252.5,-144 258.5,-144 264.5,-150 264.5,-156 264.5,-156 264.5,-168 264.5,-168 264.5,-174 258.5,-180 252.5,-180"/>
<text text-anchor="middle" x="232" y="-159.5" font-family="sans" font-size="10.00">mosdepth</text>
</g>
<!-- 2&#45;&gt;6 -->
<g id="edge11" class="edge">
<title>2&#45;&gt;6</title>
<path fill="none" stroke="grey" stroke-width="2" d="M340.95,-287.68C332.72,-268.77 317.8,-238.21 299,-216 289.68,-204.99 277.78,-194.7 266.6,-186.17"/>
<polygon fill="grey" stroke="grey" stroke-width="2" points="268.37,-183.13 258.25,-180.01 264.21,-188.76 268.37,-183.13"/>
</g>
<!-- 10 -->
<g id="node11" class="node">
<title>10</title>
<path fill="none" stroke="#88d856" stroke-width="2" d="M277.5,-252C277.5,-252 186.5,-252 186.5,-252 180.5,-252 174.5,-246 174.5,-240 174.5,-240 174.5,-228 174.5,-228 174.5,-222 180.5,-216 186.5,-216 186.5,-216 277.5,-216 277.5,-216 283.5,-216 289.5,-222 289.5,-228 289.5,-228 289.5,-240 289.5,-240 289.5,-246 283.5,-252 277.5,-252"/>
<text text-anchor="middle" x="232" y="-231.5" font-family="sans" font-size="10.00">samtools_index_md</text>
</g>
<!-- 2&#45;&gt;10 -->
<g id="edge18" class="edge">
<title>2&#45;&gt;10</title>
<path fill="none" stroke="grey" stroke-width="2" d="M319.62,-287.88C304.46,-278.72 285.59,-267.34 269.26,-257.48"/>
<polygon fill="grey" stroke="grey" stroke-width="2" points="270.86,-254.36 260.49,-252.19 267.24,-260.35 270.86,-254.36"/>
</g>
<!-- 3 -->
<g id="node4" class="node">
<title>3</title>
<path fill="none" stroke="#d8bc56" stroke-width="2" d="M169.5,-180C169.5,-180 122.5,-180 122.5,-180 116.5,-180 110.5,-174 110.5,-168 110.5,-168 110.5,-156 110.5,-156 110.5,-150 116.5,-144 122.5,-144 122.5,-144 169.5,-144 169.5,-144 175.5,-144 181.5,-150 181.5,-156 181.5,-156 181.5,-168 181.5,-168 181.5,-174 175.5,-180 169.5,-180"/>
<text text-anchor="middle" x="146" y="-165" font-family="sans" font-size="10.00">fastqc</text>
<text text-anchor="middle" x="146" y="-154" font-family="sans" font-size="10.00">library: AL1</text>
</g>
<!-- 3&#45;&gt;1 -->
<g id="edge3" class="edge">
<title>3&#45;&gt;1</title>
<path fill="none" stroke="grey" stroke-width="2" d="M167.26,-143.7C178.09,-134.88 191.42,-124.03 203.16,-114.47"/>
<polygon fill="grey" stroke="grey" stroke-width="2" points="205.44,-117.13 210.99,-108.1 201.02,-111.7 205.44,-117.13"/>
</g>
<!-- 4 -->
<g id="node5" class="node">
<title>4</title>
<path fill="none" stroke="#68d856" stroke-width="2" d="M68,-756C68,-756 12,-756 12,-756 6,-756 0,-750 0,-744 0,-744 0,-732 0,-732 0,-726 6,-720 12,-720 12,-720 68,-720 68,-720 74,-720 80,-726 80,-732 80,-732 80,-744 80,-744 80,-750 74,-756 68,-756"/>
<text text-anchor="middle" x="40" y="-741" font-family="sans" font-size="10.00">trimmomatic</text>
<text text-anchor="middle" x="40" y="-730" font-family="sans" font-size="10.00">library: AL1</text>
</g>
<!-- 4&#45;&gt;1 -->
<g id="edge4" class="edge">
<title>4&#45;&gt;1</title>
<path fill="none" stroke="grey" stroke-width="2" d="M43.04,-719.57C47.42,-692.86 55,-640.12 55,-595 55,-595 55,-595 55,-233 55,-188.47 68.09,-173.99 101,-144 127.48,-119.86 166.39,-106.01 194.93,-98.57"/>
<polygon fill="grey" stroke="grey" stroke-width="2" points="196.05,-101.9 204.93,-96.11 194.38,-95.1 196.05,-101.9"/>
</g>
<!-- 14 -->
<g id="node15" class="node">
<title>14</title>
<path fill="none" stroke="#56d86b" stroke-width="2" d="M231,-684C231,-684 187,-684 187,-684 181,-684 175,-678 175,-672 175,-672 175,-660 175,-660 175,-654 181,-648 187,-648 187,-648 231,-648 231,-648 237,-648 243,-654 243,-660 243,-660 243,-672 243,-672 243,-678 237,-684 231,-684"/>
<text text-anchor="middle" x="209" y="-663.5" font-family="sans" font-size="10.00">bwa_mem</text>
</g>
<!-- 4&#45;&gt;14 -->
<g id="edge24" class="edge">
<title>4&#45;&gt;14</title>
<path fill="none" stroke="grey" stroke-width="2" d="M80.05,-720.41C105.78,-709.75 139.2,-695.91 165.57,-684.99"/>
<polygon fill="grey" stroke="grey" stroke-width="2" points="167.04,-688.17 174.94,-681.11 164.36,-681.7 167.04,-688.17"/>
</g>
<!-- 5&#45;&gt;1 -->
<g id="edge5" class="edge">
<title>5&#45;&gt;1</title>
<path fill="none" stroke="grey" stroke-width="2" d="M372.7,-215.87C344.35,-190.71 291.33,-143.65 259.09,-115.04"/>
<polygon fill="grey" stroke="grey" stroke-width="2" points="261.17,-112.21 251.37,-108.19 256.52,-117.44 261.17,-112.21"/>
</g>
<!-- 6&#45;&gt;1 -->
<g id="edge6" class="edge">
<title>6&#45;&gt;1</title>
<path fill="none" stroke="grey" stroke-width="2" d="M232,-143.7C232,-135.98 232,-126.71 232,-118.11"/>
<polygon fill="grey" stroke="grey" stroke-width="2" points="235.5,-118.1 232,-108.1 228.5,-118.1 235.5,-118.1"/>
</g>
<!-- 7 -->
<g id="node8" class="node">
<title>7</title>
<path fill="none" stroke="#56d8a9" stroke-width="2" d="M337.5,-396C337.5,-396 242.5,-396 242.5,-396 236.5,-396 230.5,-390 230.5,-384 230.5,-384 230.5,-372 230.5,-372 230.5,-366 236.5,-360 242.5,-360 242.5,-360 337.5,-360 337.5,-360 343.5,-360 349.5,-366 349.5,-372 349.5,-372 349.5,-384 349.5,-384 349.5,-390 343.5,-396 337.5,-396"/>
<text text-anchor="middle" x="290" y="-375.5" font-family="sans" font-size="10.00">gatk_markduplicates</text>
</g>
<!-- 7&#45;&gt;2 -->
<g id="edge7" class="edge">
<title>7&#45;&gt;2</title>
<path fill="none" stroke="grey" stroke-width="2" d="M304.34,-359.7C311.29,-351.3 319.77,-341.07 327.4,-331.86"/>
<polygon fill="grey" stroke="grey" stroke-width="2" points="330.14,-334.04 333.83,-324.1 324.75,-329.57 330.14,-334.04"/>
</g>
<!-- 8 -->
<g id="node9" class="node">
<title>8</title>
<path fill="none" stroke="#567bd8" stroke-width="2" d="M281,-828C281,-828 225,-828 225,-828 219,-828 213,-822 213,-816 213,-816 213,-804 213,-804 213,-798 219,-792 225,-792 225,-792 281,-792 281,-792 287,-792 293,-798 293,-804 293,-804 293,-816 293,-816 293,-822 287,-828 281,-828"/>
<text text-anchor="middle" x="253" y="-807.5" font-family="sans" font-size="10.00">cp_reference</text>
</g>
<!-- 8&#45;&gt;2 -->
<g id="edge8" class="edge">
<title>8&#45;&gt;2</title>
<path fill="none" stroke="grey" stroke-width="2" d="M283.9,-791.82C320.91,-768.69 378,-723.82 378,-667 378,-667 378,-667 378,-449 378,-408.16 365.97,-362.11 357.15,-333.82"/>
<polygon fill="grey" stroke="grey" stroke-width="2" points="360.46,-332.69 354.07,-324.24 353.8,-334.83 360.46,-332.69"/>
</g>
<!-- 8&#45;&gt;6 -->
<g id="edge10" class="edge">
<title>8&#45;&gt;6</title>
<path fill="none" stroke="grey" stroke-width="2" d="M212.78,-802.2C184.65,-795.33 148.41,-781.87 127,-756 101.21,-724.84 108,-707.45 108,-667 108,-667 108,-667 108,-305 108,-261.99 117.93,-248.59 146,-216 158.06,-202 174.75,-190.55 190.22,-181.92"/>
<polygon fill="grey" stroke="grey" stroke-width="2" points="191.97,-184.96 199.15,-177.17 188.68,-178.78 191.97,-184.96"/>
</g>
<!-- 8&#45;&gt;7 -->
<g id="edge15" class="edge">
<title>8&#45;&gt;7</title>
<path fill="none" stroke="grey" stroke-width="2" d="M270.58,-791.98C294.4,-766.99 334,-717.8 334,-667 334,-667 334,-667 334,-521 334,-479.21 316.4,-433.48 303.46,-405.51"/>
<polygon fill="grey" stroke="grey" stroke-width="2" points="306.58,-403.92 299.12,-396.39 300.26,-406.93 306.58,-403.92"/>
</g>
<!-- 9 -->
<g id="node10" class="node">
<title>9</title>
<path fill="none" stroke="#d85656" stroke-width="2" d="M193.5,-756C193.5,-756 148.5,-756 148.5,-756 142.5,-756 136.5,-750 136.5,-744 136.5,-744 136.5,-732 136.5,-732 136.5,-726 142.5,-720 148.5,-720 148.5,-720 193.5,-720 193.5,-720 199.5,-720 205.5,-726 205.5,-732 205.5,-732 205.5,-744 205.5,-744 205.5,-750 199.5,-756 193.5,-756"/>
<text text-anchor="middle" x="171" y="-735.5" font-family="sans" font-size="10.00">bwa_index</text>
</g>
<!-- 8&#45;&gt;9 -->
<g id="edge17" class="edge">
<title>8&#45;&gt;9</title>
<path fill="none" stroke="grey" stroke-width="2" d="M232.73,-791.7C222.5,-782.97 209.94,-772.24 198.82,-762.75"/>
<polygon fill="grey" stroke="grey" stroke-width="2" points="200.91,-759.94 191.04,-756.1 196.37,-765.26 200.91,-759.94"/>
</g>
<!-- 13 -->
<g id="node14" class="node">
<title>13</title>
<path fill="none" stroke="#d89c56" stroke-width="2" d="M274,-612C274,-612 208,-612 208,-612 202,-612 196,-606 196,-600 196,-600 196,-588 196,-588 196,-582 202,-576 208,-576 208,-576 274,-576 274,-576 280,-576 286,-582 286,-588 286,-588 286,-600 286,-600 286,-606 280,-612 274,-612"/>
<text text-anchor="middle" x="241" y="-591.5" font-family="sans" font-size="10.00">samtools_view</text>
</g>
<!-- 8&#45;&gt;13 -->
<g id="edge22" class="edge">
<title>8&#45;&gt;13</title>
<path fill="none" stroke="grey" stroke-width="2" d="M254.02,-791.54C255.5,-761.93 257.5,-699.98 252,-648 251.1,-639.46 249.44,-630.26 247.67,-621.96"/>
<polygon fill="grey" stroke="grey" stroke-width="2" points="251.05,-621.03 245.44,-612.05 244.22,-622.57 251.05,-621.03"/>
</g>
<!-- 8&#45;&gt;14 -->
<g id="edge23" class="edge">
<title>8&#45;&gt;14</title>
<path fill="none" stroke="grey" stroke-width="2" d="M247.69,-791.87C240.16,-767.56 226.3,-722.82 217.37,-694.01"/>
<polygon fill="grey" stroke="grey" stroke-width="2" points="220.63,-692.71 214.33,-684.19 213.94,-694.78 220.63,-692.71"/>
</g>
<!-- 9&#45;&gt;6 -->
<g id="edge12" class="edge">
<title>9&#45;&gt;6</title>
<path fill="none" stroke="grey" stroke-width="2" d="M165.94,-719.68C158.64,-693.11 146,-640.56 146,-595 146,-595 146,-595 146,-305 146,-264.46 144.55,-250.4 166,-216 173.25,-204.37 183.97,-194.19 194.68,-185.93"/>
<polygon fill="grey" stroke="grey" stroke-width="2" points="196.79,-188.73 202.8,-180 192.66,-183.07 196.79,-188.73"/>
</g>
<!-- 9&#45;&gt;14 -->
<g id="edge25" class="edge">
<title>9&#45;&gt;14</title>
<path fill="none" stroke="grey" stroke-width="2" d="M180.39,-719.7C184.76,-711.64 190.06,-701.89 194.9,-692.98"/>
<polygon fill="grey" stroke="grey" stroke-width="2" points="198.02,-694.56 199.71,-684.1 191.87,-691.22 198.02,-694.56"/>
</g>
<!-- 10&#45;&gt;6 -->
<g id="edge13" class="edge">
<title>10&#45;&gt;6</title>
<path fill="none" stroke="grey" stroke-width="2" d="M232,-215.7C232,-207.98 232,-198.71 232,-190.11"/>
<polygon fill="grey" stroke="grey" stroke-width="2" points="235.5,-190.1 232,-180.1 228.5,-190.1 235.5,-190.1"/>
</g>
<!-- 11 -->
<g id="node12" class="node">
<title>11</title>
<path fill="none" stroke="#d87556" stroke-width="2" d="M272,-540C272,-540 210,-540 210,-540 204,-540 198,-534 198,-528 198,-528 198,-516 198,-516 198,-510 204,-504 210,-504 210,-504 272,-504 272,-504 278,-504 284,-510 284,-516 284,-516 284,-528 284,-528 284,-534 278,-540 272,-540"/>
<text text-anchor="middle" x="241" y="-519.5" font-family="sans" font-size="10.00">samtools_sort</text>
</g>
<!-- 11&#45;&gt;7 -->
<g id="edge14" class="edge">
<title>11&#45;&gt;7</title>
<path fill="none" stroke="grey" stroke-width="2" d="M255.49,-503.98C263.12,-494.11 271.92,-481.06 277,-468 284.67,-448.26 287.87,-424.46 289.17,-406.44"/>
<polygon fill="grey" stroke="grey" stroke-width="2" points="292.67,-406.49 289.75,-396.31 285.68,-406.09 292.67,-406.49"/>
</g>
<!-- 12 -->
<g id="node13" class="node">
<title>12</title>
<path fill="none" stroke="#afd856" stroke-width="2" d="M256,-468C256,-468 186,-468 186,-468 180,-468 174,-462 174,-456 174,-456 174,-444 174,-444 174,-438 180,-432 186,-432 186,-432 256,-432 256,-432 262,-432 268,-438 268,-444 268,-444 268,-456 268,-456 268,-462 262,-468 256,-468"/>
<text text-anchor="middle" x="221" y="-447.5" font-family="sans" font-size="10.00">samtools_index</text>
</g>
<!-- 11&#45;&gt;12 -->
<g id="edge20" class="edge">
<title>11&#45;&gt;12</title>
<path fill="none" stroke="grey" stroke-width="2" d="M236.06,-503.7C233.83,-495.9 231.15,-486.51 228.67,-477.83"/>
<polygon fill="grey" stroke="grey" stroke-width="2" points="232,-476.76 225.89,-468.1 225.27,-478.68 232,-476.76"/>
</g>
<!-- 12&#45;&gt;7 -->
<g id="edge16" class="edge">
<title>12&#45;&gt;7</title>
<path fill="none" stroke="grey" stroke-width="2" d="M238.06,-431.7C246.5,-423.14 256.82,-412.66 266.04,-403.3"/>
<polygon fill="grey" stroke="grey" stroke-width="2" points="268.61,-405.68 273.14,-396.1 263.63,-400.77 268.61,-405.68"/>
</g>
<!-- 13&#45;&gt;11 -->
<g id="edge19" class="edge">
<title>13&#45;&gt;11</title>
<path fill="none" stroke="grey" stroke-width="2" d="M241,-575.7C241,-567.98 241,-558.71 241,-550.11"/>
<polygon fill="grey" stroke="grey" stroke-width="2" points="244.5,-550.1 241,-540.1 237.5,-550.1 244.5,-550.1"/>
</g>
<!-- 14&#45;&gt;13 -->
<g id="edge21" class="edge">
<title>14&#45;&gt;13</title>
<path fill="none" stroke="grey" stroke-width="2" d="M216.91,-647.7C220.55,-639.73 224.95,-630.1 228.99,-621.26"/>
<polygon fill="grey" stroke="grey" stroke-width="2" points="232.21,-622.65 233.18,-612.1 225.84,-619.74 232.21,-622.65"/>
</g>
</g>
</svg>
