<?xml version="1.0" encoding="UTF-8" standalone="no"?>
<!DOCTYPE svg PUBLIC "-//W3C//DTD SVG 1.1//EN"
 "http://www.w3.org/Graphics/SVG/1.1/DTD/svg11.dtd">
<!-- Generated by graphviz version 2.43.0 (0)
 -->
<!-- Title: snakemake_dag Pages: 1 -->
<svg width="1082pt" height="841pt"
 viewBox="0.00 0.00 1082.23 841.00" xmlns="http://www.w3.org/2000/svg" xmlns:xlink="http://www.w3.org/1999/xlink">
<g id="graph0" class="graph" transform="scale(1 1) rotate(0) translate(4 837)">
<title>snakemake_dag</title>
<polygon fill="white" stroke="transparent" points="-4,4 -4,-837 1078.23,-837 1078.23,4 -4,4"/>
<!-- 0 -->
<g id="node1" class="node">
<title>0</title>
<path fill="none" stroke="#88d856" stroke-width="2" d="M688,-36C688,-36 658,-36 658,-36 652,-36 646,-30 646,-24 646,-24 646,-12 646,-12 646,-6 652,0 658,0 658,0 688,0 688,0 694,0 700,-6 700,-12 700,-12 700,-24 700,-24 700,-30 694,-36 688,-36"/>
<text text-anchor="middle" x="673" y="-15.5" font-family="sans" font-size="10.00">all</text>
</g>
<!-- 1 -->
<g id="node2" class="node">
<title>1</title>
<path fill="none" stroke="#56d0d8" stroke-width="2" d="M876.5,-185C876.5,-185 809.5,-185 809.5,-185 803.5,-185 797.5,-179 797.5,-173 797.5,-173 797.5,-156 797.5,-156 797.5,-150 803.5,-144 809.5,-144 809.5,-144 876.5,-144 876.5,-144 882.5,-144 888.5,-150 888.5,-156 888.5,-156 888.5,-173 888.5,-173 888.5,-179 882.5,-185 876.5,-185"/>
<text text-anchor="middle" x="843" y="-173" font-family="sans" font-size="10.00">strelka2</text>
<text text-anchor="middle" x="843" y="-162" font-family="sans" font-size="10.00">base: revertant</text>
<text text-anchor="middle" x="843" y="-151" font-family="sans" font-size="10.00">tumor: mutant</text>
</g>
<!-- 1&#45;&gt;0 -->
<g id="edge1" class="edge">
<title>1&#45;&gt;0</title>
<path fill="none" stroke="grey" stroke-width="2" d="M819.72,-143.71C788.79,-117.42 734.19,-71.01 701.03,-42.83"/>
<polygon fill="grey" stroke="grey" stroke-width="2" points="702.98,-39.89 693.09,-36.08 698.44,-45.22 702.98,-39.89"/>
</g>
<!-- 2 -->
<g id="node3" class="node">
<title>2</title>
<path fill="none" stroke="#56d0d8" stroke-width="2" d="M709.5,-185C709.5,-185 636.5,-185 636.5,-185 630.5,-185 624.5,-179 624.5,-173 624.5,-173 624.5,-156 624.5,-156 624.5,-150 630.5,-144 636.5,-144 636.5,-144 709.5,-144 709.5,-144 715.5,-144 721.5,-150 721.5,-156 721.5,-156 721.5,-173 721.5,-173 721.5,-179 715.5,-185 709.5,-185"/>
<text text-anchor="middle" x="673" y="-173" font-family="sans" font-size="10.00">strelka2</text>
<text text-anchor="middle" x="673" y="-162" font-family="sans" font-size="10.00">base: mutant</text>
<text text-anchor="middle" x="673" y="-151" font-family="sans" font-size="10.00">tumor: revertant</text>
</g>
<!-- 2&#45;&gt;0 -->
<g id="edge2" class="edge">
<title>2&#45;&gt;0</title>
<path fill="none" stroke="grey" stroke-width="2" d="M673,-143.71C673,-118.49 673,-74.76 673,-46.36"/>
<polygon fill="grey" stroke="grey" stroke-width="2" points="676.5,-46.3 673,-36.3 669.5,-46.3 676.5,-46.3"/>
</g>
<!-- 3 -->
<g id="node4" class="node">
<title>3</title>
<path fill="none" stroke="#d8b456" stroke-width="2" d="M370,-108C370,-108 340,-108 340,-108 334,-108 328,-102 328,-96 328,-96 328,-84 328,-84 328,-78 334,-72 340,-72 340,-72 370,-72 370,-72 376,-72 382,-78 382,-84 382,-84 382,-96 382,-96 382,-102 376,-108 370,-108"/>
<text text-anchor="middle" x="355" y="-87.5" font-family="sans" font-size="10.00">multiqc</text>
</g>
<!-- 3&#45;&gt;0 -->
<g id="edge3" class="edge">
<title>3&#45;&gt;0</title>
<path fill="none" stroke="grey" stroke-width="2" d="M382.11,-83.03C439.14,-70.48 571.56,-41.33 636.19,-27.1"/>
<polygon fill="grey" stroke="grey" stroke-width="2" points="636.94,-30.52 645.96,-24.95 635.44,-23.68 636.94,-30.52"/>
</g>
<!-- 4 -->
<g id="node5" class="node">
<title>4</title>
<path fill="none" stroke="#56d8c1" stroke-width="2" d="M578,-833C578,-833 522,-833 522,-833 516,-833 510,-827 510,-821 510,-821 510,-809 510,-809 510,-803 516,-797 522,-797 522,-797 578,-797 578,-797 584,-797 590,-803 590,-809 590,-809 590,-821 590,-821 590,-827 584,-833 578,-833"/>
<text text-anchor="middle" x="550" y="-812.5" font-family="sans" font-size="10.00">cp_reference</text>
</g>
<!-- 4&#45;&gt;1 -->
<g id="edge4" class="edge">
<title>4&#45;&gt;1</title>
<path fill="none" stroke="grey" stroke-width="2" d="M590.09,-811.74C712.33,-803.75 1072,-771.79 1072,-672 1072,-672 1072,-672 1072,-310 1072,-269.55 1080.9,-250.28 1053,-221 1031.94,-198.9 953.5,-182.55 898.7,-173.52"/>
<polygon fill="grey" stroke="grey" stroke-width="2" points="899.19,-170.06 888.76,-171.92 898.08,-176.97 899.19,-170.06"/>
</g>
<!-- 4&#45;&gt;2 -->
<g id="edge9" class="edge">
<title>4&#45;&gt;2</title>
<path fill="none" stroke="grey" stroke-width="2" d="M509.75,-808.77C476.62,-802.56 430.34,-789.21 400,-761 374.42,-737.22 347.7,-650.25 337,-617 324.61,-578.5 318,-568.45 318,-528 318,-528 318,-528 318,-310 318,-263.03 335.58,-246.55 375,-221 462.86,-164.06 507.49,-207.57 614.58,-184.76"/>
<polygon fill="grey" stroke="grey" stroke-width="2" points="615.48,-188.15 624.45,-182.51 613.92,-181.32 615.48,-188.15"/>
</g>
<!-- 5 -->
<g id="node6" class="node">
<title>5</title>
<path fill="none" stroke="#bed856" stroke-width="2" d="M843.5,-329C843.5,-329 756.5,-329 756.5,-329 750.5,-329 744.5,-323 744.5,-317 744.5,-317 744.5,-305 744.5,-305 744.5,-299 750.5,-293 756.5,-293 756.5,-293 843.5,-293 843.5,-293 849.5,-293 855.5,-299 855.5,-305 855.5,-305 855.5,-317 855.5,-317 855.5,-323 849.5,-329 843.5,-329"/>
<text text-anchor="middle" x="800" y="-308.5" font-family="sans" font-size="10.00">samtools_view_md</text>
</g>
<!-- 4&#45;&gt;5 -->
<g id="edge23" class="edge">
<title>4&#45;&gt;5</title>
<path fill="none" stroke="grey" stroke-width="2" d="M590.06,-813.18C672.6,-809.15 854,-787.19 854,-672 854,-672 854,-672 854,-454 854,-411.11 832.21,-365.41 816.31,-337.78"/>
<polygon fill="grey" stroke="grey" stroke-width="2" points="819.3,-335.95 811.19,-329.13 813.28,-339.52 819.3,-335.95"/>
</g>
<!-- 6 -->
<g id="node7" class="node">
<title>6</title>
<path fill="none" stroke="#bed856" stroke-width="2" d="M547.5,-329C547.5,-329 460.5,-329 460.5,-329 454.5,-329 448.5,-323 448.5,-317 448.5,-317 448.5,-305 448.5,-305 448.5,-299 454.5,-293 460.5,-293 460.5,-293 547.5,-293 547.5,-293 553.5,-293 559.5,-299 559.5,-305 559.5,-305 559.5,-317 559.5,-317 559.5,-323 553.5,-329 547.5,-329"/>
<text text-anchor="middle" x="504" y="-308.5" font-family="sans" font-size="10.00">samtools_view_md</text>
</g>
<!-- 4&#45;&gt;6 -->
<g id="edge25" class="edge">
<title>4&#45;&gt;6</title>
<path fill="none" stroke="grey" stroke-width="2" d="M581.26,-796.9C595.55,-787.79 611.77,-775.48 623,-761 674.44,-694.7 710.42,-659.21 680,-581 672.13,-560.77 659.23,-562.93 647,-545 596.84,-471.42 611.41,-436.99 559,-365 551.44,-354.61 541.72,-344.5 532.57,-335.94"/>
<polygon fill="grey" stroke="grey" stroke-width="2" points="534.83,-333.26 525.07,-329.14 530.13,-338.45 534.83,-333.26"/>
</g>
<!-- 15 -->
<g id="node16" class="node">
<title>15</title>
<path fill="none" stroke="#56d882" stroke-width="2" d="M594.5,-182.5C594.5,-182.5 511.5,-182.5 511.5,-182.5 505.5,-182.5 499.5,-176.5 499.5,-170.5 499.5,-170.5 499.5,-158.5 499.5,-158.5 499.5,-152.5 505.5,-146.5 511.5,-146.5 511.5,-146.5 594.5,-146.5 594.5,-146.5 600.5,-146.5 606.5,-152.5 606.5,-158.5 606.5,-158.5 606.5,-170.5 606.5,-170.5 606.5,-176.5 600.5,-182.5 594.5,-182.5"/>
<text text-anchor="middle" x="553" y="-162" font-family="sans" font-size="10.00">mosdepth_regions</text>
</g>
<!-- 4&#45;&gt;15 -->
<g id="edge30" class="edge">
<title>4&#45;&gt;15</title>
<path fill="none" stroke="grey" stroke-width="2" d="M509.97,-811.68C432.97,-806.56 267.74,-792.19 221,-761 182.32,-735.19 166,-718.5 166,-672 166,-672 166,-672 166,-310 166,-155.65 339.72,-220.2 490,-185 490.1,-184.98 490.2,-184.95 490.3,-184.93"/>
<polygon fill="grey" stroke="grey" stroke-width="2" points="491.03,-188.36 499.87,-182.52 489.32,-181.57 491.03,-188.36"/>
</g>
<!-- 16 -->
<g id="node17" class="node">
<title>16</title>
<path fill="none" stroke="#56d882" stroke-width="2" d="M169.5,-182.5C169.5,-182.5 86.5,-182.5 86.5,-182.5 80.5,-182.5 74.5,-176.5 74.5,-170.5 74.5,-170.5 74.5,-158.5 74.5,-158.5 74.5,-152.5 80.5,-146.5 86.5,-146.5 86.5,-146.5 169.5,-146.5 169.5,-146.5 175.5,-146.5 181.5,-152.5 181.5,-158.5 181.5,-158.5 181.5,-170.5 181.5,-170.5 181.5,-176.5 175.5,-182.5 169.5,-182.5"/>
<text text-anchor="middle" x="128" y="-162" font-family="sans" font-size="10.00">mosdepth_regions</text>
</g>
<!-- 4&#45;&gt;16 -->
<g id="edge34" class="edge">
<title>4&#45;&gt;16</title>
<path fill="none" stroke="grey" stroke-width="2" d="M509.76,-812.75C424.77,-809.41 230.35,-797.84 177,-761 139.84,-735.34 128,-717.15 128,-672 128,-672 128,-672 128,-310 128,-269.29 128,-222.13 128,-193.06"/>
<polygon fill="grey" stroke="grey" stroke-width="2" points="131.5,-192.85 128,-182.85 124.5,-192.85 131.5,-192.85"/>
</g>
<!-- 17 -->
<g id="node18" class="node">
<title>17</title>
<path fill="none" stroke="#5692d8" stroke-width="2" d="M800.5,-401C800.5,-401 705.5,-401 705.5,-401 699.5,-401 693.5,-395 693.5,-389 693.5,-389 693.5,-377 693.5,-377 693.5,-371 699.5,-365 705.5,-365 705.5,-365 800.5,-365 800.5,-365 806.5,-365 812.5,-371 812.5,-377 812.5,-377 812.5,-389 812.5,-389 812.5,-395 806.5,-401 800.5,-401"/>
<text text-anchor="middle" x="753" y="-380.5" font-family="sans" font-size="10.00">gatk_markduplicates</text>
</g>
<!-- 4&#45;&gt;17 -->
<g id="edge39" class="edge">
<title>4&#45;&gt;17</title>
<path fill="none" stroke="grey" stroke-width="2" d="M590.11,-810.82C664.42,-802.51 816,-773.16 816,-672 816,-672 816,-672 816,-526 816,-485.55 814.65,-473.39 797,-437 792.1,-426.89 784.86,-417.06 777.67,-408.67"/>
<polygon fill="grey" stroke="grey" stroke-width="2" points="780.16,-406.2 770.87,-401.1 774.95,-410.88 780.16,-406.2"/>
</g>
<!-- 18 -->
<g id="node19" class="node">
<title>18</title>
<path fill="none" stroke="#5692d8" stroke-width="2" d="M538.5,-401C538.5,-401 443.5,-401 443.5,-401 437.5,-401 431.5,-395 431.5,-389 431.5,-389 431.5,-377 431.5,-377 431.5,-371 437.5,-365 443.5,-365 443.5,-365 538.5,-365 538.5,-365 544.5,-365 550.5,-371 550.5,-377 550.5,-377 550.5,-389 550.5,-389 550.5,-395 544.5,-401 538.5,-401"/>
<text text-anchor="middle" x="491" y="-380.5" font-family="sans" font-size="10.00">gatk_markduplicates</text>
</g>
<!-- 4&#45;&gt;18 -->
<g id="edge42" class="edge">
<title>4&#45;&gt;18</title>
<path fill="none" stroke="grey" stroke-width="2" d="M553.48,-796.7C558.11,-772.67 566.07,-727.74 569,-689 573.26,-632.62 557.11,-488.6 534,-437 529.45,-426.84 522.44,-417 515.4,-408.61"/>
<polygon fill="grey" stroke="grey" stroke-width="2" points="517.96,-406.22 508.72,-401.05 512.72,-410.86 517.96,-406.22"/>
</g>
<!-- 19 -->
<g id="node20" class="node">
<title>19</title>
<path fill="none" stroke="#5673d8" stroke-width="2" d="M287.5,-761C287.5,-761 242.5,-761 242.5,-761 236.5,-761 230.5,-755 230.5,-749 230.5,-749 230.5,-737 230.5,-737 230.5,-731 236.5,-725 242.5,-725 242.5,-725 287.5,-725 287.5,-725 293.5,-725 299.5,-731 299.5,-737 299.5,-737 299.5,-749 299.5,-749 299.5,-755 293.5,-761 287.5,-761"/>
<text text-anchor="middle" x="265" y="-740.5" font-family="sans" font-size="10.00">bwa_index</text>
</g>
<!-- 4&#45;&gt;19 -->
<g id="edge44" class="edge">
<title>4&#45;&gt;19</title>
<path fill="none" stroke="grey" stroke-width="2" d="M509.99,-806.45C462.76,-797.21 382.05,-780.38 314,-761 312.54,-760.58 311.06,-760.15 309.56,-759.7"/>
<polygon fill="grey" stroke="grey" stroke-width="2" points="310.23,-756.24 299.64,-756.56 308.12,-762.91 310.23,-756.24"/>
</g>
<!-- 24 -->
<g id="node25" class="node">
<title>24</title>
<path fill="none" stroke="#9fd856" stroke-width="2" d="M659,-617C659,-617 593,-617 593,-617 587,-617 581,-611 581,-605 581,-605 581,-593 581,-593 581,-587 587,-581 593,-581 593,-581 659,-581 659,-581 665,-581 671,-587 671,-593 671,-593 671,-605 671,-605 671,-611 665,-617 659,-617"/>
<text text-anchor="middle" x="626" y="-596.5" font-family="sans" font-size="10.00">samtools_view</text>
</g>
<!-- 4&#45;&gt;24 -->
<g id="edge50" class="edge">
<title>4&#45;&gt;24</title>
<path fill="none" stroke="grey" stroke-width="2" d="M572.33,-796.98C583.05,-787.57 595.05,-774.96 602,-761 623.5,-717.81 627,-660.64 626.94,-627.33"/>
<polygon fill="grey" stroke="grey" stroke-width="2" points="630.44,-626.95 626.81,-617 623.44,-627.05 630.44,-626.95"/>
</g>
<!-- 25 -->
<g id="node26" class="node">
<title>25</title>
<path fill="none" stroke="#9fd856" stroke-width="2" d="M424,-617C424,-617 358,-617 358,-617 352,-617 346,-611 346,-605 346,-605 346,-593 346,-593 346,-587 352,-581 358,-581 358,-581 424,-581 424,-581 430,-581 436,-587 436,-593 436,-593 436,-605 436,-605 436,-611 430,-617 424,-617"/>
<text text-anchor="middle" x="391" y="-596.5" font-family="sans" font-size="10.00">samtools_view</text>
</g>
<!-- 4&#45;&gt;25 -->
<g id="edge52" class="edge">
<title>4&#45;&gt;25</title>
<path fill="none" stroke="grey" stroke-width="2" d="M509.96,-807.52C481.47,-800.79 444.56,-787.35 423,-761 391.73,-722.79 388.13,-662.56 389.07,-627.61"/>
<polygon fill="grey" stroke="grey" stroke-width="2" points="392.58,-627.35 389.5,-617.22 385.59,-627.06 392.58,-627.35"/>
</g>
<!-- 26 -->
<g id="node27" class="node">
<title>26</title>
<path fill="none" stroke="#d8d356" stroke-width="2" d="M548,-689C548,-689 504,-689 504,-689 498,-689 492,-683 492,-677 492,-677 492,-665 492,-665 492,-659 498,-653 504,-653 504,-653 548,-653 548,-653 554,-653 560,-659 560,-665 560,-665 560,-677 560,-677 560,-683 554,-689 548,-689"/>
<text text-anchor="middle" x="526" y="-668.5" font-family="sans" font-size="10.00">bwa_mem</text>
</g>
<!-- 4&#45;&gt;26 -->
<g id="edge53" class="edge">
<title>4&#45;&gt;26</title>
<path fill="none" stroke="grey" stroke-width="2" d="M547.11,-796.87C543.01,-772.67 535.5,-728.21 530.63,-699.39"/>
<polygon fill="grey" stroke="grey" stroke-width="2" points="534.02,-698.47 528.91,-689.19 527.12,-699.63 534.02,-698.47"/>
</g>
<!-- 27 -->
<g id="node28" class="node">
<title>27</title>
<path fill="none" stroke="#d8d356" stroke-width="2" d="M326,-689C326,-689 282,-689 282,-689 276,-689 270,-683 270,-677 270,-677 270,-665 270,-665 270,-659 276,-653 282,-653 282,-653 326,-653 326,-653 332,-653 338,-659 338,-665 338,-665 338,-677 338,-677 338,-683 332,-689 326,-689"/>
<text text-anchor="middle" x="304" y="-668.5" font-family="sans" font-size="10.00">bwa_mem</text>
</g>
<!-- 4&#45;&gt;27 -->
<g id="edge56" class="edge">
<title>4&#45;&gt;27</title>
<path fill="none" stroke="grey" stroke-width="2" d="M509.8,-812.44C466.58,-808.83 397.92,-797.3 352,-761 331.97,-745.17 319.21,-718.6 311.92,-698.61"/>
<polygon fill="grey" stroke="grey" stroke-width="2" points="315.22,-697.45 308.68,-689.12 308.6,-699.71 315.22,-697.45"/>
</g>
<!-- 5&#45;&gt;1 -->
<g id="edge5" class="edge">
<title>5&#45;&gt;1</title>
<path fill="none" stroke="grey" stroke-width="2" d="M855.65,-293.33C872.92,-285.25 890.02,-273.58 900,-257 908.25,-243.29 906.22,-235.74 900,-221 895.39,-210.08 887.46,-200.24 878.96,-191.98"/>
<polygon fill="grey" stroke="grey" stroke-width="2" points="881.17,-189.27 871.41,-185.15 876.47,-194.46 881.17,-189.27"/>
</g>
<!-- 5&#45;&gt;2 -->
<g id="edge11" class="edge">
<title>5&#45;&gt;2</title>
<path fill="none" stroke="grey" stroke-width="2" d="M774.51,-292.85C761.26,-283.22 745.31,-270.46 733,-257 715.48,-237.85 699.57,-213.07 688.54,-194.13"/>
<polygon fill="grey" stroke="grey" stroke-width="2" points="691.53,-192.31 683.53,-185.36 685.45,-195.78 691.53,-192.31"/>
</g>
<!-- 7 -->
<g id="node8" class="node">
<title>7</title>
<path fill="none" stroke="#68d856" stroke-width="2" d="M845.5,-257C845.5,-257 754.5,-257 754.5,-257 748.5,-257 742.5,-251 742.5,-245 742.5,-245 742.5,-233 742.5,-233 742.5,-227 748.5,-221 754.5,-221 754.5,-221 845.5,-221 845.5,-221 851.5,-221 857.5,-227 857.5,-233 857.5,-233 857.5,-245 857.5,-245 857.5,-251 851.5,-257 845.5,-257"/>
<text text-anchor="middle" x="800" y="-236.5" font-family="sans" font-size="10.00">samtools_index_md</text>
</g>
<!-- 5&#45;&gt;7 -->
<g id="edge26" class="edge">
<title>5&#45;&gt;7</title>
<path fill="none" stroke="grey" stroke-width="2" d="M800,-292.7C800,-284.98 800,-275.71 800,-267.11"/>
<polygon fill="grey" stroke="grey" stroke-width="2" points="803.5,-267.1 800,-257.1 796.5,-267.1 803.5,-267.1"/>
</g>
<!-- 13 -->
<g id="node14" class="node">
<title>13</title>
<path fill="none" stroke="#d87556" stroke-width="2" d="M1031.5,-257C1031.5,-257 964.5,-257 964.5,-257 958.5,-257 952.5,-251 952.5,-245 952.5,-245 952.5,-233 952.5,-233 952.5,-227 958.5,-221 964.5,-221 964.5,-221 1031.5,-221 1031.5,-221 1037.5,-221 1043.5,-227 1043.5,-233 1043.5,-233 1043.5,-245 1043.5,-245 1043.5,-251 1037.5,-257 1031.5,-257"/>
<text text-anchor="middle" x="998" y="-236.5" font-family="sans" font-size="10.00">samtools_stats</text>
</g>
<!-- 5&#45;&gt;13 -->
<g id="edge28" class="edge">
<title>5&#45;&gt;13</title>
<path fill="none" stroke="grey" stroke-width="2" d="M848.18,-292.97C876.67,-282.89 912.86,-270.1 942.53,-259.61"/>
<polygon fill="grey" stroke="grey" stroke-width="2" points="944.07,-262.78 952.33,-256.15 941.73,-256.18 944.07,-262.78"/>
</g>
<!-- 5&#45;&gt;15 -->
<g id="edge31" class="edge">
<title>5&#45;&gt;15</title>
<path fill="none" stroke="grey" stroke-width="2" d="M744.44,-305.18C681.54,-298.49 584.71,-284.04 561,-257 545.85,-239.72 545.22,-212.9 547.57,-192.76"/>
<polygon fill="grey" stroke="grey" stroke-width="2" points="551.06,-193.04 549.05,-182.64 544.14,-192.03 551.06,-193.04"/>
</g>
<!-- 6&#45;&gt;1 -->
<g id="edge6" class="edge">
<title>6&#45;&gt;1</title>
<path fill="none" stroke="grey" stroke-width="2" d="M559.84,-305.8C656.42,-297.96 846.27,-279.83 866,-257 880.98,-239.67 872.73,-213.97 862.16,-194.21"/>
<polygon fill="grey" stroke="grey" stroke-width="2" points="865.07,-192.25 857.04,-185.33 859,-195.74 865.07,-192.25"/>
</g>
<!-- 6&#45;&gt;2 -->
<g id="edge10" class="edge">
<title>6&#45;&gt;2</title>
<path fill="none" stroke="grey" stroke-width="2" d="M511.44,-292.97C520.67,-273.47 538.04,-241.57 561,-221 576.62,-207 596.42,-195.66 615.01,-186.97"/>
<polygon fill="grey" stroke="grey" stroke-width="2" points="616.61,-190.08 624.3,-182.79 613.74,-183.7 616.61,-190.08"/>
</g>
<!-- 8 -->
<g id="node9" class="node">
<title>8</title>
<path fill="none" stroke="#68d856" stroke-width="2" d="M673.5,-257C673.5,-257 582.5,-257 582.5,-257 576.5,-257 570.5,-251 570.5,-245 570.5,-245 570.5,-233 570.5,-233 570.5,-227 576.5,-221 582.5,-221 582.5,-221 673.5,-221 673.5,-221 679.5,-221 685.5,-227 685.5,-233 685.5,-233 685.5,-245 685.5,-245 685.5,-251 679.5,-257 673.5,-257"/>
<text text-anchor="middle" x="628" y="-236.5" font-family="sans" font-size="10.00">samtools_index_md</text>
</g>
<!-- 6&#45;&gt;8 -->
<g id="edge27" class="edge">
<title>6&#45;&gt;8</title>
<path fill="none" stroke="grey" stroke-width="2" d="M534.33,-292.88C550.7,-283.64 571.08,-272.13 588.65,-262.21"/>
<polygon fill="grey" stroke="grey" stroke-width="2" points="590.56,-265.15 597.55,-257.19 587.12,-259.06 590.56,-265.15"/>
</g>
<!-- 14 -->
<g id="node15" class="node">
<title>14</title>
<path fill="none" stroke="#d87556" stroke-width="2" d="M463.5,-257C463.5,-257 396.5,-257 396.5,-257 390.5,-257 384.5,-251 384.5,-245 384.5,-245 384.5,-233 384.5,-233 384.5,-227 390.5,-221 396.5,-221 396.5,-221 463.5,-221 463.5,-221 469.5,-221 475.5,-227 475.5,-233 475.5,-233 475.5,-245 475.5,-245 475.5,-251 469.5,-257 463.5,-257"/>
<text text-anchor="middle" x="430" y="-236.5" font-family="sans" font-size="10.00">samtools_stats</text>
</g>
<!-- 6&#45;&gt;14 -->
<g id="edge29" class="edge">
<title>6&#45;&gt;14</title>
<path fill="none" stroke="grey" stroke-width="2" d="M485.71,-292.7C476.57,-284.05 465.36,-273.45 455.4,-264.03"/>
<polygon fill="grey" stroke="grey" stroke-width="2" points="457.75,-261.43 448.08,-257.1 452.94,-266.52 457.75,-261.43"/>
</g>
<!-- 6&#45;&gt;16 -->
<g id="edge35" class="edge">
<title>6&#45;&gt;16</title>
<path fill="none" stroke="grey" stroke-width="2" d="M459.76,-293C390.56,-266.4 256.89,-215.03 182.07,-186.28"/>
<polygon fill="grey" stroke="grey" stroke-width="2" points="182.95,-182.87 172.36,-182.55 180.44,-189.4 182.95,-182.87"/>
</g>
<!-- 7&#45;&gt;1 -->
<g id="edge7" class="edge">
<title>7&#45;&gt;1</title>
<path fill="none" stroke="grey" stroke-width="2" d="M810.19,-220.82C814.96,-212.78 820.76,-202.99 826.16,-193.89"/>
<polygon fill="grey" stroke="grey" stroke-width="2" points="829.27,-195.51 831.36,-185.12 823.25,-191.94 829.27,-195.51"/>
</g>
<!-- 7&#45;&gt;2 -->
<g id="edge13" class="edge">
<title>7&#45;&gt;2</title>
<path fill="none" stroke="grey" stroke-width="2" d="M769.9,-220.82C753.91,-211.69 733.97,-200.31 716.34,-190.24"/>
<polygon fill="grey" stroke="grey" stroke-width="2" points="717.79,-187.04 707.37,-185.12 714.32,-193.12 717.79,-187.04"/>
</g>
<!-- 7&#45;&gt;15 -->
<g id="edge33" class="edge">
<title>7&#45;&gt;15</title>
<path fill="none" stroke="grey" stroke-width="2" d="M742.39,-221.91C708.18,-212.26 663.73,-199.55 616.53,-185.43"/>
<polygon fill="grey" stroke="grey" stroke-width="2" points="617.33,-182.02 606.74,-182.5 615.31,-188.72 617.33,-182.02"/>
</g>
<!-- 8&#45;&gt;1 -->
<g id="edge8" class="edge">
<title>8&#45;&gt;1</title>
<path fill="none" stroke="grey" stroke-width="2" d="M678.68,-220.91C711.45,-209.86 754.1,-195.48 787.74,-184.13"/>
<polygon fill="grey" stroke="grey" stroke-width="2" points="789.06,-187.38 797.42,-180.87 786.82,-180.75 789.06,-187.38"/>
</g>
<!-- 8&#45;&gt;2 -->
<g id="edge12" class="edge">
<title>8&#45;&gt;2</title>
<path fill="none" stroke="grey" stroke-width="2" d="M638.66,-220.82C643.65,-212.78 649.73,-202.99 655.38,-193.89"/>
<polygon fill="grey" stroke="grey" stroke-width="2" points="658.52,-195.46 660.82,-185.12 652.57,-191.77 658.52,-195.46"/>
</g>
<!-- 8&#45;&gt;16 -->
<g id="edge37" class="edge">
<title>8&#45;&gt;16</title>
<path fill="none" stroke="grey" stroke-width="2" d="M570.4,-231.17C453.62,-217.3 199.22,-186.99 190,-185 189.79,-184.95 189.57,-184.91 189.36,-184.86"/>
<polygon fill="grey" stroke="grey" stroke-width="2" points="190.11,-181.44 179.57,-182.5 188.47,-188.25 190.11,-181.44"/>
</g>
<!-- 9 -->
<g id="node10" class="node">
<title>9</title>
<path fill="none" stroke="#56b1d8" stroke-width="2" d="M276.5,-182.5C276.5,-182.5 211.5,-182.5 211.5,-182.5 205.5,-182.5 199.5,-176.5 199.5,-170.5 199.5,-170.5 199.5,-158.5 199.5,-158.5 199.5,-152.5 205.5,-146.5 211.5,-146.5 211.5,-146.5 276.5,-146.5 276.5,-146.5 282.5,-146.5 288.5,-152.5 288.5,-158.5 288.5,-158.5 288.5,-170.5 288.5,-170.5 288.5,-176.5 282.5,-182.5 276.5,-182.5"/>
<text text-anchor="middle" x="244" y="-167.5" font-family="sans" font-size="10.00">fastqc</text>
<text text-anchor="middle" x="244" y="-156.5" font-family="sans" font-size="10.00">library: mutant</text>
</g>
<!-- 9&#45;&gt;3 -->
<g id="edge14" class="edge">
<title>9&#45;&gt;3</title>
<path fill="none" stroke="grey" stroke-width="2" d="M270.31,-146.32C285.24,-136.57 304.1,-124.24 320.24,-113.7"/>
<polygon fill="grey" stroke="grey" stroke-width="2" points="322.42,-116.46 328.88,-108.06 318.6,-110.6 322.42,-116.46"/>
</g>
<!-- 10 -->
<g id="node11" class="node">
<title>10</title>
<path fill="none" stroke="#56b1d8" stroke-width="2" d="M469,-182.5C469,-182.5 395,-182.5 395,-182.5 389,-182.5 383,-176.5 383,-170.5 383,-170.5 383,-158.5 383,-158.5 383,-152.5 389,-146.5 395,-146.5 395,-146.5 469,-146.5 469,-146.5 475,-146.5 481,-152.5 481,-158.5 481,-158.5 481,-170.5 481,-170.5 481,-176.5 475,-182.5 469,-182.5"/>
<text text-anchor="middle" x="432" y="-167.5" font-family="sans" font-size="10.00">fastqc</text>
<text text-anchor="middle" x="432" y="-156.5" font-family="sans" font-size="10.00">library: revertant</text>
</g>
<!-- 10&#45;&gt;3 -->
<g id="edge15" class="edge">
<title>10&#45;&gt;3</title>
<path fill="none" stroke="grey" stroke-width="2" d="M413.75,-146.32C403.88,-137.02 391.51,-125.38 380.68,-115.18"/>
<polygon fill="grey" stroke="grey" stroke-width="2" points="382.8,-112.37 373.12,-108.06 378,-117.46 382.8,-112.37"/>
</g>
<!-- 11 -->
<g id="node12" class="node">
<title>11</title>
<path fill="none" stroke="#d85656" stroke-width="2" d="M509.5,-761C509.5,-761 444.5,-761 444.5,-761 438.5,-761 432.5,-755 432.5,-749 432.5,-749 432.5,-737 432.5,-737 432.5,-731 438.5,-725 444.5,-725 444.5,-725 509.5,-725 509.5,-725 515.5,-725 521.5,-731 521.5,-737 521.5,-737 521.5,-749 521.5,-749 521.5,-755 515.5,-761 509.5,-761"/>
<text text-anchor="middle" x="477" y="-746" font-family="sans" font-size="10.00">trimmomatic</text>
<text text-anchor="middle" x="477" y="-735" font-family="sans" font-size="10.00">library: mutant</text>
</g>
<!-- 11&#45;&gt;3 -->
<g id="edge16" class="edge">
<title>11&#45;&gt;3</title>
<path fill="none" stroke="grey" stroke-width="2" d="M478.19,-724.79C479.46,-693.05 477.85,-624.58 445,-581 423.94,-553.06 393.96,-574.4 375,-545 288.16,-410.38 362.7,-345.1 357,-185 356.2,-162.64 355.69,-137.27 355.38,-118.53"/>
<polygon fill="grey" stroke="grey" stroke-width="2" points="358.87,-118.27 355.22,-108.33 351.88,-118.38 358.87,-118.27"/>
</g>
<!-- 11&#45;&gt;26 -->
<g id="edge54" class="edge">
<title>11&#45;&gt;26</title>
<path fill="none" stroke="grey" stroke-width="2" d="M489.11,-724.7C494.87,-716.47 501.86,-706.48 508.21,-697.42"/>
<polygon fill="grey" stroke="grey" stroke-width="2" points="511.16,-699.3 514.03,-689.1 505.42,-695.29 511.16,-699.3"/>
</g>
<!-- 12 -->
<g id="node13" class="node">
<title>12</title>
<path fill="none" stroke="#d85656" stroke-width="2" d="M86,-761C86,-761 12,-761 12,-761 6,-761 0,-755 0,-749 0,-749 0,-737 0,-737 0,-731 6,-725 12,-725 12,-725 86,-725 86,-725 92,-725 98,-731 98,-737 98,-737 98,-749 98,-749 98,-755 92,-761 86,-761"/>
<text text-anchor="middle" x="49" y="-746" font-family="sans" font-size="10.00">trimmomatic</text>
<text text-anchor="middle" x="49" y="-735" font-family="sans" font-size="10.00">library: revertant</text>
</g>
<!-- 12&#45;&gt;3 -->
<g id="edge17" class="edge">
<title>12&#45;&gt;3</title>
<path fill="none" stroke="grey" stroke-width="2" d="M48.41,-724.95C47.53,-698.3 46,-645.12 46,-600 46,-600 46,-600 46,-238 46,-195.38 34.58,-173.86 65,-144 100.26,-109.39 247.31,-96.84 317.46,-92.76"/>
<polygon fill="grey" stroke="grey" stroke-width="2" points="317.83,-96.24 327.62,-92.2 317.45,-89.25 317.83,-96.24"/>
</g>
<!-- 12&#45;&gt;27 -->
<g id="edge57" class="edge">
<title>12&#45;&gt;27</title>
<path fill="none" stroke="grey" stroke-width="2" d="M98.17,-728.5C144.99,-715.65 214.83,-696.48 259.9,-684.11"/>
<polygon fill="grey" stroke="grey" stroke-width="2" points="260.96,-687.44 269.68,-681.42 259.11,-680.69 260.96,-687.44"/>
</g>
<!-- 13&#45;&gt;3 -->
<g id="edge18" class="edge">
<title>13&#45;&gt;3</title>
<path fill="none" stroke="grey" stroke-width="2" d="M985.71,-220.9C968.76,-198.83 935.97,-161.23 898,-144 807.32,-102.86 499.33,-93.55 392.14,-91.53"/>
<polygon fill="grey" stroke="grey" stroke-width="2" points="392.18,-88.03 382.12,-91.35 392.05,-95.03 392.18,-88.03"/>
</g>
<!-- 14&#45;&gt;3 -->
<g id="edge19" class="edge">
<title>14&#45;&gt;3</title>
<path fill="none" stroke="grey" stroke-width="2" d="M405.97,-220.91C394.58,-211.57 381.79,-199.05 374,-185 362.56,-164.36 357.96,-137.76 356.14,-118.12"/>
<polygon fill="grey" stroke="grey" stroke-width="2" points="359.62,-117.73 355.38,-108.01 352.64,-118.25 359.62,-117.73"/>
</g>
<!-- 15&#45;&gt;3 -->
<g id="edge20" class="edge">
<title>15&#45;&gt;3</title>
<path fill="none" stroke="grey" stroke-width="2" d="M506.33,-146.41C471.31,-133.59 424.03,-116.27 391.69,-104.43"/>
<polygon fill="grey" stroke="grey" stroke-width="2" points="392.76,-101.1 382.16,-100.95 390.35,-107.67 392.76,-101.1"/>
</g>
<!-- 16&#45;&gt;3 -->
<g id="edge21" class="edge">
<title>16&#45;&gt;3</title>
<path fill="none" stroke="grey" stroke-width="2" d="M181.51,-146.41C223.56,-132.98 281.04,-114.62 318.09,-102.79"/>
<polygon fill="grey" stroke="grey" stroke-width="2" points="319.51,-106.01 327.97,-99.63 317.38,-99.34 319.51,-106.01"/>
</g>
<!-- 17&#45;&gt;5 -->
<g id="edge22" class="edge">
<title>17&#45;&gt;5</title>
<path fill="none" stroke="grey" stroke-width="2" d="M764.62,-364.7C770.14,-356.47 776.85,-346.48 782.93,-337.42"/>
<polygon fill="grey" stroke="grey" stroke-width="2" points="785.85,-339.36 788.52,-329.1 780.04,-335.46 785.85,-339.36"/>
</g>
<!-- 18&#45;&gt;6 -->
<g id="edge24" class="edge">
<title>18&#45;&gt;6</title>
<path fill="none" stroke="grey" stroke-width="2" d="M494.21,-364.7C495.65,-356.98 497.37,-347.71 498.96,-339.11"/>
<polygon fill="grey" stroke="grey" stroke-width="2" points="502.44,-339.58 500.82,-329.1 495.56,-338.3 502.44,-339.58"/>
</g>
<!-- 19&#45;&gt;15 -->
<g id="edge32" class="edge">
<title>19&#45;&gt;15</title>
<path fill="none" stroke="grey" stroke-width="2" d="M260.35,-724.66C253.62,-698.05 242,-645.45 242,-600 242,-600 242,-600 242,-382 242,-305.32 245.22,-270.23 304,-221 366.16,-168.94 405.34,-202.75 489.55,-184.81"/>
<polygon fill="grey" stroke="grey" stroke-width="2" points="490.55,-188.17 499.5,-182.5 488.96,-181.35 490.55,-188.17"/>
</g>
<!-- 19&#45;&gt;16 -->
<g id="edge36" class="edge">
<title>19&#45;&gt;16</title>
<path fill="none" stroke="grey" stroke-width="2" d="M250.69,-724.79C243.03,-714.85 233.98,-701.81 228,-689 210.68,-651.87 204,-640.97 204,-600 204,-600 204,-600 204,-310 204,-263.76 173.14,-217.78 150.75,-190.5"/>
<polygon fill="grey" stroke="grey" stroke-width="2" points="153.25,-188.03 144.12,-182.65 147.9,-192.55 153.25,-188.03"/>
</g>
<!-- 19&#45;&gt;26 -->
<g id="edge55" class="edge">
<title>19&#45;&gt;26</title>
<path fill="none" stroke="grey" stroke-width="2" d="M299.66,-732.7C346.59,-720.12 430.37,-697.65 481.78,-683.86"/>
<polygon fill="grey" stroke="grey" stroke-width="2" points="482.86,-687.19 491.61,-681.22 481.05,-680.43 482.86,-687.19"/>
</g>
<!-- 19&#45;&gt;27 -->
<g id="edge58" class="edge">
<title>19&#45;&gt;27</title>
<path fill="none" stroke="grey" stroke-width="2" d="M274.64,-724.7C279.13,-716.64 284.56,-706.89 289.52,-697.98"/>
<polygon fill="grey" stroke="grey" stroke-width="2" points="292.66,-699.54 294.47,-689.1 286.55,-696.14 292.66,-699.54"/>
</g>
<!-- 20 -->
<g id="node21" class="node">
<title>20</title>
<path fill="none" stroke="#56d863" stroke-width="2" d="M730,-545C730,-545 668,-545 668,-545 662,-545 656,-539 656,-533 656,-533 656,-521 656,-521 656,-515 662,-509 668,-509 668,-509 730,-509 730,-509 736,-509 742,-515 742,-521 742,-521 742,-533 742,-533 742,-539 736,-545 730,-545"/>
<text text-anchor="middle" x="699" y="-524.5" font-family="sans" font-size="10.00">samtools_sort</text>
</g>
<!-- 20&#45;&gt;17 -->
<g id="edge38" class="edge">
<title>20&#45;&gt;17</title>
<path fill="none" stroke="grey" stroke-width="2" d="M690.51,-508.71C682.65,-490.09 673.74,-460.05 685,-437 690.81,-425.11 700.71,-415.12 711.18,-407.12"/>
<polygon fill="grey" stroke="grey" stroke-width="2" points="713.5,-409.78 719.64,-401.14 709.46,-404.06 713.5,-409.78"/>
</g>
<!-- 21 -->
<g id="node22" class="node">
<title>21</title>
<path fill="none" stroke="#56d8a2" stroke-width="2" d="M776,-473C776,-473 706,-473 706,-473 700,-473 694,-467 694,-461 694,-461 694,-449 694,-449 694,-443 700,-437 706,-437 706,-437 776,-437 776,-437 782,-437 788,-443 788,-449 788,-449 788,-461 788,-461 788,-467 782,-473 776,-473"/>
<text text-anchor="middle" x="741" y="-452.5" font-family="sans" font-size="10.00">samtools_index</text>
</g>
<!-- 20&#45;&gt;21 -->
<g id="edge46" class="edge">
<title>20&#45;&gt;21</title>
<path fill="none" stroke="grey" stroke-width="2" d="M709.38,-508.7C714.26,-500.56 720.19,-490.69 725.58,-481.7"/>
<polygon fill="grey" stroke="grey" stroke-width="2" points="728.59,-483.48 730.74,-473.1 722.59,-479.88 728.59,-483.48"/>
</g>
<!-- 21&#45;&gt;17 -->
<g id="edge40" class="edge">
<title>21&#45;&gt;17</title>
<path fill="none" stroke="grey" stroke-width="2" d="M743.97,-436.7C745.29,-428.98 746.88,-419.71 748.35,-411.11"/>
<polygon fill="grey" stroke="grey" stroke-width="2" points="751.83,-411.55 750.07,-401.1 744.93,-410.37 751.83,-411.55"/>
</g>
<!-- 22 -->
<g id="node23" class="node">
<title>22</title>
<path fill="none" stroke="#56d863" stroke-width="2" d="M458,-545C458,-545 396,-545 396,-545 390,-545 384,-539 384,-533 384,-533 384,-521 384,-521 384,-515 390,-509 396,-509 396,-509 458,-509 458,-509 464,-509 470,-515 470,-521 470,-521 470,-533 470,-533 470,-539 464,-545 458,-545"/>
<text text-anchor="middle" x="427" y="-524.5" font-family="sans" font-size="10.00">samtools_sort</text>
</g>
<!-- 22&#45;&gt;18 -->
<g id="edge41" class="edge">
<title>22&#45;&gt;18</title>
<path fill="none" stroke="grey" stroke-width="2" d="M421.27,-508.94C416.05,-490.26 410.71,-459.9 422,-437 427.96,-424.91 438.15,-414.8 448.9,-406.77"/>
<polygon fill="grey" stroke="grey" stroke-width="2" points="450.94,-409.61 457.16,-401.04 446.95,-403.86 450.94,-409.61"/>
</g>
<!-- 23 -->
<g id="node24" class="node">
<title>23</title>
<path fill="none" stroke="#56d8a2" stroke-width="2" d="M513,-473C513,-473 443,-473 443,-473 437,-473 431,-467 431,-461 431,-461 431,-449 431,-449 431,-443 437,-437 443,-437 443,-437 513,-437 513,-437 519,-437 525,-443 525,-449 525,-449 525,-461 525,-461 525,-467 519,-473 513,-473"/>
<text text-anchor="middle" x="478" y="-452.5" font-family="sans" font-size="10.00">samtools_index</text>
</g>
<!-- 22&#45;&gt;23 -->
<g id="edge48" class="edge">
<title>22&#45;&gt;23</title>
<path fill="none" stroke="grey" stroke-width="2" d="M439.61,-508.7C445.6,-500.47 452.88,-490.48 459.48,-481.42"/>
<polygon fill="grey" stroke="grey" stroke-width="2" points="462.48,-483.25 465.54,-473.1 456.82,-479.13 462.48,-483.25"/>
</g>
<!-- 23&#45;&gt;18 -->
<g id="edge43" class="edge">
<title>23&#45;&gt;18</title>
<path fill="none" stroke="grey" stroke-width="2" d="M481.21,-436.7C482.65,-428.98 484.37,-419.71 485.96,-411.11"/>
<polygon fill="grey" stroke="grey" stroke-width="2" points="489.44,-411.58 487.82,-401.1 482.56,-410.3 489.44,-411.58"/>
</g>
<!-- 24&#45;&gt;20 -->
<g id="edge45" class="edge">
<title>24&#45;&gt;20</title>
<path fill="none" stroke="grey" stroke-width="2" d="M644.04,-580.7C653.06,-572.05 664.12,-561.45 673.94,-552.03"/>
<polygon fill="grey" stroke="grey" stroke-width="2" points="676.37,-554.55 681.16,-545.1 671.52,-549.5 676.37,-554.55"/>
</g>
<!-- 25&#45;&gt;22 -->
<g id="edge47" class="edge">
<title>25&#45;&gt;22</title>
<path fill="none" stroke="grey" stroke-width="2" d="M399.9,-580.7C404,-572.73 408.95,-563.1 413.49,-554.26"/>
<polygon fill="grey" stroke="grey" stroke-width="2" points="416.74,-555.6 418.2,-545.1 410.52,-552.4 416.74,-555.6"/>
</g>
<!-- 26&#45;&gt;24 -->
<g id="edge49" class="edge">
<title>26&#45;&gt;24</title>
<path fill="none" stroke="grey" stroke-width="2" d="M550.46,-652.88C563.3,-643.89 579.2,-632.76 593.09,-623.03"/>
<polygon fill="grey" stroke="grey" stroke-width="2" points="595.26,-625.79 601.44,-617.19 591.24,-620.06 595.26,-625.79"/>
</g>
<!-- 27&#45;&gt;25 -->
<g id="edge51" class="edge">
<title>27&#45;&gt;25</title>
<path fill="none" stroke="grey" stroke-width="2" d="M325.51,-652.7C336.46,-643.88 349.95,-633.03 361.82,-623.47"/>
<polygon fill="grey" stroke="grey" stroke-width="2" points="364.14,-626.1 369.74,-617.1 359.76,-620.65 364.14,-626.1"/>
</g>
</g>
</svg>
