<?xml version="1.0" encoding="UTF-8" standalone="no"?>
<!DOCTYPE svg PUBLIC "-//W3C//DTD SVG 1.1//EN"
 "http://www.w3.org/Graphics/SVG/1.1/DTD/svg11.dtd">
<!-- Generated by graphviz version 2.43.0 (0)
 -->
<!-- Title: snakemake_dag Pages: 1 -->
<svg width="1576pt" height="836pt"
 viewBox="0.00 0.00 1576.00 836.00" xmlns="http://www.w3.org/2000/svg" xmlns:xlink="http://www.w3.org/1999/xlink">
<g id="graph0" class="graph" transform="scale(1 1) rotate(0) translate(4 832)">
<title>snakemake_dag</title>
<polygon fill="white" stroke="transparent" points="-4,4 -4,-832 1572,-832 1572,4 -4,4"/>
<!-- 0 -->
<g id="node1" class="node">
<title>0</title>
<path fill="none" stroke="#d86e56" stroke-width="2" d="M1412,-36C1412,-36 1382,-36 1382,-36 1376,-36 1370,-30 1370,-24 1370,-24 1370,-12 1370,-12 1370,-6 1376,0 1382,0 1382,0 1412,0 1412,0 1418,0 1424,-6 1424,-12 1424,-12 1424,-24 1424,-24 1424,-30 1418,-36 1412,-36"/>
<text text-anchor="middle" x="1397" y="-15.5" font-family="sans" font-size="10.00">all</text>
</g>
<!-- 1 -->
<g id="node2" class="node">
<title>1</title>
<path fill="none" stroke="#56d88a" stroke-width="2" d="M808,-828C808,-828 752,-828 752,-828 746,-828 740,-822 740,-816 740,-816 740,-804 740,-804 740,-798 746,-792 752,-792 752,-792 808,-792 808,-792 814,-792 820,-798 820,-804 820,-804 820,-816 820,-816 820,-822 814,-828 808,-828"/>
<text text-anchor="middle" x="780" y="-807.5" font-family="sans" font-size="10.00">cp_reference</text>
</g>
<!-- 1&#45;&gt;0 -->
<g id="edge1" class="edge">
<title>1&#45;&gt;0</title>
<path fill="none" stroke="grey" stroke-width="2" d="M820.05,-808.32C965.28,-805.57 1458.88,-793.5 1518,-756 1556.31,-731.7 1568,-712.37 1568,-667 1568,-667 1568,-667 1568,-161 1568,-91.72 1483.9,-49.77 1433.66,-30.9"/>
<polygon fill="grey" stroke="grey" stroke-width="2" points="1434.69,-27.55 1424.1,-27.43 1432.3,-34.13 1434.69,-27.55"/>
</g>
<!-- 3 -->
<g id="node4" class="node">
<title>3</title>
<path fill="none" stroke="#a7d856" stroke-width="2" d="M1113.5,-324C1113.5,-324 1026.5,-324 1026.5,-324 1020.5,-324 1014.5,-318 1014.5,-312 1014.5,-312 1014.5,-300 1014.5,-300 1014.5,-294 1020.5,-288 1026.5,-288 1026.5,-288 1113.5,-288 1113.5,-288 1119.5,-288 1125.5,-294 1125.5,-300 1125.5,-300 1125.5,-312 1125.5,-312 1125.5,-318 1119.5,-324 1113.5,-324"/>
<text text-anchor="middle" x="1070" y="-303.5" font-family="sans" font-size="10.00">samtools_view_md</text>
</g>
<!-- 1&#45;&gt;3 -->
<g id="edge6" class="edge">
<title>1&#45;&gt;3</title>
<path fill="none" stroke="grey" stroke-width="2" d="M820.2,-809.78C909.38,-809.2 1116,-794.13 1116,-667 1116,-667 1116,-667 1116,-449 1116,-408.46 1109.47,-398.24 1096,-360 1092.83,-351.01 1088.54,-341.56 1084.35,-333.16"/>
<polygon fill="grey" stroke="grey" stroke-width="2" points="1087.43,-331.5 1079.73,-324.22 1081.21,-334.71 1087.43,-331.5"/>
</g>
<!-- 5 -->
<g id="node6" class="node">
<title>5</title>
<path fill="none" stroke="#56d8c1" stroke-width="2" d="M1075.5,-396C1075.5,-396 980.5,-396 980.5,-396 974.5,-396 968.5,-390 968.5,-384 968.5,-384 968.5,-372 968.5,-372 968.5,-366 974.5,-360 980.5,-360 980.5,-360 1075.5,-360 1075.5,-360 1081.5,-360 1087.5,-366 1087.5,-372 1087.5,-372 1087.5,-384 1087.5,-384 1087.5,-390 1081.5,-396 1075.5,-396"/>
<text text-anchor="middle" x="1028" y="-375.5" font-family="sans" font-size="10.00">gatk_markduplicates</text>
</g>
<!-- 1&#45;&gt;5 -->
<g id="edge23" class="edge">
<title>1&#45;&gt;5</title>
<path fill="none" stroke="grey" stroke-width="2" d="M820.19,-807.84C901.53,-803.13 1078,-779.9 1078,-667 1078,-667 1078,-667 1078,-521 1078,-478.68 1058,-433.09 1043.3,-405.3"/>
<polygon fill="grey" stroke="grey" stroke-width="2" points="1046.22,-403.35 1038.36,-396.24 1040.07,-406.7 1046.22,-403.35"/>
</g>
<!-- 6 -->
<g id="node7" class="node">
<title>6</title>
<path fill="none" stroke="#56d873" stroke-width="2" d="M850,-540C850,-540 820,-540 820,-540 814,-540 808,-534 808,-528 808,-528 808,-516 808,-516 808,-510 814,-504 820,-504 820,-504 850,-504 850,-504 856,-504 862,-510 862,-516 862,-516 862,-528 862,-528 862,-534 856,-540 850,-540"/>
<text text-anchor="middle" x="835" y="-519.5" font-family="sans" font-size="10.00">busco</text>
</g>
<!-- 1&#45;&gt;6 -->
<g id="edge25" class="edge">
<title>1&#45;&gt;6</title>
<path fill="none" stroke="grey" stroke-width="2" d="M784.91,-791.9C787.78,-781.56 791.35,-768.08 794,-756 810.25,-682.04 824.36,-593.75 830.98,-550.14"/>
<polygon fill="grey" stroke="grey" stroke-width="2" points="834.47,-550.46 832.5,-540.05 827.55,-549.42 834.47,-550.46"/>
</g>
<!-- 7 -->
<g id="node8" class="node">
<title>7</title>
<path fill="none" stroke="#d6d856" stroke-width="2" d="M1437.5,-612C1437.5,-612 1380.5,-612 1380.5,-612 1374.5,-612 1368.5,-606 1368.5,-600 1368.5,-600 1368.5,-588 1368.5,-588 1368.5,-582 1374.5,-576 1380.5,-576 1380.5,-576 1437.5,-576 1437.5,-576 1443.5,-576 1449.5,-582 1449.5,-588 1449.5,-588 1449.5,-600 1449.5,-600 1449.5,-606 1443.5,-612 1437.5,-612"/>
<text text-anchor="middle" x="1409" y="-591.5" font-family="sans" font-size="10.00">bedtools_nuc</text>
</g>
<!-- 1&#45;&gt;7 -->
<g id="edge26" class="edge">
<title>1&#45;&gt;7</title>
<path fill="none" stroke="grey" stroke-width="2" d="M820.23,-807.73C943.35,-803.52 1309.18,-788.38 1351,-756 1372.61,-739.27 1393.12,-663.43 1402.94,-622.08"/>
<polygon fill="grey" stroke="grey" stroke-width="2" points="1406.4,-622.66 1405.26,-612.13 1399.58,-621.08 1406.4,-622.66"/>
</g>
<!-- 16 -->
<g id="node17" class="node">
<title>16</title>
<path fill="none" stroke="#88d856" stroke-width="2" d="M470.5,-180C470.5,-180 429.5,-180 429.5,-180 423.5,-180 417.5,-174 417.5,-168 417.5,-168 417.5,-156 417.5,-156 417.5,-150 423.5,-144 429.5,-144 429.5,-144 470.5,-144 470.5,-144 476.5,-144 482.5,-150 482.5,-156 482.5,-156 482.5,-168 482.5,-168 482.5,-174 476.5,-180 470.5,-180"/>
<text text-anchor="middle" x="450" y="-159.5" font-family="sans" font-size="10.00">mosdepth</text>
</g>
<!-- 1&#45;&gt;16 -->
<g id="edge31" class="edge">
<title>1&#45;&gt;16</title>
<path fill="none" stroke="grey" stroke-width="2" d="M739.68,-808.18C652.98,-805.67 452.35,-795.61 399,-756 364.03,-730.04 358,-710.55 358,-667 358,-667 358,-667 358,-305 358,-257.47 394.75,-213.3 421.79,-187.23"/>
<polygon fill="grey" stroke="grey" stroke-width="2" points="424.21,-189.76 429.12,-180.37 419.43,-184.65 424.21,-189.76"/>
</g>
<!-- 17 -->
<g id="node18" class="node">
<title>17</title>
<path fill="none" stroke="#88d856" stroke-width="2" d="M650.5,-180C650.5,-180 609.5,-180 609.5,-180 603.5,-180 597.5,-174 597.5,-168 597.5,-168 597.5,-156 597.5,-156 597.5,-150 603.5,-144 609.5,-144 609.5,-144 650.5,-144 650.5,-144 656.5,-144 662.5,-150 662.5,-156 662.5,-156 662.5,-168 662.5,-168 662.5,-174 656.5,-180 650.5,-180"/>
<text text-anchor="middle" x="630" y="-159.5" font-family="sans" font-size="10.00">mosdepth</text>
</g>
<!-- 1&#45;&gt;17 -->
<g id="edge35" class="edge">
<title>1&#45;&gt;17</title>
<path fill="none" stroke="grey" stroke-width="2" d="M780,-791.95C780,-765.29 780,-712.11 780,-667 780,-667 780,-667 780,-449 780,-341.25 777.46,-302.35 713,-216 702.33,-201.7 686.57,-190.26 671.64,-181.71"/>
<polygon fill="grey" stroke="grey" stroke-width="2" points="672.96,-178.45 662.5,-176.77 669.63,-184.61 672.96,-178.45"/>
</g>
<!-- 18 -->
<g id="node19" class="node">
<title>18</title>
<path fill="none" stroke="#88d856" stroke-width="2" d="M1098.5,-180C1098.5,-180 1057.5,-180 1057.5,-180 1051.5,-180 1045.5,-174 1045.5,-168 1045.5,-168 1045.5,-156 1045.5,-156 1045.5,-150 1051.5,-144 1057.5,-144 1057.5,-144 1098.5,-144 1098.5,-144 1104.5,-144 1110.5,-150 1110.5,-156 1110.5,-156 1110.5,-168 1110.5,-168 1110.5,-174 1104.5,-180 1098.5,-180"/>
<text text-anchor="middle" x="1078" y="-159.5" font-family="sans" font-size="10.00">mosdepth</text>
</g>
<!-- 1&#45;&gt;18 -->
<g id="edge39" class="edge">
<title>1&#45;&gt;18</title>
<path fill="none" stroke="grey" stroke-width="2" d="M820.27,-806.32C895.11,-800.68 1052.12,-785.62 1097,-756 1136.2,-730.12 1154,-713.97 1154,-667 1154,-667 1154,-667 1154,-305 1154,-259.64 1123.48,-214.75 1101.12,-187.95"/>
<polygon fill="grey" stroke="grey" stroke-width="2" points="1103.66,-185.53 1094.49,-180.23 1098.36,-190.09 1103.66,-185.53"/>
</g>
<!-- 19 -->
<g id="node20" class="node">
<title>19</title>
<path fill="none" stroke="#d88d56" stroke-width="2" d="M950.5,-180C950.5,-180 867.5,-180 867.5,-180 861.5,-180 855.5,-174 855.5,-168 855.5,-168 855.5,-156 855.5,-156 855.5,-150 861.5,-144 867.5,-144 867.5,-144 950.5,-144 950.5,-144 956.5,-144 962.5,-150 962.5,-156 962.5,-156 962.5,-168 962.5,-168 962.5,-174 956.5,-180 950.5,-180"/>
<text text-anchor="middle" x="909" y="-159.5" font-family="sans" font-size="10.00">mosdepth_regions</text>
</g>
<!-- 1&#45;&gt;19 -->
<g id="edge43" class="edge">
<title>1&#45;&gt;19</title>
<path fill="none" stroke="grey" stroke-width="2" d="M805.79,-791.94C838.3,-768.16 890,-721.73 890,-667 890,-667 890,-667 890,-521 890,-397.37 901.44,-250.06 906.57,-190.25"/>
<polygon fill="grey" stroke="grey" stroke-width="2" points="910.07,-190.39 907.45,-180.12 903.09,-189.78 910.07,-190.39"/>
</g>
<!-- 23 -->
<g id="node24" class="node">
<title>23</title>
<path fill="none" stroke="#a7d856" stroke-width="2" d="M229.5,-324C229.5,-324 142.5,-324 142.5,-324 136.5,-324 130.5,-318 130.5,-312 130.5,-312 130.5,-300 130.5,-300 130.5,-294 136.5,-288 142.5,-288 142.5,-288 229.5,-288 229.5,-288 235.5,-288 241.5,-294 241.5,-300 241.5,-300 241.5,-312 241.5,-312 241.5,-318 235.5,-324 229.5,-324"/>
<text text-anchor="middle" x="186" y="-303.5" font-family="sans" font-size="10.00">samtools_view_md</text>
</g>
<!-- 1&#45;&gt;23 -->
<g id="edge51" class="edge">
<title>1&#45;&gt;23</title>
<path fill="none" stroke="grey" stroke-width="2" d="M739.85,-808.25C645.04,-805.82 410.24,-795.85 344,-756 302.69,-731.15 282,-715.21 282,-667 282,-667 282,-667 282,-449 282,-400.85 243.66,-356.85 215.44,-330.98"/>
<polygon fill="grey" stroke="grey" stroke-width="2" points="217.58,-328.2 207.78,-324.17 212.93,-333.43 217.58,-328.2"/>
</g>
<!-- 24 -->
<g id="node25" class="node">
<title>24</title>
<path fill="none" stroke="#a7d856" stroke-width="2" d="M673.5,-324C673.5,-324 586.5,-324 586.5,-324 580.5,-324 574.5,-318 574.5,-312 574.5,-312 574.5,-300 574.5,-300 574.5,-294 580.5,-288 586.5,-288 586.5,-288 673.5,-288 673.5,-288 679.5,-288 685.5,-294 685.5,-300 685.5,-300 685.5,-312 685.5,-312 685.5,-318 679.5,-324 673.5,-324"/>
<text text-anchor="middle" x="630" y="-303.5" font-family="sans" font-size="10.00">samtools_view_md</text>
</g>
<!-- 1&#45;&gt;24 -->
<g id="edge53" class="edge">
<title>1&#45;&gt;24</title>
<path fill="none" stroke="grey" stroke-width="2" d="M772.31,-791.91C761.21,-765.62 742,-713.45 742,-667 742,-667 742,-667 742,-521 742,-445.37 686.41,-370.09 653.56,-332.2"/>
<polygon fill="grey" stroke="grey" stroke-width="2" points="655.78,-329.43 646.53,-324.26 650.54,-334.07 655.78,-329.43"/>
</g>
<!-- 25 -->
<g id="node26" class="node">
<title>25</title>
<path fill="none" stroke="#d8a456" stroke-width="2" d="M625.5,-756C625.5,-756 580.5,-756 580.5,-756 574.5,-756 568.5,-750 568.5,-744 568.5,-744 568.5,-732 568.5,-732 568.5,-726 574.5,-720 580.5,-720 580.5,-720 625.5,-720 625.5,-720 631.5,-720 637.5,-726 637.5,-732 637.5,-732 637.5,-744 637.5,-744 637.5,-750 631.5,-756 625.5,-756"/>
<text text-anchor="middle" x="603" y="-735.5" font-family="sans" font-size="10.00">bwa_index</text>
</g>
<!-- 1&#45;&gt;25 -->
<g id="edge54" class="edge">
<title>1&#45;&gt;25</title>
<path fill="none" stroke="grey" stroke-width="2" d="M739.84,-793.12C712.16,-782.17 675.39,-767.63 646.94,-756.38"/>
<polygon fill="grey" stroke="grey" stroke-width="2" points="648.22,-753.12 637.63,-752.7 645.64,-759.63 648.22,-753.12"/>
</g>
<!-- 29 -->
<g id="node30" class="node">
<title>29</title>
<path fill="none" stroke="#d8bc56" stroke-width="2" d="M1018,-612C1018,-612 952,-612 952,-612 946,-612 940,-606 940,-600 940,-600 940,-588 940,-588 940,-582 946,-576 952,-576 952,-576 1018,-576 1018,-576 1024,-576 1030,-582 1030,-588 1030,-588 1030,-600 1030,-600 1030,-606 1024,-612 1018,-612"/>
<text text-anchor="middle" x="985" y="-591.5" font-family="sans" font-size="10.00">samtools_view</text>
</g>
<!-- 1&#45;&gt;29 -->
<g id="edge59" class="edge">
<title>1&#45;&gt;29</title>
<path fill="none" stroke="grey" stroke-width="2" d="M820.03,-801.02C852.27,-793.24 897.72,-779.14 932,-756 967.24,-732.21 980.04,-723.8 995,-684 1002.49,-664.07 999.11,-640.01 994.34,-621.93"/>
<polygon fill="grey" stroke="grey" stroke-width="2" points="997.69,-620.93 991.53,-612.31 990.98,-622.89 997.69,-620.93"/>
</g>
<!-- 30 -->
<g id="node31" class="node">
<title>30</title>
<path fill="none" stroke="#56c1d8" stroke-width="2" d="M1497,-756C1497,-756 1429,-756 1429,-756 1423,-756 1417,-750 1417,-744 1417,-744 1417,-732 1417,-732 1417,-726 1423,-720 1429,-720 1429,-720 1497,-720 1497,-720 1503,-720 1509,-726 1509,-732 1509,-732 1509,-744 1509,-744 1509,-750 1503,-756 1497,-756"/>
<text text-anchor="middle" x="1463" y="-735.5" font-family="sans" font-size="10.00">samtools_faidx</text>
</g>
<!-- 1&#45;&gt;30 -->
<g id="edge60" class="edge">
<title>1&#45;&gt;30</title>
<path fill="none" stroke="grey" stroke-width="2" d="M820.35,-807.58C918.69,-803.67 1178.29,-790.64 1392,-756 1396.96,-755.2 1402.08,-754.23 1407.2,-753.18"/>
<polygon fill="grey" stroke="grey" stroke-width="2" points="1407.95,-756.6 1416.99,-751.07 1406.47,-749.76 1407.95,-756.6"/>
</g>
<!-- 31 -->
<g id="node32" class="node">
<title>31</title>
<path fill="none" stroke="#56d8c1" stroke-width="2" d="M220.5,-396C220.5,-396 125.5,-396 125.5,-396 119.5,-396 113.5,-390 113.5,-384 113.5,-384 113.5,-372 113.5,-372 113.5,-366 119.5,-360 125.5,-360 125.5,-360 220.5,-360 220.5,-360 226.5,-360 232.5,-366 232.5,-372 232.5,-372 232.5,-384 232.5,-384 232.5,-390 226.5,-396 220.5,-396"/>
<text text-anchor="middle" x="173" y="-375.5" font-family="sans" font-size="10.00">gatk_markduplicates</text>
</g>
<!-- 1&#45;&gt;31 -->
<g id="edge62" class="edge">
<title>1&#45;&gt;31</title>
<path fill="none" stroke="grey" stroke-width="2" d="M739.77,-808.67C598.54,-807.15 131.18,-798.91 81,-756 50.11,-729.59 60,-707.64 60,-667 60,-667 60,-667 60,-593 60,-518.82 62.65,-493.59 104,-432 111.78,-420.41 122.94,-410.28 134.02,-402.06"/>
<polygon fill="grey" stroke="grey" stroke-width="2" points="136.25,-404.77 142.43,-396.16 132.23,-399.05 136.25,-404.77"/>
</g>
<!-- 32 -->
<g id="node33" class="node">
<title>32</title>
<path fill="none" stroke="#56d8c1" stroke-width="2" d="M608.5,-396C608.5,-396 513.5,-396 513.5,-396 507.5,-396 501.5,-390 501.5,-384 501.5,-384 501.5,-372 501.5,-372 501.5,-366 507.5,-360 513.5,-360 513.5,-360 608.5,-360 608.5,-360 614.5,-360 620.5,-366 620.5,-372 620.5,-372 620.5,-384 620.5,-384 620.5,-390 614.5,-396 608.5,-396"/>
<text text-anchor="middle" x="561" y="-375.5" font-family="sans" font-size="10.00">gatk_markduplicates</text>
</g>
<!-- 1&#45;&gt;32 -->
<g id="edge65" class="edge">
<title>1&#45;&gt;32</title>
<path fill="none" stroke="grey" stroke-width="2" d="M739.89,-809.31C655.4,-809 463.57,-803.03 423,-756 328.95,-646.96 476.58,-468.37 537.06,-403.51"/>
<polygon fill="grey" stroke="grey" stroke-width="2" points="539.67,-405.86 543.98,-396.18 534.57,-401.05 539.67,-405.86"/>
</g>
<!-- 33 -->
<g id="node34" class="node">
<title>33</title>
<path fill="none" stroke="#568ad8" stroke-width="2" d="M974,-684C974,-684 930,-684 930,-684 924,-684 918,-678 918,-672 918,-672 918,-660 918,-660 918,-654 924,-648 930,-648 930,-648 974,-648 974,-648 980,-648 986,-654 986,-660 986,-660 986,-672 986,-672 986,-678 980,-684 974,-684"/>
<text text-anchor="middle" x="952" y="-663.5" font-family="sans" font-size="10.00">bwa_mem</text>
</g>
<!-- 1&#45;&gt;33 -->
<g id="edge67" class="edge">
<title>1&#45;&gt;33</title>
<path fill="none" stroke="grey" stroke-width="2" d="M820.12,-799.31C846.47,-791.29 880.32,-777.63 904,-756 922.55,-739.06 935.35,-713.26 943.05,-693.79"/>
<polygon fill="grey" stroke="grey" stroke-width="2" points="946.38,-694.86 946.6,-684.27 939.82,-692.41 946.38,-694.86"/>
</g>
<!-- 38 -->
<g id="node39" class="node">
<title>38</title>
<path fill="none" stroke="#d8bc56" stroke-width="2" d="M204,-612C204,-612 138,-612 138,-612 132,-612 126,-606 126,-600 126,-600 126,-588 126,-588 126,-582 132,-576 138,-576 138,-576 204,-576 204,-576 210,-576 216,-582 216,-588 216,-588 216,-600 216,-600 216,-606 210,-612 204,-612"/>
<text text-anchor="middle" x="171" y="-591.5" font-family="sans" font-size="10.00">samtools_view</text>
</g>
<!-- 1&#45;&gt;38 -->
<g id="edge75" class="edge">
<title>1&#45;&gt;38</title>
<path fill="none" stroke="grey" stroke-width="2" d="M739.63,-807.12C625.45,-801.47 306.03,-783.38 268,-756 225.22,-725.2 247.93,-692.06 219,-648 212.43,-637.99 203.99,-628 196.03,-619.43"/>
<polygon fill="grey" stroke="grey" stroke-width="2" points="198.37,-616.81 188.92,-612.01 193.31,-621.65 198.37,-616.81"/>
</g>
<!-- 39 -->
<g id="node40" class="node">
<title>39</title>
<path fill="none" stroke="#d8bc56" stroke-width="2" d="M606,-612C606,-612 540,-612 540,-612 534,-612 528,-606 528,-600 528,-600 528,-588 528,-588 528,-582 534,-576 540,-576 540,-576 606,-576 606,-576 612,-576 618,-582 618,-588 618,-588 618,-600 618,-600 618,-606 612,-612 606,-612"/>
<text text-anchor="middle" x="573" y="-591.5" font-family="sans" font-size="10.00">samtools_view</text>
</g>
<!-- 1&#45;&gt;39 -->
<g id="edge77" class="edge">
<title>1&#45;&gt;39</title>
<path fill="none" stroke="grey" stroke-width="2" d="M763.1,-791.85C752.91,-781.5 739.68,-768.02 728,-756 681.38,-708.03 627.26,-651.66 596.88,-619.95"/>
<polygon fill="grey" stroke="grey" stroke-width="2" points="599.13,-617.24 589.69,-612.44 594.08,-622.09 599.13,-617.24"/>
</g>
<!-- 40 -->
<g id="node41" class="node">
<title>40</title>
<path fill="none" stroke="#568ad8" stroke-width="2" d="M198,-684C198,-684 154,-684 154,-684 148,-684 142,-678 142,-672 142,-672 142,-660 142,-660 142,-654 148,-648 154,-648 154,-648 198,-648 198,-648 204,-648 210,-654 210,-660 210,-660 210,-672 210,-672 210,-678 204,-684 198,-684"/>
<text text-anchor="middle" x="176" y="-663.5" font-family="sans" font-size="10.00">bwa_mem</text>
</g>
<!-- 1&#45;&gt;40 -->
<g id="edge78" class="edge">
<title>1&#45;&gt;40</title>
<path fill="none" stroke="grey" stroke-width="2" d="M739.73,-807.22C620.01,-801.63 271.92,-783.2 229,-756 206.55,-741.77 192.35,-714.3 184.37,-693.63"/>
<polygon fill="grey" stroke="grey" stroke-width="2" points="187.62,-692.33 180.93,-684.11 181.03,-694.71 187.62,-692.33"/>
</g>
<!-- 41 -->
<g id="node42" class="node">
<title>41</title>
<path fill="none" stroke="#568ad8" stroke-width="2" d="M488,-684C488,-684 444,-684 444,-684 438,-684 432,-678 432,-672 432,-672 432,-660 432,-660 432,-654 438,-648 444,-648 444,-648 488,-648 488,-648 494,-648 500,-654 500,-660 500,-660 500,-672 500,-672 500,-678 494,-684 488,-684"/>
<text text-anchor="middle" x="466" y="-663.5" font-family="sans" font-size="10.00">bwa_mem</text>
</g>
<!-- 1&#45;&gt;41 -->
<g id="edge81" class="edge">
<title>1&#45;&gt;41</title>
<path fill="none" stroke="grey" stroke-width="2" d="M739.83,-805.72C693.72,-800.57 617.02,-787.65 559,-756 557.97,-755.44 518.15,-717.2 490.96,-691.03"/>
<polygon fill="grey" stroke="grey" stroke-width="2" points="493.3,-688.43 483.66,-684.01 488.44,-693.47 493.3,-688.43"/>
</g>
<!-- 2 -->
<g id="node3" class="node">
<title>2</title>
<path fill="none" stroke="#d85656" stroke-width="2" d="M1330,-756C1330,-756 1274,-756 1274,-756 1268,-756 1262,-750 1262,-744 1262,-744 1262,-732 1262,-732 1262,-726 1268,-720 1274,-720 1274,-720 1330,-720 1330,-720 1336,-720 1342,-726 1342,-732 1342,-732 1342,-744 1342,-744 1342,-750 1336,-756 1330,-756"/>
<text text-anchor="middle" x="1302" y="-741" font-family="sans" font-size="10.00">trimmomatic</text>
<text text-anchor="middle" x="1302" y="-730" font-family="sans" font-size="10.00">library: DS2</text>
</g>
<!-- 2&#45;&gt;0 -->
<g id="edge2" class="edge">
<title>2&#45;&gt;0</title>
<path fill="none" stroke="grey" stroke-width="2" d="M1309.69,-719.91C1320.79,-693.62 1340,-641.45 1340,-595 1340,-595 1340,-595 1340,-377 1340,-255.06 1379.9,-229.12 1394,-108 1396.4,-87.4 1397.11,-63.95 1397.24,-46.29"/>
<polygon fill="grey" stroke="grey" stroke-width="2" points="1400.74,-46.13 1397.26,-36.12 1393.74,-46.12 1400.74,-46.13"/>
</g>
<!-- 4 -->
<g id="node5" class="node">
<title>4</title>
<path fill="none" stroke="#56a2d8" stroke-width="2" d="M605,-108C605,-108 575,-108 575,-108 569,-108 563,-102 563,-96 563,-96 563,-84 563,-84 563,-78 569,-72 575,-72 575,-72 605,-72 605,-72 611,-72 617,-78 617,-84 617,-84 617,-96 617,-96 617,-102 611,-108 605,-108"/>
<text text-anchor="middle" x="590" y="-87.5" font-family="sans" font-size="10.00">multiqc</text>
</g>
<!-- 2&#45;&gt;4 -->
<g id="edge14" class="edge">
<title>2&#45;&gt;4</title>
<path fill="none" stroke="grey" stroke-width="2" d="M1302,-719.95C1302,-693.29 1302,-640.11 1302,-595 1302,-595 1302,-595 1302,-377 1302,-304.89 1321.44,-276.36 1282,-216 1247.77,-163.61 1220.51,-163.37 1161,-144 1061.14,-111.5 738.06,-96.57 627.51,-92.33"/>
<polygon fill="grey" stroke="grey" stroke-width="2" points="627.31,-88.82 617.19,-91.94 627.05,-95.81 627.31,-88.82"/>
</g>
<!-- 2&#45;&gt;33 -->
<g id="edge68" class="edge">
<title>2&#45;&gt;33</title>
<path fill="none" stroke="grey" stroke-width="2" d="M1261.85,-728.97C1195.84,-715.77 1064.88,-689.58 996.27,-675.85"/>
<polygon fill="grey" stroke="grey" stroke-width="2" points="996.71,-672.37 986.21,-673.84 995.33,-679.24 996.71,-672.37"/>
</g>
<!-- 3&#45;&gt;0 -->
<g id="edge3" class="edge">
<title>3&#45;&gt;0</title>
<path fill="none" stroke="grey" stroke-width="2" d="M1125.69,-303.68C1172.1,-299.86 1237.55,-287.84 1282,-252 1349.06,-197.92 1380.07,-94.85 1391.49,-45.99"/>
<polygon fill="grey" stroke="grey" stroke-width="2" points="1394.93,-46.67 1393.7,-36.15 1388.1,-45.14 1394.93,-46.67"/>
</g>
<!-- 15 -->
<g id="node16" class="node">
<title>15</title>
<path fill="none" stroke="#56d8a2" stroke-width="2" d="M1261.5,-252C1261.5,-252 1194.5,-252 1194.5,-252 1188.5,-252 1182.5,-246 1182.5,-240 1182.5,-240 1182.5,-228 1182.5,-228 1182.5,-222 1188.5,-216 1194.5,-216 1194.5,-216 1261.5,-216 1261.5,-216 1267.5,-216 1273.5,-222 1273.5,-228 1273.5,-228 1273.5,-240 1273.5,-240 1273.5,-246 1267.5,-252 1261.5,-252"/>
<text text-anchor="middle" x="1228" y="-231.5" font-family="sans" font-size="10.00">samtools_stats</text>
</g>
<!-- 3&#45;&gt;15 -->
<g id="edge30" class="edge">
<title>3&#45;&gt;15</title>
<path fill="none" stroke="grey" stroke-width="2" d="M1108.65,-287.88C1130.25,-278.31 1157.35,-266.3 1180.27,-256.15"/>
<polygon fill="grey" stroke="grey" stroke-width="2" points="1181.75,-259.32 1189.47,-252.07 1178.91,-252.92 1181.75,-259.32"/>
</g>
<!-- 3&#45;&gt;18 -->
<g id="edge40" class="edge">
<title>3&#45;&gt;18</title>
<path fill="none" stroke="grey" stroke-width="2" d="M1079.13,-287.88C1084.01,-277.76 1089.51,-264.51 1092,-252 1096.14,-231.23 1091.98,-207.53 1087.15,-189.81"/>
<polygon fill="grey" stroke="grey" stroke-width="2" points="1090.48,-188.73 1084.28,-180.14 1083.77,-190.72 1090.48,-188.73"/>
</g>
<!-- 3&#45;&gt;19 -->
<g id="edge44" class="edge">
<title>3&#45;&gt;19</title>
<path fill="none" stroke="grey" stroke-width="2" d="M1014.42,-298.27C983.61,-291.61 947.16,-278.36 925,-252 910.68,-234.97 907.31,-209.51 907.16,-190.18"/>
<polygon fill="grey" stroke="grey" stroke-width="2" points="910.66,-190.23 907.36,-180.16 903.66,-190.09 910.66,-190.23"/>
</g>
<!-- 28 -->
<g id="node29" class="node">
<title>28</title>
<path fill="none" stroke="#bed856" stroke-width="2" d="M1037.5,-252C1037.5,-252 946.5,-252 946.5,-252 940.5,-252 934.5,-246 934.5,-240 934.5,-240 934.5,-228 934.5,-228 934.5,-222 940.5,-216 946.5,-216 946.5,-216 1037.5,-216 1037.5,-216 1043.5,-216 1049.5,-222 1049.5,-228 1049.5,-228 1049.5,-240 1049.5,-240 1049.5,-246 1043.5,-252 1037.5,-252"/>
<text text-anchor="middle" x="992" y="-231.5" font-family="sans" font-size="10.00">samtools_index_md</text>
</g>
<!-- 3&#45;&gt;28 -->
<g id="edge57" class="edge">
<title>3&#45;&gt;28</title>
<path fill="none" stroke="grey" stroke-width="2" d="M1050.72,-287.7C1041.08,-279.05 1029.27,-268.45 1018.77,-259.03"/>
<polygon fill="grey" stroke="grey" stroke-width="2" points="1020.84,-256.18 1011.06,-252.1 1016.16,-261.39 1020.84,-256.18"/>
</g>
<!-- 4&#45;&gt;0 -->
<g id="edge4" class="edge">
<title>4&#45;&gt;0</title>
<path fill="none" stroke="grey" stroke-width="2" d="M617.31,-86.63C737.66,-76.19 1220.8,-34.28 1359.56,-22.25"/>
<polygon fill="grey" stroke="grey" stroke-width="2" points="1360.03,-25.72 1369.69,-21.37 1359.43,-18.75 1360.03,-25.72"/>
</g>
<!-- 5&#45;&gt;3 -->
<g id="edge5" class="edge">
<title>5&#45;&gt;3</title>
<path fill="none" stroke="grey" stroke-width="2" d="M1038.38,-359.7C1043.26,-351.56 1049.19,-341.69 1054.58,-332.7"/>
<polygon fill="grey" stroke="grey" stroke-width="2" points="1057.59,-334.48 1059.74,-324.1 1051.59,-330.88 1057.59,-334.48"/>
</g>
<!-- 6&#45;&gt;4 -->
<g id="edge7" class="edge">
<title>6&#45;&gt;4</title>
<path fill="none" stroke="grey" stroke-width="2" d="M835.76,-503.93C837.09,-454.37 834.8,-308.19 768,-216 731.08,-165.04 666.8,-127.46 626.43,-107.43"/>
<polygon fill="grey" stroke="grey" stroke-width="2" points="627.73,-104.17 617.2,-102.96 624.67,-110.47 627.73,-104.17"/>
</g>
<!-- 7&#45;&gt;4 -->
<g id="edge8" class="edge">
<title>7&#45;&gt;4</title>
<path fill="none" stroke="grey" stroke-width="2" d="M1402.73,-575.78C1393.67,-549.32 1378,-496.92 1378,-451 1378,-451 1378,-451 1378,-305 1378,-228.32 1380.18,-185.96 1316,-144 1258.08,-106.13 767.76,-94.26 627.4,-91.63"/>
<polygon fill="grey" stroke="grey" stroke-width="2" points="627.22,-88.12 617.16,-91.44 627.09,-95.12 627.22,-88.12"/>
</g>
<!-- 8 -->
<g id="node9" class="node">
<title>8</title>
<path fill="none" stroke="#59d856" stroke-width="2" d="M213.5,-180C213.5,-180 172.5,-180 172.5,-180 166.5,-180 160.5,-174 160.5,-168 160.5,-168 160.5,-156 160.5,-156 160.5,-150 166.5,-144 172.5,-144 172.5,-144 213.5,-144 213.5,-144 219.5,-144 225.5,-150 225.5,-156 225.5,-156 225.5,-168 225.5,-168 225.5,-174 219.5,-180 213.5,-180"/>
<text text-anchor="middle" x="193" y="-165" font-family="sans" font-size="10.00">fastqc</text>
<text text-anchor="middle" x="193" y="-154" font-family="sans" font-size="10.00">library: T2</text>
</g>
<!-- 8&#45;&gt;4 -->
<g id="edge9" class="edge">
<title>8&#45;&gt;4</title>
<path fill="none" stroke="grey" stroke-width="2" d="M225.87,-146.56C228.59,-145.61 231.33,-144.74 234,-144 347.51,-112.53 486.88,-98.67 552.48,-93.55"/>
<polygon fill="grey" stroke="grey" stroke-width="2" points="553.03,-97.02 562.73,-92.77 552.5,-90.04 553.03,-97.02"/>
</g>
<!-- 9 -->
<g id="node10" class="node">
<title>9</title>
<path fill="none" stroke="#59d856" stroke-width="2" d="M296.5,-180C296.5,-180 255.5,-180 255.5,-180 249.5,-180 243.5,-174 243.5,-168 243.5,-168 243.5,-156 243.5,-156 243.5,-150 249.5,-144 255.5,-144 255.5,-144 296.5,-144 296.5,-144 302.5,-144 308.5,-150 308.5,-156 308.5,-156 308.5,-168 308.5,-168 308.5,-174 302.5,-180 296.5,-180"/>
<text text-anchor="middle" x="276" y="-165" font-family="sans" font-size="10.00">fastqc</text>
<text text-anchor="middle" x="276" y="-154" font-family="sans" font-size="10.00">library: T3</text>
</g>
<!-- 9&#45;&gt;4 -->
<g id="edge10" class="edge">
<title>9&#45;&gt;4</title>
<path fill="none" stroke="grey" stroke-width="2" d="M308.91,-146.69C311.62,-145.71 314.34,-144.8 317,-144 399.57,-119.14 499.8,-103.17 552.86,-95.79"/>
<polygon fill="grey" stroke="grey" stroke-width="2" points="553.39,-99.25 562.83,-94.43 552.44,-92.31 553.39,-99.25"/>
</g>
<!-- 10 -->
<g id="node11" class="node">
<title>10</title>
<path fill="none" stroke="#59d856" stroke-width="2" d="M387.5,-180C387.5,-180 338.5,-180 338.5,-180 332.5,-180 326.5,-174 326.5,-168 326.5,-168 326.5,-156 326.5,-156 326.5,-150 332.5,-144 338.5,-144 338.5,-144 387.5,-144 387.5,-144 393.5,-144 399.5,-150 399.5,-156 399.5,-156 399.5,-168 399.5,-168 399.5,-174 393.5,-180 387.5,-180"/>
<text text-anchor="middle" x="363" y="-165" font-family="sans" font-size="10.00">fastqc</text>
<text text-anchor="middle" x="363" y="-154" font-family="sans" font-size="10.00">library: DS2</text>
</g>
<!-- 10&#45;&gt;4 -->
<g id="edge11" class="edge">
<title>10&#45;&gt;4</title>
<path fill="none" stroke="grey" stroke-width="2" d="M399.75,-146.85C402.54,-145.86 405.31,-144.9 408,-144 457.79,-127.37 516.19,-110.89 553.14,-100.83"/>
<polygon fill="grey" stroke="grey" stroke-width="2" points="554.23,-104.16 562.97,-98.16 552.4,-97.4 554.23,-104.16"/>
</g>
<!-- 11 -->
<g id="node12" class="node">
<title>11</title>
<path fill="none" stroke="#d85656" stroke-width="2" d="M158,-756C158,-756 102,-756 102,-756 96,-756 90,-750 90,-744 90,-744 90,-732 90,-732 90,-726 96,-720 102,-720 102,-720 158,-720 158,-720 164,-720 170,-726 170,-732 170,-732 170,-744 170,-744 170,-750 164,-756 158,-756"/>
<text text-anchor="middle" x="130" y="-741" font-family="sans" font-size="10.00">trimmomatic</text>
<text text-anchor="middle" x="130" y="-730" font-family="sans" font-size="10.00">library: T2</text>
</g>
<!-- 11&#45;&gt;4 -->
<g id="edge12" class="edge">
<title>11&#45;&gt;4</title>
<path fill="none" stroke="grey" stroke-width="2" d="M118.92,-719.93C87.48,-669.81 0,-517.86 0,-379 0,-379 0,-379 0,-233 0,-186.27 16.26,-168.59 56,-144 139.29,-92.47 445.96,-89.83 552.91,-90.54"/>
<polygon fill="grey" stroke="grey" stroke-width="2" points="552.89,-94.04 562.91,-90.62 552.94,-87.04 552.89,-94.04"/>
</g>
<!-- 11&#45;&gt;40 -->
<g id="edge79" class="edge">
<title>11&#45;&gt;40</title>
<path fill="none" stroke="grey" stroke-width="2" d="M141.37,-719.7C146.72,-711.56 153.2,-701.69 159.11,-692.7"/>
<polygon fill="grey" stroke="grey" stroke-width="2" points="162.19,-694.38 164.76,-684.1 156.34,-690.54 162.19,-694.38"/>
</g>
<!-- 12 -->
<g id="node13" class="node">
<title>12</title>
<path fill="none" stroke="#d85656" stroke-width="2" d="M500,-756C500,-756 444,-756 444,-756 438,-756 432,-750 432,-744 432,-744 432,-732 432,-732 432,-726 438,-720 444,-720 444,-720 500,-720 500,-720 506,-720 512,-726 512,-732 512,-732 512,-744 512,-744 512,-750 506,-756 500,-756"/>
<text text-anchor="middle" x="472" y="-741" font-family="sans" font-size="10.00">trimmomatic</text>
<text text-anchor="middle" x="472" y="-730" font-family="sans" font-size="10.00">library: T3</text>
</g>
<!-- 12&#45;&gt;4 -->
<g id="edge13" class="edge">
<title>12&#45;&gt;4</title>
<path fill="none" stroke="grey" stroke-width="2" d="M449.98,-719.9C408.13,-688.05 313.39,-618.97 225,-576 180.25,-554.25 156.54,-572.66 119,-540 58.57,-487.42 38,-459.1 38,-379 38,-379 38,-379 38,-233 38,-178.61 73.35,-168.32 122,-144 197.52,-106.25 455.74,-94.92 552.76,-91.94"/>
<polygon fill="grey" stroke="grey" stroke-width="2" points="553.08,-95.44 562.97,-91.64 552.87,-88.44 553.08,-95.44"/>
</g>
<!-- 12&#45;&gt;41 -->
<g id="edge82" class="edge">
<title>12&#45;&gt;41</title>
<path fill="none" stroke="grey" stroke-width="2" d="M470.52,-719.7C469.86,-711.98 469.06,-702.71 468.32,-694.11"/>
<polygon fill="grey" stroke="grey" stroke-width="2" points="471.81,-693.77 467.47,-684.1 464.83,-694.37 471.81,-693.77"/>
</g>
<!-- 13 -->
<g id="node14" class="node">
<title>13</title>
<path fill="none" stroke="#56d8a2" stroke-width="2" d="M145.5,-252C145.5,-252 78.5,-252 78.5,-252 72.5,-252 66.5,-246 66.5,-240 66.5,-240 66.5,-228 66.5,-228 66.5,-222 72.5,-216 78.5,-216 78.5,-216 145.5,-216 145.5,-216 151.5,-216 157.5,-222 157.5,-228 157.5,-228 157.5,-240 157.5,-240 157.5,-246 151.5,-252 145.5,-252"/>
<text text-anchor="middle" x="112" y="-231.5" font-family="sans" font-size="10.00">samtools_stats</text>
</g>
<!-- 13&#45;&gt;4 -->
<g id="edge15" class="edge">
<title>13&#45;&gt;4</title>
<path fill="none" stroke="grey" stroke-width="2" d="M114.38,-215.77C118.22,-195.13 127.84,-161.2 151,-144 214.27,-97 458.48,-91.3 552.66,-90.88"/>
<polygon fill="grey" stroke="grey" stroke-width="2" points="552.87,-94.38 562.86,-90.86 552.85,-87.38 552.87,-94.38"/>
</g>
<!-- 14 -->
<g id="node15" class="node">
<title>14</title>
<path fill="none" stroke="#56d8a2" stroke-width="2" d="M503.5,-252C503.5,-252 436.5,-252 436.5,-252 430.5,-252 424.5,-246 424.5,-240 424.5,-240 424.5,-228 424.5,-228 424.5,-222 430.5,-216 436.5,-216 436.5,-216 503.5,-216 503.5,-216 509.5,-216 515.5,-222 515.5,-228 515.5,-228 515.5,-240 515.5,-240 515.5,-246 509.5,-252 503.5,-252"/>
<text text-anchor="middle" x="470" y="-231.5" font-family="sans" font-size="10.00">samtools_stats</text>
</g>
<!-- 14&#45;&gt;4 -->
<g id="edge16" class="edge">
<title>14&#45;&gt;4</title>
<path fill="none" stroke="grey" stroke-width="2" d="M484.47,-215.87C505.47,-191.03 544.5,-144.85 568.75,-116.14"/>
<polygon fill="grey" stroke="grey" stroke-width="2" points="571.69,-118.09 575.47,-108.19 566.35,-113.57 571.69,-118.09"/>
</g>
<!-- 15&#45;&gt;4 -->
<g id="edge17" class="edge">
<title>15&#45;&gt;4</title>
<path fill="none" stroke="grey" stroke-width="2" d="M1213.04,-215.73C1193.69,-194.72 1157.83,-160.06 1119,-144 1029.74,-107.07 732.8,-95.1 627.46,-91.96"/>
<polygon fill="grey" stroke="grey" stroke-width="2" points="627.4,-88.46 617.3,-91.67 627.2,-95.45 627.4,-88.46"/>
</g>
<!-- 16&#45;&gt;4 -->
<g id="edge18" class="edge">
<title>16&#45;&gt;4</title>
<path fill="none" stroke="grey" stroke-width="2" d="M482.82,-144.59C504.04,-133.98 531.67,-120.16 553.57,-109.22"/>
<polygon fill="grey" stroke="grey" stroke-width="2" points="555.18,-112.32 562.56,-104.72 552.05,-106.06 555.18,-112.32"/>
</g>
<!-- 17&#45;&gt;4 -->
<g id="edge19" class="edge">
<title>17&#45;&gt;4</title>
<path fill="none" stroke="grey" stroke-width="2" d="M620.11,-143.7C615.51,-135.64 609.94,-125.89 604.85,-116.98"/>
<polygon fill="grey" stroke="grey" stroke-width="2" points="607.77,-115.05 599.77,-108.1 601.7,-118.52 607.77,-115.05"/>
</g>
<!-- 18&#45;&gt;4 -->
<g id="edge20" class="edge">
<title>18&#45;&gt;4</title>
<path fill="none" stroke="grey" stroke-width="2" d="M1045.24,-155.63C1024.08,-152.2 995.93,-147.71 971,-144 845.29,-125.27 695.92,-105.1 627.55,-95.98"/>
<polygon fill="grey" stroke="grey" stroke-width="2" points="627.66,-92.46 617.28,-94.61 626.73,-99.4 627.66,-92.46"/>
</g>
<!-- 19&#45;&gt;4 -->
<g id="edge21" class="edge">
<title>19&#45;&gt;4</title>
<path fill="none" stroke="grey" stroke-width="2" d="M855.22,-147.36C850.42,-146.2 845.62,-145.07 841,-144 765.23,-126.54 676.07,-108.24 627.02,-98.37"/>
<polygon fill="grey" stroke="grey" stroke-width="2" points="627.68,-94.94 617.19,-96.4 626.3,-101.8 627.68,-94.94"/>
</g>
<!-- 20 -->
<g id="node21" class="node">
<title>20</title>
<path fill="none" stroke="#70d856" stroke-width="2" d="M1016,-540C1016,-540 954,-540 954,-540 948,-540 942,-534 942,-528 942,-528 942,-516 942,-516 942,-510 948,-504 954,-504 954,-504 1016,-504 1016,-504 1022,-504 1028,-510 1028,-516 1028,-516 1028,-528 1028,-528 1028,-534 1022,-540 1016,-540"/>
<text text-anchor="middle" x="985" y="-519.5" font-family="sans" font-size="10.00">samtools_sort</text>
</g>
<!-- 20&#45;&gt;5 -->
<g id="edge22" class="edge">
<title>20&#45;&gt;5</title>
<path fill="none" stroke="grey" stroke-width="2" d="M1000.2,-503.64C1007.84,-493.86 1016.43,-481.01 1021,-468 1027.96,-448.17 1029.51,-424.37 1029.43,-406.37"/>
<polygon fill="grey" stroke="grey" stroke-width="2" points="1032.93,-406.19 1029.21,-396.27 1025.93,-406.34 1032.93,-406.19"/>
</g>
<!-- 21 -->
<g id="node22" class="node">
<title>21</title>
<path fill="none" stroke="#56d8d8" stroke-width="2" d="M1000,-468C1000,-468 930,-468 930,-468 924,-468 918,-462 918,-456 918,-456 918,-444 918,-444 918,-438 924,-432 930,-432 930,-432 1000,-432 1000,-432 1006,-432 1012,-438 1012,-444 1012,-444 1012,-456 1012,-456 1012,-462 1006,-468 1000,-468"/>
<text text-anchor="middle" x="965" y="-447.5" font-family="sans" font-size="10.00">samtools_index</text>
</g>
<!-- 20&#45;&gt;21 -->
<g id="edge48" class="edge">
<title>20&#45;&gt;21</title>
<path fill="none" stroke="grey" stroke-width="2" d="M980.06,-503.7C977.83,-495.9 975.15,-486.51 972.67,-477.83"/>
<polygon fill="grey" stroke="grey" stroke-width="2" points="976,-476.76 969.89,-468.1 969.27,-478.68 976,-476.76"/>
</g>
<!-- 21&#45;&gt;5 -->
<g id="edge24" class="edge">
<title>21&#45;&gt;5</title>
<path fill="none" stroke="grey" stroke-width="2" d="M980.57,-431.7C988.2,-423.22 997.52,-412.86 1005.88,-403.58"/>
<polygon fill="grey" stroke="grey" stroke-width="2" points="1008.52,-405.88 1012.61,-396.1 1003.31,-401.2 1008.52,-405.88"/>
</g>
<!-- 22 -->
<g id="node23" class="node">
<title>22</title>
<path fill="none" stroke="#5673d8" stroke-width="2" d="M1528,-684C1528,-684 1418,-684 1418,-684 1412,-684 1406,-678 1406,-672 1406,-672 1406,-660 1406,-660 1406,-654 1412,-648 1418,-648 1418,-648 1528,-648 1528,-648 1534,-648 1540,-654 1540,-660 1540,-660 1540,-672 1540,-672 1540,-678 1534,-684 1528,-684"/>
<text text-anchor="middle" x="1473" y="-663.5" font-family="sans" font-size="10.00">bedtools_makewindows</text>
</g>
<!-- 22&#45;&gt;7 -->
<g id="edge27" class="edge">
<title>22&#45;&gt;7</title>
<path fill="none" stroke="grey" stroke-width="2" d="M1457.18,-647.7C1449.43,-639.22 1439.96,-628.86 1431.48,-619.58"/>
<polygon fill="grey" stroke="grey" stroke-width="2" points="1433.97,-617.12 1424.64,-612.1 1428.8,-621.85 1433.97,-617.12"/>
</g>
<!-- 23&#45;&gt;13 -->
<g id="edge28" class="edge">
<title>23&#45;&gt;13</title>
<path fill="none" stroke="grey" stroke-width="2" d="M167.71,-287.7C158.57,-279.05 147.36,-268.45 137.4,-259.03"/>
<polygon fill="grey" stroke="grey" stroke-width="2" points="139.75,-256.43 130.08,-252.1 134.94,-261.52 139.75,-256.43"/>
</g>
<!-- 23&#45;&gt;16 -->
<g id="edge32" class="edge">
<title>23&#45;&gt;16</title>
<path fill="none" stroke="grey" stroke-width="2" d="M184.45,-287.93C183.64,-267.78 185.68,-234.66 205,-216 268.66,-154.52 316.57,-201.84 407.41,-179.65"/>
<polygon fill="grey" stroke="grey" stroke-width="2" points="408.46,-182.99 417.21,-177.03 406.65,-176.23 408.46,-182.99"/>
</g>
<!-- 26 -->
<g id="node27" class="node">
<title>26</title>
<path fill="none" stroke="#bed856" stroke-width="2" d="M317.5,-252C317.5,-252 226.5,-252 226.5,-252 220.5,-252 214.5,-246 214.5,-240 214.5,-240 214.5,-228 214.5,-228 214.5,-222 220.5,-216 226.5,-216 226.5,-216 317.5,-216 317.5,-216 323.5,-216 329.5,-222 329.5,-228 329.5,-228 329.5,-240 329.5,-240 329.5,-246 323.5,-252 317.5,-252"/>
<text text-anchor="middle" x="272" y="-231.5" font-family="sans" font-size="10.00">samtools_index_md</text>
</g>
<!-- 23&#45;&gt;26 -->
<g id="edge55" class="edge">
<title>23&#45;&gt;26</title>
<path fill="none" stroke="grey" stroke-width="2" d="M207.26,-287.7C218.09,-278.88 231.42,-268.03 243.16,-258.47"/>
<polygon fill="grey" stroke="grey" stroke-width="2" points="245.44,-261.13 250.99,-252.1 241.02,-255.7 245.44,-261.13"/>
</g>
<!-- 24&#45;&gt;14 -->
<g id="edge29" class="edge">
<title>24&#45;&gt;14</title>
<path fill="none" stroke="grey" stroke-width="2" d="M590.86,-287.88C568.99,-278.31 541.54,-266.3 518.34,-256.15"/>
<polygon fill="grey" stroke="grey" stroke-width="2" points="519.58,-252.87 509.01,-252.07 516.77,-259.28 519.58,-252.87"/>
</g>
<!-- 24&#45;&gt;17 -->
<g id="edge36" class="edge">
<title>24&#45;&gt;17</title>
<path fill="none" stroke="grey" stroke-width="2" d="M662.05,-287.88C675.12,-279.05 688.82,-266.97 696,-252 702.92,-237.57 702.92,-230.43 696,-216 690.33,-204.18 680.61,-194.17 670.34,-186.14"/>
<polygon fill="grey" stroke="grey" stroke-width="2" points="672.2,-183.16 662.05,-180.12 668.09,-188.83 672.2,-183.16"/>
</g>
<!-- 27 -->
<g id="node28" class="node">
<title>27</title>
<path fill="none" stroke="#bed856" stroke-width="2" d="M675.5,-252C675.5,-252 584.5,-252 584.5,-252 578.5,-252 572.5,-246 572.5,-240 572.5,-240 572.5,-228 572.5,-228 572.5,-222 578.5,-216 584.5,-216 584.5,-216 675.5,-216 675.5,-216 681.5,-216 687.5,-222 687.5,-228 687.5,-228 687.5,-240 687.5,-240 687.5,-246 681.5,-252 675.5,-252"/>
<text text-anchor="middle" x="630" y="-231.5" font-family="sans" font-size="10.00">samtools_index_md</text>
</g>
<!-- 24&#45;&gt;27 -->
<g id="edge56" class="edge">
<title>24&#45;&gt;27</title>
<path fill="none" stroke="grey" stroke-width="2" d="M630,-287.7C630,-279.98 630,-270.71 630,-262.11"/>
<polygon fill="grey" stroke="grey" stroke-width="2" points="633.5,-262.1 630,-252.1 626.5,-262.1 633.5,-262.1"/>
</g>
<!-- 25&#45;&gt;16 -->
<g id="edge33" class="edge">
<title>25&#45;&gt;16</title>
<path fill="none" stroke="grey" stroke-width="2" d="M579.46,-719.85C567.3,-710.22 552.8,-697.46 542,-684 519.23,-655.61 517.27,-645.48 503,-612 457.26,-504.66 418.03,-279.18 415,-252 413.23,-236.1 410.4,-231.32 415,-216 417.92,-206.28 423.26,-196.7 428.91,-188.41"/>
<polygon fill="grey" stroke="grey" stroke-width="2" points="431.76,-190.44 434.82,-180.3 426.1,-186.32 431.76,-190.44"/>
</g>
<!-- 25&#45;&gt;17 -->
<g id="edge37" class="edge">
<title>25&#45;&gt;17</title>
<path fill="none" stroke="grey" stroke-width="2" d="M591.17,-719.85C568.56,-687.02 521.23,-617.95 519,-612 479.53,-506.5 466.43,-469.7 492,-360 508.2,-290.51 518.14,-271.49 563,-216 571.99,-204.88 583.71,-194.62 594.83,-186.14"/>
<polygon fill="grey" stroke="grey" stroke-width="2" points="597.18,-188.77 603.17,-180.03 593.03,-183.12 597.18,-188.77"/>
</g>
<!-- 25&#45;&gt;18 -->
<g id="edge41" class="edge">
<title>25&#45;&gt;18</title>
<path fill="none" stroke="grey" stroke-width="2" d="M626.17,-719.87C655.99,-695.66 704,-648.4 704,-595 704,-595 704,-595 704,-521 704,-351.82 868.07,-387.35 1005,-288 1028.05,-271.28 1041.98,-275.54 1058,-252 1070.42,-233.75 1075.25,-208.98 1077.06,-190.21"/>
<polygon fill="grey" stroke="grey" stroke-width="2" points="1080.56,-190.44 1077.81,-180.21 1073.57,-189.92 1080.56,-190.44"/>
</g>
<!-- 25&#45;&gt;19 -->
<g id="edge45" class="edge">
<title>25&#45;&gt;19</title>
<path fill="none" stroke="grey" stroke-width="2" d="M606.6,-719.72C616.71,-672.56 647.43,-538.03 690,-432 703.48,-398.42 707.5,-389.82 728,-360 775.16,-291.39 845.02,-222.28 882.67,-187"/>
<polygon fill="grey" stroke="grey" stroke-width="2" points="885.25,-189.38 890.19,-180 880.49,-184.25 885.25,-189.38"/>
</g>
<!-- 25&#45;&gt;33 -->
<g id="edge69" class="edge">
<title>25&#45;&gt;33</title>
<path fill="none" stroke="grey" stroke-width="2" d="M637.74,-730.03C701.66,-717.21 837.8,-689.9 908.05,-675.82"/>
<polygon fill="grey" stroke="grey" stroke-width="2" points="908.8,-679.23 917.92,-673.84 907.42,-672.37 908.8,-679.23"/>
</g>
<!-- 25&#45;&gt;40 -->
<g id="edge80" class="edge">
<title>25&#45;&gt;40</title>
<path fill="none" stroke="grey" stroke-width="2" d="M568.37,-729.4C553.78,-726.31 536.6,-722.81 521,-720 413.44,-700.6 286.2,-682.23 220.4,-673.07"/>
<polygon fill="grey" stroke="grey" stroke-width="2" points="220.76,-669.58 210.38,-671.68 219.8,-676.52 220.76,-669.58"/>
</g>
<!-- 25&#45;&gt;41 -->
<g id="edge83" class="edge">
<title>25&#45;&gt;41</title>
<path fill="none" stroke="grey" stroke-width="2" d="M569.49,-719.88C551.16,-710.51 528.26,-698.81 508.67,-688.8"/>
<polygon fill="grey" stroke="grey" stroke-width="2" points="510.14,-685.62 499.64,-684.19 506.96,-691.86 510.14,-685.62"/>
</g>
<!-- 26&#45;&gt;16 -->
<g id="edge34" class="edge">
<title>26&#45;&gt;16</title>
<path fill="none" stroke="grey" stroke-width="2" d="M316.16,-215.96C342.79,-205.64 377.38,-192.16 408,-180 408.1,-179.96 408.19,-179.92 408.29,-179.89"/>
<polygon fill="grey" stroke="grey" stroke-width="2" points="409.47,-183.18 417.46,-176.22 406.87,-176.68 409.47,-183.18"/>
</g>
<!-- 27&#45;&gt;17 -->
<g id="edge38" class="edge">
<title>27&#45;&gt;17</title>
<path fill="none" stroke="grey" stroke-width="2" d="M630,-215.7C630,-207.98 630,-198.71 630,-190.11"/>
<polygon fill="grey" stroke="grey" stroke-width="2" points="633.5,-190.1 630,-180.1 626.5,-190.1 633.5,-190.1"/>
</g>
<!-- 28&#45;&gt;18 -->
<g id="edge42" class="edge">
<title>28&#45;&gt;18</title>
<path fill="none" stroke="grey" stroke-width="2" d="M1013.26,-215.7C1024.09,-206.88 1037.42,-196.03 1049.16,-186.47"/>
<polygon fill="grey" stroke="grey" stroke-width="2" points="1051.44,-189.13 1056.99,-180.1 1047.02,-183.7 1051.44,-189.13"/>
</g>
<!-- 28&#45;&gt;19 -->
<g id="edge46" class="edge">
<title>28&#45;&gt;19</title>
<path fill="none" stroke="grey" stroke-width="2" d="M971.48,-215.7C961.13,-206.97 948.41,-196.24 937.16,-186.75"/>
<polygon fill="grey" stroke="grey" stroke-width="2" points="939.18,-183.88 929.28,-180.1 934.67,-189.23 939.18,-183.88"/>
</g>
<!-- 29&#45;&gt;20 -->
<g id="edge47" class="edge">
<title>29&#45;&gt;20</title>
<path fill="none" stroke="grey" stroke-width="2" d="M985,-575.7C985,-567.98 985,-558.71 985,-550.11"/>
<polygon fill="grey" stroke="grey" stroke-width="2" points="988.5,-550.1 985,-540.1 981.5,-550.1 988.5,-550.1"/>
</g>
<!-- 30&#45;&gt;22 -->
<g id="edge49" class="edge">
<title>30&#45;&gt;22</title>
<path fill="none" stroke="grey" stroke-width="2" d="M1465.47,-719.7C1466.57,-711.98 1467.9,-702.71 1469.13,-694.11"/>
<polygon fill="grey" stroke="grey" stroke-width="2" points="1472.61,-694.5 1470.56,-684.1 1465.68,-693.51 1472.61,-694.5"/>
</g>
<!-- 31&#45;&gt;23 -->
<g id="edge50" class="edge">
<title>31&#45;&gt;23</title>
<path fill="none" stroke="grey" stroke-width="2" d="M176.21,-359.7C177.65,-351.98 179.37,-342.71 180.96,-334.11"/>
<polygon fill="grey" stroke="grey" stroke-width="2" points="184.44,-334.58 182.82,-324.1 177.56,-333.3 184.44,-334.58"/>
</g>
<!-- 32&#45;&gt;24 -->
<g id="edge52" class="edge">
<title>32&#45;&gt;24</title>
<path fill="none" stroke="grey" stroke-width="2" d="M578.06,-359.7C586.5,-351.14 596.82,-340.66 606.04,-331.3"/>
<polygon fill="grey" stroke="grey" stroke-width="2" points="608.61,-333.68 613.14,-324.1 603.63,-328.77 608.61,-333.68"/>
</g>
<!-- 33&#45;&gt;29 -->
<g id="edge58" class="edge">
<title>33&#45;&gt;29</title>
<path fill="none" stroke="grey" stroke-width="2" d="M960.16,-647.7C963.91,-639.73 968.45,-630.1 972.62,-621.26"/>
<polygon fill="grey" stroke="grey" stroke-width="2" points="975.84,-622.64 976.94,-612.1 969.51,-619.66 975.84,-622.64"/>
</g>
<!-- 34 -->
<g id="node35" class="node">
<title>34</title>
<path fill="none" stroke="#70d856" stroke-width="2" d="M202,-540C202,-540 140,-540 140,-540 134,-540 128,-534 128,-528 128,-528 128,-516 128,-516 128,-510 134,-504 140,-504 140,-504 202,-504 202,-504 208,-504 214,-510 214,-516 214,-516 214,-528 214,-528 214,-534 208,-540 202,-540"/>
<text text-anchor="middle" x="171" y="-519.5" font-family="sans" font-size="10.00">samtools_sort</text>
</g>
<!-- 34&#45;&gt;31 -->
<g id="edge61" class="edge">
<title>34&#45;&gt;31</title>
<path fill="none" stroke="grey" stroke-width="2" d="M191.38,-503.53C200.81,-494.09 211.01,-481.6 216,-468 221.52,-452.98 221.35,-447.08 216,-432 212.34,-421.68 205.71,-411.9 198.74,-403.61"/>
<polygon fill="grey" stroke="grey" stroke-width="2" points="201.33,-401.26 192.04,-396.16 196.13,-405.94 201.33,-401.26"/>
</g>
<!-- 35 -->
<g id="node36" class="node">
<title>35</title>
<path fill="none" stroke="#56d8d8" stroke-width="2" d="M195,-468C195,-468 125,-468 125,-468 119,-468 113,-462 113,-456 113,-456 113,-444 113,-444 113,-438 119,-432 125,-432 125,-432 195,-432 195,-432 201,-432 207,-438 207,-444 207,-444 207,-456 207,-456 207,-462 201,-468 195,-468"/>
<text text-anchor="middle" x="160" y="-447.5" font-family="sans" font-size="10.00">samtools_index</text>
</g>
<!-- 34&#45;&gt;35 -->
<g id="edge71" class="edge">
<title>34&#45;&gt;35</title>
<path fill="none" stroke="grey" stroke-width="2" d="M168.28,-503.7C167.07,-495.98 165.61,-486.71 164.26,-478.11"/>
<polygon fill="grey" stroke="grey" stroke-width="2" points="167.7,-477.44 162.69,-468.1 160.78,-478.53 167.7,-477.44"/>
</g>
<!-- 35&#45;&gt;31 -->
<g id="edge63" class="edge">
<title>35&#45;&gt;31</title>
<path fill="none" stroke="grey" stroke-width="2" d="M163.21,-431.7C164.65,-423.98 166.37,-414.71 167.96,-406.11"/>
<polygon fill="grey" stroke="grey" stroke-width="2" points="171.44,-406.58 169.82,-396.1 164.56,-405.3 171.44,-406.58"/>
</g>
<!-- 36 -->
<g id="node37" class="node">
<title>36</title>
<path fill="none" stroke="#70d856" stroke-width="2" d="M604,-540C604,-540 542,-540 542,-540 536,-540 530,-534 530,-528 530,-528 530,-516 530,-516 530,-510 536,-504 542,-504 542,-504 604,-504 604,-504 610,-504 616,-510 616,-516 616,-516 616,-528 616,-528 616,-534 610,-540 604,-540"/>
<text text-anchor="middle" x="573" y="-519.5" font-family="sans" font-size="10.00">samtools_sort</text>
</g>
<!-- 36&#45;&gt;32 -->
<g id="edge64" class="edge">
<title>36&#45;&gt;32</title>
<path fill="none" stroke="grey" stroke-width="2" d="M556.54,-503.92C548.35,-494.22 539.3,-481.37 535,-468 528.27,-447.05 536.14,-423.1 544.93,-405.33"/>
<polygon fill="grey" stroke="grey" stroke-width="2" points="548.21,-406.62 549.83,-396.14 542.04,-403.32 548.21,-406.62"/>
</g>
<!-- 37 -->
<g id="node38" class="node">
<title>37</title>
<path fill="none" stroke="#56d8d8" stroke-width="2" d="M626,-468C626,-468 556,-468 556,-468 550,-468 544,-462 544,-456 544,-456 544,-444 544,-444 544,-438 550,-432 556,-432 556,-432 626,-432 626,-432 632,-432 638,-438 638,-444 638,-444 638,-456 638,-456 638,-462 632,-468 626,-468"/>
<text text-anchor="middle" x="591" y="-447.5" font-family="sans" font-size="10.00">samtools_index</text>
</g>
<!-- 36&#45;&gt;37 -->
<g id="edge73" class="edge">
<title>36&#45;&gt;37</title>
<path fill="none" stroke="grey" stroke-width="2" d="M577.45,-503.7C579.45,-495.9 581.87,-486.51 584.1,-477.83"/>
<polygon fill="grey" stroke="grey" stroke-width="2" points="587.5,-478.66 586.6,-468.1 580.72,-476.92 587.5,-478.66"/>
</g>
<!-- 37&#45;&gt;32 -->
<g id="edge66" class="edge">
<title>37&#45;&gt;32</title>
<path fill="none" stroke="grey" stroke-width="2" d="M583.58,-431.7C580.21,-423.81 576.13,-414.3 572.38,-405.55"/>
<polygon fill="grey" stroke="grey" stroke-width="2" points="575.49,-403.92 568.33,-396.1 569.05,-406.67 575.49,-403.92"/>
</g>
<!-- 38&#45;&gt;34 -->
<g id="edge70" class="edge">
<title>38&#45;&gt;34</title>
<path fill="none" stroke="grey" stroke-width="2" d="M171,-575.7C171,-567.98 171,-558.71 171,-550.11"/>
<polygon fill="grey" stroke="grey" stroke-width="2" points="174.5,-550.1 171,-540.1 167.5,-550.1 174.5,-550.1"/>
</g>
<!-- 39&#45;&gt;36 -->
<g id="edge72" class="edge">
<title>39&#45;&gt;36</title>
<path fill="none" stroke="grey" stroke-width="2" d="M573,-575.7C573,-567.98 573,-558.71 573,-550.11"/>
<polygon fill="grey" stroke="grey" stroke-width="2" points="576.5,-550.1 573,-540.1 569.5,-550.1 576.5,-550.1"/>
</g>
<!-- 40&#45;&gt;38 -->
<g id="edge74" class="edge">
<title>40&#45;&gt;38</title>
<path fill="none" stroke="grey" stroke-width="2" d="M174.76,-647.7C174.21,-639.98 173.55,-630.71 172.94,-622.11"/>
<polygon fill="grey" stroke="grey" stroke-width="2" points="176.43,-621.83 172.22,-612.1 169.44,-622.33 176.43,-621.83"/>
</g>
<!-- 41&#45;&gt;39 -->
<g id="edge76" class="edge">
<title>41&#45;&gt;39</title>
<path fill="none" stroke="grey" stroke-width="2" d="M492.18,-647.88C506.04,-638.81 523.24,-627.55 538.21,-617.76"/>
<polygon fill="grey" stroke="grey" stroke-width="2" points="540.27,-620.59 546.72,-612.19 536.44,-614.74 540.27,-620.59"/>
</g>
</g>
</svg>
