<?xml version="1.0" encoding="UTF-8" standalone="no"?>
<!DOCTYPE svg PUBLIC "-//W3C//DTD SVG 1.1//EN"
 "http://www.w3.org/Graphics/SVG/1.1/DTD/svg11.dtd">
<!-- Generated by graphviz version 2.43.0 (0)
 -->
<!-- Title: snakemake_dag Pages: 1 -->
<svg width="455pt" height="620pt"
 viewBox="0.00 0.00 455.00 620.00" xmlns="http://www.w3.org/2000/svg" xmlns:xlink="http://www.w3.org/1999/xlink">
<g id="graph0" class="graph" transform="scale(1 1) rotate(0) translate(4 616)">
<title>snakemake_dag</title>
<polygon fill="white" stroke="transparent" points="-4,4 -4,-616 451,-616 451,4 -4,4"/>
<!-- 0 -->
<g id="node1" class="node">
<title>0</title>
<path fill="none" stroke="#d85656" stroke-width="2" d="M273,-36C273,-36 243,-36 243,-36 237,-36 231,-30 231,-24 231,-24 231,-12 231,-12 231,-6 237,0 243,0 243,0 273,0 273,0 279,0 285,-6 285,-12 285,-12 285,-24 285,-24 285,-30 279,-36 273,-36"/>
<text text-anchor="middle" x="258" y="-15.5" font-family="sans" font-size="10.00">all</text>
</g>
<!-- 1 -->
<g id="node2" class="node">
<title>1</title>
<path fill="none" stroke="#56d87b" stroke-width="2" d="M270.5,-252C270.5,-252 175.5,-252 175.5,-252 169.5,-252 163.5,-246 163.5,-240 163.5,-240 163.5,-228 163.5,-228 163.5,-222 169.5,-216 175.5,-216 175.5,-216 270.5,-216 270.5,-216 276.5,-216 282.5,-222 282.5,-228 282.5,-228 282.5,-240 282.5,-240 282.5,-246 276.5,-252 270.5,-252"/>
<text text-anchor="middle" x="223" y="-231.5" font-family="sans" font-size="10.00">gatk_markduplicates</text>
</g>
<!-- 1&#45;&gt;0 -->
<g id="edge1" class="edge">
<title>1&#45;&gt;0</title>
<path fill="none" stroke="grey" stroke-width="2" d="M282.79,-218.78C302.9,-210.84 323.21,-198.63 335,-180 364,-134.2 317.39,-75.79 284.97,-43.41"/>
<polygon fill="grey" stroke="grey" stroke-width="2" points="287.11,-40.6 277.5,-36.14 282.23,-45.62 287.11,-40.6"/>
</g>
<!-- 2 -->
<g id="node3" class="node">
<title>2</title>
<path fill="none" stroke="#d6d856" stroke-width="2" d="M178,-108C178,-108 148,-108 148,-108 142,-108 136,-102 136,-96 136,-96 136,-84 136,-84 136,-78 142,-72 148,-72 148,-72 178,-72 178,-72 184,-72 190,-78 190,-84 190,-84 190,-96 190,-96 190,-102 184,-108 178,-108"/>
<text text-anchor="middle" x="163" y="-87.5" font-family="sans" font-size="10.00">multiqc</text>
</g>
<!-- 1&#45;&gt;2 -->
<g id="edge9" class="edge">
<title>1&#45;&gt;2</title>
<path fill="none" stroke="grey" stroke-width="2" d="M182.82,-215.77C168.17,-207.28 153.2,-195.48 145,-180 134.68,-160.51 141.01,-135.76 148.88,-117.3"/>
<polygon fill="grey" stroke="grey" stroke-width="2" points="152.15,-118.57 153.18,-108.03 145.8,-115.63 152.15,-118.57"/>
</g>
<!-- 7 -->
<g id="node8" class="node">
<title>7</title>
<path fill="none" stroke="#56b9d8" stroke-width="2" d="M233.5,-180C233.5,-180 166.5,-180 166.5,-180 160.5,-180 154.5,-174 154.5,-168 154.5,-168 154.5,-156 154.5,-156 154.5,-150 160.5,-144 166.5,-144 166.5,-144 233.5,-144 233.5,-144 239.5,-144 245.5,-150 245.5,-156 245.5,-156 245.5,-168 245.5,-168 245.5,-174 239.5,-180 233.5,-180"/>
<text text-anchor="middle" x="200" y="-159.5" font-family="sans" font-size="10.00">samtools_stats</text>
</g>
<!-- 1&#45;&gt;7 -->
<g id="edge14" class="edge">
<title>1&#45;&gt;7</title>
<path fill="none" stroke="grey" stroke-width="2" d="M217.31,-215.7C214.75,-207.9 211.67,-198.51 208.82,-189.83"/>
<polygon fill="grey" stroke="grey" stroke-width="2" points="212.07,-188.51 205.62,-180.1 205.42,-190.7 212.07,-188.51"/>
</g>
<!-- 8 -->
<g id="node9" class="node">
<title>8</title>
<path fill="none" stroke="#78d856" stroke-width="2" d="M314,-180C314,-180 276,-180 276,-180 270,-180 264,-174 264,-168 264,-168 264,-156 264,-156 264,-150 270,-144 276,-144 276,-144 314,-144 314,-144 320,-144 326,-150 326,-156 326,-156 326,-168 326,-168 326,-174 320,-180 314,-180"/>
<text text-anchor="middle" x="295" y="-159.5" font-family="sans" font-size="10.00">qualimap</text>
</g>
<!-- 1&#45;&gt;8 -->
<g id="edge15" class="edge">
<title>1&#45;&gt;8</title>
<path fill="none" stroke="grey" stroke-width="2" d="M240.8,-215.7C249.6,-207.14 260.38,-196.66 270,-187.3"/>
<polygon fill="grey" stroke="grey" stroke-width="2" points="272.68,-189.58 277.41,-180.1 267.8,-184.57 272.68,-189.58"/>
</g>
<!-- 2&#45;&gt;0 -->
<g id="edge2" class="edge">
<title>2&#45;&gt;0</title>
<path fill="none" stroke="grey" stroke-width="2" d="M186.48,-71.7C198.56,-62.8 213.45,-51.82 226.52,-42.2"/>
<polygon fill="grey" stroke="grey" stroke-width="2" points="228.81,-44.85 234.79,-36.1 224.66,-39.22 228.81,-44.85"/>
</g>
<!-- 3 -->
<g id="node4" class="node">
<title>3</title>
<path fill="none" stroke="#d8b456" stroke-width="2" d="M253,-396C253,-396 191,-396 191,-396 185,-396 179,-390 179,-384 179,-384 179,-372 179,-372 179,-366 185,-360 191,-360 191,-360 253,-360 253,-360 259,-360 265,-366 265,-372 265,-372 265,-384 265,-384 265,-390 259,-396 253,-396"/>
<text text-anchor="middle" x="222" y="-375.5" font-family="sans" font-size="10.00">samtools_sort</text>
</g>
<!-- 3&#45;&gt;1 -->
<g id="edge3" class="edge">
<title>3&#45;&gt;1</title>
<path fill="none" stroke="grey" stroke-width="2" d="M210.11,-359.72C203.99,-349.76 197.16,-336.73 194,-324 190.15,-308.47 190.04,-303.5 194,-288 196.38,-278.7 200.76,-269.27 205.42,-261"/>
<polygon fill="grey" stroke="grey" stroke-width="2" points="208.54,-262.59 210.69,-252.22 202.54,-258.99 208.54,-262.59"/>
</g>
<!-- 4 -->
<g id="node5" class="node">
<title>4</title>
<path fill="none" stroke="#569ad8" stroke-width="2" d="M285,-324C285,-324 215,-324 215,-324 209,-324 203,-318 203,-312 203,-312 203,-300 203,-300 203,-294 209,-288 215,-288 215,-288 285,-288 285,-288 291,-288 297,-294 297,-300 297,-300 297,-312 297,-312 297,-318 291,-324 285,-324"/>
<text text-anchor="middle" x="250" y="-303.5" font-family="sans" font-size="10.00">samtools_index</text>
</g>
<!-- 3&#45;&gt;4 -->
<g id="edge11" class="edge">
<title>3&#45;&gt;4</title>
<path fill="none" stroke="grey" stroke-width="2" d="M228.92,-359.7C232.07,-351.81 235.88,-342.3 239.38,-333.55"/>
<polygon fill="grey" stroke="grey" stroke-width="2" points="242.69,-334.69 243.16,-324.1 236.19,-332.09 242.69,-334.69"/>
</g>
<!-- 4&#45;&gt;1 -->
<g id="edge4" class="edge">
<title>4&#45;&gt;1</title>
<path fill="none" stroke="grey" stroke-width="2" d="M243.33,-287.7C240.29,-279.81 236.62,-270.3 233.24,-261.55"/>
<polygon fill="grey" stroke="grey" stroke-width="2" points="236.46,-260.17 229.6,-252.1 229.93,-262.69 236.46,-260.17"/>
</g>
<!-- 5 -->
<g id="node6" class="node">
<title>5</title>
<path fill="none" stroke="#b6d856" stroke-width="2" d="M42,-468C42,-468 12,-468 12,-468 6,-468 0,-462 0,-456 0,-456 0,-444 0,-444 0,-438 6,-432 12,-432 12,-432 42,-432 42,-432 48,-432 54,-438 54,-444 54,-444 54,-456 54,-456 54,-462 48,-468 42,-468"/>
<text text-anchor="middle" x="27" y="-447.5" font-family="sans" font-size="10.00">fastqc</text>
</g>
<!-- 5&#45;&gt;2 -->
<g id="edge5" class="edge">
<title>5&#45;&gt;2</title>
<path fill="none" stroke="grey" stroke-width="2" d="M29.37,-431.99C32.87,-405.38 39,-352.28 39,-307 39,-307 39,-307 39,-233 39,-190.5 46.48,-176.39 74,-144 87.95,-127.58 108.34,-114.92 126.08,-106.1"/>
<polygon fill="grey" stroke="grey" stroke-width="2" points="128.06,-109.03 135.61,-101.59 125.07,-102.7 128.06,-109.03"/>
</g>
<!-- 6 -->
<g id="node7" class="node">
<title>6</title>
<path fill="none" stroke="#56d8b9" stroke-width="2" d="M119,-540C119,-540 63,-540 63,-540 57,-540 51,-534 51,-528 51,-528 51,-516 51,-516 51,-510 57,-504 63,-504 63,-504 119,-504 119,-504 125,-504 131,-510 131,-516 131,-516 131,-528 131,-528 131,-534 125,-540 119,-540"/>
<text text-anchor="middle" x="91" y="-519.5" font-family="sans" font-size="10.00">trimmomatic</text>
</g>
<!-- 6&#45;&gt;2 -->
<g id="edge6" class="edge">
<title>6&#45;&gt;2</title>
<path fill="none" stroke="grey" stroke-width="2" d="M90.41,-503.95C89.53,-477.3 88,-424.12 88,-379 88,-379 88,-379 88,-233 88,-187.77 118.12,-142.85 140.18,-116"/>
<polygon fill="grey" stroke="grey" stroke-width="2" points="142.94,-118.16 146.73,-108.27 137.59,-113.64 142.94,-118.16"/>
</g>
<!-- 9 -->
<g id="node10" class="node">
<title>9</title>
<path fill="none" stroke="#d87556" stroke-width="2" d="M244,-468C244,-468 200,-468 200,-468 194,-468 188,-462 188,-456 188,-456 188,-444 188,-444 188,-438 194,-432 200,-432 200,-432 244,-432 244,-432 250,-432 256,-438 256,-444 256,-444 256,-456 256,-456 256,-462 250,-468 244,-468"/>
<text text-anchor="middle" x="222" y="-447.5" font-family="sans" font-size="10.00">bwa_mem</text>
</g>
<!-- 6&#45;&gt;9 -->
<g id="edge17" class="edge">
<title>6&#45;&gt;9</title>
<path fill="none" stroke="grey" stroke-width="2" d="M123.05,-503.88C140.49,-494.55 162.27,-482.92 180.94,-472.94"/>
<polygon fill="grey" stroke="grey" stroke-width="2" points="182.66,-475.99 189.83,-468.19 179.36,-469.82 182.66,-475.99"/>
</g>
<!-- 7&#45;&gt;2 -->
<g id="edge7" class="edge">
<title>7&#45;&gt;2</title>
<path fill="none" stroke="grey" stroke-width="2" d="M190.85,-143.7C186.6,-135.64 181.44,-125.89 176.73,-116.98"/>
<polygon fill="grey" stroke="grey" stroke-width="2" points="179.81,-115.31 172.04,-108.1 173.62,-118.58 179.81,-115.31"/>
</g>
<!-- 8&#45;&gt;2 -->
<g id="edge8" class="edge">
<title>8&#45;&gt;2</title>
<path fill="none" stroke="grey" stroke-width="2" d="M263.72,-144.41C244.28,-134.1 219.23,-120.82 198.97,-110.08"/>
<polygon fill="grey" stroke="grey" stroke-width="2" points="200.51,-106.93 190.04,-105.34 197.23,-113.12 200.51,-106.93"/>
</g>
<!-- 9&#45;&gt;3 -->
<g id="edge10" class="edge">
<title>9&#45;&gt;3</title>
<path fill="none" stroke="grey" stroke-width="2" d="M222,-431.7C222,-423.98 222,-414.71 222,-406.11"/>
<polygon fill="grey" stroke="grey" stroke-width="2" points="225.5,-406.1 222,-396.1 218.5,-406.1 225.5,-406.1"/>
</g>
<!-- 10 -->
<g id="node11" class="node">
<title>10</title>
<path fill="none" stroke="#567bd8" stroke-width="2" d="M81,-612C81,-612 33,-612 33,-612 27,-612 21,-606 21,-600 21,-600 21,-588 21,-588 21,-582 27,-576 33,-576 33,-576 81,-576 81,-576 87,-576 93,-582 93,-588 93,-588 93,-600 93,-600 93,-606 87,-612 81,-612"/>
<text text-anchor="middle" x="57" y="-597" font-family="sans" font-size="10.00">cp_reads</text>
<text text-anchor="middle" x="57" y="-586" font-family="sans" font-size="10.00">library: test</text>
</g>
<!-- 10&#45;&gt;5 -->
<g id="edge12" class="edge">
<title>10&#45;&gt;5</title>
<path fill="none" stroke="grey" stroke-width="2" d="M51.66,-575.94C48.56,-565.61 44.73,-552.13 42,-540 37.38,-519.49 33.49,-496.04 30.82,-478.35"/>
<polygon fill="grey" stroke="grey" stroke-width="2" points="34.24,-477.56 29.33,-468.17 27.32,-478.57 34.24,-477.56"/>
</g>
<!-- 10&#45;&gt;6 -->
<g id="edge13" class="edge">
<title>10&#45;&gt;6</title>
<path fill="none" stroke="grey" stroke-width="2" d="M65.4,-575.7C69.27,-567.73 73.95,-558.1 78.24,-549.26"/>
<polygon fill="grey" stroke="grey" stroke-width="2" points="81.47,-550.63 82.69,-540.1 75.17,-547.57 81.47,-550.63"/>
</g>
<!-- 11 -->
<g id="node12" class="node">
<title>11</title>
<path fill="none" stroke="#56d8d8" stroke-width="2" d="M299,-612C299,-612 243,-612 243,-612 237,-612 231,-606 231,-600 231,-600 231,-588 231,-588 231,-582 237,-576 243,-576 243,-576 299,-576 299,-576 305,-576 311,-582 311,-588 311,-588 311,-600 311,-600 311,-606 305,-612 299,-612"/>
<text text-anchor="middle" x="271" y="-591.5" font-family="sans" font-size="10.00">cp_reference</text>
</g>
<!-- 11&#45;&gt;9 -->
<g id="edge16" class="edge">
<title>11&#45;&gt;9</title>
<path fill="none" stroke="grey" stroke-width="2" d="M230.6,-580.75C211.05,-572.56 189.39,-559.6 178,-540 165.76,-518.93 180.45,-494 196.06,-475.89"/>
<polygon fill="grey" stroke="grey" stroke-width="2" points="199.04,-477.82 203.21,-468.09 193.87,-473.1 199.04,-477.82"/>
</g>
<!-- 12 -->
<g id="node13" class="node">
<title>12</title>
<path fill="none" stroke="#d89556" stroke-width="2" d="M244.5,-540C244.5,-540 199.5,-540 199.5,-540 193.5,-540 187.5,-534 187.5,-528 187.5,-528 187.5,-516 187.5,-516 187.5,-510 193.5,-504 199.5,-504 199.5,-504 244.5,-504 244.5,-504 250.5,-504 256.5,-510 256.5,-516 256.5,-516 256.5,-528 256.5,-528 256.5,-534 250.5,-540 244.5,-540"/>
<text text-anchor="middle" x="222" y="-519.5" font-family="sans" font-size="10.00">bwa_index</text>
</g>
<!-- 11&#45;&gt;12 -->
<g id="edge21" class="edge">
<title>11&#45;&gt;12</title>
<path fill="none" stroke="grey" stroke-width="2" d="M258.89,-575.7C253.13,-567.47 246.14,-557.48 239.79,-548.42"/>
<polygon fill="grey" stroke="grey" stroke-width="2" points="242.58,-546.29 233.97,-540.1 236.84,-550.3 242.58,-546.29"/>
</g>
<!-- 13 -->
<g id="node14" class="node">
<title>13</title>
<path fill="none" stroke="#97d856" stroke-width="2" d="M355,-540C355,-540 287,-540 287,-540 281,-540 275,-534 275,-528 275,-528 275,-516 275,-516 275,-510 281,-504 287,-504 287,-504 355,-504 355,-504 361,-504 367,-510 367,-516 367,-516 367,-528 367,-528 367,-534 361,-540 355,-540"/>
<text text-anchor="middle" x="321" y="-519.5" font-family="sans" font-size="10.00">samtools_faidx</text>
</g>
<!-- 11&#45;&gt;13 -->
<g id="edge22" class="edge">
<title>11&#45;&gt;13</title>
<path fill="none" stroke="grey" stroke-width="2" d="M283.36,-575.7C289.23,-567.47 296.37,-557.48 302.84,-548.42"/>
<polygon fill="grey" stroke="grey" stroke-width="2" points="305.82,-550.28 308.78,-540.1 300.12,-546.21 305.82,-550.28"/>
</g>
<!-- 14 -->
<g id="node15" class="node">
<title>14</title>
<path fill="none" stroke="#56d89a" stroke-width="2" d="M435,-540C435,-540 397,-540 397,-540 391,-540 385,-534 385,-528 385,-528 385,-516 385,-516 385,-510 391,-504 397,-504 397,-504 435,-504 435,-504 441,-504 447,-510 447,-516 447,-516 447,-528 447,-528 447,-534 441,-540 435,-540"/>
<text text-anchor="middle" x="416" y="-519.5" font-family="sans" font-size="10.00">gatk_dict</text>
</g>
<!-- 11&#45;&gt;14 -->
<g id="edge23" class="edge">
<title>11&#45;&gt;14</title>
<path fill="none" stroke="grey" stroke-width="2" d="M306.47,-575.88C327.36,-565.79 353.85,-553 375.55,-542.53"/>
<polygon fill="grey" stroke="grey" stroke-width="2" points="377.35,-545.55 384.83,-538.05 374.31,-539.24 377.35,-545.55"/>
</g>
<!-- 12&#45;&gt;9 -->
<g id="edge18" class="edge">
<title>12&#45;&gt;9</title>
<path fill="none" stroke="grey" stroke-width="2" d="M222,-503.7C222,-495.98 222,-486.71 222,-478.11"/>
<polygon fill="grey" stroke="grey" stroke-width="2" points="225.5,-478.1 222,-468.1 218.5,-478.1 225.5,-478.1"/>
</g>
<!-- 13&#45;&gt;9 -->
<g id="edge19" class="edge">
<title>13&#45;&gt;9</title>
<path fill="none" stroke="grey" stroke-width="2" d="M296.78,-503.88C284.08,-494.89 268.34,-483.76 254.58,-474.03"/>
<polygon fill="grey" stroke="grey" stroke-width="2" points="256.5,-471.11 246.31,-468.19 252.46,-476.82 256.5,-471.11"/>
</g>
<!-- 14&#45;&gt;9 -->
<g id="edge20" class="edge">
<title>14&#45;&gt;9</title>
<path fill="none" stroke="grey" stroke-width="2" d="M384.64,-507.43C381.73,-506.24 378.82,-505.08 376,-504 339.2,-489.87 296.81,-475.41 265.83,-465.17"/>
<polygon fill="grey" stroke="grey" stroke-width="2" points="266.79,-461.8 256.2,-462 264.6,-468.45 266.79,-461.8"/>
</g>
</g>
</svg>
