<?xml version="1.0" encoding="UTF-8" standalone="no"?>
<!DOCTYPE svg PUBLIC "-//W3C//DTD SVG 1.1//EN"
 "http://www.w3.org/Graphics/SVG/1.1/DTD/svg11.dtd">
<!-- Generated by graphviz version 2.43.0 (0)
 -->
<!-- Title: snakemake_dag Pages: 1 -->
<svg width="2358pt" height="1577pt"
 viewBox="0.00 0.00 2358.00 1577.00" xmlns="http://www.w3.org/2000/svg" xmlns:xlink="http://www.w3.org/1999/xlink">
<g id="graph0" class="graph" transform="scale(1 1) rotate(0) translate(4 1573)">
<title>snakemake_dag</title>
<polygon fill="white" stroke="transparent" points="-4,4 -4,-1573 2354,-1573 2354,4 -4,4"/>
<!-- 0 -->
<g id="node1" class="node">
<title>0</title>
<path fill="none" stroke="#68d856" stroke-width="2" d="M900,-36C900,-36 870,-36 870,-36 864,-36 858,-30 858,-24 858,-24 858,-12 858,-12 858,-6 864,0 870,0 870,0 900,0 900,0 906,0 912,-6 912,-12 912,-12 912,-24 912,-24 912,-30 906,-36 900,-36"/>
<text text-anchor="middle" x="885" y="-15.5" font-family="sans" font-size="10.00">all</text>
</g>
<!-- 1 -->
<g id="node2" class="node">
<title>1</title>
<path fill="none" stroke="#70d856" stroke-width="2" d="M710.5,-401C710.5,-401 641.5,-401 641.5,-401 635.5,-401 629.5,-395 629.5,-389 629.5,-389 629.5,-377 629.5,-377 629.5,-371 635.5,-365 641.5,-365 641.5,-365 710.5,-365 710.5,-365 716.5,-365 722.5,-371 722.5,-377 722.5,-377 722.5,-389 722.5,-389 722.5,-395 716.5,-401 710.5,-401"/>
<text text-anchor="middle" x="676" y="-380.5" font-family="sans" font-size="10.00">bcftools_shared</text>
</g>
<!-- 1&#45;&gt;0 -->
<g id="edge1" class="edge">
<title>1&#45;&gt;0</title>
<path fill="none" stroke="grey" stroke-width="2" d="M674.42,-364.97C672.09,-338.33 668,-285.19 668,-240 668,-240 668,-240 668,-166 668,-117.82 684.59,-102.37 722,-72 758.59,-42.3 812.29,-29.06 847.92,-23.29"/>
<polygon fill="grey" stroke="grey" stroke-width="2" points="848.55,-26.73 857.92,-21.79 847.51,-19.81 848.55,-26.73"/>
</g>
<!-- 26 -->
<g id="node27" class="node">
<title>26</title>
<path fill="none" stroke="#5663d8" stroke-width="2" d="M809.5,-329C809.5,-329 708.5,-329 708.5,-329 702.5,-329 696.5,-323 696.5,-317 696.5,-317 696.5,-305 696.5,-305 696.5,-299 702.5,-293 708.5,-293 708.5,-293 809.5,-293 809.5,-293 815.5,-293 821.5,-299 821.5,-305 821.5,-305 821.5,-317 821.5,-317 821.5,-323 815.5,-329 809.5,-329"/>
<text text-anchor="middle" x="759" y="-308.5" font-family="sans" font-size="10.00">bedtools_substract_hz</text>
</g>
<!-- 1&#45;&gt;26 -->
<g id="edge54" class="edge">
<title>1&#45;&gt;26</title>
<path fill="none" stroke="grey" stroke-width="2" d="M696.52,-364.7C706.87,-355.97 719.59,-345.24 730.84,-335.75"/>
<polygon fill="grey" stroke="grey" stroke-width="2" points="733.33,-338.23 738.72,-329.1 728.82,-332.88 733.33,-338.23"/>
</g>
<!-- 27 -->
<g id="node28" class="node">
<title>27</title>
<path fill="none" stroke="#5663d8" stroke-width="2" d="M994.5,-329C994.5,-329 893.5,-329 893.5,-329 887.5,-329 881.5,-323 881.5,-317 881.5,-317 881.5,-305 881.5,-305 881.5,-299 887.5,-293 893.5,-293 893.5,-293 994.5,-293 994.5,-293 1000.5,-293 1006.5,-299 1006.5,-305 1006.5,-305 1006.5,-317 1006.5,-317 1006.5,-323 1000.5,-329 994.5,-329"/>
<text text-anchor="middle" x="944" y="-308.5" font-family="sans" font-size="10.00">bedtools_substract_hz</text>
</g>
<!-- 1&#45;&gt;27 -->
<g id="edge56" class="edge">
<title>1&#45;&gt;27</title>
<path fill="none" stroke="grey" stroke-width="2" d="M722.68,-369.81C763.7,-359.09 824.07,-343.33 871.39,-330.96"/>
<polygon fill="grey" stroke="grey" stroke-width="2" points="872.49,-334.3 881.28,-328.38 870.72,-327.52 872.49,-334.3"/>
</g>
<!-- 2 -->
<g id="node3" class="node">
<title>2</title>
<path fill="none" stroke="#56d8a9" stroke-width="2" d="M807.5,-185C807.5,-185 710.5,-185 710.5,-185 704.5,-185 698.5,-179 698.5,-173 698.5,-173 698.5,-161 698.5,-161 698.5,-155 704.5,-149 710.5,-149 710.5,-149 807.5,-149 807.5,-149 813.5,-149 819.5,-155 819.5,-161 819.5,-161 819.5,-173 819.5,-173 819.5,-179 813.5,-185 807.5,-185"/>
<text text-anchor="middle" x="759" y="-164.5" font-family="sans" font-size="10.00">strelka2sql_cambium</text>
</g>
<!-- 2&#45;&gt;0 -->
<g id="edge2" class="edge">
<title>2&#45;&gt;0</title>
<path fill="none" stroke="grey" stroke-width="2" d="M746,-148.91C732.46,-128.85 715.36,-95.38 732,-72 758.12,-35.32 811.45,-23.79 847.72,-20.3"/>
<polygon fill="grey" stroke="grey" stroke-width="2" points="848.23,-23.77 857.92,-19.48 847.67,-16.79 848.23,-23.77"/>
</g>
<!-- 3 -->
<g id="node4" class="node">
<title>3</title>
<path fill="none" stroke="#9fd856" stroke-width="2" d="M902.5,-113C902.5,-113 753.5,-113 753.5,-113 747.5,-113 741.5,-107 741.5,-101 741.5,-101 741.5,-84 741.5,-84 741.5,-78 747.5,-72 753.5,-72 753.5,-72 902.5,-72 902.5,-72 908.5,-72 914.5,-78 914.5,-84 914.5,-84 914.5,-101 914.5,-101 914.5,-107 908.5,-113 902.5,-113"/>
<text text-anchor="middle" x="828" y="-101" font-family="sans" font-size="10.00">filter_mutations</text>
<text text-anchor="middle" x="828" y="-90" font-family="sans" font-size="10.00">file: cambium_nonhz_mutations</text>
<text text-anchor="middle" x="828" y="-79" font-family="sans" font-size="10.00">tissue: cambium</text>
</g>
<!-- 2&#45;&gt;3 -->
<g id="edge9" class="edge">
<title>2&#45;&gt;3</title>
<path fill="none" stroke="grey" stroke-width="2" d="M775.35,-148.82C783.4,-140.36 793.3,-129.97 802.32,-120.48"/>
<polygon fill="grey" stroke="grey" stroke-width="2" points="804.97,-122.78 809.33,-113.12 799.9,-117.95 804.97,-122.78"/>
</g>
<!-- 3&#45;&gt;0 -->
<g id="edge3" class="edge">
<title>3&#45;&gt;0</title>
<path fill="none" stroke="grey" stroke-width="2" d="M843.58,-71.69C850.24,-63.21 858.1,-53.22 865.17,-44.23"/>
<polygon fill="grey" stroke="grey" stroke-width="2" points="867.95,-46.34 871.38,-36.32 862.45,-42.02 867.95,-46.34"/>
</g>
<!-- 4 -->
<g id="node5" class="node">
<title>4</title>
<path fill="none" stroke="#d88d56" stroke-width="2" d="M979,-185C979,-185 909,-185 909,-185 903,-185 897,-179 897,-173 897,-173 897,-161 897,-161 897,-155 903,-149 909,-149 909,-149 979,-149 979,-149 985,-149 991,-155 991,-161 991,-161 991,-173 991,-173 991,-179 985,-185 979,-185"/>
<text text-anchor="middle" x="944" y="-164.5" font-family="sans" font-size="10.00">strelka2sql_leaf</text>
</g>
<!-- 4&#45;&gt;0 -->
<g id="edge4" class="edge">
<title>4&#45;&gt;0</title>
<path fill="none" stroke="grey" stroke-width="2" d="M942.24,-148.71C939.8,-129.34 934.34,-97.34 923,-72 918.63,-62.23 912.31,-52.46 906.07,-44.01"/>
<polygon fill="grey" stroke="grey" stroke-width="2" points="908.81,-41.83 899.94,-36.05 903.27,-46.11 908.81,-41.83"/>
</g>
<!-- 5 -->
<g id="node6" class="node">
<title>5</title>
<path fill="none" stroke="#9fd856" stroke-width="2" d="M1105,-113C1105,-113 983,-113 983,-113 977,-113 971,-107 971,-101 971,-101 971,-84 971,-84 971,-78 977,-72 983,-72 983,-72 1105,-72 1105,-72 1111,-72 1117,-78 1117,-84 1117,-84 1117,-101 1117,-101 1117,-107 1111,-113 1105,-113"/>
<text text-anchor="middle" x="1044" y="-101" font-family="sans" font-size="10.00">filter_mutations</text>
<text text-anchor="middle" x="1044" y="-90" font-family="sans" font-size="10.00">file: leaf_nonhz_mutations</text>
<text text-anchor="middle" x="1044" y="-79" font-family="sans" font-size="10.00">tissue: leaf</text>
</g>
<!-- 4&#45;&gt;5 -->
<g id="edge11" class="edge">
<title>4&#45;&gt;5</title>
<path fill="none" stroke="grey" stroke-width="2" d="M967.7,-148.82C979.94,-139.94 995.13,-128.93 1008.72,-119.08"/>
<polygon fill="grey" stroke="grey" stroke-width="2" points="1010.9,-121.82 1016.94,-113.12 1006.79,-116.16 1010.9,-121.82"/>
</g>
<!-- 5&#45;&gt;0 -->
<g id="edge5" class="edge">
<title>5&#45;&gt;0</title>
<path fill="none" stroke="grey" stroke-width="2" d="M1000.97,-71.88C976.08,-60.53 945.09,-46.4 921.41,-35.6"/>
<polygon fill="grey" stroke="grey" stroke-width="2" points="922.62,-32.31 912.07,-31.34 919.72,-38.68 922.62,-32.31"/>
</g>
<!-- 6 -->
<g id="node7" class="node">
<title>6</title>
<path fill="none" stroke="#56d892" stroke-width="2" d="M1804,-833C1804,-833 1774,-833 1774,-833 1768,-833 1762,-827 1762,-821 1762,-821 1762,-809 1762,-809 1762,-803 1768,-797 1774,-797 1774,-797 1804,-797 1804,-797 1810,-797 1816,-803 1816,-809 1816,-809 1816,-821 1816,-821 1816,-827 1810,-833 1804,-833"/>
<text text-anchor="middle" x="1789" y="-812.5" font-family="sans" font-size="10.00">multiqc</text>
</g>
<!-- 6&#45;&gt;0 -->
<g id="edge6" class="edge">
<title>6&#45;&gt;0</title>
<path fill="none" stroke="grey" stroke-width="2" d="M1761.85,-808.96C1680.28,-793.04 1443,-740.83 1443,-672 1443,-672 1443,-672 1443,-166 1443,-58.07 1047.7,-27.69 922.53,-20.77"/>
<polygon fill="grey" stroke="grey" stroke-width="2" points="922.46,-17.26 912.29,-20.23 922.09,-24.25 922.46,-17.26"/>
</g>
<!-- 7 -->
<g id="node8" class="node">
<title>7</title>
<path fill="none" stroke="#56c9d8" stroke-width="2" d="M685,-473C685,-473 607,-473 607,-473 601,-473 595,-467 595,-461 595,-461 595,-449 595,-449 595,-443 601,-437 607,-437 607,-437 685,-437 685,-437 691,-437 697,-443 697,-449 697,-449 697,-461 697,-461 697,-467 691,-473 685,-473"/>
<text text-anchor="middle" x="646" y="-452.5" font-family="sans" font-size="10.00">plink_nonmissing</text>
</g>
<!-- 7&#45;&gt;1 -->
<g id="edge7" class="edge">
<title>7&#45;&gt;1</title>
<path fill="none" stroke="grey" stroke-width="2" d="M653.42,-436.7C656.79,-428.81 660.87,-419.3 664.62,-410.55"/>
<polygon fill="grey" stroke="grey" stroke-width="2" points="667.95,-411.67 668.67,-401.1 661.51,-408.92 667.95,-411.67"/>
</g>
<!-- 8 -->
<g id="node9" class="node">
<title>8</title>
<path fill="none" stroke="#d88556" stroke-width="2" d="M782.5,-257C782.5,-257 735.5,-257 735.5,-257 729.5,-257 723.5,-251 723.5,-245 723.5,-245 723.5,-233 723.5,-233 723.5,-227 729.5,-221 735.5,-221 735.5,-221 782.5,-221 782.5,-221 788.5,-221 794.5,-227 794.5,-233 794.5,-233 794.5,-245 794.5,-245 794.5,-251 788.5,-257 782.5,-257"/>
<text text-anchor="middle" x="759" y="-236.5" font-family="sans" font-size="10.00">strelka2tsv</text>
</g>
<!-- 8&#45;&gt;2 -->
<g id="edge8" class="edge">
<title>8&#45;&gt;2</title>
<path fill="none" stroke="grey" stroke-width="2" d="M759,-220.7C759,-212.98 759,-203.71 759,-195.11"/>
<polygon fill="grey" stroke="grey" stroke-width="2" points="762.5,-195.1 759,-185.1 755.5,-195.1 762.5,-195.1"/>
</g>
<!-- 9 -->
<g id="node10" class="node">
<title>9</title>
<path fill="none" stroke="#d88556" stroke-width="2" d="M967.5,-257C967.5,-257 920.5,-257 920.5,-257 914.5,-257 908.5,-251 908.5,-245 908.5,-245 908.5,-233 908.5,-233 908.5,-227 914.5,-221 920.5,-221 920.5,-221 967.5,-221 967.5,-221 973.5,-221 979.5,-227 979.5,-233 979.5,-233 979.5,-245 979.5,-245 979.5,-251 973.5,-257 967.5,-257"/>
<text text-anchor="middle" x="944" y="-236.5" font-family="sans" font-size="10.00">strelka2tsv</text>
</g>
<!-- 9&#45;&gt;4 -->
<g id="edge10" class="edge">
<title>9&#45;&gt;4</title>
<path fill="none" stroke="grey" stroke-width="2" d="M944,-220.7C944,-212.98 944,-203.71 944,-195.11"/>
<polygon fill="grey" stroke="grey" stroke-width="2" points="947.5,-195.1 944,-185.1 940.5,-195.1 947.5,-195.1"/>
</g>
<!-- 10 -->
<g id="node11" class="node">
<title>10</title>
<path fill="none" stroke="#5673d8" stroke-width="2" d="M2338,-1281C2338,-1281 2308,-1281 2308,-1281 2302,-1281 2296,-1275 2296,-1269 2296,-1269 2296,-1257 2296,-1257 2296,-1251 2302,-1245 2308,-1245 2308,-1245 2338,-1245 2338,-1245 2344,-1245 2350,-1251 2350,-1257 2350,-1257 2350,-1269 2350,-1269 2350,-1275 2344,-1281 2338,-1281"/>
<text text-anchor="middle" x="2323" y="-1260.5" font-family="sans" font-size="10.00">busco</text>
</g>
<!-- 10&#45;&gt;6 -->
<g id="edge12" class="edge">
<title>10&#45;&gt;6</title>
<path fill="none" stroke="grey" stroke-width="2" d="M2319.16,-1244.61C2313.6,-1217.94 2304,-1165.27 2304,-1120 2304,-1120 2304,-1120 2304,-974 2304,-923.74 2301.98,-899.46 2262,-869 2193.82,-817.07 1925.56,-814.5 1826.24,-815.39"/>
<polygon fill="grey" stroke="grey" stroke-width="2" points="1826.04,-811.89 1816.07,-815.5 1826.11,-818.89 1826.04,-811.89"/>
</g>
<!-- 11 -->
<g id="node12" class="node">
<title>11</title>
<path fill="none" stroke="#56d8d8" stroke-width="2" d="M2266.5,-1353C2266.5,-1353 2209.5,-1353 2209.5,-1353 2203.5,-1353 2197.5,-1347 2197.5,-1341 2197.5,-1341 2197.5,-1329 2197.5,-1329 2197.5,-1323 2203.5,-1317 2209.5,-1317 2209.5,-1317 2266.5,-1317 2266.5,-1317 2272.5,-1317 2278.5,-1323 2278.5,-1329 2278.5,-1329 2278.5,-1341 2278.5,-1341 2278.5,-1347 2272.5,-1353 2266.5,-1353"/>
<text text-anchor="middle" x="2238" y="-1332.5" font-family="sans" font-size="10.00">bedtools_nuc</text>
</g>
<!-- 11&#45;&gt;6 -->
<g id="edge13" class="edge">
<title>11&#45;&gt;6</title>
<path fill="none" stroke="grey" stroke-width="2" d="M2239.98,-1316.98C2242.89,-1290.36 2248,-1237.23 2248,-1192 2248,-1192 2248,-1192 2248,-974 2248,-926.58 2263.51,-901.53 2229,-869 2199.87,-841.54 1927.26,-823.7 1826.34,-817.99"/>
<polygon fill="grey" stroke="grey" stroke-width="2" points="1826.47,-814.49 1816.29,-817.42 1826.08,-821.48 1826.47,-814.49"/>
</g>
<!-- 12 -->
<g id="node13" class="node">
<title>12</title>
<path fill="none" stroke="#c6d856" stroke-width="2" d="M1861.5,-913C1861.5,-913 1820.5,-913 1820.5,-913 1814.5,-913 1808.5,-907 1808.5,-901 1808.5,-901 1808.5,-889 1808.5,-889 1808.5,-883 1814.5,-877 1820.5,-877 1820.5,-877 1861.5,-877 1861.5,-877 1867.5,-877 1873.5,-883 1873.5,-889 1873.5,-889 1873.5,-901 1873.5,-901 1873.5,-907 1867.5,-913 1861.5,-913"/>
<text text-anchor="middle" x="1841" y="-898" font-family="sans" font-size="10.00">fastqc</text>
<text text-anchor="middle" x="1841" y="-887" font-family="sans" font-size="10.00">library: T2</text>
</g>
<!-- 12&#45;&gt;6 -->
<g id="edge14" class="edge">
<title>12&#45;&gt;6</title>
<path fill="none" stroke="grey" stroke-width="2" d="M1829.46,-876.69C1822.59,-866.39 1813.75,-853.13 1806.09,-841.63"/>
<polygon fill="grey" stroke="grey" stroke-width="2" points="1808.97,-839.64 1800.51,-833.26 1803.14,-843.52 1808.97,-839.64"/>
</g>
<!-- 13 -->
<g id="node14" class="node">
<title>13</title>
<path fill="none" stroke="#c6d856" stroke-width="2" d="M1944.5,-913C1944.5,-913 1903.5,-913 1903.5,-913 1897.5,-913 1891.5,-907 1891.5,-901 1891.5,-901 1891.5,-889 1891.5,-889 1891.5,-883 1897.5,-877 1903.5,-877 1903.5,-877 1944.5,-877 1944.5,-877 1950.5,-877 1956.5,-883 1956.5,-889 1956.5,-889 1956.5,-901 1956.5,-901 1956.5,-907 1950.5,-913 1944.5,-913"/>
<text text-anchor="middle" x="1924" y="-898" font-family="sans" font-size="10.00">fastqc</text>
<text text-anchor="middle" x="1924" y="-887" font-family="sans" font-size="10.00">library: T3</text>
</g>
<!-- 13&#45;&gt;6 -->
<g id="edge15" class="edge">
<title>13&#45;&gt;6</title>
<path fill="none" stroke="grey" stroke-width="2" d="M1896.29,-876.93C1891.86,-874.25 1887.31,-871.53 1883,-869 1864.01,-857.86 1842.65,-845.78 1825.09,-835.97"/>
<polygon fill="grey" stroke="grey" stroke-width="2" points="1826.73,-832.88 1816.29,-831.06 1823.32,-838.99 1826.73,-832.88"/>
</g>
<!-- 14 -->
<g id="node15" class="node">
<title>14</title>
<path fill="none" stroke="#c6d856" stroke-width="2" d="M2207.5,-913C2207.5,-913 2158.5,-913 2158.5,-913 2152.5,-913 2146.5,-907 2146.5,-901 2146.5,-901 2146.5,-889 2146.5,-889 2146.5,-883 2152.5,-877 2158.5,-877 2158.5,-877 2207.5,-877 2207.5,-877 2213.5,-877 2219.5,-883 2219.5,-889 2219.5,-889 2219.5,-901 2219.5,-901 2219.5,-907 2213.5,-913 2207.5,-913"/>
<text text-anchor="middle" x="2183" y="-898" font-family="sans" font-size="10.00">fastqc</text>
<text text-anchor="middle" x="2183" y="-887" font-family="sans" font-size="10.00">library: DS2</text>
</g>
<!-- 14&#45;&gt;6 -->
<g id="edge16" class="edge">
<title>14&#45;&gt;6</title>
<path fill="none" stroke="grey" stroke-width="2" d="M2152.06,-876.99C2145.58,-873.96 2138.68,-871.1 2132,-869 2024.19,-835.11 1890.24,-822.43 1826.32,-818.07"/>
<polygon fill="grey" stroke="grey" stroke-width="2" points="1826.52,-814.58 1816.31,-817.42 1826.07,-821.56 1826.52,-814.58"/>
</g>
<!-- 15 -->
<g id="node16" class="node">
<title>15</title>
<path fill="none" stroke="#56d8a2" stroke-width="2" d="M1137,-1497C1137,-1497 1081,-1497 1081,-1497 1075,-1497 1069,-1491 1069,-1485 1069,-1485 1069,-1473 1069,-1473 1069,-1467 1075,-1461 1081,-1461 1081,-1461 1137,-1461 1137,-1461 1143,-1461 1149,-1467 1149,-1473 1149,-1473 1149,-1485 1149,-1485 1149,-1491 1143,-1497 1137,-1497"/>
<text text-anchor="middle" x="1109" y="-1482" font-family="sans" font-size="10.00">trimmomatic</text>
<text text-anchor="middle" x="1109" y="-1471" font-family="sans" font-size="10.00">library: T2</text>
</g>
<!-- 15&#45;&gt;6 -->
<g id="edge17" class="edge">
<title>15&#45;&gt;6</title>
<path fill="none" stroke="grey" stroke-width="2" d="M1113.99,-1460.97C1124.09,-1424.96 1146,-1338.28 1146,-1264 1146,-1264 1146,-1264 1146,-1046 1146,-1005.46 1140.77,-988.73 1166,-957 1222.17,-886.36 1262.37,-894.29 1349,-869 1493.78,-826.73 1674.83,-818.12 1751.71,-816.4"/>
<polygon fill="grey" stroke="grey" stroke-width="2" points="1751.92,-819.9 1761.85,-816.2 1751.79,-812.9 1751.92,-819.9"/>
</g>
<!-- 56 -->
<g id="node57" class="node">
<title>56</title>
<path fill="none" stroke="#56a9d8" stroke-width="2" d="M1093,-1425C1093,-1425 1049,-1425 1049,-1425 1043,-1425 1037,-1419 1037,-1413 1037,-1413 1037,-1401 1037,-1401 1037,-1395 1043,-1389 1049,-1389 1049,-1389 1093,-1389 1093,-1389 1099,-1389 1105,-1395 1105,-1401 1105,-1401 1105,-1413 1105,-1413 1105,-1419 1099,-1425 1093,-1425"/>
<text text-anchor="middle" x="1071" y="-1404.5" font-family="sans" font-size="10.00">bwa_mem</text>
</g>
<!-- 15&#45;&gt;56 -->
<g id="edge108" class="edge">
<title>15&#45;&gt;56</title>
<path fill="none" stroke="grey" stroke-width="2" d="M1099.61,-1460.7C1095.24,-1452.64 1089.94,-1442.89 1085.1,-1433.98"/>
<polygon fill="grey" stroke="grey" stroke-width="2" points="1088.13,-1432.22 1080.29,-1425.1 1081.98,-1435.56 1088.13,-1432.22"/>
</g>
<!-- 16 -->
<g id="node17" class="node">
<title>16</title>
<path fill="none" stroke="#56d8a2" stroke-width="2" d="M1425,-1497C1425,-1497 1369,-1497 1369,-1497 1363,-1497 1357,-1491 1357,-1485 1357,-1485 1357,-1473 1357,-1473 1357,-1467 1363,-1461 1369,-1461 1369,-1461 1425,-1461 1425,-1461 1431,-1461 1437,-1467 1437,-1473 1437,-1473 1437,-1485 1437,-1485 1437,-1491 1431,-1497 1425,-1497"/>
<text text-anchor="middle" x="1397" y="-1482" font-family="sans" font-size="10.00">trimmomatic</text>
<text text-anchor="middle" x="1397" y="-1471" font-family="sans" font-size="10.00">library: T3</text>
</g>
<!-- 16&#45;&gt;6 -->
<g id="edge18" class="edge">
<title>16&#45;&gt;6</title>
<path fill="none" stroke="grey" stroke-width="2" d="M1400.29,-1460.75C1416.13,-1382.18 1491.35,-1053.93 1675,-869 1696.22,-847.63 1727.69,-833.9 1752.19,-825.78"/>
<polygon fill="grey" stroke="grey" stroke-width="2" points="1753.38,-829.07 1761.87,-822.74 1751.28,-822.4 1753.38,-829.07"/>
</g>
<!-- 57 -->
<g id="node58" class="node">
<title>57</title>
<path fill="none" stroke="#56a9d8" stroke-width="2" d="M1375,-1425C1375,-1425 1331,-1425 1331,-1425 1325,-1425 1319,-1419 1319,-1413 1319,-1413 1319,-1401 1319,-1401 1319,-1395 1325,-1389 1331,-1389 1331,-1389 1375,-1389 1375,-1389 1381,-1389 1387,-1395 1387,-1401 1387,-1401 1387,-1413 1387,-1413 1387,-1419 1381,-1425 1375,-1425"/>
<text text-anchor="middle" x="1353" y="-1404.5" font-family="sans" font-size="10.00">bwa_mem</text>
</g>
<!-- 16&#45;&gt;57 -->
<g id="edge111" class="edge">
<title>16&#45;&gt;57</title>
<path fill="none" stroke="grey" stroke-width="2" d="M1386.12,-1460.7C1381.01,-1452.56 1374.8,-1442.69 1369.16,-1433.7"/>
<polygon fill="grey" stroke="grey" stroke-width="2" points="1372.04,-1431.71 1363.75,-1425.1 1366.11,-1435.43 1372.04,-1431.71"/>
</g>
<!-- 17 -->
<g id="node18" class="node">
<title>17</title>
<path fill="none" stroke="#56d8a2" stroke-width="2" d="M1876,-1497C1876,-1497 1820,-1497 1820,-1497 1814,-1497 1808,-1491 1808,-1485 1808,-1485 1808,-1473 1808,-1473 1808,-1467 1814,-1461 1820,-1461 1820,-1461 1876,-1461 1876,-1461 1882,-1461 1888,-1467 1888,-1473 1888,-1473 1888,-1485 1888,-1485 1888,-1491 1882,-1497 1876,-1497"/>
<text text-anchor="middle" x="1848" y="-1482" font-family="sans" font-size="10.00">trimmomatic</text>
<text text-anchor="middle" x="1848" y="-1471" font-family="sans" font-size="10.00">library: DS2</text>
</g>
<!-- 17&#45;&gt;6 -->
<g id="edge19" class="edge">
<title>17&#45;&gt;6</title>
<path fill="none" stroke="grey" stroke-width="2" d="M1869.94,-1460.82C1946.85,-1398.35 2196.71,-1175.46 2141,-957 2129.99,-913.83 2129.21,-894.96 2093,-869 2050.76,-838.71 1897.9,-823.89 1826.38,-818.49"/>
<polygon fill="grey" stroke="grey" stroke-width="2" points="1826.27,-814.97 1816.04,-817.73 1825.75,-821.95 1826.27,-814.97"/>
</g>
<!-- 58 -->
<g id="node59" class="node">
<title>58</title>
<path fill="none" stroke="#56a9d8" stroke-width="2" d="M1828,-1425C1828,-1425 1784,-1425 1784,-1425 1778,-1425 1772,-1419 1772,-1413 1772,-1413 1772,-1401 1772,-1401 1772,-1395 1778,-1389 1784,-1389 1784,-1389 1828,-1389 1828,-1389 1834,-1389 1840,-1395 1840,-1401 1840,-1401 1840,-1413 1840,-1413 1840,-1419 1834,-1425 1828,-1425"/>
<text text-anchor="middle" x="1806" y="-1404.5" font-family="sans" font-size="10.00">bwa_mem</text>
</g>
<!-- 17&#45;&gt;58 -->
<g id="edge114" class="edge">
<title>17&#45;&gt;58</title>
<path fill="none" stroke="grey" stroke-width="2" d="M1837.62,-1460.7C1832.74,-1452.56 1826.81,-1442.69 1821.42,-1433.7"/>
<polygon fill="grey" stroke="grey" stroke-width="2" points="1824.41,-1431.88 1816.26,-1425.1 1818.41,-1435.48 1824.41,-1431.88"/>
</g>
<!-- 18 -->
<g id="node19" class="node">
<title>18</title>
<path fill="none" stroke="#56d8c9" stroke-width="2" d="M1067.5,-993C1067.5,-993 1000.5,-993 1000.5,-993 994.5,-993 988.5,-987 988.5,-981 988.5,-981 988.5,-969 988.5,-969 988.5,-963 994.5,-957 1000.5,-957 1000.5,-957 1067.5,-957 1067.5,-957 1073.5,-957 1079.5,-963 1079.5,-969 1079.5,-969 1079.5,-981 1079.5,-981 1079.5,-987 1073.5,-993 1067.5,-993"/>
<text text-anchor="middle" x="1034" y="-972.5" font-family="sans" font-size="10.00">samtools_stats</text>
</g>
<!-- 18&#45;&gt;6 -->
<g id="edge20" class="edge">
<title>18&#45;&gt;6</title>
<path fill="none" stroke="grey" stroke-width="2" d="M1033.19,-956.64C1033.12,-932.77 1036.98,-890.35 1063,-869 1116.5,-825.1 1609.96,-817.52 1751.32,-816.25"/>
<polygon fill="grey" stroke="grey" stroke-width="2" points="1751.67,-819.75 1761.64,-816.16 1751.61,-812.75 1751.67,-819.75"/>
</g>
<!-- 19 -->
<g id="node20" class="node">
<title>19</title>
<path fill="none" stroke="#56d8c9" stroke-width="2" d="M1253.5,-993C1253.5,-993 1186.5,-993 1186.5,-993 1180.5,-993 1174.5,-987 1174.5,-981 1174.5,-981 1174.5,-969 1174.5,-969 1174.5,-963 1180.5,-957 1186.5,-957 1186.5,-957 1253.5,-957 1253.5,-957 1259.5,-957 1265.5,-963 1265.5,-969 1265.5,-969 1265.5,-981 1265.5,-981 1265.5,-987 1259.5,-993 1253.5,-993"/>
<text text-anchor="middle" x="1220" y="-972.5" font-family="sans" font-size="10.00">samtools_stats</text>
</g>
<!-- 19&#45;&gt;6 -->
<g id="edge21" class="edge">
<title>19&#45;&gt;6</title>
<path fill="none" stroke="grey" stroke-width="2" d="M1258.69,-956.98C1312.05,-934.1 1411.69,-893.45 1500,-869 1588.91,-844.39 1696.42,-828.1 1751.89,-820.66"/>
<polygon fill="grey" stroke="grey" stroke-width="2" points="1752.49,-824.11 1761.95,-819.33 1751.57,-817.17 1752.49,-824.11"/>
</g>
<!-- 20 -->
<g id="node21" class="node">
<title>20</title>
<path fill="none" stroke="#56d8c9" stroke-width="2" d="M2010.5,-993C2010.5,-993 1943.5,-993 1943.5,-993 1937.5,-993 1931.5,-987 1931.5,-981 1931.5,-981 1931.5,-969 1931.5,-969 1931.5,-963 1937.5,-957 1943.5,-957 1943.5,-957 2010.5,-957 2010.5,-957 2016.5,-957 2022.5,-963 2022.5,-969 2022.5,-969 2022.5,-981 2022.5,-981 2022.5,-987 2016.5,-993 2010.5,-993"/>
<text text-anchor="middle" x="1977" y="-972.5" font-family="sans" font-size="10.00">samtools_stats</text>
</g>
<!-- 20&#45;&gt;6 -->
<g id="edge22" class="edge">
<title>20&#45;&gt;6</title>
<path fill="none" stroke="grey" stroke-width="2" d="M1980.48,-956.92C1984.07,-934.15 1986.59,-893.84 1966,-869 1931.92,-827.88 1867.29,-817.83 1826.27,-815.83"/>
<polygon fill="grey" stroke="grey" stroke-width="2" points="1826.25,-812.32 1816.13,-815.47 1826.01,-819.32 1826.25,-812.32"/>
</g>
<!-- 21 -->
<g id="node22" class="node">
<title>21</title>
<path fill="none" stroke="#d87556" stroke-width="2" d="M1124.5,-913C1124.5,-913 1083.5,-913 1083.5,-913 1077.5,-913 1071.5,-907 1071.5,-901 1071.5,-901 1071.5,-889 1071.5,-889 1071.5,-883 1077.5,-877 1083.5,-877 1083.5,-877 1124.5,-877 1124.5,-877 1130.5,-877 1136.5,-883 1136.5,-889 1136.5,-889 1136.5,-901 1136.5,-901 1136.5,-907 1130.5,-913 1124.5,-913"/>
<text text-anchor="middle" x="1104" y="-892.5" font-family="sans" font-size="10.00">mosdepth</text>
</g>
<!-- 21&#45;&gt;6 -->
<g id="edge23" class="edge">
<title>21&#45;&gt;6</title>
<path fill="none" stroke="grey" stroke-width="2" d="M1131.54,-876.98C1137.74,-873.83 1144.44,-870.93 1151,-869 1264.86,-835.53 1632.73,-821.02 1751.59,-817.13"/>
<polygon fill="grey" stroke="grey" stroke-width="2" points="1751.77,-820.62 1761.66,-816.8 1751.55,-813.63 1751.77,-820.62"/>
</g>
<!-- 22 -->
<g id="node23" class="node">
<title>22</title>
<path fill="none" stroke="#d87556" stroke-width="2" d="M1561.5,-913C1561.5,-913 1520.5,-913 1520.5,-913 1514.5,-913 1508.5,-907 1508.5,-901 1508.5,-901 1508.5,-889 1508.5,-889 1508.5,-883 1514.5,-877 1520.5,-877 1520.5,-877 1561.5,-877 1561.5,-877 1567.5,-877 1573.5,-883 1573.5,-889 1573.5,-889 1573.5,-901 1573.5,-901 1573.5,-907 1567.5,-913 1561.5,-913"/>
<text text-anchor="middle" x="1541" y="-892.5" font-family="sans" font-size="10.00">mosdepth</text>
</g>
<!-- 22&#45;&gt;6 -->
<g id="edge24" class="edge">
<title>22&#45;&gt;6</title>
<path fill="none" stroke="grey" stroke-width="2" d="M1573.68,-883.72C1619.85,-869.2 1703.92,-842.76 1752.22,-827.57"/>
<polygon fill="grey" stroke="grey" stroke-width="2" points="1753.47,-830.84 1761.96,-824.5 1751.37,-824.17 1753.47,-830.84"/>
</g>
<!-- 23 -->
<g id="node24" class="node">
<title>23</title>
<path fill="none" stroke="#d87556" stroke-width="2" d="M2071.5,-913C2071.5,-913 2030.5,-913 2030.5,-913 2024.5,-913 2018.5,-907 2018.5,-901 2018.5,-901 2018.5,-889 2018.5,-889 2018.5,-883 2024.5,-877 2030.5,-877 2030.5,-877 2071.5,-877 2071.5,-877 2077.5,-877 2083.5,-883 2083.5,-889 2083.5,-889 2083.5,-901 2083.5,-901 2083.5,-907 2077.5,-913 2071.5,-913"/>
<text text-anchor="middle" x="2051" y="-892.5" font-family="sans" font-size="10.00">mosdepth</text>
</g>
<!-- 23&#45;&gt;6 -->
<g id="edge25" class="edge">
<title>23&#45;&gt;6</title>
<path fill="none" stroke="grey" stroke-width="2" d="M2018.42,-877.11C2012.07,-874.17 2005.4,-871.32 1999,-869 1939.89,-847.58 1868.4,-831.53 1825.93,-822.97"/>
<polygon fill="grey" stroke="grey" stroke-width="2" points="1826.53,-819.52 1816.04,-821.01 1825.16,-826.39 1826.53,-819.52"/>
</g>
<!-- 24 -->
<g id="node25" class="node">
<title>24</title>
<path fill="none" stroke="#d8ac56" stroke-width="2" d="M1778.5,-913C1778.5,-913 1695.5,-913 1695.5,-913 1689.5,-913 1683.5,-907 1683.5,-901 1683.5,-901 1683.5,-889 1683.5,-889 1683.5,-883 1689.5,-877 1695.5,-877 1695.5,-877 1778.5,-877 1778.5,-877 1784.5,-877 1790.5,-883 1790.5,-889 1790.5,-889 1790.5,-901 1790.5,-901 1790.5,-907 1784.5,-913 1778.5,-913"/>
<text text-anchor="middle" x="1737" y="-892.5" font-family="sans" font-size="10.00">mosdepth_regions</text>
</g>
<!-- 24&#45;&gt;6 -->
<g id="edge26" class="edge">
<title>24&#45;&gt;6</title>
<path fill="none" stroke="grey" stroke-width="2" d="M1748.54,-876.69C1755.41,-866.39 1764.25,-853.13 1771.91,-841.63"/>
<polygon fill="grey" stroke="grey" stroke-width="2" points="1774.86,-843.52 1777.49,-833.26 1769.03,-839.64 1774.86,-843.52"/>
</g>
<!-- 25 -->
<g id="node26" class="node">
<title>25</title>
<path fill="none" stroke="#d8bc56" stroke-width="2" d="M502,-545C502,-545 460,-545 460,-545 454,-545 448,-539 448,-533 448,-533 448,-521 448,-521 448,-515 454,-509 460,-509 460,-509 502,-509 502,-509 508,-509 514,-515 514,-521 514,-521 514,-533 514,-533 514,-539 508,-545 502,-545"/>
<text text-anchor="middle" x="481" y="-524.5" font-family="sans" font-size="10.00">gatk_snps</text>
</g>
<!-- 25&#45;&gt;7 -->
<g id="edge27" class="edge">
<title>25&#45;&gt;7</title>
<path fill="none" stroke="grey" stroke-width="2" d="M514.39,-511.83C537.87,-501.87 569.7,-488.37 596.18,-477.14"/>
<polygon fill="grey" stroke="grey" stroke-width="2" points="597.82,-480.24 605.66,-473.11 595.09,-473.8 597.82,-480.24"/>
</g>
<!-- 26&#45;&gt;8 -->
<g id="edge28" class="edge">
<title>26&#45;&gt;8</title>
<path fill="none" stroke="grey" stroke-width="2" d="M759,-292.7C759,-284.98 759,-275.71 759,-267.11"/>
<polygon fill="grey" stroke="grey" stroke-width="2" points="762.5,-267.1 759,-257.1 755.5,-267.1 762.5,-267.1"/>
</g>
<!-- 27&#45;&gt;9 -->
<g id="edge29" class="edge">
<title>27&#45;&gt;9</title>
<path fill="none" stroke="grey" stroke-width="2" d="M944,-292.7C944,-284.98 944,-275.71 944,-267.11"/>
<polygon fill="grey" stroke="grey" stroke-width="2" points="947.5,-267.1 944,-257.1 940.5,-267.1 947.5,-267.1"/>
</g>
<!-- 28 -->
<g id="node29" class="node">
<title>28</title>
<path fill="none" stroke="#d85656" stroke-width="2" d="M1319,-1569C1319,-1569 1263,-1569 1263,-1569 1257,-1569 1251,-1563 1251,-1557 1251,-1557 1251,-1545 1251,-1545 1251,-1539 1257,-1533 1263,-1533 1263,-1533 1319,-1533 1319,-1533 1325,-1533 1331,-1539 1331,-1545 1331,-1545 1331,-1557 1331,-1557 1331,-1563 1325,-1569 1319,-1569"/>
<text text-anchor="middle" x="1291" y="-1548.5" font-family="sans" font-size="10.00">cp_reference</text>
</g>
<!-- 28&#45;&gt;10 -->
<g id="edge30" class="edge">
<title>28&#45;&gt;10</title>
<path fill="none" stroke="grey" stroke-width="2" d="M1331.08,-1550.32C1506.81,-1551.39 2203.95,-1552.11 2283,-1497 2348.07,-1451.64 2337.69,-1341.98 2328.7,-1290.96"/>
<polygon fill="grey" stroke="grey" stroke-width="2" points="2332.11,-1290.18 2326.82,-1281 2325.23,-1291.48 2332.11,-1290.18"/>
</g>
<!-- 28&#45;&gt;11 -->
<g id="edge31" class="edge">
<title>28&#45;&gt;11</title>
<path fill="none" stroke="grey" stroke-width="2" d="M1331.18,-1549.91C1488.18,-1549.24 2054.81,-1543.59 2119,-1497 2160.81,-1466.65 2129.9,-1429.48 2162,-1389 2171.42,-1377.12 2184.2,-1366.8 2196.6,-1358.51"/>
<polygon fill="grey" stroke="grey" stroke-width="2" points="2198.53,-1361.43 2205.07,-1353.1 2194.76,-1355.53 2198.53,-1361.43"/>
</g>
<!-- 28&#45;&gt;21 -->
<g id="edge36" class="edge">
<title>28&#45;&gt;21</title>
<path fill="none" stroke="grey" stroke-width="2" d="M1331.2,-1548.53C1367.76,-1544.81 1419.86,-1533.03 1446,-1497 1516.48,-1399.85 1521.4,-1040.31 1435,-957 1394.39,-917.84 1226.75,-903.05 1146.8,-898.15"/>
<polygon fill="grey" stroke="grey" stroke-width="2" points="1146.77,-894.64 1136.58,-897.55 1146.35,-901.63 1146.77,-894.64"/>
</g>
<!-- 28&#45;&gt;22 -->
<g id="edge40" class="edge">
<title>28&#45;&gt;22</title>
<path fill="none" stroke="grey" stroke-width="2" d="M1331.04,-1547.26C1400.91,-1541.75 1541.28,-1527.17 1579,-1497 1612.59,-1470.14 1617,-1451.01 1617,-1408 1617,-1408 1617,-1408 1617,-1046 1617,-997.64 1585.18,-949.06 1562.72,-920.79"/>
<polygon fill="grey" stroke="grey" stroke-width="2" points="1565.42,-918.57 1556.38,-913.04 1560,-922.99 1565.42,-918.57"/>
</g>
<!-- 28&#45;&gt;23 -->
<g id="edge44" class="edge">
<title>28&#45;&gt;23</title>
<path fill="none" stroke="grey" stroke-width="2" d="M1331.33,-1549.23C1470.72,-1546.27 1926.52,-1533.84 1980,-1497 2088.04,-1422.58 2040,-1457.73 2070,-993 2071.03,-977.03 2072.41,-972.82 2070,-957 2068.24,-945.45 2064.71,-933.08 2061.17,-922.51"/>
<polygon fill="grey" stroke="grey" stroke-width="2" points="2064.45,-921.29 2057.83,-913.03 2057.85,-923.62 2064.45,-921.29"/>
</g>
<!-- 28&#45;&gt;24 -->
<g id="edge48" class="edge">
<title>28&#45;&gt;24</title>
<path fill="none" stroke="grey" stroke-width="2" d="M1331.15,-1549.12C1392.95,-1546.49 1514.05,-1536.28 1608,-1497 1670.25,-1470.97 1731,-1475.48 1731,-1408 1731,-1408 1731,-1408 1731,-1046 1731,-1003.06 1733.49,-953.26 1735.26,-923.21"/>
<polygon fill="grey" stroke="grey" stroke-width="2" points="1738.76,-923.28 1735.87,-913.09 1731.77,-922.86 1738.76,-923.28"/>
</g>
<!-- 30 -->
<g id="node31" class="node">
<title>30</title>
<path fill="none" stroke="#d8cb56" stroke-width="2" d="M1002.5,-1065C1002.5,-1065 915.5,-1065 915.5,-1065 909.5,-1065 903.5,-1059 903.5,-1053 903.5,-1053 903.5,-1041 903.5,-1041 903.5,-1035 909.5,-1029 915.5,-1029 915.5,-1029 1002.5,-1029 1002.5,-1029 1008.5,-1029 1014.5,-1035 1014.5,-1041 1014.5,-1041 1014.5,-1053 1014.5,-1053 1014.5,-1059 1008.5,-1065 1002.5,-1065"/>
<text text-anchor="middle" x="959" y="-1044.5" font-family="sans" font-size="10.00">samtools_view_md</text>
</g>
<!-- 28&#45;&gt;30 -->
<g id="edge59" class="edge">
<title>28&#45;&gt;30</title>
<path fill="none" stroke="grey" stroke-width="2" d="M1269.65,-1532.78C1221.38,-1491.76 1108,-1382.78 1108,-1264 1108,-1264 1108,-1264 1108,-1190 1108,-1133.62 1051.4,-1092.8 1007.97,-1069.77"/>
<polygon fill="grey" stroke="grey" stroke-width="2" points="1009.42,-1066.58 998.93,-1065.13 1006.23,-1072.81 1009.42,-1066.58"/>
</g>
<!-- 31 -->
<g id="node32" class="node">
<title>31</title>
<path fill="none" stroke="#d8cb56" stroke-width="2" d="M1302.5,-1065C1302.5,-1065 1215.5,-1065 1215.5,-1065 1209.5,-1065 1203.5,-1059 1203.5,-1053 1203.5,-1053 1203.5,-1041 1203.5,-1041 1203.5,-1035 1209.5,-1029 1215.5,-1029 1215.5,-1029 1302.5,-1029 1302.5,-1029 1308.5,-1029 1314.5,-1035 1314.5,-1041 1314.5,-1041 1314.5,-1053 1314.5,-1053 1314.5,-1059 1308.5,-1065 1302.5,-1065"/>
<text text-anchor="middle" x="1259" y="-1044.5" font-family="sans" font-size="10.00">samtools_view_md</text>
</g>
<!-- 28&#45;&gt;31 -->
<g id="edge61" class="edge">
<title>28&#45;&gt;31</title>
<path fill="none" stroke="grey" stroke-width="2" d="M1289.36,-1532.95C1287.17,-1502.33 1286.02,-1436.8 1310,-1389 1320.43,-1368.21 1336.08,-1372.98 1348,-1353 1368.99,-1317.82 1372,-1304.97 1372,-1264 1372,-1264 1372,-1264 1372,-1190 1372,-1139.17 1327.12,-1096.01 1293.93,-1071.04"/>
<polygon fill="grey" stroke="grey" stroke-width="2" points="1295.92,-1068.16 1285.78,-1065.09 1291.79,-1073.82 1295.92,-1068.16"/>
</g>
<!-- 32 -->
<g id="node33" class="node">
<title>32</title>
<path fill="none" stroke="#d8cb56" stroke-width="2" d="M1933.5,-1065C1933.5,-1065 1846.5,-1065 1846.5,-1065 1840.5,-1065 1834.5,-1059 1834.5,-1053 1834.5,-1053 1834.5,-1041 1834.5,-1041 1834.5,-1035 1840.5,-1029 1846.5,-1029 1846.5,-1029 1933.5,-1029 1933.5,-1029 1939.5,-1029 1945.5,-1035 1945.5,-1041 1945.5,-1041 1945.5,-1053 1945.5,-1053 1945.5,-1059 1939.5,-1065 1933.5,-1065"/>
<text text-anchor="middle" x="1890" y="-1044.5" font-family="sans" font-size="10.00">samtools_view_md</text>
</g>
<!-- 28&#45;&gt;32 -->
<g id="edge63" class="edge">
<title>28&#45;&gt;32</title>
<path fill="none" stroke="grey" stroke-width="2" d="M1331.06,-1548.85C1465.26,-1544.71 1893.57,-1529.07 1946,-1497 1985.67,-1472.74 2001,-1454.5 2001,-1408 2001,-1408 2001,-1408 2001,-1190 2001,-1139.59 1957.04,-1096.39 1924.45,-1071.29"/>
<polygon fill="grey" stroke="grey" stroke-width="2" points="1926.13,-1068.18 1916.02,-1065 1921.95,-1073.79 1926.13,-1068.18"/>
</g>
<!-- 33 -->
<g id="node34" class="node">
<title>33</title>
<path fill="none" stroke="#8fd856" stroke-width="2" d="M1557.5,-1497C1557.5,-1497 1512.5,-1497 1512.5,-1497 1506.5,-1497 1500.5,-1491 1500.5,-1485 1500.5,-1485 1500.5,-1473 1500.5,-1473 1500.5,-1467 1506.5,-1461 1512.5,-1461 1512.5,-1461 1557.5,-1461 1557.5,-1461 1563.5,-1461 1569.5,-1467 1569.5,-1473 1569.5,-1473 1569.5,-1485 1569.5,-1485 1569.5,-1491 1563.5,-1497 1557.5,-1497"/>
<text text-anchor="middle" x="1535" y="-1476.5" font-family="sans" font-size="10.00">bwa_index</text>
</g>
<!-- 28&#45;&gt;33 -->
<g id="edge64" class="edge">
<title>28&#45;&gt;33</title>
<path fill="none" stroke="grey" stroke-width="2" d="M1331.04,-1538.96C1369.15,-1528.4 1428.07,-1511.91 1479,-1497 1482.79,-1495.89 1486.71,-1494.73 1490.65,-1493.55"/>
<polygon fill="grey" stroke="grey" stroke-width="2" points="1491.81,-1496.86 1500.38,-1490.63 1489.8,-1490.15 1491.81,-1496.86"/>
</g>
<!-- 38 -->
<g id="node39" class="node">
<title>38</title>
<path fill="none" stroke="#d89c56" stroke-width="2" d="M788,-921C788,-921 714,-921 714,-921 708,-921 702,-915 702,-909 702,-909 702,-881 702,-881 702,-875 708,-869 714,-869 714,-869 788,-869 788,-869 794,-869 800,-875 800,-881 800,-881 800,-909 800,-909 800,-915 794,-921 788,-921"/>
<text text-anchor="middle" x="751" y="-909" font-family="sans" font-size="10.00">strelka2</text>
<text text-anchor="middle" x="751" y="-898" font-family="sans" font-size="10.00">base: T3</text>
<text text-anchor="middle" x="751" y="-887" font-family="sans" font-size="10.00">tissue: cambium</text>
<text text-anchor="middle" x="751" y="-876" font-family="sans" font-size="10.00">tumor: T2</text>
</g>
<!-- 28&#45;&gt;38 -->
<g id="edge69" class="edge">
<title>28&#45;&gt;38</title>
<path fill="none" stroke="grey" stroke-width="2" d="M1250.99,-1549.39C1114.27,-1546.23 674,-1526.85 674,-1408 674,-1408 674,-1408 674,-1046 674,-1002.04 700.5,-958.04 722.4,-929.17"/>
<polygon fill="grey" stroke="grey" stroke-width="2" points="725.33,-931.11 728.73,-921.08 719.81,-926.8 725.33,-931.11"/>
</g>
<!-- 39 -->
<g id="node40" class="node">
<title>39</title>
<path fill="none" stroke="#d89c56" stroke-width="2" d="M981.5,-921C981.5,-921 934.5,-921 934.5,-921 928.5,-921 922.5,-915 922.5,-909 922.5,-909 922.5,-881 922.5,-881 922.5,-875 928.5,-869 934.5,-869 934.5,-869 981.5,-869 981.5,-869 987.5,-869 993.5,-875 993.5,-881 993.5,-881 993.5,-909 993.5,-909 993.5,-915 987.5,-921 981.5,-921"/>
<text text-anchor="middle" x="958" y="-909" font-family="sans" font-size="10.00">strelka2</text>
<text text-anchor="middle" x="958" y="-898" font-family="sans" font-size="10.00">base: T2</text>
<text text-anchor="middle" x="958" y="-887" font-family="sans" font-size="10.00">tissue: leaf</text>
<text text-anchor="middle" x="958" y="-876" font-family="sans" font-size="10.00">tumor: DS2</text>
</g>
<!-- 28&#45;&gt;39 -->
<g id="edge74" class="edge">
<title>28&#45;&gt;39</title>
<path fill="none" stroke="grey" stroke-width="2" d="M1250.69,-1547.32C1131.33,-1538.28 788,-1503.96 788,-1408 788,-1408 788,-1408 788,-1046 788,-1005.55 780.99,-987.97 807,-957 833.37,-925.61 878.31,-910.21 912.32,-902.75"/>
<polygon fill="grey" stroke="grey" stroke-width="2" points="913.39,-906.11 922.5,-900.69 912,-899.25 913.39,-906.11"/>
</g>
<!-- 40 -->
<g id="node41" class="node">
<title>40</title>
<path fill="none" stroke="#5692d8" stroke-width="2" d="M2262,-1497C2262,-1497 2194,-1497 2194,-1497 2188,-1497 2182,-1491 2182,-1485 2182,-1485 2182,-1473 2182,-1473 2182,-1467 2188,-1461 2194,-1461 2194,-1461 2262,-1461 2262,-1461 2268,-1461 2274,-1467 2274,-1473 2274,-1473 2274,-1485 2274,-1485 2274,-1491 2268,-1497 2262,-1497"/>
<text text-anchor="middle" x="2228" y="-1476.5" font-family="sans" font-size="10.00">samtools_faidx</text>
</g>
<!-- 28&#45;&gt;40 -->
<g id="edge79" class="edge">
<title>28&#45;&gt;40</title>
<path fill="none" stroke="grey" stroke-width="2" d="M1331.4,-1550.01C1455.45,-1549.53 1841.53,-1544.05 2157,-1497 2161.76,-1496.29 2166.68,-1495.42 2171.59,-1494.44"/>
<polygon fill="grey" stroke="grey" stroke-width="2" points="2172.57,-1497.81 2181.63,-1492.32 2171.13,-1490.96 2172.57,-1497.81"/>
</g>
<!-- 41 -->
<g id="node42" class="node">
<title>41</title>
<path fill="none" stroke="#80d856" stroke-width="2" d="M1005.5,-1137C1005.5,-1137 910.5,-1137 910.5,-1137 904.5,-1137 898.5,-1131 898.5,-1125 898.5,-1125 898.5,-1113 898.5,-1113 898.5,-1107 904.5,-1101 910.5,-1101 910.5,-1101 1005.5,-1101 1005.5,-1101 1011.5,-1101 1017.5,-1107 1017.5,-1113 1017.5,-1113 1017.5,-1125 1017.5,-1125 1017.5,-1131 1011.5,-1137 1005.5,-1137"/>
<text text-anchor="middle" x="958" y="-1116.5" font-family="sans" font-size="10.00">gatk_markduplicates</text>
</g>
<!-- 28&#45;&gt;41 -->
<g id="edge81" class="edge">
<title>28&#45;&gt;41</title>
<path fill="none" stroke="grey" stroke-width="2" d="M1250.76,-1548.71C1195.9,-1545.53 1095.81,-1534.58 1020,-1497 966.69,-1470.58 920,-1467.5 920,-1408 920,-1408 920,-1408 920,-1262 920,-1220.63 935.23,-1174.72 946.41,-1146.61"/>
<polygon fill="grey" stroke="grey" stroke-width="2" points="949.76,-1147.67 950.31,-1137.09 943.28,-1145.02 949.76,-1147.67"/>
</g>
<!-- 42 -->
<g id="node43" class="node">
<title>42</title>
<path fill="none" stroke="#80d856" stroke-width="2" d="M1306.5,-1137C1306.5,-1137 1211.5,-1137 1211.5,-1137 1205.5,-1137 1199.5,-1131 1199.5,-1125 1199.5,-1125 1199.5,-1113 1199.5,-1113 1199.5,-1107 1205.5,-1101 1211.5,-1101 1211.5,-1101 1306.5,-1101 1306.5,-1101 1312.5,-1101 1318.5,-1107 1318.5,-1113 1318.5,-1113 1318.5,-1125 1318.5,-1125 1318.5,-1131 1312.5,-1137 1306.5,-1137"/>
<text text-anchor="middle" x="1259" y="-1116.5" font-family="sans" font-size="10.00">gatk_markduplicates</text>
</g>
<!-- 28&#45;&gt;42 -->
<g id="edge84" class="edge">
<title>28&#45;&gt;42</title>
<path fill="none" stroke="grey" stroke-width="2" d="M1282.49,-1532.65C1277.74,-1522.45 1271.99,-1509.2 1268,-1497 1227.26,-1372.27 1217.53,-1339.41 1203,-1209 1201.23,-1193.1 1196.67,-1187.7 1203,-1173 1207.79,-1161.87 1216.19,-1151.99 1225.05,-1143.86"/>
<polygon fill="grey" stroke="grey" stroke-width="2" points="1227.54,-1146.34 1232.88,-1137.18 1223,-1141.01 1227.54,-1146.34"/>
</g>
<!-- 43 -->
<g id="node44" class="node">
<title>43</title>
<path fill="none" stroke="#80d856" stroke-width="2" d="M1922.5,-1137C1922.5,-1137 1827.5,-1137 1827.5,-1137 1821.5,-1137 1815.5,-1131 1815.5,-1125 1815.5,-1125 1815.5,-1113 1815.5,-1113 1815.5,-1107 1821.5,-1101 1827.5,-1101 1827.5,-1101 1922.5,-1101 1922.5,-1101 1928.5,-1101 1934.5,-1107 1934.5,-1113 1934.5,-1113 1934.5,-1125 1934.5,-1125 1934.5,-1131 1928.5,-1137 1922.5,-1137"/>
<text text-anchor="middle" x="1875" y="-1116.5" font-family="sans" font-size="10.00">gatk_markduplicates</text>
</g>
<!-- 28&#45;&gt;43 -->
<g id="edge87" class="edge">
<title>28&#45;&gt;43</title>
<path fill="none" stroke="grey" stroke-width="2" d="M1331.26,-1548.94C1462.04,-1545.17 1869.28,-1530.81 1917,-1497 1952.38,-1471.93 1957,-1451.37 1957,-1408 1957,-1408 1957,-1408 1957,-1262 1957,-1215.88 1924.16,-1171.26 1900.04,-1144.72"/>
<polygon fill="grey" stroke="grey" stroke-width="2" points="1902.59,-1142.31 1893.2,-1137.4 1897.48,-1147.1 1902.59,-1142.31"/>
</g>
<!-- 51 -->
<g id="node52" class="node">
<title>51</title>
<path fill="none" stroke="#56b9d8" stroke-width="2" d="M422,-761C422,-761 252,-761 252,-761 246,-761 240,-755 240,-749 240,-749 240,-737 240,-737 240,-731 246,-725 252,-725 252,-725 422,-725 422,-725 428,-725 434,-731 434,-737 434,-737 434,-749 434,-749 434,-755 428,-761 422,-761"/>
<text text-anchor="middle" x="337" y="-746" font-family="sans" font-size="10.00">gatk_genotypegvcfs</text>
<text text-anchor="middle" x="337" y="-735" font-family="sans" font-size="10.00">interval: 0000&#45;scattered.interval_list</text>
</g>
<!-- 28&#45;&gt;51 -->
<g id="edge96" class="edge">
<title>28&#45;&gt;51</title>
<path fill="none" stroke="grey" stroke-width="2" d="M1250.73,-1549.84C1080.41,-1548.9 418.75,-1542.35 216,-1497 114.67,-1474.34 0,-1511.83 0,-1408 0,-1408 0,-1408 0,-894 0,-791.69 131.25,-758.65 229.93,-748.28"/>
<polygon fill="grey" stroke="grey" stroke-width="2" points="230.37,-751.75 239.98,-747.29 229.68,-744.79 230.37,-751.75"/>
</g>
<!-- 52 -->
<g id="node53" class="node">
<title>52</title>
<path fill="none" stroke="#59d856" stroke-width="2" d="M1051,-1353C1051,-1353 985,-1353 985,-1353 979,-1353 973,-1347 973,-1341 973,-1341 973,-1329 973,-1329 973,-1323 979,-1317 985,-1317 985,-1317 1051,-1317 1051,-1317 1057,-1317 1063,-1323 1063,-1329 1063,-1329 1063,-1341 1063,-1341 1063,-1347 1057,-1353 1051,-1353"/>
<text text-anchor="middle" x="1018" y="-1332.5" font-family="sans" font-size="10.00">samtools_view</text>
</g>
<!-- 28&#45;&gt;52 -->
<g id="edge99" class="edge">
<title>28&#45;&gt;52</title>
<path fill="none" stroke="grey" stroke-width="2" d="M1250.79,-1546.32C1189.26,-1539.89 1075.82,-1524.57 1047,-1497 1010.92,-1462.48 1010.72,-1399.44 1014.13,-1363.33"/>
<polygon fill="grey" stroke="grey" stroke-width="2" points="1017.65,-1363.38 1015.27,-1353.05 1010.69,-1362.61 1017.65,-1363.38"/>
</g>
<!-- 53 -->
<g id="node54" class="node">
<title>53</title>
<path fill="none" stroke="#59d856" stroke-width="2" d="M1327,-1353C1327,-1353 1261,-1353 1261,-1353 1255,-1353 1249,-1347 1249,-1341 1249,-1341 1249,-1329 1249,-1329 1249,-1323 1255,-1317 1261,-1317 1261,-1317 1327,-1317 1327,-1317 1333,-1317 1339,-1323 1339,-1329 1339,-1329 1339,-1341 1339,-1341 1339,-1347 1333,-1353 1327,-1353"/>
<text text-anchor="middle" x="1294" y="-1332.5" font-family="sans" font-size="10.00">samtools_view</text>
</g>
<!-- 28&#45;&gt;53 -->
<g id="edge101" class="edge">
<title>28&#45;&gt;53</title>
<path fill="none" stroke="grey" stroke-width="2" d="M1285.18,-1532.56C1282.07,-1522.33 1278.57,-1509.08 1277,-1497 1270.82,-1449.4 1269.58,-1436.42 1277,-1389 1278.36,-1380.31 1280.9,-1371.1 1283.61,-1362.84"/>
<polygon fill="grey" stroke="grey" stroke-width="2" points="1286.94,-1363.93 1286.93,-1353.33 1280.33,-1361.62 1286.94,-1363.93"/>
</g>
<!-- 54 -->
<g id="node55" class="node">
<title>54</title>
<path fill="none" stroke="#59d856" stroke-width="2" d="M1853,-1353C1853,-1353 1787,-1353 1787,-1353 1781,-1353 1775,-1347 1775,-1341 1775,-1341 1775,-1329 1775,-1329 1775,-1323 1781,-1317 1787,-1317 1787,-1317 1853,-1317 1853,-1317 1859,-1317 1865,-1323 1865,-1329 1865,-1329 1865,-1341 1865,-1341 1865,-1347 1859,-1353 1853,-1353"/>
<text text-anchor="middle" x="1820" y="-1332.5" font-family="sans" font-size="10.00">samtools_view</text>
</g>
<!-- 28&#45;&gt;54 -->
<g id="edge103" class="edge">
<title>28&#45;&gt;54</title>
<path fill="none" stroke="grey" stroke-width="2" d="M1331.05,-1549.56C1460.08,-1547.73 1858.78,-1538.71 1897,-1497 1934.27,-1456.33 1882.46,-1394.36 1847.45,-1360.39"/>
<polygon fill="grey" stroke="grey" stroke-width="2" points="1849.5,-1357.51 1839.83,-1353.18 1844.69,-1362.6 1849.5,-1357.51"/>
</g>
<!-- 28&#45;&gt;56 -->
<g id="edge107" class="edge">
<title>28&#45;&gt;56</title>
<path fill="none" stroke="grey" stroke-width="2" d="M1250.59,-1546.66C1190.83,-1540.8 1083.39,-1526.37 1060,-1497 1046.12,-1479.58 1051.19,-1453.83 1058.36,-1434.51"/>
<polygon fill="grey" stroke="grey" stroke-width="2" points="1061.68,-1435.65 1062.22,-1425.07 1055.2,-1433 1061.68,-1435.65"/>
</g>
<!-- 28&#45;&gt;57 -->
<g id="edge110" class="edge">
<title>28&#45;&gt;57</title>
<path fill="none" stroke="grey" stroke-width="2" d="M1298.48,-1532.87C1309.14,-1508.46 1328.8,-1463.43 1341.37,-1434.64"/>
<polygon fill="grey" stroke="grey" stroke-width="2" points="1344.7,-1435.75 1345.49,-1425.19 1338.29,-1432.95 1344.7,-1435.75"/>
</g>
<!-- 28&#45;&gt;58 -->
<g id="edge113" class="edge">
<title>28&#45;&gt;58</title>
<path fill="none" stroke="grey" stroke-width="2" d="M1331.01,-1549.51C1428.55,-1547.65 1675.7,-1538.83 1745,-1497 1768.81,-1482.63 1785.52,-1454.99 1795.36,-1434.3"/>
<polygon fill="grey" stroke="grey" stroke-width="2" points="1798.6,-1435.64 1799.52,-1425.08 1792.22,-1432.76 1798.6,-1435.64"/>
</g>
<!-- 62 -->
<g id="node63" class="node">
<title>62</title>
<path fill="none" stroke="#afd856" stroke-width="2" d="M210,-993C210,-993 40,-993 40,-993 34,-993 28,-987 28,-981 28,-981 28,-969 28,-969 28,-963 34,-957 40,-957 40,-957 210,-957 210,-957 216,-957 222,-963 222,-969 222,-969 222,-981 222,-981 222,-987 216,-993 210,-993"/>
<text text-anchor="middle" x="125" y="-978" font-family="sans" font-size="10.00">gatk_haplotypecaller</text>
<text text-anchor="middle" x="125" y="-967" font-family="sans" font-size="10.00">interval: 0000&#45;scattered.interval_list</text>
</g>
<!-- 28&#45;&gt;62 -->
<g id="edge119" class="edge">
<title>28&#45;&gt;62</title>
<path fill="none" stroke="grey" stroke-width="2" d="M1250.91,-1549.32C1101.72,-1546.51 578.96,-1534.19 417,-1497 315.8,-1473.76 201,-1511.83 201,-1408 201,-1408 201,-1408 201,-1118 201,-1072.64 170.48,-1027.75 148.12,-1000.95"/>
<polygon fill="grey" stroke="grey" stroke-width="2" points="150.66,-998.53 141.49,-993.23 145.36,-1003.09 150.66,-998.53"/>
</g>
<!-- 63 -->
<g id="node64" class="node">
<title>63</title>
<path fill="none" stroke="#afd856" stroke-width="2" d="M422,-993C422,-993 252,-993 252,-993 246,-993 240,-987 240,-981 240,-981 240,-969 240,-969 240,-963 246,-957 252,-957 252,-957 422,-957 422,-957 428,-957 434,-963 434,-969 434,-969 434,-981 434,-981 434,-987 428,-993 422,-993"/>
<text text-anchor="middle" x="337" y="-978" font-family="sans" font-size="10.00">gatk_haplotypecaller</text>
<text text-anchor="middle" x="337" y="-967" font-family="sans" font-size="10.00">interval: 0000&#45;scattered.interval_list</text>
</g>
<!-- 28&#45;&gt;63 -->
<g id="edge122" class="edge">
<title>28&#45;&gt;63</title>
<path fill="none" stroke="grey" stroke-width="2" d="M1250.63,-1549.58C1122.58,-1547.82 726.99,-1539.05 607,-1497 540.57,-1473.72 476,-1478.39 476,-1408 476,-1408 476,-1408 476,-1118 476,-1063.16 422.4,-1021.67 381.76,-998.1"/>
<polygon fill="grey" stroke="grey" stroke-width="2" points="383.23,-994.91 372.8,-993.06 379.8,-1001.01 383.23,-994.91"/>
</g>
<!-- 64 -->
<g id="node65" class="node">
<title>64</title>
<path fill="none" stroke="#afd856" stroke-width="2" d="M634,-993C634,-993 464,-993 464,-993 458,-993 452,-987 452,-981 452,-981 452,-969 452,-969 452,-963 458,-957 464,-957 464,-957 634,-957 634,-957 640,-957 646,-963 646,-969 646,-969 646,-981 646,-981 646,-987 640,-993 634,-993"/>
<text text-anchor="middle" x="549" y="-978" font-family="sans" font-size="10.00">gatk_haplotypecaller</text>
<text text-anchor="middle" x="549" y="-967" font-family="sans" font-size="10.00">interval: 0000&#45;scattered.interval_list</text>
</g>
<!-- 28&#45;&gt;64 -->
<g id="edge125" class="edge">
<title>28&#45;&gt;64</title>
<path fill="none" stroke="grey" stroke-width="2" d="M1250.7,-1548.52C1119.73,-1543.45 711.6,-1525.5 660,-1497 616.66,-1473.06 593,-1457.51 593,-1408 593,-1408 593,-1408 593,-1118 593,-1076.21 575.4,-1030.48 562.46,-1002.51"/>
<polygon fill="grey" stroke="grey" stroke-width="2" points="565.58,-1000.92 558.12,-993.39 559.26,-1003.93 565.58,-1000.92"/>
</g>
<!-- 65 -->
<g id="node66" class="node">
<title>65</title>
<path fill="none" stroke="#d6d856" stroke-width="2" d="M396,-1065C396,-1065 358,-1065 358,-1065 352,-1065 346,-1059 346,-1053 346,-1053 346,-1041 346,-1041 346,-1035 352,-1029 358,-1029 358,-1029 396,-1029 396,-1029 402,-1029 408,-1035 408,-1041 408,-1041 408,-1053 408,-1053 408,-1059 402,-1065 396,-1065"/>
<text text-anchor="middle" x="377" y="-1044.5" font-family="sans" font-size="10.00">gatk_dict</text>
</g>
<!-- 28&#45;&gt;65 -->
<g id="edge128" class="edge">
<title>28&#45;&gt;65</title>
<path fill="none" stroke="grey" stroke-width="2" d="M1251,-1549.58C1094.65,-1547.64 530.09,-1537.87 462,-1497 422.13,-1473.07 407,-1454.5 407,-1408 407,-1408 407,-1408 407,-1190 407,-1149.16 394.97,-1103.11 386.15,-1074.82"/>
<polygon fill="grey" stroke="grey" stroke-width="2" points="389.46,-1073.69 383.07,-1065.24 382.8,-1075.83 389.46,-1073.69"/>
</g>
<!-- 29 -->
<g id="node30" class="node">
<title>29</title>
<path fill="none" stroke="#d86656" stroke-width="2" d="M2293,-1425C2293,-1425 2183,-1425 2183,-1425 2177,-1425 2171,-1419 2171,-1413 2171,-1413 2171,-1401 2171,-1401 2171,-1395 2177,-1389 2183,-1389 2183,-1389 2293,-1389 2293,-1389 2299,-1389 2305,-1395 2305,-1401 2305,-1401 2305,-1413 2305,-1413 2305,-1419 2299,-1425 2293,-1425"/>
<text text-anchor="middle" x="2238" y="-1404.5" font-family="sans" font-size="10.00">bedtools_makewindows</text>
</g>
<!-- 29&#45;&gt;11 -->
<g id="edge32" class="edge">
<title>29&#45;&gt;11</title>
<path fill="none" stroke="grey" stroke-width="2" d="M2238,-1388.7C2238,-1380.98 2238,-1371.71 2238,-1363.11"/>
<polygon fill="grey" stroke="grey" stroke-width="2" points="2241.5,-1363.1 2238,-1353.1 2234.5,-1363.1 2241.5,-1363.1"/>
</g>
<!-- 30&#45;&gt;18 -->
<g id="edge33" class="edge">
<title>30&#45;&gt;18</title>
<path fill="none" stroke="grey" stroke-width="2" d="M977.54,-1028.7C986.8,-1020.05 998.16,-1009.45 1008.26,-1000.03"/>
<polygon fill="grey" stroke="grey" stroke-width="2" points="1010.75,-1002.49 1015.67,-993.1 1005.98,-997.37 1010.75,-1002.49"/>
</g>
<!-- 30&#45;&gt;21 -->
<g id="edge37" class="edge">
<title>30&#45;&gt;21</title>
<path fill="none" stroke="grey" stroke-width="2" d="M1014.74,-1036.45C1041.17,-1029.03 1070.87,-1015.95 1089,-993 1104.47,-973.41 1107.15,-944.49 1106.61,-923.32"/>
<polygon fill="grey" stroke="grey" stroke-width="2" points="1110.09,-922.86 1106.08,-913.05 1103.1,-923.21 1110.09,-922.86"/>
</g>
<!-- 34 -->
<g id="node35" class="node">
<title>34</title>
<path fill="none" stroke="#56a2d8" stroke-width="2" d="M919.5,-993C919.5,-993 828.5,-993 828.5,-993 822.5,-993 816.5,-987 816.5,-981 816.5,-981 816.5,-969 816.5,-969 816.5,-963 822.5,-957 828.5,-957 828.5,-957 919.5,-957 919.5,-957 925.5,-957 931.5,-963 931.5,-969 931.5,-969 931.5,-981 931.5,-981 931.5,-987 925.5,-993 919.5,-993"/>
<text text-anchor="middle" x="874" y="-972.5" font-family="sans" font-size="10.00">samtools_index_md</text>
</g>
<!-- 30&#45;&gt;34 -->
<g id="edge65" class="edge">
<title>30&#45;&gt;34</title>
<path fill="none" stroke="grey" stroke-width="2" d="M937.99,-1028.7C927.28,-1019.88 914.11,-1009.03 902.5,-999.47"/>
<polygon fill="grey" stroke="grey" stroke-width="2" points="904.71,-996.76 894.77,-993.1 900.26,-1002.16 904.71,-996.76"/>
</g>
<!-- 30&#45;&gt;38 -->
<g id="edge70" class="edge">
<title>30&#45;&gt;38</title>
<path fill="none" stroke="grey" stroke-width="2" d="M903.29,-1040.56C844.16,-1033.51 756.48,-1018.91 736,-993 722.29,-975.65 726.33,-950.97 733.65,-930.84"/>
<polygon fill="grey" stroke="grey" stroke-width="2" points="736.98,-931.96 737.45,-921.38 730.48,-929.36 736.98,-931.96"/>
</g>
<!-- 30&#45;&gt;39 -->
<g id="edge76" class="edge">
<title>30&#45;&gt;39</title>
<path fill="none" stroke="grey" stroke-width="2" d="M958.89,-1028.79C958.73,-1005.18 958.44,-962.18 958.24,-931.51"/>
<polygon fill="grey" stroke="grey" stroke-width="2" points="961.73,-931.2 958.17,-921.23 954.74,-931.25 961.73,-931.2"/>
</g>
<!-- 30&#45;&gt;62 -->
<g id="edge120" class="edge">
<title>30&#45;&gt;62</title>
<path fill="none" stroke="grey" stroke-width="2" d="M903.13,-1043.58C782.55,-1038 488.74,-1022.49 232.53,-993.12"/>
<polygon fill="grey" stroke="grey" stroke-width="2" points="232.62,-989.61 222.28,-991.94 231.82,-996.56 232.62,-989.61"/>
</g>
<!-- 31&#45;&gt;19 -->
<g id="edge34" class="edge">
<title>31&#45;&gt;19</title>
<path fill="none" stroke="grey" stroke-width="2" d="M1249.36,-1028.7C1244.87,-1020.64 1239.44,-1010.89 1234.48,-1001.98"/>
<polygon fill="grey" stroke="grey" stroke-width="2" points="1237.45,-1000.14 1229.53,-993.1 1231.34,-1003.54 1237.45,-1000.14"/>
</g>
<!-- 31&#45;&gt;22 -->
<g id="edge41" class="edge">
<title>31&#45;&gt;22</title>
<path fill="none" stroke="grey" stroke-width="2" d="M1314.74,-1030.39C1343.44,-1021.31 1378.5,-1008.58 1408,-993 1447.22,-972.28 1487.77,-941.03 1513.62,-919.64"/>
<polygon fill="grey" stroke="grey" stroke-width="2" points="1516.06,-922.16 1521.48,-913.06 1511.56,-916.8 1516.06,-922.16"/>
</g>
<!-- 35 -->
<g id="node36" class="node">
<title>35</title>
<path fill="none" stroke="#56a2d8" stroke-width="2" d="M1386.5,-993C1386.5,-993 1295.5,-993 1295.5,-993 1289.5,-993 1283.5,-987 1283.5,-981 1283.5,-981 1283.5,-969 1283.5,-969 1283.5,-963 1289.5,-957 1295.5,-957 1295.5,-957 1386.5,-957 1386.5,-957 1392.5,-957 1398.5,-963 1398.5,-969 1398.5,-969 1398.5,-981 1398.5,-981 1398.5,-987 1392.5,-993 1386.5,-993"/>
<text text-anchor="middle" x="1341" y="-972.5" font-family="sans" font-size="10.00">samtools_index_md</text>
</g>
<!-- 31&#45;&gt;35 -->
<g id="edge66" class="edge">
<title>31&#45;&gt;35</title>
<path fill="none" stroke="grey" stroke-width="2" d="M1279.27,-1028.7C1289.5,-1019.97 1302.06,-1009.24 1313.18,-999.75"/>
<polygon fill="grey" stroke="grey" stroke-width="2" points="1315.63,-1002.26 1320.96,-993.1 1311.09,-996.94 1315.63,-1002.26"/>
</g>
<!-- 31&#45;&gt;38 -->
<g id="edge71" class="edge">
<title>31&#45;&gt;38</title>
<path fill="none" stroke="grey" stroke-width="2" d="M1203.22,-1042.26C1089.65,-1034.24 839.51,-1014.39 807,-993 785.02,-978.54 770.64,-952.28 761.95,-930.72"/>
<polygon fill="grey" stroke="grey" stroke-width="2" points="765.17,-929.32 758.36,-921.21 758.62,-931.8 765.17,-929.32"/>
</g>
<!-- 31&#45;&gt;63 -->
<g id="edge123" class="edge">
<title>31&#45;&gt;63</title>
<path fill="none" stroke="grey" stroke-width="2" d="M1203.22,-1041.83C1155.41,-1038.28 1084.68,-1033.14 1023,-1029 768.58,-1011.94 701.4,-1021.24 444.29,-993.08"/>
<polygon fill="grey" stroke="grey" stroke-width="2" points="444.6,-989.6 434.28,-991.98 443.83,-996.55 444.6,-989.6"/>
</g>
<!-- 32&#45;&gt;20 -->
<g id="edge35" class="edge">
<title>32&#45;&gt;20</title>
<path fill="none" stroke="grey" stroke-width="2" d="M1911.51,-1028.7C1922.46,-1019.88 1935.95,-1009.03 1947.82,-999.47"/>
<polygon fill="grey" stroke="grey" stroke-width="2" points="1950.14,-1002.1 1955.74,-993.1 1945.76,-996.65 1950.14,-1002.1"/>
</g>
<!-- 32&#45;&gt;23 -->
<g id="edge45" class="edge">
<title>32&#45;&gt;23</title>
<path fill="none" stroke="grey" stroke-width="2" d="M1945.59,-1031.31C1980.2,-1021.06 2020.3,-1006.8 2032,-993 2048.33,-973.74 2052.17,-944.58 2052.48,-923.26"/>
<polygon fill="grey" stroke="grey" stroke-width="2" points="2055.97,-923.17 2052.37,-913.21 2048.98,-923.24 2055.97,-923.17"/>
</g>
<!-- 32&#45;&gt;24 -->
<g id="edge49" class="edge">
<title>32&#45;&gt;24</title>
<path fill="none" stroke="grey" stroke-width="2" d="M1893.8,-1028.83C1897.04,-1009.48 1899.08,-978.01 1884,-957 1882.47,-954.87 1830.83,-933.72 1789.19,-916.92"/>
<polygon fill="grey" stroke="grey" stroke-width="2" points="1790.25,-913.57 1779.67,-913.08 1787.64,-920.06 1790.25,-913.57"/>
</g>
<!-- 36 -->
<g id="node37" class="node">
<title>36</title>
<path fill="none" stroke="#56a2d8" stroke-width="2" d="M1862.5,-993C1862.5,-993 1771.5,-993 1771.5,-993 1765.5,-993 1759.5,-987 1759.5,-981 1759.5,-981 1759.5,-969 1759.5,-969 1759.5,-963 1765.5,-957 1771.5,-957 1771.5,-957 1862.5,-957 1862.5,-957 1868.5,-957 1874.5,-963 1874.5,-969 1874.5,-969 1874.5,-981 1874.5,-981 1874.5,-987 1868.5,-993 1862.5,-993"/>
<text text-anchor="middle" x="1817" y="-972.5" font-family="sans" font-size="10.00">samtools_index_md</text>
</g>
<!-- 32&#45;&gt;36 -->
<g id="edge67" class="edge">
<title>32&#45;&gt;36</title>
<path fill="none" stroke="grey" stroke-width="2" d="M1871.96,-1028.7C1862.94,-1020.05 1851.88,-1009.45 1842.06,-1000.03"/>
<polygon fill="grey" stroke="grey" stroke-width="2" points="1844.48,-997.5 1834.84,-993.1 1839.63,-1002.55 1844.48,-997.5"/>
</g>
<!-- 32&#45;&gt;39 -->
<g id="edge75" class="edge">
<title>32&#45;&gt;39</title>
<path fill="none" stroke="grey" stroke-width="2" d="M1834.21,-1034.22C1744.67,-1015.65 1563.18,-979.39 1408,-957 1255.41,-934.99 1214.97,-946.91 1063,-921 1043.36,-917.65 1021.93,-912.77 1003.57,-908.21"/>
<polygon fill="grey" stroke="grey" stroke-width="2" points="1004.28,-904.78 993.72,-905.72 1002.56,-911.57 1004.28,-904.78"/>
</g>
<!-- 32&#45;&gt;64 -->
<g id="edge126" class="edge">
<title>32&#45;&gt;64</title>
<path fill="none" stroke="grey" stroke-width="2" d="M1834.47,-1043.61C1674.77,-1036.68 1200.49,-1015.59 807,-993 757.42,-990.15 702.51,-986.59 656.13,-983.47"/>
<polygon fill="grey" stroke="grey" stroke-width="2" points="656.28,-979.97 646.07,-982.79 655.81,-986.95 656.28,-979.97"/>
</g>
<!-- 33&#45;&gt;21 -->
<g id="edge38" class="edge">
<title>33&#45;&gt;21</title>
<path fill="none" stroke="grey" stroke-width="2" d="M1530.76,-1460.98C1518.37,-1411.18 1481.19,-1261.43 1451,-1137 1431.61,-1057.07 1467.21,-1014.09 1408,-957 1371.13,-921.45 1221.09,-905.04 1146.51,-898.97"/>
<polygon fill="grey" stroke="grey" stroke-width="2" points="1146.75,-895.47 1136.5,-898.18 1146.2,-902.45 1146.75,-895.47"/>
</g>
<!-- 33&#45;&gt;22 -->
<g id="edge42" class="edge">
<title>33&#45;&gt;22</title>
<path fill="none" stroke="grey" stroke-width="2" d="M1536.19,-1460.96C1537.93,-1434.31 1541,-1381.15 1541,-1336 1541,-1336 1541,-1336 1541,-1046 1541,-1003.09 1541,-953.28 1541,-923.23"/>
<polygon fill="grey" stroke="grey" stroke-width="2" points="1544.5,-923.1 1541,-913.1 1537.5,-923.1 1544.5,-923.1"/>
</g>
<!-- 33&#45;&gt;23 -->
<g id="edge46" class="edge">
<title>33&#45;&gt;23</title>
<path fill="none" stroke="grey" stroke-width="2" d="M1555.39,-1460.78C1594.18,-1428.73 1682.24,-1359.34 1766,-1317 1810.4,-1294.55 1832.92,-1311.79 1872,-1281 1990.94,-1187.29 2011.89,-1138.44 2054,-993 2060.6,-970.2 2059.03,-943.11 2056.28,-923.36"/>
<polygon fill="grey" stroke="grey" stroke-width="2" points="2059.69,-922.55 2054.67,-913.22 2052.78,-923.64 2059.69,-922.55"/>
</g>
<!-- 33&#45;&gt;24 -->
<g id="edge50" class="edge">
<title>33&#45;&gt;24</title>
<path fill="none" stroke="grey" stroke-width="2" d="M1540.94,-1460.9C1569.48,-1378.66 1692.67,-1023.72 1727.69,-922.84"/>
<polygon fill="grey" stroke="grey" stroke-width="2" points="1731.09,-923.7 1731.06,-913.1 1724.48,-921.4 1731.09,-923.7"/>
</g>
<!-- 33&#45;&gt;56 -->
<g id="edge109" class="edge">
<title>33&#45;&gt;56</title>
<path fill="none" stroke="grey" stroke-width="2" d="M1500.41,-1470.99C1483.96,-1467.76 1464,-1463.99 1446,-1461 1326.93,-1441.23 1185.79,-1422.56 1115.47,-1413.58"/>
<polygon fill="grey" stroke="grey" stroke-width="2" points="1115.57,-1410.06 1105.21,-1412.27 1114.69,-1417.01 1115.57,-1410.06"/>
</g>
<!-- 33&#45;&gt;57 -->
<g id="edge112" class="edge">
<title>33&#45;&gt;57</title>
<path fill="none" stroke="grey" stroke-width="2" d="M1500.34,-1464.67C1470.9,-1453.34 1428.48,-1437.03 1396.71,-1424.81"/>
<polygon fill="grey" stroke="grey" stroke-width="2" points="1397.81,-1421.49 1387.22,-1421.16 1395.3,-1428.02 1397.81,-1421.49"/>
</g>
<!-- 33&#45;&gt;58 -->
<g id="edge115" class="edge">
<title>33&#45;&gt;58</title>
<path fill="none" stroke="grey" stroke-width="2" d="M1569.6,-1469.06C1618.53,-1456.42 1707.95,-1433.33 1761.68,-1419.45"/>
<polygon fill="grey" stroke="grey" stroke-width="2" points="1762.8,-1422.77 1771.61,-1416.88 1761.05,-1416 1762.8,-1422.77"/>
</g>
<!-- 34&#45;&gt;21 -->
<g id="edge39" class="edge">
<title>34&#45;&gt;21</title>
<path fill="none" stroke="grey" stroke-width="2" d="M924.19,-956.98C965.2,-943.07 1022.54,-923.63 1061.36,-910.46"/>
<polygon fill="grey" stroke="grey" stroke-width="2" points="1062.95,-913.62 1071.29,-907.09 1060.7,-906.99 1062.95,-913.62"/>
</g>
<!-- 34&#45;&gt;38 -->
<g id="edge72" class="edge">
<title>34&#45;&gt;38</title>
<path fill="none" stroke="grey" stroke-width="2" d="M847.01,-956.88C833.04,-948.03 815.57,-936.95 799.38,-926.68"/>
<polygon fill="grey" stroke="grey" stroke-width="2" points="800.86,-923.47 790.54,-921.07 797.11,-929.39 800.86,-923.47"/>
</g>
<!-- 34&#45;&gt;39 -->
<g id="edge78" class="edge">
<title>34&#45;&gt;39</title>
<path fill="none" stroke="grey" stroke-width="2" d="M892.64,-956.69C901.67,-948.31 912.8,-937.97 923.3,-928.22"/>
<polygon fill="grey" stroke="grey" stroke-width="2" points="925.85,-930.63 930.8,-921.26 921.09,-925.5 925.85,-930.63"/>
</g>
<!-- 35&#45;&gt;22 -->
<g id="edge43" class="edge">
<title>35&#45;&gt;22</title>
<path fill="none" stroke="grey" stroke-width="2" d="M1384.89,-956.88C1418.8,-943.66 1465.43,-925.47 1498.89,-912.42"/>
<polygon fill="grey" stroke="grey" stroke-width="2" points="1500.34,-915.61 1508.38,-908.72 1497.79,-909.09 1500.34,-915.61"/>
</g>
<!-- 35&#45;&gt;38 -->
<g id="edge73" class="edge">
<title>35&#45;&gt;38</title>
<path fill="none" stroke="grey" stroke-width="2" d="M1283.16,-958.57C1280.41,-958 1277.68,-957.48 1275,-957 1115.8,-928.75 1073.4,-941.34 913,-921 878.88,-916.67 840.88,-910.86 810.26,-905.93"/>
<polygon fill="grey" stroke="grey" stroke-width="2" points="810.61,-902.44 800.18,-904.3 809.49,-909.35 810.61,-902.44"/>
</g>
<!-- 36&#45;&gt;23 -->
<g id="edge47" class="edge">
<title>36&#45;&gt;23</title>
<path fill="none" stroke="grey" stroke-width="2" d="M1868.06,-956.98C1910.21,-942.93 1969.31,-923.23 2008.82,-910.06"/>
<polygon fill="grey" stroke="grey" stroke-width="2" points="2010.04,-913.34 2018.42,-906.86 2007.82,-906.7 2010.04,-913.34"/>
</g>
<!-- 36&#45;&gt;24 -->
<g id="edge51" class="edge">
<title>36&#45;&gt;24</title>
<path fill="none" stroke="grey" stroke-width="2" d="M1799.25,-956.69C1788.27,-945.98 1774.01,-932.08 1761.91,-920.29"/>
<polygon fill="grey" stroke="grey" stroke-width="2" points="1764.31,-917.74 1754.7,-913.26 1759.42,-922.75 1764.31,-917.74"/>
</g>
<!-- 36&#45;&gt;39 -->
<g id="edge77" class="edge">
<title>36&#45;&gt;39</title>
<path fill="none" stroke="grey" stroke-width="2" d="M1759.46,-969.51C1714.22,-966.01 1649.6,-961.07 1593,-957 1357.51,-940.07 1296.42,-956.46 1063,-921 1043.3,-918.01 1021.86,-913.19 1003.51,-908.58"/>
<polygon fill="grey" stroke="grey" stroke-width="2" points="1004.23,-905.15 993.67,-906.05 1002.49,-911.93 1004.23,-905.15"/>
</g>
<!-- 37 -->
<g id="node38" class="node">
<title>37</title>
<path fill="none" stroke="#56d882" stroke-width="2" d="M436,-617C436,-617 362,-617 362,-617 356,-617 350,-611 350,-605 350,-605 350,-593 350,-593 350,-587 356,-581 362,-581 362,-581 436,-581 436,-581 442,-581 448,-587 448,-593 448,-593 448,-605 448,-605 448,-611 442,-617 436,-617"/>
<text text-anchor="middle" x="399" y="-596.5" font-family="sans" font-size="10.00">bcftools_biallelic</text>
</g>
<!-- 37&#45;&gt;25 -->
<g id="edge52" class="edge">
<title>37&#45;&gt;25</title>
<path fill="none" stroke="grey" stroke-width="2" d="M419.27,-580.7C429.5,-571.97 442.06,-561.24 453.18,-551.75"/>
<polygon fill="grey" stroke="grey" stroke-width="2" points="455.63,-554.26 460.96,-545.1 451.09,-548.94 455.63,-554.26"/>
</g>
<!-- 38&#45;&gt;26 -->
<g id="edge53" class="edge">
<title>38&#45;&gt;26</title>
<path fill="none" stroke="grey" stroke-width="2" d="M752.08,-868.79C753.27,-838.99 755,-787.9 755,-744 755,-744 755,-744 755,-454 755,-413.98 756.61,-367.64 757.78,-339.07"/>
<polygon fill="grey" stroke="grey" stroke-width="2" points="761.28,-339.18 758.21,-329.04 754.29,-338.89 761.28,-339.18"/>
</g>
<!-- 39&#45;&gt;27 -->
<g id="edge55" class="edge">
<title>39&#45;&gt;27</title>
<path fill="none" stroke="grey" stroke-width="2" d="M958,-868.79C958,-838.98 958,-787.88 958,-744 958,-744 958,-744 958,-454 958,-414.02 952.44,-368.02 948.32,-339.47"/>
<polygon fill="grey" stroke="grey" stroke-width="2" points="951.76,-338.81 946.83,-329.43 944.84,-339.84 951.76,-338.81"/>
</g>
<!-- 40&#45;&gt;29 -->
<g id="edge57" class="edge">
<title>40&#45;&gt;29</title>
<path fill="none" stroke="grey" stroke-width="2" d="M2230.47,-1460.7C2231.57,-1452.98 2232.9,-1443.71 2234.13,-1435.11"/>
<polygon fill="grey" stroke="grey" stroke-width="2" points="2237.61,-1435.5 2235.56,-1425.1 2230.68,-1434.51 2237.61,-1435.5"/>
</g>
<!-- 41&#45;&gt;30 -->
<g id="edge58" class="edge">
<title>41&#45;&gt;30</title>
<path fill="none" stroke="grey" stroke-width="2" d="M958.25,-1100.7C958.36,-1092.98 958.49,-1083.71 958.61,-1075.11"/>
<polygon fill="grey" stroke="grey" stroke-width="2" points="962.11,-1075.15 958.76,-1065.1 955.11,-1075.05 962.11,-1075.15"/>
</g>
<!-- 42&#45;&gt;31 -->
<g id="edge60" class="edge">
<title>42&#45;&gt;31</title>
<path fill="none" stroke="grey" stroke-width="2" d="M1259,-1100.7C1259,-1092.98 1259,-1083.71 1259,-1075.11"/>
<polygon fill="grey" stroke="grey" stroke-width="2" points="1262.5,-1075.1 1259,-1065.1 1255.5,-1075.1 1262.5,-1075.1"/>
</g>
<!-- 43&#45;&gt;32 -->
<g id="edge62" class="edge">
<title>43&#45;&gt;32</title>
<path fill="none" stroke="grey" stroke-width="2" d="M1878.71,-1100.7C1880.36,-1092.98 1882.35,-1083.71 1884.19,-1075.11"/>
<polygon fill="grey" stroke="grey" stroke-width="2" points="1887.66,-1075.62 1886.33,-1065.1 1880.82,-1074.15 1887.66,-1075.62"/>
</g>
<!-- 44 -->
<g id="node45" class="node">
<title>44</title>
<path fill="none" stroke="#56d873" stroke-width="2" d="M393.5,-689C393.5,-689 322.5,-689 322.5,-689 316.5,-689 310.5,-683 310.5,-677 310.5,-677 310.5,-665 310.5,-665 310.5,-659 316.5,-653 322.5,-653 322.5,-653 393.5,-653 393.5,-653 399.5,-653 405.5,-659 405.5,-665 405.5,-665 405.5,-677 405.5,-677 405.5,-683 399.5,-689 393.5,-689"/>
<text text-anchor="middle" x="358" y="-668.5" font-family="sans" font-size="10.00">gatk_gathervcfs</text>
</g>
<!-- 44&#45;&gt;37 -->
<g id="edge68" class="edge">
<title>44&#45;&gt;37</title>
<path fill="none" stroke="grey" stroke-width="2" d="M368.13,-652.7C372.85,-644.64 378.56,-634.89 383.78,-625.98"/>
<polygon fill="grey" stroke="grey" stroke-width="2" points="386.95,-627.5 388.98,-617.1 380.91,-623.96 386.95,-627.5"/>
</g>
<!-- 45 -->
<g id="node46" class="node">
<title>45</title>
<path fill="none" stroke="#56d8b9" stroke-width="2" d="M1049,-1281C1049,-1281 987,-1281 987,-1281 981,-1281 975,-1275 975,-1269 975,-1269 975,-1257 975,-1257 975,-1251 981,-1245 987,-1245 987,-1245 1049,-1245 1049,-1245 1055,-1245 1061,-1251 1061,-1257 1061,-1257 1061,-1269 1061,-1269 1061,-1275 1055,-1281 1049,-1281"/>
<text text-anchor="middle" x="1018" y="-1260.5" font-family="sans" font-size="10.00">samtools_sort</text>
</g>
<!-- 45&#45;&gt;41 -->
<g id="edge80" class="edge">
<title>45&#45;&gt;41</title>
<path fill="none" stroke="grey" stroke-width="2" d="M1001.38,-1244.7C992.88,-1234.93 983.07,-1222.09 977,-1209 967.88,-1189.35 963.08,-1165.22 960.59,-1147.05"/>
<polygon fill="grey" stroke="grey" stroke-width="2" points="964.06,-1146.61 959.37,-1137.11 957.11,-1147.47 964.06,-1146.61"/>
</g>
<!-- 46 -->
<g id="node47" class="node">
<title>46</title>
<path fill="none" stroke="#bed856" stroke-width="2" d="M1068,-1209C1068,-1209 998,-1209 998,-1209 992,-1209 986,-1203 986,-1197 986,-1197 986,-1185 986,-1185 986,-1179 992,-1173 998,-1173 998,-1173 1068,-1173 1068,-1173 1074,-1173 1080,-1179 1080,-1185 1080,-1185 1080,-1197 1080,-1197 1080,-1203 1074,-1209 1068,-1209"/>
<text text-anchor="middle" x="1033" y="-1188.5" font-family="sans" font-size="10.00">samtools_index</text>
</g>
<!-- 45&#45;&gt;46 -->
<g id="edge91" class="edge">
<title>45&#45;&gt;46</title>
<path fill="none" stroke="grey" stroke-width="2" d="M1021.71,-1244.7C1023.36,-1236.98 1025.35,-1227.71 1027.19,-1219.11"/>
<polygon fill="grey" stroke="grey" stroke-width="2" points="1030.66,-1219.62 1029.33,-1209.1 1023.82,-1218.15 1030.66,-1219.62"/>
</g>
<!-- 46&#45;&gt;41 -->
<g id="edge82" class="edge">
<title>46&#45;&gt;41</title>
<path fill="none" stroke="grey" stroke-width="2" d="M1014.46,-1172.7C1005.2,-1164.05 993.84,-1153.45 983.74,-1144.03"/>
<polygon fill="grey" stroke="grey" stroke-width="2" points="986.02,-1141.37 976.33,-1137.1 981.25,-1146.49 986.02,-1141.37"/>
</g>
<!-- 47 -->
<g id="node48" class="node">
<title>47</title>
<path fill="none" stroke="#56d8b9" stroke-width="2" d="M1325,-1281C1325,-1281 1263,-1281 1263,-1281 1257,-1281 1251,-1275 1251,-1269 1251,-1269 1251,-1257 1251,-1257 1251,-1251 1257,-1245 1263,-1245 1263,-1245 1325,-1245 1325,-1245 1331,-1245 1337,-1251 1337,-1257 1337,-1257 1337,-1269 1337,-1269 1337,-1275 1331,-1281 1325,-1281"/>
<text text-anchor="middle" x="1294" y="-1260.5" font-family="sans" font-size="10.00">samtools_sort</text>
</g>
<!-- 47&#45;&gt;42 -->
<g id="edge83" class="edge">
<title>47&#45;&gt;42</title>
<path fill="none" stroke="grey" stroke-width="2" d="M1304.35,-1244.71C1313.92,-1226.35 1325.23,-1196.77 1315,-1173 1310.21,-1161.87 1301.81,-1151.99 1292.95,-1143.86"/>
<polygon fill="grey" stroke="grey" stroke-width="2" points="1295,-1141.01 1285.12,-1137.18 1290.46,-1146.34 1295,-1141.01"/>
</g>
<!-- 48 -->
<g id="node49" class="node">
<title>48</title>
<path fill="none" stroke="#bed856" stroke-width="2" d="M1294,-1209C1294,-1209 1224,-1209 1224,-1209 1218,-1209 1212,-1203 1212,-1197 1212,-1197 1212,-1185 1212,-1185 1212,-1179 1218,-1173 1224,-1173 1224,-1173 1294,-1173 1294,-1173 1300,-1173 1306,-1179 1306,-1185 1306,-1185 1306,-1197 1306,-1197 1306,-1203 1300,-1209 1294,-1209"/>
<text text-anchor="middle" x="1259" y="-1188.5" font-family="sans" font-size="10.00">samtools_index</text>
</g>
<!-- 47&#45;&gt;48 -->
<g id="edge93" class="edge">
<title>47&#45;&gt;48</title>
<path fill="none" stroke="grey" stroke-width="2" d="M1285.35,-1244.7C1281.36,-1236.73 1276.55,-1227.1 1272.13,-1218.26"/>
<polygon fill="grey" stroke="grey" stroke-width="2" points="1275.15,-1216.48 1267.55,-1209.1 1268.89,-1219.61 1275.15,-1216.48"/>
</g>
<!-- 48&#45;&gt;42 -->
<g id="edge85" class="edge">
<title>48&#45;&gt;42</title>
<path fill="none" stroke="grey" stroke-width="2" d="M1259,-1172.7C1259,-1164.98 1259,-1155.71 1259,-1147.11"/>
<polygon fill="grey" stroke="grey" stroke-width="2" points="1262.5,-1147.1 1259,-1137.1 1255.5,-1147.1 1262.5,-1147.1"/>
</g>
<!-- 49 -->
<g id="node50" class="node">
<title>49</title>
<path fill="none" stroke="#56d8b9" stroke-width="2" d="M1851,-1281C1851,-1281 1789,-1281 1789,-1281 1783,-1281 1777,-1275 1777,-1269 1777,-1269 1777,-1257 1777,-1257 1777,-1251 1783,-1245 1789,-1245 1789,-1245 1851,-1245 1851,-1245 1857,-1245 1863,-1251 1863,-1257 1863,-1257 1863,-1269 1863,-1269 1863,-1275 1857,-1281 1851,-1281"/>
<text text-anchor="middle" x="1820" y="-1260.5" font-family="sans" font-size="10.00">samtools_sort</text>
</g>
<!-- 49&#45;&gt;43 -->
<g id="edge86" class="edge">
<title>49&#45;&gt;43</title>
<path fill="none" stroke="grey" stroke-width="2" d="M1837.38,-1244.92C1846.2,-1235.22 1856.23,-1222.37 1862,-1209 1870.45,-1189.44 1873.58,-1165.44 1874.67,-1147.3"/>
<polygon fill="grey" stroke="grey" stroke-width="2" points="1878.17,-1147.25 1875.1,-1137.11 1871.18,-1146.95 1878.17,-1147.25"/>
</g>
<!-- 50 -->
<g id="node51" class="node">
<title>50</title>
<path fill="none" stroke="#bed856" stroke-width="2" d="M1841,-1209C1841,-1209 1771,-1209 1771,-1209 1765,-1209 1759,-1203 1759,-1197 1759,-1197 1759,-1185 1759,-1185 1759,-1179 1765,-1173 1771,-1173 1771,-1173 1841,-1173 1841,-1173 1847,-1173 1853,-1179 1853,-1185 1853,-1185 1853,-1197 1853,-1197 1853,-1203 1847,-1209 1841,-1209"/>
<text text-anchor="middle" x="1806" y="-1188.5" font-family="sans" font-size="10.00">samtools_index</text>
</g>
<!-- 49&#45;&gt;50 -->
<g id="edge95" class="edge">
<title>49&#45;&gt;50</title>
<path fill="none" stroke="grey" stroke-width="2" d="M1816.54,-1244.7C1815,-1236.98 1813.14,-1227.71 1811.42,-1219.11"/>
<polygon fill="grey" stroke="grey" stroke-width="2" points="1814.81,-1218.22 1809.42,-1209.1 1807.95,-1219.6 1814.81,-1218.22"/>
</g>
<!-- 50&#45;&gt;43 -->
<g id="edge88" class="edge">
<title>50&#45;&gt;43</title>
<path fill="none" stroke="grey" stroke-width="2" d="M1823.06,-1172.7C1831.5,-1164.14 1841.82,-1153.66 1851.04,-1144.3"/>
<polygon fill="grey" stroke="grey" stroke-width="2" points="1853.61,-1146.68 1858.14,-1137.1 1848.63,-1141.77 1853.61,-1146.68"/>
</g>
<!-- 51&#45;&gt;44 -->
<g id="edge89" class="edge">
<title>51&#45;&gt;44</title>
<path fill="none" stroke="grey" stroke-width="2" d="M342.19,-724.7C344.53,-716.9 347.35,-707.51 349.95,-698.83"/>
<polygon fill="grey" stroke="grey" stroke-width="2" points="353.35,-699.69 352.87,-689.1 346.64,-697.68 353.35,-699.69"/>
</g>
<!-- 52&#45;&gt;45 -->
<g id="edge90" class="edge">
<title>52&#45;&gt;45</title>
<path fill="none" stroke="grey" stroke-width="2" d="M1018,-1316.7C1018,-1308.98 1018,-1299.71 1018,-1291.11"/>
<polygon fill="grey" stroke="grey" stroke-width="2" points="1021.5,-1291.1 1018,-1281.1 1014.5,-1291.1 1021.5,-1291.1"/>
</g>
<!-- 53&#45;&gt;47 -->
<g id="edge92" class="edge">
<title>53&#45;&gt;47</title>
<path fill="none" stroke="grey" stroke-width="2" d="M1294,-1316.7C1294,-1308.98 1294,-1299.71 1294,-1291.11"/>
<polygon fill="grey" stroke="grey" stroke-width="2" points="1297.5,-1291.1 1294,-1281.1 1290.5,-1291.1 1297.5,-1291.1"/>
</g>
<!-- 54&#45;&gt;49 -->
<g id="edge94" class="edge">
<title>54&#45;&gt;49</title>
<path fill="none" stroke="grey" stroke-width="2" d="M1820,-1316.7C1820,-1308.98 1820,-1299.71 1820,-1291.11"/>
<polygon fill="grey" stroke="grey" stroke-width="2" points="1823.5,-1291.1 1820,-1281.1 1816.5,-1291.1 1823.5,-1291.1"/>
</g>
<!-- 55 -->
<g id="node56" class="node">
<title>55</title>
<path fill="none" stroke="#56d863" stroke-width="2" d="M392.5,-833C392.5,-833 281.5,-833 281.5,-833 275.5,-833 269.5,-827 269.5,-821 269.5,-821 269.5,-809 269.5,-809 269.5,-803 275.5,-797 281.5,-797 281.5,-797 392.5,-797 392.5,-797 398.5,-797 404.5,-803 404.5,-809 404.5,-809 404.5,-821 404.5,-821 404.5,-827 398.5,-833 392.5,-833"/>
<text text-anchor="middle" x="337" y="-812.5" font-family="sans" font-size="10.00">gatk_genomicsdbimport</text>
</g>
<!-- 55&#45;&gt;51 -->
<g id="edge97" class="edge">
<title>55&#45;&gt;51</title>
<path fill="none" stroke="grey" stroke-width="2" d="M337,-796.7C337,-788.98 337,-779.71 337,-771.11"/>
<polygon fill="grey" stroke="grey" stroke-width="2" points="340.5,-771.1 337,-761.1 333.5,-771.1 340.5,-771.1"/>
</g>
<!-- 56&#45;&gt;52 -->
<g id="edge98" class="edge">
<title>56&#45;&gt;52</title>
<path fill="none" stroke="grey" stroke-width="2" d="M1057.9,-1388.7C1051.61,-1380.39 1043.95,-1370.28 1037.04,-1361.14"/>
<polygon fill="grey" stroke="grey" stroke-width="2" points="1039.78,-1358.96 1030.95,-1353.1 1034.2,-1363.19 1039.78,-1358.96"/>
</g>
<!-- 57&#45;&gt;53 -->
<g id="edge100" class="edge">
<title>57&#45;&gt;53</title>
<path fill="none" stroke="grey" stroke-width="2" d="M1338.42,-1388.7C1331.34,-1380.3 1322.72,-1370.07 1314.95,-1360.86"/>
<polygon fill="grey" stroke="grey" stroke-width="2" points="1317.54,-1358.49 1308.42,-1353.1 1312.19,-1363.01 1317.54,-1358.49"/>
</g>
<!-- 58&#45;&gt;54 -->
<g id="edge102" class="edge">
<title>58&#45;&gt;54</title>
<path fill="none" stroke="grey" stroke-width="2" d="M1809.46,-1388.7C1811,-1380.98 1812.86,-1371.71 1814.58,-1363.11"/>
<polygon fill="grey" stroke="grey" stroke-width="2" points="1818.05,-1363.6 1816.58,-1353.1 1811.19,-1362.22 1818.05,-1363.6"/>
</g>
<!-- 59 -->
<g id="node60" class="node">
<title>59</title>
<path fill="none" stroke="#5682d8" stroke-width="2" d="M209.5,-913C209.5,-913 132.5,-913 132.5,-913 126.5,-913 120.5,-907 120.5,-901 120.5,-901 120.5,-889 120.5,-889 120.5,-883 126.5,-877 132.5,-877 132.5,-877 209.5,-877 209.5,-877 215.5,-877 221.5,-883 221.5,-889 221.5,-889 221.5,-901 221.5,-901 221.5,-907 215.5,-913 209.5,-913"/>
<text text-anchor="middle" x="171" y="-892.5" font-family="sans" font-size="10.00">gatk_gathergvcfs</text>
</g>
<!-- 59&#45;&gt;55 -->
<g id="edge104" class="edge">
<title>59&#45;&gt;55</title>
<path fill="none" stroke="grey" stroke-width="2" d="M207.43,-876.88C232.19,-865.25 265.12,-849.78 291.59,-837.34"/>
<polygon fill="grey" stroke="grey" stroke-width="2" points="293.09,-840.5 300.66,-833.08 290.12,-834.16 293.09,-840.5"/>
</g>
<!-- 60 -->
<g id="node61" class="node">
<title>60</title>
<path fill="none" stroke="#5682d8" stroke-width="2" d="M375.5,-913C375.5,-913 298.5,-913 298.5,-913 292.5,-913 286.5,-907 286.5,-901 286.5,-901 286.5,-889 286.5,-889 286.5,-883 292.5,-877 298.5,-877 298.5,-877 375.5,-877 375.5,-877 381.5,-877 387.5,-883 387.5,-889 387.5,-889 387.5,-901 387.5,-901 387.5,-907 381.5,-913 375.5,-913"/>
<text text-anchor="middle" x="337" y="-892.5" font-family="sans" font-size="10.00">gatk_gathergvcfs</text>
</g>
<!-- 60&#45;&gt;55 -->
<g id="edge105" class="edge">
<title>60&#45;&gt;55</title>
<path fill="none" stroke="grey" stroke-width="2" d="M337,-876.69C337,-866.89 337,-854.42 337,-843.33"/>
<polygon fill="grey" stroke="grey" stroke-width="2" points="340.5,-843.26 337,-833.26 333.5,-843.26 340.5,-843.26"/>
</g>
<!-- 61 -->
<g id="node62" class="node">
<title>61</title>
<path fill="none" stroke="#5682d8" stroke-width="2" d="M541.5,-913C541.5,-913 464.5,-913 464.5,-913 458.5,-913 452.5,-907 452.5,-901 452.5,-901 452.5,-889 452.5,-889 452.5,-883 458.5,-877 464.5,-877 464.5,-877 541.5,-877 541.5,-877 547.5,-877 553.5,-883 553.5,-889 553.5,-889 553.5,-901 553.5,-901 553.5,-907 547.5,-913 541.5,-913"/>
<text text-anchor="middle" x="503" y="-892.5" font-family="sans" font-size="10.00">gatk_gathergvcfs</text>
</g>
<!-- 61&#45;&gt;55 -->
<g id="edge106" class="edge">
<title>61&#45;&gt;55</title>
<path fill="none" stroke="grey" stroke-width="2" d="M466.57,-876.88C441.81,-865.25 408.88,-849.78 382.41,-837.34"/>
<polygon fill="grey" stroke="grey" stroke-width="2" points="383.88,-834.16 373.34,-833.08 380.91,-840.5 383.88,-834.16"/>
</g>
<!-- 62&#45;&gt;59 -->
<g id="edge116" class="edge">
<title>62&#45;&gt;59</title>
<path fill="none" stroke="grey" stroke-width="2" d="M135.21,-956.69C141.22,-946.49 148.95,-933.39 155.68,-921.97"/>
<polygon fill="grey" stroke="grey" stroke-width="2" points="158.75,-923.65 160.82,-913.26 152.72,-920.1 158.75,-923.65"/>
</g>
<!-- 63&#45;&gt;60 -->
<g id="edge117" class="edge">
<title>63&#45;&gt;60</title>
<path fill="none" stroke="grey" stroke-width="2" d="M337,-956.69C337,-946.89 337,-934.42 337,-923.33"/>
<polygon fill="grey" stroke="grey" stroke-width="2" points="340.5,-923.26 337,-913.26 333.5,-923.26 340.5,-923.26"/>
</g>
<!-- 64&#45;&gt;61 -->
<g id="edge118" class="edge">
<title>64&#45;&gt;61</title>
<path fill="none" stroke="grey" stroke-width="2" d="M538.79,-956.69C532.78,-946.49 525.05,-933.39 518.32,-921.97"/>
<polygon fill="grey" stroke="grey" stroke-width="2" points="521.28,-920.1 513.18,-913.26 515.25,-923.65 521.28,-920.1"/>
</g>
<!-- 65&#45;&gt;62 -->
<g id="edge121" class="edge">
<title>65&#45;&gt;62</title>
<path fill="none" stroke="grey" stroke-width="2" d="M345.85,-1037.35C308.69,-1027.02 245.4,-1009.45 196.08,-995.74"/>
<polygon fill="grey" stroke="grey" stroke-width="2" points="196.98,-992.36 186.41,-993.06 195.11,-999.11 196.98,-992.36"/>
</g>
<!-- 65&#45;&gt;63 -->
<g id="edge124" class="edge">
<title>65&#45;&gt;63</title>
<path fill="none" stroke="grey" stroke-width="2" d="M367.11,-1028.7C362.51,-1020.64 356.94,-1010.89 351.85,-1001.98"/>
<polygon fill="grey" stroke="grey" stroke-width="2" points="354.77,-1000.05 346.77,-993.1 348.7,-1003.52 354.77,-1000.05"/>
</g>
<!-- 65&#45;&gt;64 -->
<g id="edge127" class="edge">
<title>65&#45;&gt;64</title>
<path fill="none" stroke="grey" stroke-width="2" d="M408.15,-1033.32C433.02,-1023.2 468.41,-1008.8 497.48,-996.97"/>
<polygon fill="grey" stroke="grey" stroke-width="2" points="499.14,-1000.07 507.08,-993.06 496.5,-993.59 499.14,-1000.07"/>
</g>
</g>
</svg>
