<?xml version="1.0" encoding="UTF-8" standalone="no"?>
<!DOCTYPE svg PUBLIC "-//W3C//DTD SVG 1.1//EN"
 "http://www.w3.org/Graphics/SVG/1.1/DTD/svg11.dtd">
<!-- Generated by graphviz version 2.43.0 (0)
 -->
<!-- Title: snakemake_dag Pages: 1 -->
<svg width="762pt" height="620pt"
 viewBox="0.00 0.00 762.00 620.00" xmlns="http://www.w3.org/2000/svg" xmlns:xlink="http://www.w3.org/1999/xlink">
<g id="graph0" class="graph" transform="scale(1 1) rotate(0) translate(4 616)">
<title>snakemake_dag</title>
<polygon fill="white" stroke="transparent" points="-4,4 -4,-616 758,-616 758,4 -4,4"/>
<!-- 0 -->
<g id="node1" class="node">
<title>0</title>
<path fill="none" stroke="#56d8a2" stroke-width="2" d="M361,-36C361,-36 331,-36 331,-36 325,-36 319,-30 319,-24 319,-24 319,-12 319,-12 319,-6 325,0 331,0 331,0 361,0 361,0 367,0 373,-6 373,-12 373,-12 373,-24 373,-24 373,-30 367,-36 361,-36"/>
<text text-anchor="middle" x="346" y="-15.5" font-family="sans" font-size="10.00">all</text>
</g>
<!-- 1 -->
<g id="node2" class="node">
<title>1</title>
<path fill="none" stroke="#d8a456" stroke-width="2" d="M137.5,-108C137.5,-108 50.5,-108 50.5,-108 44.5,-108 38.5,-102 38.5,-96 38.5,-96 38.5,-84 38.5,-84 38.5,-78 44.5,-72 50.5,-72 50.5,-72 137.5,-72 137.5,-72 143.5,-72 149.5,-78 149.5,-84 149.5,-84 149.5,-96 149.5,-96 149.5,-102 143.5,-108 137.5,-108"/>
<text text-anchor="middle" x="94" y="-87.5" font-family="sans" font-size="10.00">samtools_view_md</text>
</g>
<!-- 1&#45;&gt;0 -->
<g id="edge1" class="edge">
<title>1&#45;&gt;0</title>
<path fill="none" stroke="grey" stroke-width="2" d="M149.61,-73.55C198.09,-60.09 267.02,-40.94 309.01,-29.28"/>
<polygon fill="grey" stroke="grey" stroke-width="2" points="310.12,-32.6 318.82,-26.55 308.25,-25.85 310.12,-32.6"/>
</g>
<!-- 2 -->
<g id="node3" class="node">
<title>2</title>
<path fill="none" stroke="#d8a456" stroke-width="2" d="M647.5,-108C647.5,-108 560.5,-108 560.5,-108 554.5,-108 548.5,-102 548.5,-96 548.5,-96 548.5,-84 548.5,-84 548.5,-78 554.5,-72 560.5,-72 560.5,-72 647.5,-72 647.5,-72 653.5,-72 659.5,-78 659.5,-84 659.5,-84 659.5,-96 659.5,-96 659.5,-102 653.5,-108 647.5,-108"/>
<text text-anchor="middle" x="604" y="-87.5" font-family="sans" font-size="10.00">samtools_view_md</text>
</g>
<!-- 2&#45;&gt;0 -->
<g id="edge2" class="edge">
<title>2&#45;&gt;0</title>
<path fill="none" stroke="grey" stroke-width="2" d="M548.34,-73.9C498.28,-60.32 426.16,-40.75 382.91,-29.01"/>
<polygon fill="grey" stroke="grey" stroke-width="2" points="383.66,-25.59 373.09,-26.35 381.82,-32.35 383.66,-25.59"/>
</g>
<!-- 3 -->
<g id="node4" class="node">
<title>3</title>
<path fill="none" stroke="#d86e56" stroke-width="2" d="M141.5,-180C141.5,-180 46.5,-180 46.5,-180 40.5,-180 34.5,-174 34.5,-168 34.5,-168 34.5,-156 34.5,-156 34.5,-150 40.5,-144 46.5,-144 46.5,-144 141.5,-144 141.5,-144 147.5,-144 153.5,-150 153.5,-156 153.5,-156 153.5,-168 153.5,-168 153.5,-174 147.5,-180 141.5,-180"/>
<text text-anchor="middle" x="94" y="-159.5" font-family="sans" font-size="10.00">gatk_markduplicates</text>
</g>
<!-- 3&#45;&gt;1 -->
<g id="edge3" class="edge">
<title>3&#45;&gt;1</title>
<path fill="none" stroke="grey" stroke-width="2" d="M94,-143.7C94,-135.98 94,-126.71 94,-118.11"/>
<polygon fill="grey" stroke="grey" stroke-width="2" points="97.5,-118.1 94,-108.1 90.5,-118.1 97.5,-118.1"/>
</g>
<!-- 4 -->
<g id="node5" class="node">
<title>4</title>
<path fill="none" stroke="#56d873" stroke-width="2" d="M402,-612C402,-612 346,-612 346,-612 340,-612 334,-606 334,-600 334,-600 334,-588 334,-588 334,-582 340,-576 346,-576 346,-576 402,-576 402,-576 408,-576 414,-582 414,-588 414,-588 414,-600 414,-600 414,-606 408,-612 402,-612"/>
<text text-anchor="middle" x="374" y="-591.5" font-family="sans" font-size="10.00">cp_reference</text>
</g>
<!-- 4&#45;&gt;1 -->
<g id="edge4" class="edge">
<title>4&#45;&gt;1</title>
<path fill="none" stroke="grey" stroke-width="2" d="M333.92,-591.69C254.19,-588.3 79.46,-576.78 34,-540 1.08,-513.37 0,-493.34 0,-451 0,-451 0,-451 0,-233 0,-191.91 1.98,-178.03 25,-144 32.82,-132.44 43.99,-122.31 55.07,-114.1"/>
<polygon fill="grey" stroke="grey" stroke-width="2" points="57.3,-116.81 63.47,-108.19 53.28,-111.08 57.3,-116.81"/>
</g>
<!-- 4&#45;&gt;2 -->
<g id="edge6" class="edge">
<title>4&#45;&gt;2</title>
<path fill="none" stroke="grey" stroke-width="2" d="M414.12,-590.93C491.69,-586.24 658.71,-572.57 705,-540 741.93,-514.02 754,-496.15 754,-451 754,-451 754,-451 754,-233 754,-176.42 697.02,-135.65 653.3,-112.68"/>
<polygon fill="grey" stroke="grey" stroke-width="2" points="654.7,-109.47 644.2,-108.06 651.52,-115.71 654.7,-109.47"/>
</g>
<!-- 4&#45;&gt;3 -->
<g id="edge8" class="edge">
<title>4&#45;&gt;3</title>
<path fill="none" stroke="grey" stroke-width="2" d="M333.81,-591.75C257.58,-588.53 96.07,-577.36 57,-540 27.77,-512.05 38,-491.45 38,-451 38,-451 38,-451 38,-305 38,-261.91 60.6,-216.26 77.08,-188.7"/>
<polygon fill="grey" stroke="grey" stroke-width="2" points="80.13,-190.42 82.4,-180.07 74.17,-186.75 80.13,-190.42"/>
</g>
<!-- 5 -->
<g id="node6" class="node">
<title>5</title>
<path fill="none" stroke="#d86e56" stroke-width="2" d="M651.5,-180C651.5,-180 556.5,-180 556.5,-180 550.5,-180 544.5,-174 544.5,-168 544.5,-168 544.5,-156 544.5,-156 544.5,-150 550.5,-144 556.5,-144 556.5,-144 651.5,-144 651.5,-144 657.5,-144 663.5,-150 663.5,-156 663.5,-156 663.5,-168 663.5,-168 663.5,-174 657.5,-180 651.5,-180"/>
<text text-anchor="middle" x="604" y="-159.5" font-family="sans" font-size="10.00">gatk_markduplicates</text>
</g>
<!-- 4&#45;&gt;5 -->
<g id="edge11" class="edge">
<title>4&#45;&gt;5</title>
<path fill="none" stroke="grey" stroke-width="2" d="M414.03,-588.16C447.87,-582.15 495.71,-568.89 527,-540 558.73,-510.7 566,-494.19 566,-451 566,-451 566,-451 566,-305 566,-263.63 581.23,-217.72 592.41,-189.61"/>
<polygon fill="grey" stroke="grey" stroke-width="2" points="595.76,-190.67 596.31,-180.09 589.28,-188.02 595.76,-190.67"/>
</g>
<!-- 10 -->
<g id="node11" class="node">
<title>10</title>
<path fill="none" stroke="#56d8c1" stroke-width="2" d="M207,-396C207,-396 141,-396 141,-396 135,-396 129,-390 129,-384 129,-384 129,-372 129,-372 129,-366 135,-360 141,-360 141,-360 207,-360 207,-360 213,-360 219,-366 219,-372 219,-372 219,-384 219,-384 219,-390 213,-396 207,-396"/>
<text text-anchor="middle" x="174" y="-375.5" font-family="sans" font-size="10.00">samtools_view</text>
</g>
<!-- 4&#45;&gt;10 -->
<g id="edge18" class="edge">
<title>4&#45;&gt;10</title>
<path fill="none" stroke="grey" stroke-width="2" d="M333.69,-589.24C299.19,-583.92 250.55,-571.05 221,-540 185.89,-503.11 176.82,-441.47 174.59,-406.13"/>
<polygon fill="grey" stroke="grey" stroke-width="2" points="178.08,-405.87 174.1,-396.06 171.09,-406.22 178.08,-405.87"/>
</g>
<!-- 11 -->
<g id="node12" class="node">
<title>11</title>
<path fill="none" stroke="#56d8c1" stroke-width="2" d="M692,-396C692,-396 626,-396 626,-396 620,-396 614,-390 614,-384 614,-384 614,-372 614,-372 614,-366 620,-360 626,-360 626,-360 692,-360 692,-360 698,-360 704,-366 704,-372 704,-372 704,-384 704,-384 704,-390 698,-396 692,-396"/>
<text text-anchor="middle" x="659" y="-375.5" font-family="sans" font-size="10.00">samtools_view</text>
</g>
<!-- 4&#45;&gt;11 -->
<g id="edge20" class="edge">
<title>4&#45;&gt;11</title>
<path fill="none" stroke="grey" stroke-width="2" d="M414.19,-592.26C489.89,-589.94 649.06,-580.26 683,-540 714.97,-502.08 691.83,-440.49 674.11,-405.5"/>
<polygon fill="grey" stroke="grey" stroke-width="2" points="677.06,-403.6 669.31,-396.38 670.87,-406.86 677.06,-403.6"/>
</g>
<!-- 12 -->
<g id="node13" class="node">
<title>12</title>
<path fill="none" stroke="#a7d856" stroke-width="2" d="M277,-468C277,-468 233,-468 233,-468 227,-468 221,-462 221,-456 221,-456 221,-444 221,-444 221,-438 227,-432 233,-432 233,-432 277,-432 277,-432 283,-432 289,-438 289,-444 289,-444 289,-456 289,-456 289,-462 283,-468 277,-468"/>
<text text-anchor="middle" x="255" y="-447.5" font-family="sans" font-size="10.00">bwa_mem</text>
</g>
<!-- 4&#45;&gt;12 -->
<g id="edge21" class="edge">
<title>4&#45;&gt;12</title>
<path fill="none" stroke="grey" stroke-width="2" d="M333.75,-590.22C300.09,-585.52 253.99,-573.03 231,-540 217.96,-521.26 226.91,-495.77 237.38,-476.87"/>
<polygon fill="grey" stroke="grey" stroke-width="2" points="240.45,-478.56 242.56,-468.18 234.44,-474.98 240.45,-478.56"/>
</g>
<!-- 13 -->
<g id="node14" class="node">
<title>13</title>
<path fill="none" stroke="#a7d856" stroke-width="2" d="M508,-468C508,-468 464,-468 464,-468 458,-468 452,-462 452,-456 452,-456 452,-444 452,-444 452,-438 458,-432 464,-432 464,-432 508,-432 508,-432 514,-432 520,-438 520,-444 520,-444 520,-456 520,-456 520,-462 514,-468 508,-468"/>
<text text-anchor="middle" x="486" y="-447.5" font-family="sans" font-size="10.00">bwa_mem</text>
</g>
<!-- 4&#45;&gt;13 -->
<g id="edge26" class="edge">
<title>4&#45;&gt;13</title>
<path fill="none" stroke="grey" stroke-width="2" d="M414.28,-589.16C445.89,-583.78 487.94,-570.89 509,-540 521.82,-521.19 513.21,-495.71 503.07,-476.83"/>
<polygon fill="grey" stroke="grey" stroke-width="2" points="506.09,-475.06 498.06,-468.15 500.03,-478.56 506.09,-475.06"/>
</g>
<!-- 15 -->
<g id="node16" class="node">
<title>15</title>
<path fill="none" stroke="#56d8d8" stroke-width="2" d="M297.5,-540C297.5,-540 252.5,-540 252.5,-540 246.5,-540 240.5,-534 240.5,-528 240.5,-528 240.5,-516 240.5,-516 240.5,-510 246.5,-504 252.5,-504 252.5,-504 297.5,-504 297.5,-504 303.5,-504 309.5,-510 309.5,-516 309.5,-516 309.5,-528 309.5,-528 309.5,-534 303.5,-540 297.5,-540"/>
<text text-anchor="middle" x="275" y="-519.5" font-family="sans" font-size="10.00">bwa_index</text>
</g>
<!-- 4&#45;&gt;15 -->
<g id="edge32" class="edge">
<title>4&#45;&gt;15</title>
<path fill="none" stroke="grey" stroke-width="2" d="M349.78,-575.88C337.08,-566.89 321.34,-555.76 307.58,-546.03"/>
<polygon fill="grey" stroke="grey" stroke-width="2" points="309.5,-543.11 299.31,-540.19 305.46,-548.82 309.5,-543.11"/>
</g>
<!-- 16 -->
<g id="node17" class="node">
<title>16</title>
<path fill="none" stroke="#5673d8" stroke-width="2" d="M408,-540C408,-540 340,-540 340,-540 334,-540 328,-534 328,-528 328,-528 328,-516 328,-516 328,-510 334,-504 340,-504 340,-504 408,-504 408,-504 414,-504 420,-510 420,-516 420,-516 420,-528 420,-528 420,-534 414,-540 408,-540"/>
<text text-anchor="middle" x="374" y="-519.5" font-family="sans" font-size="10.00">samtools_faidx</text>
</g>
<!-- 4&#45;&gt;16 -->
<g id="edge33" class="edge">
<title>4&#45;&gt;16</title>
<path fill="none" stroke="grey" stroke-width="2" d="M374,-575.7C374,-567.98 374,-558.71 374,-550.11"/>
<polygon fill="grey" stroke="grey" stroke-width="2" points="377.5,-550.1 374,-540.1 370.5,-550.1 377.5,-550.1"/>
</g>
<!-- 17 -->
<g id="node18" class="node">
<title>17</title>
<path fill="none" stroke="#56a2d8" stroke-width="2" d="M488,-540C488,-540 450,-540 450,-540 444,-540 438,-534 438,-528 438,-528 438,-516 438,-516 438,-510 444,-504 450,-504 450,-504 488,-504 488,-504 494,-504 500,-510 500,-516 500,-516 500,-528 500,-528 500,-534 494,-540 488,-540"/>
<text text-anchor="middle" x="469" y="-519.5" font-family="sans" font-size="10.00">gatk_dict</text>
</g>
<!-- 4&#45;&gt;17 -->
<g id="edge34" class="edge">
<title>4&#45;&gt;17</title>
<path fill="none" stroke="grey" stroke-width="2" d="M397.48,-575.7C409.56,-566.8 424.45,-555.82 437.52,-546.2"/>
<polygon fill="grey" stroke="grey" stroke-width="2" points="439.81,-548.85 445.79,-540.1 435.66,-543.22 439.81,-548.85"/>
</g>
<!-- 5&#45;&gt;2 -->
<g id="edge5" class="edge">
<title>5&#45;&gt;2</title>
<path fill="none" stroke="grey" stroke-width="2" d="M604,-143.7C604,-135.98 604,-126.71 604,-118.11"/>
<polygon fill="grey" stroke="grey" stroke-width="2" points="607.5,-118.1 604,-108.1 600.5,-118.1 607.5,-118.1"/>
</g>
<!-- 6 -->
<g id="node7" class="node">
<title>6</title>
<path fill="none" stroke="#bed856" stroke-width="2" d="M200,-324C200,-324 138,-324 138,-324 132,-324 126,-318 126,-312 126,-312 126,-300 126,-300 126,-294 132,-288 138,-288 138,-288 200,-288 200,-288 206,-288 212,-294 212,-300 212,-300 212,-312 212,-312 212,-318 206,-324 200,-324"/>
<text text-anchor="middle" x="169" y="-303.5" font-family="sans" font-size="10.00">samtools_sort</text>
</g>
<!-- 6&#45;&gt;3 -->
<g id="edge7" class="edge">
<title>6&#45;&gt;3</title>
<path fill="none" stroke="grey" stroke-width="2" d="M145.04,-287.88C133.66,-278.53 120.86,-266.01 113,-252 102.33,-233 97.64,-208.64 95.59,-190.21"/>
<polygon fill="grey" stroke="grey" stroke-width="2" points="99.06,-189.76 94.66,-180.13 92.09,-190.41 99.06,-189.76"/>
</g>
<!-- 7 -->
<g id="node8" class="node">
<title>7</title>
<path fill="none" stroke="#d6d856" stroke-width="2" d="M204,-252C204,-252 134,-252 134,-252 128,-252 122,-246 122,-240 122,-240 122,-228 122,-228 122,-222 128,-216 134,-216 134,-216 204,-216 204,-216 210,-216 216,-222 216,-228 216,-228 216,-240 216,-240 216,-246 210,-252 204,-252"/>
<text text-anchor="middle" x="169" y="-231.5" font-family="sans" font-size="10.00">samtools_index</text>
</g>
<!-- 6&#45;&gt;7 -->
<g id="edge14" class="edge">
<title>6&#45;&gt;7</title>
<path fill="none" stroke="grey" stroke-width="2" d="M169,-287.7C169,-279.98 169,-270.71 169,-262.11"/>
<polygon fill="grey" stroke="grey" stroke-width="2" points="172.5,-262.1 169,-252.1 165.5,-262.1 172.5,-262.1"/>
</g>
<!-- 7&#45;&gt;3 -->
<g id="edge9" class="edge">
<title>7&#45;&gt;3</title>
<path fill="none" stroke="grey" stroke-width="2" d="M150.46,-215.7C141.2,-207.05 129.84,-196.45 119.74,-187.03"/>
<polygon fill="grey" stroke="grey" stroke-width="2" points="122.02,-184.37 112.33,-180.1 117.25,-189.49 122.02,-184.37"/>
</g>
<!-- 8 -->
<g id="node9" class="node">
<title>8</title>
<path fill="none" stroke="#bed856" stroke-width="2" d="M690,-324C690,-324 628,-324 628,-324 622,-324 616,-318 616,-312 616,-312 616,-300 616,-300 616,-294 622,-288 628,-288 628,-288 690,-288 690,-288 696,-288 702,-294 702,-300 702,-300 702,-312 702,-312 702,-318 696,-324 690,-324"/>
<text text-anchor="middle" x="659" y="-303.5" font-family="sans" font-size="10.00">samtools_sort</text>
</g>
<!-- 8&#45;&gt;5 -->
<g id="edge10" class="edge">
<title>8&#45;&gt;5</title>
<path fill="none" stroke="grey" stroke-width="2" d="M644.84,-287.85C637.31,-277.93 628.5,-264.89 623,-252 614.59,-232.29 609.76,-208.49 607.07,-190.46"/>
<polygon fill="grey" stroke="grey" stroke-width="2" points="610.51,-189.76 605.7,-180.33 603.57,-190.71 610.51,-189.76"/>
</g>
<!-- 9 -->
<g id="node10" class="node">
<title>9</title>
<path fill="none" stroke="#d6d856" stroke-width="2" d="M714,-252C714,-252 644,-252 644,-252 638,-252 632,-246 632,-240 632,-240 632,-228 632,-228 632,-222 638,-216 644,-216 644,-216 714,-216 714,-216 720,-216 726,-222 726,-228 726,-228 726,-240 726,-240 726,-246 720,-252 714,-252"/>
<text text-anchor="middle" x="679" y="-231.5" font-family="sans" font-size="10.00">samtools_index</text>
</g>
<!-- 8&#45;&gt;9 -->
<g id="edge16" class="edge">
<title>8&#45;&gt;9</title>
<path fill="none" stroke="grey" stroke-width="2" d="M663.94,-287.7C666.17,-279.9 668.85,-270.51 671.33,-261.83"/>
<polygon fill="grey" stroke="grey" stroke-width="2" points="674.73,-262.68 674.11,-252.1 668,-260.76 674.73,-262.68"/>
</g>
<!-- 9&#45;&gt;5 -->
<g id="edge12" class="edge">
<title>9&#45;&gt;5</title>
<path fill="none" stroke="grey" stroke-width="2" d="M660.46,-215.7C651.2,-207.05 639.84,-196.45 629.74,-187.03"/>
<polygon fill="grey" stroke="grey" stroke-width="2" points="632.02,-184.37 622.33,-180.1 627.25,-189.49 632.02,-184.37"/>
</g>
<!-- 10&#45;&gt;6 -->
<g id="edge13" class="edge">
<title>10&#45;&gt;6</title>
<path fill="none" stroke="grey" stroke-width="2" d="M172.76,-359.7C172.21,-351.98 171.55,-342.71 170.94,-334.11"/>
<polygon fill="grey" stroke="grey" stroke-width="2" points="174.43,-333.83 170.22,-324.1 167.44,-334.33 174.43,-333.83"/>
</g>
<!-- 11&#45;&gt;8 -->
<g id="edge15" class="edge">
<title>11&#45;&gt;8</title>
<path fill="none" stroke="grey" stroke-width="2" d="M659,-359.7C659,-351.98 659,-342.71 659,-334.11"/>
<polygon fill="grey" stroke="grey" stroke-width="2" points="662.5,-334.1 659,-324.1 655.5,-334.1 662.5,-334.1"/>
</g>
<!-- 12&#45;&gt;10 -->
<g id="edge17" class="edge">
<title>12&#45;&gt;10</title>
<path fill="none" stroke="grey" stroke-width="2" d="M234.98,-431.7C224.87,-422.97 212.46,-412.24 201.48,-402.75"/>
<polygon fill="grey" stroke="grey" stroke-width="2" points="203.65,-399.99 193.79,-396.1 199.07,-405.29 203.65,-399.99"/>
</g>
<!-- 13&#45;&gt;11 -->
<g id="edge19" class="edge">
<title>13&#45;&gt;11</title>
<path fill="none" stroke="grey" stroke-width="2" d="M520.18,-435.17C545.13,-425.08 579.38,-411.22 607.62,-399.79"/>
<polygon fill="grey" stroke="grey" stroke-width="2" points="608.98,-403.01 616.94,-396.02 606.36,-396.53 608.98,-403.01"/>
</g>
<!-- 14 -->
<g id="node15" class="node">
<title>14</title>
<path fill="none" stroke="#88d856" stroke-width="2" d="M134,-540C134,-540 78,-540 78,-540 72,-540 66,-534 66,-528 66,-528 66,-516 66,-516 66,-510 72,-504 78,-504 78,-504 134,-504 134,-504 140,-504 146,-510 146,-516 146,-516 146,-528 146,-528 146,-534 140,-540 134,-540"/>
<text text-anchor="middle" x="106" y="-519.5" font-family="sans" font-size="10.00">trimmomatic</text>
</g>
<!-- 14&#45;&gt;12 -->
<g id="edge22" class="edge">
<title>14&#45;&gt;12</title>
<path fill="none" stroke="grey" stroke-width="2" d="M142.45,-503.88C163.41,-494.03 189.86,-481.61 211.85,-471.27"/>
<polygon fill="grey" stroke="grey" stroke-width="2" points="213.41,-474.41 220.97,-466.99 210.43,-468.07 213.41,-474.41"/>
</g>
<!-- 15&#45;&gt;12 -->
<g id="edge23" class="edge">
<title>15&#45;&gt;12</title>
<path fill="none" stroke="grey" stroke-width="2" d="M270.06,-503.7C267.83,-495.9 265.15,-486.51 262.67,-477.83"/>
<polygon fill="grey" stroke="grey" stroke-width="2" points="266,-476.76 259.89,-468.1 259.27,-478.68 266,-476.76"/>
</g>
<!-- 15&#45;&gt;13 -->
<g id="edge28" class="edge">
<title>15&#45;&gt;13</title>
<path fill="none" stroke="grey" stroke-width="2" d="M309.51,-507.44C312.71,-506.25 315.91,-505.09 319,-504 360.53,-489.4 408.47,-474.37 442.31,-464.06"/>
<polygon fill="grey" stroke="grey" stroke-width="2" points="443.34,-467.41 451.89,-461.15 441.31,-460.71 443.34,-467.41"/>
</g>
<!-- 16&#45;&gt;12 -->
<g id="edge24" class="edge">
<title>16&#45;&gt;12</title>
<path fill="none" stroke="grey" stroke-width="2" d="M344.89,-503.88C329.33,-494.72 309.98,-483.34 293.22,-473.48"/>
<polygon fill="grey" stroke="grey" stroke-width="2" points="294.62,-470.24 284.22,-468.19 291.07,-476.28 294.62,-470.24"/>
</g>
<!-- 16&#45;&gt;13 -->
<g id="edge29" class="edge">
<title>16&#45;&gt;13</title>
<path fill="none" stroke="grey" stroke-width="2" d="M401.4,-503.88C415.91,-494.81 433.92,-483.55 449.59,-473.76"/>
<polygon fill="grey" stroke="grey" stroke-width="2" points="451.87,-476.46 458.5,-468.19 448.16,-470.52 451.87,-476.46"/>
</g>
<!-- 17&#45;&gt;12 -->
<g id="edge25" class="edge">
<title>17&#45;&gt;12</title>
<path fill="none" stroke="grey" stroke-width="2" d="M437.68,-507.32C434.76,-506.16 431.84,-505.03 429,-504 385.38,-488.14 334.48,-473.02 299.05,-463.02"/>
<polygon fill="grey" stroke="grey" stroke-width="2" points="299.61,-459.54 289.03,-460.21 297.72,-466.28 299.61,-459.54"/>
</g>
<!-- 17&#45;&gt;13 -->
<g id="edge30" class="edge">
<title>17&#45;&gt;13</title>
<path fill="none" stroke="grey" stroke-width="2" d="M473.2,-503.7C475.1,-495.9 477.38,-486.51 479.48,-477.83"/>
<polygon fill="grey" stroke="grey" stroke-width="2" points="482.89,-478.65 481.85,-468.1 476.08,-477 482.89,-478.65"/>
</g>
<!-- 18 -->
<g id="node19" class="node">
<title>18</title>
<path fill="none" stroke="#88d856" stroke-width="2" d="M662,-540C662,-540 606,-540 606,-540 600,-540 594,-534 594,-528 594,-528 594,-516 594,-516 594,-510 600,-504 606,-504 606,-504 662,-504 662,-504 668,-504 674,-510 674,-516 674,-516 674,-528 674,-528 674,-534 668,-540 662,-540"/>
<text text-anchor="middle" x="634" y="-519.5" font-family="sans" font-size="10.00">trimmomatic</text>
</g>
<!-- 18&#45;&gt;13 -->
<g id="edge27" class="edge">
<title>18&#45;&gt;13</title>
<path fill="none" stroke="grey" stroke-width="2" d="M597.8,-503.88C577.05,-494.07 550.9,-481.69 529.1,-471.38"/>
<polygon fill="grey" stroke="grey" stroke-width="2" points="530.59,-468.22 520.05,-467.11 527.6,-474.55 530.59,-468.22"/>
</g>
<!-- 19 -->
<g id="node20" class="node">
<title>19</title>
<path fill="none" stroke="#56d88a" stroke-width="2" d="M126.5,-612C126.5,-612 85.5,-612 85.5,-612 79.5,-612 73.5,-606 73.5,-600 73.5,-600 73.5,-588 73.5,-588 73.5,-582 79.5,-576 85.5,-576 85.5,-576 126.5,-576 126.5,-576 132.5,-576 138.5,-582 138.5,-588 138.5,-588 138.5,-600 138.5,-600 138.5,-606 132.5,-612 126.5,-612"/>
<text text-anchor="middle" x="106" y="-597" font-family="sans" font-size="10.00">cp_reads</text>
<text text-anchor="middle" x="106" y="-586" font-family="sans" font-size="10.00">library: L1</text>
</g>
<!-- 19&#45;&gt;14 -->
<g id="edge31" class="edge">
<title>19&#45;&gt;14</title>
<path fill="none" stroke="grey" stroke-width="2" d="M106,-575.7C106,-567.98 106,-558.71 106,-550.11"/>
<polygon fill="grey" stroke="grey" stroke-width="2" points="109.5,-550.1 106,-540.1 102.5,-550.1 109.5,-550.1"/>
</g>
<!-- 20 -->
<g id="node21" class="node">
<title>20</title>
<path fill="none" stroke="#56d88a" stroke-width="2" d="M654.5,-612C654.5,-612 613.5,-612 613.5,-612 607.5,-612 601.5,-606 601.5,-600 601.5,-600 601.5,-588 601.5,-588 601.5,-582 607.5,-576 613.5,-576 613.5,-576 654.5,-576 654.5,-576 660.5,-576 666.5,-582 666.5,-588 666.5,-588 666.5,-600 666.5,-600 666.5,-606 660.5,-612 654.5,-612"/>
<text text-anchor="middle" x="634" y="-597" font-family="sans" font-size="10.00">cp_reads</text>
<text text-anchor="middle" x="634" y="-586" font-family="sans" font-size="10.00">library: L2</text>
</g>
<!-- 20&#45;&gt;18 -->
<g id="edge35" class="edge">
<title>20&#45;&gt;18</title>
<path fill="none" stroke="grey" stroke-width="2" d="M634,-575.7C634,-567.98 634,-558.71 634,-550.11"/>
<polygon fill="grey" stroke="grey" stroke-width="2" points="637.5,-550.1 634,-540.1 630.5,-550.1 637.5,-550.1"/>
</g>
</g>
</svg>
