<?xml version="1.0" encoding="UTF-8" standalone="no"?>
<!DOCTYPE svg PUBLIC "-//W3C//DTD SVG 1.1//EN"
 "http://www.w3.org/Graphics/SVG/1.1/DTD/svg11.dtd">
<!-- Generated by graphviz version 2.43.0 (0)
 -->
<!-- Title: snakemake_dag Pages: 1 -->
<svg width="781pt" height="620pt"
 viewBox="0.00 0.00 780.65 620.00" xmlns="http://www.w3.org/2000/svg" xmlns:xlink="http://www.w3.org/1999/xlink">
<g id="graph0" class="graph" transform="scale(1 1) rotate(0) translate(4 616)">
<title>snakemake_dag</title>
<polygon fill="white" stroke="transparent" points="-4,4 -4,-616 776.65,-616 776.65,4 -4,4"/>
<!-- 0 -->
<g id="node1" class="node">
<title>0</title>
<path fill="none" stroke="#56a2d8" stroke-width="2" d="M195,-36C195,-36 165,-36 165,-36 159,-36 153,-30 153,-24 153,-24 153,-12 153,-12 153,-6 159,0 165,0 165,0 195,0 195,0 201,0 207,-6 207,-12 207,-12 207,-24 207,-24 207,-30 201,-36 195,-36"/>
<text text-anchor="middle" x="180" y="-15.5" font-family="sans" font-size="10.00">all</text>
</g>
<!-- 1 -->
<g id="node2" class="node">
<title>1</title>
<path fill="none" stroke="#78d856" stroke-width="2" d="M68,-540C68,-540 12,-540 12,-540 6,-540 0,-534 0,-528 0,-528 0,-516 0,-516 0,-510 6,-504 12,-504 12,-504 68,-504 68,-504 74,-504 80,-510 80,-516 80,-516 80,-528 80,-528 80,-534 74,-540 68,-540"/>
<text text-anchor="middle" x="40" y="-519.5" font-family="sans" font-size="10.00">trimmomatic</text>
</g>
<!-- 1&#45;&gt;0 -->
<g id="edge1" class="edge">
<title>1&#45;&gt;0</title>
<path fill="none" stroke="grey" stroke-width="2" d="M46.07,-503.76C54.84,-477.28 70,-424.86 70,-379 70,-379 70,-379 70,-161 70,-110.76 113.56,-67.52 145.86,-42.36"/>
<polygon fill="grey" stroke="grey" stroke-width="2" points="148.34,-44.88 154.21,-36.06 144.12,-39.29 148.34,-44.88"/>
</g>
<!-- 16 -->
<g id="node17" class="node">
<title>16</title>
<path fill="none" stroke="#56c9d8" stroke-width="2" d="M359,-468C359,-468 315,-468 315,-468 309,-468 303,-462 303,-456 303,-456 303,-444 303,-444 303,-438 309,-432 315,-432 315,-432 359,-432 359,-432 365,-432 371,-438 371,-444 371,-444 371,-456 371,-456 371,-462 365,-468 359,-468"/>
<text text-anchor="middle" x="337" y="-447.5" font-family="sans" font-size="10.00">bwa_mem</text>
</g>
<!-- 1&#45;&gt;16 -->
<g id="edge26" class="edge">
<title>1&#45;&gt;16</title>
<path fill="none" stroke="grey" stroke-width="2" d="M80.25,-506.59C83.2,-505.67 86.14,-504.8 89,-504 159.47,-484.33 242.95,-467.86 292.86,-458.73"/>
<polygon fill="grey" stroke="grey" stroke-width="2" points="293.77,-462.12 302.98,-456.89 292.52,-455.23 293.77,-462.12"/>
</g>
<!-- 2 -->
<g id="node3" class="node">
<title>2</title>
<path fill="none" stroke="#78d856" stroke-width="2" d="M166,-540C166,-540 110,-540 110,-540 104,-540 98,-534 98,-528 98,-528 98,-516 98,-516 98,-510 104,-504 110,-504 110,-504 166,-504 166,-504 172,-504 178,-510 178,-516 178,-516 178,-528 178,-528 178,-534 172,-540 166,-540"/>
<text text-anchor="middle" x="138" y="-519.5" font-family="sans" font-size="10.00">trimmomatic</text>
</g>
<!-- 2&#45;&gt;0 -->
<g id="edge2" class="edge">
<title>2&#45;&gt;0</title>
<path fill="none" stroke="grey" stroke-width="2" d="M138,-503.95C138,-477.29 138,-424.11 138,-379 138,-379 138,-379 138,-161 138,-119.15 154.99,-73.1 167.35,-45.11"/>
<polygon fill="grey" stroke="grey" stroke-width="2" points="170.54,-46.56 171.5,-36.01 164.17,-43.66 170.54,-46.56"/>
</g>
<!-- 17 -->
<g id="node18" class="node">
<title>17</title>
<path fill="none" stroke="#56c9d8" stroke-width="2" d="M515,-468C515,-468 471,-468 471,-468 465,-468 459,-462 459,-456 459,-456 459,-444 459,-444 459,-438 465,-432 471,-432 471,-432 515,-432 515,-432 521,-432 527,-438 527,-444 527,-444 527,-456 527,-456 527,-462 521,-468 515,-468"/>
<text text-anchor="middle" x="493" y="-447.5" font-family="sans" font-size="10.00">bwa_mem</text>
</g>
<!-- 2&#45;&gt;17 -->
<g id="edge31" class="edge">
<title>2&#45;&gt;17</title>
<path fill="none" stroke="grey" stroke-width="2" d="M178.03,-513.11C244.95,-499.91 379.05,-473.47 448.71,-459.73"/>
<polygon fill="grey" stroke="grey" stroke-width="2" points="449.77,-463.09 458.91,-457.72 448.42,-456.22 449.77,-463.09"/>
</g>
<!-- 3 -->
<g id="node4" class="node">
<title>3</title>
<path fill="none" stroke="#56d87b" stroke-width="2" d="M265.5,-108C265.5,-108 178.5,-108 178.5,-108 172.5,-108 166.5,-102 166.5,-96 166.5,-96 166.5,-84 166.5,-84 166.5,-78 172.5,-72 178.5,-72 178.5,-72 265.5,-72 265.5,-72 271.5,-72 277.5,-78 277.5,-84 277.5,-84 277.5,-96 277.5,-96 277.5,-102 271.5,-108 265.5,-108"/>
<text text-anchor="middle" x="222" y="-87.5" font-family="sans" font-size="10.00">samtools_view_md</text>
</g>
<!-- 3&#45;&gt;0 -->
<g id="edge3" class="edge">
<title>3&#45;&gt;0</title>
<path fill="none" stroke="grey" stroke-width="2" d="M211.62,-71.7C206.74,-63.56 200.81,-53.69 195.42,-44.7"/>
<polygon fill="grey" stroke="grey" stroke-width="2" points="198.41,-42.88 190.26,-36.1 192.41,-46.48 198.41,-42.88"/>
</g>
<!-- 4 -->
<g id="node5" class="node">
<title>4</title>
<path fill="none" stroke="#56d87b" stroke-width="2" d="M727.5,-108C727.5,-108 640.5,-108 640.5,-108 634.5,-108 628.5,-102 628.5,-96 628.5,-96 628.5,-84 628.5,-84 628.5,-78 634.5,-72 640.5,-72 640.5,-72 727.5,-72 727.5,-72 733.5,-72 739.5,-78 739.5,-84 739.5,-84 739.5,-96 739.5,-96 739.5,-102 733.5,-108 727.5,-108"/>
<text text-anchor="middle" x="684" y="-87.5" font-family="sans" font-size="10.00">samtools_view_md</text>
</g>
<!-- 4&#45;&gt;0 -->
<g id="edge4" class="edge">
<title>4&#45;&gt;0</title>
<path fill="none" stroke="grey" stroke-width="2" d="M628.14,-81.24C524.45,-66.84 304.83,-36.34 217.22,-24.17"/>
<polygon fill="grey" stroke="grey" stroke-width="2" points="217.6,-20.69 207.21,-22.78 216.64,-27.62 217.6,-20.69"/>
</g>
<!-- 5 -->
<g id="node6" class="node">
<title>5</title>
<path fill="none" stroke="#567bd8" stroke-width="2" d="M60.5,-612C60.5,-612 19.5,-612 19.5,-612 13.5,-612 7.5,-606 7.5,-600 7.5,-600 7.5,-588 7.5,-588 7.5,-582 13.5,-576 19.5,-576 19.5,-576 60.5,-576 60.5,-576 66.5,-576 72.5,-582 72.5,-588 72.5,-588 72.5,-600 72.5,-600 72.5,-606 66.5,-612 60.5,-612"/>
<text text-anchor="middle" x="40" y="-597" font-family="sans" font-size="10.00">cp_reads</text>
<text text-anchor="middle" x="40" y="-586" font-family="sans" font-size="10.00">library: L1</text>
</g>
<!-- 5&#45;&gt;1 -->
<g id="edge5" class="edge">
<title>5&#45;&gt;1</title>
<path fill="none" stroke="grey" stroke-width="2" d="M40,-575.7C40,-567.98 40,-558.71 40,-550.11"/>
<polygon fill="grey" stroke="grey" stroke-width="2" points="43.5,-550.1 40,-540.1 36.5,-550.1 43.5,-550.1"/>
</g>
<!-- 6 -->
<g id="node7" class="node">
<title>6</title>
<path fill="none" stroke="#567bd8" stroke-width="2" d="M158.5,-612C158.5,-612 117.5,-612 117.5,-612 111.5,-612 105.5,-606 105.5,-600 105.5,-600 105.5,-588 105.5,-588 105.5,-582 111.5,-576 117.5,-576 117.5,-576 158.5,-576 158.5,-576 164.5,-576 170.5,-582 170.5,-588 170.5,-588 170.5,-600 170.5,-600 170.5,-606 164.5,-612 158.5,-612"/>
<text text-anchor="middle" x="138" y="-597" font-family="sans" font-size="10.00">cp_reads</text>
<text text-anchor="middle" x="138" y="-586" font-family="sans" font-size="10.00">library: L2</text>
</g>
<!-- 6&#45;&gt;2 -->
<g id="edge6" class="edge">
<title>6&#45;&gt;2</title>
<path fill="none" stroke="grey" stroke-width="2" d="M138,-575.7C138,-567.98 138,-558.71 138,-550.11"/>
<polygon fill="grey" stroke="grey" stroke-width="2" points="141.5,-550.1 138,-540.1 134.5,-550.1 141.5,-550.1"/>
</g>
<!-- 7 -->
<g id="node8" class="node">
<title>7</title>
<path fill="none" stroke="#56d8a2" stroke-width="2" d="M376.5,-180C376.5,-180 281.5,-180 281.5,-180 275.5,-180 269.5,-174 269.5,-168 269.5,-168 269.5,-156 269.5,-156 269.5,-150 275.5,-144 281.5,-144 281.5,-144 376.5,-144 376.5,-144 382.5,-144 388.5,-150 388.5,-156 388.5,-156 388.5,-168 388.5,-168 388.5,-174 382.5,-180 376.5,-180"/>
<text text-anchor="middle" x="329" y="-159.5" font-family="sans" font-size="10.00">gatk_markduplicates</text>
</g>
<!-- 7&#45;&gt;3 -->
<g id="edge7" class="edge">
<title>7&#45;&gt;3</title>
<path fill="none" stroke="grey" stroke-width="2" d="M302.82,-143.88C288.96,-134.81 271.76,-123.55 256.79,-113.76"/>
<polygon fill="grey" stroke="grey" stroke-width="2" points="258.56,-110.74 248.28,-108.19 254.73,-116.59 258.56,-110.74"/>
</g>
<!-- 8 -->
<g id="node9" class="node">
<title>8</title>
<path fill="none" stroke="#c6d856" stroke-width="2" d="M594.5,-612C594.5,-612 475.5,-612 475.5,-612 469.5,-612 463.5,-606 463.5,-600 463.5,-600 463.5,-588 463.5,-588 463.5,-582 469.5,-576 475.5,-576 475.5,-576 594.5,-576 594.5,-576 600.5,-576 606.5,-582 606.5,-588 606.5,-588 606.5,-600 606.5,-600 606.5,-606 600.5,-612 594.5,-612"/>
<text text-anchor="middle" x="535" y="-597" font-family="sans" font-size="10.00">samtools_faidx_split</text>
<text text-anchor="middle" x="535" y="-586" font-family="sans" font-size="10.00">chromosome: Qrob_Chr01</text>
</g>
<!-- 8&#45;&gt;3 -->
<g id="edge8" class="edge">
<title>8&#45;&gt;3</title>
<path fill="none" stroke="grey" stroke-width="2" d="M463.21,-592.39C366.4,-587.34 206,-562.2 206,-451 206,-451 206,-451 206,-233 206,-192.96 212.36,-146.97 217.06,-118.45"/>
<polygon fill="grey" stroke="grey" stroke-width="2" points="220.54,-118.86 218.76,-108.42 213.64,-117.69 220.54,-118.86"/>
</g>
<!-- 8&#45;&gt;4 -->
<g id="edge10" class="edge">
<title>8&#45;&gt;4</title>
<path fill="none" stroke="grey" stroke-width="2" d="M606.75,-581.2C676.51,-565.15 772,-528.94 772,-451 772,-451 772,-451 772,-233 772,-192.55 774.59,-178.2 753,-144 745.61,-132.29 734.67,-122.18 723.67,-114.01"/>
<polygon fill="grey" stroke="grey" stroke-width="2" points="725.5,-111.02 715.3,-108.15 721.48,-116.76 725.5,-111.02"/>
</g>
<!-- 8&#45;&gt;7 -->
<g id="edge12" class="edge">
<title>8&#45;&gt;7</title>
<path fill="none" stroke="grey" stroke-width="2" d="M563.26,-575.97C575.43,-566.96 588.37,-554.7 595,-540 601.58,-525.41 600.2,-519.13 595,-504 546.96,-364.31 415.65,-237.92 357.43,-186.9"/>
<polygon fill="grey" stroke="grey" stroke-width="2" points="359.57,-184.12 349.72,-180.2 354.98,-189.4 359.57,-184.12"/>
</g>
<!-- 9 -->
<g id="node10" class="node">
<title>9</title>
<path fill="none" stroke="#56d8a2" stroke-width="2" d="M731.5,-180C731.5,-180 636.5,-180 636.5,-180 630.5,-180 624.5,-174 624.5,-168 624.5,-168 624.5,-156 624.5,-156 624.5,-150 630.5,-144 636.5,-144 636.5,-144 731.5,-144 731.5,-144 737.5,-144 743.5,-150 743.5,-156 743.5,-156 743.5,-168 743.5,-168 743.5,-174 737.5,-180 731.5,-180"/>
<text text-anchor="middle" x="684" y="-159.5" font-family="sans" font-size="10.00">gatk_markduplicates</text>
</g>
<!-- 8&#45;&gt;9 -->
<g id="edge15" class="edge">
<title>8&#45;&gt;9</title>
<path fill="none" stroke="grey" stroke-width="2" d="M600.16,-575.99C658.2,-556.43 734,-518.06 734,-451 734,-451 734,-451 734,-305 734,-262.68 714,-217.09 699.3,-189.3"/>
<polygon fill="grey" stroke="grey" stroke-width="2" points="702.22,-187.35 694.36,-180.24 696.07,-190.7 702.22,-187.35"/>
</g>
<!-- 14 -->
<g id="node15" class="node">
<title>14</title>
<path fill="none" stroke="#d8c356" stroke-width="2" d="M333,-396C333,-396 267,-396 267,-396 261,-396 255,-390 255,-384 255,-384 255,-372 255,-372 255,-366 261,-360 267,-360 267,-360 333,-360 333,-360 339,-360 345,-366 345,-372 345,-372 345,-384 345,-384 345,-390 339,-396 333,-396"/>
<text text-anchor="middle" x="300" y="-375.5" font-family="sans" font-size="10.00">samtools_view</text>
</g>
<!-- 8&#45;&gt;14 -->
<g id="edge22" class="edge">
<title>8&#45;&gt;14</title>
<path fill="none" stroke="grey" stroke-width="2" d="M463.35,-587.31C399.02,-580.54 311.49,-566.63 290,-540 259.27,-501.91 275.15,-440.8 288.33,-405.85"/>
<polygon fill="grey" stroke="grey" stroke-width="2" points="291.68,-406.9 292.11,-396.31 285.17,-404.32 291.68,-406.9"/>
</g>
<!-- 15 -->
<g id="node16" class="node">
<title>15</title>
<path fill="none" stroke="#d8c356" stroke-width="2" d="M684,-396C684,-396 618,-396 618,-396 612,-396 606,-390 606,-384 606,-384 606,-372 606,-372 606,-366 612,-360 618,-360 618,-360 684,-360 684,-360 690,-360 696,-366 696,-372 696,-372 696,-384 696,-384 696,-390 690,-396 684,-396"/>
<text text-anchor="middle" x="651" y="-375.5" font-family="sans" font-size="10.00">samtools_view</text>
</g>
<!-- 8&#45;&gt;15 -->
<g id="edge24" class="edge">
<title>8&#45;&gt;15</title>
<path fill="none" stroke="grey" stroke-width="2" d="M604.13,-575.89C622.08,-567.99 639.34,-556.54 650,-540 676.21,-499.33 667.44,-440.05 659,-405.92"/>
<polygon fill="grey" stroke="grey" stroke-width="2" points="662.37,-404.97 656.43,-396.19 655.6,-406.75 662.37,-404.97"/>
</g>
<!-- 8&#45;&gt;16 -->
<g id="edge25" class="edge">
<title>8&#45;&gt;16</title>
<path fill="none" stroke="grey" stroke-width="2" d="M463.29,-586.47C402.16,-579.24 321.08,-565.14 301,-540 285.96,-521.17 299.39,-495.22 313.94,-476.19"/>
<polygon fill="grey" stroke="grey" stroke-width="2" points="316.8,-478.22 320.38,-468.25 311.36,-473.81 316.8,-478.22"/>
</g>
<!-- 8&#45;&gt;17 -->
<g id="edge30" class="edge">
<title>8&#45;&gt;17</title>
<path fill="none" stroke="grey" stroke-width="2" d="M553.95,-575.67C571.38,-557.54 592.61,-528.38 579,-504 569.78,-487.49 553.07,-475.48 536.81,-467.12"/>
<polygon fill="grey" stroke="grey" stroke-width="2" points="537.89,-463.75 527.35,-462.6 534.87,-470.07 537.89,-463.75"/>
</g>
<!-- 18 -->
<g id="node19" class="node">
<title>18</title>
<path fill="none" stroke="#56d8c9" stroke-width="2" d="M557.5,-540C557.5,-540 512.5,-540 512.5,-540 506.5,-540 500.5,-534 500.5,-528 500.5,-528 500.5,-516 500.5,-516 500.5,-510 506.5,-504 512.5,-504 512.5,-504 557.5,-504 557.5,-504 563.5,-504 569.5,-510 569.5,-516 569.5,-516 569.5,-528 569.5,-528 569.5,-534 563.5,-540 557.5,-540"/>
<text text-anchor="middle" x="535" y="-519.5" font-family="sans" font-size="10.00">bwa_index</text>
</g>
<!-- 8&#45;&gt;18 -->
<g id="edge35" class="edge">
<title>8&#45;&gt;18</title>
<path fill="none" stroke="grey" stroke-width="2" d="M535,-575.7C535,-567.98 535,-558.71 535,-550.11"/>
<polygon fill="grey" stroke="grey" stroke-width="2" points="538.5,-550.1 535,-540.1 531.5,-550.1 538.5,-550.1"/>
</g>
<!-- 19 -->
<g id="node20" class="node">
<title>19</title>
<path fill="none" stroke="#d85656" stroke-width="2" d="M390,-540C390,-540 322,-540 322,-540 316,-540 310,-534 310,-528 310,-528 310,-516 310,-516 310,-510 316,-504 322,-504 322,-504 390,-504 390,-504 396,-504 402,-510 402,-516 402,-516 402,-528 402,-528 402,-534 396,-540 390,-540"/>
<text text-anchor="middle" x="356" y="-519.5" font-family="sans" font-size="10.00">samtools_faidx</text>
</g>
<!-- 8&#45;&gt;19 -->
<g id="edge36" class="edge">
<title>8&#45;&gt;19</title>
<path fill="none" stroke="grey" stroke-width="2" d="M491.21,-575.88C466.42,-566.18 435.22,-553.98 409.04,-543.74"/>
<polygon fill="grey" stroke="grey" stroke-width="2" points="410.23,-540.45 399.65,-540.07 407.68,-546.97 410.23,-540.45"/>
</g>
<!-- 20 -->
<g id="node21" class="node">
<title>20</title>
<path fill="none" stroke="#d87d56" stroke-width="2" d="M470,-540C470,-540 432,-540 432,-540 426,-540 420,-534 420,-528 420,-528 420,-516 420,-516 420,-510 426,-504 432,-504 432,-504 470,-504 470,-504 476,-504 482,-510 482,-516 482,-516 482,-528 482,-528 482,-534 476,-540 470,-540"/>
<text text-anchor="middle" x="451" y="-519.5" font-family="sans" font-size="10.00">gatk_dict</text>
</g>
<!-- 8&#45;&gt;20 -->
<g id="edge37" class="edge">
<title>8&#45;&gt;20</title>
<path fill="none" stroke="grey" stroke-width="2" d="M514.24,-575.7C503.76,-566.97 490.89,-556.24 479.5,-546.75"/>
<polygon fill="grey" stroke="grey" stroke-width="2" points="481.45,-543.82 471.53,-540.1 476.97,-549.19 481.45,-543.82"/>
</g>
<!-- 9&#45;&gt;4 -->
<g id="edge9" class="edge">
<title>9&#45;&gt;4</title>
<path fill="none" stroke="grey" stroke-width="2" d="M684,-143.7C684,-135.98 684,-126.71 684,-118.11"/>
<polygon fill="grey" stroke="grey" stroke-width="2" points="687.5,-118.1 684,-108.1 680.5,-118.1 687.5,-118.1"/>
</g>
<!-- 10 -->
<g id="node11" class="node">
<title>10</title>
<path fill="none" stroke="#d8a456" stroke-width="2" d="M331,-324C331,-324 269,-324 269,-324 263,-324 257,-318 257,-312 257,-312 257,-300 257,-300 257,-294 263,-288 269,-288 269,-288 331,-288 331,-288 337,-288 343,-294 343,-300 343,-300 343,-312 343,-312 343,-318 337,-324 331,-324"/>
<text text-anchor="middle" x="300" y="-303.5" font-family="sans" font-size="10.00">samtools_sort</text>
</g>
<!-- 10&#45;&gt;7 -->
<g id="edge11" class="edge">
<title>10&#45;&gt;7</title>
<path fill="none" stroke="grey" stroke-width="2" d="M321.27,-287.7C331.11,-278.31 341.76,-265.8 347,-252 354.69,-231.73 348.93,-207.55 341.94,-189.52"/>
<polygon fill="grey" stroke="grey" stroke-width="2" points="345.12,-188.05 338.01,-180.19 338.67,-190.77 345.12,-188.05"/>
</g>
<!-- 11 -->
<g id="node12" class="node">
<title>11</title>
<path fill="none" stroke="#59d856" stroke-width="2" d="M326,-252C326,-252 256,-252 256,-252 250,-252 244,-246 244,-240 244,-240 244,-228 244,-228 244,-222 250,-216 256,-216 256,-216 326,-216 326,-216 332,-216 338,-222 338,-228 338,-228 338,-240 338,-240 338,-246 332,-252 326,-252"/>
<text text-anchor="middle" x="291" y="-231.5" font-family="sans" font-size="10.00">samtools_index</text>
</g>
<!-- 10&#45;&gt;11 -->
<g id="edge18" class="edge">
<title>10&#45;&gt;11</title>
<path fill="none" stroke="grey" stroke-width="2" d="M297.78,-287.7C296.78,-279.98 295.59,-270.71 294.49,-262.11"/>
<polygon fill="grey" stroke="grey" stroke-width="2" points="297.95,-261.58 293.2,-252.1 291,-262.47 297.95,-261.58"/>
</g>
<!-- 11&#45;&gt;7 -->
<g id="edge13" class="edge">
<title>11&#45;&gt;7</title>
<path fill="none" stroke="grey" stroke-width="2" d="M300.39,-215.7C304.76,-207.64 310.06,-197.89 314.9,-188.98"/>
<polygon fill="grey" stroke="grey" stroke-width="2" points="318.02,-190.56 319.71,-180.1 311.87,-187.22 318.02,-190.56"/>
</g>
<!-- 12 -->
<g id="node13" class="node">
<title>12</title>
<path fill="none" stroke="#d8a456" stroke-width="2" d="M682,-324C682,-324 620,-324 620,-324 614,-324 608,-318 608,-312 608,-312 608,-300 608,-300 608,-294 614,-288 620,-288 620,-288 682,-288 682,-288 688,-288 694,-294 694,-300 694,-300 694,-312 694,-312 694,-318 688,-324 682,-324"/>
<text text-anchor="middle" x="651" y="-303.5" font-family="sans" font-size="10.00">samtools_sort</text>
</g>
<!-- 12&#45;&gt;9 -->
<g id="edge14" class="edge">
<title>12&#45;&gt;9</title>
<path fill="none" stroke="grey" stroke-width="2" d="M661.4,-287.99C667.04,-277.9 673.54,-264.65 677,-252 682.55,-231.73 684.19,-207.96 684.49,-190.08"/>
<polygon fill="grey" stroke="grey" stroke-width="2" points="687.99,-190.07 684.54,-180.06 680.99,-190.04 687.99,-190.07"/>
</g>
<!-- 13 -->
<g id="node14" class="node">
<title>13</title>
<path fill="none" stroke="#59d856" stroke-width="2" d="M656,-252C656,-252 586,-252 586,-252 580,-252 574,-246 574,-240 574,-240 574,-228 574,-228 574,-222 580,-216 586,-216 586,-216 656,-216 656,-216 662,-216 668,-222 668,-228 668,-228 668,-240 668,-240 668,-246 662,-252 656,-252"/>
<text text-anchor="middle" x="621" y="-231.5" font-family="sans" font-size="10.00">samtools_index</text>
</g>
<!-- 12&#45;&gt;13 -->
<g id="edge20" class="edge">
<title>12&#45;&gt;13</title>
<path fill="none" stroke="grey" stroke-width="2" d="M643.58,-287.7C640.21,-279.81 636.13,-270.3 632.38,-261.55"/>
<polygon fill="grey" stroke="grey" stroke-width="2" points="635.49,-259.92 628.33,-252.1 629.05,-262.67 635.49,-259.92"/>
</g>
<!-- 13&#45;&gt;9 -->
<g id="edge16" class="edge">
<title>13&#45;&gt;9</title>
<path fill="none" stroke="grey" stroke-width="2" d="M636.57,-215.7C644.2,-207.22 653.52,-196.86 661.88,-187.58"/>
<polygon fill="grey" stroke="grey" stroke-width="2" points="664.52,-189.88 668.61,-180.1 659.31,-185.2 664.52,-189.88"/>
</g>
<!-- 14&#45;&gt;10 -->
<g id="edge17" class="edge">
<title>14&#45;&gt;10</title>
<path fill="none" stroke="grey" stroke-width="2" d="M300,-359.7C300,-351.98 300,-342.71 300,-334.11"/>
<polygon fill="grey" stroke="grey" stroke-width="2" points="303.5,-334.1 300,-324.1 296.5,-334.1 303.5,-334.1"/>
</g>
<!-- 15&#45;&gt;12 -->
<g id="edge19" class="edge">
<title>15&#45;&gt;12</title>
<path fill="none" stroke="grey" stroke-width="2" d="M651,-359.7C651,-351.98 651,-342.71 651,-334.11"/>
<polygon fill="grey" stroke="grey" stroke-width="2" points="654.5,-334.1 651,-324.1 647.5,-334.1 654.5,-334.1"/>
</g>
<!-- 16&#45;&gt;14 -->
<g id="edge21" class="edge">
<title>16&#45;&gt;14</title>
<path fill="none" stroke="grey" stroke-width="2" d="M327.85,-431.7C323.6,-423.64 318.44,-413.89 313.73,-404.98"/>
<polygon fill="grey" stroke="grey" stroke-width="2" points="316.81,-403.31 309.04,-396.1 310.62,-406.58 316.81,-403.31"/>
</g>
<!-- 17&#45;&gt;15 -->
<g id="edge23" class="edge">
<title>17&#45;&gt;15</title>
<path fill="none" stroke="grey" stroke-width="2" d="M527.28,-433.81C549.48,-423.98 578.69,-411.03 603.16,-400.19"/>
<polygon fill="grey" stroke="grey" stroke-width="2" points="604.9,-403.25 612.62,-396 602.06,-396.85 604.9,-403.25"/>
</g>
<!-- 18&#45;&gt;16 -->
<g id="edge27" class="edge">
<title>18&#45;&gt;16</title>
<path fill="none" stroke="grey" stroke-width="2" d="M500.46,-507.51C497.27,-506.31 494.08,-505.12 491,-504 453.97,-490.48 411.6,-475.97 380.69,-465.55"/>
<polygon fill="grey" stroke="grey" stroke-width="2" points="381.67,-462.19 371.08,-462.32 379.44,-468.83 381.67,-462.19"/>
</g>
<!-- 18&#45;&gt;17 -->
<g id="edge32" class="edge">
<title>18&#45;&gt;17</title>
<path fill="none" stroke="grey" stroke-width="2" d="M524.62,-503.7C519.74,-495.56 513.81,-485.69 508.42,-476.7"/>
<polygon fill="grey" stroke="grey" stroke-width="2" points="511.41,-474.88 503.26,-468.1 505.41,-478.48 511.41,-474.88"/>
</g>
<!-- 19&#45;&gt;16 -->
<g id="edge28" class="edge">
<title>19&#45;&gt;16</title>
<path fill="none" stroke="grey" stroke-width="2" d="M351.3,-503.7C349.19,-495.9 346.64,-486.51 344.28,-477.83"/>
<polygon fill="grey" stroke="grey" stroke-width="2" points="347.64,-476.84 341.64,-468.1 340.88,-478.67 347.64,-476.84"/>
</g>
<!-- 19&#45;&gt;17 -->
<g id="edge33" class="edge">
<title>19&#45;&gt;17</title>
<path fill="none" stroke="grey" stroke-width="2" d="M389.51,-503.88C407.84,-494.51 430.74,-482.81 450.33,-472.8"/>
<polygon fill="grey" stroke="grey" stroke-width="2" points="452.04,-475.86 459.36,-468.19 448.86,-469.62 452.04,-475.86"/>
</g>
<!-- 20&#45;&gt;16 -->
<g id="edge29" class="edge">
<title>20&#45;&gt;16</title>
<path fill="none" stroke="grey" stroke-width="2" d="M423.11,-503.88C408.21,-494.72 389.67,-483.34 373.62,-473.48"/>
<polygon fill="grey" stroke="grey" stroke-width="2" points="375.35,-470.44 364.99,-468.19 371.69,-476.41 375.35,-470.44"/>
</g>
<!-- 20&#45;&gt;17 -->
<g id="edge34" class="edge">
<title>20&#45;&gt;17</title>
<path fill="none" stroke="grey" stroke-width="2" d="M461.38,-503.7C466.26,-495.56 472.19,-485.69 477.58,-476.7"/>
<polygon fill="grey" stroke="grey" stroke-width="2" points="480.59,-478.48 482.74,-468.1 474.59,-474.88 480.59,-478.48"/>
</g>
</g>
</svg>
