<?xml version="1.0" encoding="UTF-8" standalone="no"?>
<!DOCTYPE svg PUBLIC "-//W3C//DTD SVG 1.1//EN"
 "http://www.w3.org/Graphics/SVG/1.1/DTD/svg11.dtd">
<!-- Generated by graphviz version 2.43.0 (0)
 -->
<!-- Title: snakemake_dag Pages: 1 -->
<svg width="929pt" height="996pt"
 viewBox="0.00 0.00 928.74 996.00" xmlns="http://www.w3.org/2000/svg" xmlns:xlink="http://www.w3.org/1999/xlink">
<g id="graph0" class="graph" transform="scale(1 1) rotate(0) translate(4 992)">
<title>snakemake_dag</title>
<polygon fill="white" stroke="transparent" points="-4,4 -4,-992 924.74,-992 924.74,4 -4,4"/>
<!-- 0 -->
<g id="node1" class="node">
<title>0</title>
<path fill="none" stroke="#56d892" stroke-width="2" d="M453,-36C453,-36 423,-36 423,-36 417,-36 411,-30 411,-24 411,-24 411,-12 411,-12 411,-6 417,0 423,0 423,0 453,0 453,0 459,0 465,-6 465,-12 465,-12 465,-24 465,-24 465,-30 459,-36 453,-36"/>
<text text-anchor="middle" x="438" y="-15.5" font-family="sans" font-size="10.00">all</text>
</g>
<!-- 1 -->
<g id="node2" class="node">
<title>1</title>
<path fill="none" stroke="#56d863" stroke-width="2" d="M655,-180C655,-180 609,-180 609,-180 603,-180 597,-174 597,-168 597,-168 597,-156 597,-156 597,-150 603,-144 609,-144 609,-144 655,-144 655,-144 661,-144 667,-150 667,-156 667,-156 667,-168 667,-168 667,-174 661,-180 655,-180"/>
<text text-anchor="middle" x="632" y="-159.5" font-family="sans" font-size="10.00">strelka2sql</text>
</g>
<!-- 1&#45;&gt;0 -->
<g id="edge1" class="edge">
<title>1&#45;&gt;0</title>
<path fill="none" stroke="grey" stroke-width="2" d="M608.6,-143.87C573.93,-118.5 508.84,-70.85 469.86,-42.32"/>
<polygon fill="grey" stroke="grey" stroke-width="2" points="471.62,-39.27 461.48,-36.19 467.49,-44.92 471.62,-39.27"/>
</g>
<!-- 2 -->
<g id="node3" class="node">
<title>2</title>
<path fill="none" stroke="#56d8c9" stroke-width="2" d="M429.5,-108C429.5,-108 382.5,-108 382.5,-108 376.5,-108 370.5,-102 370.5,-96 370.5,-96 370.5,-84 370.5,-84 370.5,-78 376.5,-72 382.5,-72 382.5,-72 429.5,-72 429.5,-72 435.5,-72 441.5,-78 441.5,-84 441.5,-84 441.5,-96 441.5,-96 441.5,-102 435.5,-108 429.5,-108"/>
<text text-anchor="middle" x="406" y="-87.5" font-family="sans" font-size="10.00">mutect2sql</text>
</g>
<!-- 2&#45;&gt;0 -->
<g id="edge2" class="edge">
<title>2&#45;&gt;0</title>
<path fill="none" stroke="grey" stroke-width="2" d="M413.91,-71.7C417.55,-63.73 421.95,-54.1 425.99,-45.26"/>
<polygon fill="grey" stroke="grey" stroke-width="2" points="429.21,-46.65 430.18,-36.1 422.84,-43.74 429.21,-46.65"/>
</g>
<!-- 3 -->
<g id="node4" class="node">
<title>3</title>
<path fill="none" stroke="#d85656" stroke-width="2" d="M655.5,-252C655.5,-252 608.5,-252 608.5,-252 602.5,-252 596.5,-246 596.5,-240 596.5,-240 596.5,-228 596.5,-228 596.5,-222 602.5,-216 608.5,-216 608.5,-216 655.5,-216 655.5,-216 661.5,-216 667.5,-222 667.5,-228 667.5,-228 667.5,-240 667.5,-240 667.5,-246 661.5,-252 655.5,-252"/>
<text text-anchor="middle" x="632" y="-231.5" font-family="sans" font-size="10.00">strelka2tsv</text>
</g>
<!-- 3&#45;&gt;1 -->
<g id="edge3" class="edge">
<title>3&#45;&gt;1</title>
<path fill="none" stroke="grey" stroke-width="2" d="M632,-215.7C632,-207.98 632,-198.71 632,-190.11"/>
<polygon fill="grey" stroke="grey" stroke-width="2" points="635.5,-190.1 632,-180.1 628.5,-190.1 635.5,-190.1"/>
</g>
<!-- 4 -->
<g id="node5" class="node">
<title>4</title>
<path fill="none" stroke="#d85656" stroke-width="2" d="M799.5,-252C799.5,-252 752.5,-252 752.5,-252 746.5,-252 740.5,-246 740.5,-240 740.5,-240 740.5,-228 740.5,-228 740.5,-222 746.5,-216 752.5,-216 752.5,-216 799.5,-216 799.5,-216 805.5,-216 811.5,-222 811.5,-228 811.5,-228 811.5,-240 811.5,-240 811.5,-246 805.5,-252 799.5,-252"/>
<text text-anchor="middle" x="776" y="-231.5" font-family="sans" font-size="10.00">strelka2tsv</text>
</g>
<!-- 4&#45;&gt;1 -->
<g id="edge4" class="edge">
<title>4&#45;&gt;1</title>
<path fill="none" stroke="grey" stroke-width="2" d="M740.77,-215.88C721.42,-206.47 697.23,-194.71 676.57,-184.67"/>
<polygon fill="grey" stroke="grey" stroke-width="2" points="677.89,-181.41 667.36,-180.19 674.83,-187.71 677.89,-181.41"/>
</g>
<!-- 5 -->
<g id="node6" class="node">
<title>5</title>
<path fill="none" stroke="#56d0d8" stroke-width="2" d="M430,-180C430,-180 382,-180 382,-180 376,-180 370,-174 370,-168 370,-168 370,-156 370,-156 370,-150 376,-144 382,-144 382,-144 430,-144 430,-144 436,-144 442,-150 442,-156 442,-156 442,-168 442,-168 442,-174 436,-180 430,-180"/>
<text text-anchor="middle" x="406" y="-159.5" font-family="sans" font-size="10.00">mutect2tsv</text>
</g>
<!-- 5&#45;&gt;2 -->
<g id="edge5" class="edge">
<title>5&#45;&gt;2</title>
<path fill="none" stroke="grey" stroke-width="2" d="M406,-143.7C406,-135.98 406,-126.71 406,-118.11"/>
<polygon fill="grey" stroke="grey" stroke-width="2" points="409.5,-118.1 406,-108.1 402.5,-118.1 409.5,-118.1"/>
</g>
<!-- 6 -->
<g id="node7" class="node">
<title>6</title>
<path fill="none" stroke="#56d0d8" stroke-width="2" d="M329,-180C329,-180 281,-180 281,-180 275,-180 269,-174 269,-168 269,-168 269,-156 269,-156 269,-150 275,-144 281,-144 281,-144 329,-144 329,-144 335,-144 341,-150 341,-156 341,-156 341,-168 341,-168 341,-174 335,-180 329,-180"/>
<text text-anchor="middle" x="305" y="-159.5" font-family="sans" font-size="10.00">mutect2tsv</text>
</g>
<!-- 6&#45;&gt;2 -->
<g id="edge6" class="edge">
<title>6&#45;&gt;2</title>
<path fill="none" stroke="grey" stroke-width="2" d="M329.71,-143.88C342.67,-134.89 358.73,-123.76 372.77,-114.03"/>
<polygon fill="grey" stroke="grey" stroke-width="2" points="374.97,-116.76 381.2,-108.19 370.98,-111.01 374.97,-116.76"/>
</g>
<!-- 7 -->
<g id="node8" class="node">
<title>7</title>
<path fill="none" stroke="#56d8a9" stroke-width="2" d="M654,-334.5C654,-334.5 610,-334.5 610,-334.5 604,-334.5 598,-328.5 598,-322.5 598,-322.5 598,-305.5 598,-305.5 598,-299.5 604,-293.5 610,-293.5 610,-293.5 654,-293.5 654,-293.5 660,-293.5 666,-299.5 666,-305.5 666,-305.5 666,-322.5 666,-322.5 666,-328.5 660,-334.5 654,-334.5"/>
<text text-anchor="middle" x="632" y="-322.5" font-family="sans" font-size="10.00">strelka2</text>
<text text-anchor="middle" x="632" y="-311.5" font-family="sans" font-size="10.00">normal: L2</text>
<text text-anchor="middle" x="632" y="-300.5" font-family="sans" font-size="10.00">tumor: L1</text>
</g>
<!-- 7&#45;&gt;3 -->
<g id="edge7" class="edge">
<title>7&#45;&gt;3</title>
<path fill="none" stroke="grey" stroke-width="2" d="M632,-293.32C632,-283.87 632,-272.4 632,-262.14"/>
<polygon fill="grey" stroke="grey" stroke-width="2" points="635.5,-262.03 632,-252.03 628.5,-262.03 635.5,-262.03"/>
</g>
<!-- 8 -->
<g id="node9" class="node">
<title>8</title>
<path fill="none" stroke="#56d8a9" stroke-width="2" d="M826,-334.5C826,-334.5 782,-334.5 782,-334.5 776,-334.5 770,-328.5 770,-322.5 770,-322.5 770,-305.5 770,-305.5 770,-299.5 776,-293.5 782,-293.5 782,-293.5 826,-293.5 826,-293.5 832,-293.5 838,-299.5 838,-305.5 838,-305.5 838,-322.5 838,-322.5 838,-328.5 832,-334.5 826,-334.5"/>
<text text-anchor="middle" x="804" y="-322.5" font-family="sans" font-size="10.00">strelka2</text>
<text text-anchor="middle" x="804" y="-311.5" font-family="sans" font-size="10.00">normal: L1</text>
<text text-anchor="middle" x="804" y="-300.5" font-family="sans" font-size="10.00">tumor: L2</text>
</g>
<!-- 8&#45;&gt;4 -->
<g id="edge8" class="edge">
<title>8&#45;&gt;4</title>
<path fill="none" stroke="grey" stroke-width="2" d="M796.93,-293.32C793.47,-283.67 789.25,-271.92 785.51,-261.5"/>
<polygon fill="grey" stroke="grey" stroke-width="2" points="788.79,-260.26 782.11,-252.03 782.2,-262.62 788.79,-260.26"/>
</g>
<!-- 9 -->
<g id="node10" class="node">
<title>9</title>
<path fill="none" stroke="#d86e56" stroke-width="2" d="M441.5,-252C441.5,-252 370.5,-252 370.5,-252 364.5,-252 358.5,-246 358.5,-240 358.5,-240 358.5,-228 358.5,-228 358.5,-222 364.5,-216 370.5,-216 370.5,-216 441.5,-216 441.5,-216 447.5,-216 453.5,-222 453.5,-228 453.5,-228 453.5,-240 453.5,-240 453.5,-246 447.5,-252 441.5,-252"/>
<text text-anchor="middle" x="406" y="-231.5" font-family="sans" font-size="10.00">gatk_gathervcfs</text>
</g>
<!-- 9&#45;&gt;5 -->
<g id="edge9" class="edge">
<title>9&#45;&gt;5</title>
<path fill="none" stroke="grey" stroke-width="2" d="M406,-215.7C406,-207.98 406,-198.71 406,-190.11"/>
<polygon fill="grey" stroke="grey" stroke-width="2" points="409.5,-190.1 406,-180.1 402.5,-190.1 409.5,-190.1"/>
</g>
<!-- 10 -->
<g id="node11" class="node">
<title>10</title>
<path fill="none" stroke="#d86e56" stroke-width="2" d="M279.5,-252C279.5,-252 208.5,-252 208.5,-252 202.5,-252 196.5,-246 196.5,-240 196.5,-240 196.5,-228 196.5,-228 196.5,-222 202.5,-216 208.5,-216 208.5,-216 279.5,-216 279.5,-216 285.5,-216 291.5,-222 291.5,-228 291.5,-228 291.5,-240 291.5,-240 291.5,-246 285.5,-252 279.5,-252"/>
<text text-anchor="middle" x="244" y="-231.5" font-family="sans" font-size="10.00">gatk_gathervcfs</text>
</g>
<!-- 10&#45;&gt;6 -->
<g id="edge10" class="edge">
<title>10&#45;&gt;6</title>
<path fill="none" stroke="grey" stroke-width="2" d="M259.08,-215.7C266.39,-207.3 275.31,-197.07 283.34,-187.86"/>
<polygon fill="grey" stroke="grey" stroke-width="2" points="286.16,-189.94 290.09,-180.1 280.89,-185.34 286.16,-189.94"/>
</g>
<!-- 11 -->
<g id="node12" class="node">
<title>11</title>
<path fill="none" stroke="#d8bc56" stroke-width="2" d="M463,-988C463,-988 407,-988 407,-988 401,-988 395,-982 395,-976 395,-976 395,-964 395,-964 395,-958 401,-952 407,-952 407,-952 463,-952 463,-952 469,-952 475,-958 475,-964 475,-964 475,-976 475,-976 475,-982 469,-988 463,-988"/>
<text text-anchor="middle" x="435" y="-967.5" font-family="sans" font-size="10.00">cp_reference</text>
</g>
<!-- 11&#45;&gt;7 -->
<g id="edge11" class="edge">
<title>11&#45;&gt;7</title>
<path fill="none" stroke="grey" stroke-width="2" d="M475.07,-965.5C544.31,-958.83 682.8,-942.55 723,-916 762.6,-889.85 782,-874.46 782,-827 782,-827 782,-827 782,-681 782,-542.67 796.11,-491.51 720,-376 708.95,-359.24 691.57,-345.76 675.15,-335.78"/>
<polygon fill="grey" stroke="grey" stroke-width="2" points="676.59,-332.57 666.18,-330.6 673.09,-338.63 676.59,-332.57"/>
</g>
<!-- 11&#45;&gt;8 -->
<g id="edge17" class="edge">
<title>11&#45;&gt;8</title>
<path fill="none" stroke="grey" stroke-width="2" d="M475.3,-967.06C582.36,-961.53 867.86,-944.27 899,-916 928.95,-888.81 918,-867.45 918,-827 918,-827 918,-827 918,-465 918,-413.14 874.27,-367.97 840.97,-341.11"/>
<polygon fill="grey" stroke="grey" stroke-width="2" points="842.8,-338.09 832.77,-334.68 838.48,-343.6 842.8,-338.09"/>
</g>
<!-- 12 -->
<g id="node13" class="node">
<title>12</title>
<path fill="none" stroke="#56d87b" stroke-width="2" d="M313.5,-484C313.5,-484 226.5,-484 226.5,-484 220.5,-484 214.5,-478 214.5,-472 214.5,-472 214.5,-460 214.5,-460 214.5,-454 220.5,-448 226.5,-448 226.5,-448 313.5,-448 313.5,-448 319.5,-448 325.5,-454 325.5,-460 325.5,-460 325.5,-472 325.5,-472 325.5,-478 319.5,-484 313.5,-484"/>
<text text-anchor="middle" x="270" y="-463.5" font-family="sans" font-size="10.00">samtools_view_md</text>
</g>
<!-- 11&#45;&gt;12 -->
<g id="edge26" class="edge">
<title>11&#45;&gt;12</title>
<path fill="none" stroke="grey" stroke-width="2" d="M394.77,-967.07C354.37,-963.09 292.6,-951.2 253,-916 201.06,-869.82 208.42,-839.54 192,-772 165.52,-663.07 125.6,-617.46 181,-520 188.36,-507.04 200.29,-496.92 213.05,-489.16"/>
<polygon fill="grey" stroke="grey" stroke-width="2" points="214.96,-492.1 221.97,-484.15 211.53,-485.99 214.96,-492.1"/>
</g>
<!-- 13 -->
<g id="node14" class="node">
<title>13</title>
<path fill="none" stroke="#56d87b" stroke-width="2" d="M647.5,-484C647.5,-484 560.5,-484 560.5,-484 554.5,-484 548.5,-478 548.5,-472 548.5,-472 548.5,-460 548.5,-460 548.5,-454 554.5,-448 560.5,-448 560.5,-448 647.5,-448 647.5,-448 653.5,-448 659.5,-454 659.5,-460 659.5,-460 659.5,-472 659.5,-472 659.5,-478 653.5,-484 647.5,-484"/>
<text text-anchor="middle" x="604" y="-463.5" font-family="sans" font-size="10.00">samtools_view_md</text>
</g>
<!-- 11&#45;&gt;13 -->
<g id="edge28" class="edge">
<title>11&#45;&gt;13</title>
<path fill="none" stroke="grey" stroke-width="2" d="M475.25,-966.93C513.3,-962.8 569.43,-950.76 603,-916 626.07,-892.11 618.51,-876.91 623,-844 625.16,-828.15 627.92,-823.22 623,-808 616.93,-789.22 604.48,-790.27 597,-772 566.47,-697.41 565.83,-672.07 575,-592 578.92,-557.72 588.71,-519.17 595.84,-494.06"/>
<polygon fill="grey" stroke="grey" stroke-width="2" points="599.28,-494.75 598.7,-484.17 592.56,-492.8 599.28,-494.75"/>
</g>
<!-- 16 -->
<g id="node17" class="node">
<title>16</title>
<path fill="none" stroke="#c6d856" stroke-width="2" d="M373.5,-916C373.5,-916 328.5,-916 328.5,-916 322.5,-916 316.5,-910 316.5,-904 316.5,-904 316.5,-892 316.5,-892 316.5,-886 322.5,-880 328.5,-880 328.5,-880 373.5,-880 373.5,-880 379.5,-880 385.5,-886 385.5,-892 385.5,-892 385.5,-904 385.5,-904 385.5,-910 379.5,-916 373.5,-916"/>
<text text-anchor="middle" x="351" y="-895.5" font-family="sans" font-size="10.00">bwa_index</text>
</g>
<!-- 11&#45;&gt;16 -->
<g id="edge31" class="edge">
<title>11&#45;&gt;16</title>
<path fill="none" stroke="grey" stroke-width="2" d="M414.24,-951.7C403.76,-942.97 390.89,-932.24 379.5,-922.75"/>
<polygon fill="grey" stroke="grey" stroke-width="2" points="381.45,-919.82 371.53,-916.1 376.97,-925.19 381.45,-919.82"/>
</g>
<!-- 17 -->
<g id="node18" class="node">
<title>17</title>
<path fill="none" stroke="#56b9d8" stroke-width="2" d="M491,-340C491,-340 321,-340 321,-340 315,-340 309,-334 309,-328 309,-328 309,-300 309,-300 309,-294 315,-288 321,-288 321,-288 491,-288 491,-288 497,-288 503,-294 503,-300 503,-300 503,-328 503,-328 503,-334 497,-340 491,-340"/>
<text text-anchor="middle" x="406" y="-328" font-family="sans" font-size="10.00">gatk_mutect2</text>
<text text-anchor="middle" x="406" y="-317" font-family="sans" font-size="10.00">interval: 0000&#45;scattered.interval_list</text>
<text text-anchor="middle" x="406" y="-306" font-family="sans" font-size="10.00">normal: L2</text>
<text text-anchor="middle" x="406" y="-295" font-family="sans" font-size="10.00">tumor: L1</text>
</g>
<!-- 11&#45;&gt;17 -->
<g id="edge32" class="edge">
<title>11&#45;&gt;17</title>
<path fill="none" stroke="grey" stroke-width="2" d="M394.71,-965.81C303.2,-958.21 85.63,-938.01 61,-916 30.54,-888.78 38,-867.86 38,-827 38,-827 38,-827 38,-465 38,-435.28 204.7,-377.62 313.71,-343.09"/>
<polygon fill="grey" stroke="grey" stroke-width="2" points="314.93,-346.37 323.41,-340.03 312.82,-339.7 314.93,-346.37"/>
</g>
<!-- 18 -->
<g id="node19" class="node">
<title>18</title>
<path fill="none" stroke="#56b9d8" stroke-width="2" d="M279,-340C279,-340 109,-340 109,-340 103,-340 97,-334 97,-328 97,-328 97,-300 97,-300 97,-294 103,-288 109,-288 109,-288 279,-288 279,-288 285,-288 291,-294 291,-300 291,-300 291,-328 291,-328 291,-334 285,-340 279,-340"/>
<text text-anchor="middle" x="194" y="-328" font-family="sans" font-size="10.00">gatk_mutect2</text>
<text text-anchor="middle" x="194" y="-317" font-family="sans" font-size="10.00">interval: 0000&#45;scattered.interval_list</text>
<text text-anchor="middle" x="194" y="-306" font-family="sans" font-size="10.00">normal: L1</text>
<text text-anchor="middle" x="194" y="-295" font-family="sans" font-size="10.00">tumor: L2</text>
</g>
<!-- 11&#45;&gt;18 -->
<g id="edge38" class="edge">
<title>11&#45;&gt;18</title>
<path fill="none" stroke="grey" stroke-width="2" d="M394.97,-966C299.27,-958.5 63.07,-937.96 35,-916 1.52,-889.81 0,-869.5 0,-827 0,-827 0,-827 0,-465 0,-406.56 55.77,-367.67 107.51,-344.16"/>
<polygon fill="grey" stroke="grey" stroke-width="2" points="109.02,-347.32 116.77,-340.09 106.21,-340.91 109.02,-347.32"/>
</g>
<!-- 19 -->
<g id="node20" class="node">
<title>19</title>
<path fill="none" stroke="#78d856" stroke-width="2" d="M296.5,-556C296.5,-556 201.5,-556 201.5,-556 195.5,-556 189.5,-550 189.5,-544 189.5,-544 189.5,-532 189.5,-532 189.5,-526 195.5,-520 201.5,-520 201.5,-520 296.5,-520 296.5,-520 302.5,-520 308.5,-526 308.5,-532 308.5,-532 308.5,-544 308.5,-544 308.5,-550 302.5,-556 296.5,-556"/>
<text text-anchor="middle" x="249" y="-535.5" font-family="sans" font-size="10.00">gatk_markduplicates</text>
</g>
<!-- 11&#45;&gt;19 -->
<g id="edge45" class="edge">
<title>11&#45;&gt;19</title>
<path fill="none" stroke="grey" stroke-width="2" d="M394.81,-965.65C309.06,-958.08 114.33,-938.58 95,-916 65.61,-881.68 -4.73,-863.8 181,-592 188.87,-580.48 200.03,-570.32 211.04,-562.06"/>
<polygon fill="grey" stroke="grey" stroke-width="2" points="213.26,-564.77 219.37,-556.12 209.19,-559.07 213.26,-564.77"/>
</g>
<!-- 20 -->
<g id="node21" class="node">
<title>20</title>
<path fill="none" stroke="#78d856" stroke-width="2" d="M712.5,-556C712.5,-556 617.5,-556 617.5,-556 611.5,-556 605.5,-550 605.5,-544 605.5,-544 605.5,-532 605.5,-532 605.5,-526 611.5,-520 617.5,-520 617.5,-520 712.5,-520 712.5,-520 718.5,-520 724.5,-526 724.5,-532 724.5,-532 724.5,-544 724.5,-544 724.5,-550 718.5,-556 712.5,-556"/>
<text text-anchor="middle" x="665" y="-535.5" font-family="sans" font-size="10.00">gatk_markduplicates</text>
</g>
<!-- 11&#45;&gt;20 -->
<g id="edge48" class="edge">
<title>11&#45;&gt;20</title>
<path fill="none" stroke="grey" stroke-width="2" d="M475.08,-968.45C558.69,-964.97 744,-944.05 744,-827 744,-827 744,-827 744,-681 744,-635.24 712.28,-590.45 689.04,-563.78"/>
<polygon fill="grey" stroke="grey" stroke-width="2" points="691.43,-561.21 682.14,-556.11 686.22,-565.88 691.43,-561.21"/>
</g>
<!-- 25 -->
<g id="node26" class="node">
<title>25</title>
<path fill="none" stroke="#97d856" stroke-width="2" d="M279,-772C279,-772 213,-772 213,-772 207,-772 201,-766 201,-760 201,-760 201,-748 201,-748 201,-742 207,-736 213,-736 213,-736 279,-736 279,-736 285,-736 291,-742 291,-748 291,-748 291,-760 291,-760 291,-766 285,-772 279,-772"/>
<text text-anchor="middle" x="246" y="-751.5" font-family="sans" font-size="10.00">samtools_view</text>
</g>
<!-- 11&#45;&gt;25 -->
<g id="edge55" class="edge">
<title>11&#45;&gt;25</title>
<path fill="none" stroke="grey" stroke-width="2" d="M394.79,-962.44C362.68,-955.49 318.07,-941.81 287,-916 258.51,-892.32 254.67,-879.76 245,-844 240.82,-828.55 244.85,-824 245,-808 245.08,-799.68 245.23,-790.63 245.38,-782.4"/>
<polygon fill="grey" stroke="grey" stroke-width="2" points="248.89,-782.25 245.59,-772.18 241.89,-782.11 248.89,-782.25"/>
</g>
<!-- 26 -->
<g id="node27" class="node">
<title>26</title>
<path fill="none" stroke="#97d856" stroke-width="2" d="M684,-772C684,-772 618,-772 618,-772 612,-772 606,-766 606,-760 606,-760 606,-748 606,-748 606,-742 612,-736 618,-736 618,-736 684,-736 684,-736 690,-736 696,-742 696,-748 696,-748 696,-760 696,-760 696,-766 690,-772 684,-772"/>
<text text-anchor="middle" x="651" y="-751.5" font-family="sans" font-size="10.00">samtools_view</text>
</g>
<!-- 11&#45;&gt;26 -->
<g id="edge57" class="edge">
<title>11&#45;&gt;26</title>
<path fill="none" stroke="grey" stroke-width="2" d="M475.1,-965.24C532.57,-958.92 633.89,-944.04 656,-916 686.26,-877.63 672.88,-816.62 661.34,-781.76"/>
<polygon fill="grey" stroke="grey" stroke-width="2" points="664.62,-780.54 658.01,-772.25 658.01,-782.85 664.62,-780.54"/>
</g>
<!-- 27 -->
<g id="node28" class="node">
<title>27</title>
<path fill="none" stroke="#afd856" stroke-width="2" d="M310,-844C310,-844 266,-844 266,-844 260,-844 254,-838 254,-832 254,-832 254,-820 254,-820 254,-814 260,-808 266,-808 266,-808 310,-808 310,-808 316,-808 322,-814 322,-820 322,-820 322,-832 322,-832 322,-838 316,-844 310,-844"/>
<text text-anchor="middle" x="288" y="-823.5" font-family="sans" font-size="10.00">bwa_mem</text>
</g>
<!-- 11&#45;&gt;27 -->
<g id="edge58" class="edge">
<title>11&#45;&gt;27</title>
<path fill="none" stroke="grey" stroke-width="2" d="M394.85,-962.29C366.5,-955.45 329.81,-941.99 308,-916 293.64,-898.88 289.03,-873.6 287.79,-854.35"/>
<polygon fill="grey" stroke="grey" stroke-width="2" points="291.28,-853.96 287.4,-844.1 284.28,-854.22 291.28,-853.96"/>
</g>
<!-- 28 -->
<g id="node29" class="node">
<title>28</title>
<path fill="none" stroke="#afd856" stroke-width="2" d="M602,-844C602,-844 558,-844 558,-844 552,-844 546,-838 546,-832 546,-832 546,-820 546,-820 546,-814 552,-808 558,-808 558,-808 602,-808 602,-808 608,-808 614,-814 614,-820 614,-820 614,-832 614,-832 614,-838 608,-844 602,-844"/>
<text text-anchor="middle" x="580" y="-823.5" font-family="sans" font-size="10.00">bwa_mem</text>
</g>
<!-- 11&#45;&gt;28 -->
<g id="edge63" class="edge">
<title>11&#45;&gt;28</title>
<path fill="none" stroke="grey" stroke-width="2" d="M475.08,-967.08C510.51,-963.01 560.28,-950.95 585,-916 597.65,-898.11 594.78,-872.8 589.69,-853.73"/>
<polygon fill="grey" stroke="grey" stroke-width="2" points="593.04,-852.71 586.8,-844.14 586.33,-854.72 593.04,-852.71"/>
</g>
<!-- 30 -->
<g id="node31" class="node">
<title>30</title>
<path fill="none" stroke="#d8a456" stroke-width="2" d="M564,-916C564,-916 496,-916 496,-916 490,-916 484,-910 484,-904 484,-904 484,-892 484,-892 484,-886 490,-880 496,-880 496,-880 564,-880 564,-880 570,-880 576,-886 576,-892 576,-892 576,-904 576,-904 576,-910 570,-916 564,-916"/>
<text text-anchor="middle" x="530" y="-895.5" font-family="sans" font-size="10.00">samtools_faidx</text>
</g>
<!-- 11&#45;&gt;30 -->
<g id="edge69" class="edge">
<title>11&#45;&gt;30</title>
<path fill="none" stroke="grey" stroke-width="2" d="M458.48,-951.7C470.56,-942.8 485.45,-931.82 498.52,-922.2"/>
<polygon fill="grey" stroke="grey" stroke-width="2" points="500.81,-924.85 506.79,-916.1 496.66,-919.22 500.81,-924.85"/>
</g>
<!-- 31 -->
<g id="node32" class="node">
<title>31</title>
<path fill="none" stroke="#56a2d8" stroke-width="2" d="M454,-916C454,-916 416,-916 416,-916 410,-916 404,-910 404,-904 404,-904 404,-892 404,-892 404,-886 410,-880 416,-880 416,-880 454,-880 454,-880 460,-880 466,-886 466,-892 466,-892 466,-904 466,-904 466,-910 460,-916 454,-916"/>
<text text-anchor="middle" x="435" y="-895.5" font-family="sans" font-size="10.00">gatk_dict</text>
</g>
<!-- 11&#45;&gt;31 -->
<g id="edge70" class="edge">
<title>11&#45;&gt;31</title>
<path fill="none" stroke="grey" stroke-width="2" d="M435,-951.7C435,-943.98 435,-934.71 435,-926.11"/>
<polygon fill="grey" stroke="grey" stroke-width="2" points="438.5,-926.1 435,-916.1 431.5,-926.1 438.5,-926.1"/>
</g>
<!-- 12&#45;&gt;7 -->
<g id="edge12" class="edge">
<title>12&#45;&gt;7</title>
<path fill="none" stroke="grey" stroke-width="2" d="M325.53,-453.4C364.31,-444.38 416.82,-430.33 461,-412 508.89,-392.13 560.17,-361.68 593.94,-340.21"/>
<polygon fill="grey" stroke="grey" stroke-width="2" points="596.03,-343.02 602.56,-334.68 592.25,-337.13 596.03,-343.02"/>
</g>
<!-- 12&#45;&gt;8 -->
<g id="edge19" class="edge">
<title>12&#45;&gt;8</title>
<path fill="none" stroke="grey" stroke-width="2" d="M325.74,-461.05C420.68,-453.75 609.47,-436.63 671,-412 711.46,-395.8 750.91,-364.48 776.2,-341.8"/>
<polygon fill="grey" stroke="grey" stroke-width="2" points="778.87,-344.1 783.89,-334.78 774.15,-338.94 778.87,-344.1"/>
</g>
<!-- 14 -->
<g id="node15" class="node">
<title>14</title>
<path fill="none" stroke="#5673d8" stroke-width="2" d="M439.5,-412C439.5,-412 348.5,-412 348.5,-412 342.5,-412 336.5,-406 336.5,-400 336.5,-400 336.5,-388 336.5,-388 336.5,-382 342.5,-376 348.5,-376 348.5,-376 439.5,-376 439.5,-376 445.5,-376 451.5,-382 451.5,-388 451.5,-388 451.5,-400 451.5,-400 451.5,-406 445.5,-412 439.5,-412"/>
<text text-anchor="middle" x="394" y="-391.5" font-family="sans" font-size="10.00">samtools_index_md</text>
</g>
<!-- 12&#45;&gt;14 -->
<g id="edge29" class="edge">
<title>12&#45;&gt;14</title>
<path fill="none" stroke="grey" stroke-width="2" d="M300.33,-447.88C316.7,-438.64 337.08,-427.13 354.65,-417.21"/>
<polygon fill="grey" stroke="grey" stroke-width="2" points="356.56,-420.15 363.55,-412.19 353.12,-414.06 356.56,-420.15"/>
</g>
<!-- 12&#45;&gt;17 -->
<g id="edge33" class="edge">
<title>12&#45;&gt;17</title>
<path fill="none" stroke="grey" stroke-width="2" d="M270.68,-447.82C272.28,-428.47 277.45,-396.99 294,-376 303.73,-363.66 316.67,-353.48 330.29,-345.2"/>
<polygon fill="grey" stroke="grey" stroke-width="2" points="332.38,-348.04 339.32,-340.03 328.9,-341.97 332.38,-348.04"/>
</g>
<!-- 12&#45;&gt;18 -->
<g id="edge40" class="edge">
<title>12&#45;&gt;18</title>
<path fill="none" stroke="grey" stroke-width="2" d="M248.47,-447.92C237.84,-438.41 225.67,-425.73 218,-412 207.44,-393.09 201.47,-369.54 198.13,-350.39"/>
<polygon fill="grey" stroke="grey" stroke-width="2" points="201.54,-349.59 196.53,-340.26 194.63,-350.68 201.54,-349.59"/>
</g>
<!-- 13&#45;&gt;7 -->
<g id="edge13" class="edge">
<title>13&#45;&gt;7</title>
<path fill="none" stroke="grey" stroke-width="2" d="M659.65,-448.33C676.92,-440.25 694.02,-428.58 704,-412 712.25,-398.29 710.73,-390.52 704,-376 697.56,-362.11 686.23,-350.23 674.44,-340.75"/>
<polygon fill="grey" stroke="grey" stroke-width="2" points="676.35,-337.8 666.26,-334.57 672.13,-343.39 676.35,-337.8"/>
</g>
<!-- 13&#45;&gt;8 -->
<g id="edge18" class="edge">
<title>13&#45;&gt;8</title>
<path fill="none" stroke="grey" stroke-width="2" d="M659.5,-454.9C719.56,-443.42 808.12,-424.62 818,-412 832.94,-392.91 826.92,-365.04 818.64,-344.06"/>
<polygon fill="grey" stroke="grey" stroke-width="2" points="821.77,-342.48 814.61,-334.68 815.34,-345.25 821.77,-342.48"/>
</g>
<!-- 15 -->
<g id="node16" class="node">
<title>15</title>
<path fill="none" stroke="#5673d8" stroke-width="2" d="M649.5,-412C649.5,-412 558.5,-412 558.5,-412 552.5,-412 546.5,-406 546.5,-400 546.5,-400 546.5,-388 546.5,-388 546.5,-382 552.5,-376 558.5,-376 558.5,-376 649.5,-376 649.5,-376 655.5,-376 661.5,-382 661.5,-388 661.5,-388 661.5,-400 661.5,-400 661.5,-406 655.5,-412 649.5,-412"/>
<text text-anchor="middle" x="604" y="-391.5" font-family="sans" font-size="10.00">samtools_index_md</text>
</g>
<!-- 13&#45;&gt;15 -->
<g id="edge30" class="edge">
<title>13&#45;&gt;15</title>
<path fill="none" stroke="grey" stroke-width="2" d="M604,-447.7C604,-439.98 604,-430.71 604,-422.11"/>
<polygon fill="grey" stroke="grey" stroke-width="2" points="607.5,-422.1 604,-412.1 600.5,-422.1 607.5,-422.1"/>
</g>
<!-- 13&#45;&gt;17 -->
<g id="edge34" class="edge">
<title>13&#45;&gt;17</title>
<path fill="none" stroke="grey" stroke-width="2" d="M581.29,-447.79C548.69,-423.1 488.1,-377.2 447.41,-346.37"/>
<polygon fill="grey" stroke="grey" stroke-width="2" points="449.38,-343.47 439.3,-340.23 445.16,-349.05 449.38,-343.47"/>
</g>
<!-- 13&#45;&gt;18 -->
<g id="edge39" class="edge">
<title>13&#45;&gt;18</title>
<path fill="none" stroke="grey" stroke-width="2" d="M548.24,-461.43C490.96,-456.14 400.21,-443.23 328,-412 291.13,-396.06 254.55,-368.58 228.95,-346.93"/>
<polygon fill="grey" stroke="grey" stroke-width="2" points="230.9,-344 221.04,-340.13 226.34,-349.3 230.9,-344"/>
</g>
<!-- 14&#45;&gt;7 -->
<g id="edge14" class="edge">
<title>14&#45;&gt;7</title>
<path fill="none" stroke="grey" stroke-width="2" d="M445.94,-375.98C488.52,-362.02 548.11,-342.49 588.28,-329.33"/>
<polygon fill="grey" stroke="grey" stroke-width="2" points="589.39,-332.65 597.8,-326.21 587.21,-326 589.39,-332.65"/>
</g>
<!-- 14&#45;&gt;8 -->
<g id="edge21" class="edge">
<title>14&#45;&gt;8</title>
<path fill="none" stroke="grey" stroke-width="2" d="M451.6,-382.22C508.41,-371.57 597.71,-354.78 675,-340 703.26,-334.6 734.99,-328.45 759.9,-323.6"/>
<polygon fill="grey" stroke="grey" stroke-width="2" points="760.64,-327.02 769.79,-321.68 759.3,-320.15 760.64,-327.02"/>
</g>
<!-- 14&#45;&gt;17 -->
<g id="edge35" class="edge">
<title>14&#45;&gt;17</title>
<path fill="none" stroke="grey" stroke-width="2" d="M396.66,-375.69C397.81,-368.21 399.21,-359.16 400.56,-350.36"/>
<polygon fill="grey" stroke="grey" stroke-width="2" points="404.05,-350.67 402.11,-340.26 397.13,-349.61 404.05,-350.67"/>
</g>
<!-- 14&#45;&gt;18 -->
<g id="edge42" class="edge">
<title>14&#45;&gt;18</title>
<path fill="none" stroke="grey" stroke-width="2" d="M350.11,-375.88C326.04,-366.5 295.56,-354.61 267.93,-343.83"/>
<polygon fill="grey" stroke="grey" stroke-width="2" points="268.88,-340.45 258.29,-340.07 266.34,-346.97 268.88,-340.45"/>
</g>
<!-- 15&#45;&gt;7 -->
<g id="edge15" class="edge">
<title>15&#45;&gt;7</title>
<path fill="none" stroke="grey" stroke-width="2" d="M610.21,-375.69C613.51,-366.51 617.65,-354.97 621.44,-344.43"/>
<polygon fill="grey" stroke="grey" stroke-width="2" points="624.83,-345.33 624.92,-334.74 618.24,-342.97 624.83,-345.33"/>
</g>
<!-- 15&#45;&gt;8 -->
<g id="edge20" class="edge">
<title>15&#45;&gt;8</title>
<path fill="none" stroke="grey" stroke-width="2" d="M647.89,-375.88C681.28,-362.86 727,-345.03 760.33,-332.03"/>
<polygon fill="grey" stroke="grey" stroke-width="2" points="761.77,-335.23 769.81,-328.33 759.22,-328.71 761.77,-335.23"/>
</g>
<!-- 15&#45;&gt;17 -->
<g id="edge36" class="edge">
<title>15&#45;&gt;17</title>
<path fill="none" stroke="grey" stroke-width="2" d="M560.55,-375.88C536.72,-366.5 506.54,-354.61 479.19,-343.83"/>
<polygon fill="grey" stroke="grey" stroke-width="2" points="480.24,-340.48 469.65,-340.07 477.67,-347 480.24,-340.48"/>
</g>
<!-- 15&#45;&gt;18 -->
<g id="edge41" class="edge">
<title>15&#45;&gt;18</title>
<path fill="none" stroke="grey" stroke-width="2" d="M546.38,-383.99C487.25,-374.52 392.38,-358.67 301.23,-340.21"/>
<polygon fill="grey" stroke="grey" stroke-width="2" points="301.78,-336.75 291.28,-338.18 300.38,-343.61 301.78,-336.75"/>
</g>
<!-- 16&#45;&gt;7 -->
<g id="edge16" class="edge">
<title>16&#45;&gt;7</title>
<path fill="none" stroke="grey" stroke-width="2" d="M383.22,-879.87C421.43,-856.95 480,-812.45 480,-755 480,-755 480,-755 480,-609 480,-532.64 480.99,-496.47 540,-448 586.66,-409.67 634.4,-460.02 671,-412 686.76,-391.32 672.67,-363.41 657.2,-342.84"/>
<polygon fill="grey" stroke="grey" stroke-width="2" points="659.77,-340.44 650.8,-334.79 654.29,-344.79 659.77,-340.44"/>
</g>
<!-- 16&#45;&gt;8 -->
<g id="edge22" class="edge">
<title>16&#45;&gt;8</title>
<path fill="none" stroke="grey" stroke-width="2" d="M385.56,-882.81C413.14,-871.04 449.06,-854.58 461,-844 496.16,-812.85 518,-801.97 518,-755 518,-755 518,-755 518,-609 518,-556.11 554.41,-551.36 597,-520 690.87,-450.89 772.79,-509.93 836,-412 849.57,-390.98 838.46,-363.65 825.75,-343.37"/>
<polygon fill="grey" stroke="grey" stroke-width="2" points="828.54,-341.24 820.08,-334.87 822.72,-345.13 828.54,-341.24"/>
</g>
<!-- 16&#45;&gt;17 -->
<g id="edge37" class="edge">
<title>16&#45;&gt;17</title>
<path fill="none" stroke="grey" stroke-width="2" d="M358.49,-879.89C369.3,-853.58 388,-801.37 388,-755 388,-755 388,-755 388,-609 388,-517.47 341.48,-502.53 328,-412 325.64,-396.17 320.99,-390.38 328,-376 333.53,-364.66 342.3,-354.81 351.99,-346.53"/>
<polygon fill="grey" stroke="grey" stroke-width="2" points="354.27,-349.18 359.92,-340.22 349.92,-343.7 354.27,-349.18"/>
</g>
<!-- 16&#45;&gt;18 -->
<g id="edge43" class="edge">
<title>16&#45;&gt;18</title>
<path fill="none" stroke="grey" stroke-width="2" d="M350.8,-879.95C350.51,-853.29 350,-800.12 350,-755 350,-755 350,-755 350,-681 350,-608.04 366.54,-574.46 318,-520 283.21,-480.97 238.81,-524.71 206,-484 175.72,-446.42 179.32,-387.59 185.82,-350.19"/>
<polygon fill="grey" stroke="grey" stroke-width="2" points="189.28,-350.72 187.7,-340.24 182.4,-349.42 189.28,-350.72"/>
</g>
<!-- 16&#45;&gt;27 -->
<g id="edge60" class="edge">
<title>16&#45;&gt;27</title>
<path fill="none" stroke="grey" stroke-width="2" d="M335.43,-879.7C327.8,-871.22 318.48,-860.86 310.12,-851.58"/>
<polygon fill="grey" stroke="grey" stroke-width="2" points="312.69,-849.2 303.39,-844.1 307.48,-853.88 312.69,-849.2"/>
</g>
<!-- 16&#45;&gt;28 -->
<g id="edge65" class="edge">
<title>16&#45;&gt;28</title>
<path fill="none" stroke="grey" stroke-width="2" d="M385.94,-883.1C388.99,-882.01 392.04,-880.96 395,-880 454.9,-860.63 471.83,-862.52 532,-844 533.4,-843.57 534.82,-843.12 536.25,-842.67"/>
<polygon fill="grey" stroke="grey" stroke-width="2" points="537.37,-845.98 545.77,-839.51 535.17,-839.33 537.37,-845.98"/>
</g>
<!-- 17&#45;&gt;9 -->
<g id="edge23" class="edge">
<title>17&#45;&gt;9</title>
<path fill="none" stroke="grey" stroke-width="2" d="M406,-287.89C406,-279.84 406,-270.88 406,-262.66"/>
<polygon fill="grey" stroke="grey" stroke-width="2" points="409.5,-262.41 406,-252.41 402.5,-262.41 409.5,-262.41"/>
</g>
<!-- 18&#45;&gt;10 -->
<g id="edge24" class="edge">
<title>18&#45;&gt;10</title>
<path fill="none" stroke="grey" stroke-width="2" d="M210.1,-287.89C215.6,-279.3 221.78,-269.67 227.33,-261.01"/>
<polygon fill="grey" stroke="grey" stroke-width="2" points="230.39,-262.72 232.84,-252.41 224.5,-258.94 230.39,-262.72"/>
</g>
<!-- 19&#45;&gt;12 -->
<g id="edge25" class="edge">
<title>19&#45;&gt;12</title>
<path fill="none" stroke="grey" stroke-width="2" d="M254.19,-519.7C256.53,-511.9 259.35,-502.51 261.95,-493.83"/>
<polygon fill="grey" stroke="grey" stroke-width="2" points="265.35,-494.69 264.87,-484.1 258.64,-492.68 265.35,-494.69"/>
</g>
<!-- 20&#45;&gt;13 -->
<g id="edge27" class="edge">
<title>20&#45;&gt;13</title>
<path fill="none" stroke="grey" stroke-width="2" d="M649.92,-519.7C642.61,-511.3 633.69,-501.07 625.66,-491.86"/>
<polygon fill="grey" stroke="grey" stroke-width="2" points="628.11,-489.34 618.91,-484.1 622.84,-493.94 628.11,-489.34"/>
</g>
<!-- 21 -->
<g id="node22" class="node">
<title>21</title>
<path fill="none" stroke="#d88556" stroke-width="2" d="M277,-700C277,-700 215,-700 215,-700 209,-700 203,-694 203,-688 203,-688 203,-676 203,-676 203,-670 209,-664 215,-664 215,-664 277,-664 277,-664 283,-664 289,-670 289,-676 289,-676 289,-688 289,-688 289,-694 283,-700 277,-700"/>
<text text-anchor="middle" x="246" y="-679.5" font-family="sans" font-size="10.00">samtools_sort</text>
</g>
<!-- 21&#45;&gt;19 -->
<g id="edge44" class="edge">
<title>21&#45;&gt;19</title>
<path fill="none" stroke="grey" stroke-width="2" d="M267.27,-663.7C277.11,-654.31 287.76,-641.8 293,-628 298.68,-613.04 298.43,-607.05 293,-592 289.25,-581.6 282.46,-571.8 275.33,-563.52"/>
<polygon fill="grey" stroke="grey" stroke-width="2" points="277.83,-561.06 268.47,-556.08 272.68,-565.81 277.83,-561.06"/>
</g>
<!-- 22 -->
<g id="node23" class="node">
<title>22</title>
<path fill="none" stroke="#568ad8" stroke-width="2" d="M272,-628C272,-628 202,-628 202,-628 196,-628 190,-622 190,-616 190,-616 190,-604 190,-604 190,-598 196,-592 202,-592 202,-592 272,-592 272,-592 278,-592 284,-598 284,-604 284,-604 284,-616 284,-616 284,-622 278,-628 272,-628"/>
<text text-anchor="middle" x="237" y="-607.5" font-family="sans" font-size="10.00">samtools_index</text>
</g>
<!-- 21&#45;&gt;22 -->
<g id="edge51" class="edge">
<title>21&#45;&gt;22</title>
<path fill="none" stroke="grey" stroke-width="2" d="M243.78,-663.7C242.78,-655.98 241.59,-646.71 240.49,-638.11"/>
<polygon fill="grey" stroke="grey" stroke-width="2" points="243.95,-637.58 239.2,-628.1 237,-638.47 243.95,-637.58"/>
</g>
<!-- 22&#45;&gt;19 -->
<g id="edge46" class="edge">
<title>22&#45;&gt;19</title>
<path fill="none" stroke="grey" stroke-width="2" d="M239.97,-591.7C241.29,-583.98 242.88,-574.71 244.35,-566.11"/>
<polygon fill="grey" stroke="grey" stroke-width="2" points="247.83,-566.55 246.07,-556.1 240.93,-565.37 247.83,-566.55"/>
</g>
<!-- 23 -->
<g id="node24" class="node">
<title>23</title>
<path fill="none" stroke="#d88556" stroke-width="2" d="M682,-700C682,-700 620,-700 620,-700 614,-700 608,-694 608,-688 608,-688 608,-676 608,-676 608,-670 614,-664 620,-664 620,-664 682,-664 682,-664 688,-664 694,-670 694,-676 694,-676 694,-688 694,-688 694,-694 688,-700 682,-700"/>
<text text-anchor="middle" x="651" y="-679.5" font-family="sans" font-size="10.00">samtools_sort</text>
</g>
<!-- 23&#45;&gt;20 -->
<g id="edge47" class="edge">
<title>23&#45;&gt;20</title>
<path fill="none" stroke="grey" stroke-width="2" d="M666.61,-663.77C674.37,-654.03 682.95,-641.18 687,-628 693.39,-607.21 686.69,-583.24 679.05,-565.43"/>
<polygon fill="grey" stroke="grey" stroke-width="2" points="682.16,-563.82 674.79,-556.22 675.81,-566.76 682.16,-563.82"/>
</g>
<!-- 24 -->
<g id="node25" class="node">
<title>24</title>
<path fill="none" stroke="#568ad8" stroke-width="2" d="M666,-628C666,-628 596,-628 596,-628 590,-628 584,-622 584,-616 584,-616 584,-604 584,-604 584,-598 590,-592 596,-592 596,-592 666,-592 666,-592 672,-592 678,-598 678,-604 678,-604 678,-616 678,-616 678,-622 672,-628 666,-628"/>
<text text-anchor="middle" x="631" y="-607.5" font-family="sans" font-size="10.00">samtools_index</text>
</g>
<!-- 23&#45;&gt;24 -->
<g id="edge53" class="edge">
<title>23&#45;&gt;24</title>
<path fill="none" stroke="grey" stroke-width="2" d="M646.06,-663.7C643.83,-655.9 641.15,-646.51 638.67,-637.83"/>
<polygon fill="grey" stroke="grey" stroke-width="2" points="642,-636.76 635.89,-628.1 635.27,-638.68 642,-636.76"/>
</g>
<!-- 24&#45;&gt;20 -->
<g id="edge49" class="edge">
<title>24&#45;&gt;20</title>
<path fill="none" stroke="grey" stroke-width="2" d="M639.4,-591.7C643.27,-583.73 647.95,-574.1 652.24,-565.26"/>
<polygon fill="grey" stroke="grey" stroke-width="2" points="655.47,-566.63 656.69,-556.1 649.17,-563.57 655.47,-566.63"/>
</g>
<!-- 25&#45;&gt;21 -->
<g id="edge50" class="edge">
<title>25&#45;&gt;21</title>
<path fill="none" stroke="grey" stroke-width="2" d="M246,-735.7C246,-727.98 246,-718.71 246,-710.11"/>
<polygon fill="grey" stroke="grey" stroke-width="2" points="249.5,-710.1 246,-700.1 242.5,-710.1 249.5,-710.1"/>
</g>
<!-- 26&#45;&gt;23 -->
<g id="edge52" class="edge">
<title>26&#45;&gt;23</title>
<path fill="none" stroke="grey" stroke-width="2" d="M651,-735.7C651,-727.98 651,-718.71 651,-710.11"/>
<polygon fill="grey" stroke="grey" stroke-width="2" points="654.5,-710.1 651,-700.1 647.5,-710.1 654.5,-710.1"/>
</g>
<!-- 27&#45;&gt;25 -->
<g id="edge54" class="edge">
<title>27&#45;&gt;25</title>
<path fill="none" stroke="grey" stroke-width="2" d="M277.62,-807.7C272.74,-799.56 266.81,-789.69 261.42,-780.7"/>
<polygon fill="grey" stroke="grey" stroke-width="2" points="264.41,-778.88 256.26,-772.1 258.41,-782.48 264.41,-778.88"/>
</g>
<!-- 28&#45;&gt;26 -->
<g id="edge56" class="edge">
<title>28&#45;&gt;26</title>
<path fill="none" stroke="grey" stroke-width="2" d="M597.55,-807.7C606.23,-799.14 616.86,-788.66 626.35,-779.3"/>
<polygon fill="grey" stroke="grey" stroke-width="2" points="628.99,-781.62 633.65,-772.1 624.07,-776.63 628.99,-781.62"/>
</g>
<!-- 29 -->
<g id="node30" class="node">
<title>29</title>
<path fill="none" stroke="#d8d356" stroke-width="2" d="M172,-916C172,-916 116,-916 116,-916 110,-916 104,-910 104,-904 104,-904 104,-892 104,-892 104,-886 110,-880 116,-880 116,-880 172,-880 172,-880 178,-880 184,-886 184,-892 184,-892 184,-904 184,-904 184,-910 178,-916 172,-916"/>
<text text-anchor="middle" x="144" y="-895.5" font-family="sans" font-size="10.00">trimmomatic</text>
</g>
<!-- 29&#45;&gt;27 -->
<g id="edge59" class="edge">
<title>29&#45;&gt;27</title>
<path fill="none" stroke="grey" stroke-width="2" d="M179.23,-879.88C198.95,-870.29 223.72,-858.25 244.63,-848.08"/>
<polygon fill="grey" stroke="grey" stroke-width="2" points="246.17,-851.23 253.63,-843.71 243.11,-844.93 246.17,-851.23"/>
</g>
<!-- 30&#45;&gt;27 -->
<g id="edge61" class="edge">
<title>30&#45;&gt;27</title>
<path fill="none" stroke="grey" stroke-width="2" d="M483.81,-882.64C480.83,-881.74 477.87,-880.85 475,-880 426.14,-865.53 369.86,-849.69 331.91,-839.13"/>
<polygon fill="grey" stroke="grey" stroke-width="2" points="332.77,-835.73 322.19,-836.43 330.89,-842.48 332.77,-835.73"/>
</g>
<!-- 30&#45;&gt;28 -->
<g id="edge66" class="edge">
<title>30&#45;&gt;28</title>
<path fill="none" stroke="grey" stroke-width="2" d="M542.36,-879.7C548.23,-871.47 555.37,-861.48 561.84,-852.42"/>
<polygon fill="grey" stroke="grey" stroke-width="2" points="564.82,-854.28 567.78,-844.1 559.12,-850.21 564.82,-854.28"/>
</g>
<!-- 31&#45;&gt;27 -->
<g id="edge62" class="edge">
<title>31&#45;&gt;27</title>
<path fill="none" stroke="grey" stroke-width="2" d="M403.83,-882.15C382.79,-872.14 354.73,-858.78 331.51,-847.72"/>
<polygon fill="grey" stroke="grey" stroke-width="2" points="332.74,-844.43 322.21,-843.29 329.73,-850.75 332.74,-844.43"/>
</g>
<!-- 31&#45;&gt;28 -->
<g id="edge67" class="edge">
<title>31&#45;&gt;28</title>
<path fill="none" stroke="grey" stroke-width="2" d="M466.11,-881.98C486.73,-872.03 514.08,-858.82 536.8,-847.85"/>
<polygon fill="grey" stroke="grey" stroke-width="2" points="538.42,-850.96 545.91,-843.46 535.38,-844.66 538.42,-850.96"/>
</g>
<!-- 32 -->
<g id="node33" class="node">
<title>32</title>
<path fill="none" stroke="#d8d356" stroke-width="2" d="M878,-916C878,-916 822,-916 822,-916 816,-916 810,-910 810,-904 810,-904 810,-892 810,-892 810,-886 816,-880 822,-880 822,-880 878,-880 878,-880 884,-880 890,-886 890,-892 890,-892 890,-904 890,-904 890,-910 884,-916 878,-916"/>
<text text-anchor="middle" x="850" y="-895.5" font-family="sans" font-size="10.00">trimmomatic</text>
</g>
<!-- 32&#45;&gt;28 -->
<g id="edge64" class="edge">
<title>32&#45;&gt;28</title>
<path fill="none" stroke="grey" stroke-width="2" d="M809.87,-886.6C760.15,-873.71 675.72,-851.82 624.2,-838.46"/>
<polygon fill="grey" stroke="grey" stroke-width="2" points="624.91,-835.03 614.35,-835.91 623.15,-841.8 624.91,-835.03"/>
</g>
<!-- 33 -->
<g id="node34" class="node">
<title>33</title>
<path fill="none" stroke="#61d856" stroke-width="2" d="M164.5,-988C164.5,-988 123.5,-988 123.5,-988 117.5,-988 111.5,-982 111.5,-976 111.5,-976 111.5,-964 111.5,-964 111.5,-958 117.5,-952 123.5,-952 123.5,-952 164.5,-952 164.5,-952 170.5,-952 176.5,-958 176.5,-964 176.5,-964 176.5,-976 176.5,-976 176.5,-982 170.5,-988 164.5,-988"/>
<text text-anchor="middle" x="144" y="-973" font-family="sans" font-size="10.00">cp_reads</text>
<text text-anchor="middle" x="144" y="-962" font-family="sans" font-size="10.00">library: L1</text>
</g>
<!-- 33&#45;&gt;29 -->
<g id="edge68" class="edge">
<title>33&#45;&gt;29</title>
<path fill="none" stroke="grey" stroke-width="2" d="M144,-951.7C144,-943.98 144,-934.71 144,-926.11"/>
<polygon fill="grey" stroke="grey" stroke-width="2" points="147.5,-926.1 144,-916.1 140.5,-926.1 147.5,-926.1"/>
</g>
<!-- 34 -->
<g id="node35" class="node">
<title>34</title>
<path fill="none" stroke="#61d856" stroke-width="2" d="M870.5,-988C870.5,-988 829.5,-988 829.5,-988 823.5,-988 817.5,-982 817.5,-976 817.5,-976 817.5,-964 817.5,-964 817.5,-958 823.5,-952 829.5,-952 829.5,-952 870.5,-952 870.5,-952 876.5,-952 882.5,-958 882.5,-964 882.5,-964 882.5,-976 882.5,-976 882.5,-982 876.5,-988 870.5,-988"/>
<text text-anchor="middle" x="850" y="-973" font-family="sans" font-size="10.00">cp_reads</text>
<text text-anchor="middle" x="850" y="-962" font-family="sans" font-size="10.00">library: L2</text>
</g>
<!-- 34&#45;&gt;32 -->
<g id="edge71" class="edge">
<title>34&#45;&gt;32</title>
<path fill="none" stroke="grey" stroke-width="2" d="M850,-951.7C850,-943.98 850,-934.71 850,-926.11"/>
<polygon fill="grey" stroke="grey" stroke-width="2" points="853.5,-926.1 850,-916.1 846.5,-926.1 853.5,-926.1"/>
</g>
</g>
</svg>
