<?xml version="1.0" encoding="UTF-8" standalone="no"?>
<!DOCTYPE svg PUBLIC "-//W3C//DTD SVG 1.1//EN"
 "http://www.w3.org/Graphics/SVG/1.1/DTD/svg11.dtd">
<!-- Generated by graphviz version 2.43.0 (0)
 -->
<!-- Title: snakemake_dag Pages: 1 -->
<svg width="489pt" height="620pt"
 viewBox="0.00 0.00 489.00 620.00" xmlns="http://www.w3.org/2000/svg" xmlns:xlink="http://www.w3.org/1999/xlink">
<g id="graph0" class="graph" transform="scale(1 1) rotate(0) translate(4 616)">
<title>snakemake_dag</title>
<polygon fill="white" stroke="transparent" points="-4,4 -4,-616 485,-616 485,4 -4,4"/>
<!-- 0 -->
<g id="node1" class="node">
<title>0</title>
<path fill="none" stroke="#97d856" stroke-width="2" d="M307,-36C307,-36 277,-36 277,-36 271,-36 265,-30 265,-24 265,-24 265,-12 265,-12 265,-6 271,0 277,0 277,0 307,0 307,0 313,0 319,-6 319,-12 319,-12 319,-24 319,-24 319,-30 313,-36 307,-36"/>
<text text-anchor="middle" x="292" y="-15.5" font-family="sans" font-size="10.00">all</text>
</g>
<!-- 1 -->
<g id="node2" class="node">
<title>1</title>
<path fill="none" stroke="#56d8d8" stroke-width="2" d="M304.5,-252C304.5,-252 209.5,-252 209.5,-252 203.5,-252 197.5,-246 197.5,-240 197.5,-240 197.5,-228 197.5,-228 197.5,-222 203.5,-216 209.5,-216 209.5,-216 304.5,-216 304.5,-216 310.5,-216 316.5,-222 316.5,-228 316.5,-228 316.5,-240 316.5,-240 316.5,-246 310.5,-252 304.5,-252"/>
<text text-anchor="middle" x="257" y="-231.5" font-family="sans" font-size="10.00">gatk_markduplicates</text>
</g>
<!-- 1&#45;&gt;0 -->
<g id="edge1" class="edge">
<title>1&#45;&gt;0</title>
<path fill="none" stroke="grey" stroke-width="2" d="M316.79,-218.78C336.9,-210.84 357.21,-198.63 369,-180 398,-134.2 351.39,-75.79 318.97,-43.41"/>
<polygon fill="grey" stroke="grey" stroke-width="2" points="321.11,-40.6 311.5,-36.14 316.23,-45.62 321.11,-40.6"/>
</g>
<!-- 2 -->
<g id="node3" class="node">
<title>2</title>
<path fill="none" stroke="#56b9d8" stroke-width="2" d="M212,-108C212,-108 182,-108 182,-108 176,-108 170,-102 170,-96 170,-96 170,-84 170,-84 170,-78 176,-72 182,-72 182,-72 212,-72 212,-72 218,-72 224,-78 224,-84 224,-84 224,-96 224,-96 224,-102 218,-108 212,-108"/>
<text text-anchor="middle" x="197" y="-87.5" font-family="sans" font-size="10.00">multiqc</text>
</g>
<!-- 1&#45;&gt;2 -->
<g id="edge9" class="edge">
<title>1&#45;&gt;2</title>
<path fill="none" stroke="grey" stroke-width="2" d="M216.82,-215.77C202.17,-207.28 187.2,-195.48 179,-180 168.68,-160.51 175.01,-135.76 182.88,-117.3"/>
<polygon fill="grey" stroke="grey" stroke-width="2" points="186.15,-118.57 187.18,-108.03 179.8,-115.63 186.15,-118.57"/>
</g>
<!-- 7 -->
<g id="node8" class="node">
<title>7</title>
<path fill="none" stroke="#569ad8" stroke-width="2" d="M267.5,-180C267.5,-180 200.5,-180 200.5,-180 194.5,-180 188.5,-174 188.5,-168 188.5,-168 188.5,-156 188.5,-156 188.5,-150 194.5,-144 200.5,-144 200.5,-144 267.5,-144 267.5,-144 273.5,-144 279.5,-150 279.5,-156 279.5,-156 279.5,-168 279.5,-168 279.5,-174 273.5,-180 267.5,-180"/>
<text text-anchor="middle" x="234" y="-159.5" font-family="sans" font-size="10.00">samtools_stats</text>
</g>
<!-- 1&#45;&gt;7 -->
<g id="edge14" class="edge">
<title>1&#45;&gt;7</title>
<path fill="none" stroke="grey" stroke-width="2" d="M251.31,-215.7C248.75,-207.9 245.67,-198.51 242.82,-189.83"/>
<polygon fill="grey" stroke="grey" stroke-width="2" points="246.07,-188.51 239.62,-180.1 239.42,-190.7 246.07,-188.51"/>
</g>
<!-- 8 -->
<g id="node9" class="node">
<title>8</title>
<path fill="none" stroke="#78d856" stroke-width="2" d="M348,-180C348,-180 310,-180 310,-180 304,-180 298,-174 298,-168 298,-168 298,-156 298,-156 298,-150 304,-144 310,-144 310,-144 348,-144 348,-144 354,-144 360,-150 360,-156 360,-156 360,-168 360,-168 360,-174 354,-180 348,-180"/>
<text text-anchor="middle" x="329" y="-159.5" font-family="sans" font-size="10.00">qualimap</text>
</g>
<!-- 1&#45;&gt;8 -->
<g id="edge15" class="edge">
<title>1&#45;&gt;8</title>
<path fill="none" stroke="grey" stroke-width="2" d="M274.8,-215.7C283.6,-207.14 294.38,-196.66 304,-187.3"/>
<polygon fill="grey" stroke="grey" stroke-width="2" points="306.68,-189.58 311.41,-180.1 301.8,-184.57 306.68,-189.58"/>
</g>
<!-- 2&#45;&gt;0 -->
<g id="edge2" class="edge">
<title>2&#45;&gt;0</title>
<path fill="none" stroke="grey" stroke-width="2" d="M220.48,-71.7C232.56,-62.8 247.45,-51.82 260.52,-42.2"/>
<polygon fill="grey" stroke="grey" stroke-width="2" points="262.81,-44.85 268.79,-36.1 258.66,-39.22 262.81,-44.85"/>
</g>
<!-- 3 -->
<g id="node4" class="node">
<title>3</title>
<path fill="none" stroke="#56d8b9" stroke-width="2" d="M287,-396C287,-396 225,-396 225,-396 219,-396 213,-390 213,-384 213,-384 213,-372 213,-372 213,-366 219,-360 225,-360 225,-360 287,-360 287,-360 293,-360 299,-366 299,-372 299,-372 299,-384 299,-384 299,-390 293,-396 287,-396"/>
<text text-anchor="middle" x="256" y="-375.5" font-family="sans" font-size="10.00">samtools_sort</text>
</g>
<!-- 3&#45;&gt;1 -->
<g id="edge3" class="edge">
<title>3&#45;&gt;1</title>
<path fill="none" stroke="grey" stroke-width="2" d="M244.11,-359.72C237.99,-349.76 231.16,-336.73 228,-324 224.15,-308.47 224.04,-303.5 228,-288 230.38,-278.7 234.76,-269.27 239.42,-261"/>
<polygon fill="grey" stroke="grey" stroke-width="2" points="242.54,-262.59 244.69,-252.22 236.54,-258.99 242.54,-262.59"/>
</g>
<!-- 4 -->
<g id="node5" class="node">
<title>4</title>
<path fill="none" stroke="#d85656" stroke-width="2" d="M319,-324C319,-324 249,-324 249,-324 243,-324 237,-318 237,-312 237,-312 237,-300 237,-300 237,-294 243,-288 249,-288 249,-288 319,-288 319,-288 325,-288 331,-294 331,-300 331,-300 331,-312 331,-312 331,-318 325,-324 319,-324"/>
<text text-anchor="middle" x="284" y="-303.5" font-family="sans" font-size="10.00">samtools_index</text>
</g>
<!-- 3&#45;&gt;4 -->
<g id="edge11" class="edge">
<title>3&#45;&gt;4</title>
<path fill="none" stroke="grey" stroke-width="2" d="M262.92,-359.7C266.07,-351.81 269.88,-342.3 273.38,-333.55"/>
<polygon fill="grey" stroke="grey" stroke-width="2" points="276.69,-334.69 277.16,-324.1 270.19,-332.09 276.69,-334.69"/>
</g>
<!-- 4&#45;&gt;1 -->
<g id="edge4" class="edge">
<title>4&#45;&gt;1</title>
<path fill="none" stroke="grey" stroke-width="2" d="M277.33,-287.7C274.29,-279.81 270.62,-270.3 267.24,-261.55"/>
<polygon fill="grey" stroke="grey" stroke-width="2" points="270.46,-260.17 263.6,-252.1 263.93,-262.69 270.46,-260.17"/>
</g>
<!-- 5 -->
<g id="node6" class="node">
<title>5</title>
<path fill="none" stroke="#59d856" stroke-width="2" d="M76,-468C76,-468 46,-468 46,-468 40,-468 34,-462 34,-456 34,-456 34,-444 34,-444 34,-438 40,-432 46,-432 46,-432 76,-432 76,-432 82,-432 88,-438 88,-444 88,-444 88,-456 88,-456 88,-462 82,-468 76,-468"/>
<text text-anchor="middle" x="61" y="-447.5" font-family="sans" font-size="10.00">fastqc</text>
</g>
<!-- 5&#45;&gt;2 -->
<g id="edge5" class="edge">
<title>5&#45;&gt;2</title>
<path fill="none" stroke="grey" stroke-width="2" d="M63.37,-431.99C66.87,-405.38 73,-352.28 73,-307 73,-307 73,-307 73,-233 73,-190.5 80.48,-176.39 108,-144 121.95,-127.58 142.34,-114.92 160.08,-106.1"/>
<polygon fill="grey" stroke="grey" stroke-width="2" points="162.06,-109.03 169.61,-101.59 159.07,-102.7 162.06,-109.03"/>
</g>
<!-- 6 -->
<g id="node7" class="node">
<title>6</title>
<path fill="none" stroke="#d89556" stroke-width="2" d="M153,-540C153,-540 97,-540 97,-540 91,-540 85,-534 85,-528 85,-528 85,-516 85,-516 85,-510 91,-504 97,-504 97,-504 153,-504 153,-504 159,-504 165,-510 165,-516 165,-516 165,-528 165,-528 165,-534 159,-540 153,-540"/>
<text text-anchor="middle" x="125" y="-519.5" font-family="sans" font-size="10.00">trimmomatic</text>
</g>
<!-- 6&#45;&gt;2 -->
<g id="edge6" class="edge">
<title>6&#45;&gt;2</title>
<path fill="none" stroke="grey" stroke-width="2" d="M124.41,-503.95C123.53,-477.3 122,-424.12 122,-379 122,-379 122,-379 122,-233 122,-187.77 152.12,-142.85 174.18,-116"/>
<polygon fill="grey" stroke="grey" stroke-width="2" points="176.94,-118.16 180.73,-108.27 171.59,-113.64 176.94,-118.16"/>
</g>
<!-- 9 -->
<g id="node10" class="node">
<title>9</title>
<path fill="none" stroke="#d87556" stroke-width="2" d="M278,-468C278,-468 234,-468 234,-468 228,-468 222,-462 222,-456 222,-456 222,-444 222,-444 222,-438 228,-432 234,-432 234,-432 278,-432 278,-432 284,-432 290,-438 290,-444 290,-444 290,-456 290,-456 290,-462 284,-468 278,-468"/>
<text text-anchor="middle" x="256" y="-447.5" font-family="sans" font-size="10.00">bwa_mem</text>
</g>
<!-- 6&#45;&gt;9 -->
<g id="edge17" class="edge">
<title>6&#45;&gt;9</title>
<path fill="none" stroke="grey" stroke-width="2" d="M157.05,-503.88C174.49,-494.55 196.27,-482.92 214.94,-472.94"/>
<polygon fill="grey" stroke="grey" stroke-width="2" points="216.66,-475.99 223.83,-468.19 213.36,-469.82 216.66,-475.99"/>
</g>
<!-- 7&#45;&gt;2 -->
<g id="edge7" class="edge">
<title>7&#45;&gt;2</title>
<path fill="none" stroke="grey" stroke-width="2" d="M224.85,-143.7C220.6,-135.64 215.44,-125.89 210.73,-116.98"/>
<polygon fill="grey" stroke="grey" stroke-width="2" points="213.81,-115.31 206.04,-108.1 207.62,-118.58 213.81,-115.31"/>
</g>
<!-- 8&#45;&gt;2 -->
<g id="edge8" class="edge">
<title>8&#45;&gt;2</title>
<path fill="none" stroke="grey" stroke-width="2" d="M297.72,-144.41C278.28,-134.1 253.23,-120.82 232.97,-110.08"/>
<polygon fill="grey" stroke="grey" stroke-width="2" points="234.51,-106.93 224.04,-105.34 231.23,-113.12 234.51,-106.93"/>
</g>
<!-- 9&#45;&gt;3 -->
<g id="edge10" class="edge">
<title>9&#45;&gt;3</title>
<path fill="none" stroke="grey" stroke-width="2" d="M256,-431.7C256,-423.98 256,-414.71 256,-406.11"/>
<polygon fill="grey" stroke="grey" stroke-width="2" points="259.5,-406.1 256,-396.1 252.5,-406.1 259.5,-406.1"/>
</g>
<!-- 10 -->
<g id="node11" class="node">
<title>10</title>
<path fill="none" stroke="#567bd8" stroke-width="2" d="M190,-612C190,-612 12,-612 12,-612 6,-612 0,-606 0,-600 0,-600 0,-588 0,-588 0,-582 6,-576 12,-576 12,-576 190,-576 190,-576 196,-576 202,-582 202,-588 202,-588 202,-600 202,-600 202,-606 196,-612 190,-612"/>
<text text-anchor="middle" x="101" y="-597" font-family="sans" font-size="10.00">cp_reads</text>
<text text-anchor="middle" x="101" y="-586" font-family="sans" font-size="10.00">library: N100_R2_AF0.6_NR7000_base</text>
</g>
<!-- 10&#45;&gt;5 -->
<g id="edge12" class="edge">
<title>10&#45;&gt;5</title>
<path fill="none" stroke="grey" stroke-width="2" d="M91.42,-575.82C86.15,-565.68 79.9,-552.43 76,-540 69.64,-519.72 65.81,-495.95 63.61,-478.08"/>
<polygon fill="grey" stroke="grey" stroke-width="2" points="67.08,-477.6 62.47,-468.05 60.13,-478.39 67.08,-477.6"/>
</g>
<!-- 10&#45;&gt;6 -->
<g id="edge13" class="edge">
<title>10&#45;&gt;6</title>
<path fill="none" stroke="grey" stroke-width="2" d="M106.93,-575.7C109.61,-567.9 112.83,-558.51 115.8,-549.83"/>
<polygon fill="grey" stroke="grey" stroke-width="2" points="119.2,-550.7 119.14,-540.1 112.58,-548.43 119.2,-550.7"/>
</g>
<!-- 11 -->
<g id="node12" class="node">
<title>11</title>
<path fill="none" stroke="#d6d856" stroke-width="2" d="M308,-612C308,-612 252,-612 252,-612 246,-612 240,-606 240,-600 240,-600 240,-588 240,-588 240,-582 246,-576 252,-576 252,-576 308,-576 308,-576 314,-576 320,-582 320,-588 320,-588 320,-600 320,-600 320,-606 314,-612 308,-612"/>
<text text-anchor="middle" x="280" y="-591.5" font-family="sans" font-size="10.00">cp_reference</text>
</g>
<!-- 11&#45;&gt;9 -->
<g id="edge16" class="edge">
<title>11&#45;&gt;9</title>
<path fill="none" stroke="grey" stroke-width="2" d="M246.64,-575.86C233.29,-567.09 219.36,-555.06 212,-540 204.98,-525.62 206.57,-519.05 212,-504 215.75,-493.6 222.54,-483.8 229.67,-475.52"/>
<polygon fill="grey" stroke="grey" stroke-width="2" points="232.32,-477.81 236.53,-468.08 227.17,-473.06 232.32,-477.81"/>
</g>
<!-- 12 -->
<g id="node13" class="node">
<title>12</title>
<path fill="none" stroke="#56d89a" stroke-width="2" d="M278.5,-540C278.5,-540 233.5,-540 233.5,-540 227.5,-540 221.5,-534 221.5,-528 221.5,-528 221.5,-516 221.5,-516 221.5,-510 227.5,-504 233.5,-504 233.5,-504 278.5,-504 278.5,-504 284.5,-504 290.5,-510 290.5,-516 290.5,-516 290.5,-528 290.5,-528 290.5,-534 284.5,-540 278.5,-540"/>
<text text-anchor="middle" x="256" y="-519.5" font-family="sans" font-size="10.00">bwa_index</text>
</g>
<!-- 11&#45;&gt;12 -->
<g id="edge21" class="edge">
<title>11&#45;&gt;12</title>
<path fill="none" stroke="grey" stroke-width="2" d="M274.07,-575.7C271.39,-567.9 268.17,-558.51 265.2,-549.83"/>
<polygon fill="grey" stroke="grey" stroke-width="2" points="268.42,-548.43 261.86,-540.1 261.8,-550.7 268.42,-548.43"/>
</g>
<!-- 13 -->
<g id="node14" class="node">
<title>13</title>
<path fill="none" stroke="#d8b456" stroke-width="2" d="M389,-540C389,-540 321,-540 321,-540 315,-540 309,-534 309,-528 309,-528 309,-516 309,-516 309,-510 315,-504 321,-504 321,-504 389,-504 389,-504 395,-504 401,-510 401,-516 401,-516 401,-528 401,-528 401,-534 395,-540 389,-540"/>
<text text-anchor="middle" x="355" y="-519.5" font-family="sans" font-size="10.00">samtools_faidx</text>
</g>
<!-- 11&#45;&gt;13 -->
<g id="edge22" class="edge">
<title>11&#45;&gt;13</title>
<path fill="none" stroke="grey" stroke-width="2" d="M298.54,-575.7C307.8,-567.05 319.16,-556.45 329.26,-547.03"/>
<polygon fill="grey" stroke="grey" stroke-width="2" points="331.75,-549.49 336.67,-540.1 326.98,-544.37 331.75,-549.49"/>
</g>
<!-- 14 -->
<g id="node15" class="node">
<title>14</title>
<path fill="none" stroke="#b6d856" stroke-width="2" d="M469,-540C469,-540 431,-540 431,-540 425,-540 419,-534 419,-528 419,-528 419,-516 419,-516 419,-510 425,-504 431,-504 431,-504 469,-504 469,-504 475,-504 481,-510 481,-516 481,-516 481,-528 481,-528 481,-534 475,-540 469,-540"/>
<text text-anchor="middle" x="450" y="-519.5" font-family="sans" font-size="10.00">gatk_dict</text>
</g>
<!-- 11&#45;&gt;14 -->
<g id="edge23" class="edge">
<title>11&#45;&gt;14</title>
<path fill="none" stroke="grey" stroke-width="2" d="M320.18,-576.8C343.79,-567.24 374.43,-554.76 409.17,-540.32"/>
<polygon fill="grey" stroke="grey" stroke-width="2" points="410.69,-543.48 418.58,-536.41 408,-537.02 410.69,-543.48"/>
</g>
<!-- 12&#45;&gt;9 -->
<g id="edge18" class="edge">
<title>12&#45;&gt;9</title>
<path fill="none" stroke="grey" stroke-width="2" d="M256,-503.7C256,-495.98 256,-486.71 256,-478.11"/>
<polygon fill="grey" stroke="grey" stroke-width="2" points="259.5,-478.1 256,-468.1 252.5,-478.1 259.5,-478.1"/>
</g>
<!-- 13&#45;&gt;9 -->
<g id="edge19" class="edge">
<title>13&#45;&gt;9</title>
<path fill="none" stroke="grey" stroke-width="2" d="M330.78,-503.88C318.08,-494.89 302.34,-483.76 288.58,-474.03"/>
<polygon fill="grey" stroke="grey" stroke-width="2" points="290.5,-471.11 280.31,-468.19 286.46,-476.82 290.5,-471.11"/>
</g>
<!-- 14&#45;&gt;9 -->
<g id="edge20" class="edge">
<title>14&#45;&gt;9</title>
<path fill="none" stroke="grey" stroke-width="2" d="M418.64,-507.43C415.73,-506.24 412.82,-505.08 410,-504 373.2,-489.87 330.81,-475.41 299.83,-465.17"/>
<polygon fill="grey" stroke="grey" stroke-width="2" points="300.79,-461.8 290.2,-462 298.6,-468.45 300.79,-461.8"/>
</g>
</g>
</svg>
