<?xml version="1.0" encoding="UTF-8" standalone="no"?>
<!DOCTYPE svg PUBLIC "-//W3C//DTD SVG 1.1//EN"
 "http://www.w3.org/Graphics/SVG/1.1/DTD/svg11.dtd">
<!-- Generated by graphviz version 2.43.0 (0)
 -->
<!-- Title: snakemake_dag Pages: 1 -->
<svg width="864pt" height="476pt"
 viewBox="0.00 0.00 863.50 476.00" xmlns="http://www.w3.org/2000/svg" xmlns:xlink="http://www.w3.org/1999/xlink">
<g id="graph0" class="graph" transform="scale(1 1) rotate(0) translate(4 472)">
<title>snakemake_dag</title>
<polygon fill="white" stroke="transparent" points="-4,4 -4,-472 859.5,-472 859.5,4 -4,4"/>
<!-- 0 -->
<g id="node1" class="node">
<title>0</title>
<path fill="none" stroke="#56a9d8" stroke-width="2" stroke-dasharray="5,2" d="M460,-36C460,-36 430,-36 430,-36 424,-36 418,-30 418,-24 418,-24 418,-12 418,-12 418,-6 424,0 430,0 430,0 460,0 460,0 466,0 472,-6 472,-12 472,-12 472,-24 472,-24 472,-30 466,-36 460,-36"/>
<text text-anchor="middle" x="445" y="-15.5" font-family="sans" font-size="10.00">all</text>
</g>
<!-- 1 -->
<g id="node2" class="node">
<title>1</title>
<path fill="none" stroke="#5682d8" stroke-width="2" stroke-dasharray="5,2" d="M126,-108C126,-108 96,-108 96,-108 90,-108 84,-102 84,-96 84,-96 84,-84 84,-84 84,-78 90,-72 96,-72 96,-72 126,-72 126,-72 132,-72 138,-78 138,-84 138,-84 138,-96 138,-96 138,-102 132,-108 126,-108"/>
<text text-anchor="middle" x="111" y="-87.5" font-family="sans" font-size="10.00">multiqc</text>
</g>
<!-- 1&#45;&gt;0 -->
<g id="edge1" class="edge">
<title>1&#45;&gt;0</title>
<path fill="none" stroke="grey" stroke-width="2" d="M138.21,-75.23C141.14,-74.03 144.1,-72.92 147,-72 238.2,-42.93 350.5,-28.39 407.69,-22.43"/>
<polygon fill="grey" stroke="grey" stroke-width="2" points="408.11,-25.9 417.71,-21.41 407.41,-18.94 408.11,-25.9"/>
</g>
<!-- 2 -->
<g id="node3" class="node">
<title>2</title>
<path fill="none" stroke="#afd856" stroke-width="2" stroke-dasharray="5,2" d="M375.5,-180C375.5,-180 280.5,-180 280.5,-180 274.5,-180 268.5,-174 268.5,-168 268.5,-168 268.5,-156 268.5,-156 268.5,-150 274.5,-144 280.5,-144 280.5,-144 375.5,-144 375.5,-144 381.5,-144 387.5,-150 387.5,-156 387.5,-156 387.5,-168 387.5,-168 387.5,-174 381.5,-180 375.5,-180"/>
<text text-anchor="middle" x="328" y="-159.5" font-family="sans" font-size="10.00">gatk_markduplicates</text>
</g>
<!-- 2&#45;&gt;0 -->
<g id="edge2" class="edge">
<title>2&#45;&gt;0</title>
<path fill="none" stroke="grey" stroke-width="2" d="M297.7,-143.8C285.12,-134.9 271.88,-122.77 265,-108 258.25,-93.49 255.42,-84.81 265,-72 282.13,-49.09 360.47,-32.67 407.97,-24.62"/>
<polygon fill="grey" stroke="grey" stroke-width="2" points="408.6,-28.06 417.89,-22.98 407.46,-21.16 408.6,-28.06"/>
</g>
<!-- 3 -->
<g id="node4" class="node">
<title>3</title>
<path fill="none" stroke="#d6d856" stroke-width="2" stroke-dasharray="5,2" d="M369.5,-108C369.5,-108 286.5,-108 286.5,-108 280.5,-108 274.5,-102 274.5,-96 274.5,-96 274.5,-84 274.5,-84 274.5,-78 280.5,-72 286.5,-72 286.5,-72 369.5,-72 369.5,-72 375.5,-72 381.5,-78 381.5,-84 381.5,-84 381.5,-96 381.5,-96 381.5,-102 375.5,-108 369.5,-108"/>
<text text-anchor="middle" x="328" y="-93" font-family="sans" font-size="10.00">samtools_index</text>
<text text-anchor="middle" x="328" y="-82" font-family="sans" font-size="10.00">sample: base1.md</text>
</g>
<!-- 2&#45;&gt;3 -->
<g id="edge14" class="edge">
<title>2&#45;&gt;3</title>
<path fill="none" stroke="grey" stroke-width="2" d="M328,-143.7C328,-135.98 328,-126.71 328,-118.11"/>
<polygon fill="grey" stroke="grey" stroke-width="2" points="331.5,-118.1 328,-108.1 324.5,-118.1 331.5,-118.1"/>
</g>
<!-- 4 -->
<g id="node5" class="node">
<title>4</title>
<path fill="none" stroke="#59d856" stroke-width="2" stroke-dasharray="5,2" d="M478.5,-108C478.5,-108 411.5,-108 411.5,-108 405.5,-108 399.5,-102 399.5,-96 399.5,-96 399.5,-84 399.5,-84 399.5,-78 405.5,-72 411.5,-72 411.5,-72 478.5,-72 478.5,-72 484.5,-72 490.5,-78 490.5,-84 490.5,-84 490.5,-96 490.5,-96 490.5,-102 484.5,-108 478.5,-108"/>
<text text-anchor="middle" x="445" y="-87.5" font-family="sans" font-size="10.00">samtools_stats</text>
</g>
<!-- 2&#45;&gt;4 -->
<g id="edge15" class="edge">
<title>2&#45;&gt;4</title>
<path fill="none" stroke="grey" stroke-width="2" d="M356.62,-143.88C371.92,-134.72 390.94,-123.34 407.42,-113.48"/>
<polygon fill="grey" stroke="grey" stroke-width="2" points="409.48,-116.33 416.27,-108.19 405.89,-110.32 409.48,-116.33"/>
</g>
<!-- 5 -->
<g id="node6" class="node">
<title>5</title>
<path fill="none" stroke="#56d8d8" stroke-width="2" stroke-dasharray="5,2" d="M206,-108C206,-108 168,-108 168,-108 162,-108 156,-102 156,-96 156,-96 156,-84 156,-84 156,-78 162,-72 168,-72 168,-72 206,-72 206,-72 212,-72 218,-78 218,-84 218,-84 218,-96 218,-96 218,-102 212,-108 206,-108"/>
<text text-anchor="middle" x="187" y="-87.5" font-family="sans" font-size="10.00">qualimap</text>
</g>
<!-- 2&#45;&gt;5 -->
<g id="edge16" class="edge">
<title>2&#45;&gt;5</title>
<path fill="none" stroke="grey" stroke-width="2" d="M293.51,-143.88C273.48,-133.93 248.15,-121.36 227.22,-110.97"/>
<polygon fill="grey" stroke="grey" stroke-width="2" points="228.76,-107.83 218.25,-106.51 225.65,-114.1 228.76,-107.83"/>
</g>
<!-- 3&#45;&gt;0 -->
<g id="edge3" class="edge">
<title>3&#45;&gt;0</title>
<path fill="none" stroke="grey" stroke-width="2" d="M356.62,-71.88C372.38,-62.45 392.08,-50.66 408.89,-40.61"/>
<polygon fill="grey" stroke="grey" stroke-width="2" points="411.1,-43.36 417.88,-35.23 407.5,-37.36 411.1,-43.36"/>
</g>
<!-- 4&#45;&gt;0 -->
<g id="edge4" class="edge">
<title>4&#45;&gt;0</title>
<path fill="none" stroke="grey" stroke-width="2" d="M445,-71.7C445,-63.98 445,-54.71 445,-46.11"/>
<polygon fill="grey" stroke="grey" stroke-width="2" points="448.5,-46.1 445,-36.1 441.5,-46.1 448.5,-46.1"/>
</g>
<!-- 5&#45;&gt;0 -->
<g id="edge5" class="edge">
<title>5&#45;&gt;0</title>
<path fill="none" stroke="grey" stroke-width="2" d="M218.31,-76.64C222.87,-74.99 227.54,-73.39 232,-72 292.83,-53.02 365.07,-36.22 407.86,-26.85"/>
<polygon fill="grey" stroke="grey" stroke-width="2" points="408.79,-30.23 417.82,-24.69 407.3,-23.39 408.79,-30.23"/>
</g>
<!-- 6 -->
<g id="node7" class="node">
<title>6</title>
<path fill="none" stroke="#afd856" stroke-width="2" stroke-dasharray="5,2" d="M646.5,-180C646.5,-180 551.5,-180 551.5,-180 545.5,-180 539.5,-174 539.5,-168 539.5,-168 539.5,-156 539.5,-156 539.5,-150 545.5,-144 551.5,-144 551.5,-144 646.5,-144 646.5,-144 652.5,-144 658.5,-150 658.5,-156 658.5,-156 658.5,-168 658.5,-168 658.5,-174 652.5,-180 646.5,-180"/>
<text text-anchor="middle" x="599" y="-159.5" font-family="sans" font-size="10.00">gatk_markduplicates</text>
</g>
<!-- 6&#45;&gt;0 -->
<g id="edge6" class="edge">
<title>6&#45;&gt;0</title>
<path fill="none" stroke="grey" stroke-width="2" d="M599.9,-143.86C599.99,-124.24 597.17,-92.24 580,-72 555.41,-43.02 512.89,-29.79 482.13,-23.81"/>
<polygon fill="grey" stroke="grey" stroke-width="2" points="482.65,-20.35 472.19,-22.05 481.42,-27.24 482.65,-20.35"/>
</g>
<!-- 7 -->
<g id="node8" class="node">
<title>7</title>
<path fill="none" stroke="#d6d856" stroke-width="2" stroke-dasharray="5,2" d="M734.5,-108C734.5,-108 639.5,-108 639.5,-108 633.5,-108 627.5,-102 627.5,-96 627.5,-96 627.5,-84 627.5,-84 627.5,-78 633.5,-72 639.5,-72 639.5,-72 734.5,-72 734.5,-72 740.5,-72 746.5,-78 746.5,-84 746.5,-84 746.5,-96 746.5,-96 746.5,-102 740.5,-108 734.5,-108"/>
<text text-anchor="middle" x="687" y="-93" font-family="sans" font-size="10.00">samtools_index</text>
<text text-anchor="middle" x="687" y="-82" font-family="sans" font-size="10.00">sample: mutated.md</text>
</g>
<!-- 6&#45;&gt;7 -->
<g id="edge19" class="edge">
<title>6&#45;&gt;7</title>
<path fill="none" stroke="grey" stroke-width="2" d="M620.75,-143.7C631.84,-134.88 645.47,-124.03 657.49,-114.47"/>
<polygon fill="grey" stroke="grey" stroke-width="2" points="659.85,-117.07 665.5,-108.1 655.49,-111.59 659.85,-117.07"/>
</g>
<!-- 8 -->
<g id="node9" class="node">
<title>8</title>
<path fill="none" stroke="#59d856" stroke-width="2" stroke-dasharray="5,2" d="M843.5,-108C843.5,-108 776.5,-108 776.5,-108 770.5,-108 764.5,-102 764.5,-96 764.5,-96 764.5,-84 764.5,-84 764.5,-78 770.5,-72 776.5,-72 776.5,-72 843.5,-72 843.5,-72 849.5,-72 855.5,-78 855.5,-84 855.5,-84 855.5,-96 855.5,-96 855.5,-102 849.5,-108 843.5,-108"/>
<text text-anchor="middle" x="810" y="-87.5" font-family="sans" font-size="10.00">samtools_stats</text>
</g>
<!-- 6&#45;&gt;8 -->
<g id="edge20" class="edge">
<title>6&#45;&gt;8</title>
<path fill="none" stroke="grey" stroke-width="2" d="M650.35,-143.97C681.85,-133.51 722.2,-120.13 754.45,-109.43"/>
<polygon fill="grey" stroke="grey" stroke-width="2" points="755.79,-112.67 764.18,-106.2 753.59,-106.03 755.79,-112.67"/>
</g>
<!-- 9 -->
<g id="node10" class="node">
<title>9</title>
<path fill="none" stroke="#56d8d8" stroke-width="2" stroke-dasharray="5,2" d="M559,-108C559,-108 521,-108 521,-108 515,-108 509,-102 509,-96 509,-96 509,-84 509,-84 509,-78 515,-72 521,-72 521,-72 559,-72 559,-72 565,-72 571,-78 571,-84 571,-84 571,-96 571,-96 571,-102 565,-108 559,-108"/>
<text text-anchor="middle" x="540" y="-87.5" font-family="sans" font-size="10.00">qualimap</text>
</g>
<!-- 6&#45;&gt;9 -->
<g id="edge21" class="edge">
<title>6&#45;&gt;9</title>
<path fill="none" stroke="grey" stroke-width="2" d="M584.42,-143.7C577.34,-135.3 568.72,-125.07 560.95,-115.86"/>
<polygon fill="grey" stroke="grey" stroke-width="2" points="563.54,-113.49 554.42,-108.1 558.19,-118.01 563.54,-113.49"/>
</g>
<!-- 7&#45;&gt;0 -->
<g id="edge7" class="edge">
<title>7&#45;&gt;0</title>
<path fill="none" stroke="grey" stroke-width="2" d="M628.11,-71.97C582.52,-58.78 520.78,-40.92 481.92,-29.68"/>
<polygon fill="grey" stroke="grey" stroke-width="2" points="482.66,-26.25 472.08,-26.83 480.72,-32.97 482.66,-26.25"/>
</g>
<!-- 8&#45;&gt;0 -->
<g id="edge8" class="edge">
<title>8&#45;&gt;0</title>
<path fill="none" stroke="grey" stroke-width="2" d="M764.46,-74.18C761.61,-73.4 758.77,-72.67 756,-72 658.31,-48.41 540.89,-31.41 482.21,-23.67"/>
<polygon fill="grey" stroke="grey" stroke-width="2" points="482.66,-20.2 472.29,-22.38 481.76,-27.14 482.66,-20.2"/>
</g>
<!-- 9&#45;&gt;0 -->
<g id="edge9" class="edge">
<title>9&#45;&gt;0</title>
<path fill="none" stroke="grey" stroke-width="2" d="M516.52,-71.7C504.44,-62.8 489.55,-51.82 476.48,-42.2"/>
<polygon fill="grey" stroke="grey" stroke-width="2" points="478.34,-39.22 468.21,-36.1 474.19,-44.85 478.34,-39.22"/>
</g>
<!-- 10 -->
<g id="node11" class="node">
<title>10</title>
<path fill="none" stroke="#d88556" stroke-width="2" stroke-dasharray="5,2" d="M76,-180C76,-180 12,-180 12,-180 6,-180 0,-174 0,-168 0,-168 0,-156 0,-156 0,-150 6,-144 12,-144 12,-144 76,-144 76,-144 82,-144 88,-150 88,-156 88,-156 88,-168 88,-168 88,-174 82,-180 76,-180"/>
<text text-anchor="middle" x="44" y="-165" font-family="sans" font-size="10.00">fastqc</text>
<text text-anchor="middle" x="44" y="-154" font-family="sans" font-size="10.00">sample: base1</text>
</g>
<!-- 10&#45;&gt;1 -->
<g id="edge10" class="edge">
<title>10&#45;&gt;1</title>
<path fill="none" stroke="grey" stroke-width="2" d="M60.56,-143.7C68.68,-135.22 78.59,-124.86 87.47,-115.58"/>
<polygon fill="grey" stroke="grey" stroke-width="2" points="90.24,-117.75 94.63,-108.1 85.19,-112.91 90.24,-117.75"/>
</g>
<!-- 11 -->
<g id="node12" class="node">
<title>11</title>
<path fill="none" stroke="#d88556" stroke-width="2" stroke-dasharray="5,2" d="M194,-180C194,-180 118,-180 118,-180 112,-180 106,-174 106,-168 106,-168 106,-156 106,-156 106,-150 112,-144 118,-144 118,-144 194,-144 194,-144 200,-144 206,-150 206,-156 206,-156 206,-168 206,-168 206,-174 200,-180 194,-180"/>
<text text-anchor="middle" x="156" y="-165" font-family="sans" font-size="10.00">fastqc</text>
<text text-anchor="middle" x="156" y="-154" font-family="sans" font-size="10.00">sample: mutated</text>
</g>
<!-- 11&#45;&gt;1 -->
<g id="edge11" class="edge">
<title>11&#45;&gt;1</title>
<path fill="none" stroke="grey" stroke-width="2" d="M144.88,-143.7C139.64,-135.56 133.3,-125.69 127.52,-116.7"/>
<polygon fill="grey" stroke="grey" stroke-width="2" points="130.35,-114.62 122,-108.1 124.46,-118.41 130.35,-114.62"/>
</g>
<!-- 12 -->
<g id="node13" class="node">
<title>12</title>
<path fill="none" stroke="#d85656" stroke-width="2" stroke-dasharray="5,2" d="M434,-324C434,-324 372,-324 372,-324 366,-324 360,-318 360,-312 360,-312 360,-300 360,-300 360,-294 366,-288 372,-288 372,-288 434,-288 434,-288 440,-288 446,-294 446,-300 446,-300 446,-312 446,-312 446,-318 440,-324 434,-324"/>
<text text-anchor="middle" x="403" y="-303.5" font-family="sans" font-size="10.00">samtools_sort</text>
</g>
<!-- 12&#45;&gt;2 -->
<g id="edge12" class="edge">
<title>12&#45;&gt;2</title>
<path fill="none" stroke="grey" stroke-width="2" d="M379.04,-287.88C367.66,-278.53 354.86,-266.01 347,-252 336.33,-233 331.64,-208.64 329.59,-190.21"/>
<polygon fill="grey" stroke="grey" stroke-width="2" points="333.06,-189.76 328.66,-180.13 326.09,-190.41 333.06,-189.76"/>
</g>
<!-- 13 -->
<g id="node14" class="node">
<title>13</title>
<path fill="none" stroke="#d6d856" stroke-width="2" stroke-dasharray="5,2" d="M438,-252C438,-252 368,-252 368,-252 362,-252 356,-246 356,-240 356,-240 356,-228 356,-228 356,-222 362,-216 368,-216 368,-216 438,-216 438,-216 444,-216 450,-222 450,-228 450,-228 450,-240 450,-240 450,-246 444,-252 438,-252"/>
<text text-anchor="middle" x="403" y="-231.5" font-family="sans" font-size="10.00">samtools_index</text>
</g>
<!-- 12&#45;&gt;13 -->
<g id="edge23" class="edge">
<title>12&#45;&gt;13</title>
<path fill="none" stroke="grey" stroke-width="2" d="M403,-287.7C403,-279.98 403,-270.71 403,-262.11"/>
<polygon fill="grey" stroke="grey" stroke-width="2" points="406.5,-262.1 403,-252.1 399.5,-262.1 406.5,-262.1"/>
</g>
<!-- 13&#45;&gt;2 -->
<g id="edge13" class="edge">
<title>13&#45;&gt;2</title>
<path fill="none" stroke="grey" stroke-width="2" d="M384.46,-215.7C375.2,-207.05 363.84,-196.45 353.74,-187.03"/>
<polygon fill="grey" stroke="grey" stroke-width="2" points="356.02,-184.37 346.33,-180.1 351.25,-189.49 356.02,-184.37"/>
</g>
<!-- 14 -->
<g id="node15" class="node">
<title>14</title>
<path fill="none" stroke="#d85656" stroke-width="2" stroke-dasharray="5,2" d="M555,-324C555,-324 493,-324 493,-324 487,-324 481,-318 481,-312 481,-312 481,-300 481,-300 481,-294 487,-288 493,-288 493,-288 555,-288 555,-288 561,-288 567,-294 567,-300 567,-300 567,-312 567,-312 567,-318 561,-324 555,-324"/>
<text text-anchor="middle" x="524" y="-303.5" font-family="sans" font-size="10.00">samtools_sort</text>
</g>
<!-- 14&#45;&gt;6 -->
<g id="edge17" class="edge">
<title>14&#45;&gt;6</title>
<path fill="none" stroke="grey" stroke-width="2" d="M524.66,-287.87C526.03,-269.13 530.24,-238.73 543,-216 549.14,-205.06 558.3,-195.02 567.43,-186.7"/>
<polygon fill="grey" stroke="grey" stroke-width="2" points="569.76,-189.31 575.04,-180.12 565.18,-184.02 569.76,-189.31"/>
</g>
<!-- 15 -->
<g id="node16" class="node">
<title>15</title>
<path fill="none" stroke="#d6d856" stroke-width="2" stroke-dasharray="5,2" d="M634,-252C634,-252 564,-252 564,-252 558,-252 552,-246 552,-240 552,-240 552,-228 552,-228 552,-222 558,-216 564,-216 564,-216 634,-216 634,-216 640,-216 646,-222 646,-228 646,-228 646,-240 646,-240 646,-246 640,-252 634,-252"/>
<text text-anchor="middle" x="599" y="-231.5" font-family="sans" font-size="10.00">samtools_index</text>
</g>
<!-- 14&#45;&gt;15 -->
<g id="edge25" class="edge">
<title>14&#45;&gt;15</title>
<path fill="none" stroke="grey" stroke-width="2" d="M542.54,-287.7C551.8,-279.05 563.16,-268.45 573.26,-259.03"/>
<polygon fill="grey" stroke="grey" stroke-width="2" points="575.75,-261.49 580.67,-252.1 570.98,-256.37 575.75,-261.49"/>
</g>
<!-- 15&#45;&gt;6 -->
<g id="edge18" class="edge">
<title>15&#45;&gt;6</title>
<path fill="none" stroke="grey" stroke-width="2" d="M599,-215.7C599,-207.98 599,-198.71 599,-190.11"/>
<polygon fill="grey" stroke="grey" stroke-width="2" points="602.5,-190.1 599,-180.1 595.5,-190.1 602.5,-190.1"/>
</g>
<!-- 16 -->
<g id="node17" class="node">
<title>16</title>
<path fill="none" stroke="#d8ac56" stroke-width="2" stroke-dasharray="5,2" d="M438,-396C438,-396 374,-396 374,-396 368,-396 362,-390 362,-384 362,-384 362,-372 362,-372 362,-366 368,-360 374,-360 374,-360 438,-360 438,-360 444,-360 450,-366 450,-372 450,-372 450,-384 450,-384 450,-390 444,-396 438,-396"/>
<text text-anchor="middle" x="406" y="-381" font-family="sans" font-size="10.00">bwa_mem</text>
<text text-anchor="middle" x="406" y="-370" font-family="sans" font-size="10.00">sample: base1</text>
</g>
<!-- 16&#45;&gt;12 -->
<g id="edge22" class="edge">
<title>16&#45;&gt;12</title>
<path fill="none" stroke="grey" stroke-width="2" d="M405.26,-359.7C404.93,-351.98 404.53,-342.71 404.16,-334.11"/>
<polygon fill="grey" stroke="grey" stroke-width="2" points="407.66,-333.95 403.73,-324.1 400.66,-334.25 407.66,-333.95"/>
</g>
<!-- 17 -->
<g id="node18" class="node">
<title>17</title>
<path fill="none" stroke="#d8ac56" stroke-width="2" stroke-dasharray="5,2" d="M560,-396C560,-396 484,-396 484,-396 478,-396 472,-390 472,-384 472,-384 472,-372 472,-372 472,-366 478,-360 484,-360 484,-360 560,-360 560,-360 566,-360 572,-366 572,-372 572,-372 572,-384 572,-384 572,-390 566,-396 560,-396"/>
<text text-anchor="middle" x="522" y="-381" font-family="sans" font-size="10.00">bwa_mem</text>
<text text-anchor="middle" x="522" y="-370" font-family="sans" font-size="10.00">sample: mutated</text>
</g>
<!-- 17&#45;&gt;14 -->
<g id="edge24" class="edge">
<title>17&#45;&gt;14</title>
<path fill="none" stroke="grey" stroke-width="2" d="M522.49,-359.7C522.71,-351.98 522.98,-342.71 523.23,-334.11"/>
<polygon fill="grey" stroke="grey" stroke-width="2" points="526.72,-334.2 523.51,-324.1 519.73,-334 526.72,-334.2"/>
</g>
<!-- 18 -->
<g id="node19" class="node">
<title>18</title>
<path fill="none" stroke="#56d8a9" stroke-width="2" stroke-dasharray="5,2" d="M387.5,-468C387.5,-468 342.5,-468 342.5,-468 336.5,-468 330.5,-462 330.5,-456 330.5,-456 330.5,-444 330.5,-444 330.5,-438 336.5,-432 342.5,-432 342.5,-432 387.5,-432 387.5,-432 393.5,-432 399.5,-438 399.5,-444 399.5,-444 399.5,-456 399.5,-456 399.5,-462 393.5,-468 387.5,-468"/>
<text text-anchor="middle" x="365" y="-447.5" font-family="sans" font-size="10.00">bwa_index</text>
</g>
<!-- 18&#45;&gt;16 -->
<g id="edge26" class="edge">
<title>18&#45;&gt;16</title>
<path fill="none" stroke="grey" stroke-width="2" d="M375.13,-431.7C379.85,-423.64 385.56,-413.89 390.78,-404.98"/>
<polygon fill="grey" stroke="grey" stroke-width="2" points="393.95,-406.5 395.98,-396.1 387.91,-402.96 393.95,-406.5"/>
</g>
<!-- 18&#45;&gt;17 -->
<g id="edge29" class="edge">
<title>18&#45;&gt;17</title>
<path fill="none" stroke="grey" stroke-width="2" d="M399.84,-433.46C421.78,-423.69 450.37,-410.94 474.38,-400.23"/>
<polygon fill="grey" stroke="grey" stroke-width="2" points="475.97,-403.36 483.68,-396.09 473.12,-396.96 475.97,-403.36"/>
</g>
<!-- 19 -->
<g id="node20" class="node">
<title>19</title>
<path fill="none" stroke="#80d856" stroke-width="2" stroke-dasharray="5,2" d="M498,-468C498,-468 430,-468 430,-468 424,-468 418,-462 418,-456 418,-456 418,-444 418,-444 418,-438 424,-432 430,-432 430,-432 498,-432 498,-432 504,-432 510,-438 510,-444 510,-444 510,-456 510,-456 510,-462 504,-468 498,-468"/>
<text text-anchor="middle" x="464" y="-447.5" font-family="sans" font-size="10.00">samtools_faidx</text>
</g>
<!-- 19&#45;&gt;16 -->
<g id="edge27" class="edge">
<title>19&#45;&gt;16</title>
<path fill="none" stroke="grey" stroke-width="2" d="M449.66,-431.7C442.71,-423.3 434.23,-413.07 426.6,-403.86"/>
<polygon fill="grey" stroke="grey" stroke-width="2" points="429.25,-401.57 420.17,-396.1 423.86,-406.04 429.25,-401.57"/>
</g>
<!-- 19&#45;&gt;17 -->
<g id="edge30" class="edge">
<title>19&#45;&gt;17</title>
<path fill="none" stroke="grey" stroke-width="2" d="M478.34,-431.7C485.29,-423.3 493.77,-413.07 501.4,-403.86"/>
<polygon fill="grey" stroke="grey" stroke-width="2" points="504.14,-406.04 507.83,-396.1 498.75,-401.57 504.14,-406.04"/>
</g>
<!-- 20 -->
<g id="node21" class="node">
<title>20</title>
<path fill="none" stroke="#56d882" stroke-width="2" stroke-dasharray="5,2" d="M578,-468C578,-468 540,-468 540,-468 534,-468 528,-462 528,-456 528,-456 528,-444 528,-444 528,-438 534,-432 540,-432 540,-432 578,-432 578,-432 584,-432 590,-438 590,-444 590,-444 590,-456 590,-456 590,-462 584,-468 578,-468"/>
<text text-anchor="middle" x="559" y="-447.5" font-family="sans" font-size="10.00">gatk_dict</text>
</g>
<!-- 20&#45;&gt;16 -->
<g id="edge28" class="edge">
<title>20&#45;&gt;16</title>
<path fill="none" stroke="grey" stroke-width="2" d="M527.67,-434.67C506.06,-424.78 476.96,-411.46 452.63,-400.33"/>
<polygon fill="grey" stroke="grey" stroke-width="2" points="453.78,-397.01 443.23,-396.03 450.86,-403.37 453.78,-397.01"/>
</g>
<!-- 20&#45;&gt;17 -->
<g id="edge31" class="edge">
<title>20&#45;&gt;17</title>
<path fill="none" stroke="grey" stroke-width="2" d="M549.85,-431.7C545.6,-423.64 540.44,-413.89 535.73,-404.98"/>
<polygon fill="grey" stroke="grey" stroke-width="2" points="538.81,-403.31 531.04,-396.1 532.62,-406.58 538.81,-403.31"/>
</g>
</g>
</svg>
