<?xml version="1.0" encoding="UTF-8" standalone="no"?>
<!DOCTYPE svg PUBLIC "-//W3C//DTD SVG 1.1//EN"
 "http://www.w3.org/Graphics/SVG/1.1/DTD/svg11.dtd">
<!-- Generated by graphviz version 2.43.0 (0)
 -->
<!-- Title: snakemake_dag Pages: 1 -->
<svg width="2761pt" height="908pt"
 viewBox="0.00 0.00 2761.14 908.00" xmlns="http://www.w3.org/2000/svg" xmlns:xlink="http://www.w3.org/1999/xlink">
<g id="graph0" class="graph" transform="scale(1 1) rotate(0) translate(4 904)">
<title>snakemake_dag</title>
<polygon fill="white" stroke="transparent" points="-4,4 -4,-904 2757.14,-904 2757.14,4 -4,4"/>
<!-- 0 -->
<g id="node1" class="node">
<title>0</title>
<path fill="none" stroke="#5682d8" stroke-width="2" d="M665.14,-36C665.14,-36 635.14,-36 635.14,-36 629.14,-36 623.14,-30 623.14,-24 623.14,-24 623.14,-12 623.14,-12 623.14,-6 629.14,0 635.14,0 635.14,0 665.14,0 665.14,0 671.14,0 677.14,-6 677.14,-12 677.14,-12 677.14,-24 677.14,-24 677.14,-30 671.14,-36 665.14,-36"/>
<text text-anchor="middle" x="650.14" y="-15.5" font-family="sans" font-size="10.00">all</text>
</g>
<!-- 1 -->
<g id="node2" class="node">
<title>1</title>
<path fill="none" stroke="#56d8c9" stroke-width="2" d="M482.64,-396C482.64,-396 395.64,-396 395.64,-396 389.64,-396 383.64,-390 383.64,-384 383.64,-384 383.64,-372 383.64,-372 383.64,-366 389.64,-360 395.64,-360 395.64,-360 482.64,-360 482.64,-360 488.64,-360 494.64,-366 494.64,-372 494.64,-372 494.64,-384 494.64,-384 494.64,-390 488.64,-396 482.64,-396"/>
<text text-anchor="middle" x="439.14" y="-375.5" font-family="sans" font-size="10.00">samtools_view_md</text>
</g>
<!-- 1&#45;&gt;0 -->
<g id="edge1" class="edge">
<title>1&#45;&gt;0</title>
<path fill="none" stroke="grey" stroke-width="2" d="M383.24,-375.75C248.19,-370.7 -77.92,-345.14 17.14,-216 90.57,-116.25 487.95,-44.98 612.67,-24.81"/>
<polygon fill="grey" stroke="grey" stroke-width="2" points="613.55,-28.21 622.87,-23.18 612.44,-21.3 613.55,-28.21"/>
</g>
<!-- 17 -->
<g id="node18" class="node">
<title>17</title>
<path fill="none" stroke="#d8bc56" stroke-width="2" d="M609.64,-252C609.64,-252 542.64,-252 542.64,-252 536.64,-252 530.64,-246 530.64,-240 530.64,-240 530.64,-228 530.64,-228 530.64,-222 536.64,-216 542.64,-216 542.64,-216 609.64,-216 609.64,-216 615.64,-216 621.64,-222 621.64,-228 621.64,-228 621.64,-240 621.64,-240 621.64,-246 615.64,-252 609.64,-252"/>
<text text-anchor="middle" x="576.14" y="-231.5" font-family="sans" font-size="10.00">samtools_stats</text>
</g>
<!-- 1&#45;&gt;17 -->
<g id="edge34" class="edge">
<title>1&#45;&gt;17</title>
<path fill="none" stroke="grey" stroke-width="2" d="M459.35,-359.9C471.01,-349.79 485.76,-336.54 498.14,-324 518.55,-303.34 540.2,-278.36 555.5,-260.13"/>
<polygon fill="grey" stroke="grey" stroke-width="2" points="558.34,-262.19 562.06,-252.27 552.97,-257.71 558.34,-262.19"/>
</g>
<!-- 20 -->
<g id="node21" class="node">
<title>20</title>
<path fill="none" stroke="#5692d8" stroke-width="2" d="M500.64,-252C500.64,-252 459.64,-252 459.64,-252 453.64,-252 447.64,-246 447.64,-240 447.64,-240 447.64,-228 447.64,-228 447.64,-222 453.64,-216 459.64,-216 459.64,-216 500.64,-216 500.64,-216 506.64,-216 512.64,-222 512.64,-228 512.64,-228 512.64,-240 512.64,-240 512.64,-246 506.64,-252 500.64,-252"/>
<text text-anchor="middle" x="480.14" y="-231.5" font-family="sans" font-size="10.00">mosdepth</text>
</g>
<!-- 1&#45;&gt;20 -->
<g id="edge44" class="edge">
<title>1&#45;&gt;20</title>
<path fill="none" stroke="grey" stroke-width="2" d="M458.18,-359.84C467.32,-350.3 477.31,-337.62 482.14,-324 489.15,-304.24 488.17,-280.44 485.7,-262.43"/>
<polygon fill="grey" stroke="grey" stroke-width="2" points="489.12,-261.62 484.08,-252.3 482.21,-262.73 489.12,-261.62"/>
</g>
<!-- 21 -->
<g id="node22" class="node">
<title>21</title>
<path fill="none" stroke="#78d856" stroke-width="2" d="M417.64,-252C417.64,-252 334.64,-252 334.64,-252 328.64,-252 322.64,-246 322.64,-240 322.64,-240 322.64,-228 322.64,-228 322.64,-222 328.64,-216 334.64,-216 334.64,-216 417.64,-216 417.64,-216 423.64,-216 429.64,-222 429.64,-228 429.64,-228 429.64,-240 429.64,-240 429.64,-246 423.64,-252 417.64,-252"/>
<text text-anchor="middle" x="376.14" y="-231.5" font-family="sans" font-size="10.00">mosdepth_regions</text>
</g>
<!-- 1&#45;&gt;21 -->
<g id="edge48" class="edge">
<title>1&#45;&gt;21</title>
<path fill="none" stroke="grey" stroke-width="2" d="M390.59,-359.97C374.47,-351.73 358.32,-340.06 349.14,-324 337.9,-304.33 347.09,-279.49 357.69,-261.05"/>
<polygon fill="grey" stroke="grey" stroke-width="2" points="360.82,-262.66 363.1,-252.31 354.86,-258.98 360.82,-262.66"/>
</g>
<!-- 33 -->
<g id="node34" class="node">
<title>33</title>
<path fill="none" stroke="#c6d856" stroke-width="2" d="M460.64,-324C460.64,-324 369.64,-324 369.64,-324 363.64,-324 357.64,-318 357.64,-312 357.64,-312 357.64,-300 357.64,-300 357.64,-294 363.64,-288 369.64,-288 369.64,-288 460.64,-288 460.64,-288 466.64,-288 472.64,-294 472.64,-300 472.64,-300 472.64,-312 472.64,-312 472.64,-318 466.64,-324 460.64,-324"/>
<text text-anchor="middle" x="415.14" y="-303.5" font-family="sans" font-size="10.00">samtools_index_md</text>
</g>
<!-- 1&#45;&gt;33 -->
<g id="edge67" class="edge">
<title>1&#45;&gt;33</title>
<path fill="none" stroke="grey" stroke-width="2" d="M433.21,-359.7C430.54,-351.9 427.32,-342.51 424.34,-333.83"/>
<polygon fill="grey" stroke="grey" stroke-width="2" points="427.56,-332.43 421.01,-324.1 420.94,-334.7 427.56,-332.43"/>
</g>
<!-- 39 -->
<g id="node40" class="node">
<title>39</title>
<path fill="none" stroke="#56d8a2" stroke-width="2" d="M1865.14,-324C1865.14,-324 1695.14,-324 1695.14,-324 1689.14,-324 1683.14,-318 1683.14,-312 1683.14,-312 1683.14,-300 1683.14,-300 1683.14,-294 1689.14,-288 1695.14,-288 1695.14,-288 1865.14,-288 1865.14,-288 1871.14,-288 1877.14,-294 1877.14,-300 1877.14,-300 1877.14,-312 1877.14,-312 1877.14,-318 1871.14,-324 1865.14,-324"/>
<text text-anchor="middle" x="1780.14" y="-309" font-family="sans" font-size="10.00">gatk_haplotypecaller</text>
<text text-anchor="middle" x="1780.14" y="-298" font-family="sans" font-size="10.00">interval: 0542&#45;scattered.interval_list</text>
</g>
<!-- 1&#45;&gt;39 -->
<g id="edge79" class="edge">
<title>1&#45;&gt;39</title>
<path fill="none" stroke="grey" stroke-width="2" d="M494.71,-375C714.34,-367.03 1517.17,-337.4 1672.8,-323.99"/>
<polygon fill="grey" stroke="grey" stroke-width="2" points="1673.24,-327.46 1682.87,-323.05 1672.59,-320.49 1673.24,-327.46"/>
</g>
<!-- 40 -->
<g id="node41" class="node">
<title>40</title>
<path fill="none" stroke="#56d8a2" stroke-width="2" d="M1653.14,-324C1653.14,-324 1483.14,-324 1483.14,-324 1477.14,-324 1471.14,-318 1471.14,-312 1471.14,-312 1471.14,-300 1471.14,-300 1471.14,-294 1477.14,-288 1483.14,-288 1483.14,-288 1653.14,-288 1653.14,-288 1659.14,-288 1665.14,-294 1665.14,-300 1665.14,-300 1665.14,-312 1665.14,-312 1665.14,-318 1659.14,-324 1653.14,-324"/>
<text text-anchor="middle" x="1568.14" y="-309" font-family="sans" font-size="10.00">gatk_haplotypecaller</text>
<text text-anchor="middle" x="1568.14" y="-298" font-family="sans" font-size="10.00">interval: 0541&#45;scattered.interval_list</text>
</g>
<!-- 1&#45;&gt;40 -->
<g id="edge81" class="edge">
<title>1&#45;&gt;40</title>
<path fill="none" stroke="grey" stroke-width="2" d="M494.76,-374.12C636.9,-366.69 1025.02,-345.9 1348.14,-324 1384.91,-321.51 1425.12,-318.49 1460.98,-315.69"/>
<polygon fill="grey" stroke="grey" stroke-width="2" points="1461.28,-319.18 1470.97,-314.91 1460.73,-312.2 1461.28,-319.18"/>
</g>
<!-- 2 -->
<g id="node3" class="node">
<title>2</title>
<path fill="none" stroke="#56d88a" stroke-width="2" d="M2144.14,-108C2144.14,-108 2052.14,-108 2052.14,-108 2046.14,-108 2040.14,-102 2040.14,-96 2040.14,-96 2040.14,-84 2040.14,-84 2040.14,-78 2046.14,-72 2052.14,-72 2052.14,-72 2144.14,-72 2144.14,-72 2150.14,-72 2156.14,-78 2156.14,-84 2156.14,-84 2156.14,-96 2156.14,-96 2156.14,-102 2150.14,-108 2144.14,-108"/>
<text text-anchor="middle" x="2098.14" y="-87.5" font-family="sans" font-size="10.00">gatk_genotypegvcfs</text>
</g>
<!-- 2&#45;&gt;0 -->
<g id="edge2" class="edge">
<title>2&#45;&gt;0</title>
<path fill="none" stroke="grey" stroke-width="2" d="M2040.04,-86.19C1799.29,-74.55 883.51,-30.28 687.3,-20.8"/>
<polygon fill="grey" stroke="grey" stroke-width="2" points="687.36,-17.3 677.21,-20.31 687.02,-24.29 687.36,-17.3"/>
</g>
<!-- 3 -->
<g id="node4" class="node">
<title>3</title>
<path fill="none" stroke="#88d856" stroke-width="2" d="M665.14,-180C665.14,-180 635.14,-180 635.14,-180 629.14,-180 623.14,-174 623.14,-168 623.14,-168 623.14,-156 623.14,-156 623.14,-150 629.14,-144 635.14,-144 635.14,-144 665.14,-144 665.14,-144 671.14,-144 677.14,-150 677.14,-156 677.14,-156 677.14,-168 677.14,-168 677.14,-174 671.14,-180 665.14,-180"/>
<text text-anchor="middle" x="650.14" y="-159.5" font-family="sans" font-size="10.00">multiqc</text>
</g>
<!-- 3&#45;&gt;0 -->
<g id="edge3" class="edge">
<title>3&#45;&gt;0</title>
<path fill="none" stroke="grey" stroke-width="2" d="M650.14,-143.87C650.14,-119.67 650.14,-75.21 650.14,-46.39"/>
<polygon fill="grey" stroke="grey" stroke-width="2" points="653.64,-46.19 650.14,-36.19 646.64,-46.19 653.64,-46.19"/>
</g>
<!-- 4 -->
<g id="node5" class="node">
<title>4</title>
<path fill="none" stroke="#d8ac56" stroke-width="2" d="M486.64,-468C486.64,-468 391.64,-468 391.64,-468 385.64,-468 379.64,-462 379.64,-456 379.64,-456 379.64,-444 379.64,-444 379.64,-438 385.64,-432 391.64,-432 391.64,-432 486.64,-432 486.64,-432 492.64,-432 498.64,-438 498.64,-444 498.64,-444 498.64,-456 498.64,-456 498.64,-462 492.64,-468 486.64,-468"/>
<text text-anchor="middle" x="439.14" y="-447.5" font-family="sans" font-size="10.00">gatk_markduplicates</text>
</g>
<!-- 4&#45;&gt;1 -->
<g id="edge4" class="edge">
<title>4&#45;&gt;1</title>
<path fill="none" stroke="grey" stroke-width="2" d="M439.14,-431.7C439.14,-423.98 439.14,-414.71 439.14,-406.11"/>
<polygon fill="grey" stroke="grey" stroke-width="2" points="442.64,-406.1 439.14,-396.1 435.64,-406.1 442.64,-406.1"/>
</g>
<!-- 5 -->
<g id="node6" class="node">
<title>5</title>
<path fill="none" stroke="#566bd8" stroke-width="2" d="M985.14,-900C985.14,-900 929.14,-900 929.14,-900 923.14,-900 917.14,-894 917.14,-888 917.14,-888 917.14,-876 917.14,-876 917.14,-870 923.14,-864 929.14,-864 929.14,-864 985.14,-864 985.14,-864 991.14,-864 997.14,-870 997.14,-876 997.14,-876 997.14,-888 997.14,-888 997.14,-894 991.14,-900 985.14,-900"/>
<text text-anchor="middle" x="957.14" y="-879.5" font-family="sans" font-size="10.00">cp_reference</text>
</g>
<!-- 5&#45;&gt;1 -->
<g id="edge5" class="edge">
<title>5&#45;&gt;1</title>
<path fill="none" stroke="grey" stroke-width="2" d="M916.95,-880.9C804.18,-880.04 487.01,-873.54 395.14,-828 346.95,-804.11 313.14,-792.79 313.14,-739 313.14,-739 313.14,-739 313.14,-593 313.14,-516.94 326.5,-493.58 371.14,-432 379.4,-420.6 390.77,-410.43 401.85,-402.12"/>
<polygon fill="grey" stroke="grey" stroke-width="2" points="404.11,-404.8 410.2,-396.13 400.04,-399.11 404.11,-404.8"/>
</g>
<!-- 5&#45;&gt;2 -->
<g id="edge6" class="edge">
<title>5&#45;&gt;2</title>
<path fill="none" stroke="grey" stroke-width="2" d="M997.45,-880.48C1197.45,-877.72 2084.65,-863.68 2358.14,-828 2536.59,-804.72 2753.14,-918.96 2753.14,-739 2753.14,-739 2753.14,-739 2753.14,-233 2753.14,-113.9 2334.3,-94.48 2166.47,-91.47"/>
<polygon fill="grey" stroke="grey" stroke-width="2" points="2166.33,-87.97 2156.27,-91.31 2166.21,-94.97 2166.33,-87.97"/>
</g>
<!-- 5&#45;&gt;4 -->
<g id="edge24" class="edge">
<title>5&#45;&gt;4</title>
<path fill="none" stroke="grey" stroke-width="2" d="M917.04,-881.64C809.15,-882.64 515.53,-880.36 437.14,-828 399.77,-803.04 389.14,-783.94 389.14,-739 389.14,-739 389.14,-739 389.14,-593 389.14,-550.68 409.14,-505.09 423.85,-477.3"/>
<polygon fill="grey" stroke="grey" stroke-width="2" points="427.07,-478.7 428.78,-468.24 420.92,-475.35 427.07,-478.7"/>
</g>
<!-- 7 -->
<g id="node8" class="node">
<title>7</title>
<path fill="none" stroke="#56d863" stroke-width="2" d="M1458.14,-612C1458.14,-612 1428.14,-612 1428.14,-612 1422.14,-612 1416.14,-606 1416.14,-600 1416.14,-600 1416.14,-588 1416.14,-588 1416.14,-582 1422.14,-576 1428.14,-576 1428.14,-576 1458.14,-576 1458.14,-576 1464.14,-576 1470.14,-582 1470.14,-588 1470.14,-588 1470.14,-600 1470.14,-600 1470.14,-606 1464.14,-612 1458.14,-612"/>
<text text-anchor="middle" x="1443.14" y="-591.5" font-family="sans" font-size="10.00">busco</text>
</g>
<!-- 5&#45;&gt;7 -->
<g id="edge29" class="edge">
<title>5&#45;&gt;7</title>
<path fill="none" stroke="grey" stroke-width="2" d="M997.35,-878.92C1101.31,-873.16 1372.96,-855.6 1402.14,-828 1459.01,-774.21 1453.93,-671.37 1447.62,-622.33"/>
<polygon fill="grey" stroke="grey" stroke-width="2" points="1451.05,-621.58 1446.19,-612.17 1444.12,-622.56 1451.05,-621.58"/>
</g>
<!-- 8 -->
<g id="node9" class="node">
<title>8</title>
<path fill="none" stroke="#d8d356" stroke-width="2" d="M148.64,-684C148.64,-684 91.64,-684 91.64,-684 85.64,-684 79.64,-678 79.64,-672 79.64,-672 79.64,-660 79.64,-660 79.64,-654 85.64,-648 91.64,-648 91.64,-648 148.64,-648 148.64,-648 154.64,-648 160.64,-654 160.64,-660 160.64,-660 160.64,-672 160.64,-672 160.64,-678 154.64,-684 148.64,-684"/>
<text text-anchor="middle" x="120.14" y="-663.5" font-family="sans" font-size="10.00">bedtools_nuc</text>
</g>
<!-- 5&#45;&gt;8 -->
<g id="edge30" class="edge">
<title>5&#45;&gt;8</title>
<path fill="none" stroke="grey" stroke-width="2" d="M916.97,-880.65C768.88,-879.03 259.18,-870.4 201.14,-828 159.43,-797.52 182.93,-765.33 158.14,-720 153.01,-710.61 146.49,-700.93 140.3,-692.46"/>
<polygon fill="grey" stroke="grey" stroke-width="2" points="143.09,-690.34 134.29,-684.44 137.49,-694.54 143.09,-690.34"/>
</g>
<!-- 18 -->
<g id="node19" class="node">
<title>18</title>
<path fill="none" stroke="#5692d8" stroke-width="2" d="M731.64,-252C731.64,-252 690.64,-252 690.64,-252 684.64,-252 678.64,-246 678.64,-240 678.64,-240 678.64,-228 678.64,-228 678.64,-222 684.64,-216 690.64,-216 690.64,-216 731.64,-216 731.64,-216 737.64,-216 743.64,-222 743.64,-228 743.64,-228 743.64,-240 743.64,-240 743.64,-246 737.64,-252 731.64,-252"/>
<text text-anchor="middle" x="711.14" y="-231.5" font-family="sans" font-size="10.00">mosdepth</text>
</g>
<!-- 5&#45;&gt;18 -->
<g id="edge35" class="edge">
<title>5&#45;&gt;18</title>
<path fill="none" stroke="grey" stroke-width="2" d="M917.05,-879.34C845.65,-875.51 700.78,-863.47 667.14,-828 513.27,-665.75 651.29,-353.52 697.41,-261.28"/>
<polygon fill="grey" stroke="grey" stroke-width="2" points="700.67,-262.59 702.06,-252.09 694.42,-259.43 700.67,-262.59"/>
</g>
<!-- 19 -->
<g id="node20" class="node">
<title>19</title>
<path fill="none" stroke="#5692d8" stroke-width="2" d="M853.64,-252C853.64,-252 812.64,-252 812.64,-252 806.64,-252 800.64,-246 800.64,-240 800.64,-240 800.64,-228 800.64,-228 800.64,-222 806.64,-216 812.64,-216 812.64,-216 853.64,-216 853.64,-216 859.64,-216 865.64,-222 865.64,-228 865.64,-228 865.64,-240 865.64,-240 865.64,-246 859.64,-252 853.64,-252"/>
<text text-anchor="middle" x="833.14" y="-231.5" font-family="sans" font-size="10.00">mosdepth</text>
</g>
<!-- 5&#45;&gt;19 -->
<g id="edge39" class="edge">
<title>5&#45;&gt;19</title>
<path fill="none" stroke="grey" stroke-width="2" d="M916.75,-868.77C864.23,-850.07 779.14,-808.97 779.14,-739 779.14,-739 779.14,-739 779.14,-521 779.14,-424.29 809.32,-312.33 824.56,-261.98"/>
<polygon fill="grey" stroke="grey" stroke-width="2" points="827.97,-262.78 827.57,-252.2 821.28,-260.73 827.97,-262.78"/>
</g>
<!-- 5&#45;&gt;20 -->
<g id="edge43" class="edge">
<title>5&#45;&gt;20</title>
<path fill="none" stroke="grey" stroke-width="2" d="M916.99,-879.69C786.52,-875.15 380.06,-858.66 330.14,-828 290.52,-803.66 275.14,-785.5 275.14,-739 275.14,-739 275.14,-739 275.14,-521 275.14,-412.35 275.17,-367.58 349.14,-288 376.47,-258.6 396.36,-266.84 437.97,-252.2"/>
<polygon fill="grey" stroke="grey" stroke-width="2" points="439.38,-255.41 447.48,-248.58 436.89,-248.86 439.38,-255.41"/>
</g>
<!-- 5&#45;&gt;21 -->
<g id="edge47" class="edge">
<title>5&#45;&gt;21</title>
<path fill="none" stroke="grey" stroke-width="2" d="M917.06,-879.72C780.67,-875.13 339.84,-858.06 284.14,-828 240.1,-804.23 215.14,-789.05 215.14,-739 215.14,-739 215.14,-739 215.14,-377 215.14,-318.82 275,-278.8 321.72,-256.42"/>
<polygon fill="grey" stroke="grey" stroke-width="2" points="323.27,-259.56 330.87,-252.18 320.32,-253.21 323.27,-259.56"/>
</g>
<!-- 28 -->
<g id="node29" class="node">
<title>28</title>
<path fill="none" stroke="#56d8c9" stroke-width="2" d="M1012.64,-396C1012.64,-396 925.64,-396 925.64,-396 919.64,-396 913.64,-390 913.64,-384 913.64,-384 913.64,-372 913.64,-372 913.64,-366 919.64,-360 925.64,-360 925.64,-360 1012.64,-360 1012.64,-360 1018.64,-360 1024.64,-366 1024.64,-372 1024.64,-372 1024.64,-384 1024.64,-384 1024.64,-390 1018.64,-396 1012.64,-396"/>
<text text-anchor="middle" x="969.14" y="-375.5" font-family="sans" font-size="10.00">samtools_view_md</text>
</g>
<!-- 5&#45;&gt;28 -->
<g id="edge61" class="edge">
<title>5&#45;&gt;28</title>
<path fill="none" stroke="grey" stroke-width="2" d="M940.65,-863.77C918.3,-838.53 881.14,-789.05 881.14,-739 881.14,-739 881.14,-739 881.14,-521 881.14,-480.46 879.44,-466.24 901.14,-432 908.55,-420.31 919.47,-410.16 930.41,-401.95"/>
<polygon fill="grey" stroke="grey" stroke-width="2" points="932.58,-404.7 938.72,-396.06 928.53,-398.99 932.58,-404.7"/>
</g>
<!-- 29 -->
<g id="node30" class="node">
<title>29</title>
<path fill="none" stroke="#56d8c9" stroke-width="2" d="M1326.64,-396C1326.64,-396 1239.64,-396 1239.64,-396 1233.64,-396 1227.64,-390 1227.64,-384 1227.64,-384 1227.64,-372 1227.64,-372 1227.64,-366 1233.64,-360 1239.64,-360 1239.64,-360 1326.64,-360 1326.64,-360 1332.64,-360 1338.64,-366 1338.64,-372 1338.64,-372 1338.64,-384 1338.64,-384 1338.64,-390 1332.64,-396 1326.64,-396"/>
<text text-anchor="middle" x="1283.14" y="-375.5" font-family="sans" font-size="10.00">samtools_view_md</text>
</g>
<!-- 5&#45;&gt;29 -->
<g id="edge63" class="edge">
<title>5&#45;&gt;29</title>
<path fill="none" stroke="grey" stroke-width="2" d="M997.25,-881.51C1090.02,-881.81 1315.56,-877.34 1369.14,-828 1398.9,-800.6 1388.14,-779.45 1388.14,-739 1388.14,-739 1388.14,-739 1388.14,-593 1388.14,-518.17 1335.76,-442.28 1304.99,-404.16"/>
<polygon fill="grey" stroke="grey" stroke-width="2" points="1307.47,-401.67 1298.41,-396.18 1302.07,-406.12 1307.47,-401.67"/>
</g>
<!-- 30 -->
<g id="node31" class="node">
<title>30</title>
<path fill="none" stroke="#61d856" stroke-width="2" d="M732.64,-828C732.64,-828 687.64,-828 687.64,-828 681.64,-828 675.64,-822 675.64,-816 675.64,-816 675.64,-804 675.64,-804 675.64,-798 681.64,-792 687.64,-792 687.64,-792 732.64,-792 732.64,-792 738.64,-792 744.64,-798 744.64,-804 744.64,-804 744.64,-816 744.64,-816 744.64,-822 738.64,-828 732.64,-828"/>
<text text-anchor="middle" x="710.14" y="-807.5" font-family="sans" font-size="10.00">bwa_index</text>
</g>
<!-- 5&#45;&gt;30 -->
<g id="edge64" class="edge">
<title>5&#45;&gt;30</title>
<path fill="none" stroke="grey" stroke-width="2" d="M916.96,-870.29C878.04,-859.83 817.42,-843.29 765.14,-828 761.63,-826.97 757.99,-825.89 754.34,-824.79"/>
<polygon fill="grey" stroke="grey" stroke-width="2" points="755.3,-821.42 744.72,-821.86 753.26,-828.12 755.3,-821.42"/>
</g>
<!-- 34 -->
<g id="node35" class="node">
<title>34</title>
<path fill="none" stroke="#56c1d8" stroke-width="2" d="M511.14,-684C511.14,-684 445.14,-684 445.14,-684 439.14,-684 433.14,-678 433.14,-672 433.14,-672 433.14,-660 433.14,-660 433.14,-654 439.14,-648 445.14,-648 445.14,-648 511.14,-648 511.14,-648 517.14,-648 523.14,-654 523.14,-660 523.14,-660 523.14,-672 523.14,-672 523.14,-678 517.14,-684 511.14,-684"/>
<text text-anchor="middle" x="478.14" y="-663.5" font-family="sans" font-size="10.00">samtools_view</text>
</g>
<!-- 5&#45;&gt;34 -->
<g id="edge69" class="edge">
<title>5&#45;&gt;34</title>
<path fill="none" stroke="grey" stroke-width="2" d="M916.93,-879.13C806.34,-873.63 503.59,-856.13 469.14,-828 431.13,-796.95 432.98,-767.28 446.14,-720 448.81,-710.42 453.73,-700.84 458.93,-692.51"/>
<polygon fill="grey" stroke="grey" stroke-width="2" points="461.95,-694.29 464.58,-684.03 456.12,-690.41 461.95,-694.29"/>
</g>
<!-- 35 -->
<g id="node36" class="node">
<title>35</title>
<path fill="none" stroke="#56d8a2" stroke-width="2" d="M2289.14,-324C2289.14,-324 2119.14,-324 2119.14,-324 2113.14,-324 2107.14,-318 2107.14,-312 2107.14,-312 2107.14,-300 2107.14,-300 2107.14,-294 2113.14,-288 2119.14,-288 2119.14,-288 2289.14,-288 2289.14,-288 2295.14,-288 2301.14,-294 2301.14,-300 2301.14,-300 2301.14,-312 2301.14,-312 2301.14,-318 2295.14,-324 2289.14,-324"/>
<text text-anchor="middle" x="2204.14" y="-309" font-family="sans" font-size="10.00">gatk_haplotypecaller</text>
<text text-anchor="middle" x="2204.14" y="-298" font-family="sans" font-size="10.00">interval: 0542&#45;scattered.interval_list</text>
</g>
<!-- 5&#45;&gt;35 -->
<g id="edge70" class="edge">
<title>5&#45;&gt;35</title>
<path fill="none" stroke="grey" stroke-width="2" d="M997.27,-879.96C1191.21,-874.4 2022.14,-844.45 2022.14,-739 2022.14,-739 2022.14,-739 2022.14,-449 2022.14,-387.88 2086.73,-349.19 2138.96,-327.89"/>
<polygon fill="grey" stroke="grey" stroke-width="2" points="2140.53,-331.04 2148.55,-324.12 2137.96,-324.52 2140.53,-331.04"/>
</g>
<!-- 36 -->
<g id="node37" class="node">
<title>36</title>
<path fill="none" stroke="#56d8a2" stroke-width="2" d="M2077.14,-324C2077.14,-324 1907.14,-324 1907.14,-324 1901.14,-324 1895.14,-318 1895.14,-312 1895.14,-312 1895.14,-300 1895.14,-300 1895.14,-294 1901.14,-288 1907.14,-288 1907.14,-288 2077.14,-288 2077.14,-288 2083.14,-288 2089.14,-294 2089.14,-300 2089.14,-300 2089.14,-312 2089.14,-312 2089.14,-318 2083.14,-324 2077.14,-324"/>
<text text-anchor="middle" x="1992.14" y="-309" font-family="sans" font-size="10.00">gatk_haplotypecaller</text>
<text text-anchor="middle" x="1992.14" y="-298" font-family="sans" font-size="10.00">interval: 0541&#45;scattered.interval_list</text>
</g>
<!-- 5&#45;&gt;36 -->
<g id="edge72" class="edge">
<title>5&#45;&gt;36</title>
<path fill="none" stroke="grey" stroke-width="2" d="M997.25,-879.73C1121.7,-875.5 1500,-860.23 1618.14,-828 1705.4,-804.2 1801.14,-829.44 1801.14,-739 1801.14,-739 1801.14,-739 1801.14,-449 1801.14,-386.63 1867.54,-348.45 1922.04,-327.61"/>
<polygon fill="grey" stroke="grey" stroke-width="2" points="1923.54,-330.78 1931.71,-324.04 1921.12,-324.22 1923.54,-330.78"/>
</g>
<!-- 37 -->
<g id="node38" class="node">
<title>37</title>
<path fill="none" stroke="#56d8a2" stroke-width="2" d="M2713.14,-324C2713.14,-324 2543.14,-324 2543.14,-324 2537.14,-324 2531.14,-318 2531.14,-312 2531.14,-312 2531.14,-300 2531.14,-300 2531.14,-294 2537.14,-288 2543.14,-288 2543.14,-288 2713.14,-288 2713.14,-288 2719.14,-288 2725.14,-294 2725.14,-300 2725.14,-300 2725.14,-312 2725.14,-312 2725.14,-318 2719.14,-324 2713.14,-324"/>
<text text-anchor="middle" x="2628.14" y="-309" font-family="sans" font-size="10.00">gatk_haplotypecaller</text>
<text text-anchor="middle" x="2628.14" y="-298" font-family="sans" font-size="10.00">interval: 0542&#45;scattered.interval_list</text>
</g>
<!-- 5&#45;&gt;37 -->
<g id="edge74" class="edge">
<title>5&#45;&gt;37</title>
<path fill="none" stroke="grey" stroke-width="2" d="M997.38,-880.66C1183.9,-878.88 1965.6,-869.08 2206.14,-828 2339.88,-805.16 2498.14,-874.67 2498.14,-739 2498.14,-739 2498.14,-739 2498.14,-449 2498.14,-395.62 2548.73,-353.58 2586.79,-329.51"/>
<polygon fill="grey" stroke="grey" stroke-width="2" points="2588.98,-332.27 2595.67,-324.06 2585.32,-326.3 2588.98,-332.27"/>
</g>
<!-- 38 -->
<g id="node39" class="node">
<title>38</title>
<path fill="none" stroke="#56d8a2" stroke-width="2" d="M2501.14,-324C2501.14,-324 2331.14,-324 2331.14,-324 2325.14,-324 2319.14,-318 2319.14,-312 2319.14,-312 2319.14,-300 2319.14,-300 2319.14,-294 2325.14,-288 2331.14,-288 2331.14,-288 2501.14,-288 2501.14,-288 2507.14,-288 2513.14,-294 2513.14,-300 2513.14,-300 2513.14,-312 2513.14,-312 2513.14,-318 2507.14,-324 2501.14,-324"/>
<text text-anchor="middle" x="2416.14" y="-309" font-family="sans" font-size="10.00">gatk_haplotypecaller</text>
<text text-anchor="middle" x="2416.14" y="-298" font-family="sans" font-size="10.00">interval: 0541&#45;scattered.interval_list</text>
</g>
<!-- 5&#45;&gt;38 -->
<g id="edge76" class="edge">
<title>5&#45;&gt;38</title>
<path fill="none" stroke="grey" stroke-width="2" d="M997.46,-881.17C1224.08,-881.58 2329.14,-876.54 2329.14,-739 2329.14,-739 2329.14,-739 2329.14,-449 2329.14,-402.16 2363.99,-357.74 2389.57,-331.43"/>
<polygon fill="grey" stroke="grey" stroke-width="2" points="2392.23,-333.72 2396.84,-324.18 2387.28,-328.77 2392.23,-333.72"/>
</g>
<!-- 5&#45;&gt;39 -->
<g id="edge78" class="edge">
<title>5&#45;&gt;39</title>
<path fill="none" stroke="grey" stroke-width="2" d="M997.34,-881.68C1148.76,-883.2 1676.14,-878.48 1676.14,-739 1676.14,-739 1676.14,-739 1676.14,-449 1676.14,-399.63 1717.57,-356.02 1748.13,-330.56"/>
<polygon fill="grey" stroke="grey" stroke-width="2" points="1750.44,-333.19 1756.02,-324.18 1746.04,-327.74 1750.44,-333.19"/>
</g>
<!-- 5&#45;&gt;40 -->
<g id="edge80" class="edge">
<title>5&#45;&gt;40</title>
<path fill="none" stroke="grey" stroke-width="2" d="M997.28,-879.48C1096.51,-875.24 1350.9,-861.35 1428.14,-828 1484.31,-803.75 1533.14,-800.18 1533.14,-739 1533.14,-739 1533.14,-739 1533.14,-449 1533.14,-407.84 1547.18,-361.88 1557.47,-333.69"/>
<polygon fill="grey" stroke="grey" stroke-width="2" points="1560.81,-334.74 1561.06,-324.15 1554.26,-332.28 1560.81,-334.74"/>
</g>
<!-- 41 -->
<g id="node42" class="node">
<title>41</title>
<path fill="none" stroke="#d87d56" stroke-width="2" d="M127.14,-828C127.14,-828 59.14,-828 59.14,-828 53.14,-828 47.14,-822 47.14,-816 47.14,-816 47.14,-804 47.14,-804 47.14,-798 53.14,-792 59.14,-792 59.14,-792 127.14,-792 127.14,-792 133.14,-792 139.14,-798 139.14,-804 139.14,-804 139.14,-816 139.14,-816 139.14,-822 133.14,-828 127.14,-828"/>
<text text-anchor="middle" x="93.14" y="-807.5" font-family="sans" font-size="10.00">samtools_faidx</text>
</g>
<!-- 5&#45;&gt;41 -->
<g id="edge82" class="edge">
<title>5&#45;&gt;41</title>
<path fill="none" stroke="grey" stroke-width="2" d="M916.81,-880.74C799.66,-879.48 449.56,-872.01 163.14,-828 158.64,-827.31 154,-826.47 149.36,-825.54"/>
<polygon fill="grey" stroke="grey" stroke-width="2" points="149.74,-822.04 139.23,-823.38 148.28,-828.89 149.74,-822.04"/>
</g>
<!-- 42 -->
<g id="node43" class="node">
<title>42</title>
<path fill="none" stroke="#d8ac56" stroke-width="2" d="M1016.64,-468C1016.64,-468 921.64,-468 921.64,-468 915.64,-468 909.64,-462 909.64,-456 909.64,-456 909.64,-444 909.64,-444 909.64,-438 915.64,-432 921.64,-432 921.64,-432 1016.64,-432 1016.64,-432 1022.64,-432 1028.64,-438 1028.64,-444 1028.64,-444 1028.64,-456 1028.64,-456 1028.64,-462 1022.64,-468 1016.64,-468"/>
<text text-anchor="middle" x="969.14" y="-447.5" font-family="sans" font-size="10.00">gatk_markduplicates</text>
</g>
<!-- 5&#45;&gt;42 -->
<g id="edge84" class="edge">
<title>5&#45;&gt;42</title>
<path fill="none" stroke="grey" stroke-width="2" d="M949.45,-863.91C938.35,-837.62 919.14,-785.45 919.14,-739 919.14,-739 919.14,-739 919.14,-593 919.14,-550.68 939.14,-505.09 953.85,-477.3"/>
<polygon fill="grey" stroke="grey" stroke-width="2" points="957.07,-478.7 958.78,-468.24 950.92,-475.35 957.07,-478.7"/>
</g>
<!-- 43 -->
<g id="node44" class="node">
<title>43</title>
<path fill="none" stroke="#d8ac56" stroke-width="2" d="M1284.64,-468C1284.64,-468 1189.64,-468 1189.64,-468 1183.64,-468 1177.64,-462 1177.64,-456 1177.64,-456 1177.64,-444 1177.64,-444 1177.64,-438 1183.64,-432 1189.64,-432 1189.64,-432 1284.64,-432 1284.64,-432 1290.64,-432 1296.64,-438 1296.64,-444 1296.64,-444 1296.64,-456 1296.64,-456 1296.64,-462 1290.64,-468 1284.64,-468"/>
<text text-anchor="middle" x="1237.14" y="-447.5" font-family="sans" font-size="10.00">gatk_markduplicates</text>
</g>
<!-- 5&#45;&gt;43 -->
<g id="edge87" class="edge">
<title>5&#45;&gt;43</title>
<path fill="none" stroke="grey" stroke-width="2" d="M997.17,-875C1041.27,-867.52 1113.68,-852.62 1172.14,-828 1228.07,-804.45 1251.94,-804.69 1288.14,-756 1312.59,-723.12 1312.14,-707.97 1312.14,-667 1312.14,-667 1312.14,-667 1312.14,-593 1312.14,-547.77 1282.03,-502.85 1259.96,-476"/>
<polygon fill="grey" stroke="grey" stroke-width="2" points="1262.55,-473.64 1253.42,-468.27 1257.21,-478.16 1262.55,-473.64"/>
</g>
<!-- 44 -->
<g id="node45" class="node">
<title>44</title>
<path fill="none" stroke="#56a9d8" stroke-width="2" d="M511.14,-756C511.14,-756 467.14,-756 467.14,-756 461.14,-756 455.14,-750 455.14,-744 455.14,-744 455.14,-732 455.14,-732 455.14,-726 461.14,-720 467.14,-720 467.14,-720 511.14,-720 511.14,-720 517.14,-720 523.14,-726 523.14,-732 523.14,-732 523.14,-744 523.14,-744 523.14,-750 517.14,-756 511.14,-756"/>
<text text-anchor="middle" x="489.14" y="-735.5" font-family="sans" font-size="10.00">bwa_mem</text>
</g>
<!-- 5&#45;&gt;44 -->
<g id="edge89" class="edge">
<title>5&#45;&gt;44</title>
<path fill="none" stroke="grey" stroke-width="2" d="M916.91,-879.5C807.85,-875.04 512.82,-860.07 484.14,-828 469.3,-811.4 472.72,-785.34 478.57,-765.7"/>
<polygon fill="grey" stroke="grey" stroke-width="2" points="481.93,-766.69 481.76,-756.1 475.29,-764.48 481.93,-766.69"/>
</g>
<!-- 49 -->
<g id="node50" class="node">
<title>49</title>
<path fill="none" stroke="#56c1d8" stroke-width="2" d="M1045.14,-684C1045.14,-684 979.14,-684 979.14,-684 973.14,-684 967.14,-678 967.14,-672 967.14,-672 967.14,-660 967.14,-660 967.14,-654 973.14,-648 979.14,-648 979.14,-648 1045.14,-648 1045.14,-648 1051.14,-648 1057.14,-654 1057.14,-660 1057.14,-660 1057.14,-672 1057.14,-672 1057.14,-678 1051.14,-684 1045.14,-684"/>
<text text-anchor="middle" x="1012.14" y="-663.5" font-family="sans" font-size="10.00">samtools_view</text>
</g>
<!-- 5&#45;&gt;49 -->
<g id="edge97" class="edge">
<title>5&#45;&gt;49</title>
<path fill="none" stroke="grey" stroke-width="2" d="M997.31,-874.3C1024.06,-867.53 1057.29,-854.14 1074.14,-828 1102.57,-783.91 1063.08,-724.78 1035.29,-691.84"/>
<polygon fill="grey" stroke="grey" stroke-width="2" points="1037.73,-689.3 1028.53,-684.05 1032.45,-693.89 1037.73,-689.3"/>
</g>
<!-- 50 -->
<g id="node51" class="node">
<title>50</title>
<path fill="none" stroke="#56c1d8" stroke-width="2" d="M1205.14,-684C1205.14,-684 1139.14,-684 1139.14,-684 1133.14,-684 1127.14,-678 1127.14,-672 1127.14,-672 1127.14,-660 1127.14,-660 1127.14,-654 1133.14,-648 1139.14,-648 1139.14,-648 1205.14,-648 1205.14,-648 1211.14,-648 1217.14,-654 1217.14,-660 1217.14,-660 1217.14,-672 1217.14,-672 1217.14,-678 1211.14,-684 1205.14,-684"/>
<text text-anchor="middle" x="1172.14" y="-663.5" font-family="sans" font-size="10.00">samtools_view</text>
</g>
<!-- 5&#45;&gt;50 -->
<g id="edge99" class="edge">
<title>5&#45;&gt;50</title>
<path fill="none" stroke="grey" stroke-width="2" d="M997.32,-873.36C1026.59,-866.01 1065.6,-852.33 1092.14,-828 1102.92,-818.12 1140.79,-736.43 1160.31,-693.36"/>
<polygon fill="grey" stroke="grey" stroke-width="2" points="1163.59,-694.6 1164.52,-684.05 1157.21,-691.72 1163.59,-694.6"/>
</g>
<!-- 51 -->
<g id="node52" class="node">
<title>51</title>
<path fill="none" stroke="#56a9d8" stroke-width="2" d="M1028.14,-756C1028.14,-756 984.14,-756 984.14,-756 978.14,-756 972.14,-750 972.14,-744 972.14,-744 972.14,-732 972.14,-732 972.14,-726 978.14,-720 984.14,-720 984.14,-720 1028.14,-720 1028.14,-720 1034.14,-720 1040.14,-726 1040.14,-732 1040.14,-732 1040.14,-744 1040.14,-744 1040.14,-750 1034.14,-756 1028.14,-756"/>
<text text-anchor="middle" x="1006.14" y="-735.5" font-family="sans" font-size="10.00">bwa_mem</text>
</g>
<!-- 5&#45;&gt;51 -->
<g id="edge100" class="edge">
<title>5&#45;&gt;51</title>
<path fill="none" stroke="grey" stroke-width="2" d="M959.23,-863.83C961.8,-845.58 967.01,-816.08 976.14,-792 979.67,-782.71 984.65,-773.09 989.54,-764.65"/>
<polygon fill="grey" stroke="grey" stroke-width="2" points="992.58,-766.38 994.74,-756.01 986.59,-762.77 992.58,-766.38"/>
</g>
<!-- 52 -->
<g id="node53" class="node">
<title>52</title>
<path fill="none" stroke="#56a9d8" stroke-width="2" d="M1215.14,-756C1215.14,-756 1171.14,-756 1171.14,-756 1165.14,-756 1159.14,-750 1159.14,-744 1159.14,-744 1159.14,-732 1159.14,-732 1159.14,-726 1165.14,-720 1171.14,-720 1171.14,-720 1215.14,-720 1215.14,-720 1221.14,-720 1227.14,-726 1227.14,-732 1227.14,-732 1227.14,-744 1227.14,-744 1227.14,-750 1221.14,-756 1215.14,-756"/>
<text text-anchor="middle" x="1193.14" y="-735.5" font-family="sans" font-size="10.00">bwa_mem</text>
</g>
<!-- 5&#45;&gt;52 -->
<g id="edge103" class="edge">
<title>5&#45;&gt;52</title>
<path fill="none" stroke="grey" stroke-width="2" d="M997.23,-878.7C1038.37,-874.45 1102.27,-862.35 1145.14,-828 1165.07,-812.04 1177.84,-785.49 1185.17,-765.53"/>
<polygon fill="grey" stroke="grey" stroke-width="2" points="1188.48,-766.66 1188.42,-756.07 1181.86,-764.39 1188.48,-766.66"/>
</g>
<!-- 6 -->
<g id="node7" class="node">
<title>6</title>
<path fill="none" stroke="#9fd856" stroke-width="2" d="M2153.64,-180C2153.64,-180 2042.64,-180 2042.64,-180 2036.64,-180 2030.64,-174 2030.64,-168 2030.64,-168 2030.64,-156 2030.64,-156 2030.64,-150 2036.64,-144 2042.64,-144 2042.64,-144 2153.64,-144 2153.64,-144 2159.64,-144 2165.64,-150 2165.64,-156 2165.64,-156 2165.64,-168 2165.64,-168 2165.64,-174 2159.64,-180 2153.64,-180"/>
<text text-anchor="middle" x="2098.14" y="-159.5" font-family="sans" font-size="10.00">gatk_genomicsdbimport</text>
</g>
<!-- 6&#45;&gt;2 -->
<g id="edge7" class="edge">
<title>6&#45;&gt;2</title>
<path fill="none" stroke="grey" stroke-width="2" d="M2098.14,-143.7C2098.14,-135.98 2098.14,-126.71 2098.14,-118.11"/>
<polygon fill="grey" stroke="grey" stroke-width="2" points="2101.64,-118.1 2098.14,-108.1 2094.64,-118.1 2101.64,-118.1"/>
</g>
<!-- 7&#45;&gt;3 -->
<g id="edge8" class="edge">
<title>7&#45;&gt;3</title>
<path fill="none" stroke="grey" stroke-width="2" d="M1443.14,-575.95C1443.14,-549.29 1443.14,-496.11 1443.14,-451 1443.14,-451 1443.14,-451 1443.14,-305 1443.14,-264.03 1450.79,-242.02 1419.14,-216 1362.23,-169.21 834.08,-163.7 687.64,-163.07"/>
<polygon fill="grey" stroke="grey" stroke-width="2" points="687.39,-159.57 677.37,-163.04 687.36,-166.57 687.39,-159.57"/>
</g>
<!-- 8&#45;&gt;3 -->
<g id="edge9" class="edge">
<title>8&#45;&gt;3</title>
<path fill="none" stroke="grey" stroke-width="2" d="M120.14,-647.95C120.14,-621.29 120.14,-568.11 120.14,-523 120.14,-523 120.14,-523 120.14,-305 120.14,-264.55 109.05,-243.03 139.14,-216 174.29,-184.42 501.41,-168.81 613.03,-164.36"/>
<polygon fill="grey" stroke="grey" stroke-width="2" points="613.28,-167.86 623.14,-163.97 613.01,-160.86 613.28,-167.86"/>
</g>
<!-- 9 -->
<g id="node10" class="node">
<title>9</title>
<path fill="none" stroke="#56d8b1" stroke-width="2" d="M79.64,-252C79.64,-252 38.64,-252 38.64,-252 32.64,-252 26.64,-246 26.64,-240 26.64,-240 26.64,-228 26.64,-228 26.64,-222 32.64,-216 38.64,-216 38.64,-216 79.64,-216 79.64,-216 85.64,-216 91.64,-222 91.64,-228 91.64,-228 91.64,-240 91.64,-240 91.64,-246 85.64,-252 79.64,-252"/>
<text text-anchor="middle" x="59.14" y="-237" font-family="sans" font-size="10.00">fastqc</text>
<text text-anchor="middle" x="59.14" y="-226" font-family="sans" font-size="10.00">library: T2</text>
</g>
<!-- 9&#45;&gt;3 -->
<g id="edge10" class="edge">
<title>9&#45;&gt;3</title>
<path fill="none" stroke="grey" stroke-width="2" d="M91.7,-220.04C96.49,-218.49 101.4,-217.07 106.14,-216 293.15,-173.77 523.81,-165.19 612.75,-163.44"/>
<polygon fill="grey" stroke="grey" stroke-width="2" points="612.94,-166.94 622.88,-163.26 612.82,-159.94 612.94,-166.94"/>
</g>
<!-- 10 -->
<g id="node11" class="node">
<title>10</title>
<path fill="none" stroke="#56d8b1" stroke-width="2" d="M201.64,-252C201.64,-252 160.64,-252 160.64,-252 154.64,-252 148.64,-246 148.64,-240 148.64,-240 148.64,-228 148.64,-228 148.64,-222 154.64,-216 160.64,-216 160.64,-216 201.64,-216 201.64,-216 207.64,-216 213.64,-222 213.64,-228 213.64,-228 213.64,-240 213.64,-240 213.64,-246 207.64,-252 201.64,-252"/>
<text text-anchor="middle" x="181.14" y="-237" font-family="sans" font-size="10.00">fastqc</text>
<text text-anchor="middle" x="181.14" y="-226" font-family="sans" font-size="10.00">library: T3</text>
</g>
<!-- 10&#45;&gt;3 -->
<g id="edge11" class="edge">
<title>10&#45;&gt;3</title>
<path fill="none" stroke="grey" stroke-width="2" d="M214,-218.48C216.72,-217.55 219.46,-216.71 222.14,-216 363.25,-178.75 537.6,-167.5 612.77,-164.25"/>
<polygon fill="grey" stroke="grey" stroke-width="2" points="613.27,-167.73 623.12,-163.83 612.99,-160.74 613.27,-167.73"/>
</g>
<!-- 11 -->
<g id="node12" class="node">
<title>11</title>
<path fill="none" stroke="#56d8b1" stroke-width="2" d="M292.64,-252C292.64,-252 243.64,-252 243.64,-252 237.64,-252 231.64,-246 231.64,-240 231.64,-240 231.64,-228 231.64,-228 231.64,-222 237.64,-216 243.64,-216 243.64,-216 292.64,-216 292.64,-216 298.64,-216 304.64,-222 304.64,-228 304.64,-228 304.64,-240 304.64,-240 304.64,-246 298.64,-252 292.64,-252"/>
<text text-anchor="middle" x="268.14" y="-237" font-family="sans" font-size="10.00">fastqc</text>
<text text-anchor="middle" x="268.14" y="-226" font-family="sans" font-size="10.00">library: DS2</text>
</g>
<!-- 11&#45;&gt;3 -->
<g id="edge12" class="edge">
<title>11&#45;&gt;3</title>
<path fill="none" stroke="grey" stroke-width="2" d="M304.85,-218.71C307.97,-217.72 311.1,-216.8 314.14,-216 420.56,-188.24 549.95,-172.82 612.58,-166.48"/>
<polygon fill="grey" stroke="grey" stroke-width="2" points="613.16,-169.94 622.77,-165.47 612.47,-162.97 613.16,-169.94"/>
</g>
<!-- 12 -->
<g id="node13" class="node">
<title>12</title>
<path fill="none" stroke="#b6d856" stroke-width="2" d="M1053.14,-828C1053.14,-828 997.14,-828 997.14,-828 991.14,-828 985.14,-822 985.14,-816 985.14,-816 985.14,-804 985.14,-804 985.14,-798 991.14,-792 997.14,-792 997.14,-792 1053.14,-792 1053.14,-792 1059.14,-792 1065.14,-798 1065.14,-804 1065.14,-804 1065.14,-816 1065.14,-816 1065.14,-822 1059.14,-828 1053.14,-828"/>
<text text-anchor="middle" x="1025.14" y="-813" font-family="sans" font-size="10.00">trimmomatic</text>
<text text-anchor="middle" x="1025.14" y="-802" font-family="sans" font-size="10.00">library: T2</text>
</g>
<!-- 12&#45;&gt;3 -->
<g id="edge13" class="edge">
<title>12&#45;&gt;3</title>
<path fill="none" stroke="grey" stroke-width="2" d="M1065.3,-803.25C1119.07,-794.83 1210.65,-777.77 1236.14,-756 1268.85,-728.07 1274.14,-710.01 1274.14,-667 1274.14,-667 1274.14,-667 1274.14,-593 1274.14,-453.51 1435.97,-396.37 1348.14,-288 1263.9,-184.05 819.51,-166.51 687.28,-163.58"/>
<polygon fill="grey" stroke="grey" stroke-width="2" points="687.31,-160.08 677.24,-163.37 687.17,-167.08 687.31,-160.08"/>
</g>
<!-- 12&#45;&gt;51 -->
<g id="edge101" class="edge">
<title>12&#45;&gt;51</title>
<path fill="none" stroke="grey" stroke-width="2" d="M1020.45,-791.7C1018.33,-783.9 1015.78,-774.51 1013.43,-765.83"/>
<polygon fill="grey" stroke="grey" stroke-width="2" points="1016.78,-764.84 1010.79,-756.1 1010.03,-766.67 1016.78,-764.84"/>
</g>
<!-- 13 -->
<g id="node14" class="node">
<title>13</title>
<path fill="none" stroke="#b6d856" stroke-width="2" d="M1348.14,-828C1348.14,-828 1292.14,-828 1292.14,-828 1286.14,-828 1280.14,-822 1280.14,-816 1280.14,-816 1280.14,-804 1280.14,-804 1280.14,-798 1286.14,-792 1292.14,-792 1292.14,-792 1348.14,-792 1348.14,-792 1354.14,-792 1360.14,-798 1360.14,-804 1360.14,-804 1360.14,-816 1360.14,-816 1360.14,-822 1354.14,-828 1348.14,-828"/>
<text text-anchor="middle" x="1320.14" y="-813" font-family="sans" font-size="10.00">trimmomatic</text>
<text text-anchor="middle" x="1320.14" y="-802" font-family="sans" font-size="10.00">library: T3</text>
</g>
<!-- 13&#45;&gt;3 -->
<g id="edge14" class="edge">
<title>13&#45;&gt;3</title>
<path fill="none" stroke="grey" stroke-width="2" d="M1326.21,-791.76C1334.98,-765.28 1350.14,-712.86 1350.14,-667 1350.14,-667 1350.14,-667 1350.14,-593 1350.14,-494.8 1405.14,-477.2 1405.14,-379 1405.14,-379 1405.14,-379 1405.14,-305 1405.14,-228.63 1330.74,-239.71 1258.14,-216 1151.07,-181.03 802.48,-167.59 687.39,-164.04"/>
<polygon fill="grey" stroke="grey" stroke-width="2" points="687.41,-160.54 677.31,-163.73 687.2,-167.53 687.41,-160.54"/>
</g>
<!-- 13&#45;&gt;52 -->
<g id="edge104" class="edge">
<title>13&#45;&gt;52</title>
<path fill="none" stroke="grey" stroke-width="2" d="M1289.08,-791.88C1272.32,-782.64 1251.44,-771.13 1233.44,-761.21"/>
<polygon fill="grey" stroke="grey" stroke-width="2" points="1234.78,-757.95 1224.33,-756.19 1231.4,-764.08 1234.78,-757.95"/>
</g>
<!-- 14 -->
<g id="node15" class="node">
<title>14</title>
<path fill="none" stroke="#b6d856" stroke-width="2" d="M561.14,-828C561.14,-828 505.14,-828 505.14,-828 499.14,-828 493.14,-822 493.14,-816 493.14,-816 493.14,-804 493.14,-804 493.14,-798 499.14,-792 505.14,-792 505.14,-792 561.14,-792 561.14,-792 567.14,-792 573.14,-798 573.14,-804 573.14,-804 573.14,-816 573.14,-816 573.14,-822 567.14,-828 561.14,-828"/>
<text text-anchor="middle" x="533.14" y="-813" font-family="sans" font-size="10.00">trimmomatic</text>
<text text-anchor="middle" x="533.14" y="-802" font-family="sans" font-size="10.00">library: DS2</text>
</g>
<!-- 14&#45;&gt;3 -->
<g id="edge15" class="edge">
<title>14&#45;&gt;3</title>
<path fill="none" stroke="grey" stroke-width="2" d="M536.74,-791.95C547.25,-740.65 577.14,-583.13 577.14,-451 577.14,-451 577.14,-451 577.14,-377 577.14,-316.48 612.74,-309.65 631.14,-252 637.62,-231.71 642.54,-208.12 645.75,-190.32"/>
<polygon fill="grey" stroke="grey" stroke-width="2" points="649.23,-190.78 647.49,-180.32 642.33,-189.58 649.23,-190.78"/>
</g>
<!-- 14&#45;&gt;44 -->
<g id="edge90" class="edge">
<title>14&#45;&gt;44</title>
<path fill="none" stroke="grey" stroke-width="2" d="M522.27,-791.7C517.15,-783.56 510.95,-773.69 505.3,-764.7"/>
<polygon fill="grey" stroke="grey" stroke-width="2" points="508.18,-762.71 499.89,-756.1 502.25,-766.43 508.18,-762.71"/>
</g>
<!-- 15 -->
<g id="node16" class="node">
<title>15</title>
<path fill="none" stroke="#d8bc56" stroke-width="2" d="M1045.64,-324C1045.64,-324 978.64,-324 978.64,-324 972.64,-324 966.64,-318 966.64,-312 966.64,-312 966.64,-300 966.64,-300 966.64,-294 972.64,-288 978.64,-288 978.64,-288 1045.64,-288 1045.64,-288 1051.64,-288 1057.64,-294 1057.64,-300 1057.64,-300 1057.64,-312 1057.64,-312 1057.64,-318 1051.64,-324 1045.64,-324"/>
<text text-anchor="middle" x="1012.14" y="-303.5" font-family="sans" font-size="10.00">samtools_stats</text>
</g>
<!-- 15&#45;&gt;3 -->
<g id="edge16" class="edge">
<title>15&#45;&gt;3</title>
<path fill="none" stroke="grey" stroke-width="2" d="M966.56,-290.33C963.72,-289.51 960.9,-288.73 958.14,-288 885.17,-268.65 859.12,-286.83 792.14,-252 771.21,-241.12 772.47,-229.52 753.14,-216 732.37,-201.47 707.09,-188.4 686.77,-178.88"/>
<polygon fill="grey" stroke="grey" stroke-width="2" points="688.07,-175.62 677.52,-174.63 685.15,-181.98 688.07,-175.62"/>
</g>
<!-- 16 -->
<g id="node17" class="node">
<title>16</title>
<path fill="none" stroke="#d8bc56" stroke-width="2" d="M1326.64,-324C1326.64,-324 1259.64,-324 1259.64,-324 1253.64,-324 1247.64,-318 1247.64,-312 1247.64,-312 1247.64,-300 1247.64,-300 1247.64,-294 1253.64,-288 1259.64,-288 1259.64,-288 1326.64,-288 1326.64,-288 1332.64,-288 1338.64,-294 1338.64,-300 1338.64,-300 1338.64,-312 1338.64,-312 1338.64,-318 1332.64,-324 1326.64,-324"/>
<text text-anchor="middle" x="1293.14" y="-303.5" font-family="sans" font-size="10.00">samtools_stats</text>
</g>
<!-- 16&#45;&gt;3 -->
<g id="edge17" class="edge">
<title>16&#45;&gt;3</title>
<path fill="none" stroke="grey" stroke-width="2" d="M1247.59,-291.98C1242.39,-290.59 1237.16,-289.24 1232.14,-288 1027.55,-237.57 779.67,-188.18 687.24,-170.16"/>
<polygon fill="grey" stroke="grey" stroke-width="2" points="687.74,-166.69 677.25,-168.22 686.4,-173.56 687.74,-166.69"/>
</g>
<!-- 17&#45;&gt;3 -->
<g id="edge18" class="edge">
<title>17&#45;&gt;3</title>
<path fill="none" stroke="grey" stroke-width="2" d="M594.44,-215.7C603.58,-207.05 614.78,-196.45 624.74,-187.03"/>
<polygon fill="grey" stroke="grey" stroke-width="2" points="627.2,-189.52 632.06,-180.1 622.39,-184.43 627.2,-189.52"/>
</g>
<!-- 18&#45;&gt;3 -->
<g id="edge19" class="edge">
<title>18&#45;&gt;3</title>
<path fill="none" stroke="grey" stroke-width="2" d="M696.06,-215.7C688.75,-207.3 679.83,-197.07 671.81,-187.86"/>
<polygon fill="grey" stroke="grey" stroke-width="2" points="674.26,-185.34 665.05,-180.1 668.98,-189.94 674.26,-185.34"/>
</g>
<!-- 19&#45;&gt;3 -->
<g id="edge20" class="edge">
<title>19&#45;&gt;3</title>
<path fill="none" stroke="grey" stroke-width="2" d="M800.43,-220.49C768.43,-208.24 719.79,-189.64 686.57,-176.93"/>
<polygon fill="grey" stroke="grey" stroke-width="2" points="687.81,-173.66 677.22,-173.36 685.31,-180.2 687.81,-173.66"/>
</g>
<!-- 20&#45;&gt;3 -->
<g id="edge21" class="edge">
<title>20&#45;&gt;3</title>
<path fill="none" stroke="grey" stroke-width="2" d="M512.92,-219.5C541.83,-207.6 583.88,-190.28 613.81,-177.96"/>
<polygon fill="grey" stroke="grey" stroke-width="2" points="615.15,-181.19 623.07,-174.15 612.49,-174.72 615.15,-181.19"/>
</g>
<!-- 21&#45;&gt;3 -->
<g id="edge22" class="edge">
<title>21&#45;&gt;3</title>
<path fill="none" stroke="grey" stroke-width="2" d="M429.74,-218.47C432.92,-217.63 436.07,-216.8 439.14,-216 500.09,-200.12 571.16,-182.44 613.31,-172.04"/>
<polygon fill="grey" stroke="grey" stroke-width="2" points="614.25,-175.42 623.13,-169.63 612.58,-168.62 614.25,-175.42"/>
</g>
<!-- 22 -->
<g id="node23" class="node">
<title>22</title>
<path fill="none" stroke="#56d0d8" stroke-width="2" d="M529.14,-612C529.14,-612 467.14,-612 467.14,-612 461.14,-612 455.14,-606 455.14,-600 455.14,-600 455.14,-588 455.14,-588 455.14,-582 461.14,-576 467.14,-576 467.14,-576 529.14,-576 529.14,-576 535.14,-576 541.14,-582 541.14,-588 541.14,-588 541.14,-600 541.14,-600 541.14,-606 535.14,-612 529.14,-612"/>
<text text-anchor="middle" x="498.14" y="-591.5" font-family="sans" font-size="10.00">samtools_sort</text>
</g>
<!-- 22&#45;&gt;4 -->
<g id="edge23" class="edge">
<title>22&#45;&gt;4</title>
<path fill="none" stroke="grey" stroke-width="2" d="M475.14,-575.94C464.38,-566.6 452.55,-554.08 446.14,-540 437.34,-520.66 435.96,-496.51 436.57,-478.25"/>
<polygon fill="grey" stroke="grey" stroke-width="2" points="440.07,-478.44 437.13,-468.26 433.08,-478.05 440.07,-478.44"/>
</g>
<!-- 23 -->
<g id="node24" class="node">
<title>23</title>
<path fill="none" stroke="#d89556" stroke-width="2" d="M537.14,-540C537.14,-540 467.14,-540 467.14,-540 461.14,-540 455.14,-534 455.14,-528 455.14,-528 455.14,-516 455.14,-516 455.14,-510 461.14,-504 467.14,-504 467.14,-504 537.14,-504 537.14,-504 543.14,-504 549.14,-510 549.14,-516 549.14,-516 549.14,-528 549.14,-528 549.14,-534 543.14,-540 537.14,-540"/>
<text text-anchor="middle" x="502.14" y="-519.5" font-family="sans" font-size="10.00">samtools_index</text>
</g>
<!-- 22&#45;&gt;23 -->
<g id="edge52" class="edge">
<title>22&#45;&gt;23</title>
<path fill="none" stroke="grey" stroke-width="2" d="M499.13,-575.7C499.57,-567.98 500.1,-558.71 500.59,-550.11"/>
<polygon fill="grey" stroke="grey" stroke-width="2" points="504.09,-550.29 501.17,-540.1 497.1,-549.89 504.09,-550.29"/>
</g>
<!-- 23&#45;&gt;4 -->
<g id="edge25" class="edge">
<title>23&#45;&gt;4</title>
<path fill="none" stroke="grey" stroke-width="2" d="M486.57,-503.7C478.94,-495.22 469.62,-484.86 461.27,-475.58"/>
<polygon fill="grey" stroke="grey" stroke-width="2" points="463.83,-473.2 454.54,-468.1 458.63,-477.88 463.83,-473.2"/>
</g>
<!-- 24 -->
<g id="node25" class="node">
<title>24</title>
<path fill="none" stroke="#56d873" stroke-width="2" d="M2133.64,-252C2133.64,-252 2062.64,-252 2062.64,-252 2056.64,-252 2050.64,-246 2050.64,-240 2050.64,-240 2050.64,-228 2050.64,-228 2050.64,-222 2056.64,-216 2062.64,-216 2062.64,-216 2133.64,-216 2133.64,-216 2139.64,-216 2145.64,-222 2145.64,-228 2145.64,-228 2145.64,-240 2145.64,-240 2145.64,-246 2139.64,-252 2133.64,-252"/>
<text text-anchor="middle" x="2098.14" y="-231.5" font-family="sans" font-size="10.00">gatk_gathervcfs</text>
</g>
<!-- 24&#45;&gt;6 -->
<g id="edge26" class="edge">
<title>24&#45;&gt;6</title>
<path fill="none" stroke="grey" stroke-width="2" d="M2098.14,-215.7C2098.14,-207.98 2098.14,-198.71 2098.14,-190.11"/>
<polygon fill="grey" stroke="grey" stroke-width="2" points="2101.64,-190.1 2098.14,-180.1 2094.64,-190.1 2101.64,-190.1"/>
</g>
<!-- 25 -->
<g id="node26" class="node">
<title>25</title>
<path fill="none" stroke="#56d873" stroke-width="2" d="M2451.64,-252C2451.64,-252 2380.64,-252 2380.64,-252 2374.64,-252 2368.64,-246 2368.64,-240 2368.64,-240 2368.64,-228 2368.64,-228 2368.64,-222 2374.64,-216 2380.64,-216 2380.64,-216 2451.64,-216 2451.64,-216 2457.64,-216 2463.64,-222 2463.64,-228 2463.64,-228 2463.64,-240 2463.64,-240 2463.64,-246 2457.64,-252 2451.64,-252"/>
<text text-anchor="middle" x="2416.14" y="-231.5" font-family="sans" font-size="10.00">gatk_gathervcfs</text>
</g>
<!-- 25&#45;&gt;6 -->
<g id="edge27" class="edge">
<title>25&#45;&gt;6</title>
<path fill="none" stroke="grey" stroke-width="2" d="M2368.54,-222.52C2317.57,-211.3 2235.93,-193.33 2175.68,-180.07"/>
<polygon fill="grey" stroke="grey" stroke-width="2" points="2176.34,-176.63 2165.82,-177.9 2174.83,-183.47 2176.34,-176.63"/>
</g>
<!-- 26 -->
<g id="node27" class="node">
<title>26</title>
<path fill="none" stroke="#56d873" stroke-width="2" d="M1815.64,-252C1815.64,-252 1744.64,-252 1744.64,-252 1738.64,-252 1732.64,-246 1732.64,-240 1732.64,-240 1732.64,-228 1732.64,-228 1732.64,-222 1738.64,-216 1744.64,-216 1744.64,-216 1815.64,-216 1815.64,-216 1821.64,-216 1827.64,-222 1827.64,-228 1827.64,-228 1827.64,-240 1827.64,-240 1827.64,-246 1821.64,-252 1815.64,-252"/>
<text text-anchor="middle" x="1780.14" y="-231.5" font-family="sans" font-size="10.00">gatk_gathervcfs</text>
</g>
<!-- 26&#45;&gt;6 -->
<g id="edge28" class="edge">
<title>26&#45;&gt;6</title>
<path fill="none" stroke="grey" stroke-width="2" d="M1827.75,-222.52C1878.71,-211.3 1960.35,-193.33 2020.61,-180.07"/>
<polygon fill="grey" stroke="grey" stroke-width="2" points="2021.45,-183.47 2030.47,-177.9 2019.95,-176.63 2021.45,-183.47"/>
</g>
<!-- 27 -->
<g id="node28" class="node">
<title>27</title>
<path fill="none" stroke="#d86e56" stroke-width="2" d="M137.14,-756C137.14,-756 27.14,-756 27.14,-756 21.14,-756 15.14,-750 15.14,-744 15.14,-744 15.14,-732 15.14,-732 15.14,-726 21.14,-720 27.14,-720 27.14,-720 137.14,-720 137.14,-720 143.14,-720 149.14,-726 149.14,-732 149.14,-732 149.14,-744 149.14,-744 149.14,-750 143.14,-756 137.14,-756"/>
<text text-anchor="middle" x="82.14" y="-735.5" font-family="sans" font-size="10.00">bedtools_makewindows</text>
</g>
<!-- 27&#45;&gt;8 -->
<g id="edge31" class="edge">
<title>27&#45;&gt;8</title>
<path fill="none" stroke="grey" stroke-width="2" d="M91.54,-719.7C95.91,-711.64 101.2,-701.89 106.04,-692.98"/>
<polygon fill="grey" stroke="grey" stroke-width="2" points="109.16,-694.56 110.86,-684.1 103.01,-691.22 109.16,-694.56"/>
</g>
<!-- 28&#45;&gt;15 -->
<g id="edge32" class="edge">
<title>28&#45;&gt;15</title>
<path fill="none" stroke="grey" stroke-width="2" d="M979.77,-359.7C984.77,-351.56 990.83,-341.69 996.36,-332.7"/>
<polygon fill="grey" stroke="grey" stroke-width="2" points="999.38,-334.46 1001.64,-324.1 993.42,-330.79 999.38,-334.46"/>
</g>
<!-- 28&#45;&gt;18 -->
<g id="edge36" class="edge">
<title>28&#45;&gt;18</title>
<path fill="none" stroke="grey" stroke-width="2" d="M913.36,-360.95C885.91,-351.95 852.84,-339.41 825.14,-324 792.31,-305.73 758.92,-278.42 736.83,-258.87"/>
<polygon fill="grey" stroke="grey" stroke-width="2" points="739.01,-256.12 729.23,-252.05 734.34,-261.33 739.01,-256.12"/>
</g>
<!-- 31 -->
<g id="node32" class="node">
<title>31</title>
<path fill="none" stroke="#c6d856" stroke-width="2" d="M936.64,-324C936.64,-324 845.64,-324 845.64,-324 839.64,-324 833.64,-318 833.64,-312 833.64,-312 833.64,-300 833.64,-300 833.64,-294 839.64,-288 845.64,-288 845.64,-288 936.64,-288 936.64,-288 942.64,-288 948.64,-294 948.64,-300 948.64,-300 948.64,-312 948.64,-312 948.64,-318 942.64,-324 936.64,-324"/>
<text text-anchor="middle" x="891.14" y="-303.5" font-family="sans" font-size="10.00">samtools_index_md</text>
</g>
<!-- 28&#45;&gt;31 -->
<g id="edge65" class="edge">
<title>28&#45;&gt;31</title>
<path fill="none" stroke="grey" stroke-width="2" d="M949.86,-359.7C940.23,-351.05 928.41,-340.45 917.92,-331.03"/>
<polygon fill="grey" stroke="grey" stroke-width="2" points="919.98,-328.18 910.2,-324.1 915.31,-333.39 919.98,-328.18"/>
</g>
<!-- 28&#45;&gt;35 -->
<g id="edge71" class="edge">
<title>28&#45;&gt;35</title>
<path fill="none" stroke="grey" stroke-width="2" d="M1024.72,-372.79C1075.37,-369.06 1152.25,-363.64 1219.14,-360 1606.22,-338.92 1707.38,-362.61 2096.74,-324.07"/>
<polygon fill="grey" stroke="grey" stroke-width="2" points="2097.27,-327.53 2106.87,-323.06 2096.57,-320.57 2097.27,-327.53"/>
</g>
<!-- 28&#45;&gt;36 -->
<g id="edge73" class="edge">
<title>28&#45;&gt;36</title>
<path fill="none" stroke="grey" stroke-width="2" d="M1024.73,-373C1075.39,-369.4 1152.27,-364.08 1219.14,-360 1512.14,-342.13 1589.23,-355.25 1884.71,-324.09"/>
<polygon fill="grey" stroke="grey" stroke-width="2" points="1885.29,-327.54 1894.87,-323.01 1884.55,-320.58 1885.29,-327.54"/>
</g>
<!-- 29&#45;&gt;16 -->
<g id="edge33" class="edge">
<title>29&#45;&gt;16</title>
<path fill="none" stroke="grey" stroke-width="2" d="M1285.62,-359.7C1286.72,-351.98 1288.04,-342.71 1289.27,-334.11"/>
<polygon fill="grey" stroke="grey" stroke-width="2" points="1292.75,-334.5 1290.7,-324.1 1285.82,-333.51 1292.75,-334.5"/>
</g>
<!-- 29&#45;&gt;19 -->
<g id="edge40" class="edge">
<title>29&#45;&gt;19</title>
<path fill="none" stroke="grey" stroke-width="2" d="M1269.36,-359.67C1250.42,-336.34 1216.81,-296.71 1200.14,-288 1144.42,-258.86 960.03,-243.33 875.79,-237.61"/>
<polygon fill="grey" stroke="grey" stroke-width="2" points="876,-234.11 865.79,-236.94 875.54,-241.1 876,-234.11"/>
</g>
<!-- 32 -->
<g id="node33" class="node">
<title>32</title>
<path fill="none" stroke="#c6d856" stroke-width="2" d="M1178.64,-324C1178.64,-324 1087.64,-324 1087.64,-324 1081.64,-324 1075.64,-318 1075.64,-312 1075.64,-312 1075.64,-300 1075.64,-300 1075.64,-294 1081.64,-288 1087.64,-288 1087.64,-288 1178.64,-288 1178.64,-288 1184.64,-288 1190.64,-294 1190.64,-300 1190.64,-300 1190.64,-312 1190.64,-312 1190.64,-318 1184.64,-324 1178.64,-324"/>
<text text-anchor="middle" x="1133.14" y="-303.5" font-family="sans" font-size="10.00">samtools_index_md</text>
</g>
<!-- 29&#45;&gt;32 -->
<g id="edge66" class="edge">
<title>29&#45;&gt;32</title>
<path fill="none" stroke="grey" stroke-width="2" d="M1246.45,-359.88C1226.13,-350.39 1200.67,-338.51 1179.04,-328.42"/>
<polygon fill="grey" stroke="grey" stroke-width="2" points="1180.26,-325.13 1169.72,-324.07 1177.3,-331.47 1180.26,-325.13"/>
</g>
<!-- 29&#45;&gt;37 -->
<g id="edge75" class="edge">
<title>29&#45;&gt;37</title>
<path fill="none" stroke="grey" stroke-width="2" d="M1338.88,-376.92C1512.46,-376.18 2058.87,-370.17 2520.66,-324.08"/>
<polygon fill="grey" stroke="grey" stroke-width="2" points="2521.27,-327.53 2530.87,-323.05 2520.57,-320.57 2521.27,-327.53"/>
</g>
<!-- 29&#45;&gt;38 -->
<g id="edge77" class="edge">
<title>29&#45;&gt;38</title>
<path fill="none" stroke="grey" stroke-width="2" d="M1338.69,-376.23C1491.78,-373.66 1932.78,-363.24 2308.88,-324.07"/>
<polygon fill="grey" stroke="grey" stroke-width="2" points="2309.29,-327.54 2318.87,-323.02 2308.56,-320.58 2309.29,-327.54"/>
</g>
<!-- 30&#45;&gt;18 -->
<g id="edge37" class="edge">
<title>30&#45;&gt;18</title>
<path fill="none" stroke="grey" stroke-width="2" d="M710.17,-791.82C710.32,-710.37 710.92,-362.89 711.1,-262.35"/>
<polygon fill="grey" stroke="grey" stroke-width="2" points="714.6,-262.12 711.11,-252.11 707.6,-262.11 714.6,-262.12"/>
</g>
<!-- 30&#45;&gt;19 -->
<g id="edge41" class="edge">
<title>30&#45;&gt;19</title>
<path fill="none" stroke="grey" stroke-width="2" d="M715.55,-792C718.59,-781.69 722.17,-768.21 724.14,-756 740.75,-653.13 701.03,-378.23 753.14,-288 761.84,-272.95 776.74,-261.36 791.33,-252.91"/>
<polygon fill="grey" stroke="grey" stroke-width="2" points="793.19,-255.89 800.33,-248.06 789.87,-249.73 793.19,-255.89"/>
</g>
<!-- 30&#45;&gt;20 -->
<g id="edge45" class="edge">
<title>30&#45;&gt;20</title>
<path fill="none" stroke="grey" stroke-width="2" d="M707.11,-791.68C698.53,-744.41 671.9,-609.64 630.14,-504 616.76,-470.16 608.74,-463.85 591.14,-432 557.1,-370.39 516.29,-298.44 494.9,-260.86"/>
<polygon fill="grey" stroke="grey" stroke-width="2" points="497.88,-259.03 489.89,-252.07 491.8,-262.5 497.88,-259.03"/>
</g>
<!-- 30&#45;&gt;21 -->
<g id="edge49" class="edge">
<title>30&#45;&gt;21</title>
<path fill="none" stroke="grey" stroke-width="2" d="M694.99,-791.89C666.03,-760.01 599.68,-690.89 532.14,-648 497.17,-625.78 476.64,-640.05 446.14,-612 345.63,-519.57 354.04,-459.73 339.14,-324 337.4,-308.1 334.34,-303.26 339.14,-288 342.24,-278.15 347.89,-268.53 353.86,-260.25"/>
<polygon fill="grey" stroke="grey" stroke-width="2" points="356.77,-262.21 360.11,-252.15 351.23,-257.94 356.77,-262.21"/>
</g>
<!-- 30&#45;&gt;44 -->
<g id="edge91" class="edge">
<title>30&#45;&gt;44</title>
<path fill="none" stroke="grey" stroke-width="2" d="M675.61,-798.06C637.17,-785.89 574.97,-766.18 533.09,-752.92"/>
<polygon fill="grey" stroke="grey" stroke-width="2" points="534.02,-749.54 523.43,-749.86 531.91,-756.22 534.02,-749.54"/>
</g>
<!-- 30&#45;&gt;51 -->
<g id="edge102" class="edge">
<title>30&#45;&gt;51</title>
<path fill="none" stroke="grey" stroke-width="2" d="M744.68,-800.83C798.59,-788.08 902.72,-763.46 962.01,-749.44"/>
<polygon fill="grey" stroke="grey" stroke-width="2" points="962.9,-752.82 971.83,-747.11 961.29,-746.01 962.9,-752.82"/>
</g>
<!-- 30&#45;&gt;52 -->
<g id="edge105" class="edge">
<title>30&#45;&gt;52</title>
<path fill="none" stroke="grey" stroke-width="2" d="M744.88,-803.97C830.88,-791.5 1053.63,-759.22 1148.88,-745.41"/>
<polygon fill="grey" stroke="grey" stroke-width="2" points="1149.65,-748.84 1159.04,-743.94 1148.65,-741.91 1149.65,-748.84"/>
</g>
<!-- 31&#45;&gt;18 -->
<g id="edge38" class="edge">
<title>31&#45;&gt;18</title>
<path fill="none" stroke="grey" stroke-width="2" d="M847.11,-287.88C818.53,-276.76 781.49,-262.36 753.29,-251.39"/>
<polygon fill="grey" stroke="grey" stroke-width="2" points="754.3,-248.03 743.71,-247.67 751.76,-254.55 754.3,-248.03"/>
</g>
<!-- 32&#45;&gt;19 -->
<g id="edge42" class="edge">
<title>32&#45;&gt;19</title>
<path fill="none" stroke="grey" stroke-width="2" d="M1075.58,-290.07C1072.73,-289.36 1069.9,-288.67 1067.14,-288 1000.38,-271.85 922.54,-254.51 875.59,-244.22"/>
<polygon fill="grey" stroke="grey" stroke-width="2" points="876.29,-240.79 865.77,-242.07 874.79,-247.63 876.29,-240.79"/>
</g>
<!-- 33&#45;&gt;20 -->
<g id="edge46" class="edge">
<title>33&#45;&gt;20</title>
<path fill="none" stroke="grey" stroke-width="2" d="M431.21,-287.7C439.08,-279.22 448.7,-268.86 457.32,-259.58"/>
<polygon fill="grey" stroke="grey" stroke-width="2" points="460.02,-261.81 464.26,-252.1 454.89,-257.05 460.02,-261.81"/>
</g>
<!-- 33&#45;&gt;21 -->
<g id="edge50" class="edge">
<title>33&#45;&gt;21</title>
<path fill="none" stroke="grey" stroke-width="2" d="M405.5,-287.7C401.02,-279.64 395.58,-269.89 390.62,-260.98"/>
<polygon fill="grey" stroke="grey" stroke-width="2" points="393.6,-259.14 385.67,-252.1 387.48,-262.54 393.6,-259.14"/>
</g>
<!-- 34&#45;&gt;22 -->
<g id="edge51" class="edge">
<title>34&#45;&gt;22</title>
<path fill="none" stroke="grey" stroke-width="2" d="M483.09,-647.7C485.32,-639.9 488,-630.51 490.48,-621.83"/>
<polygon fill="grey" stroke="grey" stroke-width="2" points="493.87,-622.68 493.26,-612.1 487.14,-620.76 493.87,-622.68"/>
</g>
<!-- 35&#45;&gt;24 -->
<g id="edge53" class="edge">
<title>35&#45;&gt;24</title>
<path fill="none" stroke="grey" stroke-width="2" d="M2178.21,-287.88C2164.48,-278.81 2147.44,-267.55 2132.61,-257.76"/>
<polygon fill="grey" stroke="grey" stroke-width="2" points="2134.45,-254.78 2124.17,-252.19 2130.59,-260.62 2134.45,-254.78"/>
</g>
<!-- 36&#45;&gt;24 -->
<g id="edge54" class="edge">
<title>36&#45;&gt;24</title>
<path fill="none" stroke="grey" stroke-width="2" d="M2018.07,-287.88C2031.8,-278.81 2048.85,-267.55 2063.68,-257.76"/>
<polygon fill="grey" stroke="grey" stroke-width="2" points="2065.7,-260.62 2072.11,-252.19 2061.84,-254.78 2065.7,-260.62"/>
</g>
<!-- 37&#45;&gt;25 -->
<g id="edge55" class="edge">
<title>37&#45;&gt;25</title>
<path fill="none" stroke="grey" stroke-width="2" d="M2576.55,-287.97C2545.45,-277.7 2505.78,-264.6 2473.67,-253.99"/>
<polygon fill="grey" stroke="grey" stroke-width="2" points="2474.56,-250.6 2463.96,-250.79 2472.36,-257.25 2474.56,-250.6"/>
</g>
<!-- 38&#45;&gt;25 -->
<g id="edge56" class="edge">
<title>38&#45;&gt;25</title>
<path fill="none" stroke="grey" stroke-width="2" d="M2416.14,-287.7C2416.14,-279.98 2416.14,-270.71 2416.14,-262.11"/>
<polygon fill="grey" stroke="grey" stroke-width="2" points="2419.64,-262.1 2416.14,-252.1 2412.64,-262.1 2419.64,-262.1"/>
</g>
<!-- 39&#45;&gt;26 -->
<g id="edge57" class="edge">
<title>39&#45;&gt;26</title>
<path fill="none" stroke="grey" stroke-width="2" d="M1780.14,-287.7C1780.14,-279.98 1780.14,-270.71 1780.14,-262.11"/>
<polygon fill="grey" stroke="grey" stroke-width="2" points="1783.64,-262.1 1780.14,-252.1 1776.64,-262.1 1783.64,-262.1"/>
</g>
<!-- 40&#45;&gt;26 -->
<g id="edge58" class="edge">
<title>40&#45;&gt;26</title>
<path fill="none" stroke="grey" stroke-width="2" d="M1619.73,-287.97C1650.83,-277.7 1690.51,-264.6 1722.62,-253.99"/>
<polygon fill="grey" stroke="grey" stroke-width="2" points="1723.92,-257.25 1732.32,-250.79 1721.73,-250.6 1723.92,-257.25"/>
</g>
<!-- 41&#45;&gt;27 -->
<g id="edge59" class="edge">
<title>41&#45;&gt;27</title>
<path fill="none" stroke="grey" stroke-width="2" d="M90.42,-791.7C89.21,-783.98 87.76,-774.71 86.4,-766.11"/>
<polygon fill="grey" stroke="grey" stroke-width="2" points="89.84,-765.44 84.83,-756.1 82.93,-766.53 89.84,-765.44"/>
</g>
<!-- 42&#45;&gt;28 -->
<g id="edge60" class="edge">
<title>42&#45;&gt;28</title>
<path fill="none" stroke="grey" stroke-width="2" d="M969.14,-431.7C969.14,-423.98 969.14,-414.71 969.14,-406.11"/>
<polygon fill="grey" stroke="grey" stroke-width="2" points="972.64,-406.1 969.14,-396.1 965.64,-406.1 972.64,-406.1"/>
</g>
<!-- 43&#45;&gt;29 -->
<g id="edge62" class="edge">
<title>43&#45;&gt;29</title>
<path fill="none" stroke="grey" stroke-width="2" d="M1248.51,-431.7C1253.86,-423.56 1260.35,-413.69 1266.25,-404.7"/>
<polygon fill="grey" stroke="grey" stroke-width="2" points="1269.34,-406.38 1271.9,-396.1 1263.49,-402.54 1269.34,-406.38"/>
</g>
<!-- 44&#45;&gt;34 -->
<g id="edge68" class="edge">
<title>44&#45;&gt;34</title>
<path fill="none" stroke="grey" stroke-width="2" d="M486.42,-719.7C485.21,-711.98 483.76,-702.71 482.4,-694.11"/>
<polygon fill="grey" stroke="grey" stroke-width="2" points="485.84,-693.44 480.83,-684.1 478.93,-694.53 485.84,-693.44"/>
</g>
<!-- 45 -->
<g id="node46" class="node">
<title>45</title>
<path fill="none" stroke="#56d0d8" stroke-width="2" d="M1043.14,-612C1043.14,-612 981.14,-612 981.14,-612 975.14,-612 969.14,-606 969.14,-600 969.14,-600 969.14,-588 969.14,-588 969.14,-582 975.14,-576 981.14,-576 981.14,-576 1043.14,-576 1043.14,-576 1049.14,-576 1055.14,-582 1055.14,-588 1055.14,-588 1055.14,-600 1055.14,-600 1055.14,-606 1049.14,-612 1043.14,-612"/>
<text text-anchor="middle" x="1012.14" y="-591.5" font-family="sans" font-size="10.00">samtools_sort</text>
</g>
<!-- 45&#45;&gt;42 -->
<g id="edge83" class="edge">
<title>45&#45;&gt;42</title>
<path fill="none" stroke="grey" stroke-width="2" d="M1000.13,-575.63C993.8,-565.64 986.46,-552.6 982.14,-540 975.28,-519.97 972.04,-496.18 970.51,-478.24"/>
<polygon fill="grey" stroke="grey" stroke-width="2" points="973.99,-477.89 969.78,-468.17 967.01,-478.4 973.99,-477.89"/>
</g>
<!-- 46 -->
<g id="node47" class="node">
<title>46</title>
<path fill="none" stroke="#d89556" stroke-width="2" d="M1073.14,-540C1073.14,-540 1003.14,-540 1003.14,-540 997.14,-540 991.14,-534 991.14,-528 991.14,-528 991.14,-516 991.14,-516 991.14,-510 997.14,-504 1003.14,-504 1003.14,-504 1073.14,-504 1073.14,-504 1079.14,-504 1085.14,-510 1085.14,-516 1085.14,-516 1085.14,-528 1085.14,-528 1085.14,-534 1079.14,-540 1073.14,-540"/>
<text text-anchor="middle" x="1038.14" y="-519.5" font-family="sans" font-size="10.00">samtools_index</text>
</g>
<!-- 45&#45;&gt;46 -->
<g id="edge93" class="edge">
<title>45&#45;&gt;46</title>
<path fill="none" stroke="grey" stroke-width="2" d="M1018.57,-575.7C1021.5,-567.81 1025.03,-558.3 1028.28,-549.55"/>
<polygon fill="grey" stroke="grey" stroke-width="2" points="1031.59,-550.7 1031.79,-540.1 1025.03,-548.26 1031.59,-550.7"/>
</g>
<!-- 46&#45;&gt;42 -->
<g id="edge85" class="edge">
<title>46&#45;&gt;42</title>
<path fill="none" stroke="grey" stroke-width="2" d="M1021.09,-503.7C1012.65,-495.14 1002.32,-484.66 993.1,-475.3"/>
<polygon fill="grey" stroke="grey" stroke-width="2" points="995.52,-472.77 986,-468.1 990.53,-477.68 995.52,-472.77"/>
</g>
<!-- 47 -->
<g id="node48" class="node">
<title>47</title>
<path fill="none" stroke="#56d0d8" stroke-width="2" d="M1203.14,-612C1203.14,-612 1141.14,-612 1141.14,-612 1135.14,-612 1129.14,-606 1129.14,-600 1129.14,-600 1129.14,-588 1129.14,-588 1129.14,-582 1135.14,-576 1141.14,-576 1141.14,-576 1203.14,-576 1203.14,-576 1209.14,-576 1215.14,-582 1215.14,-588 1215.14,-588 1215.14,-600 1215.14,-600 1215.14,-606 1209.14,-612 1203.14,-612"/>
<text text-anchor="middle" x="1172.14" y="-591.5" font-family="sans" font-size="10.00">samtools_sort</text>
</g>
<!-- 47&#45;&gt;43 -->
<g id="edge86" class="edge">
<title>47&#45;&gt;43</title>
<path fill="none" stroke="grey" stroke-width="2" d="M1190.37,-575.94C1199.7,-566.25 1210.46,-553.4 1217.14,-540 1226.83,-520.57 1231.88,-496.43 1234.48,-478.19"/>
<polygon fill="grey" stroke="grey" stroke-width="2" points="1237.96,-478.58 1235.74,-468.22 1231.01,-477.7 1237.96,-478.58"/>
</g>
<!-- 48 -->
<g id="node49" class="node">
<title>48</title>
<path fill="none" stroke="#d89556" stroke-width="2" d="M1196.14,-540C1196.14,-540 1126.14,-540 1126.14,-540 1120.14,-540 1114.14,-534 1114.14,-528 1114.14,-528 1114.14,-516 1114.14,-516 1114.14,-510 1120.14,-504 1126.14,-504 1126.14,-504 1196.14,-504 1196.14,-504 1202.14,-504 1208.14,-510 1208.14,-516 1208.14,-516 1208.14,-528 1208.14,-528 1208.14,-534 1202.14,-540 1196.14,-540"/>
<text text-anchor="middle" x="1161.14" y="-519.5" font-family="sans" font-size="10.00">samtools_index</text>
</g>
<!-- 47&#45;&gt;48 -->
<g id="edge95" class="edge">
<title>47&#45;&gt;48</title>
<path fill="none" stroke="grey" stroke-width="2" d="M1169.42,-575.7C1168.21,-567.98 1166.76,-558.71 1165.4,-550.11"/>
<polygon fill="grey" stroke="grey" stroke-width="2" points="1168.84,-549.44 1163.83,-540.1 1161.93,-550.53 1168.84,-549.44"/>
</g>
<!-- 48&#45;&gt;43 -->
<g id="edge88" class="edge">
<title>48&#45;&gt;43</title>
<path fill="none" stroke="grey" stroke-width="2" d="M1179.93,-503.7C1189.32,-495.05 1200.83,-484.45 1211.06,-475.03"/>
<polygon fill="grey" stroke="grey" stroke-width="2" points="1213.59,-477.45 1218.57,-468.1 1208.85,-472.3 1213.59,-477.45"/>
</g>
<!-- 49&#45;&gt;45 -->
<g id="edge92" class="edge">
<title>49&#45;&gt;45</title>
<path fill="none" stroke="grey" stroke-width="2" d="M1012.14,-647.7C1012.14,-639.98 1012.14,-630.71 1012.14,-622.11"/>
<polygon fill="grey" stroke="grey" stroke-width="2" points="1015.64,-622.1 1012.14,-612.1 1008.64,-622.1 1015.64,-622.1"/>
</g>
<!-- 50&#45;&gt;47 -->
<g id="edge94" class="edge">
<title>50&#45;&gt;47</title>
<path fill="none" stroke="grey" stroke-width="2" d="M1172.14,-647.7C1172.14,-639.98 1172.14,-630.71 1172.14,-622.11"/>
<polygon fill="grey" stroke="grey" stroke-width="2" points="1175.64,-622.1 1172.14,-612.1 1168.64,-622.1 1175.64,-622.1"/>
</g>
<!-- 51&#45;&gt;49 -->
<g id="edge96" class="edge">
<title>51&#45;&gt;49</title>
<path fill="none" stroke="grey" stroke-width="2" d="M1007.63,-719.7C1008.29,-711.98 1009.08,-702.71 1009.82,-694.11"/>
<polygon fill="grey" stroke="grey" stroke-width="2" points="1013.31,-694.37 1010.68,-684.1 1006.34,-693.77 1013.31,-694.37"/>
</g>
<!-- 52&#45;&gt;50 -->
<g id="edge98" class="edge">
<title>52&#45;&gt;50</title>
<path fill="none" stroke="grey" stroke-width="2" d="M1187.95,-719.7C1185.61,-711.9 1182.8,-702.51 1180.19,-693.83"/>
<polygon fill="grey" stroke="grey" stroke-width="2" points="1183.5,-692.68 1177.27,-684.1 1176.8,-694.69 1183.5,-692.68"/>
</g>
</g>
</svg>
