<?xml version="1.0" encoding="UTF-8" standalone="no"?>
<!DOCTYPE svg PUBLIC "-//W3C//DTD SVG 1.1//EN"
 "http://www.w3.org/Graphics/SVG/1.1/DTD/svg11.dtd">
<!-- Generated by graphviz version 2.43.0 (0)
 -->
<!-- Title: snakemake_dag Pages: 1 -->
<svg width="1670pt" height="764pt"
 viewBox="0.00 0.00 1670.00 764.00" xmlns="http://www.w3.org/2000/svg" xmlns:xlink="http://www.w3.org/1999/xlink">
<g id="graph0" class="graph" transform="scale(1 1) rotate(0) translate(4 760)">
<title>snakemake_dag</title>
<polygon fill="white" stroke="transparent" points="-4,4 -4,-760 1666,-760 1666,4 -4,4"/>
<!-- 0 -->
<g id="node1" class="node">
<title>0</title>
<path fill="none" stroke="#56d8c9" stroke-width="2" stroke-dasharray="5,2" d="M587,-36C587,-36 557,-36 557,-36 551,-36 545,-30 545,-24 545,-24 545,-12 545,-12 545,-6 551,0 557,0 557,0 587,0 587,0 593,0 599,-6 599,-12 599,-12 599,-24 599,-24 599,-30 593,-36 587,-36"/>
<text text-anchor="middle" x="572" y="-15.5" font-family="sans" font-size="10.00">all</text>
</g>
<!-- 1 -->
<g id="node2" class="node">
<title>1</title>
<path fill="none" stroke="#97d856" stroke-width="2" stroke-dasharray="5,2" d="M228,-252C228,-252 168,-252 168,-252 162,-252 156,-246 156,-240 156,-240 156,-228 156,-228 156,-222 162,-216 168,-216 168,-216 228,-216 228,-216 234,-216 240,-222 240,-228 240,-228 240,-240 240,-240 240,-246 234,-252 228,-252"/>
<text text-anchor="middle" x="198" y="-231.5" font-family="sans" font-size="10.00">gatk_mutect2</text>
</g>
<!-- 1&#45;&gt;0 -->
<g id="edge1" class="edge">
<title>1&#45;&gt;0</title>
<path fill="none" stroke="grey" stroke-width="2" d="M184.21,-215.67C171.18,-197.03 155.47,-166.96 169,-144 202.53,-87.1 236.93,-94.57 299,-72 380.25,-42.46 481.4,-28.31 534.86,-22.48"/>
<polygon fill="grey" stroke="grey" stroke-width="2" points="535.32,-25.95 544.9,-21.42 534.59,-18.99 535.32,-25.95"/>
</g>
<!-- 2 -->
<g id="node3" class="node">
<title>2</title>
<path fill="none" stroke="#d8b456" stroke-width="2" stroke-dasharray="5,2" d="M293.5,-180C293.5,-180 190.5,-180 190.5,-180 184.5,-180 178.5,-174 178.5,-168 178.5,-168 178.5,-156 178.5,-156 178.5,-150 184.5,-144 190.5,-144 190.5,-144 293.5,-144 293.5,-144 299.5,-144 305.5,-150 305.5,-156 305.5,-156 305.5,-168 305.5,-168 305.5,-174 299.5,-180 293.5,-180"/>
<text text-anchor="middle" x="242" y="-165" font-family="sans" font-size="10.00">bedtools_substract</text>
<text text-anchor="middle" x="242" y="-154" font-family="sans" font-size="10.00">caller2filter: freebayes</text>
</g>
<!-- 2&#45;&gt;0 -->
<g id="edge2" class="edge">
<title>2&#45;&gt;0</title>
<path fill="none" stroke="grey" stroke-width="2" d="M259.13,-143.94C280.32,-123.79 318.36,-90.67 357,-72 415.64,-43.66 490.83,-29.62 534.98,-23.36"/>
<polygon fill="grey" stroke="grey" stroke-width="2" points="535.54,-26.82 544.98,-22 534.59,-19.88 535.54,-26.82"/>
</g>
<!-- 3 -->
<g id="node4" class="node">
<title>3</title>
<path fill="none" stroke="#d8b456" stroke-width="2" stroke-dasharray="5,2" d="M462.5,-108C462.5,-108 377.5,-108 377.5,-108 371.5,-108 365.5,-102 365.5,-96 365.5,-96 365.5,-84 365.5,-84 365.5,-78 371.5,-72 377.5,-72 377.5,-72 462.5,-72 462.5,-72 468.5,-72 474.5,-78 474.5,-84 474.5,-84 474.5,-96 474.5,-96 474.5,-102 468.5,-108 462.5,-108"/>
<text text-anchor="middle" x="420" y="-93" font-family="sans" font-size="10.00">bedtools_substract</text>
<text text-anchor="middle" x="420" y="-82" font-family="sans" font-size="10.00">caller2filter: gatk</text>
</g>
<!-- 3&#45;&gt;0 -->
<g id="edge3" class="edge">
<title>3&#45;&gt;0</title>
<path fill="none" stroke="grey" stroke-width="2" d="M457.18,-71.88C480.98,-60.92 511.7,-46.77 535.39,-35.86"/>
<polygon fill="grey" stroke="grey" stroke-width="2" points="537.12,-38.92 544.73,-31.56 534.19,-32.56 537.12,-38.92"/>
</g>
<!-- 4 -->
<g id="node5" class="node">
<title>4</title>
<path fill="none" stroke="#88d856" stroke-width="2" stroke-dasharray="5,2" d="M808,-180C808,-180 776,-180 776,-180 770,-180 764,-174 764,-168 764,-168 764,-156 764,-156 764,-150 770,-144 776,-144 776,-144 808,-144 808,-144 814,-144 820,-150 820,-156 820,-156 820,-168 820,-168 820,-174 814,-180 808,-180"/>
<text text-anchor="middle" x="792" y="-159.5" font-family="sans" font-size="10.00">strelka2</text>
</g>
<!-- 4&#45;&gt;0 -->
<g id="edge4" class="edge">
<title>4&#45;&gt;0</title>
<path fill="none" stroke="grey" stroke-width="2" d="M765.46,-143.87C725.9,-118.34 651.41,-70.25 607.29,-41.78"/>
<polygon fill="grey" stroke="grey" stroke-width="2" points="608.93,-38.67 598.63,-36.19 605.14,-44.55 608.93,-38.67"/>
</g>
<!-- 5 -->
<g id="node6" class="node">
<title>5</title>
<path fill="none" stroke="#d6d856" stroke-width="2" stroke-dasharray="5,2" d="M587,-252C587,-252 557,-252 557,-252 551,-252 545,-246 545,-240 545,-240 545,-228 545,-228 545,-222 551,-216 557,-216 557,-216 587,-216 587,-216 593,-216 599,-222 599,-228 599,-228 599,-240 599,-240 599,-246 593,-252 587,-252"/>
<text text-anchor="middle" x="572" y="-231.5" font-family="sans" font-size="10.00">manta</text>
</g>
<!-- 5&#45;&gt;0 -->
<g id="edge5" class="edge">
<title>5&#45;&gt;0</title>
<path fill="none" stroke="grey" stroke-width="2" d="M572,-215.85C572,-178.83 572,-91.18 572,-46.39"/>
<polygon fill="grey" stroke="grey" stroke-width="2" points="575.5,-46.23 572,-36.23 568.5,-46.23 575.5,-46.23"/>
</g>
<!-- 5&#45;&gt;4 -->
<g id="edge22" class="edge">
<title>5&#45;&gt;4</title>
<path fill="none" stroke="grey" stroke-width="2" d="M599.42,-224.28C638.42,-211.87 710.07,-189.07 754.12,-175.05"/>
<polygon fill="grey" stroke="grey" stroke-width="2" points="755.42,-178.31 763.89,-171.94 753.3,-171.64 755.42,-178.31"/>
</g>
<!-- 6 -->
<g id="node7" class="node">
<title>6</title>
<path fill="none" stroke="#d85656" stroke-width="2" stroke-dasharray="5,2" d="M1176,-108C1176,-108 1124,-108 1124,-108 1118,-108 1112,-102 1112,-96 1112,-96 1112,-84 1112,-84 1112,-78 1118,-72 1124,-72 1124,-72 1176,-72 1176,-72 1182,-72 1188,-78 1188,-84 1188,-84 1188,-96 1188,-96 1188,-102 1182,-108 1176,-108"/>
<text text-anchor="middle" x="1150" y="-87.5" font-family="sans" font-size="10.00">varscan2vcf</text>
</g>
<!-- 6&#45;&gt;0 -->
<g id="edge6" class="edge">
<title>6&#45;&gt;0</title>
<path fill="none" stroke="grey" stroke-width="2" d="M1111.63,-84.35C1006.2,-71.58 713.06,-36.08 609.13,-23.5"/>
<polygon fill="grey" stroke="grey" stroke-width="2" points="609.45,-20.01 599.1,-22.28 608.61,-26.96 609.45,-20.01"/>
</g>
<!-- 7 -->
<g id="node8" class="node">
<title>7</title>
<path fill="none" stroke="#d88556" stroke-width="2" stroke-dasharray="5,2" d="M1075,-252C1075,-252 1013,-252 1013,-252 1007,-252 1001,-246 1001,-240 1001,-240 1001,-228 1001,-228 1001,-222 1007,-216 1013,-216 1013,-216 1075,-216 1075,-216 1081,-216 1087,-222 1087,-228 1087,-228 1087,-240 1087,-240 1087,-246 1081,-252 1075,-252"/>
<text text-anchor="middle" x="1044" y="-231.5" font-family="sans" font-size="10.00">somaticsniper</text>
</g>
<!-- 7&#45;&gt;0 -->
<g id="edge7" class="edge">
<title>7&#45;&gt;0</title>
<path fill="none" stroke="grey" stroke-width="2" d="M1008.09,-215.96C945.14,-186.19 810.65,-123.01 696,-72 666.73,-58.98 633.32,-44.73 608.56,-34.3"/>
<polygon fill="grey" stroke="grey" stroke-width="2" points="609.77,-31 599.19,-30.35 607.05,-37.46 609.77,-31"/>
</g>
<!-- 8 -->
<g id="node9" class="node">
<title>8</title>
<path fill="none" stroke="#d89556" stroke-width="2" stroke-dasharray="5,2" d="M126,-252C126,-252 96,-252 96,-252 90,-252 84,-246 84,-240 84,-240 84,-228 84,-228 84,-222 90,-216 96,-216 96,-216 126,-216 126,-216 132,-216 138,-222 138,-228 138,-228 138,-240 138,-240 138,-246 132,-252 126,-252"/>
<text text-anchor="middle" x="111" y="-231.5" font-family="sans" font-size="10.00">muse</text>
</g>
<!-- 8&#45;&gt;0 -->
<g id="edge8" class="edge">
<title>8&#45;&gt;0</title>
<path fill="none" stroke="grey" stroke-width="2" d="M114.7,-215.96C122.97,-182.29 146.36,-107.41 197,-72 251.13,-34.15 451.26,-23.06 534.89,-20.05"/>
<polygon fill="grey" stroke="grey" stroke-width="2" points="535.09,-23.54 544.96,-19.7 534.85,-16.55 535.09,-23.54"/>
</g>
<!-- 9 -->
<g id="node10" class="node">
<title>9</title>
<path fill="none" stroke="#d8a456" stroke-width="2" stroke-dasharray="5,2" d="M1450,-252C1450,-252 1420,-252 1420,-252 1414,-252 1408,-246 1408,-240 1408,-240 1408,-228 1408,-228 1408,-222 1414,-216 1420,-216 1420,-216 1450,-216 1450,-216 1456,-216 1462,-222 1462,-228 1462,-228 1462,-240 1462,-240 1462,-246 1456,-252 1450,-252"/>
<text text-anchor="middle" x="1435" y="-231.5" font-family="sans" font-size="10.00">multiqc</text>
</g>
<!-- 9&#45;&gt;0 -->
<g id="edge9" class="edge">
<title>9&#45;&gt;0</title>
<path fill="none" stroke="grey" stroke-width="2" d="M1417.1,-215.98C1379.72,-181.65 1289.19,-104.58 1197,-72 1087.6,-33.34 727.26,-22.32 609.56,-19.71"/>
<polygon fill="grey" stroke="grey" stroke-width="2" points="609.33,-16.2 599.26,-19.49 609.18,-23.2 609.33,-16.2"/>
</g>
<!-- 10 -->
<g id="node11" class="node">
<title>10</title>
<path fill="none" stroke="#d87556" stroke-width="2" stroke-dasharray="5,2" d="M960,-756C960,-756 904,-756 904,-756 898,-756 892,-750 892,-744 892,-744 892,-732 892,-732 892,-726 898,-720 904,-720 904,-720 960,-720 960,-720 966,-720 972,-726 972,-732 972,-732 972,-744 972,-744 972,-750 966,-756 960,-756"/>
<text text-anchor="middle" x="932" y="-735.5" font-family="sans" font-size="10.00">cp_reference</text>
</g>
<!-- 10&#45;&gt;1 -->
<g id="edge10" class="edge">
<title>10&#45;&gt;1</title>
<path fill="none" stroke="grey" stroke-width="2" d="M891.87,-735.67C770.02,-731.31 405.8,-715.88 292,-684 206.83,-660.14 114,-683.45 114,-595 114,-595 114,-595 114,-377 114,-330.6 147.64,-286.06 172.34,-259.6"/>
<polygon fill="grey" stroke="grey" stroke-width="2" points="174.95,-261.95 179.36,-252.31 169.9,-257.09 174.95,-261.95"/>
</g>
<!-- 10&#45;&gt;4 -->
<g id="edge20" class="edge">
<title>10&#45;&gt;4</title>
<path fill="none" stroke="grey" stroke-width="2" d="M972.29,-736.34C1104.15,-733.83 1516.86,-722.9 1561,-684 1591.35,-657.26 1580,-635.45 1580,-595 1580,-595 1580,-595 1580,-521 1580,-377.05 1602.16,-275.33 1471,-216 1412.59,-189.58 965.82,-169.89 830.64,-164.48"/>
<polygon fill="grey" stroke="grey" stroke-width="2" points="830.48,-160.98 820.35,-164.08 830.21,-167.97 830.48,-160.98"/>
</g>
<!-- 10&#45;&gt;5 -->
<g id="edge25" class="edge">
<title>10&#45;&gt;5</title>
<path fill="none" stroke="grey" stroke-width="2" d="M891.77,-736.2C797.97,-733.69 567.77,-723.54 503,-684 406.21,-624.91 422.38,-537.88 463,-432 487.91,-367.07 530.85,-297.24 554.72,-260.68"/>
<polygon fill="grey" stroke="grey" stroke-width="2" points="557.78,-262.4 560.35,-252.12 551.93,-258.55 557.78,-262.4"/>
</g>
<!-- 10&#45;&gt;7 -->
<g id="edge32" class="edge">
<title>10&#45;&gt;7</title>
<path fill="none" stroke="grey" stroke-width="2" d="M972.1,-733.63C1034.42,-727.56 1150.37,-712.66 1179,-684 1207.59,-655.38 1198,-635.45 1198,-595 1198,-595 1198,-595 1198,-521 1198,-448.13 1200.89,-424.51 1167,-360 1145.09,-318.3 1104.73,-281.34 1076.23,-258.63"/>
<polygon fill="grey" stroke="grey" stroke-width="2" points="1078.2,-255.73 1068.17,-252.33 1073.89,-261.24 1078.2,-255.73"/>
</g>
<!-- 10&#45;&gt;8 -->
<g id="edge36" class="edge">
<title>10&#45;&gt;8</title>
<path fill="none" stroke="grey" stroke-width="2" d="M891.96,-737.07C750.61,-736.89 275.8,-732.59 133,-684 65.67,-661.09 0,-666.12 0,-595 0,-595 0,-595 0,-377 0,-326.59 43.96,-283.39 76.55,-258.29"/>
<polygon fill="grey" stroke="grey" stroke-width="2" points="79.05,-260.79 84.98,-252 74.87,-255.18 79.05,-260.79"/>
</g>
<!-- 14 -->
<g id="node15" class="node">
<title>14</title>
<path fill="none" stroke="#d8cb56" stroke-width="2" stroke-dasharray="5,2" d="M784.5,-684C784.5,-684 739.5,-684 739.5,-684 733.5,-684 727.5,-678 727.5,-672 727.5,-672 727.5,-660 727.5,-660 727.5,-654 733.5,-648 739.5,-648 739.5,-648 784.5,-648 784.5,-648 790.5,-648 796.5,-654 796.5,-660 796.5,-660 796.5,-672 796.5,-672 796.5,-678 790.5,-684 784.5,-684"/>
<text text-anchor="middle" x="762" y="-663.5" font-family="sans" font-size="10.00">bwa_index</text>
</g>
<!-- 10&#45;&gt;14 -->
<g id="edge50" class="edge">
<title>10&#45;&gt;14</title>
<path fill="none" stroke="grey" stroke-width="2" d="M891.71,-720.41C865.92,-709.79 832.44,-696 805.95,-685.1"/>
<polygon fill="grey" stroke="grey" stroke-width="2" points="807.12,-681.79 796.54,-681.22 804.46,-688.27 807.12,-681.79"/>
</g>
<!-- 16 -->
<g id="node17" class="node">
<title>16</title>
<path fill="none" stroke="#56d8d8" stroke-width="2" stroke-dasharray="5,2" d="M706.5,-252C706.5,-252 665.5,-252 665.5,-252 659.5,-252 653.5,-246 653.5,-240 653.5,-240 653.5,-228 653.5,-228 653.5,-222 659.5,-216 665.5,-216 665.5,-216 706.5,-216 706.5,-216 712.5,-216 718.5,-222 718.5,-228 718.5,-228 718.5,-240 718.5,-240 718.5,-246 712.5,-252 706.5,-252"/>
<text text-anchor="middle" x="686" y="-231.5" font-family="sans" font-size="10.00">freebayes</text>
</g>
<!-- 10&#45;&gt;16 -->
<g id="edge52" class="edge">
<title>10&#45;&gt;16</title>
<path fill="none" stroke="grey" stroke-width="2" d="M892,-733.67C777.72,-723.06 458,-685.31 458,-595 458,-595 458,-595 458,-521 458,-400.01 584.3,-300.69 648.9,-257.8"/>
<polygon fill="grey" stroke="grey" stroke-width="2" points="651.13,-260.53 657.58,-252.13 647.3,-254.67 651.13,-260.53"/>
</g>
<!-- 17 -->
<g id="node18" class="node">
<title>17</title>
<path fill="none" stroke="#56d88a" stroke-width="2" stroke-dasharray="5,2" d="M466,-180C466,-180 374,-180 374,-180 368,-180 362,-174 362,-168 362,-168 362,-156 362,-156 362,-150 368,-144 374,-144 374,-144 466,-144 466,-144 472,-144 478,-150 478,-156 478,-156 478,-168 478,-168 478,-174 472,-180 466,-180"/>
<text text-anchor="middle" x="420" y="-159.5" font-family="sans" font-size="10.00">gatk_genotypegvcfs</text>
</g>
<!-- 10&#45;&gt;17 -->
<g id="edge56" class="edge">
<title>10&#45;&gt;17</title>
<path fill="none" stroke="grey" stroke-width="2" d="M891.89,-736.52C753.72,-733.79 306,-715.64 306,-595 306,-595 306,-595 306,-305 306,-254 351.27,-210.88 384.76,-185.97"/>
<polygon fill="grey" stroke="grey" stroke-width="2" points="386.92,-188.73 392.98,-180.04 382.83,-183.05 386.92,-188.73"/>
</g>
<!-- 25 -->
<g id="node26" class="node">
<title>25</title>
<path fill="none" stroke="#568ad8" stroke-width="2" stroke-dasharray="5,2" d="M970.5,-252C970.5,-252 875.5,-252 875.5,-252 869.5,-252 863.5,-246 863.5,-240 863.5,-240 863.5,-228 863.5,-228 863.5,-222 869.5,-216 875.5,-216 875.5,-216 970.5,-216 970.5,-216 976.5,-216 982.5,-222 982.5,-228 982.5,-228 982.5,-240 982.5,-240 982.5,-246 976.5,-252 970.5,-252"/>
<text text-anchor="middle" x="923" y="-231.5" font-family="sans" font-size="10.00">gatk_haplotypecaller</text>
</g>
<!-- 10&#45;&gt;25 -->
<g id="edge66" class="edge">
<title>10&#45;&gt;25</title>
<path fill="none" stroke="grey" stroke-width="2" d="M933.04,-719.83C936.42,-660.08 946.14,-455.78 932,-288 931.28,-279.5 929.93,-270.31 928.49,-262.01"/>
<polygon fill="grey" stroke="grey" stroke-width="2" points="931.91,-261.29 926.65,-252.09 925.03,-262.56 931.91,-261.29"/>
</g>
<!-- 26 -->
<g id="node27" class="node">
<title>26</title>
<path fill="none" stroke="#56d89a" stroke-width="2" stroke-dasharray="5,2" d="M1285.5,-252C1285.5,-252 1202.5,-252 1202.5,-252 1196.5,-252 1190.5,-246 1190.5,-240 1190.5,-240 1190.5,-228 1190.5,-228 1190.5,-222 1196.5,-216 1202.5,-216 1202.5,-216 1285.5,-216 1285.5,-216 1291.5,-216 1297.5,-222 1297.5,-228 1297.5,-228 1297.5,-240 1297.5,-240 1297.5,-246 1291.5,-252 1285.5,-252"/>
<text text-anchor="middle" x="1244" y="-231.5" font-family="sans" font-size="10.00">samtools_mpileup</text>
</g>
<!-- 10&#45;&gt;26 -->
<g id="edge70" class="edge">
<title>10&#45;&gt;26</title>
<path fill="none" stroke="grey" stroke-width="2" d="M972.26,-735.03C1026.68,-731.08 1125.67,-719.25 1202,-684 1259.72,-657.34 1314,-658.58 1314,-595 1314,-595 1314,-595 1314,-377 1314,-332.36 1285.82,-287.2 1265.22,-260.16"/>
<polygon fill="grey" stroke="grey" stroke-width="2" points="1267.77,-257.74 1258.85,-252.03 1262.27,-262.06 1267.77,-257.74"/>
</g>
<!-- 28 -->
<g id="node29" class="node">
<title>28</title>
<path fill="none" stroke="#5663d8" stroke-width="2" stroke-dasharray="5,2" d="M1110,-612C1110,-612 1066,-612 1066,-612 1060,-612 1054,-606 1054,-600 1054,-600 1054,-588 1054,-588 1054,-582 1060,-576 1066,-576 1066,-576 1110,-576 1110,-576 1116,-576 1122,-582 1122,-588 1122,-588 1122,-600 1122,-600 1122,-606 1116,-612 1110,-612"/>
<text text-anchor="middle" x="1088" y="-591.5" font-family="sans" font-size="10.00">bwa_mem</text>
</g>
<!-- 10&#45;&gt;28 -->
<g id="edge74" class="edge">
<title>10&#45;&gt;28</title>
<path fill="none" stroke="grey" stroke-width="2" d="M939.72,-719.75C949.1,-700.34 966.5,-668.8 989,-648 1005.04,-633.17 1026.01,-621.16 1044.52,-612.35"/>
<polygon fill="grey" stroke="grey" stroke-width="2" points="1046.02,-615.52 1053.65,-608.17 1043.1,-609.15 1046.02,-615.52"/>
</g>
<!-- 29 -->
<g id="node30" class="node">
<title>29</title>
<path fill="none" stroke="#a7d856" stroke-width="2" stroke-dasharray="5,2" d="M1078,-684C1078,-684 1010,-684 1010,-684 1004,-684 998,-678 998,-672 998,-672 998,-660 998,-660 998,-654 1004,-648 1010,-648 1010,-648 1078,-648 1078,-648 1084,-648 1090,-654 1090,-660 1090,-660 1090,-672 1090,-672 1090,-678 1084,-684 1078,-684"/>
<text text-anchor="middle" x="1044" y="-663.5" font-family="sans" font-size="10.00">samtools_faidx</text>
</g>
<!-- 10&#45;&gt;29 -->
<g id="edge79" class="edge">
<title>10&#45;&gt;29</title>
<path fill="none" stroke="grey" stroke-width="2" d="M959.4,-719.88C973.91,-710.81 991.92,-699.55 1007.59,-689.76"/>
<polygon fill="grey" stroke="grey" stroke-width="2" points="1009.87,-692.46 1016.5,-684.19 1006.16,-686.52 1009.87,-692.46"/>
</g>
<!-- 30 -->
<g id="node31" class="node">
<title>30</title>
<path fill="none" stroke="#56a9d8" stroke-width="2" stroke-dasharray="5,2" d="M1158,-684C1158,-684 1120,-684 1120,-684 1114,-684 1108,-678 1108,-672 1108,-672 1108,-660 1108,-660 1108,-654 1114,-648 1120,-648 1120,-648 1158,-648 1158,-648 1164,-648 1170,-654 1170,-660 1170,-660 1170,-672 1170,-672 1170,-678 1164,-684 1158,-684"/>
<text text-anchor="middle" x="1139" y="-663.5" font-family="sans" font-size="10.00">gatk_dict</text>
</g>
<!-- 10&#45;&gt;30 -->
<g id="edge80" class="edge">
<title>10&#45;&gt;30</title>
<path fill="none" stroke="grey" stroke-width="2" d="M972.18,-725.41C1004.1,-715.95 1050.03,-701.76 1098.04,-684.2"/>
<polygon fill="grey" stroke="grey" stroke-width="2" points="1099.5,-687.39 1107.67,-680.65 1097.08,-680.83 1099.5,-687.39"/>
</g>
<!-- 11 -->
<g id="node12" class="node">
<title>11</title>
<path fill="none" stroke="#567bd8" stroke-width="2" stroke-dasharray="5,2" d="M1145.5,-396C1145.5,-396 1050.5,-396 1050.5,-396 1044.5,-396 1038.5,-390 1038.5,-384 1038.5,-384 1038.5,-372 1038.5,-372 1038.5,-366 1044.5,-360 1050.5,-360 1050.5,-360 1145.5,-360 1145.5,-360 1151.5,-360 1157.5,-366 1157.5,-372 1157.5,-372 1157.5,-384 1157.5,-384 1157.5,-390 1151.5,-396 1145.5,-396"/>
<text text-anchor="middle" x="1098" y="-375.5" font-family="sans" font-size="10.00">gatk_markduplicates</text>
</g>
<!-- 11&#45;&gt;1 -->
<g id="edge11" class="edge">
<title>11&#45;&gt;1</title>
<path fill="none" stroke="grey" stroke-width="2" d="M1038.23,-371.54C951.97,-363.3 787.73,-346.26 649,-324 569.74,-311.28 550.74,-303.62 472,-288 394.82,-272.69 305.3,-255.48 250.16,-244.93"/>
<polygon fill="grey" stroke="grey" stroke-width="2" points="250.75,-241.48 240.27,-243.05 249.44,-248.36 250.75,-241.48"/>
</g>
<!-- 11&#45;&gt;4 -->
<g id="edge21" class="edge">
<title>11&#45;&gt;4</title>
<path fill="none" stroke="grey" stroke-width="2" d="M1104.21,-359.51C1114.52,-327 1130.79,-256.87 1096,-216 1062.24,-176.34 904.39,-166.35 830.43,-163.84"/>
<polygon fill="grey" stroke="grey" stroke-width="2" points="830.25,-160.33 820.15,-163.52 830.04,-167.33 830.25,-160.33"/>
</g>
<!-- 11&#45;&gt;5 -->
<g id="edge26" class="edge">
<title>11&#45;&gt;5</title>
<path fill="none" stroke="grey" stroke-width="2" d="M1038.26,-375.22C963.95,-371.47 834.04,-359.88 729,-324 682.72,-308.19 634.51,-278.57 603.93,-257.86"/>
<polygon fill="grey" stroke="grey" stroke-width="2" points="605.63,-254.79 595.4,-252.01 601.67,-260.56 605.63,-254.79"/>
</g>
<!-- 11&#45;&gt;7 -->
<g id="edge33" class="edge">
<title>11&#45;&gt;7</title>
<path fill="none" stroke="grey" stroke-width="2" d="M1091.49,-359.87C1082.2,-335.46 1065.08,-290.43 1054.13,-261.64"/>
<polygon fill="grey" stroke="grey" stroke-width="2" points="1057.36,-260.29 1050.54,-252.19 1050.82,-262.78 1057.36,-260.29"/>
</g>
<!-- 11&#45;&gt;8 -->
<g id="edge37" class="edge">
<title>11&#45;&gt;8</title>
<path fill="none" stroke="grey" stroke-width="2" d="M1038.13,-374.59C926.34,-369.51 678.48,-355.47 472,-324 329.03,-302.21 288.78,-299.98 148.11,-252.02"/>
<polygon fill="grey" stroke="grey" stroke-width="2" points="148.85,-248.57 138.26,-248.64 146.58,-255.19 148.85,-248.57"/>
</g>
<!-- 11&#45;&gt;9 -->
<g id="edge46" class="edge">
<title>11&#45;&gt;9</title>
<path fill="none" stroke="grey" stroke-width="2" d="M1138.65,-359.87C1204.92,-331.95 1335.21,-277.05 1398.61,-250.33"/>
<polygon fill="grey" stroke="grey" stroke-width="2" points="1399.97,-253.56 1407.83,-246.45 1397.26,-247.11 1399.97,-253.56"/>
</g>
<!-- 13 -->
<g id="node14" class="node">
<title>13</title>
<path fill="none" stroke="#56b9d8" stroke-width="2" stroke-dasharray="5,2" d="M893.5,-324C893.5,-324 802.5,-324 802.5,-324 796.5,-324 790.5,-318 790.5,-312 790.5,-312 790.5,-300 790.5,-300 790.5,-294 796.5,-288 802.5,-288 802.5,-288 893.5,-288 893.5,-288 899.5,-288 905.5,-294 905.5,-300 905.5,-300 905.5,-312 905.5,-312 905.5,-318 899.5,-324 893.5,-324"/>
<text text-anchor="middle" x="848" y="-303.5" font-family="sans" font-size="10.00">samtools_index_md</text>
</g>
<!-- 11&#45;&gt;13 -->
<g id="edge49" class="edge">
<title>11&#45;&gt;13</title>
<path fill="none" stroke="grey" stroke-width="2" d="M1038.44,-360.32C1001.58,-350 954.15,-336.72 915.85,-326"/>
<polygon fill="grey" stroke="grey" stroke-width="2" points="916.39,-322.51 905.82,-323.19 914.5,-329.25 916.39,-322.51"/>
</g>
<!-- 11&#45;&gt;16 -->
<g id="edge53" class="edge">
<title>11&#45;&gt;16</title>
<path fill="none" stroke="grey" stroke-width="2" d="M1038.42,-377.04C972.49,-374.87 864.62,-364.61 782,-324 751.21,-308.86 723.35,-280.63 705.67,-260.01"/>
<polygon fill="grey" stroke="grey" stroke-width="2" points="708.29,-257.68 699.19,-252.25 702.91,-262.17 708.29,-257.68"/>
</g>
<!-- 21 -->
<g id="node22" class="node">
<title>21</title>
<path fill="none" stroke="#56d87b" stroke-width="2" stroke-dasharray="5,2" d="M1421.5,-324C1421.5,-324 1354.5,-324 1354.5,-324 1348.5,-324 1342.5,-318 1342.5,-312 1342.5,-312 1342.5,-300 1342.5,-300 1342.5,-294 1348.5,-288 1354.5,-288 1354.5,-288 1421.5,-288 1421.5,-288 1427.5,-288 1433.5,-294 1433.5,-300 1433.5,-300 1433.5,-312 1433.5,-312 1433.5,-318 1427.5,-324 1421.5,-324"/>
<text text-anchor="middle" x="1388" y="-303.5" font-family="sans" font-size="10.00">samtools_stats</text>
</g>
<!-- 11&#45;&gt;21 -->
<g id="edge62" class="edge">
<title>11&#45;&gt;21</title>
<path fill="none" stroke="grey" stroke-width="2" d="M1157.74,-362.58C1208.93,-350.22 1282.11,-332.56 1332.14,-320.48"/>
<polygon fill="grey" stroke="grey" stroke-width="2" points="1333.24,-323.82 1342.14,-318.07 1331.6,-317.01 1333.24,-323.82"/>
</g>
<!-- 22 -->
<g id="node23" class="node">
<title>22</title>
<path fill="none" stroke="#b6d856" stroke-width="2" stroke-dasharray="5,2" d="M1502,-324C1502,-324 1464,-324 1464,-324 1458,-324 1452,-318 1452,-312 1452,-312 1452,-300 1452,-300 1452,-294 1458,-288 1464,-288 1464,-288 1502,-288 1502,-288 1508,-288 1514,-294 1514,-300 1514,-300 1514,-312 1514,-312 1514,-318 1508,-324 1502,-324"/>
<text text-anchor="middle" x="1483" y="-303.5" font-family="sans" font-size="10.00">qualimap</text>
</g>
<!-- 11&#45;&gt;22 -->
<g id="edge63" class="edge">
<title>11&#45;&gt;22</title>
<path fill="none" stroke="grey" stroke-width="2" d="M1157.56,-372.39C1225,-366.17 1337.98,-352.7 1442.1,-323.87"/>
<polygon fill="grey" stroke="grey" stroke-width="2" points="1443.15,-327.21 1451.82,-321.12 1441.25,-320.47 1443.15,-327.21"/>
</g>
<!-- 11&#45;&gt;25 -->
<g id="edge67" class="edge">
<title>11&#45;&gt;25</title>
<path fill="none" stroke="grey" stroke-width="2" d="M1076.89,-359.87C1045.75,-334.6 987.4,-287.25 952.18,-258.68"/>
<polygon fill="grey" stroke="grey" stroke-width="2" points="954.15,-255.77 944.18,-252.19 949.74,-261.21 954.15,-255.77"/>
</g>
<!-- 11&#45;&gt;26 -->
<g id="edge71" class="edge">
<title>11&#45;&gt;26</title>
<path fill="none" stroke="grey" stroke-width="2" d="M1127.81,-359.92C1143.09,-350.41 1161.49,-337.73 1176,-324 1196.24,-304.85 1215.13,-279.25 1227.84,-260.42"/>
<polygon fill="grey" stroke="grey" stroke-width="2" points="1230.79,-262.31 1233.39,-252.04 1224.95,-258.45 1230.79,-262.31"/>
</g>
<!-- 12 -->
<g id="node13" class="node">
<title>12</title>
<path fill="none" stroke="#68d856" stroke-width="2" stroke-dasharray="5,2" d="M225,-396C225,-396 193,-396 193,-396 187,-396 181,-390 181,-384 181,-384 181,-372 181,-372 181,-366 187,-360 193,-360 193,-360 225,-360 225,-360 231,-360 237,-366 237,-372 237,-372 237,-384 237,-384 237,-390 231,-396 225,-396"/>
<text text-anchor="middle" x="209" y="-375.5" font-family="sans" font-size="10.00">cp_snps</text>
</g>
<!-- 12&#45;&gt;1 -->
<g id="edge12" class="edge">
<title>12&#45;&gt;1</title>
<path fill="none" stroke="grey" stroke-width="2" d="M192.54,-359.92C184.35,-350.22 175.3,-337.37 171,-324 166.1,-308.77 167.27,-303.56 171,-288 173.21,-278.81 177.29,-269.41 181.62,-261.13"/>
<polygon fill="grey" stroke="grey" stroke-width="2" points="184.72,-262.77 186.53,-252.33 178.6,-259.36 184.72,-262.77"/>
</g>
<!-- 12&#45;&gt;2 -->
<g id="edge17" class="edge">
<title>12&#45;&gt;2</title>
<path fill="none" stroke="grey" stroke-width="2" d="M180.73,-362.62C130.26,-335.06 33.66,-272.49 75,-216 96.42,-186.73 134.11,-173.23 168.27,-167.16"/>
<polygon fill="grey" stroke="grey" stroke-width="2" points="168.94,-170.6 178.27,-165.57 167.84,-163.68 168.94,-170.6"/>
</g>
<!-- 12&#45;&gt;3 -->
<g id="edge19" class="edge">
<title>12&#45;&gt;3</title>
<path fill="none" stroke="grey" stroke-width="2" d="M223.51,-359.59C231.41,-349.59 240.97,-336.56 248,-324 273.33,-278.78 265.14,-260.33 292,-216 313.74,-180.13 322.85,-173.15 353,-144 363.81,-133.55 376.57,-123.06 388.03,-114.21"/>
<polygon fill="grey" stroke="grey" stroke-width="2" points="390.26,-116.91 396.11,-108.07 386.03,-111.33 390.26,-116.91"/>
</g>
<!-- 12&#45;&gt;5 -->
<g id="edge27" class="edge">
<title>12&#45;&gt;5</title>
<path fill="none" stroke="grey" stroke-width="2" d="M237.18,-365.98C302.09,-340.58 462.14,-277.98 534.91,-249.51"/>
<polygon fill="grey" stroke="grey" stroke-width="2" points="536.54,-252.63 544.58,-245.73 533.99,-246.11 536.54,-252.63"/>
</g>
<!-- 12&#45;&gt;8 -->
<g id="edge38" class="edge">
<title>12&#45;&gt;8</title>
<path fill="none" stroke="grey" stroke-width="2" d="M193.24,-359.93C184.23,-349.82 172.98,-336.57 164,-324 149.49,-303.69 135.13,-279.24 125.03,-261.11"/>
<polygon fill="grey" stroke="grey" stroke-width="2" points="128.04,-259.33 120.15,-252.26 121.91,-262.71 128.04,-259.33"/>
</g>
<!-- 15 -->
<g id="node16" class="node">
<title>15</title>
<path fill="none" stroke="#56d863" stroke-width="2" stroke-dasharray="5,2" d="M227.5,-324C227.5,-324 192.5,-324 192.5,-324 186.5,-324 180.5,-318 180.5,-312 180.5,-312 180.5,-300 180.5,-300 180.5,-294 186.5,-288 192.5,-288 192.5,-288 227.5,-288 227.5,-288 233.5,-288 239.5,-294 239.5,-300 239.5,-300 239.5,-312 239.5,-312 239.5,-318 233.5,-324 227.5,-324"/>
<text text-anchor="middle" x="210" y="-303.5" font-family="sans" font-size="10.00">gatk_idx</text>
</g>
<!-- 12&#45;&gt;15 -->
<g id="edge51" class="edge">
<title>12&#45;&gt;15</title>
<path fill="none" stroke="grey" stroke-width="2" d="M209.25,-359.7C209.36,-351.98 209.49,-342.71 209.61,-334.11"/>
<polygon fill="grey" stroke="grey" stroke-width="2" points="213.11,-334.15 209.76,-324.1 206.11,-334.05 213.11,-334.15"/>
</g>
<!-- 13&#45;&gt;1 -->
<g id="edge13" class="edge">
<title>13&#45;&gt;1</title>
<path fill="none" stroke="grey" stroke-width="2" d="M790.32,-298.79C665.18,-285.31 370.39,-253.56 250.29,-240.63"/>
<polygon fill="grey" stroke="grey" stroke-width="2" points="250.56,-237.14 240.25,-239.55 249.81,-244.1 250.56,-237.14"/>
</g>
<!-- 13&#45;&gt;4 -->
<g id="edge23" class="edge">
<title>13&#45;&gt;4</title>
<path fill="none" stroke="grey" stroke-width="2" d="M841.25,-287.87C831.62,-263.46 813.86,-218.43 802.5,-189.64"/>
<polygon fill="grey" stroke="grey" stroke-width="2" points="805.7,-188.21 798.78,-180.19 799.19,-190.78 805.7,-188.21"/>
</g>
<!-- 13&#45;&gt;5 -->
<g id="edge28" class="edge">
<title>13&#45;&gt;5</title>
<path fill="none" stroke="grey" stroke-width="2" d="M790.48,-290.41C735.99,-276.59 655.76,-256.24 609.21,-244.44"/>
<polygon fill="grey" stroke="grey" stroke-width="2" points="609.8,-240.98 599.25,-241.91 608.08,-247.76 609.8,-240.98"/>
</g>
<!-- 13&#45;&gt;7 -->
<g id="edge34" class="edge">
<title>13&#45;&gt;7</title>
<path fill="none" stroke="grey" stroke-width="2" d="M895.7,-287.97C924.51,-277.68 961.28,-264.54 990.99,-253.93"/>
<polygon fill="grey" stroke="grey" stroke-width="2" points="992.54,-257.09 1000.78,-250.44 990.19,-250.5 992.54,-257.09"/>
</g>
<!-- 13&#45;&gt;8 -->
<g id="edge39" class="edge">
<title>13&#45;&gt;8</title>
<path fill="none" stroke="grey" stroke-width="2" d="M790.34,-301.85C639.92,-293.47 241.25,-270.15 147.95,-251.34"/>
<polygon fill="grey" stroke="grey" stroke-width="2" points="148.66,-247.91 138.13,-249.07 147.08,-254.73 148.66,-247.91"/>
</g>
<!-- 13&#45;&gt;16 -->
<g id="edge54" class="edge">
<title>13&#45;&gt;16</title>
<path fill="none" stroke="grey" stroke-width="2" d="M808.37,-287.88C784.06,-277.37 752.95,-263.93 728.18,-253.23"/>
<polygon fill="grey" stroke="grey" stroke-width="2" points="729.25,-249.88 718.68,-249.12 726.48,-256.3 729.25,-249.88"/>
</g>
<!-- 13&#45;&gt;25 -->
<g id="edge68" class="edge">
<title>13&#45;&gt;25</title>
<path fill="none" stroke="grey" stroke-width="2" d="M866.54,-287.7C875.8,-279.05 887.16,-268.45 897.26,-259.03"/>
<polygon fill="grey" stroke="grey" stroke-width="2" points="899.75,-261.49 904.67,-252.1 894.98,-256.37 899.75,-261.49"/>
</g>
<!-- 13&#45;&gt;26 -->
<g id="edge72" class="edge">
<title>13&#45;&gt;26</title>
<path fill="none" stroke="grey" stroke-width="2" d="M905.58,-294.82C978.77,-281.88 1104.69,-259.63 1180.57,-246.21"/>
<polygon fill="grey" stroke="grey" stroke-width="2" points="1181.24,-249.65 1190.48,-244.46 1180.02,-242.76 1181.24,-249.65"/>
</g>
<!-- 14&#45;&gt;1 -->
<g id="edge14" class="edge">
<title>14&#45;&gt;1</title>
<path fill="none" stroke="grey" stroke-width="2" d="M727.37,-664.31C677.94,-661.88 585.87,-651.85 520,-612 439.56,-563.34 310.5,-358.22 248,-288 239.67,-278.65 230.31,-268.6 221.96,-259.8"/>
<polygon fill="grey" stroke="grey" stroke-width="2" points="224.36,-257.25 214.93,-252.43 219.3,-262.08 224.36,-257.25"/>
</g>
<!-- 14&#45;&gt;4 -->
<g id="edge24" class="edge">
<title>14&#45;&gt;4</title>
<path fill="none" stroke="grey" stroke-width="2" d="M762,-647.95C762,-621.29 762,-568.11 762,-523 762,-523 762,-523 762,-305 762,-264.16 774.03,-218.11 782.85,-189.82"/>
<polygon fill="grey" stroke="grey" stroke-width="2" points="786.2,-190.83 785.93,-180.24 779.54,-188.69 786.2,-190.83"/>
</g>
<!-- 14&#45;&gt;5 -->
<g id="edge29" class="edge">
<title>14&#45;&gt;5</title>
<path fill="none" stroke="grey" stroke-width="2" d="M727.15,-656.14C672.3,-639.85 572,-599.6 572,-523 572,-523 572,-523 572,-377 572,-337 572,-290.65 572,-262.08"/>
<polygon fill="grey" stroke="grey" stroke-width="2" points="575.5,-262.05 572,-252.05 568.5,-262.05 575.5,-262.05"/>
</g>
<!-- 14&#45;&gt;7 -->
<g id="edge35" class="edge">
<title>14&#45;&gt;7</title>
<path fill="none" stroke="grey" stroke-width="2" d="M781.69,-647.92C792.49,-638.02 805.73,-624.98 816,-612 912.18,-490.43 998.97,-325.08 1030.96,-261.45"/>
<polygon fill="grey" stroke="grey" stroke-width="2" points="1034.27,-262.64 1035.61,-252.13 1028.01,-259.51 1034.27,-262.64"/>
</g>
<!-- 14&#45;&gt;8 -->
<g id="edge40" class="edge">
<title>14&#45;&gt;8</title>
<path fill="none" stroke="grey" stroke-width="2" d="M727.23,-663.52C671.49,-660.09 559.61,-648.82 473,-612 321.46,-547.59 278.13,-521.89 172,-396 138.57,-356.34 122.43,-296.46 115.5,-262"/>
<polygon fill="grey" stroke="grey" stroke-width="2" points="118.94,-261.35 113.64,-252.18 112.06,-262.65 118.94,-261.35"/>
</g>
<!-- 14&#45;&gt;16 -->
<g id="edge55" class="edge">
<title>14&#45;&gt;16</title>
<path fill="none" stroke="grey" stroke-width="2" d="M745.51,-647.77C723.16,-622.53 686,-573.05 686,-523 686,-523 686,-523 686,-377 686,-337 686,-290.65 686,-262.08"/>
<polygon fill="grey" stroke="grey" stroke-width="2" points="689.5,-262.05 686,-252.05 682.5,-262.05 689.5,-262.05"/>
</g>
<!-- 14&#45;&gt;17 -->
<g id="edge58" class="edge">
<title>14&#45;&gt;17</title>
<path fill="none" stroke="grey" stroke-width="2" d="M727.26,-663.4C688.33,-659.8 625.63,-648.31 587,-612 460.21,-492.84 429.12,-268.57 421.99,-190.57"/>
<polygon fill="grey" stroke="grey" stroke-width="2" points="425.44,-189.82 421.1,-180.16 418.46,-190.42 425.44,-189.82"/>
</g>
<!-- 14&#45;&gt;25 -->
<g id="edge69" class="edge">
<title>14&#45;&gt;25</title>
<path fill="none" stroke="grey" stroke-width="2" d="M772.31,-647.66C800.81,-598.77 880.78,-454.89 915,-324 920.32,-303.64 922.25,-279.88 922.89,-262.03"/>
<polygon fill="grey" stroke="grey" stroke-width="2" points="926.39,-262.1 923.13,-252.02 919.39,-261.93 926.39,-262.1"/>
</g>
<!-- 14&#45;&gt;26 -->
<g id="edge73" class="edge">
<title>14&#45;&gt;26</title>
<path fill="none" stroke="grey" stroke-width="2" d="M796.78,-654.33C887.75,-626.29 1126.68,-551.93 1140,-540 1222.99,-465.7 1239.8,-322.48 1243.17,-262.49"/>
<polygon fill="grey" stroke="grey" stroke-width="2" points="1246.68,-262.44 1243.66,-252.29 1239.68,-262.11 1246.68,-262.44"/>
</g>
<!-- 14&#45;&gt;28 -->
<g id="edge76" class="edge">
<title>14&#45;&gt;28</title>
<path fill="none" stroke="grey" stroke-width="2" d="M796.58,-657.58C856.15,-644.78 978.06,-618.61 1043.74,-604.5"/>
<polygon fill="grey" stroke="grey" stroke-width="2" points="1044.73,-607.87 1053.78,-602.35 1043.26,-601.03 1044.73,-607.87"/>
</g>
<!-- 15&#45;&gt;1 -->
<g id="edge15" class="edge">
<title>15&#45;&gt;1</title>
<path fill="none" stroke="grey" stroke-width="2" d="M207.03,-287.7C205.71,-279.98 204.12,-270.71 202.65,-262.11"/>
<polygon fill="grey" stroke="grey" stroke-width="2" points="206.07,-261.37 200.93,-252.1 199.17,-262.55 206.07,-261.37"/>
</g>
<!-- 15&#45;&gt;5 -->
<g id="edge30" class="edge">
<title>15&#45;&gt;5</title>
<path fill="none" stroke="grey" stroke-width="2" d="M239.62,-299.27C305.29,-286.57 462.94,-256.09 534.97,-242.16"/>
<polygon fill="grey" stroke="grey" stroke-width="2" points="535.8,-245.56 544.96,-240.23 534.48,-238.69 535.8,-245.56"/>
</g>
<!-- 15&#45;&gt;8 -->
<g id="edge41" class="edge">
<title>15&#45;&gt;8</title>
<path fill="none" stroke="grey" stroke-width="2" d="M185.78,-287.88C173.08,-278.89 157.34,-267.76 143.58,-258.03"/>
<polygon fill="grey" stroke="grey" stroke-width="2" points="145.5,-255.11 135.31,-252.19 141.46,-260.82 145.5,-255.11"/>
</g>
<!-- 16&#45;&gt;2 -->
<g id="edge16" class="edge">
<title>16&#45;&gt;2</title>
<path fill="none" stroke="grey" stroke-width="2" d="M653.47,-225.34C639.52,-222.21 623.01,-218.69 608,-216 495.34,-195.8 466.24,-196.66 353,-180 340.9,-178.22 328.07,-176.29 315.58,-174.39"/>
<polygon fill="grey" stroke="grey" stroke-width="2" points="316.08,-170.93 305.67,-172.88 315.03,-177.85 316.08,-170.93"/>
</g>
<!-- 17&#45;&gt;3 -->
<g id="edge18" class="edge">
<title>17&#45;&gt;3</title>
<path fill="none" stroke="grey" stroke-width="2" d="M420,-143.7C420,-135.98 420,-126.71 420,-118.11"/>
<polygon fill="grey" stroke="grey" stroke-width="2" points="423.5,-118.1 420,-108.1 416.5,-118.1 423.5,-118.1"/>
</g>
<!-- 18 -->
<g id="node19" class="node">
<title>18</title>
<path fill="none" stroke="#78d856" stroke-width="2" stroke-dasharray="5,2" d="M1229.5,-180C1229.5,-180 1198.5,-180 1198.5,-180 1192.5,-180 1186.5,-174 1186.5,-168 1186.5,-168 1186.5,-156 1186.5,-156 1186.5,-150 1192.5,-144 1198.5,-144 1198.5,-144 1229.5,-144 1229.5,-144 1235.5,-144 1241.5,-150 1241.5,-156 1241.5,-156 1241.5,-168 1241.5,-168 1241.5,-174 1235.5,-180 1229.5,-180"/>
<text text-anchor="middle" x="1214" y="-159.5" font-family="sans" font-size="10.00">varscan</text>
</g>
<!-- 18&#45;&gt;6 -->
<g id="edge31" class="edge">
<title>18&#45;&gt;6</title>
<path fill="none" stroke="grey" stroke-width="2" d="M1198.18,-143.7C1190.43,-135.22 1180.96,-124.86 1172.48,-115.58"/>
<polygon fill="grey" stroke="grey" stroke-width="2" points="1174.97,-113.12 1165.64,-108.1 1169.8,-117.85 1174.97,-113.12"/>
</g>
<!-- 19 -->
<g id="node20" class="node">
<title>19</title>
<path fill="none" stroke="#59d856" stroke-width="2" stroke-dasharray="5,2" d="M1650,-612C1650,-612 1620,-612 1620,-612 1614,-612 1608,-606 1608,-600 1608,-600 1608,-588 1608,-588 1608,-582 1614,-576 1620,-576 1620,-576 1650,-576 1650,-576 1656,-576 1662,-582 1662,-588 1662,-588 1662,-600 1662,-600 1662,-606 1656,-612 1650,-612"/>
<text text-anchor="middle" x="1635" y="-591.5" font-family="sans" font-size="10.00">fastqc</text>
</g>
<!-- 19&#45;&gt;9 -->
<g id="edge42" class="edge">
<title>19&#45;&gt;9</title>
<path fill="none" stroke="grey" stroke-width="2" d="M1635.48,-575.83C1635.96,-525.37 1630.68,-375.64 1556,-288 1534.63,-262.92 1499.15,-249.3 1472.11,-242.18"/>
<polygon fill="grey" stroke="grey" stroke-width="2" points="1472.76,-238.73 1462.22,-239.75 1471.1,-245.53 1472.76,-238.73"/>
</g>
<!-- 20 -->
<g id="node21" class="node">
<title>20</title>
<path fill="none" stroke="#d86656" stroke-width="2" stroke-dasharray="5,2" d="M1540,-684C1540,-684 1484,-684 1484,-684 1478,-684 1472,-678 1472,-672 1472,-672 1472,-660 1472,-660 1472,-654 1478,-648 1484,-648 1484,-648 1540,-648 1540,-648 1546,-648 1552,-654 1552,-660 1552,-660 1552,-672 1552,-672 1552,-678 1546,-684 1540,-684"/>
<text text-anchor="middle" x="1512" y="-663.5" font-family="sans" font-size="10.00">trimmomatic</text>
</g>
<!-- 20&#45;&gt;9 -->
<g id="edge43" class="edge">
<title>20&#45;&gt;9</title>
<path fill="none" stroke="grey" stroke-width="2" d="M1518.07,-647.76C1526.84,-621.28 1542,-568.86 1542,-523 1542,-523 1542,-523 1542,-377 1542,-336.55 1546.49,-320.93 1523,-288 1510.3,-270.19 1489.58,-257.29 1471.43,-248.67"/>
<polygon fill="grey" stroke="grey" stroke-width="2" points="1472.79,-245.44 1462.23,-244.55 1469.93,-251.83 1472.79,-245.44"/>
</g>
<!-- 20&#45;&gt;28 -->
<g id="edge75" class="edge">
<title>20&#45;&gt;28</title>
<path fill="none" stroke="grey" stroke-width="2" d="M1471.73,-658.35C1392.04,-645.19 1214.8,-615.93 1132.1,-602.28"/>
<polygon fill="grey" stroke="grey" stroke-width="2" points="1132.46,-598.79 1122.02,-600.62 1131.31,-605.7 1132.46,-598.79"/>
</g>
<!-- 21&#45;&gt;9 -->
<g id="edge44" class="edge">
<title>21&#45;&gt;9</title>
<path fill="none" stroke="grey" stroke-width="2" d="M1399.62,-287.7C1405.14,-279.47 1411.85,-269.48 1417.93,-260.42"/>
<polygon fill="grey" stroke="grey" stroke-width="2" points="1420.85,-262.36 1423.52,-252.1 1415.04,-258.46 1420.85,-262.36"/>
</g>
<!-- 22&#45;&gt;9 -->
<g id="edge45" class="edge">
<title>22&#45;&gt;9</title>
<path fill="none" stroke="grey" stroke-width="2" d="M1471.13,-287.7C1465.5,-279.47 1458.65,-269.48 1452.43,-260.42"/>
<polygon fill="grey" stroke="grey" stroke-width="2" points="1455.27,-258.37 1446.73,-252.1 1449.5,-262.33 1455.27,-258.37"/>
</g>
<!-- 23 -->
<g id="node24" class="node">
<title>23</title>
<path fill="none" stroke="#56c9d8" stroke-width="2" stroke-dasharray="5,2" d="M1119,-540C1119,-540 1057,-540 1057,-540 1051,-540 1045,-534 1045,-528 1045,-528 1045,-516 1045,-516 1045,-510 1051,-504 1057,-504 1057,-504 1119,-504 1119,-504 1125,-504 1131,-510 1131,-516 1131,-516 1131,-528 1131,-528 1131,-534 1125,-540 1119,-540"/>
<text text-anchor="middle" x="1088" y="-519.5" font-family="sans" font-size="10.00">samtools_sort</text>
</g>
<!-- 23&#45;&gt;11 -->
<g id="edge47" class="edge">
<title>23&#45;&gt;11</title>
<path fill="none" stroke="grey" stroke-width="2" d="M1112.48,-503.77C1123.4,-494.56 1135.12,-482.19 1141,-468 1147.12,-453.22 1146.35,-447.08 1141,-432 1137.34,-421.68 1130.71,-411.9 1123.74,-403.61"/>
<polygon fill="grey" stroke="grey" stroke-width="2" points="1126.33,-401.26 1117.04,-396.16 1121.13,-405.94 1126.33,-401.26"/>
</g>
<!-- 24 -->
<g id="node25" class="node">
<title>24</title>
<path fill="none" stroke="#56d8b9" stroke-width="2" stroke-dasharray="5,2" d="M1120,-468C1120,-468 1050,-468 1050,-468 1044,-468 1038,-462 1038,-456 1038,-456 1038,-444 1038,-444 1038,-438 1044,-432 1050,-432 1050,-432 1120,-432 1120,-432 1126,-432 1132,-438 1132,-444 1132,-444 1132,-456 1132,-456 1132,-462 1126,-468 1120,-468"/>
<text text-anchor="middle" x="1085" y="-447.5" font-family="sans" font-size="10.00">samtools_index</text>
</g>
<!-- 23&#45;&gt;24 -->
<g id="edge65" class="edge">
<title>23&#45;&gt;24</title>
<path fill="none" stroke="grey" stroke-width="2" d="M1087.26,-503.7C1086.93,-495.98 1086.53,-486.71 1086.16,-478.11"/>
<polygon fill="grey" stroke="grey" stroke-width="2" points="1089.66,-477.95 1085.73,-468.1 1082.66,-478.25 1089.66,-477.95"/>
</g>
<!-- 24&#45;&gt;11 -->
<g id="edge48" class="edge">
<title>24&#45;&gt;11</title>
<path fill="none" stroke="grey" stroke-width="2" d="M1088.21,-431.7C1089.65,-423.98 1091.37,-414.71 1092.96,-406.11"/>
<polygon fill="grey" stroke="grey" stroke-width="2" points="1096.44,-406.58 1094.82,-396.1 1089.56,-405.3 1096.44,-406.58"/>
</g>
<!-- 25&#45;&gt;17 -->
<g id="edge57" class="edge">
<title>25&#45;&gt;17</title>
<path fill="none" stroke="grey" stroke-width="2" d="M863.32,-224.7C769.32,-211.61 587.3,-186.28 488.24,-172.5"/>
<polygon fill="grey" stroke="grey" stroke-width="2" points="488.43,-168.99 478.05,-171.08 487.47,-175.92 488.43,-168.99"/>
</g>
<!-- 26&#45;&gt;18 -->
<g id="edge59" class="edge">
<title>26&#45;&gt;18</title>
<path fill="none" stroke="grey" stroke-width="2" d="M1236.58,-215.7C1233.21,-207.81 1229.13,-198.3 1225.38,-189.55"/>
<polygon fill="grey" stroke="grey" stroke-width="2" points="1228.49,-187.92 1221.33,-180.1 1222.05,-190.67 1228.49,-187.92"/>
</g>
<!-- 27 -->
<g id="node28" class="node">
<title>27</title>
<path fill="none" stroke="#c6d856" stroke-width="2" stroke-dasharray="5,2" d="M1643.5,-756C1643.5,-756 1494.5,-756 1494.5,-756 1488.5,-756 1482.5,-750 1482.5,-744 1482.5,-744 1482.5,-732 1482.5,-732 1482.5,-726 1488.5,-720 1494.5,-720 1494.5,-720 1643.5,-720 1643.5,-720 1649.5,-720 1655.5,-726 1655.5,-732 1655.5,-732 1655.5,-744 1655.5,-744 1655.5,-750 1649.5,-756 1643.5,-756"/>
<text text-anchor="middle" x="1569" y="-741" font-family="sans" font-size="10.00">cp_reads</text>
<text text-anchor="middle" x="1569" y="-730" font-family="sans" font-size="10.00">library: N100_R2_AF0.6_NR7000</text>
</g>
<!-- 27&#45;&gt;19 -->
<g id="edge60" class="edge">
<title>27&#45;&gt;19</title>
<path fill="none" stroke="grey" stroke-width="2" d="M1577.15,-719.83C1582.05,-709.47 1588.41,-695.99 1594,-684 1603.83,-662.92 1614.85,-638.98 1622.99,-621.24"/>
<polygon fill="grey" stroke="grey" stroke-width="2" points="1626.2,-622.63 1627.19,-612.08 1619.84,-619.71 1626.2,-622.63"/>
</g>
<!-- 27&#45;&gt;20 -->
<g id="edge61" class="edge">
<title>27&#45;&gt;20</title>
<path fill="none" stroke="grey" stroke-width="2" d="M1554.91,-719.7C1548.08,-711.3 1539.74,-701.07 1532.24,-691.86"/>
<polygon fill="grey" stroke="grey" stroke-width="2" points="1534.96,-689.65 1525.93,-684.1 1529.53,-694.07 1534.96,-689.65"/>
</g>
<!-- 28&#45;&gt;23 -->
<g id="edge64" class="edge">
<title>28&#45;&gt;23</title>
<path fill="none" stroke="grey" stroke-width="2" d="M1088,-575.7C1088,-567.98 1088,-558.71 1088,-550.11"/>
<polygon fill="grey" stroke="grey" stroke-width="2" points="1091.5,-550.1 1088,-540.1 1084.5,-550.1 1091.5,-550.1"/>
</g>
<!-- 29&#45;&gt;28 -->
<g id="edge77" class="edge">
<title>29&#45;&gt;28</title>
<path fill="none" stroke="grey" stroke-width="2" d="M1054.88,-647.7C1059.99,-639.56 1066.2,-629.69 1071.84,-620.7"/>
<polygon fill="grey" stroke="grey" stroke-width="2" points="1074.89,-622.43 1077.25,-612.1 1068.96,-618.71 1074.89,-622.43"/>
</g>
<!-- 30&#45;&gt;28 -->
<g id="edge78" class="edge">
<title>30&#45;&gt;28</title>
<path fill="none" stroke="grey" stroke-width="2" d="M1126.39,-647.7C1120.4,-639.47 1113.12,-629.48 1106.52,-620.42"/>
<polygon fill="grey" stroke="grey" stroke-width="2" points="1109.18,-618.13 1100.46,-612.1 1103.52,-622.25 1109.18,-618.13"/>
</g>
</g>
</svg>
