<?xml version="1.0" encoding="UTF-8" standalone="no"?>
<!DOCTYPE svg PUBLIC "-//W3C//DTD SVG 1.1//EN"
 "http://www.w3.org/Graphics/SVG/1.1/DTD/svg11.dtd">
<!-- Generated by graphviz version 2.43.0 (0)
 -->
<!-- Title: snakemake_dag Pages: 1 -->
<svg width="1105pt" height="1068pt"
 viewBox="0.00 0.00 1105.00 1068.00" xmlns="http://www.w3.org/2000/svg" xmlns:xlink="http://www.w3.org/1999/xlink">
<g id="graph0" class="graph" transform="scale(1 1) rotate(0) translate(4 1064)">
<title>snakemake_dag</title>
<polygon fill="white" stroke="transparent" points="-4,4 -4,-1064 1101,-1064 1101,4 -4,4"/>
<!-- 0 -->
<g id="node1" class="node">
<title>0</title>
<path fill="none" stroke="#d87d56" stroke-width="2" d="M427,-36C427,-36 397,-36 397,-36 391,-36 385,-30 385,-24 385,-24 385,-12 385,-12 385,-6 391,0 397,0 397,0 427,0 427,0 433,0 439,-6 439,-12 439,-12 439,-24 439,-24 439,-30 433,-36 427,-36"/>
<text text-anchor="middle" x="412" y="-15.5" font-family="sans" font-size="10.00">all</text>
</g>
<!-- 1 -->
<g id="node2" class="node">
<title>1</title>
<path fill="none" stroke="#56d87b" stroke-width="2" d="M135,-108C135,-108 105,-108 105,-108 99,-108 93,-102 93,-96 93,-96 93,-84 93,-84 93,-78 99,-72 105,-72 105,-72 135,-72 135,-72 141,-72 147,-78 147,-84 147,-84 147,-96 147,-96 147,-102 141,-108 135,-108"/>
<text text-anchor="middle" x="120" y="-87.5" font-family="sans" font-size="10.00">psl2pos</text>
</g>
<!-- 1&#45;&gt;0 -->
<g id="edge1" class="edge">
<title>1&#45;&gt;0</title>
<path fill="none" stroke="grey" stroke-width="2" d="M147.21,-82.48C199.81,-69.87 315.49,-42.14 375.01,-27.87"/>
<polygon fill="grey" stroke="grey" stroke-width="2" points="375.85,-31.27 384.75,-25.53 374.21,-24.46 375.85,-31.27"/>
</g>
<!-- 2 -->
<g id="node3" class="node">
<title>2</title>
<path fill="none" stroke="#56d892" stroke-width="2" d="M187.5,-332C187.5,-332 146.5,-332 146.5,-332 140.5,-332 134.5,-326 134.5,-320 134.5,-320 134.5,-308 134.5,-308 134.5,-302 140.5,-296 146.5,-296 146.5,-296 187.5,-296 187.5,-296 193.5,-296 199.5,-302 199.5,-308 199.5,-308 199.5,-320 199.5,-320 199.5,-326 193.5,-332 187.5,-332"/>
<text text-anchor="middle" x="167" y="-311.5" font-family="sans" font-size="10.00">mosdepth</text>
</g>
<!-- 2&#45;&gt;0 -->
<g id="edge2" class="edge">
<title>2&#45;&gt;0</title>
<path fill="none" stroke="grey" stroke-width="2" d="M178.87,-295.69C200.48,-264.5 248.17,-197.15 293,-144 323.81,-107.47 362.43,-67.94 387.16,-43.32"/>
<polygon fill="grey" stroke="grey" stroke-width="2" points="389.72,-45.71 394.36,-36.18 384.79,-40.74 389.72,-45.71"/>
</g>
<!-- 3 -->
<g id="node4" class="node">
<title>3</title>
<path fill="none" stroke="#56d892" stroke-width="2" d="M1003.5,-332C1003.5,-332 962.5,-332 962.5,-332 956.5,-332 950.5,-326 950.5,-320 950.5,-320 950.5,-308 950.5,-308 950.5,-302 956.5,-296 962.5,-296 962.5,-296 1003.5,-296 1003.5,-296 1009.5,-296 1015.5,-302 1015.5,-308 1015.5,-308 1015.5,-320 1015.5,-320 1015.5,-326 1009.5,-332 1003.5,-332"/>
<text text-anchor="middle" x="983" y="-311.5" font-family="sans" font-size="10.00">mosdepth</text>
</g>
<!-- 3&#45;&gt;0 -->
<g id="edge3" class="edge">
<title>3&#45;&gt;0</title>
<path fill="none" stroke="grey" stroke-width="2" d="M968.96,-295.64C951.2,-274.57 918.84,-239.03 885,-216 737.98,-115.95 532.14,-52.03 448.99,-28.82"/>
<polygon fill="grey" stroke="grey" stroke-width="2" points="449.82,-25.41 439.24,-26.13 447.95,-32.16 449.82,-25.41"/>
</g>
<!-- 4 -->
<g id="node5" class="node">
<title>4</title>
<path fill="none" stroke="#56d8d0" stroke-width="2" d="M699,-180C699,-180 653,-180 653,-180 647,-180 641,-174 641,-168 641,-168 641,-156 641,-156 641,-150 647,-144 653,-144 653,-144 699,-144 699,-144 705,-144 711,-150 711,-156 711,-156 711,-168 711,-168 711,-174 705,-180 699,-180"/>
<text text-anchor="middle" x="676" y="-159.5" font-family="sans" font-size="10.00">strelka2sql</text>
</g>
<!-- 4&#45;&gt;0 -->
<g id="edge4" class="edge">
<title>4&#45;&gt;0</title>
<path fill="none" stroke="grey" stroke-width="2" d="M644.16,-143.87C594.74,-117.29 499.88,-66.27 448.02,-38.38"/>
<polygon fill="grey" stroke="grey" stroke-width="2" points="449.63,-35.27 439.17,-33.61 446.32,-41.43 449.63,-35.27"/>
</g>
<!-- 5 -->
<g id="node6" class="node">
<title>5</title>
<path fill="none" stroke="#68d856" stroke-width="2" d="M435.5,-108C435.5,-108 388.5,-108 388.5,-108 382.5,-108 376.5,-102 376.5,-96 376.5,-96 376.5,-84 376.5,-84 376.5,-78 382.5,-72 388.5,-72 388.5,-72 435.5,-72 435.5,-72 441.5,-72 447.5,-78 447.5,-84 447.5,-84 447.5,-96 447.5,-96 447.5,-102 441.5,-108 435.5,-108"/>
<text text-anchor="middle" x="412" y="-87.5" font-family="sans" font-size="10.00">mutect2sql</text>
</g>
<!-- 5&#45;&gt;0 -->
<g id="edge5" class="edge">
<title>5&#45;&gt;0</title>
<path fill="none" stroke="grey" stroke-width="2" d="M412,-71.7C412,-63.98 412,-54.71 412,-46.11"/>
<polygon fill="grey" stroke="grey" stroke-width="2" points="415.5,-46.1 412,-36.1 408.5,-46.1 415.5,-46.1"/>
</g>
<!-- 6 -->
<g id="node7" class="node">
<title>6</title>
<path fill="none" stroke="#56d8a9" stroke-width="2" d="M67,-916C67,-916 37,-916 37,-916 31,-916 25,-910 25,-904 25,-904 25,-892 25,-892 25,-886 31,-880 37,-880 37,-880 67,-880 67,-880 73,-880 79,-886 79,-892 79,-892 79,-904 79,-904 79,-910 73,-916 67,-916"/>
<text text-anchor="middle" x="52" y="-895.5" font-family="sans" font-size="10.00">blat</text>
</g>
<!-- 6&#45;&gt;1 -->
<g id="edge6" class="edge">
<title>6&#45;&gt;1</title>
<path fill="none" stroke="grey" stroke-width="2" d="M53.78,-879.97C56.4,-853.34 61,-800.21 61,-755 61,-755 61,-755 61,-233 61,-189.83 84.54,-144.53 101.89,-117.03"/>
<polygon fill="grey" stroke="grey" stroke-width="2" points="104.97,-118.7 107.49,-108.41 99.1,-114.89 104.97,-118.7"/>
</g>
<!-- 7 -->
<g id="node8" class="node">
<title>7</title>
<path fill="none" stroke="#56a9d8" stroke-width="2" d="M439.5,-484C439.5,-484 352.5,-484 352.5,-484 346.5,-484 340.5,-478 340.5,-472 340.5,-472 340.5,-460 340.5,-460 340.5,-454 346.5,-448 352.5,-448 352.5,-448 439.5,-448 439.5,-448 445.5,-448 451.5,-454 451.5,-460 451.5,-460 451.5,-472 451.5,-472 451.5,-478 445.5,-484 439.5,-484"/>
<text text-anchor="middle" x="396" y="-463.5" font-family="sans" font-size="10.00">samtools_view_md</text>
</g>
<!-- 7&#45;&gt;2 -->
<g id="edge7" class="edge">
<title>7&#45;&gt;2</title>
<path fill="none" stroke="grey" stroke-width="2" d="M364.1,-447.87C345.93,-437.85 322.89,-424.71 303,-412 265.96,-388.32 225.1,-358.67 197.93,-338.43"/>
<polygon fill="grey" stroke="grey" stroke-width="2" points="199.71,-335.39 189.61,-332.2 195.52,-341 199.71,-335.39"/>
</g>
<!-- 9 -->
<g id="node10" class="node">
<title>9</title>
<path fill="none" stroke="#56b9d8" stroke-width="2" d="M428.5,-412C428.5,-412 337.5,-412 337.5,-412 331.5,-412 325.5,-406 325.5,-400 325.5,-400 325.5,-388 325.5,-388 325.5,-382 331.5,-376 337.5,-376 337.5,-376 428.5,-376 428.5,-376 434.5,-376 440.5,-382 440.5,-388 440.5,-388 440.5,-400 440.5,-400 440.5,-406 434.5,-412 428.5,-412"/>
<text text-anchor="middle" x="383" y="-391.5" font-family="sans" font-size="10.00">samtools_index_md</text>
</g>
<!-- 7&#45;&gt;9 -->
<g id="edge21" class="edge">
<title>7&#45;&gt;9</title>
<path fill="none" stroke="grey" stroke-width="2" d="M392.79,-447.7C391.35,-439.98 389.63,-430.71 388.04,-422.11"/>
<polygon fill="grey" stroke="grey" stroke-width="2" points="391.44,-421.3 386.18,-412.1 384.56,-422.58 391.44,-421.3"/>
</g>
<!-- 19 -->
<g id="node20" class="node">
<title>19</title>
<path fill="none" stroke="#567bd8" stroke-width="2" d="M698,-334.5C698,-334.5 654,-334.5 654,-334.5 648,-334.5 642,-328.5 642,-322.5 642,-322.5 642,-305.5 642,-305.5 642,-299.5 648,-293.5 654,-293.5 654,-293.5 698,-293.5 698,-293.5 704,-293.5 710,-299.5 710,-305.5 710,-305.5 710,-322.5 710,-322.5 710,-328.5 704,-334.5 698,-334.5"/>
<text text-anchor="middle" x="676" y="-322.5" font-family="sans" font-size="10.00">strelka2</text>
<text text-anchor="middle" x="676" y="-311.5" font-family="sans" font-size="10.00">normal: L2</text>
<text text-anchor="middle" x="676" y="-300.5" font-family="sans" font-size="10.00">tumor: L1</text>
</g>
<!-- 7&#45;&gt;19 -->
<g id="edge37" class="edge">
<title>7&#45;&gt;19</title>
<path fill="none" stroke="grey" stroke-width="2" d="M429.59,-447.84C475.74,-424.13 561.18,-379.79 633,-340 633.3,-339.84 633.6,-339.67 633.9,-339.5"/>
<polygon fill="grey" stroke="grey" stroke-width="2" points="635.75,-342.48 642.74,-334.52 632.31,-336.38 635.75,-342.48"/>
</g>
<!-- 20 -->
<g id="node21" class="node">
<title>20</title>
<path fill="none" stroke="#567bd8" stroke-width="2" d="M920,-334.5C920,-334.5 876,-334.5 876,-334.5 870,-334.5 864,-328.5 864,-322.5 864,-322.5 864,-305.5 864,-305.5 864,-299.5 870,-293.5 876,-293.5 876,-293.5 920,-293.5 920,-293.5 926,-293.5 932,-299.5 932,-305.5 932,-305.5 932,-322.5 932,-322.5 932,-328.5 926,-334.5 920,-334.5"/>
<text text-anchor="middle" x="898" y="-322.5" font-family="sans" font-size="10.00">strelka2</text>
<text text-anchor="middle" x="898" y="-311.5" font-family="sans" font-size="10.00">normal: L1</text>
<text text-anchor="middle" x="898" y="-300.5" font-family="sans" font-size="10.00">tumor: L2</text>
</g>
<!-- 7&#45;&gt;20 -->
<g id="edge44" class="edge">
<title>7&#45;&gt;20</title>
<path fill="none" stroke="grey" stroke-width="2" d="M451.5,-464.98C558.21,-463.93 786.99,-456.39 850,-412 872.51,-396.14 884.98,-366.65 891.53,-344.33"/>
<polygon fill="grey" stroke="grey" stroke-width="2" points="894.91,-345.22 894.13,-334.66 888.15,-343.4 894.91,-345.22"/>
</g>
<!-- 29 -->
<g id="node30" class="node">
<title>29</title>
<path fill="none" stroke="#56d0d8" stroke-width="2" d="M400,-340C400,-340 230,-340 230,-340 224,-340 218,-334 218,-328 218,-328 218,-300 218,-300 218,-294 224,-288 230,-288 230,-288 400,-288 400,-288 406,-288 412,-294 412,-300 412,-300 412,-328 412,-328 412,-334 406,-340 400,-340"/>
<text text-anchor="middle" x="315" y="-328" font-family="sans" font-size="10.00">gatk_mutect2</text>
<text text-anchor="middle" x="315" y="-317" font-family="sans" font-size="10.00">interval: 0000&#45;scattered.interval_list</text>
<text text-anchor="middle" x="315" y="-306" font-family="sans" font-size="10.00">normal: L2</text>
<text text-anchor="middle" x="315" y="-295" font-family="sans" font-size="10.00">tumor: L1</text>
</g>
<!-- 7&#45;&gt;29 -->
<g id="edge56" class="edge">
<title>7&#45;&gt;29</title>
<path fill="none" stroke="grey" stroke-width="2" d="M355.48,-447.8C340.67,-439.31 325.48,-427.51 317,-412 306.8,-393.33 306.17,-369.47 308.16,-350.09"/>
<polygon fill="grey" stroke="grey" stroke-width="2" points="311.64,-350.5 309.45,-340.13 304.7,-349.6 311.64,-350.5"/>
</g>
<!-- 30 -->
<g id="node31" class="node">
<title>30</title>
<path fill="none" stroke="#56d0d8" stroke-width="2" d="M612,-340C612,-340 442,-340 442,-340 436,-340 430,-334 430,-328 430,-328 430,-300 430,-300 430,-294 436,-288 442,-288 442,-288 612,-288 612,-288 618,-288 624,-294 624,-300 624,-300 624,-328 624,-328 624,-334 618,-340 612,-340"/>
<text text-anchor="middle" x="527" y="-328" font-family="sans" font-size="10.00">gatk_mutect2</text>
<text text-anchor="middle" x="527" y="-317" font-family="sans" font-size="10.00">interval: 0000&#45;scattered.interval_list</text>
<text text-anchor="middle" x="527" y="-306" font-family="sans" font-size="10.00">normal: L1</text>
<text text-anchor="middle" x="527" y="-295" font-family="sans" font-size="10.00">tumor: L2</text>
</g>
<!-- 7&#45;&gt;30 -->
<g id="edge63" class="edge">
<title>7&#45;&gt;30</title>
<path fill="none" stroke="grey" stroke-width="2" d="M414.56,-447.87C425.25,-437.75 438.75,-424.5 450,-412 468.42,-391.54 487.68,-367.27 502.33,-348.14"/>
<polygon fill="grey" stroke="grey" stroke-width="2" points="505.24,-350.08 508.51,-340 499.67,-345.85 505.24,-350.08"/>
</g>
<!-- 8 -->
<g id="node9" class="node">
<title>8</title>
<path fill="none" stroke="#80d856" stroke-width="2" d="M573,-988C573,-988 517,-988 517,-988 511,-988 505,-982 505,-976 505,-976 505,-964 505,-964 505,-958 511,-952 517,-952 517,-952 573,-952 573,-952 579,-952 585,-958 585,-964 585,-964 585,-976 585,-976 585,-982 579,-988 573,-988"/>
<text text-anchor="middle" x="545" y="-967.5" font-family="sans" font-size="10.00">cp_reference</text>
</g>
<!-- 8&#45;&gt;2 -->
<g id="edge8" class="edge">
<title>8&#45;&gt;2</title>
<path fill="none" stroke="grey" stroke-width="2" d="M504.86,-968.23C416.41,-965.81 208.1,-955.91 152,-916 115.88,-890.31 107,-871.32 107,-827 107,-827 107,-827 107,-465 107,-418.69 131.96,-369.71 149.69,-340.78"/>
<polygon fill="grey" stroke="grey" stroke-width="2" points="152.77,-342.44 155.15,-332.11 146.85,-338.71 152.77,-342.44"/>
</g>
<!-- 8&#45;&gt;3 -->
<g id="edge11" class="edge">
<title>8&#45;&gt;3</title>
<path fill="none" stroke="grey" stroke-width="2" d="M585.1,-968.87C688.1,-967.87 959.18,-960.94 1035,-916 1076.47,-891.42 1097,-875.21 1097,-827 1097,-827 1097,-827 1097,-465 1097,-411.33 1050.16,-364.83 1016.53,-338.36"/>
<polygon fill="grey" stroke="grey" stroke-width="2" points="1018.37,-335.37 1008.3,-332.07 1014.12,-340.93 1018.37,-335.37"/>
</g>
<!-- 8&#45;&gt;6 -->
<g id="edge17" class="edge">
<title>8&#45;&gt;6</title>
<path fill="none" stroke="grey" stroke-width="2" d="M504.71,-967.99C424.89,-965.18 241.52,-954.7 93,-916 91.74,-915.67 90.47,-915.31 89.2,-914.93"/>
<polygon fill="grey" stroke="grey" stroke-width="2" points="90.03,-911.51 79.43,-911.59 87.76,-918.14 90.03,-911.51"/>
</g>
<!-- 8&#45;&gt;7 -->
<g id="edge20" class="edge">
<title>8&#45;&gt;7</title>
<path fill="none" stroke="grey" stroke-width="2" d="M504.81,-964.19C451.77,-956.93 362.78,-941.27 343,-916 323.28,-890.8 342.22,-876 342,-844 341.89,-828 337.08,-823.22 342,-808 348.07,-789.22 360.52,-790.27 368,-772 392.53,-712.08 383.9,-692.45 390,-628 394.41,-581.42 395.62,-526.97 395.93,-494.83"/>
<polygon fill="grey" stroke="grey" stroke-width="2" points="399.43,-494.46 396,-484.43 392.43,-494.41 399.43,-494.46"/>
</g>
<!-- 10 -->
<g id="node11" class="node">
<title>10</title>
<path fill="none" stroke="#56a9d8" stroke-width="2" d="M913.5,-484C913.5,-484 826.5,-484 826.5,-484 820.5,-484 814.5,-478 814.5,-472 814.5,-472 814.5,-460 814.5,-460 814.5,-454 820.5,-448 826.5,-448 826.5,-448 913.5,-448 913.5,-448 919.5,-448 925.5,-454 925.5,-460 925.5,-460 925.5,-472 925.5,-472 925.5,-478 919.5,-484 913.5,-484"/>
<text text-anchor="middle" x="870" y="-463.5" font-family="sans" font-size="10.00">samtools_view_md</text>
</g>
<!-- 8&#45;&gt;10 -->
<g id="edge23" class="edge">
<title>8&#45;&gt;10</title>
<path fill="none" stroke="grey" stroke-width="2" d="M585.25,-969.56C680.75,-970.05 917.35,-966.05 975,-916 1005.93,-889.14 999,-867.97 999,-827 999,-827 999,-827 999,-609 999,-568.03 1000.87,-551.77 975,-520 964.06,-506.56 948.84,-496.21 933.37,-488.38"/>
<polygon fill="grey" stroke="grey" stroke-width="2" points="934.81,-485.18 924.27,-484.05 931.8,-491.5 934.81,-485.18"/>
</g>
<!-- 17 -->
<g id="node18" class="node">
<title>17</title>
<path fill="none" stroke="#d85656" stroke-width="2" d="M321.5,-556C321.5,-556 226.5,-556 226.5,-556 220.5,-556 214.5,-550 214.5,-544 214.5,-544 214.5,-532 214.5,-532 214.5,-526 220.5,-520 226.5,-520 226.5,-520 321.5,-520 321.5,-520 327.5,-520 333.5,-526 333.5,-532 333.5,-532 333.5,-544 333.5,-544 333.5,-550 327.5,-556 321.5,-556"/>
<text text-anchor="middle" x="274" y="-535.5" font-family="sans" font-size="10.00">gatk_markduplicates</text>
</g>
<!-- 8&#45;&gt;17 -->
<g id="edge31" class="edge">
<title>8&#45;&gt;17</title>
<path fill="none" stroke="grey" stroke-width="2" d="M504.88,-965.79C436.75,-959.65 302.19,-944.23 265,-916 229.86,-889.32 221,-871.13 221,-827 221,-827 221,-827 221,-681 221,-638.21 242.39,-592.48 257.99,-564.82"/>
<polygon fill="grey" stroke="grey" stroke-width="2" points="261.02,-566.56 263.02,-556.16 254.97,-563.05 261.02,-566.56"/>
</g>
<!-- 18 -->
<g id="node19" class="node">
<title>18</title>
<path fill="none" stroke="#d85656" stroke-width="2" d="M919.5,-556C919.5,-556 824.5,-556 824.5,-556 818.5,-556 812.5,-550 812.5,-544 812.5,-544 812.5,-532 812.5,-532 812.5,-526 818.5,-520 824.5,-520 824.5,-520 919.5,-520 919.5,-520 925.5,-520 931.5,-526 931.5,-532 931.5,-532 931.5,-544 931.5,-544 931.5,-550 925.5,-556 919.5,-556"/>
<text text-anchor="middle" x="872" y="-535.5" font-family="sans" font-size="10.00">gatk_markduplicates</text>
</g>
<!-- 8&#45;&gt;18 -->
<g id="edge34" class="edge">
<title>8&#45;&gt;18</title>
<path fill="none" stroke="grey" stroke-width="2" d="M585.19,-966.42C660.73,-960.92 820.42,-946.02 866,-916 905.23,-890.16 923,-873.97 923,-827 923,-827 923,-827 923,-681 923,-638.59 902.6,-593.02 887.6,-565.26"/>
<polygon fill="grey" stroke="grey" stroke-width="2" points="890.49,-563.25 882.57,-556.21 884.37,-566.65 890.49,-563.25"/>
</g>
<!-- 8&#45;&gt;19 -->
<g id="edge36" class="edge">
<title>8&#45;&gt;19</title>
<path fill="none" stroke="grey" stroke-width="2" d="M585.03,-967.07C666.65,-962.49 849.01,-948.79 901,-916 941.35,-890.55 961,-874.7 961,-827 961,-827 961,-827 961,-609 961,-568.46 969.09,-549.23 941,-520 897.97,-475.23 861.35,-512.14 806,-484 760.65,-460.94 747.6,-452.65 717,-412 701.67,-391.63 690.87,-364.67 684.22,-344.35"/>
<polygon fill="grey" stroke="grey" stroke-width="2" points="687.53,-343.18 681.21,-334.68 680.84,-345.27 687.53,-343.18"/>
</g>
<!-- 8&#45;&gt;20 -->
<g id="edge42" class="edge">
<title>8&#45;&gt;20</title>
<path fill="none" stroke="grey" stroke-width="2" d="M585.14,-968.58C682.99,-966.9 930.87,-958.45 1000,-916 1040.44,-891.17 1059,-874.46 1059,-827 1059,-827 1059,-827 1059,-465 1059,-431.48 983.36,-373.44 935.78,-340.24"/>
<polygon fill="grey" stroke="grey" stroke-width="2" points="937.75,-337.35 927.53,-334.54 933.77,-343.11 937.75,-337.35"/>
</g>
<!-- 28 -->
<g id="node29" class="node">
<title>28</title>
<path fill="none" stroke="#566bd8" stroke-width="2" d="M518.5,-916C518.5,-916 473.5,-916 473.5,-916 467.5,-916 461.5,-910 461.5,-904 461.5,-904 461.5,-892 461.5,-892 461.5,-886 467.5,-880 473.5,-880 473.5,-880 518.5,-880 518.5,-880 524.5,-880 530.5,-886 530.5,-892 530.5,-892 530.5,-904 530.5,-904 530.5,-910 524.5,-916 518.5,-916"/>
<text text-anchor="middle" x="496" y="-895.5" font-family="sans" font-size="10.00">bwa_index</text>
</g>
<!-- 8&#45;&gt;28 -->
<g id="edge54" class="edge">
<title>8&#45;&gt;28</title>
<path fill="none" stroke="grey" stroke-width="2" d="M532.89,-951.7C527.13,-943.47 520.14,-933.48 513.79,-924.42"/>
<polygon fill="grey" stroke="grey" stroke-width="2" points="516.58,-922.29 507.97,-916.1 510.84,-926.3 516.58,-922.29"/>
</g>
<!-- 8&#45;&gt;29 -->
<g id="edge55" class="edge">
<title>8&#45;&gt;29</title>
<path fill="none" stroke="grey" stroke-width="2" d="M504.74,-967.56C422.7,-963.92 239.7,-951.89 190,-916 154.07,-890.05 145,-871.32 145,-827 145,-827 145,-827 145,-465 145,-409.16 197.2,-369.15 243.75,-344.57"/>
<polygon fill="grey" stroke="grey" stroke-width="2" points="245.36,-347.68 252.66,-340.01 242.17,-341.45 245.36,-347.68"/>
</g>
<!-- 8&#45;&gt;30 -->
<g id="edge61" class="edge">
<title>8&#45;&gt;30</title>
<path fill="none" stroke="grey" stroke-width="2" d="M504.74,-966.75C429.52,-961.83 271.38,-947.9 228,-916 192.29,-889.74 183,-871.32 183,-827 183,-827 183,-827 183,-465 183,-393.51 252.15,-406.1 317,-376 336.29,-367.05 378.91,-354.25 420.75,-342.69"/>
<polygon fill="grey" stroke="grey" stroke-width="2" points="421.78,-346.03 430.5,-340.01 419.93,-339.28 421.78,-346.03"/>
</g>
<!-- 31 -->
<g id="node32" class="node">
<title>31</title>
<path fill="none" stroke="#8fd856" stroke-width="2" d="M347,-772C347,-772 281,-772 281,-772 275,-772 269,-766 269,-760 269,-760 269,-748 269,-748 269,-742 275,-736 281,-736 281,-736 347,-736 347,-736 353,-736 359,-742 359,-748 359,-748 359,-760 359,-760 359,-766 353,-772 347,-772"/>
<text text-anchor="middle" x="314" y="-751.5" font-family="sans" font-size="10.00">samtools_view</text>
</g>
<!-- 8&#45;&gt;31 -->
<g id="edge68" class="edge">
<title>8&#45;&gt;31</title>
<path fill="none" stroke="grey" stroke-width="2" d="M504.94,-966.9C438.63,-962.49 310.58,-949.72 283,-916 251.37,-877.33 277.68,-816.02 297.35,-781.28"/>
<polygon fill="grey" stroke="grey" stroke-width="2" points="300.62,-782.62 302.67,-772.22 294.58,-779.07 300.62,-782.62"/>
</g>
<!-- 32 -->
<g id="node33" class="node">
<title>32</title>
<path fill="none" stroke="#8fd856" stroke-width="2" d="M863,-772C863,-772 797,-772 797,-772 791,-772 785,-766 785,-760 785,-760 785,-748 785,-748 785,-742 791,-736 797,-736 797,-736 863,-736 863,-736 869,-736 875,-742 875,-748 875,-748 875,-760 875,-760 875,-766 869,-772 863,-772"/>
<text text-anchor="middle" x="830" y="-751.5" font-family="sans" font-size="10.00">samtools_view</text>
</g>
<!-- 8&#45;&gt;32 -->
<g id="edge70" class="edge">
<title>8&#45;&gt;32</title>
<path fill="none" stroke="grey" stroke-width="2" d="M585.18,-968.03C659.14,-965.32 812.28,-955 845,-916 876.66,-878.25 857.86,-816.6 842.91,-781.55"/>
<polygon fill="grey" stroke="grey" stroke-width="2" points="846.11,-780.12 838.84,-772.41 839.71,-782.97 846.11,-780.12"/>
</g>
<!-- 33 -->
<g id="node34" class="node">
<title>33</title>
<path fill="none" stroke="#ced856" stroke-width="2" d="M407,-844C407,-844 363,-844 363,-844 357,-844 351,-838 351,-832 351,-832 351,-820 351,-820 351,-814 357,-808 363,-808 363,-808 407,-808 407,-808 413,-808 419,-814 419,-820 419,-820 419,-832 419,-832 419,-838 413,-844 407,-844"/>
<text text-anchor="middle" x="385" y="-823.5" font-family="sans" font-size="10.00">bwa_mem</text>
</g>
<!-- 8&#45;&gt;33 -->
<g id="edge71" class="edge">
<title>8&#45;&gt;33</title>
<path fill="none" stroke="grey" stroke-width="2" d="M504.78,-963.57C454.32,-955.84 372.17,-939.9 354,-916 339.74,-897.25 351.32,-871.45 364.19,-852.45"/>
<polygon fill="grey" stroke="grey" stroke-width="2" points="367.09,-854.41 370.1,-844.25 361.42,-850.31 367.09,-854.41"/>
</g>
<!-- 34 -->
<g id="node35" class="node">
<title>34</title>
<path fill="none" stroke="#ced856" stroke-width="2" d="M819,-844C819,-844 775,-844 775,-844 769,-844 763,-838 763,-832 763,-832 763,-820 763,-820 763,-814 769,-808 775,-808 775,-808 819,-808 819,-808 825,-808 831,-814 831,-820 831,-820 831,-832 831,-832 831,-838 825,-844 819,-844"/>
<text text-anchor="middle" x="797" y="-823.5" font-family="sans" font-size="10.00">bwa_mem</text>
</g>
<!-- 8&#45;&gt;34 -->
<g id="edge76" class="edge">
<title>8&#45;&gt;34</title>
<path fill="none" stroke="grey" stroke-width="2" d="M585.13,-967.56C655.73,-964.1 797.59,-952.63 828,-916 843.13,-897.77 831.23,-871.68 818.03,-852.46"/>
<polygon fill="grey" stroke="grey" stroke-width="2" points="820.69,-850.18 811.96,-844.17 815.04,-854.31 820.69,-850.18"/>
</g>
<!-- 36 -->
<g id="node37" class="node">
<title>36</title>
<path fill="none" stroke="#d89556" stroke-width="2" d="M629,-916C629,-916 561,-916 561,-916 555,-916 549,-910 549,-904 549,-904 549,-892 549,-892 549,-886 555,-880 561,-880 561,-880 629,-880 629,-880 635,-880 641,-886 641,-892 641,-892 641,-904 641,-904 641,-910 635,-916 629,-916"/>
<text text-anchor="middle" x="595" y="-895.5" font-family="sans" font-size="10.00">samtools_faidx</text>
</g>
<!-- 8&#45;&gt;36 -->
<g id="edge81" class="edge">
<title>8&#45;&gt;36</title>
<path fill="none" stroke="grey" stroke-width="2" d="M557.36,-951.7C563.23,-943.47 570.37,-933.48 576.84,-924.42"/>
<polygon fill="grey" stroke="grey" stroke-width="2" points="579.82,-926.28 582.78,-916.1 574.12,-922.21 579.82,-926.28"/>
</g>
<!-- 37 -->
<g id="node38" class="node">
<title>37</title>
<path fill="none" stroke="#b6d856" stroke-width="2" d="M709,-916C709,-916 671,-916 671,-916 665,-916 659,-910 659,-904 659,-904 659,-892 659,-892 659,-886 665,-880 671,-880 671,-880 709,-880 709,-880 715,-880 721,-886 721,-892 721,-892 721,-904 721,-904 721,-910 715,-916 709,-916"/>
<text text-anchor="middle" x="690" y="-895.5" font-family="sans" font-size="10.00">gatk_dict</text>
</g>
<!-- 8&#45;&gt;37 -->
<g id="edge82" class="edge">
<title>8&#45;&gt;37</title>
<path fill="none" stroke="grey" stroke-width="2" d="M580.47,-951.88C601.36,-941.79 627.85,-929 649.55,-918.53"/>
<polygon fill="grey" stroke="grey" stroke-width="2" points="651.35,-921.55 658.83,-914.05 648.31,-915.24 651.35,-921.55"/>
</g>
<!-- 9&#45;&gt;2 -->
<g id="edge9" class="edge">
<title>9&#45;&gt;2</title>
<path fill="none" stroke="grey" stroke-width="2" d="M325.33,-379.19C290.83,-370.01 246.55,-356.6 209,-340 206.92,-339.08 204.81,-338.08 202.71,-337.02"/>
<polygon fill="grey" stroke="grey" stroke-width="2" points="204.07,-333.78 193.6,-332.13 200.75,-339.94 204.07,-333.78"/>
</g>
<!-- 9&#45;&gt;19 -->
<g id="edge39" class="edge">
<title>9&#45;&gt;19</title>
<path fill="none" stroke="grey" stroke-width="2" d="M440.58,-386.09C492.23,-378.66 569.45,-364.49 633,-340 633.85,-339.67 634.7,-339.33 635.55,-338.98"/>
<polygon fill="grey" stroke="grey" stroke-width="2" points="637.05,-342.14 644.63,-334.74 634.09,-335.8 637.05,-342.14"/>
</g>
<!-- 9&#45;&gt;20 -->
<g id="edge46" class="edge">
<title>9&#45;&gt;20</title>
<path fill="none" stroke="grey" stroke-width="2" d="M440.58,-384.28C544.43,-368.55 760.94,-335.76 853.97,-321.67"/>
<polygon fill="grey" stroke="grey" stroke-width="2" points="854.54,-325.12 863.9,-320.16 853.49,-318.2 854.54,-325.12"/>
</g>
<!-- 9&#45;&gt;29 -->
<g id="edge58" class="edge">
<title>9&#45;&gt;29</title>
<path fill="none" stroke="grey" stroke-width="2" d="M367.91,-375.69C360.82,-367.55 352.12,-357.57 343.83,-348.07"/>
<polygon fill="grey" stroke="grey" stroke-width="2" points="346.23,-345.49 337.02,-340.26 340.95,-350.09 346.23,-345.49"/>
</g>
<!-- 9&#45;&gt;30 -->
<g id="edge65" class="edge">
<title>9&#45;&gt;30</title>
<path fill="none" stroke="grey" stroke-width="2" d="M414.6,-375.88C431.33,-366.82 452.35,-355.44 471.68,-344.97"/>
<polygon fill="grey" stroke="grey" stroke-width="2" points="473.58,-347.92 480.71,-340.07 470.25,-341.76 473.58,-347.92"/>
</g>
<!-- 10&#45;&gt;3 -->
<g id="edge10" class="edge">
<title>10&#45;&gt;3</title>
<path fill="none" stroke="grey" stroke-width="2" d="M897.25,-447.81C910.5,-438.44 925.92,-425.93 937,-412 953.88,-390.79 966.42,-362.38 974.11,-341.79"/>
<polygon fill="grey" stroke="grey" stroke-width="2" points="977.51,-342.69 977.59,-332.09 970.92,-340.32 977.51,-342.69"/>
</g>
<!-- 11 -->
<g id="node12" class="node">
<title>11</title>
<path fill="none" stroke="#56b9d8" stroke-width="2" d="M828.5,-412C828.5,-412 737.5,-412 737.5,-412 731.5,-412 725.5,-406 725.5,-400 725.5,-400 725.5,-388 725.5,-388 725.5,-382 731.5,-376 737.5,-376 737.5,-376 828.5,-376 828.5,-376 834.5,-376 840.5,-382 840.5,-388 840.5,-388 840.5,-400 840.5,-400 840.5,-406 834.5,-412 828.5,-412"/>
<text text-anchor="middle" x="783" y="-391.5" font-family="sans" font-size="10.00">samtools_index_md</text>
</g>
<!-- 10&#45;&gt;11 -->
<g id="edge24" class="edge">
<title>10&#45;&gt;11</title>
<path fill="none" stroke="grey" stroke-width="2" d="M848.49,-447.7C837.54,-438.88 824.05,-428.03 812.18,-418.47"/>
<polygon fill="grey" stroke="grey" stroke-width="2" points="814.24,-415.65 804.26,-412.1 809.86,-421.1 814.24,-415.65"/>
</g>
<!-- 10&#45;&gt;19 -->
<g id="edge38" class="edge">
<title>10&#45;&gt;19</title>
<path fill="none" stroke="grey" stroke-width="2" d="M870.81,-447.73C870.77,-427.99 867.69,-395.87 850,-376 816.91,-338.83 759.84,-324.31 720.12,-318.63"/>
<polygon fill="grey" stroke="grey" stroke-width="2" points="720.53,-315.16 710.17,-317.35 719.63,-322.1 720.53,-315.16"/>
</g>
<!-- 10&#45;&gt;20 -->
<g id="edge43" class="edge">
<title>10&#45;&gt;20</title>
<path fill="none" stroke="grey" stroke-width="2" d="M893.3,-447.82C903.9,-438.54 915.32,-426.09 921,-412 929.9,-389.93 922.6,-363.58 913.94,-343.92"/>
<polygon fill="grey" stroke="grey" stroke-width="2" points="917.09,-342.39 909.64,-334.86 910.76,-345.39 917.09,-342.39"/>
</g>
<!-- 10&#45;&gt;29 -->
<g id="edge57" class="edge">
<title>10&#45;&gt;29</title>
<path fill="none" stroke="grey" stroke-width="2" d="M814.43,-453.4C767.27,-443.3 697.92,-427.82 638,-412 557.9,-390.85 467.68,-363.45 402.99,-343.17"/>
<polygon fill="grey" stroke="grey" stroke-width="2" points="403.82,-339.76 393.23,-340.1 401.72,-346.44 403.82,-339.76"/>
</g>
<!-- 10&#45;&gt;30 -->
<g id="edge62" class="edge">
<title>10&#45;&gt;30</title>
<path fill="none" stroke="grey" stroke-width="2" d="M814.78,-447.92C785.37,-438.32 748.81,-425.55 717,-412 670.04,-391.99 618.58,-365.41 581.07,-345.14"/>
<polygon fill="grey" stroke="grey" stroke-width="2" points="582.3,-341.83 571.84,-340.13 578.96,-347.98 582.3,-341.83"/>
</g>
<!-- 11&#45;&gt;3 -->
<g id="edge12" class="edge">
<title>11&#45;&gt;3</title>
<path fill="none" stroke="grey" stroke-width="2" d="M840.81,-376.85C871.23,-367.56 908.79,-354.78 941,-340 943.07,-339.05 945.16,-338.03 947.26,-336.95"/>
<polygon fill="grey" stroke="grey" stroke-width="2" points="949.23,-339.86 956.35,-332.01 945.89,-333.71 949.23,-339.86"/>
</g>
<!-- 11&#45;&gt;19 -->
<g id="edge40" class="edge">
<title>11&#45;&gt;19</title>
<path fill="none" stroke="grey" stroke-width="2" d="M759.52,-375.88C745.4,-365.59 727.16,-352.29 711.33,-340.75"/>
<polygon fill="grey" stroke="grey" stroke-width="2" points="712.96,-337.61 702.82,-334.55 708.84,-343.27 712.96,-337.61"/>
</g>
<!-- 11&#45;&gt;20 -->
<g id="edge45" class="edge">
<title>11&#45;&gt;20</title>
<path fill="none" stroke="grey" stroke-width="2" d="M808.24,-375.88C823.55,-365.5 843.38,-352.05 860.51,-340.43"/>
<polygon fill="grey" stroke="grey" stroke-width="2" points="862.86,-343.06 869.18,-334.55 858.93,-337.27 862.86,-343.06"/>
</g>
<!-- 11&#45;&gt;29 -->
<g id="edge59" class="edge">
<title>11&#45;&gt;29</title>
<path fill="none" stroke="grey" stroke-width="2" d="M725.38,-386.12C655.76,-377.46 534.93,-361.33 422.1,-340.15"/>
<polygon fill="grey" stroke="grey" stroke-width="2" points="422.74,-336.7 412.26,-338.28 421.43,-343.58 422.74,-336.7"/>
</g>
<!-- 11&#45;&gt;30 -->
<g id="edge64" class="edge">
<title>11&#45;&gt;30</title>
<path fill="none" stroke="grey" stroke-width="2" d="M727.14,-375.98C695.53,-366.35 655.22,-354.07 619.07,-343.05"/>
<polygon fill="grey" stroke="grey" stroke-width="2" points="620.07,-339.7 609.49,-340.13 618.03,-346.4 620.07,-339.7"/>
</g>
<!-- 12 -->
<g id="node13" class="node">
<title>12</title>
<path fill="none" stroke="#a7d856" stroke-width="2" d="M699.5,-252C699.5,-252 652.5,-252 652.5,-252 646.5,-252 640.5,-246 640.5,-240 640.5,-240 640.5,-228 640.5,-228 640.5,-222 646.5,-216 652.5,-216 652.5,-216 699.5,-216 699.5,-216 705.5,-216 711.5,-222 711.5,-228 711.5,-228 711.5,-240 711.5,-240 711.5,-246 705.5,-252 699.5,-252"/>
<text text-anchor="middle" x="676" y="-231.5" font-family="sans" font-size="10.00">strelka2tsv</text>
</g>
<!-- 12&#45;&gt;4 -->
<g id="edge13" class="edge">
<title>12&#45;&gt;4</title>
<path fill="none" stroke="grey" stroke-width="2" d="M676,-215.7C676,-207.98 676,-198.71 676,-190.11"/>
<polygon fill="grey" stroke="grey" stroke-width="2" points="679.5,-190.1 676,-180.1 672.5,-190.1 679.5,-190.1"/>
</g>
<!-- 13 -->
<g id="node14" class="node">
<title>13</title>
<path fill="none" stroke="#a7d856" stroke-width="2" d="M863.5,-252C863.5,-252 816.5,-252 816.5,-252 810.5,-252 804.5,-246 804.5,-240 804.5,-240 804.5,-228 804.5,-228 804.5,-222 810.5,-216 816.5,-216 816.5,-216 863.5,-216 863.5,-216 869.5,-216 875.5,-222 875.5,-228 875.5,-228 875.5,-240 875.5,-240 875.5,-246 869.5,-252 863.5,-252"/>
<text text-anchor="middle" x="840" y="-231.5" font-family="sans" font-size="10.00">strelka2tsv</text>
</g>
<!-- 13&#45;&gt;4 -->
<g id="edge14" class="edge">
<title>13&#45;&gt;4</title>
<path fill="none" stroke="grey" stroke-width="2" d="M804.41,-217.81C779.83,-207.32 746.95,-193.28 720.61,-182.04"/>
<polygon fill="grey" stroke="grey" stroke-width="2" points="721.81,-178.75 711.23,-178.04 719.06,-185.18 721.81,-178.75"/>
</g>
<!-- 14 -->
<g id="node15" class="node">
<title>14</title>
<path fill="none" stroke="#56d8b9" stroke-width="2" d="M362,-180C362,-180 314,-180 314,-180 308,-180 302,-174 302,-168 302,-168 302,-156 302,-156 302,-150 308,-144 314,-144 314,-144 362,-144 362,-144 368,-144 374,-150 374,-156 374,-156 374,-168 374,-168 374,-174 368,-180 362,-180"/>
<text text-anchor="middle" x="338" y="-159.5" font-family="sans" font-size="10.00">mutect2tsv</text>
</g>
<!-- 14&#45;&gt;5 -->
<g id="edge15" class="edge">
<title>14&#45;&gt;5</title>
<path fill="none" stroke="grey" stroke-width="2" d="M356.29,-143.7C365.43,-135.05 376.64,-124.45 386.6,-115.03"/>
<polygon fill="grey" stroke="grey" stroke-width="2" points="389.06,-117.52 393.92,-108.1 384.25,-112.43 389.06,-117.52"/>
</g>
<!-- 15 -->
<g id="node16" class="node">
<title>15</title>
<path fill="none" stroke="#56d8b9" stroke-width="2" d="M460,-180C460,-180 412,-180 412,-180 406,-180 400,-174 400,-168 400,-168 400,-156 400,-156 400,-150 406,-144 412,-144 412,-144 460,-144 460,-144 466,-144 472,-150 472,-156 472,-156 472,-168 472,-168 472,-174 466,-180 460,-180"/>
<text text-anchor="middle" x="436" y="-159.5" font-family="sans" font-size="10.00">mutect2tsv</text>
</g>
<!-- 15&#45;&gt;5 -->
<g id="edge16" class="edge">
<title>15&#45;&gt;5</title>
<path fill="none" stroke="grey" stroke-width="2" d="M430.07,-143.7C427.39,-135.9 424.17,-126.51 421.2,-117.83"/>
<polygon fill="grey" stroke="grey" stroke-width="2" points="424.42,-116.43 417.86,-108.1 417.8,-118.7 424.42,-116.43"/>
</g>
<!-- 16 -->
<g id="node17" class="node">
<title>16</title>
<path fill="none" stroke="#d86e56" stroke-width="2" d="M92,-988C92,-988 12,-988 12,-988 6,-988 0,-982 0,-976 0,-976 0,-964 0,-964 0,-958 6,-952 12,-952 12,-952 92,-952 92,-952 98,-952 104,-958 104,-964 104,-964 104,-976 104,-976 104,-982 98,-988 92,-988"/>
<text text-anchor="middle" x="52" y="-967.5" font-family="sans" font-size="10.00">bedtools_getfasta</text>
</g>
<!-- 16&#45;&gt;6 -->
<g id="edge18" class="edge">
<title>16&#45;&gt;6</title>
<path fill="none" stroke="grey" stroke-width="2" d="M52,-951.7C52,-943.98 52,-934.71 52,-926.11"/>
<polygon fill="grey" stroke="grey" stroke-width="2" points="55.5,-926.1 52,-916.1 48.5,-926.1 55.5,-926.1"/>
</g>
<!-- 17&#45;&gt;7 -->
<g id="edge19" class="edge">
<title>17&#45;&gt;7</title>
<path fill="none" stroke="grey" stroke-width="2" d="M303.84,-519.88C319.94,-510.64 340,-499.13 357.29,-489.21"/>
<polygon fill="grey" stroke="grey" stroke-width="2" points="359.11,-492.2 366.04,-484.19 355.63,-486.13 359.11,-492.2"/>
</g>
<!-- 18&#45;&gt;10 -->
<g id="edge22" class="edge">
<title>18&#45;&gt;10</title>
<path fill="none" stroke="grey" stroke-width="2" d="M871.51,-519.7C871.29,-511.98 871.02,-502.71 870.77,-494.11"/>
<polygon fill="grey" stroke="grey" stroke-width="2" points="874.27,-494 870.49,-484.1 867.28,-494.2 874.27,-494"/>
</g>
<!-- 19&#45;&gt;12 -->
<g id="edge25" class="edge">
<title>19&#45;&gt;12</title>
<path fill="none" stroke="grey" stroke-width="2" d="M676,-293.32C676,-283.87 676,-272.4 676,-262.14"/>
<polygon fill="grey" stroke="grey" stroke-width="2" points="679.5,-262.03 676,-252.03 672.5,-262.03 679.5,-262.03"/>
</g>
<!-- 20&#45;&gt;13 -->
<g id="edge26" class="edge">
<title>20&#45;&gt;13</title>
<path fill="none" stroke="grey" stroke-width="2" d="M883.36,-293.32C875.9,-283.28 866.73,-270.95 858.75,-260.22"/>
<polygon fill="grey" stroke="grey" stroke-width="2" points="861.44,-257.96 852.66,-252.03 855.82,-262.14 861.44,-257.96"/>
</g>
<!-- 21 -->
<g id="node22" class="node">
<title>21</title>
<path fill="none" stroke="#56d86b" stroke-width="2" d="M365.5,-252C365.5,-252 294.5,-252 294.5,-252 288.5,-252 282.5,-246 282.5,-240 282.5,-240 282.5,-228 282.5,-228 282.5,-222 288.5,-216 294.5,-216 294.5,-216 365.5,-216 365.5,-216 371.5,-216 377.5,-222 377.5,-228 377.5,-228 377.5,-240 377.5,-240 377.5,-246 371.5,-252 365.5,-252"/>
<text text-anchor="middle" x="330" y="-231.5" font-family="sans" font-size="10.00">gatk_gathervcfs</text>
</g>
<!-- 21&#45;&gt;14 -->
<g id="edge27" class="edge">
<title>21&#45;&gt;14</title>
<path fill="none" stroke="grey" stroke-width="2" d="M331.98,-215.7C332.86,-207.98 333.92,-198.71 334.9,-190.11"/>
<polygon fill="grey" stroke="grey" stroke-width="2" points="338.39,-190.44 336.05,-180.1 331.43,-189.64 338.39,-190.44"/>
</g>
<!-- 22 -->
<g id="node23" class="node">
<title>22</title>
<path fill="none" stroke="#56d86b" stroke-width="2" d="M532.5,-252C532.5,-252 461.5,-252 461.5,-252 455.5,-252 449.5,-246 449.5,-240 449.5,-240 449.5,-228 449.5,-228 449.5,-222 455.5,-216 461.5,-216 461.5,-216 532.5,-216 532.5,-216 538.5,-216 544.5,-222 544.5,-228 544.5,-228 544.5,-240 544.5,-240 544.5,-246 538.5,-252 532.5,-252"/>
<text text-anchor="middle" x="497" y="-231.5" font-family="sans" font-size="10.00">gatk_gathervcfs</text>
</g>
<!-- 22&#45;&gt;15 -->
<g id="edge28" class="edge">
<title>22&#45;&gt;15</title>
<path fill="none" stroke="grey" stroke-width="2" d="M481.92,-215.7C474.61,-207.3 465.69,-197.07 457.66,-187.86"/>
<polygon fill="grey" stroke="grey" stroke-width="2" points="460.11,-185.34 450.91,-180.1 454.84,-189.94 460.11,-185.34"/>
</g>
<!-- 23 -->
<g id="node24" class="node">
<title>23</title>
<path fill="none" stroke="#d8cb56" stroke-width="2" d="M85,-1060C85,-1060 19,-1060 19,-1060 13,-1060 7,-1054 7,-1048 7,-1048 7,-1036 7,-1036 7,-1030 13,-1024 19,-1024 19,-1024 85,-1024 85,-1024 91,-1024 97,-1030 97,-1036 97,-1036 97,-1048 97,-1048 97,-1054 91,-1060 85,-1060"/>
<text text-anchor="middle" x="52" y="-1039.5" font-family="sans" font-size="10.00">mutations2bed</text>
</g>
<!-- 23&#45;&gt;16 -->
<g id="edge29" class="edge">
<title>23&#45;&gt;16</title>
<path fill="none" stroke="grey" stroke-width="2" d="M52,-1023.7C52,-1015.98 52,-1006.71 52,-998.11"/>
<polygon fill="grey" stroke="grey" stroke-width="2" points="55.5,-998.1 52,-988.1 48.5,-998.1 55.5,-998.1"/>
</g>
<!-- 24 -->
<g id="node25" class="node">
<title>24</title>
<path fill="none" stroke="#5692d8" stroke-width="2" d="M345,-700C345,-700 283,-700 283,-700 277,-700 271,-694 271,-688 271,-688 271,-676 271,-676 271,-670 277,-664 283,-664 283,-664 345,-664 345,-664 351,-664 357,-670 357,-676 357,-676 357,-688 357,-688 357,-694 351,-700 345,-700"/>
<text text-anchor="middle" x="314" y="-679.5" font-family="sans" font-size="10.00">samtools_sort</text>
</g>
<!-- 24&#45;&gt;17 -->
<g id="edge30" class="edge">
<title>24&#45;&gt;17</title>
<path fill="none" stroke="grey" stroke-width="2" d="M298.63,-663.7C290.93,-653.93 282.35,-641.09 278,-628 271.39,-608.09 270.66,-584.3 271.43,-566.33"/>
<polygon fill="grey" stroke="grey" stroke-width="2" points="274.93,-566.43 272.05,-556.23 267.95,-566 274.93,-566.43"/>
</g>
<!-- 25 -->
<g id="node26" class="node">
<title>25</title>
<path fill="none" stroke="#d8bc56" stroke-width="2" d="M369,-628C369,-628 299,-628 299,-628 293,-628 287,-622 287,-616 287,-616 287,-604 287,-604 287,-598 293,-592 299,-592 299,-592 369,-592 369,-592 375,-592 381,-598 381,-604 381,-604 381,-616 381,-616 381,-622 375,-628 369,-628"/>
<text text-anchor="middle" x="334" y="-607.5" font-family="sans" font-size="10.00">samtools_index</text>
</g>
<!-- 24&#45;&gt;25 -->
<g id="edge51" class="edge">
<title>24&#45;&gt;25</title>
<path fill="none" stroke="grey" stroke-width="2" d="M318.94,-663.7C321.17,-655.9 323.85,-646.51 326.33,-637.83"/>
<polygon fill="grey" stroke="grey" stroke-width="2" points="329.73,-638.68 329.11,-628.1 323,-636.76 329.73,-638.68"/>
</g>
<!-- 25&#45;&gt;17 -->
<g id="edge32" class="edge">
<title>25&#45;&gt;17</title>
<path fill="none" stroke="grey" stroke-width="2" d="M319.17,-591.7C311.98,-583.3 303.2,-573.07 295.31,-563.86"/>
<polygon fill="grey" stroke="grey" stroke-width="2" points="297.83,-561.42 288.66,-556.1 292.51,-565.97 297.83,-561.42"/>
</g>
<!-- 26 -->
<g id="node27" class="node">
<title>26</title>
<path fill="none" stroke="#5692d8" stroke-width="2" d="M861,-700C861,-700 799,-700 799,-700 793,-700 787,-694 787,-688 787,-688 787,-676 787,-676 787,-670 793,-664 799,-664 799,-664 861,-664 861,-664 867,-664 873,-670 873,-676 873,-676 873,-688 873,-688 873,-694 867,-700 861,-700"/>
<text text-anchor="middle" x="830" y="-679.5" font-family="sans" font-size="10.00">samtools_sort</text>
</g>
<!-- 26&#45;&gt;18 -->
<g id="edge33" class="edge">
<title>26&#45;&gt;18</title>
<path fill="none" stroke="grey" stroke-width="2" d="M845.26,-663.66C852.92,-653.88 861.5,-641.04 866,-628 872.85,-608.14 874.12,-584.35 873.81,-566.36"/>
<polygon fill="grey" stroke="grey" stroke-width="2" points="877.3,-566.13 873.46,-556.25 870.31,-566.37 877.3,-566.13"/>
</g>
<!-- 27 -->
<g id="node28" class="node">
<title>27</title>
<path fill="none" stroke="#d8bc56" stroke-width="2" d="M845,-628C845,-628 775,-628 775,-628 769,-628 763,-622 763,-616 763,-616 763,-604 763,-604 763,-598 769,-592 775,-592 775,-592 845,-592 845,-592 851,-592 857,-598 857,-604 857,-604 857,-616 857,-616 857,-622 851,-628 845,-628"/>
<text text-anchor="middle" x="810" y="-607.5" font-family="sans" font-size="10.00">samtools_index</text>
</g>
<!-- 26&#45;&gt;27 -->
<g id="edge53" class="edge">
<title>26&#45;&gt;27</title>
<path fill="none" stroke="grey" stroke-width="2" d="M825.06,-663.7C822.83,-655.9 820.15,-646.51 817.67,-637.83"/>
<polygon fill="grey" stroke="grey" stroke-width="2" points="821,-636.76 814.89,-628.1 814.27,-638.68 821,-636.76"/>
</g>
<!-- 27&#45;&gt;18 -->
<g id="edge35" class="edge">
<title>27&#45;&gt;18</title>
<path fill="none" stroke="grey" stroke-width="2" d="M825.33,-591.7C832.76,-583.3 841.82,-573.07 849.98,-563.86"/>
<polygon fill="grey" stroke="grey" stroke-width="2" points="852.84,-565.91 856.85,-556.1 847.6,-561.27 852.84,-565.91"/>
</g>
<!-- 28&#45;&gt;19 -->
<g id="edge41" class="edge">
<title>28&#45;&gt;19</title>
<path fill="none" stroke="grey" stroke-width="2" d="M526.9,-879.82C563.91,-856.69 621,-811.82 621,-755 621,-755 621,-755 621,-465 621,-420.45 642.65,-372.76 658.78,-343.4"/>
<polygon fill="grey" stroke="grey" stroke-width="2" points="661.92,-344.97 663.79,-334.54 655.82,-341.52 661.92,-344.97"/>
</g>
<!-- 28&#45;&gt;20 -->
<g id="edge47" class="edge">
<title>28&#45;&gt;20</title>
<path fill="none" stroke="grey" stroke-width="2" d="M530.75,-880.42C597.04,-848.24 735,-778.47 735,-755 735,-755 735,-755 735,-681 735,-603.15 740.46,-564.98 804,-520 853.28,-485.11 897.73,-531.51 935,-484 964.63,-446.23 950.47,-422.08 937,-376 933.59,-364.34 927.19,-352.78 920.55,-342.92"/>
<polygon fill="grey" stroke="grey" stroke-width="2" points="923.37,-340.84 914.72,-334.72 917.67,-344.9 923.37,-340.84"/>
</g>
<!-- 28&#45;&gt;29 -->
<g id="edge60" class="edge">
<title>28&#45;&gt;29</title>
<path fill="none" stroke="grey" stroke-width="2" d="M485.85,-879.73C471.49,-853.64 447,-802.2 447,-755 447,-755 447,-755 447,-681 447,-545.39 328.8,-545.13 303,-412 299.05,-391.62 301.62,-368.56 305.37,-350.05"/>
<polygon fill="grey" stroke="grey" stroke-width="2" points="308.79,-350.79 307.55,-340.27 301.96,-349.27 308.79,-350.79"/>
</g>
<!-- 28&#45;&gt;30 -->
<g id="edge66" class="edge">
<title>28&#45;&gt;30</title>
<path fill="none" stroke="grey" stroke-width="2" d="M506.15,-879.73C520.51,-853.64 545,-802.2 545,-755 545,-755 545,-755 545,-465 545,-425.47 538.76,-380.49 533.63,-350.18"/>
<polygon fill="grey" stroke="grey" stroke-width="2" points="537.04,-349.35 531.87,-340.1 530.14,-350.56 537.04,-349.35"/>
</g>
<!-- 28&#45;&gt;33 -->
<g id="edge73" class="edge">
<title>28&#45;&gt;33</title>
<path fill="none" stroke="grey" stroke-width="2" d="M468.85,-879.88C454.47,-870.81 436.62,-859.55 421.09,-849.76"/>
<polygon fill="grey" stroke="grey" stroke-width="2" points="422.58,-846.56 412.26,-844.19 418.85,-852.48 422.58,-846.56"/>
</g>
<!-- 28&#45;&gt;34 -->
<g id="edge78" class="edge">
<title>28&#45;&gt;34</title>
<path fill="none" stroke="grey" stroke-width="2" d="M530.85,-882.82C533.92,-881.79 537,-880.83 540,-880 630.85,-854.89 657.8,-867.82 749,-844 750.42,-843.63 751.85,-843.24 753.29,-842.82"/>
<polygon fill="grey" stroke="grey" stroke-width="2" points="754.34,-846.16 762.87,-839.88 752.29,-839.47 754.34,-846.16"/>
</g>
<!-- 29&#45;&gt;21 -->
<g id="edge48" class="edge">
<title>29&#45;&gt;21</title>
<path fill="none" stroke="grey" stroke-width="2" d="M319.83,-287.89C321.39,-279.75 323.14,-270.68 324.73,-262.38"/>
<polygon fill="grey" stroke="grey" stroke-width="2" points="328.2,-262.89 326.65,-252.41 321.33,-261.57 328.2,-262.89"/>
</g>
<!-- 30&#45;&gt;22 -->
<g id="edge49" class="edge">
<title>30&#45;&gt;22</title>
<path fill="none" stroke="grey" stroke-width="2" d="M517.34,-287.89C514.14,-279.57 510.57,-270.28 507.32,-261.83"/>
<polygon fill="grey" stroke="grey" stroke-width="2" points="510.55,-260.49 503.7,-252.41 504.02,-263 510.55,-260.49"/>
</g>
<!-- 31&#45;&gt;24 -->
<g id="edge50" class="edge">
<title>31&#45;&gt;24</title>
<path fill="none" stroke="grey" stroke-width="2" d="M314,-735.7C314,-727.98 314,-718.71 314,-710.11"/>
<polygon fill="grey" stroke="grey" stroke-width="2" points="317.5,-710.1 314,-700.1 310.5,-710.1 317.5,-710.1"/>
</g>
<!-- 32&#45;&gt;26 -->
<g id="edge52" class="edge">
<title>32&#45;&gt;26</title>
<path fill="none" stroke="grey" stroke-width="2" d="M830,-735.7C830,-727.98 830,-718.71 830,-710.11"/>
<polygon fill="grey" stroke="grey" stroke-width="2" points="833.5,-710.1 830,-700.1 826.5,-710.1 833.5,-710.1"/>
</g>
<!-- 33&#45;&gt;31 -->
<g id="edge67" class="edge">
<title>33&#45;&gt;31</title>
<path fill="none" stroke="grey" stroke-width="2" d="M367.45,-807.7C358.77,-799.14 348.14,-788.66 338.65,-779.3"/>
<polygon fill="grey" stroke="grey" stroke-width="2" points="340.93,-776.63 331.35,-772.1 336.01,-781.62 340.93,-776.63"/>
</g>
<!-- 34&#45;&gt;32 -->
<g id="edge69" class="edge">
<title>34&#45;&gt;32</title>
<path fill="none" stroke="grey" stroke-width="2" d="M805.16,-807.7C808.91,-799.73 813.45,-790.1 817.62,-781.26"/>
<polygon fill="grey" stroke="grey" stroke-width="2" points="820.84,-782.64 821.94,-772.1 814.51,-779.66 820.84,-782.64"/>
</g>
<!-- 35 -->
<g id="node36" class="node">
<title>35</title>
<path fill="none" stroke="#d8a456" stroke-width="2" d="M431,-916C431,-916 375,-916 375,-916 369,-916 363,-910 363,-904 363,-904 363,-892 363,-892 363,-886 369,-880 375,-880 375,-880 431,-880 431,-880 437,-880 443,-886 443,-892 443,-892 443,-904 443,-904 443,-910 437,-916 431,-916"/>
<text text-anchor="middle" x="403" y="-901" font-family="sans" font-size="10.00">trimmomatic</text>
<text text-anchor="middle" x="403" y="-890" font-family="sans" font-size="10.00">library: L1</text>
</g>
<!-- 35&#45;&gt;33 -->
<g id="edge72" class="edge">
<title>35&#45;&gt;33</title>
<path fill="none" stroke="grey" stroke-width="2" d="M398.55,-879.7C396.55,-871.9 394.13,-862.51 391.9,-853.83"/>
<polygon fill="grey" stroke="grey" stroke-width="2" points="395.28,-852.92 389.4,-844.1 388.5,-854.66 395.28,-852.92"/>
</g>
<!-- 36&#45;&gt;33 -->
<g id="edge74" class="edge">
<title>36&#45;&gt;33</title>
<path fill="none" stroke="grey" stroke-width="2" d="M548.91,-881.64C513.16,-869.72 463.92,-853.31 428.77,-841.59"/>
<polygon fill="grey" stroke="grey" stroke-width="2" points="429.84,-838.26 419.25,-838.42 427.63,-844.9 429.84,-838.26"/>
</g>
<!-- 36&#45;&gt;34 -->
<g id="edge79" class="edge">
<title>36&#45;&gt;34</title>
<path fill="none" stroke="grey" stroke-width="2" d="M641.2,-881.22C671.8,-870.74 712.83,-856.63 749,-844 750.41,-843.51 751.84,-843.01 753.28,-842.5"/>
<polygon fill="grey" stroke="grey" stroke-width="2" points="754.65,-845.73 762.92,-839.11 752.33,-839.13 754.65,-845.73"/>
</g>
<!-- 37&#45;&gt;33 -->
<g id="edge75" class="edge">
<title>37&#45;&gt;33</title>
<path fill="none" stroke="grey" stroke-width="2" d="M658.78,-883.02C655.84,-881.92 652.88,-880.89 650,-880 573.93,-856.5 482.28,-840.87 429.12,-833"/>
<polygon fill="grey" stroke="grey" stroke-width="2" points="429.42,-829.5 419.02,-831.53 428.41,-836.43 429.42,-829.5"/>
</g>
<!-- 37&#45;&gt;34 -->
<g id="edge80" class="edge">
<title>37&#45;&gt;34</title>
<path fill="none" stroke="grey" stroke-width="2" d="M716.18,-879.88C730.04,-870.81 747.24,-859.55 762.21,-849.76"/>
<polygon fill="grey" stroke="grey" stroke-width="2" points="764.27,-852.59 770.72,-844.19 760.44,-846.74 764.27,-852.59"/>
</g>
<!-- 38 -->
<g id="node39" class="node">
<title>38</title>
<path fill="none" stroke="#d8a456" stroke-width="2" d="M807,-916C807,-916 751,-916 751,-916 745,-916 739,-910 739,-904 739,-904 739,-892 739,-892 739,-886 745,-880 751,-880 751,-880 807,-880 807,-880 813,-880 819,-886 819,-892 819,-892 819,-904 819,-904 819,-910 813,-916 807,-916"/>
<text text-anchor="middle" x="779" y="-901" font-family="sans" font-size="10.00">trimmomatic</text>
<text text-anchor="middle" x="779" y="-890" font-family="sans" font-size="10.00">library: L2</text>
</g>
<!-- 38&#45;&gt;34 -->
<g id="edge77" class="edge">
<title>38&#45;&gt;34</title>
<path fill="none" stroke="grey" stroke-width="2" d="M783.45,-879.7C785.45,-871.9 787.87,-862.51 790.1,-853.83"/>
<polygon fill="grey" stroke="grey" stroke-width="2" points="793.5,-854.66 792.6,-844.1 786.72,-852.92 793.5,-854.66"/>
</g>
</g>
</svg>
