<?xml version="1.0" encoding="UTF-8" standalone="no"?>
<!DOCTYPE svg PUBLIC "-//W3C//DTD SVG 1.1//EN"
 "http://www.w3.org/Graphics/SVG/1.1/DTD/svg11.dtd">
<!-- Generated by graphviz version 2.43.0 (0)
 -->
<!-- Title: snakemake_dag Pages: 1 -->
<svg width="755pt" height="620pt"
 viewBox="0.00 0.00 755.00 620.00" xmlns="http://www.w3.org/2000/svg" xmlns:xlink="http://www.w3.org/1999/xlink">
<g id="graph0" class="graph" transform="scale(1 1) rotate(0) translate(4 616)">
<title>snakemake_dag</title>
<polygon fill="white" stroke="transparent" points="-4,4 -4,-616 751,-616 751,4 -4,4"/>
<!-- 0 -->
<g id="node1" class="node">
<title>0</title>
<path fill="none" stroke="#d85656" stroke-width="2" stroke-dasharray="5,2" d="M366.5,-36C366.5,-36 336.5,-36 336.5,-36 330.5,-36 324.5,-30 324.5,-24 324.5,-24 324.5,-12 324.5,-12 324.5,-6 330.5,0 336.5,0 336.5,0 366.5,0 366.5,0 372.5,0 378.5,-6 378.5,-12 378.5,-12 378.5,-24 378.5,-24 378.5,-30 372.5,-36 366.5,-36"/>
<text text-anchor="middle" x="351.5" y="-15.5" font-family="sans" font-size="10.00">all</text>
</g>
<!-- 1 -->
<g id="node2" class="node">
<title>1</title>
<path fill="none" stroke="#d8ac56" stroke-width="2" stroke-dasharray="5,2" d="M428,-252C428,-252 333,-252 333,-252 327,-252 321,-246 321,-240 321,-240 321,-228 321,-228 321,-222 327,-216 333,-216 333,-216 428,-216 428,-216 434,-216 440,-222 440,-228 440,-228 440,-240 440,-240 440,-246 434,-252 428,-252"/>
<text text-anchor="middle" x="380.5" y="-231.5" font-family="sans" font-size="10.00">gatk_markduplicates</text>
</g>
<!-- 1&#45;&gt;0 -->
<g id="edge1" class="edge">
<title>1&#45;&gt;0</title>
<path fill="none" stroke="grey" stroke-width="2" d="M378.18,-215.85C373.16,-178.83 361.28,-91.18 355.21,-46.39"/>
<polygon fill="grey" stroke="grey" stroke-width="2" points="358.65,-45.67 353.84,-36.23 351.71,-46.61 358.65,-45.67"/>
</g>
<!-- 2 -->
<g id="node3" class="node">
<title>2</title>
<path fill="none" stroke="#56d8b9" stroke-width="2" stroke-dasharray="5,2" d="M333,-180C333,-180 242,-180 242,-180 236,-180 230,-174 230,-168 230,-168 230,-156 230,-156 230,-150 236,-144 242,-144 242,-144 333,-144 333,-144 339,-144 345,-150 345,-156 345,-156 345,-168 345,-168 345,-174 339,-180 333,-180"/>
<text text-anchor="middle" x="287.5" y="-159.5" font-family="sans" font-size="10.00">samtools_index_md</text>
</g>
<!-- 1&#45;&gt;2 -->
<g id="edge7" class="edge">
<title>1&#45;&gt;2</title>
<path fill="none" stroke="grey" stroke-width="2" d="M357.51,-215.7C345.69,-206.8 331.11,-195.82 318.32,-186.2"/>
<polygon fill="grey" stroke="grey" stroke-width="2" points="320.32,-183.32 310.22,-180.1 316.11,-188.91 320.32,-183.32"/>
</g>
<!-- 3 -->
<g id="node4" class="node">
<title>3</title>
<path fill="none" stroke="#d8c356" stroke-width="2" stroke-dasharray="5,2" d="M193.5,-108C193.5,-108 133.5,-108 133.5,-108 127.5,-108 121.5,-102 121.5,-96 121.5,-96 121.5,-84 121.5,-84 121.5,-78 127.5,-72 133.5,-72 133.5,-72 193.5,-72 193.5,-72 199.5,-72 205.5,-78 205.5,-84 205.5,-84 205.5,-96 205.5,-96 205.5,-102 199.5,-108 193.5,-108"/>
<text text-anchor="middle" x="163.5" y="-87.5" font-family="sans" font-size="10.00">gatk_mutect2</text>
</g>
<!-- 1&#45;&gt;3 -->
<g id="edge9" class="edge">
<title>1&#45;&gt;3</title>
<path fill="none" stroke="grey" stroke-width="2" d="M320.82,-223.03C288.87,-215.39 250.29,-202.23 221.5,-180 200.3,-163.63 184.49,-137.19 174.77,-117.37"/>
<polygon fill="grey" stroke="grey" stroke-width="2" points="177.91,-115.82 170.5,-108.25 171.57,-118.79 177.91,-115.82"/>
</g>
<!-- 4 -->
<g id="node5" class="node">
<title>4</title>
<path fill="none" stroke="#56d89a" stroke-width="2" stroke-dasharray="5,2" d="M543.5,-108C543.5,-108 513.5,-108 513.5,-108 507.5,-108 501.5,-102 501.5,-96 501.5,-96 501.5,-84 501.5,-84 501.5,-78 507.5,-72 513.5,-72 513.5,-72 543.5,-72 543.5,-72 549.5,-72 555.5,-78 555.5,-84 555.5,-84 555.5,-96 555.5,-96 555.5,-102 549.5,-108 543.5,-108"/>
<text text-anchor="middle" x="528.5" y="-87.5" font-family="sans" font-size="10.00">multiqc</text>
</g>
<!-- 1&#45;&gt;4 -->
<g id="edge18" class="edge">
<title>1&#45;&gt;4</title>
<path fill="none" stroke="grey" stroke-width="2" d="M419.58,-215.85C437.1,-206.88 457.22,-194.69 472.5,-180 491.3,-161.92 506.55,-136.3 516.37,-117.19"/>
<polygon fill="grey" stroke="grey" stroke-width="2" points="519.56,-118.64 520.87,-108.13 513.29,-115.53 519.56,-118.64"/>
</g>
<!-- 13 -->
<g id="node14" class="node">
<title>13</title>
<path fill="none" stroke="#61d856" stroke-width="2" stroke-dasharray="5,2" d="M599,-180C599,-180 532,-180 532,-180 526,-180 520,-174 520,-168 520,-168 520,-156 520,-156 520,-150 526,-144 532,-144 532,-144 599,-144 599,-144 605,-144 611,-150 611,-156 611,-156 611,-168 611,-168 611,-174 605,-180 599,-180"/>
<text text-anchor="middle" x="565.5" y="-159.5" font-family="sans" font-size="10.00">samtools_stats</text>
</g>
<!-- 1&#45;&gt;13 -->
<g id="edge25" class="edge">
<title>1&#45;&gt;13</title>
<path fill="none" stroke="grey" stroke-width="2" d="M425.76,-215.88C451.5,-206.14 483.91,-193.87 511.04,-183.61"/>
<polygon fill="grey" stroke="grey" stroke-width="2" points="512.28,-186.88 520.39,-180.07 509.8,-180.33 512.28,-186.88"/>
</g>
<!-- 14 -->
<g id="node15" class="node">
<title>14</title>
<path fill="none" stroke="#568ad8" stroke-width="2" stroke-dasharray="5,2" d="M451.5,-180C451.5,-180 413.5,-180 413.5,-180 407.5,-180 401.5,-174 401.5,-168 401.5,-168 401.5,-156 401.5,-156 401.5,-150 407.5,-144 413.5,-144 413.5,-144 451.5,-144 451.5,-144 457.5,-144 463.5,-150 463.5,-156 463.5,-156 463.5,-168 463.5,-168 463.5,-174 457.5,-180 451.5,-180"/>
<text text-anchor="middle" x="432.5" y="-159.5" font-family="sans" font-size="10.00">qualimap</text>
</g>
<!-- 1&#45;&gt;14 -->
<g id="edge26" class="edge">
<title>1&#45;&gt;14</title>
<path fill="none" stroke="grey" stroke-width="2" d="M393.35,-215.7C399.53,-207.39 407.04,-197.28 413.82,-188.14"/>
<polygon fill="grey" stroke="grey" stroke-width="2" points="416.64,-190.22 419.79,-180.1 411.02,-186.04 416.64,-190.22"/>
</g>
<!-- 2&#45;&gt;0 -->
<g id="edge2" class="edge">
<title>2&#45;&gt;0</title>
<path fill="none" stroke="grey" stroke-width="2" d="M295.22,-143.87C306.22,-119.46 326.52,-74.43 339.5,-45.64"/>
<polygon fill="grey" stroke="grey" stroke-width="2" points="342.83,-46.74 343.75,-36.19 336.45,-43.87 342.83,-46.74"/>
</g>
<!-- 2&#45;&gt;3 -->
<g id="edge11" class="edge">
<title>2&#45;&gt;3</title>
<path fill="none" stroke="grey" stroke-width="2" d="M257.17,-143.88C240.8,-134.64 220.42,-123.13 202.85,-113.21"/>
<polygon fill="grey" stroke="grey" stroke-width="2" points="204.38,-110.06 193.95,-108.19 200.94,-116.15 204.38,-110.06"/>
</g>
<!-- 3&#45;&gt;0 -->
<g id="edge3" class="edge">
<title>3&#45;&gt;0</title>
<path fill="none" stroke="grey" stroke-width="2" d="M205.69,-73.29C238.42,-61.11 283.32,-44.38 314.62,-32.73"/>
<polygon fill="grey" stroke="grey" stroke-width="2" points="316.12,-35.91 324.27,-29.14 313.68,-29.35 316.12,-35.91"/>
</g>
<!-- 4&#45;&gt;0 -->
<g id="edge4" class="edge">
<title>4&#45;&gt;0</title>
<path fill="none" stroke="grey" stroke-width="2" d="M501.23,-78.22C470.87,-66.21 421.65,-46.74 387.99,-33.43"/>
<polygon fill="grey" stroke="grey" stroke-width="2" points="389.1,-30.1 378.51,-29.68 386.52,-36.61 389.1,-30.1"/>
</g>
<!-- 5 -->
<g id="node6" class="node">
<title>5</title>
<path fill="none" stroke="#d87556" stroke-width="2" stroke-dasharray="5,2" d="M356.5,-396C356.5,-396 294.5,-396 294.5,-396 288.5,-396 282.5,-390 282.5,-384 282.5,-384 282.5,-372 282.5,-372 282.5,-366 288.5,-360 294.5,-360 294.5,-360 356.5,-360 356.5,-360 362.5,-360 368.5,-366 368.5,-372 368.5,-372 368.5,-384 368.5,-384 368.5,-390 362.5,-396 356.5,-396"/>
<text text-anchor="middle" x="325.5" y="-375.5" font-family="sans" font-size="10.00">samtools_sort</text>
</g>
<!-- 5&#45;&gt;1 -->
<g id="edge5" class="edge">
<title>5&#45;&gt;1</title>
<path fill="none" stroke="grey" stroke-width="2" d="M323.37,-359.82C321.82,-341.29 321.45,-311.33 331.5,-288 336.09,-277.34 343.78,-267.45 351.72,-259.18"/>
<polygon fill="grey" stroke="grey" stroke-width="2" points="354.3,-261.55 359,-252.05 349.4,-256.55 354.3,-261.55"/>
</g>
<!-- 6 -->
<g id="node7" class="node">
<title>6</title>
<path fill="none" stroke="#56d8d0" stroke-width="2" stroke-dasharray="5,2" d="M422.5,-324C422.5,-324 352.5,-324 352.5,-324 346.5,-324 340.5,-318 340.5,-312 340.5,-312 340.5,-300 340.5,-300 340.5,-294 346.5,-288 352.5,-288 352.5,-288 422.5,-288 422.5,-288 428.5,-288 434.5,-294 434.5,-300 434.5,-300 434.5,-312 434.5,-312 434.5,-318 428.5,-324 422.5,-324"/>
<text text-anchor="middle" x="387.5" y="-303.5" font-family="sans" font-size="10.00">samtools_index</text>
</g>
<!-- 5&#45;&gt;6 -->
<g id="edge20" class="edge">
<title>5&#45;&gt;6</title>
<path fill="none" stroke="grey" stroke-width="2" d="M340.83,-359.7C348.26,-351.3 357.32,-341.07 365.48,-331.86"/>
<polygon fill="grey" stroke="grey" stroke-width="2" points="368.34,-333.91 372.35,-324.1 363.1,-329.27 368.34,-333.91"/>
</g>
<!-- 6&#45;&gt;1 -->
<g id="edge6" class="edge">
<title>6&#45;&gt;1</title>
<path fill="none" stroke="grey" stroke-width="2" d="M385.77,-287.7C385,-279.98 384.07,-270.71 383.21,-262.11"/>
<polygon fill="grey" stroke="grey" stroke-width="2" points="386.69,-261.71 382.21,-252.1 379.72,-262.4 386.69,-261.71"/>
</g>
<!-- 7 -->
<g id="node8" class="node">
<title>7</title>
<path fill="none" stroke="#56d863" stroke-width="2" stroke-dasharray="5,2" d="M279.5,-612C279.5,-612 223.5,-612 223.5,-612 217.5,-612 211.5,-606 211.5,-600 211.5,-600 211.5,-588 211.5,-588 211.5,-582 217.5,-576 223.5,-576 223.5,-576 279.5,-576 279.5,-576 285.5,-576 291.5,-582 291.5,-588 291.5,-588 291.5,-600 291.5,-600 291.5,-606 285.5,-612 279.5,-612"/>
<text text-anchor="middle" x="251.5" y="-591.5" font-family="sans" font-size="10.00">cp_reference</text>
</g>
<!-- 7&#45;&gt;3 -->
<g id="edge8" class="edge">
<title>7&#45;&gt;3</title>
<path fill="none" stroke="grey" stroke-width="2" d="M211.27,-582.59C188.37,-574.61 161.04,-561.28 144.5,-540 119.68,-508.06 125.5,-491.45 125.5,-451 125.5,-451 125.5,-451 125.5,-233 125.5,-191.63 140.73,-145.72 151.91,-117.61"/>
<polygon fill="grey" stroke="grey" stroke-width="2" points="155.26,-118.67 155.81,-108.09 148.78,-116.02 155.26,-118.67"/>
</g>
<!-- 9 -->
<g id="node10" class="node">
<title>9</title>
<path fill="none" stroke="#5673d8" stroke-width="2" stroke-dasharray="5,2" d="M211,-540C211,-540 166,-540 166,-540 160,-540 154,-534 154,-528 154,-528 154,-516 154,-516 154,-510 160,-504 166,-504 166,-504 211,-504 211,-504 217,-504 223,-510 223,-516 223,-516 223,-528 223,-528 223,-534 217,-540 211,-540"/>
<text text-anchor="middle" x="188.5" y="-519.5" font-family="sans" font-size="10.00">bwa_index</text>
</g>
<!-- 7&#45;&gt;9 -->
<g id="edge21" class="edge">
<title>7&#45;&gt;9</title>
<path fill="none" stroke="grey" stroke-width="2" d="M235.93,-575.7C228.3,-567.22 218.98,-556.86 210.62,-547.58"/>
<polygon fill="grey" stroke="grey" stroke-width="2" points="213.19,-545.2 203.89,-540.1 207.98,-549.88 213.19,-545.2"/>
</g>
<!-- 15 -->
<g id="node16" class="node">
<title>15</title>
<path fill="none" stroke="#b6d856" stroke-width="2" stroke-dasharray="5,2" d="M347.5,-468C347.5,-468 303.5,-468 303.5,-468 297.5,-468 291.5,-462 291.5,-456 291.5,-456 291.5,-444 291.5,-444 291.5,-438 297.5,-432 303.5,-432 303.5,-432 347.5,-432 347.5,-432 353.5,-432 359.5,-438 359.5,-444 359.5,-444 359.5,-456 359.5,-456 359.5,-462 353.5,-468 347.5,-468"/>
<text text-anchor="middle" x="325.5" y="-447.5" font-family="sans" font-size="10.00">bwa_mem</text>
</g>
<!-- 7&#45;&gt;15 -->
<g id="edge27" class="edge">
<title>7&#45;&gt;15</title>
<path fill="none" stroke="grey" stroke-width="2" d="M252.2,-575.9C253.61,-557.17 257.84,-526.79 270.5,-504 276.48,-493.24 285.35,-483.32 294.23,-475.04"/>
<polygon fill="grey" stroke="grey" stroke-width="2" points="296.79,-477.45 301.97,-468.2 292.16,-472.2 296.79,-477.45"/>
</g>
<!-- 17 -->
<g id="node18" class="node">
<title>17</title>
<path fill="none" stroke="#56a9d8" stroke-width="2" stroke-dasharray="5,2" d="M359.5,-540C359.5,-540 291.5,-540 291.5,-540 285.5,-540 279.5,-534 279.5,-528 279.5,-528 279.5,-516 279.5,-516 279.5,-510 285.5,-504 291.5,-504 291.5,-504 359.5,-504 359.5,-504 365.5,-504 371.5,-510 371.5,-516 371.5,-516 371.5,-528 371.5,-528 371.5,-534 365.5,-540 359.5,-540"/>
<text text-anchor="middle" x="325.5" y="-519.5" font-family="sans" font-size="10.00">samtools_faidx</text>
</g>
<!-- 7&#45;&gt;17 -->
<g id="edge32" class="edge">
<title>7&#45;&gt;17</title>
<path fill="none" stroke="grey" stroke-width="2" d="M269.79,-575.7C278.93,-567.05 290.14,-556.45 300.1,-547.03"/>
<polygon fill="grey" stroke="grey" stroke-width="2" points="302.56,-549.52 307.42,-540.1 297.75,-544.43 302.56,-549.52"/>
</g>
<!-- 18 -->
<g id="node19" class="node">
<title>18</title>
<path fill="none" stroke="#56d882" stroke-width="2" stroke-dasharray="5,2" d="M439.5,-540C439.5,-540 401.5,-540 401.5,-540 395.5,-540 389.5,-534 389.5,-528 389.5,-528 389.5,-516 389.5,-516 389.5,-510 395.5,-504 401.5,-504 401.5,-504 439.5,-504 439.5,-504 445.5,-504 451.5,-510 451.5,-516 451.5,-516 451.5,-528 451.5,-528 451.5,-534 445.5,-540 439.5,-540"/>
<text text-anchor="middle" x="420.5" y="-519.5" font-family="sans" font-size="10.00">gatk_dict</text>
</g>
<!-- 7&#45;&gt;18 -->
<g id="edge33" class="edge">
<title>7&#45;&gt;18</title>
<path fill="none" stroke="grey" stroke-width="2" d="M291.65,-576.65C315.04,-567.09 345.32,-554.66 379.75,-540.3"/>
<polygon fill="grey" stroke="grey" stroke-width="2" points="381.19,-543.48 389.07,-536.4 378.5,-537.03 381.19,-543.48"/>
</g>
<!-- 8 -->
<g id="node9" class="node">
<title>8</title>
<path fill="none" stroke="#d88d56" stroke-width="2" stroke-dasharray="5,2" d="M65.5,-252C65.5,-252 33.5,-252 33.5,-252 27.5,-252 21.5,-246 21.5,-240 21.5,-240 21.5,-228 21.5,-228 21.5,-222 27.5,-216 33.5,-216 33.5,-216 65.5,-216 65.5,-216 71.5,-216 77.5,-222 77.5,-228 77.5,-228 77.5,-240 77.5,-240 77.5,-246 71.5,-252 65.5,-252"/>
<text text-anchor="middle" x="49.5" y="-231.5" font-family="sans" font-size="10.00">cp_snps</text>
</g>
<!-- 8&#45;&gt;3 -->
<g id="edge10" class="edge">
<title>8&#45;&gt;3</title>
<path fill="none" stroke="grey" stroke-width="2" d="M60.13,-215.99C71.89,-197.61 91.79,-167.78 111.5,-144 119.52,-134.33 128.97,-124.34 137.59,-115.68"/>
<polygon fill="grey" stroke="grey" stroke-width="2" points="140.26,-117.97 144.91,-108.45 135.34,-112.99 140.26,-117.97"/>
</g>
<!-- 10 -->
<g id="node11" class="node">
<title>10</title>
<path fill="none" stroke="#97d856" stroke-width="2" stroke-dasharray="5,2" d="M47,-180C47,-180 12,-180 12,-180 6,-180 0,-174 0,-168 0,-168 0,-156 0,-156 0,-150 6,-144 12,-144 12,-144 47,-144 47,-144 53,-144 59,-150 59,-156 59,-156 59,-168 59,-168 59,-174 53,-180 47,-180"/>
<text text-anchor="middle" x="29.5" y="-159.5" font-family="sans" font-size="10.00">gatk_idx</text>
</g>
<!-- 8&#45;&gt;10 -->
<g id="edge22" class="edge">
<title>8&#45;&gt;10</title>
<path fill="none" stroke="grey" stroke-width="2" d="M44.56,-215.7C42.33,-207.9 39.65,-198.51 37.17,-189.83"/>
<polygon fill="grey" stroke="grey" stroke-width="2" points="40.5,-188.76 34.39,-180.1 33.77,-190.68 40.5,-188.76"/>
</g>
<!-- 9&#45;&gt;3 -->
<g id="edge12" class="edge">
<title>9&#45;&gt;3</title>
<path fill="none" stroke="grey" stroke-width="2" d="M183.44,-503.68C176.14,-477.11 163.5,-424.56 163.5,-379 163.5,-379 163.5,-379 163.5,-233 163.5,-193 163.5,-146.65 163.5,-118.08"/>
<polygon fill="grey" stroke="grey" stroke-width="2" points="167,-118.05 163.5,-108.05 160,-118.05 167,-118.05"/>
</g>
<!-- 9&#45;&gt;15 -->
<g id="edge29" class="edge">
<title>9&#45;&gt;15</title>
<path fill="none" stroke="grey" stroke-width="2" d="M222.01,-503.88C240.34,-494.51 263.24,-482.81 282.83,-472.8"/>
<polygon fill="grey" stroke="grey" stroke-width="2" points="284.54,-475.86 291.86,-468.19 281.36,-469.62 284.54,-475.86"/>
</g>
<!-- 10&#45;&gt;3 -->
<g id="edge13" class="edge">
<title>10&#45;&gt;3</title>
<path fill="none" stroke="grey" stroke-width="2" d="M59.24,-145.46C77.56,-135.89 101.33,-123.48 121.55,-112.92"/>
<polygon fill="grey" stroke="grey" stroke-width="2" points="123.31,-115.94 130.55,-108.21 120.07,-109.74 123.31,-115.94"/>
</g>
<!-- 11 -->
<g id="node12" class="node">
<title>11</title>
<path fill="none" stroke="#80d856" stroke-width="2" stroke-dasharray="5,2" d="M709.5,-468C709.5,-468 679.5,-468 679.5,-468 673.5,-468 667.5,-462 667.5,-456 667.5,-456 667.5,-444 667.5,-444 667.5,-438 673.5,-432 679.5,-432 679.5,-432 709.5,-432 709.5,-432 715.5,-432 721.5,-438 721.5,-444 721.5,-444 721.5,-456 721.5,-456 721.5,-462 715.5,-468 709.5,-468"/>
<text text-anchor="middle" x="694.5" y="-447.5" font-family="sans" font-size="10.00">fastqc</text>
</g>
<!-- 11&#45;&gt;4 -->
<g id="edge14" class="edge">
<title>11&#45;&gt;4</title>
<path fill="none" stroke="grey" stroke-width="2" d="M692.92,-431.97C690.59,-405.33 686.5,-352.19 686.5,-307 686.5,-307 686.5,-307 686.5,-233 686.5,-190.81 682.64,-174.51 653.5,-144 630.04,-119.44 593.39,-105.73 565.83,-98.45"/>
<polygon fill="grey" stroke="grey" stroke-width="2" points="566.3,-94.96 555.76,-95.96 564.63,-101.76 566.3,-94.96"/>
</g>
<!-- 12 -->
<g id="node13" class="node">
<title>12</title>
<path fill="none" stroke="#ced856" stroke-width="2" stroke-dasharray="5,2" d="M654.5,-540C654.5,-540 598.5,-540 598.5,-540 592.5,-540 586.5,-534 586.5,-528 586.5,-528 586.5,-516 586.5,-516 586.5,-510 592.5,-504 598.5,-504 598.5,-504 654.5,-504 654.5,-504 660.5,-504 666.5,-510 666.5,-516 666.5,-516 666.5,-528 666.5,-528 666.5,-534 660.5,-540 654.5,-540"/>
<text text-anchor="middle" x="626.5" y="-519.5" font-family="sans" font-size="10.00">trimmomatic</text>
</g>
<!-- 12&#45;&gt;4 -->
<g id="edge15" class="edge">
<title>12&#45;&gt;4</title>
<path fill="none" stroke="grey" stroke-width="2" d="M629.07,-504C632.86,-477.4 639.5,-424.3 639.5,-379 639.5,-379 639.5,-379 639.5,-233 639.5,-192.55 644.3,-176.7 620.5,-144 606.86,-125.26 584.42,-112.14 565.12,-103.64"/>
<polygon fill="grey" stroke="grey" stroke-width="2" points="566.24,-100.32 555.66,-99.73 563.56,-106.79 566.24,-100.32"/>
</g>
<!-- 12&#45;&gt;15 -->
<g id="edge28" class="edge">
<title>12&#45;&gt;15</title>
<path fill="none" stroke="grey" stroke-width="2" d="M586.22,-511.63C529.85,-498.52 427.82,-474.8 369.51,-461.24"/>
<polygon fill="grey" stroke="grey" stroke-width="2" points="370.04,-457.76 359.5,-458.91 368.45,-464.58 370.04,-457.76"/>
</g>
<!-- 13&#45;&gt;4 -->
<g id="edge16" class="edge">
<title>13&#45;&gt;4</title>
<path fill="none" stroke="grey" stroke-width="2" d="M556.35,-143.7C552.1,-135.64 546.94,-125.89 542.23,-116.98"/>
<polygon fill="grey" stroke="grey" stroke-width="2" points="545.31,-115.31 537.54,-108.1 539.12,-118.58 545.31,-115.31"/>
</g>
<!-- 14&#45;&gt;4 -->
<g id="edge17" class="edge">
<title>14&#45;&gt;4</title>
<path fill="none" stroke="grey" stroke-width="2" d="M456.23,-143.7C468.44,-134.8 483.49,-123.82 496.68,-114.2"/>
<polygon fill="grey" stroke="grey" stroke-width="2" points="499.02,-116.82 505.04,-108.1 494.9,-111.17 499.02,-116.82"/>
</g>
<!-- 15&#45;&gt;5 -->
<g id="edge19" class="edge">
<title>15&#45;&gt;5</title>
<path fill="none" stroke="grey" stroke-width="2" d="M325.5,-431.7C325.5,-423.98 325.5,-414.71 325.5,-406.11"/>
<polygon fill="grey" stroke="grey" stroke-width="2" points="329,-406.1 325.5,-396.1 322,-406.1 329,-406.1"/>
</g>
<!-- 16 -->
<g id="node17" class="node">
<title>16</title>
<path fill="none" stroke="#56c1d8" stroke-width="2" stroke-dasharray="5,2" d="M735,-612C735,-612 586,-612 586,-612 580,-612 574,-606 574,-600 574,-600 574,-588 574,-588 574,-582 580,-576 586,-576 586,-576 735,-576 735,-576 741,-576 747,-582 747,-588 747,-588 747,-600 747,-600 747,-606 741,-612 735,-612"/>
<text text-anchor="middle" x="660.5" y="-597" font-family="sans" font-size="10.00">cp_reads</text>
<text text-anchor="middle" x="660.5" y="-586" font-family="sans" font-size="10.00">library: N100_R2_AF0.6_NR4667</text>
</g>
<!-- 16&#45;&gt;11 -->
<g id="edge23" class="edge">
<title>16&#45;&gt;11</title>
<path fill="none" stroke="grey" stroke-width="2" d="M665.65,-575.89C668.69,-565.54 672.51,-552.07 675.5,-540 680.6,-519.43 685.57,-495.97 689.15,-478.31"/>
<polygon fill="grey" stroke="grey" stroke-width="2" points="692.66,-478.63 691.19,-468.14 685.79,-477.26 692.66,-478.63"/>
</g>
<!-- 16&#45;&gt;12 -->
<g id="edge24" class="edge">
<title>16&#45;&gt;12</title>
<path fill="none" stroke="grey" stroke-width="2" d="M652.1,-575.7C648.23,-567.73 643.55,-558.1 639.26,-549.26"/>
<polygon fill="grey" stroke="grey" stroke-width="2" points="642.33,-547.57 634.81,-540.1 636.03,-550.63 642.33,-547.57"/>
</g>
<!-- 17&#45;&gt;15 -->
<g id="edge30" class="edge">
<title>17&#45;&gt;15</title>
<path fill="none" stroke="grey" stroke-width="2" d="M325.5,-503.7C325.5,-495.98 325.5,-486.71 325.5,-478.11"/>
<polygon fill="grey" stroke="grey" stroke-width="2" points="329,-478.1 325.5,-468.1 322,-478.1 329,-478.1"/>
</g>
<!-- 18&#45;&gt;15 -->
<g id="edge31" class="edge">
<title>18&#45;&gt;15</title>
<path fill="none" stroke="grey" stroke-width="2" d="M397.02,-503.7C384.94,-494.8 370.05,-483.82 356.98,-474.2"/>
<polygon fill="grey" stroke="grey" stroke-width="2" points="358.84,-471.22 348.71,-468.1 354.69,-476.85 358.84,-471.22"/>
</g>
</g>
</svg>
