<?xml version="1.0" encoding="UTF-8" standalone="no"?>
<!DOCTYPE svg PUBLIC "-//W3C//DTD SVG 1.1//EN"
 "http://www.w3.org/Graphics/SVG/1.1/DTD/svg11.dtd">
<!-- Generated by graphviz version 2.43.0 (0)
 -->
<!-- Title: snakemake_dag Pages: 1 -->
<svg width="1512pt" height="553pt"
 viewBox="0.00 0.00 1512.00 553.00" xmlns="http://www.w3.org/2000/svg" xmlns:xlink="http://www.w3.org/1999/xlink">
<g id="graph0" class="graph" transform="scale(1 1) rotate(0) translate(4 549)">
<title>snakemake_dag</title>
<polygon fill="white" stroke="transparent" points="-4,4 -4,-549 1508,-549 1508,4 -4,4"/>
<!-- 0 -->
<g id="node1" class="node">
<title>0</title>
<path fill="none" stroke="#d8c356" stroke-width="2" d="M828,-36C828,-36 798,-36 798,-36 792,-36 786,-30 786,-24 786,-24 786,-12 786,-12 786,-6 792,0 798,0 798,0 828,0 828,0 834,0 840,-6 840,-12 840,-12 840,-24 840,-24 840,-30 834,-36 828,-36"/>
<text text-anchor="middle" x="813" y="-15.5" font-family="sans" font-size="10.00">all</text>
</g>
<!-- 1 -->
<g id="node2" class="node">
<title>1</title>
<path fill="none" stroke="#568ad8" stroke-width="2" stroke-dasharray="5,2" d="M171,-108C171,-108 141,-108 141,-108 135,-108 129,-102 129,-96 129,-96 129,-84 129,-84 129,-78 135,-72 141,-72 141,-72 171,-72 171,-72 177,-72 183,-78 183,-84 183,-84 183,-96 183,-96 183,-102 177,-108 171,-108"/>
<text text-anchor="middle" x="156" y="-87.5" font-family="sans" font-size="10.00">multiqc</text>
</g>
<!-- 1&#45;&gt;0 -->
<g id="edge1" class="edge">
<title>1&#45;&gt;0</title>
<path fill="none" stroke="grey" stroke-width="2" d="M183.43,-85.1C209.33,-81.47 249.26,-76.05 284,-72 468.38,-50.53 689.54,-30.08 775.9,-22.3"/>
<polygon fill="grey" stroke="grey" stroke-width="2" points="776.34,-25.78 785.99,-21.4 775.72,-18.81 776.34,-25.78"/>
</g>
<!-- 2 -->
<g id="node3" class="node">
<title>2</title>
<path fill="none" stroke="#56c1d8" stroke-width="2" stroke-dasharray="5,2" d="M1233.5,-257C1233.5,-257 1138.5,-257 1138.5,-257 1132.5,-257 1126.5,-251 1126.5,-245 1126.5,-245 1126.5,-233 1126.5,-233 1126.5,-227 1132.5,-221 1138.5,-221 1138.5,-221 1233.5,-221 1233.5,-221 1239.5,-221 1245.5,-227 1245.5,-233 1245.5,-233 1245.5,-245 1245.5,-245 1245.5,-251 1239.5,-257 1233.5,-257"/>
<text text-anchor="middle" x="1186" y="-236.5" font-family="sans" font-size="10.00">gatk_markduplicates</text>
</g>
<!-- 2&#45;&gt;0 -->
<g id="edge2" class="edge">
<title>2&#45;&gt;0</title>
<path fill="none" stroke="grey" stroke-width="2" d="M1227.27,-220.93C1250.42,-211.04 1279.64,-198 1305,-185 1312.56,-181.13 1432.77,-115.36 1437,-108 1444.97,-94.13 1447.82,-83.78 1437,-72 1397.2,-28.68 978.75,-20.73 850.29,-19.3"/>
<polygon fill="grey" stroke="grey" stroke-width="2" points="850.19,-15.8 840.16,-19.2 850.12,-22.8 850.19,-15.8"/>
</g>
<!-- 3 -->
<g id="node4" class="node">
<title>3</title>
<path fill="none" stroke="#61d856" stroke-width="2" stroke-dasharray="5,2" d="M1226.5,-108C1226.5,-108 1143.5,-108 1143.5,-108 1137.5,-108 1131.5,-102 1131.5,-96 1131.5,-96 1131.5,-84 1131.5,-84 1131.5,-78 1137.5,-72 1143.5,-72 1143.5,-72 1226.5,-72 1226.5,-72 1232.5,-72 1238.5,-78 1238.5,-84 1238.5,-84 1238.5,-96 1238.5,-96 1238.5,-102 1232.5,-108 1226.5,-108"/>
<text text-anchor="middle" x="1185" y="-93" font-family="sans" font-size="10.00">samtools_index</text>
<text text-anchor="middle" x="1185" y="-82" font-family="sans" font-size="10.00">sample: base1.md</text>
</g>
<!-- 2&#45;&gt;3 -->
<g id="edge22" class="edge">
<title>2&#45;&gt;3</title>
<path fill="none" stroke="grey" stroke-width="2" d="M1185.88,-220.85C1185.71,-195.62 1185.39,-148.26 1185.19,-118.24"/>
<polygon fill="grey" stroke="grey" stroke-width="2" points="1188.68,-118.02 1185.12,-108.04 1181.68,-118.06 1188.68,-118.02"/>
</g>
<!-- 4 -->
<g id="node5" class="node">
<title>4</title>
<path fill="none" stroke="#97d856" stroke-width="2" stroke-dasharray="5,2" d="M1335.5,-108C1335.5,-108 1268.5,-108 1268.5,-108 1262.5,-108 1256.5,-102 1256.5,-96 1256.5,-96 1256.5,-84 1256.5,-84 1256.5,-78 1262.5,-72 1268.5,-72 1268.5,-72 1335.5,-72 1335.5,-72 1341.5,-72 1347.5,-78 1347.5,-84 1347.5,-84 1347.5,-96 1347.5,-96 1347.5,-102 1341.5,-108 1335.5,-108"/>
<text text-anchor="middle" x="1302" y="-87.5" font-family="sans" font-size="10.00">samtools_stats</text>
</g>
<!-- 2&#45;&gt;4 -->
<g id="edge23" class="edge">
<title>2&#45;&gt;4</title>
<path fill="none" stroke="grey" stroke-width="2" d="M1199.53,-220.85C1219.96,-194.96 1258.79,-145.75 1282.34,-115.91"/>
<polygon fill="grey" stroke="grey" stroke-width="2" points="1285.11,-118.06 1288.55,-108.04 1279.61,-113.72 1285.11,-118.06"/>
</g>
<!-- 5 -->
<g id="node6" class="node">
<title>5</title>
<path fill="none" stroke="#ced856" stroke-width="2" stroke-dasharray="5,2" d="M1416,-108C1416,-108 1378,-108 1378,-108 1372,-108 1366,-102 1366,-96 1366,-96 1366,-84 1366,-84 1366,-78 1372,-72 1378,-72 1378,-72 1416,-72 1416,-72 1422,-72 1428,-78 1428,-84 1428,-84 1428,-96 1428,-96 1428,-102 1422,-108 1416,-108"/>
<text text-anchor="middle" x="1397" y="-87.5" font-family="sans" font-size="10.00">qualimap</text>
</g>
<!-- 2&#45;&gt;5 -->
<g id="edge24" class="edge">
<title>2&#45;&gt;5</title>
<path fill="none" stroke="grey" stroke-width="2" d="M1210.62,-220.85C1248.65,-194.35 1321.75,-143.43 1364.22,-113.84"/>
<polygon fill="grey" stroke="grey" stroke-width="2" points="1366.34,-116.63 1372.54,-108.04 1362.33,-110.89 1366.34,-116.63"/>
</g>
<!-- 11 -->
<g id="node12" class="node">
<title>11</title>
<path fill="none" stroke="#56d89a" stroke-width="2" stroke-dasharray="5,2" d="M1492,-182.5C1492,-182.5 1402,-182.5 1402,-182.5 1396,-182.5 1390,-176.5 1390,-170.5 1390,-170.5 1390,-158.5 1390,-158.5 1390,-152.5 1396,-146.5 1402,-146.5 1402,-146.5 1492,-146.5 1492,-146.5 1498,-146.5 1504,-152.5 1504,-158.5 1504,-158.5 1504,-170.5 1504,-170.5 1504,-176.5 1498,-182.5 1492,-182.5"/>
<text text-anchor="middle" x="1447" y="-162" font-family="sans" font-size="10.00">freebayes_germline</text>
</g>
<!-- 2&#45;&gt;11 -->
<g id="edge34" class="edge">
<title>2&#45;&gt;11</title>
<path fill="none" stroke="grey" stroke-width="2" d="M1245.55,-221.46C1285.67,-210.32 1338.63,-195.6 1380.18,-184.06"/>
<polygon fill="grey" stroke="grey" stroke-width="2" points="1381.25,-187.4 1389.94,-181.35 1379.37,-180.65 1381.25,-187.4"/>
</g>
<!-- 12 -->
<g id="node13" class="node">
<title>12</title>
<path fill="none" stroke="#56a9d8" stroke-width="2" stroke-dasharray="5,2" d="M694,-185C694,-185 608,-185 608,-185 602,-185 596,-179 596,-173 596,-173 596,-156 596,-156 596,-150 602,-144 608,-144 608,-144 694,-144 694,-144 700,-144 706,-150 706,-156 706,-156 706,-173 706,-173 706,-179 700,-185 694,-185"/>
<text text-anchor="middle" x="651" y="-173" font-family="sans" font-size="10.00">freebayes_somatic</text>
<text text-anchor="middle" x="651" y="-162" font-family="sans" font-size="10.00">base: base1</text>
<text text-anchor="middle" x="651" y="-151" font-family="sans" font-size="10.00">mutated: mutated</text>
</g>
<!-- 2&#45;&gt;12 -->
<g id="edge38" class="edge">
<title>2&#45;&gt;12</title>
<path fill="none" stroke="grey" stroke-width="2" d="M1126.44,-229.93C1025.36,-216.23 821,-188.54 716.2,-174.34"/>
<polygon fill="grey" stroke="grey" stroke-width="2" points="716.45,-170.84 706.07,-172.96 715.51,-177.77 716.45,-170.84"/>
</g>
<!-- 13 -->
<g id="node14" class="node">
<title>13</title>
<path fill="none" stroke="#5673d8" stroke-width="2" stroke-dasharray="5,2" d="M1143.5,-185C1143.5,-185 1062.5,-185 1062.5,-185 1056.5,-185 1050.5,-179 1050.5,-173 1050.5,-173 1050.5,-156 1050.5,-156 1050.5,-150 1056.5,-144 1062.5,-144 1062.5,-144 1143.5,-144 1143.5,-144 1149.5,-144 1155.5,-150 1155.5,-156 1155.5,-156 1155.5,-173 1155.5,-173 1155.5,-179 1149.5,-185 1143.5,-185"/>
<text text-anchor="middle" x="1103" y="-173" font-family="sans" font-size="10.00">gatk_mutect2</text>
<text text-anchor="middle" x="1103" y="-162" font-family="sans" font-size="10.00">base: base1</text>
<text text-anchor="middle" x="1103" y="-151" font-family="sans" font-size="10.00">mutated: mutated</text>
</g>
<!-- 2&#45;&gt;13 -->
<g id="edge43" class="edge">
<title>2&#45;&gt;13</title>
<path fill="none" stroke="grey" stroke-width="2" d="M1166.33,-220.82C1156.45,-212.19 1144.27,-201.55 1133.24,-191.92"/>
<polygon fill="grey" stroke="grey" stroke-width="2" points="1135.29,-189.06 1125.46,-185.12 1130.69,-194.33 1135.29,-189.06"/>
</g>
<!-- 24 -->
<g id="node25" class="node">
<title>24</title>
<path fill="none" stroke="#56d8b9" stroke-width="2" stroke-dasharray="5,2" d="M981.5,-182.5C981.5,-182.5 886.5,-182.5 886.5,-182.5 880.5,-182.5 874.5,-176.5 874.5,-170.5 874.5,-170.5 874.5,-158.5 874.5,-158.5 874.5,-152.5 880.5,-146.5 886.5,-146.5 886.5,-146.5 981.5,-146.5 981.5,-146.5 987.5,-146.5 993.5,-152.5 993.5,-158.5 993.5,-158.5 993.5,-170.5 993.5,-170.5 993.5,-176.5 987.5,-182.5 981.5,-182.5"/>
<text text-anchor="middle" x="934" y="-162" font-family="sans" font-size="10.00">gatk_haplotypecaller</text>
</g>
<!-- 2&#45;&gt;24 -->
<g id="edge56" class="edge">
<title>2&#45;&gt;24</title>
<path fill="none" stroke="grey" stroke-width="2" d="M1126.6,-220.91C1089.57,-210.26 1041.79,-196.51 1003.07,-185.37"/>
<polygon fill="grey" stroke="grey" stroke-width="2" points="1004.02,-182 993.44,-182.6 1002.08,-188.73 1004.02,-182"/>
</g>
<!-- 3&#45;&gt;0 -->
<g id="edge3" class="edge">
<title>3&#45;&gt;0</title>
<path fill="none" stroke="grey" stroke-width="2" d="M1131.26,-75.18C1126.45,-74.06 1121.64,-72.98 1117,-72 1021.53,-51.77 908,-33.5 850.45,-24.64"/>
<polygon fill="grey" stroke="grey" stroke-width="2" points="850.79,-21.15 840.38,-23.09 849.73,-28.07 850.79,-21.15"/>
</g>
<!-- 4&#45;&gt;0 -->
<g id="edge4" class="edge">
<title>4&#45;&gt;0</title>
<path fill="none" stroke="grey" stroke-width="2" d="M1256.49,-74.03C1253.63,-73.29 1250.79,-72.6 1248,-72 1102.89,-40.6 926.23,-26.27 850.45,-21.24"/>
<polygon fill="grey" stroke="grey" stroke-width="2" points="850.22,-17.72 840.02,-20.56 849.77,-24.7 850.22,-17.72"/>
</g>
<!-- 5&#45;&gt;0 -->
<g id="edge5" class="edge">
<title>5&#45;&gt;0</title>
<path fill="none" stroke="grey" stroke-width="2" d="M1365.87,-74.71C1362.91,-73.67 1359.92,-72.75 1357,-72 1171,-24.61 939.3,-19.02 850.24,-18.76"/>
<polygon fill="grey" stroke="grey" stroke-width="2" points="850.1,-15.26 840.1,-18.75 850.1,-22.26 850.1,-15.26"/>
</g>
<!-- 6 -->
<g id="node7" class="node">
<title>6</title>
<path fill="none" stroke="#56c1d8" stroke-width="2" stroke-dasharray="5,2" d="M482.5,-257C482.5,-257 387.5,-257 387.5,-257 381.5,-257 375.5,-251 375.5,-245 375.5,-245 375.5,-233 375.5,-233 375.5,-227 381.5,-221 387.5,-221 387.5,-221 482.5,-221 482.5,-221 488.5,-221 494.5,-227 494.5,-233 494.5,-233 494.5,-245 494.5,-245 494.5,-251 488.5,-257 482.5,-257"/>
<text text-anchor="middle" x="435" y="-236.5" font-family="sans" font-size="10.00">gatk_markduplicates</text>
</g>
<!-- 6&#45;&gt;0 -->
<g id="edge6" class="edge">
<title>6&#45;&gt;0</title>
<path fill="none" stroke="grey" stroke-width="2" d="M431.98,-220.84C427.03,-186.51 421.68,-109.44 465,-72 511.02,-32.23 695.89,-22.26 775.84,-19.8"/>
<polygon fill="grey" stroke="grey" stroke-width="2" points="776.06,-23.29 785.96,-19.51 775.86,-16.29 776.06,-23.29"/>
</g>
<!-- 7 -->
<g id="node8" class="node">
<title>7</title>
<path fill="none" stroke="#61d856" stroke-width="2" stroke-dasharray="5,2" d="M559.5,-182.5C559.5,-182.5 464.5,-182.5 464.5,-182.5 458.5,-182.5 452.5,-176.5 452.5,-170.5 452.5,-170.5 452.5,-158.5 452.5,-158.5 452.5,-152.5 458.5,-146.5 464.5,-146.5 464.5,-146.5 559.5,-146.5 559.5,-146.5 565.5,-146.5 571.5,-152.5 571.5,-158.5 571.5,-158.5 571.5,-170.5 571.5,-170.5 571.5,-176.5 565.5,-182.5 559.5,-182.5"/>
<text text-anchor="middle" x="512" y="-167.5" font-family="sans" font-size="10.00">samtools_index</text>
<text text-anchor="middle" x="512" y="-156.5" font-family="sans" font-size="10.00">sample: mutated.md</text>
</g>
<!-- 6&#45;&gt;7 -->
<g id="edge27" class="edge">
<title>6&#45;&gt;7</title>
<path fill="none" stroke="grey" stroke-width="2" d="M453.25,-220.82C463.12,-211.52 475.49,-199.88 486.32,-189.68"/>
<polygon fill="grey" stroke="grey" stroke-width="2" points="489,-191.96 493.88,-182.56 484.2,-186.87 489,-191.96"/>
</g>
<!-- 8 -->
<g id="node9" class="node">
<title>8</title>
<path fill="none" stroke="#97d856" stroke-width="2" stroke-dasharray="5,2" d="M303.5,-182.5C303.5,-182.5 236.5,-182.5 236.5,-182.5 230.5,-182.5 224.5,-176.5 224.5,-170.5 224.5,-170.5 224.5,-158.5 224.5,-158.5 224.5,-152.5 230.5,-146.5 236.5,-146.5 236.5,-146.5 303.5,-146.5 303.5,-146.5 309.5,-146.5 315.5,-152.5 315.5,-158.5 315.5,-158.5 315.5,-170.5 315.5,-170.5 315.5,-176.5 309.5,-182.5 303.5,-182.5"/>
<text text-anchor="middle" x="270" y="-162" font-family="sans" font-size="10.00">samtools_stats</text>
</g>
<!-- 6&#45;&gt;8 -->
<g id="edge28" class="edge">
<title>6&#45;&gt;8</title>
<path fill="none" stroke="grey" stroke-width="2" d="M395.9,-220.82C372.57,-210.57 342.78,-197.48 318.04,-186.61"/>
<polygon fill="grey" stroke="grey" stroke-width="2" points="319.39,-183.38 308.82,-182.56 316.57,-189.79 319.39,-183.38"/>
</g>
<!-- 9 -->
<g id="node10" class="node">
<title>9</title>
<path fill="none" stroke="#ced856" stroke-width="2" stroke-dasharray="5,2" d="M384,-182.5C384,-182.5 346,-182.5 346,-182.5 340,-182.5 334,-176.5 334,-170.5 334,-170.5 334,-158.5 334,-158.5 334,-152.5 340,-146.5 346,-146.5 346,-146.5 384,-146.5 384,-146.5 390,-146.5 396,-152.5 396,-158.5 396,-158.5 396,-170.5 396,-170.5 396,-176.5 390,-182.5 384,-182.5"/>
<text text-anchor="middle" x="365" y="-162" font-family="sans" font-size="10.00">qualimap</text>
</g>
<!-- 6&#45;&gt;9 -->
<g id="edge29" class="edge">
<title>6&#45;&gt;9</title>
<path fill="none" stroke="grey" stroke-width="2" d="M418.41,-220.82C409.52,-211.61 398.41,-200.1 388.63,-189.97"/>
<polygon fill="grey" stroke="grey" stroke-width="2" points="390.93,-187.32 381.47,-182.56 385.9,-192.18 390.93,-187.32"/>
</g>
<!-- 6&#45;&gt;12 -->
<g id="edge39" class="edge">
<title>6&#45;&gt;12</title>
<path fill="none" stroke="grey" stroke-width="2" d="M485.92,-220.91C515.87,-210.86 554.04,-198.04 586.14,-187.27"/>
<polygon fill="grey" stroke="grey" stroke-width="2" points="587.52,-190.5 595.89,-184 585.29,-183.86 587.52,-190.5"/>
</g>
<!-- 6&#45;&gt;13 -->
<g id="edge44" class="edge">
<title>6&#45;&gt;13</title>
<path fill="none" stroke="grey" stroke-width="2" d="M494.51,-234.4C598.18,-227.7 818.46,-211.54 1003,-185 1015.23,-183.24 1028.22,-180.99 1040.66,-178.65"/>
<polygon fill="grey" stroke="grey" stroke-width="2" points="1041.33,-182.08 1050.49,-176.76 1040.01,-175.21 1041.33,-182.08"/>
</g>
<!-- 7&#45;&gt;0 -->
<g id="edge7" class="edge">
<title>7&#45;&gt;0</title>
<path fill="none" stroke="grey" stroke-width="2" d="M495.56,-146.22C478.69,-126.39 457.36,-93.8 476,-72 514.26,-27.25 696.37,-20.04 775.8,-19.05"/>
<polygon fill="grey" stroke="grey" stroke-width="2" points="775.89,-22.55 785.86,-18.96 775.83,-15.55 775.89,-22.55"/>
</g>
<!-- 8&#45;&gt;0 -->
<g id="edge8" class="edge">
<title>8&#45;&gt;0</title>
<path fill="none" stroke="grey" stroke-width="2" d="M284.07,-146.25C302.65,-124.82 337.54,-89.01 376,-72 447.43,-40.41 683.4,-25.48 775.61,-20.74"/>
<polygon fill="grey" stroke="grey" stroke-width="2" points="776.06,-24.22 785.87,-20.23 775.7,-17.23 776.06,-24.22"/>
</g>
<!-- 9&#45;&gt;0 -->
<g id="edge9" class="edge">
<title>9&#45;&gt;0</title>
<path fill="none" stroke="grey" stroke-width="2" d="M367.39,-146.19C371.29,-125.05 381.15,-89.9 405,-72 463.05,-28.42 686.08,-20.63 775.55,-19.27"/>
<polygon fill="grey" stroke="grey" stroke-width="2" points="775.82,-22.77 785.78,-19.14 775.73,-15.77 775.82,-22.77"/>
</g>
<!-- 10 -->
<g id="node11" class="node">
<title>10</title>
<path fill="none" stroke="#80d856" stroke-width="2" stroke-dasharray="5,2" d="M859,-108C859,-108 767,-108 767,-108 761,-108 755,-102 755,-96 755,-96 755,-84 755,-84 755,-78 761,-72 767,-72 767,-72 859,-72 859,-72 865,-72 871,-78 871,-84 871,-84 871,-96 871,-96 871,-102 865,-108 859,-108"/>
<text text-anchor="middle" x="813" y="-87.5" font-family="sans" font-size="10.00">gatk_genotypegvcfs</text>
</g>
<!-- 10&#45;&gt;0 -->
<g id="edge10" class="edge">
<title>10&#45;&gt;0</title>
<path fill="none" stroke="grey" stroke-width="2" d="M813,-71.7C813,-63.98 813,-54.71 813,-46.11"/>
<polygon fill="grey" stroke="grey" stroke-width="2" points="816.5,-46.1 813,-36.1 809.5,-46.1 816.5,-46.1"/>
</g>
<!-- 11&#45;&gt;0 -->
<g id="edge11" class="edge">
<title>11&#45;&gt;0</title>
<path fill="none" stroke="grey" stroke-width="2" d="M1459.44,-146.39C1472.54,-126.1 1488.88,-92.47 1470,-72 1427.83,-26.3 983.62,-19.99 850.5,-19.13"/>
<polygon fill="grey" stroke="grey" stroke-width="2" points="850.4,-15.63 840.38,-19.08 850.36,-22.63 850.4,-15.63"/>
</g>
<!-- 12&#45;&gt;0 -->
<g id="edge12" class="edge">
<title>12&#45;&gt;0</title>
<path fill="none" stroke="grey" stroke-width="2" d="M671.25,-143.8C696.83,-118.93 738.45,-78.59 746,-72 757.51,-61.95 770.6,-51.41 782.14,-42.4"/>
<polygon fill="grey" stroke="grey" stroke-width="2" points="784.46,-45.02 790.22,-36.13 780.17,-39.49 784.46,-45.02"/>
</g>
<!-- 14 -->
<g id="node15" class="node">
<title>14</title>
<path fill="none" stroke="#d8ac56" stroke-width="2" stroke-dasharray="5,2" d="M571,-108C571,-108 497,-108 497,-108 491,-108 485,-102 485,-96 485,-96 485,-84 485,-84 485,-78 491,-72 497,-72 497,-72 571,-72 571,-72 577,-72 583,-78 583,-84 583,-84 583,-96 583,-96 583,-102 577,-108 571,-108"/>
<text text-anchor="middle" x="534" y="-93" font-family="sans" font-size="10.00">bcftools_stats</text>
<text text-anchor="middle" x="534" y="-82" font-family="sans" font-size="10.00">caller: freebayes</text>
</g>
<!-- 12&#45;&gt;14 -->
<g id="edge48" class="edge">
<title>12&#45;&gt;14</title>
<path fill="none" stroke="grey" stroke-width="2" d="M619.34,-143.88C604.29,-134.56 586.22,-123.36 570.58,-113.67"/>
<polygon fill="grey" stroke="grey" stroke-width="2" points="572.05,-110.46 561.7,-108.17 568.36,-116.41 572.05,-110.46"/>
</g>
<!-- 15 -->
<g id="node16" class="node">
<title>15</title>
<path fill="none" stroke="#56d882" stroke-width="2" stroke-dasharray="5,2" d="M687,-108C687,-108 613,-108 613,-108 607,-108 601,-102 601,-96 601,-96 601,-84 601,-84 601,-78 607,-72 613,-72 613,-72 687,-72 687,-72 693,-72 699,-78 699,-84 699,-84 699,-96 699,-96 699,-102 693,-108 687,-108"/>
<text text-anchor="middle" x="650" y="-93" font-family="sans" font-size="10.00">vcftools_stats</text>
<text text-anchor="middle" x="650" y="-82" font-family="sans" font-size="10.00">caller: freebayes</text>
</g>
<!-- 12&#45;&gt;15 -->
<g id="edge49" class="edge">
<title>12&#45;&gt;15</title>
<path fill="none" stroke="grey" stroke-width="2" d="M650.73,-143.69C650.62,-135.91 650.49,-126.84 650.38,-118.45"/>
<polygon fill="grey" stroke="grey" stroke-width="2" points="653.88,-118.27 650.24,-108.32 646.88,-118.37 653.88,-118.27"/>
</g>
<!-- 13&#45;&gt;0 -->
<g id="edge13" class="edge">
<title>13&#45;&gt;0</title>
<path fill="none" stroke="grey" stroke-width="2" d="M1104.73,-143.79C1105.4,-123 1102.92,-90.71 1084,-72 1051.47,-39.85 916.9,-26.18 850.46,-21.31"/>
<polygon fill="grey" stroke="grey" stroke-width="2" points="850.63,-17.81 840.41,-20.6 850.14,-24.79 850.63,-17.81"/>
</g>
<!-- 16 -->
<g id="node17" class="node">
<title>16</title>
<path fill="none" stroke="#d8ac56" stroke-width="2" d="M961,-108C961,-108 901,-108 901,-108 895,-108 889,-102 889,-96 889,-96 889,-84 889,-84 889,-78 895,-72 901,-72 901,-72 961,-72 961,-72 967,-72 973,-78 973,-84 973,-84 973,-96 973,-96 973,-102 967,-108 961,-108"/>
<text text-anchor="middle" x="931" y="-93" font-family="sans" font-size="10.00">bcftools_stats</text>
<text text-anchor="middle" x="931" y="-82" font-family="sans" font-size="10.00">caller: gatk</text>
</g>
<!-- 13&#45;&gt;16 -->
<g id="edge50" class="edge">
<title>13&#45;&gt;16</title>
<path fill="none" stroke="grey" stroke-width="2" d="M1056.45,-143.88C1033,-134 1004.56,-122 980.68,-111.94"/>
<polygon fill="grey" stroke="grey" stroke-width="2" points="982.01,-108.7 971.44,-108.05 979.29,-115.16 982.01,-108.7"/>
</g>
<!-- 17 -->
<g id="node18" class="node">
<title>17</title>
<path fill="none" stroke="#56d882" stroke-width="2" d="M1063,-108C1063,-108 1003,-108 1003,-108 997,-108 991,-102 991,-96 991,-96 991,-84 991,-84 991,-78 997,-72 1003,-72 1003,-72 1063,-72 1063,-72 1069,-72 1075,-78 1075,-84 1075,-84 1075,-96 1075,-96 1075,-102 1069,-108 1063,-108"/>
<text text-anchor="middle" x="1033" y="-93" font-family="sans" font-size="10.00">vcftools_stats</text>
<text text-anchor="middle" x="1033" y="-82" font-family="sans" font-size="10.00">caller: gatk</text>
</g>
<!-- 13&#45;&gt;17 -->
<g id="edge51" class="edge">
<title>13&#45;&gt;17</title>
<path fill="none" stroke="grey" stroke-width="2" d="M1083.87,-143.69C1075.52,-135.04 1065.65,-124.81 1056.83,-115.68"/>
<polygon fill="grey" stroke="grey" stroke-width="2" points="1059.19,-113.08 1049.72,-108.32 1054.15,-117.94 1059.19,-113.08"/>
</g>
<!-- 14&#45;&gt;0 -->
<g id="edge14" class="edge">
<title>14&#45;&gt;0</title>
<path fill="none" stroke="grey" stroke-width="2" d="M583.31,-74.36C586.25,-73.55 589.16,-72.76 592,-72 656.24,-54.89 731.65,-37.35 775.7,-27.35"/>
<polygon fill="grey" stroke="grey" stroke-width="2" points="776.69,-30.71 785.67,-25.09 775.15,-23.89 776.69,-30.71"/>
</g>
<!-- 15&#45;&gt;0 -->
<g id="edge15" class="edge">
<title>15&#45;&gt;0</title>
<path fill="none" stroke="grey" stroke-width="2" d="M689.87,-71.88C716.28,-60.53 750.66,-45.77 776.38,-34.73"/>
<polygon fill="grey" stroke="grey" stroke-width="2" points="777.97,-37.85 785.78,-30.69 775.21,-31.42 777.97,-37.85"/>
</g>
<!-- 16&#45;&gt;0 -->
<g id="edge16" class="edge">
<title>16&#45;&gt;0</title>
<path fill="none" stroke="grey" stroke-width="2" d="M902.13,-71.88C886.24,-62.45 866.37,-50.66 849.42,-40.61"/>
<polygon fill="grey" stroke="grey" stroke-width="2" points="850.74,-37.32 840.35,-35.23 847.17,-43.34 850.74,-37.32"/>
</g>
<!-- 17&#45;&gt;0 -->
<g id="edge17" class="edge">
<title>17&#45;&gt;0</title>
<path fill="none" stroke="grey" stroke-width="2" d="M990.99,-74.93C987.95,-73.93 984.93,-72.95 982,-72 936.6,-57.32 884.14,-40.96 849.86,-30.35"/>
<polygon fill="grey" stroke="grey" stroke-width="2" points="850.86,-27 840.27,-27.39 848.79,-33.68 850.86,-27"/>
</g>
<!-- 18 -->
<g id="node19" class="node">
<title>18</title>
<path fill="none" stroke="#d87556" stroke-width="2" stroke-dasharray="5,2" d="M76,-182.5C76,-182.5 12,-182.5 12,-182.5 6,-182.5 0,-176.5 0,-170.5 0,-170.5 0,-158.5 0,-158.5 0,-152.5 6,-146.5 12,-146.5 12,-146.5 76,-146.5 76,-146.5 82,-146.5 88,-152.5 88,-158.5 88,-158.5 88,-170.5 88,-170.5 88,-176.5 82,-182.5 76,-182.5"/>
<text text-anchor="middle" x="44" y="-167.5" font-family="sans" font-size="10.00">fastqc</text>
<text text-anchor="middle" x="44" y="-156.5" font-family="sans" font-size="10.00">sample: base1</text>
</g>
<!-- 18&#45;&gt;1 -->
<g id="edge18" class="edge">
<title>18&#45;&gt;1</title>
<path fill="none" stroke="grey" stroke-width="2" d="M70.54,-146.32C85.61,-136.57 104.65,-124.24 120.93,-113.7"/>
<polygon fill="grey" stroke="grey" stroke-width="2" points="123.16,-116.43 129.65,-108.06 119.35,-110.55 123.16,-116.43"/>
</g>
<!-- 19 -->
<g id="node20" class="node">
<title>19</title>
<path fill="none" stroke="#d87556" stroke-width="2" stroke-dasharray="5,2" d="M194,-182.5C194,-182.5 118,-182.5 118,-182.5 112,-182.5 106,-176.5 106,-170.5 106,-170.5 106,-158.5 106,-158.5 106,-152.5 112,-146.5 118,-146.5 118,-146.5 194,-146.5 194,-146.5 200,-146.5 206,-152.5 206,-158.5 206,-158.5 206,-170.5 206,-170.5 206,-176.5 200,-182.5 194,-182.5"/>
<text text-anchor="middle" x="156" y="-167.5" font-family="sans" font-size="10.00">fastqc</text>
<text text-anchor="middle" x="156" y="-156.5" font-family="sans" font-size="10.00">sample: mutated</text>
</g>
<!-- 19&#45;&gt;1 -->
<g id="edge19" class="edge">
<title>19&#45;&gt;1</title>
<path fill="none" stroke="grey" stroke-width="2" d="M156,-146.32C156,-137.92 156,-127.62 156,-118.19"/>
<polygon fill="grey" stroke="grey" stroke-width="2" points="159.5,-118.06 156,-108.06 152.5,-118.06 159.5,-118.06"/>
</g>
<!-- 20 -->
<g id="node21" class="node">
<title>20</title>
<path fill="none" stroke="#b6d856" stroke-width="2" stroke-dasharray="5,2" d="M1192,-401C1192,-401 1130,-401 1130,-401 1124,-401 1118,-395 1118,-389 1118,-389 1118,-377 1118,-377 1118,-371 1124,-365 1130,-365 1130,-365 1192,-365 1192,-365 1198,-365 1204,-371 1204,-377 1204,-377 1204,-389 1204,-389 1204,-395 1198,-401 1192,-401"/>
<text text-anchor="middle" x="1161" y="-380.5" font-family="sans" font-size="10.00">samtools_sort</text>
</g>
<!-- 20&#45;&gt;2 -->
<g id="edge20" class="edge">
<title>20&#45;&gt;2</title>
<path fill="none" stroke="grey" stroke-width="2" d="M1187.12,-364.82C1198.58,-355.69 1210.81,-343.39 1217,-329 1225.98,-308.14 1216.11,-283.74 1205.19,-265.76"/>
<polygon fill="grey" stroke="grey" stroke-width="2" points="1207.87,-263.47 1199.48,-257 1202.01,-267.29 1207.87,-263.47"/>
</g>
<!-- 21 -->
<g id="node22" class="node">
<title>21</title>
<path fill="none" stroke="#61d856" stroke-width="2" stroke-dasharray="5,2" d="M1196,-329C1196,-329 1126,-329 1126,-329 1120,-329 1114,-323 1114,-317 1114,-317 1114,-305 1114,-305 1114,-299 1120,-293 1126,-293 1126,-293 1196,-293 1196,-293 1202,-293 1208,-299 1208,-305 1208,-305 1208,-317 1208,-317 1208,-323 1202,-329 1196,-329"/>
<text text-anchor="middle" x="1161" y="-308.5" font-family="sans" font-size="10.00">samtools_index</text>
</g>
<!-- 20&#45;&gt;21 -->
<g id="edge53" class="edge">
<title>20&#45;&gt;21</title>
<path fill="none" stroke="grey" stroke-width="2" d="M1161,-364.7C1161,-356.98 1161,-347.71 1161,-339.11"/>
<polygon fill="grey" stroke="grey" stroke-width="2" points="1164.5,-339.1 1161,-329.1 1157.5,-339.1 1164.5,-339.1"/>
</g>
<!-- 21&#45;&gt;2 -->
<g id="edge21" class="edge">
<title>21&#45;&gt;2</title>
<path fill="none" stroke="grey" stroke-width="2" d="M1167.18,-292.7C1170,-284.81 1173.39,-275.3 1176.52,-266.55"/>
<polygon fill="grey" stroke="grey" stroke-width="2" points="1179.82,-267.7 1179.89,-257.1 1173.23,-265.34 1179.82,-267.7"/>
</g>
<!-- 22 -->
<g id="node23" class="node">
<title>22</title>
<path fill="none" stroke="#b6d856" stroke-width="2" stroke-dasharray="5,2" d="M506,-401C506,-401 444,-401 444,-401 438,-401 432,-395 432,-389 432,-389 432,-377 432,-377 432,-371 438,-365 444,-365 444,-365 506,-365 506,-365 512,-365 518,-371 518,-377 518,-377 518,-389 518,-389 518,-395 512,-401 506,-401"/>
<text text-anchor="middle" x="475" y="-380.5" font-family="sans" font-size="10.00">samtools_sort</text>
</g>
<!-- 22&#45;&gt;6 -->
<g id="edge25" class="edge">
<title>22&#45;&gt;6</title>
<path fill="none" stroke="grey" stroke-width="2" d="M448.88,-364.82C437.42,-355.69 425.19,-343.39 419,-329 410.41,-309.05 415.78,-284.66 422.53,-266.46"/>
<polygon fill="grey" stroke="grey" stroke-width="2" points="425.83,-267.64 426.34,-257.06 419.34,-265.01 425.83,-267.64"/>
</g>
<!-- 23 -->
<g id="node24" class="node">
<title>23</title>
<path fill="none" stroke="#61d856" stroke-width="2" stroke-dasharray="5,2" d="M510,-329C510,-329 440,-329 440,-329 434,-329 428,-323 428,-317 428,-317 428,-305 428,-305 428,-299 434,-293 440,-293 440,-293 510,-293 510,-293 516,-293 522,-299 522,-305 522,-305 522,-317 522,-317 522,-323 516,-329 510,-329"/>
<text text-anchor="middle" x="475" y="-308.5" font-family="sans" font-size="10.00">samtools_index</text>
</g>
<!-- 22&#45;&gt;23 -->
<g id="edge55" class="edge">
<title>22&#45;&gt;23</title>
<path fill="none" stroke="grey" stroke-width="2" d="M475,-364.7C475,-356.98 475,-347.71 475,-339.11"/>
<polygon fill="grey" stroke="grey" stroke-width="2" points="478.5,-339.1 475,-329.1 471.5,-339.1 478.5,-339.1"/>
</g>
<!-- 23&#45;&gt;6 -->
<g id="edge26" class="edge">
<title>23&#45;&gt;6</title>
<path fill="none" stroke="grey" stroke-width="2" d="M465.11,-292.7C460.51,-284.64 454.94,-274.89 449.85,-265.98"/>
<polygon fill="grey" stroke="grey" stroke-width="2" points="452.77,-264.05 444.77,-257.1 446.7,-267.52 452.77,-264.05"/>
</g>
<!-- 24&#45;&gt;10 -->
<g id="edge30" class="edge">
<title>24&#45;&gt;10</title>
<path fill="none" stroke="grey" stroke-width="2" d="M905.32,-146.32C888.9,-136.48 868.1,-124.01 850.4,-113.41"/>
<polygon fill="grey" stroke="grey" stroke-width="2" points="851.85,-110.2 841.47,-108.06 848.25,-116.2 851.85,-110.2"/>
</g>
<!-- 25 -->
<g id="node26" class="node">
<title>25</title>
<path fill="none" stroke="#56d8d0" stroke-width="2" stroke-dasharray="5,2" d="M918.5,-545C918.5,-545 873.5,-545 873.5,-545 867.5,-545 861.5,-539 861.5,-533 861.5,-533 861.5,-521 861.5,-521 861.5,-515 867.5,-509 873.5,-509 873.5,-509 918.5,-509 918.5,-509 924.5,-509 930.5,-515 930.5,-521 930.5,-521 930.5,-533 930.5,-533 930.5,-539 924.5,-545 918.5,-545"/>
<text text-anchor="middle" x="896" y="-524.5" font-family="sans" font-size="10.00">bwa_index</text>
</g>
<!-- 25&#45;&gt;10 -->
<g id="edge31" class="edge">
<title>25&#45;&gt;10</title>
<path fill="none" stroke="grey" stroke-width="2" d="M892.75,-508.95C880.07,-442.5 833.91,-200.56 818.24,-118.47"/>
<polygon fill="grey" stroke="grey" stroke-width="2" points="821.63,-117.57 816.32,-108.41 814.76,-118.89 821.63,-117.57"/>
</g>
<!-- 25&#45;&gt;11 -->
<g id="edge35" class="edge">
<title>25&#45;&gt;11</title>
<path fill="none" stroke="grey" stroke-width="2" d="M930.5,-522.03C1000.58,-512.45 1161.85,-482.51 1267,-401 1287.46,-385.14 1386.92,-248.78 1428.58,-191.1"/>
<polygon fill="grey" stroke="grey" stroke-width="2" points="1431.51,-193.02 1434.52,-182.86 1425.83,-188.92 1431.51,-193.02"/>
</g>
<!-- 25&#45;&gt;12 -->
<g id="edge40" class="edge">
<title>25&#45;&gt;12</title>
<path fill="none" stroke="grey" stroke-width="2" d="M877.85,-508.88C858.77,-490.91 827.86,-461.88 801,-437 748.84,-388.7 717.8,-391 683,-329 659.3,-286.78 652.91,-229.87 651.33,-195.53"/>
<polygon fill="grey" stroke="grey" stroke-width="2" points="654.82,-195.1 650.97,-185.22 647.82,-195.34 654.82,-195.1"/>
</g>
<!-- 25&#45;&gt;13 -->
<g id="edge45" class="edge">
<title>25&#45;&gt;13</title>
<path fill="none" stroke="grey" stroke-width="2" d="M905.98,-508.61C939.06,-451 1045.31,-265.97 1086.48,-194.27"/>
<polygon fill="grey" stroke="grey" stroke-width="2" points="1089.68,-195.73 1091.62,-185.31 1083.61,-192.24 1089.68,-195.73"/>
</g>
<!-- 25&#45;&gt;24 -->
<g id="edge57" class="edge">
<title>25&#45;&gt;24</title>
<path fill="none" stroke="grey" stroke-width="2" d="M896,-508.95C896,-482.29 896,-429.11 896,-384 896,-384 896,-384 896,-310 896,-267.77 911.37,-220.81 922.56,-192.22"/>
<polygon fill="grey" stroke="grey" stroke-width="2" points="925.82,-193.49 926.31,-182.91 919.33,-190.87 925.82,-193.49"/>
</g>
<!-- 28 -->
<g id="node29" class="node">
<title>28</title>
<path fill="none" stroke="#56d863" stroke-width="2" stroke-dasharray="5,2" d="M1076,-473C1076,-473 1012,-473 1012,-473 1006,-473 1000,-467 1000,-461 1000,-461 1000,-449 1000,-449 1000,-443 1006,-437 1012,-437 1012,-437 1076,-437 1076,-437 1082,-437 1088,-443 1088,-449 1088,-449 1088,-461 1088,-461 1088,-467 1082,-473 1076,-473"/>
<text text-anchor="middle" x="1044" y="-458" font-family="sans" font-size="10.00">bwa_mem</text>
<text text-anchor="middle" x="1044" y="-447" font-family="sans" font-size="10.00">sample: base1</text>
</g>
<!-- 25&#45;&gt;28 -->
<g id="edge60" class="edge">
<title>25&#45;&gt;28</title>
<path fill="none" stroke="grey" stroke-width="2" d="M930.7,-509.59C951.03,-499.97 976.95,-487.72 998.86,-477.35"/>
<polygon fill="grey" stroke="grey" stroke-width="2" points="1000.43,-480.48 1007.97,-473.04 997.44,-474.15 1000.43,-480.48"/>
</g>
<!-- 29 -->
<g id="node30" class="node">
<title>29</title>
<path fill="none" stroke="#56d863" stroke-width="2" stroke-dasharray="5,2" d="M780,-473C780,-473 704,-473 704,-473 698,-473 692,-467 692,-461 692,-461 692,-449 692,-449 692,-443 698,-437 704,-437 704,-437 780,-437 780,-437 786,-437 792,-443 792,-449 792,-449 792,-461 792,-461 792,-467 786,-473 780,-473"/>
<text text-anchor="middle" x="742" y="-458" font-family="sans" font-size="10.00">bwa_mem</text>
<text text-anchor="middle" x="742" y="-447" font-family="sans" font-size="10.00">sample: mutated</text>
</g>
<!-- 25&#45;&gt;29 -->
<g id="edge63" class="edge">
<title>25&#45;&gt;29</title>
<path fill="none" stroke="grey" stroke-width="2" d="M861.44,-510.29C840.01,-500.55 812.19,-487.91 788.8,-477.27"/>
<polygon fill="grey" stroke="grey" stroke-width="2" points="789.96,-473.96 779.41,-473 787.06,-480.33 789.96,-473.96"/>
</g>
<!-- 26 -->
<g id="node27" class="node">
<title>26</title>
<path fill="none" stroke="#d85656" stroke-width="2" stroke-dasharray="5,2" d="M698,-545C698,-545 630,-545 630,-545 624,-545 618,-539 618,-533 618,-533 618,-521 618,-521 618,-515 624,-509 630,-509 630,-509 698,-509 698,-509 704,-509 710,-515 710,-521 710,-521 710,-533 710,-533 710,-539 704,-545 698,-545"/>
<text text-anchor="middle" x="664" y="-524.5" font-family="sans" font-size="10.00">samtools_faidx</text>
</g>
<!-- 26&#45;&gt;10 -->
<g id="edge32" class="edge">
<title>26&#45;&gt;10</title>
<path fill="none" stroke="grey" stroke-width="2" d="M654.87,-508.88C649.99,-498.76 644.49,-485.51 642,-473 638.87,-457.31 638.41,-452.59 642,-437 671.69,-308.03 757.35,-172.12 794.95,-116.74"/>
<polygon fill="grey" stroke="grey" stroke-width="2" points="797.99,-118.48 800.76,-108.25 792.22,-114.52 797.99,-118.48"/>
</g>
<!-- 26&#45;&gt;11 -->
<g id="edge36" class="edge">
<title>26&#45;&gt;11</title>
<path fill="none" stroke="grey" stroke-width="2" d="M710.19,-511.78C773.19,-492.76 889.79,-458.92 991,-437 1088.69,-415.85 1125.03,-448.46 1213,-401 1308.51,-349.47 1298.82,-295.22 1378,-221 1389.85,-209.89 1403.66,-198.51 1415.81,-188.96"/>
<polygon fill="grey" stroke="grey" stroke-width="2" points="1418.16,-191.57 1423.9,-182.67 1413.86,-186.04 1418.16,-191.57"/>
</g>
<!-- 26&#45;&gt;12 -->
<g id="edge41" class="edge">
<title>26&#45;&gt;12</title>
<path fill="none" stroke="grey" stroke-width="2" d="M620.44,-508.96C603.74,-500.45 585.87,-488.58 574,-473 549.17,-440.41 550,-424.97 550,-384 550,-384 550,-384 550,-310 550,-261.81 588.2,-218.25 617.61,-191.84"/>
<polygon fill="grey" stroke="grey" stroke-width="2" points="620.01,-194.39 625.25,-185.18 615.41,-189.11 620.01,-194.39"/>
</g>
<!-- 26&#45;&gt;13 -->
<g id="edge46" class="edge">
<title>26&#45;&gt;13</title>
<path fill="none" stroke="grey" stroke-width="2" d="M663.87,-508.74C664.54,-489.6 668.11,-458.59 683,-437 772.73,-306.86 947.25,-224.51 1040.58,-187.8"/>
<polygon fill="grey" stroke="grey" stroke-width="2" points="1042.12,-190.95 1050.18,-184.07 1039.59,-184.43 1042.12,-190.95"/>
</g>
<!-- 26&#45;&gt;24 -->
<g id="edge58" class="edge">
<title>26&#45;&gt;24</title>
<path fill="none" stroke="grey" stroke-width="2" d="M655.97,-508.92C648.5,-490.48 639.92,-460.59 650,-437 663.75,-404.83 837.86,-249.85 906.47,-189.56"/>
<polygon fill="grey" stroke="grey" stroke-width="2" points="909.09,-191.92 914.3,-182.7 904.48,-186.66 909.09,-191.92"/>
</g>
<!-- 26&#45;&gt;28 -->
<g id="edge61" class="edge">
<title>26&#45;&gt;28</title>
<path fill="none" stroke="grey" stroke-width="2" d="M710.22,-517.49C780.68,-504.51 914.68,-479.82 989.69,-466"/>
<polygon fill="grey" stroke="grey" stroke-width="2" points="990.67,-469.38 999.87,-464.13 989.4,-462.5 990.67,-469.38"/>
</g>
<!-- 26&#45;&gt;29 -->
<g id="edge64" class="edge">
<title>26&#45;&gt;29</title>
<path fill="none" stroke="grey" stroke-width="2" d="M683.28,-508.7C692.92,-500.05 704.73,-489.45 715.23,-480.03"/>
<polygon fill="grey" stroke="grey" stroke-width="2" points="717.84,-482.39 722.94,-473.1 713.16,-477.18 717.84,-482.39"/>
</g>
<!-- 27 -->
<g id="node28" class="node">
<title>27</title>
<path fill="none" stroke="#d88d56" stroke-width="2" stroke-dasharray="5,2" d="M1173,-545C1173,-545 1135,-545 1135,-545 1129,-545 1123,-539 1123,-533 1123,-533 1123,-521 1123,-521 1123,-515 1129,-509 1135,-509 1135,-509 1173,-509 1173,-509 1179,-509 1185,-515 1185,-521 1185,-521 1185,-533 1185,-533 1185,-539 1179,-545 1173,-545"/>
<text text-anchor="middle" x="1154" y="-524.5" font-family="sans" font-size="10.00">gatk_dict</text>
</g>
<!-- 27&#45;&gt;10 -->
<g id="edge33" class="edge">
<title>27&#45;&gt;10</title>
<path fill="none" stroke="grey" stroke-width="2" d="M1158.64,-508.87C1162.76,-489.85 1166.29,-458.94 1153,-437 1135.49,-408.08 1107.65,-426.96 1086,-401 1009.13,-308.81 1089.57,-227.15 1003,-144 998.36,-139.54 933.66,-122.05 881.04,-108.36"/>
<polygon fill="grey" stroke="grey" stroke-width="2" points="881.59,-104.89 871.03,-105.77 879.83,-111.67 881.59,-104.89"/>
</g>
<!-- 27&#45;&gt;11 -->
<g id="edge37" class="edge">
<title>27&#45;&gt;11</title>
<path fill="none" stroke="grey" stroke-width="2" d="M1185.15,-522.97C1252.58,-514.53 1406,-484.31 1406,-384 1406,-384 1406,-384 1406,-310 1406,-267.55 1422.58,-220.65 1434.66,-192.13"/>
<polygon fill="grey" stroke="grey" stroke-width="2" points="1437.91,-193.41 1438.7,-182.84 1431.5,-190.61 1437.91,-193.41"/>
</g>
<!-- 27&#45;&gt;12 -->
<g id="edge42" class="edge">
<title>27&#45;&gt;12</title>
<path fill="none" stroke="grey" stroke-width="2" d="M1147.09,-508.89C1138.25,-489.01 1121.15,-456.46 1097,-437 1061.19,-408.15 1040.9,-422.01 1000,-401 876.11,-337.37 743.31,-238 683.49,-191.34"/>
<polygon fill="grey" stroke="grey" stroke-width="2" points="685.57,-188.52 675.54,-185.11 681.26,-194.04 685.57,-188.52"/>
</g>
<!-- 27&#45;&gt;13 -->
<g id="edge47" class="edge">
<title>27&#45;&gt;13</title>
<path fill="none" stroke="grey" stroke-width="2" d="M1176.2,-508.78C1197.02,-490.48 1222.66,-460.95 1206,-437 1179.74,-399.25 1136.29,-438.01 1109,-401 1063.88,-339.82 1081.11,-243.34 1093.94,-195.07"/>
<polygon fill="grey" stroke="grey" stroke-width="2" points="1097.37,-195.83 1096.67,-185.25 1090.62,-193.95 1097.37,-195.83"/>
</g>
<!-- 27&#45;&gt;24 -->
<g id="edge59" class="edge">
<title>27&#45;&gt;24</title>
<path fill="none" stroke="grey" stroke-width="2" d="M1153.84,-508.74C1152.74,-489.03 1148.05,-456.93 1130,-437 1099.69,-403.53 1067.61,-432.23 1035,-401 973.92,-342.49 947.86,-241 938.49,-192.64"/>
<polygon fill="grey" stroke="grey" stroke-width="2" points="941.9,-191.82 936.64,-182.62 935.01,-193.09 941.9,-191.82"/>
</g>
<!-- 27&#45;&gt;28 -->
<g id="edge62" class="edge">
<title>27&#45;&gt;28</title>
<path fill="none" stroke="grey" stroke-width="2" d="M1127.09,-508.88C1112.84,-499.81 1095.15,-488.55 1079.76,-478.76"/>
<polygon fill="grey" stroke="grey" stroke-width="2" points="1081.33,-475.61 1071.01,-473.19 1077.57,-481.51 1081.33,-475.61"/>
</g>
<!-- 27&#45;&gt;29 -->
<g id="edge65" class="edge">
<title>27&#45;&gt;29</title>
<path fill="none" stroke="grey" stroke-width="2" d="M1122.69,-520.68C1054.44,-509.08 891.22,-481.35 802.28,-466.24"/>
<polygon fill="grey" stroke="grey" stroke-width="2" points="802.78,-462.78 792.34,-464.55 801.61,-469.68 802.78,-462.78"/>
</g>
<!-- 28&#45;&gt;20 -->
<g id="edge52" class="edge">
<title>28&#45;&gt;20</title>
<path fill="none" stroke="grey" stroke-width="2" d="M1072.62,-436.88C1087.92,-427.72 1106.94,-416.34 1123.42,-406.48"/>
<polygon fill="grey" stroke="grey" stroke-width="2" points="1125.48,-409.33 1132.27,-401.19 1121.89,-403.32 1125.48,-409.33"/>
</g>
<!-- 29&#45;&gt;22 -->
<g id="edge54" class="edge">
<title>29&#45;&gt;22</title>
<path fill="none" stroke="grey" stroke-width="2" d="M691.78,-440.83C645.1,-428.6 575.8,-410.43 528.19,-397.94"/>
<polygon fill="grey" stroke="grey" stroke-width="2" points="528.93,-394.52 518.37,-395.37 527.16,-401.29 528.93,-394.52"/>
</g>
</g>
</svg>
