<?xml version="1.0" encoding="UTF-8" standalone="no"?>
<!DOCTYPE svg PUBLIC "-//W3C//DTD SVG 1.1//EN"
 "http://www.w3.org/Graphics/SVG/1.1/DTD/svg11.dtd">
<!-- Generated by graphviz version 2.43.0 (0)
 -->
<!-- Title: snakemake_dag Pages: 1 -->
<svg width="2340pt" height="924pt"
 viewBox="0.00 0.00 2340.00 924.00" xmlns="http://www.w3.org/2000/svg" xmlns:xlink="http://www.w3.org/1999/xlink">
<g id="graph0" class="graph" transform="scale(1 1) rotate(0) translate(4 920)">
<title>snakemake_dag</title>
<polygon fill="white" stroke="transparent" points="-4,4 -4,-920 2336,-920 2336,4 -4,4"/>
<!-- 0 -->
<g id="node1" class="node">
<title>0</title>
<path fill="none" stroke="#8fd856" stroke-width="2" d="M837,-36C837,-36 807,-36 807,-36 801,-36 795,-30 795,-24 795,-24 795,-12 795,-12 795,-6 801,0 807,0 807,0 837,0 837,0 843,0 849,-6 849,-12 849,-12 849,-24 849,-24 849,-30 843,-36 837,-36"/>
<text text-anchor="middle" x="822" y="-15.5" font-family="sans" font-size="10.00">all</text>
</g>
<!-- 1 -->
<g id="node2" class="node">
<title>1</title>
<path fill="none" stroke="#56d892" stroke-width="2" d="M383,-108C383,-108 291,-108 291,-108 285,-108 279,-102 279,-96 279,-96 279,-84 279,-84 279,-78 285,-72 291,-72 291,-72 383,-72 383,-72 389,-72 395,-78 395,-84 395,-84 395,-96 395,-96 395,-102 389,-108 383,-108"/>
<text text-anchor="middle" x="337" y="-87.5" font-family="sans" font-size="10.00">gatk_genotypegvcfs</text>
</g>
<!-- 1&#45;&gt;0 -->
<g id="edge1" class="edge">
<title>1&#45;&gt;0</title>
<path fill="none" stroke="grey" stroke-width="2" d="M395.02,-80.63C495.81,-66.08 700.5,-36.54 784.62,-24.39"/>
<polygon fill="grey" stroke="grey" stroke-width="2" points="785.34,-27.83 794.74,-22.93 784.34,-20.9 785.34,-27.83"/>
</g>
<!-- 2 -->
<g id="node3" class="node">
<title>2</title>
<path fill="none" stroke="#ced856" stroke-width="2" d="M819,-268C819,-268 745,-268 745,-268 739,-268 733,-262 733,-256 733,-256 733,-228 733,-228 733,-222 739,-216 745,-216 745,-216 819,-216 819,-216 825,-216 831,-222 831,-228 831,-228 831,-256 831,-256 831,-262 825,-268 819,-268"/>
<text text-anchor="middle" x="782" y="-256" font-family="sans" font-size="10.00">strelka2</text>
<text text-anchor="middle" x="782" y="-245" font-family="sans" font-size="10.00">base: T3</text>
<text text-anchor="middle" x="782" y="-234" font-family="sans" font-size="10.00">tissue: cambium</text>
<text text-anchor="middle" x="782" y="-223" font-family="sans" font-size="10.00">tumor: T2</text>
</g>
<!-- 2&#45;&gt;0 -->
<g id="edge2" class="edge">
<title>2&#45;&gt;0</title>
<path fill="none" stroke="grey" stroke-width="2" d="M786.51,-215.97C794.08,-173.94 809.29,-89.56 817.11,-46.16"/>
<polygon fill="grey" stroke="grey" stroke-width="2" points="820.6,-46.52 818.93,-36.06 813.71,-45.28 820.6,-46.52"/>
</g>
<!-- 3 -->
<g id="node4" class="node">
<title>3</title>
<path fill="none" stroke="#ced856" stroke-width="2" d="M940.5,-268C940.5,-268 893.5,-268 893.5,-268 887.5,-268 881.5,-262 881.5,-256 881.5,-256 881.5,-228 881.5,-228 881.5,-222 887.5,-216 893.5,-216 893.5,-216 940.5,-216 940.5,-216 946.5,-216 952.5,-222 952.5,-228 952.5,-228 952.5,-256 952.5,-256 952.5,-262 946.5,-268 940.5,-268"/>
<text text-anchor="middle" x="917" y="-256" font-family="sans" font-size="10.00">strelka2</text>
<text text-anchor="middle" x="917" y="-245" font-family="sans" font-size="10.00">base: T2</text>
<text text-anchor="middle" x="917" y="-234" font-family="sans" font-size="10.00">tissue: leaf</text>
<text text-anchor="middle" x="917" y="-223" font-family="sans" font-size="10.00">tumor: DS2</text>
</g>
<!-- 3&#45;&gt;0 -->
<g id="edge3" class="edge">
<title>3&#45;&gt;0</title>
<path fill="none" stroke="grey" stroke-width="2" d="M906.29,-215.97C888.19,-173.67 851.74,-88.49 833.27,-45.33"/>
<polygon fill="grey" stroke="grey" stroke-width="2" points="836.45,-43.87 829.3,-36.06 830.02,-46.63 836.45,-43.87"/>
</g>
<!-- 4 -->
<g id="node5" class="node">
<title>4</title>
<path fill="none" stroke="#59d856" stroke-width="2" d="M1804,-180C1804,-180 1774,-180 1774,-180 1768,-180 1762,-174 1762,-168 1762,-168 1762,-156 1762,-156 1762,-150 1768,-144 1774,-144 1774,-144 1804,-144 1804,-144 1810,-144 1816,-150 1816,-156 1816,-156 1816,-168 1816,-168 1816,-174 1810,-180 1804,-180"/>
<text text-anchor="middle" x="1789" y="-159.5" font-family="sans" font-size="10.00">multiqc</text>
</g>
<!-- 4&#45;&gt;0 -->
<g id="edge4" class="edge">
<title>4&#45;&gt;0</title>
<path fill="none" stroke="grey" stroke-width="2" d="M1761.87,-157.02C1625.68,-137.02 1016.83,-47.61 859.3,-24.48"/>
<polygon fill="grey" stroke="grey" stroke-width="2" points="859.57,-20.98 849.17,-22.99 858.56,-27.91 859.57,-20.98"/>
</g>
<!-- 5 -->
<g id="node6" class="node">
<title>5</title>
<path fill="none" stroke="#68d856" stroke-width="2" d="M1319,-916C1319,-916 1263,-916 1263,-916 1257,-916 1251,-910 1251,-904 1251,-904 1251,-892 1251,-892 1251,-886 1257,-880 1263,-880 1263,-880 1319,-880 1319,-880 1325,-880 1331,-886 1331,-892 1331,-892 1331,-904 1331,-904 1331,-910 1325,-916 1319,-916"/>
<text text-anchor="middle" x="1291" y="-895.5" font-family="sans" font-size="10.00">cp_reference</text>
</g>
<!-- 5&#45;&gt;1 -->
<g id="edge5" class="edge">
<title>5&#45;&gt;1</title>
<path fill="none" stroke="grey" stroke-width="2" d="M1250.98,-896.63C1083.24,-894.85 436.24,-885.37 237,-844 126.83,-821.12 0,-867.52 0,-755 0,-755 0,-755 0,-241 0,-124.56 169.99,-97.86 268.5,-92.16"/>
<polygon fill="grey" stroke="grey" stroke-width="2" points="268.88,-95.64 278.68,-91.63 268.52,-88.65 268.88,-95.64"/>
</g>
<!-- 5&#45;&gt;2 -->
<g id="edge7" class="edge">
<title>5&#45;&gt;2</title>
<path fill="none" stroke="grey" stroke-width="2" d="M1250.99,-896.39C1114.27,-893.23 674,-873.85 674,-755 674,-755 674,-755 674,-393 674,-345.22 710.53,-302.28 741.1,-274.72"/>
<polygon fill="grey" stroke="grey" stroke-width="2" points="743.5,-277.26 748.72,-268.04 738.89,-272 743.5,-277.26"/>
</g>
<!-- 5&#45;&gt;3 -->
<g id="edge12" class="edge">
<title>5&#45;&gt;3</title>
<path fill="none" stroke="grey" stroke-width="2" d="M1250.69,-894.32C1131.33,-885.28 788,-850.96 788,-755 788,-755 788,-755 788,-393 788,-352.55 782.93,-336.51 807,-304 823.03,-282.35 849.16,-267.4 871.93,-257.72"/>
<polygon fill="grey" stroke="grey" stroke-width="2" points="873.47,-260.87 881.44,-253.89 870.86,-254.38 873.47,-260.87"/>
</g>
<!-- 7 -->
<g id="node8" class="node">
<title>7</title>
<path fill="none" stroke="#56d0d8" stroke-width="2" d="M1002.5,-412C1002.5,-412 915.5,-412 915.5,-412 909.5,-412 903.5,-406 903.5,-400 903.5,-400 903.5,-388 903.5,-388 903.5,-382 909.5,-376 915.5,-376 915.5,-376 1002.5,-376 1002.5,-376 1008.5,-376 1014.5,-382 1014.5,-388 1014.5,-388 1014.5,-400 1014.5,-400 1014.5,-406 1008.5,-412 1002.5,-412"/>
<text text-anchor="middle" x="959" y="-391.5" font-family="sans" font-size="10.00">samtools_view_md</text>
</g>
<!-- 5&#45;&gt;7 -->
<g id="edge36" class="edge">
<title>5&#45;&gt;7</title>
<path fill="none" stroke="grey" stroke-width="2" d="M1269.65,-879.78C1221.38,-838.76 1108,-729.78 1108,-611 1108,-611 1108,-611 1108,-537 1108,-480.62 1051.4,-439.8 1007.97,-416.77"/>
<polygon fill="grey" stroke="grey" stroke-width="2" points="1009.42,-413.58 998.93,-412.13 1006.23,-419.81 1009.42,-413.58"/>
</g>
<!-- 8 -->
<g id="node9" class="node">
<title>8</title>
<path fill="none" stroke="#56d0d8" stroke-width="2" d="M1302.5,-412C1302.5,-412 1215.5,-412 1215.5,-412 1209.5,-412 1203.5,-406 1203.5,-400 1203.5,-400 1203.5,-388 1203.5,-388 1203.5,-382 1209.5,-376 1215.5,-376 1215.5,-376 1302.5,-376 1302.5,-376 1308.5,-376 1314.5,-382 1314.5,-388 1314.5,-388 1314.5,-400 1314.5,-400 1314.5,-406 1308.5,-412 1302.5,-412"/>
<text text-anchor="middle" x="1259" y="-391.5" font-family="sans" font-size="10.00">samtools_view_md</text>
</g>
<!-- 5&#45;&gt;8 -->
<g id="edge38" class="edge">
<title>5&#45;&gt;8</title>
<path fill="none" stroke="grey" stroke-width="2" d="M1289.9,-879.73C1288.64,-849.33 1288.99,-784.87 1310,-736 1318.23,-716.87 1332.91,-719.58 1340,-700 1378.17,-594.57 1381.02,-546.8 1328,-448 1321.57,-436.02 1311.12,-425.9 1300.29,-417.83"/>
<polygon fill="grey" stroke="grey" stroke-width="2" points="1302.19,-414.89 1291.98,-412.06 1298.19,-420.64 1302.19,-414.89"/>
</g>
<!-- 11 -->
<g id="node12" class="node">
<title>11</title>
<path fill="none" stroke="#56d0d8" stroke-width="2" d="M1929.5,-412C1929.5,-412 1842.5,-412 1842.5,-412 1836.5,-412 1830.5,-406 1830.5,-400 1830.5,-400 1830.5,-388 1830.5,-388 1830.5,-382 1836.5,-376 1842.5,-376 1842.5,-376 1929.5,-376 1929.5,-376 1935.5,-376 1941.5,-382 1941.5,-388 1941.5,-388 1941.5,-400 1941.5,-400 1941.5,-406 1935.5,-412 1929.5,-412"/>
<text text-anchor="middle" x="1886" y="-391.5" font-family="sans" font-size="10.00">samtools_view_md</text>
</g>
<!-- 5&#45;&gt;11 -->
<g id="edge42" class="edge">
<title>5&#45;&gt;11</title>
<path fill="none" stroke="grey" stroke-width="2" d="M1331.11,-895.93C1465.48,-892.05 1894.25,-877.16 1946,-844 1984.2,-819.52 1996,-800.37 1996,-755 1996,-755 1996,-755 1996,-537 1996,-486.76 1952.44,-443.52 1920.14,-418.36"/>
<polygon fill="grey" stroke="grey" stroke-width="2" points="1921.88,-415.29 1911.79,-412.06 1917.66,-420.88 1921.88,-415.29"/>
</g>
<!-- 13 -->
<g id="node14" class="node">
<title>13</title>
<path fill="none" stroke="#d85656" stroke-width="2" d="M2320,-628C2320,-628 2290,-628 2290,-628 2284,-628 2278,-622 2278,-616 2278,-616 2278,-604 2278,-604 2278,-598 2284,-592 2290,-592 2290,-592 2320,-592 2320,-592 2326,-592 2332,-598 2332,-604 2332,-604 2332,-616 2332,-616 2332,-622 2326,-628 2320,-628"/>
<text text-anchor="middle" x="2305" y="-607.5" font-family="sans" font-size="10.00">busco</text>
</g>
<!-- 5&#45;&gt;13 -->
<g id="edge44" class="edge">
<title>5&#45;&gt;13</title>
<path fill="none" stroke="grey" stroke-width="2" d="M1331.09,-897.26C1505.23,-898.08 2190.85,-897.85 2269,-844 2334.14,-799.12 2321.44,-689.22 2311.31,-638.04"/>
<polygon fill="grey" stroke="grey" stroke-width="2" points="2314.7,-637.13 2309.22,-628.06 2307.84,-638.56 2314.7,-637.13"/>
</g>
<!-- 14 -->
<g id="node15" class="node">
<title>14</title>
<path fill="none" stroke="#56d8a9" stroke-width="2" d="M2253.5,-700C2253.5,-700 2196.5,-700 2196.5,-700 2190.5,-700 2184.5,-694 2184.5,-688 2184.5,-688 2184.5,-676 2184.5,-676 2184.5,-670 2190.5,-664 2196.5,-664 2196.5,-664 2253.5,-664 2253.5,-664 2259.5,-664 2265.5,-670 2265.5,-676 2265.5,-676 2265.5,-688 2265.5,-688 2265.5,-694 2259.5,-700 2253.5,-700"/>
<text text-anchor="middle" x="2225" y="-679.5" font-family="sans" font-size="10.00">bedtools_nuc</text>
</g>
<!-- 5&#45;&gt;14 -->
<g id="edge45" class="edge">
<title>5&#45;&gt;14</title>
<path fill="none" stroke="grey" stroke-width="2" d="M1331.08,-896.87C1486.36,-896.04 2042.91,-889.84 2106,-844 2147.79,-813.63 2116.9,-776.48 2149,-736 2158.42,-724.12 2171.2,-713.8 2183.6,-705.51"/>
<polygon fill="grey" stroke="grey" stroke-width="2" points="2185.53,-708.43 2192.07,-700.1 2181.76,-702.53 2185.53,-708.43"/>
</g>
<!-- 24 -->
<g id="node25" class="node">
<title>24</title>
<path fill="none" stroke="#56d87b" stroke-width="2" d="M1122.5,-260C1122.5,-260 1081.5,-260 1081.5,-260 1075.5,-260 1069.5,-254 1069.5,-248 1069.5,-248 1069.5,-236 1069.5,-236 1069.5,-230 1075.5,-224 1081.5,-224 1081.5,-224 1122.5,-224 1122.5,-224 1128.5,-224 1134.5,-230 1134.5,-236 1134.5,-236 1134.5,-248 1134.5,-248 1134.5,-254 1128.5,-260 1122.5,-260"/>
<text text-anchor="middle" x="1102" y="-239.5" font-family="sans" font-size="10.00">mosdepth</text>
</g>
<!-- 5&#45;&gt;24 -->
<g id="edge50" class="edge">
<title>5&#45;&gt;24</title>
<path fill="none" stroke="grey" stroke-width="2" d="M1331.2,-895.53C1367.76,-891.81 1419.86,-880.03 1446,-844 1516.48,-746.85 1521.45,-387.26 1435,-304 1394.13,-264.64 1225.48,-249.95 1145.05,-245.11"/>
<polygon fill="grey" stroke="grey" stroke-width="2" points="1144.96,-241.6 1134.77,-244.52 1144.55,-248.59 1144.96,-241.6"/>
</g>
<!-- 25 -->
<g id="node26" class="node">
<title>25</title>
<path fill="none" stroke="#56d87b" stroke-width="2" d="M1561.5,-260C1561.5,-260 1520.5,-260 1520.5,-260 1514.5,-260 1508.5,-254 1508.5,-248 1508.5,-248 1508.5,-236 1508.5,-236 1508.5,-230 1514.5,-224 1520.5,-224 1520.5,-224 1561.5,-224 1561.5,-224 1567.5,-224 1573.5,-230 1573.5,-236 1573.5,-236 1573.5,-248 1573.5,-248 1573.5,-254 1567.5,-260 1561.5,-260"/>
<text text-anchor="middle" x="1541" y="-239.5" font-family="sans" font-size="10.00">mosdepth</text>
</g>
<!-- 5&#45;&gt;25 -->
<g id="edge54" class="edge">
<title>5&#45;&gt;25</title>
<path fill="none" stroke="grey" stroke-width="2" d="M1331.15,-894.19C1400.82,-888.57 1540.33,-873.86 1578,-844 1611.85,-817.17 1617,-798.19 1617,-755 1617,-755 1617,-755 1617,-393 1617,-344.64 1585.18,-296.06 1562.72,-267.79"/>
<polygon fill="grey" stroke="grey" stroke-width="2" points="1565.42,-265.57 1556.38,-260.04 1560,-269.99 1565.42,-265.57"/>
</g>
<!-- 26 -->
<g id="node27" class="node">
<title>26</title>
<path fill="none" stroke="#56d87b" stroke-width="2" d="M2071.5,-260C2071.5,-260 2030.5,-260 2030.5,-260 2024.5,-260 2018.5,-254 2018.5,-248 2018.5,-248 2018.5,-236 2018.5,-236 2018.5,-230 2024.5,-224 2030.5,-224 2030.5,-224 2071.5,-224 2071.5,-224 2077.5,-224 2083.5,-230 2083.5,-236 2083.5,-236 2083.5,-248 2083.5,-248 2083.5,-254 2077.5,-260 2071.5,-260"/>
<text text-anchor="middle" x="2051" y="-239.5" font-family="sans" font-size="10.00">mosdepth</text>
</g>
<!-- 5&#45;&gt;26 -->
<g id="edge58" class="edge">
<title>5&#45;&gt;26</title>
<path fill="none" stroke="grey" stroke-width="2" d="M1331.33,-896.32C1470.72,-893.64 1926.47,-882.01 1979,-844 2071.21,-777.27 2031.04,-894.56 2070,-340 2071.12,-324.04 2072.41,-319.82 2070,-304 2068.24,-292.45 2064.71,-280.08 2061.17,-269.51"/>
<polygon fill="grey" stroke="grey" stroke-width="2" points="2064.45,-268.29 2057.83,-260.03 2057.85,-270.62 2064.45,-268.29"/>
</g>
<!-- 27 -->
<g id="node28" class="node">
<title>27</title>
<path fill="none" stroke="#56d8b9" stroke-width="2" d="M1778.5,-260C1778.5,-260 1695.5,-260 1695.5,-260 1689.5,-260 1683.5,-254 1683.5,-248 1683.5,-248 1683.5,-236 1683.5,-236 1683.5,-230 1689.5,-224 1695.5,-224 1695.5,-224 1778.5,-224 1778.5,-224 1784.5,-224 1790.5,-230 1790.5,-236 1790.5,-236 1790.5,-248 1790.5,-248 1790.5,-254 1784.5,-260 1778.5,-260"/>
<text text-anchor="middle" x="1737" y="-239.5" font-family="sans" font-size="10.00">mosdepth_regions</text>
</g>
<!-- 5&#45;&gt;27 -->
<g id="edge62" class="edge">
<title>5&#45;&gt;27</title>
<path fill="none" stroke="grey" stroke-width="2" d="M1331.01,-896.05C1392.58,-893.33 1513.27,-883.01 1607,-844 1669.63,-817.94 1731,-822.84 1731,-755 1731,-755 1731,-755 1731,-393 1731,-350.06 1733.49,-300.26 1735.26,-270.21"/>
<polygon fill="grey" stroke="grey" stroke-width="2" points="1738.76,-270.28 1735.87,-260.09 1731.77,-269.86 1738.76,-270.28"/>
</g>
<!-- 31 -->
<g id="node32" class="node">
<title>31</title>
<path fill="none" stroke="#d8a456" stroke-width="2" d="M1006.5,-484C1006.5,-484 911.5,-484 911.5,-484 905.5,-484 899.5,-478 899.5,-472 899.5,-472 899.5,-460 899.5,-460 899.5,-454 905.5,-448 911.5,-448 911.5,-448 1006.5,-448 1006.5,-448 1012.5,-448 1018.5,-454 1018.5,-460 1018.5,-460 1018.5,-472 1018.5,-472 1018.5,-478 1012.5,-484 1006.5,-484"/>
<text text-anchor="middle" x="959" y="-463.5" font-family="sans" font-size="10.00">gatk_markduplicates</text>
</g>
<!-- 5&#45;&gt;31 -->
<g id="edge70" class="edge">
<title>5&#45;&gt;31</title>
<path fill="none" stroke="grey" stroke-width="2" d="M1250.94,-895.63C1196.31,-892.35 1096.62,-881.29 1021,-844 967.34,-817.54 920,-814.83 920,-755 920,-755 920,-755 920,-609 920,-567.56 935.64,-521.67 947.11,-493.58"/>
<polygon fill="grey" stroke="grey" stroke-width="2" points="950.45,-494.65 951.11,-484.07 944,-491.93 950.45,-494.65"/>
</g>
<!-- 32 -->
<g id="node33" class="node">
<title>32</title>
<path fill="none" stroke="#d8a456" stroke-width="2" d="M1306.5,-484C1306.5,-484 1211.5,-484 1211.5,-484 1205.5,-484 1199.5,-478 1199.5,-472 1199.5,-472 1199.5,-460 1199.5,-460 1199.5,-454 1205.5,-448 1211.5,-448 1211.5,-448 1306.5,-448 1306.5,-448 1312.5,-448 1318.5,-454 1318.5,-460 1318.5,-460 1318.5,-472 1318.5,-472 1318.5,-478 1312.5,-484 1306.5,-484"/>
<text text-anchor="middle" x="1259" y="-463.5" font-family="sans" font-size="10.00">gatk_markduplicates</text>
</g>
<!-- 5&#45;&gt;32 -->
<g id="edge73" class="edge">
<title>5&#45;&gt;32</title>
<path fill="none" stroke="grey" stroke-width="2" d="M1283.03,-879.57C1278.54,-869.34 1273.04,-856.09 1269,-844 1227.38,-719.45 1216.03,-686.67 1203,-556 1201.41,-540.08 1196.67,-534.7 1203,-520 1207.79,-508.87 1216.19,-498.99 1225.05,-490.86"/>
<polygon fill="grey" stroke="grey" stroke-width="2" points="1227.54,-493.34 1232.88,-484.18 1223,-488.01 1227.54,-493.34"/>
</g>
<!-- 33 -->
<g id="node34" class="node">
<title>33</title>
<path fill="none" stroke="#d8a456" stroke-width="2" d="M1917.5,-484C1917.5,-484 1822.5,-484 1822.5,-484 1816.5,-484 1810.5,-478 1810.5,-472 1810.5,-472 1810.5,-460 1810.5,-460 1810.5,-454 1816.5,-448 1822.5,-448 1822.5,-448 1917.5,-448 1917.5,-448 1923.5,-448 1929.5,-454 1929.5,-460 1929.5,-460 1929.5,-472 1929.5,-472 1929.5,-478 1923.5,-484 1917.5,-484"/>
<text text-anchor="middle" x="1870" y="-463.5" font-family="sans" font-size="10.00">gatk_markduplicates</text>
</g>
<!-- 5&#45;&gt;33 -->
<g id="edge76" class="edge">
<title>5&#45;&gt;33</title>
<path fill="none" stroke="grey" stroke-width="2" d="M1331.26,-895.94C1462.04,-892.17 1869.28,-877.81 1917,-844 1952.38,-818.93 1957,-798.37 1957,-755 1957,-755 1957,-755 1957,-609 1957,-562.16 1922.16,-517.74 1896.57,-491.43"/>
<polygon fill="grey" stroke="grey" stroke-width="2" points="1898.86,-488.77 1889.31,-484.18 1893.92,-493.72 1898.86,-488.77"/>
</g>
<!-- 35 -->
<g id="node36" class="node">
<title>35</title>
<path fill="none" stroke="#d89556" stroke-width="2" d="M1556.5,-844C1556.5,-844 1511.5,-844 1511.5,-844 1505.5,-844 1499.5,-838 1499.5,-832 1499.5,-832 1499.5,-820 1499.5,-820 1499.5,-814 1505.5,-808 1511.5,-808 1511.5,-808 1556.5,-808 1556.5,-808 1562.5,-808 1568.5,-814 1568.5,-820 1568.5,-820 1568.5,-832 1568.5,-832 1568.5,-838 1562.5,-844 1556.5,-844"/>
<text text-anchor="middle" x="1534" y="-823.5" font-family="sans" font-size="10.00">bwa_index</text>
</g>
<!-- 5&#45;&gt;35 -->
<g id="edge79" class="edge">
<title>5&#45;&gt;35</title>
<path fill="none" stroke="grey" stroke-width="2" d="M1331.06,-886.02C1369.18,-875.5 1428.1,-859.04 1479,-844 1482.51,-842.96 1486.15,-841.87 1489.8,-840.77"/>
<polygon fill="grey" stroke="grey" stroke-width="2" points="1490.88,-844.1 1499.42,-837.83 1488.83,-837.4 1490.88,-844.1"/>
</g>
<!-- 36 -->
<g id="node37" class="node">
<title>36</title>
<path fill="none" stroke="#56a9d8" stroke-width="2" d="M210,-340C210,-340 40,-340 40,-340 34,-340 28,-334 28,-328 28,-328 28,-316 28,-316 28,-310 34,-304 40,-304 40,-304 210,-304 210,-304 216,-304 222,-310 222,-316 222,-316 222,-328 222,-328 222,-334 216,-340 210,-340"/>
<text text-anchor="middle" x="125" y="-325" font-family="sans" font-size="10.00">gatk_haplotypecaller</text>
<text text-anchor="middle" x="125" y="-314" font-family="sans" font-size="10.00">interval: 0000&#45;scattered.interval_list</text>
</g>
<!-- 5&#45;&gt;36 -->
<g id="edge80" class="edge">
<title>5&#45;&gt;36</title>
<path fill="none" stroke="grey" stroke-width="2" d="M1250.8,-896.8C1098.72,-895.72 558.96,-888.72 394,-844 309.78,-821.17 219,-842.26 219,-755 219,-755 219,-755 219,-465 219,-417.17 181.46,-373.08 153.82,-347.11"/>
<polygon fill="grey" stroke="grey" stroke-width="2" points="156.08,-344.42 146.33,-340.27 151.36,-349.6 156.08,-344.42"/>
</g>
<!-- 37 -->
<g id="node38" class="node">
<title>37</title>
<path fill="none" stroke="#56a9d8" stroke-width="2" d="M422,-340C422,-340 252,-340 252,-340 246,-340 240,-334 240,-328 240,-328 240,-316 240,-316 240,-310 246,-304 252,-304 252,-304 422,-304 422,-304 428,-304 434,-310 434,-316 434,-316 434,-328 434,-328 434,-334 428,-340 422,-340"/>
<text text-anchor="middle" x="337" y="-325" font-family="sans" font-size="10.00">gatk_haplotypecaller</text>
<text text-anchor="middle" x="337" y="-314" font-family="sans" font-size="10.00">interval: 0000&#45;scattered.interval_list</text>
</g>
<!-- 5&#45;&gt;37 -->
<g id="edge83" class="edge">
<title>5&#45;&gt;37</title>
<path fill="none" stroke="grey" stroke-width="2" d="M1250.67,-897.58C1121.87,-898.84 722.17,-898.21 607,-844 557.23,-820.57 521,-810.01 521,-755 521,-755 521,-755 521,-465 521,-403.43 455.63,-364.81 402.82,-343.65"/>
<polygon fill="grey" stroke="grey" stroke-width="2" points="404.05,-340.38 393.46,-340.03 401.52,-346.9 404.05,-340.38"/>
</g>
<!-- 38 -->
<g id="node39" class="node">
<title>38</title>
<path fill="none" stroke="#56a9d8" stroke-width="2" d="M634,-340C634,-340 464,-340 464,-340 458,-340 452,-334 452,-328 452,-328 452,-316 452,-316 452,-310 458,-304 464,-304 464,-304 634,-304 634,-304 640,-304 646,-310 646,-316 646,-316 646,-328 646,-328 646,-334 640,-340 634,-340"/>
<text text-anchor="middle" x="549" y="-325" font-family="sans" font-size="10.00">gatk_haplotypecaller</text>
<text text-anchor="middle" x="549" y="-314" font-family="sans" font-size="10.00">interval: 0000&#45;scattered.interval_list</text>
</g>
<!-- 5&#45;&gt;38 -->
<g id="edge86" class="edge">
<title>5&#45;&gt;38</title>
<path fill="none" stroke="grey" stroke-width="2" d="M1250.7,-895.52C1119.73,-890.45 711.6,-872.5 660,-844 616.66,-820.06 593,-804.51 593,-755 593,-755 593,-755 593,-465 593,-423.21 575.4,-377.48 562.46,-349.51"/>
<polygon fill="grey" stroke="grey" stroke-width="2" points="565.58,-347.92 558.12,-340.39 559.26,-350.93 565.58,-347.92"/>
</g>
<!-- 45 -->
<g id="node46" class="node">
<title>45</title>
<path fill="none" stroke="#5692d8" stroke-width="2" d="M2248,-844C2248,-844 2180,-844 2180,-844 2174,-844 2168,-838 2168,-832 2168,-832 2168,-820 2168,-820 2168,-814 2174,-808 2180,-808 2180,-808 2248,-808 2248,-808 2254,-808 2260,-814 2260,-820 2260,-820 2260,-832 2260,-832 2260,-838 2254,-844 2248,-844"/>
<text text-anchor="middle" x="2214" y="-823.5" font-family="sans" font-size="10.00">samtools_faidx</text>
</g>
<!-- 5&#45;&gt;45 -->
<g id="edge95" class="edge">
<title>5&#45;&gt;45</title>
<path fill="none" stroke="grey" stroke-width="2" d="M1331.24,-897.01C1453.9,-896.5 1833.72,-890.94 2144,-844 2148.5,-843.32 2153.14,-842.49 2157.79,-841.56"/>
<polygon fill="grey" stroke="grey" stroke-width="2" points="2158.86,-844.91 2167.91,-839.41 2157.41,-838.06 2158.86,-844.91"/>
</g>
<!-- 46 -->
<g id="node47" class="node">
<title>46</title>
<path fill="none" stroke="#56d8d0" stroke-width="2" d="M373,-412C373,-412 335,-412 335,-412 329,-412 323,-406 323,-400 323,-400 323,-388 323,-388 323,-382 329,-376 335,-376 335,-376 373,-376 373,-376 379,-376 385,-382 385,-388 385,-388 385,-400 385,-400 385,-406 379,-412 373,-412"/>
<text text-anchor="middle" x="354" y="-391.5" font-family="sans" font-size="10.00">gatk_dict</text>
</g>
<!-- 5&#45;&gt;46 -->
<g id="edge96" class="edge">
<title>5&#45;&gt;46</title>
<path fill="none" stroke="grey" stroke-width="2" d="M1250.76,-896.97C1110.91,-896.47 646.94,-891.18 507,-844 438.9,-821.04 372,-826.87 372,-755 372,-755 372,-755 372,-537 372,-496.9 364.85,-450.92 359.56,-422.42"/>
<polygon fill="grey" stroke="grey" stroke-width="2" points="362.96,-421.56 357.64,-412.4 356.08,-422.88 362.96,-421.56"/>
</g>
<!-- 47 -->
<g id="node48" class="node">
<title>47</title>
<path fill="none" stroke="#566bd8" stroke-width="2" d="M1051,-700C1051,-700 985,-700 985,-700 979,-700 973,-694 973,-688 973,-688 973,-676 973,-676 973,-670 979,-664 985,-664 985,-664 1051,-664 1051,-664 1057,-664 1063,-670 1063,-676 1063,-676 1063,-688 1063,-688 1063,-694 1057,-700 1051,-700"/>
<text text-anchor="middle" x="1018" y="-679.5" font-family="sans" font-size="10.00">samtools_view</text>
</g>
<!-- 5&#45;&gt;47 -->
<g id="edge98" class="edge">
<title>5&#45;&gt;47</title>
<path fill="none" stroke="grey" stroke-width="2" d="M1251,-893.26C1189.77,-886.73 1076.87,-871.29 1048,-844 1011.67,-809.66 1011.09,-746.55 1014.29,-710.39"/>
<polygon fill="grey" stroke="grey" stroke-width="2" points="1017.81,-710.4 1015.37,-700.09 1010.85,-709.67 1017.81,-710.4"/>
</g>
<!-- 48 -->
<g id="node49" class="node">
<title>48</title>
<path fill="none" stroke="#566bd8" stroke-width="2" d="M1319,-700C1319,-700 1253,-700 1253,-700 1247,-700 1241,-694 1241,-688 1241,-688 1241,-676 1241,-676 1241,-670 1247,-664 1253,-664 1253,-664 1319,-664 1319,-664 1325,-664 1331,-670 1331,-676 1331,-676 1331,-688 1331,-688 1331,-694 1325,-700 1319,-700"/>
<text text-anchor="middle" x="1286" y="-679.5" font-family="sans" font-size="10.00">samtools_view</text>
</g>
<!-- 5&#45;&gt;48 -->
<g id="edge100" class="edge">
<title>5&#45;&gt;48</title>
<path fill="none" stroke="grey" stroke-width="2" d="M1285.18,-879.56C1282.07,-869.33 1278.57,-856.08 1277,-844 1270.82,-796.4 1272.97,-783.83 1277,-736 1277.72,-727.5 1279.07,-718.31 1280.51,-710.01"/>
<polygon fill="grey" stroke="grey" stroke-width="2" points="1283.97,-710.56 1282.35,-700.09 1277.09,-709.29 1283.97,-710.56"/>
</g>
<!-- 49 -->
<g id="node50" class="node">
<title>49</title>
<path fill="none" stroke="#566bd8" stroke-width="2" d="M1845,-700C1845,-700 1779,-700 1779,-700 1773,-700 1767,-694 1767,-688 1767,-688 1767,-676 1767,-676 1767,-670 1773,-664 1779,-664 1779,-664 1845,-664 1845,-664 1851,-664 1857,-670 1857,-676 1857,-676 1857,-688 1857,-688 1857,-694 1851,-700 1845,-700"/>
<text text-anchor="middle" x="1812" y="-679.5" font-family="sans" font-size="10.00">samtools_view</text>
</g>
<!-- 5&#45;&gt;49 -->
<g id="edge102" class="edge">
<title>5&#45;&gt;49</title>
<path fill="none" stroke="grey" stroke-width="2" d="M1331.05,-896.56C1460.08,-894.73 1858.78,-885.71 1897,-844 1935.18,-802.34 1878.57,-740.34 1840.95,-706.74"/>
<polygon fill="grey" stroke="grey" stroke-width="2" points="1843.09,-703.95 1833.26,-700.01 1838.49,-709.23 1843.09,-703.95"/>
</g>
<!-- 50 -->
<g id="node51" class="node">
<title>50</title>
<path fill="none" stroke="#567bd8" stroke-width="2" d="M1093,-772C1093,-772 1049,-772 1049,-772 1043,-772 1037,-766 1037,-760 1037,-760 1037,-748 1037,-748 1037,-742 1043,-736 1049,-736 1049,-736 1093,-736 1093,-736 1099,-736 1105,-742 1105,-748 1105,-748 1105,-760 1105,-760 1105,-766 1099,-772 1093,-772"/>
<text text-anchor="middle" x="1071" y="-751.5" font-family="sans" font-size="10.00">bwa_mem</text>
</g>
<!-- 5&#45;&gt;50 -->
<g id="edge103" class="edge">
<title>5&#45;&gt;50</title>
<path fill="none" stroke="grey" stroke-width="2" d="M1250.59,-893.66C1190.83,-887.8 1083.39,-873.37 1060,-844 1046.12,-826.58 1051.19,-800.83 1058.36,-781.51"/>
<polygon fill="grey" stroke="grey" stroke-width="2" points="1061.68,-782.65 1062.22,-772.07 1055.2,-780 1061.68,-782.65"/>
</g>
<!-- 51 -->
<g id="node52" class="node">
<title>51</title>
<path fill="none" stroke="#567bd8" stroke-width="2" d="M1375,-772C1375,-772 1331,-772 1331,-772 1325,-772 1319,-766 1319,-760 1319,-760 1319,-748 1319,-748 1319,-742 1325,-736 1331,-736 1331,-736 1375,-736 1375,-736 1381,-736 1387,-742 1387,-748 1387,-748 1387,-760 1387,-760 1387,-766 1381,-772 1375,-772"/>
<text text-anchor="middle" x="1353" y="-751.5" font-family="sans" font-size="10.00">bwa_mem</text>
</g>
<!-- 5&#45;&gt;51 -->
<g id="edge106" class="edge">
<title>5&#45;&gt;51</title>
<path fill="none" stroke="grey" stroke-width="2" d="M1298.48,-879.87C1309.14,-855.46 1328.8,-810.43 1341.37,-781.64"/>
<polygon fill="grey" stroke="grey" stroke-width="2" points="1344.7,-782.75 1345.49,-772.19 1338.29,-779.95 1344.7,-782.75"/>
</g>
<!-- 52 -->
<g id="node53" class="node">
<title>52</title>
<path fill="none" stroke="#567bd8" stroke-width="2" d="M1825,-772C1825,-772 1781,-772 1781,-772 1775,-772 1769,-766 1769,-760 1769,-760 1769,-748 1769,-748 1769,-742 1775,-736 1781,-736 1781,-736 1825,-736 1825,-736 1831,-736 1837,-742 1837,-748 1837,-748 1837,-760 1837,-760 1837,-766 1831,-772 1825,-772"/>
<text text-anchor="middle" x="1803" y="-751.5" font-family="sans" font-size="10.00">bwa_mem</text>
</g>
<!-- 5&#45;&gt;52 -->
<g id="edge109" class="edge">
<title>5&#45;&gt;52</title>
<path fill="none" stroke="grey" stroke-width="2" d="M1331.07,-896.61C1428.75,-894.98 1676.2,-886.63 1745,-844 1768.17,-829.64 1783.92,-802.19 1793.1,-781.56"/>
<polygon fill="grey" stroke="grey" stroke-width="2" points="1796.44,-782.64 1797.07,-772.06 1789.98,-779.93 1796.44,-782.64"/>
</g>
<!-- 6 -->
<g id="node7" class="node">
<title>6</title>
<path fill="none" stroke="#d8cb56" stroke-width="2" d="M392.5,-180C392.5,-180 281.5,-180 281.5,-180 275.5,-180 269.5,-174 269.5,-168 269.5,-168 269.5,-156 269.5,-156 269.5,-150 275.5,-144 281.5,-144 281.5,-144 392.5,-144 392.5,-144 398.5,-144 404.5,-150 404.5,-156 404.5,-156 404.5,-168 404.5,-168 404.5,-174 398.5,-180 392.5,-180"/>
<text text-anchor="middle" x="337" y="-159.5" font-family="sans" font-size="10.00">gatk_genomicsdbimport</text>
</g>
<!-- 6&#45;&gt;1 -->
<g id="edge6" class="edge">
<title>6&#45;&gt;1</title>
<path fill="none" stroke="grey" stroke-width="2" d="M337,-143.7C337,-135.98 337,-126.71 337,-118.11"/>
<polygon fill="grey" stroke="grey" stroke-width="2" points="340.5,-118.1 337,-108.1 333.5,-118.1 340.5,-118.1"/>
</g>
<!-- 7&#45;&gt;2 -->
<g id="edge8" class="edge">
<title>7&#45;&gt;2</title>
<path fill="none" stroke="grey" stroke-width="2" d="M903.29,-387.56C844.16,-380.51 756.48,-365.91 736,-340 720.87,-320.85 733.25,-295.91 748.97,-276.11"/>
<polygon fill="grey" stroke="grey" stroke-width="2" points="751.82,-278.16 755.59,-268.25 746.47,-273.65 751.82,-278.16"/>
</g>
<!-- 7&#45;&gt;3 -->
<g id="edge14" class="edge">
<title>7&#45;&gt;3</title>
<path fill="none" stroke="grey" stroke-width="2" d="M956.11,-375.75C952.9,-357.68 947.21,-328.56 940,-304 937.48,-295.41 934.32,-286.31 931.16,-277.83"/>
<polygon fill="grey" stroke="grey" stroke-width="2" points="934.33,-276.32 927.49,-268.23 927.79,-278.82 934.33,-276.32"/>
</g>
<!-- 9 -->
<g id="node10" class="node">
<title>9</title>
<path fill="none" stroke="#d8bc56" stroke-width="2" d="M919.5,-340C919.5,-340 828.5,-340 828.5,-340 822.5,-340 816.5,-334 816.5,-328 816.5,-328 816.5,-316 816.5,-316 816.5,-310 822.5,-304 828.5,-304 828.5,-304 919.5,-304 919.5,-304 925.5,-304 931.5,-310 931.5,-316 931.5,-316 931.5,-328 931.5,-328 931.5,-334 925.5,-340 919.5,-340"/>
<text text-anchor="middle" x="874" y="-319.5" font-family="sans" font-size="10.00">samtools_index_md</text>
</g>
<!-- 7&#45;&gt;9 -->
<g id="edge39" class="edge">
<title>7&#45;&gt;9</title>
<path fill="none" stroke="grey" stroke-width="2" d="M937.99,-375.7C927.28,-366.88 914.11,-356.03 902.5,-346.47"/>
<polygon fill="grey" stroke="grey" stroke-width="2" points="904.71,-343.76 894.77,-340.1 900.26,-349.16 904.71,-343.76"/>
</g>
<!-- 21 -->
<g id="node22" class="node">
<title>21</title>
<path fill="none" stroke="#d87d56" stroke-width="2" d="M1067.5,-340C1067.5,-340 1000.5,-340 1000.5,-340 994.5,-340 988.5,-334 988.5,-328 988.5,-328 988.5,-316 988.5,-316 988.5,-310 994.5,-304 1000.5,-304 1000.5,-304 1067.5,-304 1067.5,-304 1073.5,-304 1079.5,-310 1079.5,-316 1079.5,-316 1079.5,-328 1079.5,-328 1079.5,-334 1073.5,-340 1067.5,-340"/>
<text text-anchor="middle" x="1034" y="-319.5" font-family="sans" font-size="10.00">samtools_stats</text>
</g>
<!-- 7&#45;&gt;21 -->
<g id="edge47" class="edge">
<title>7&#45;&gt;21</title>
<path fill="none" stroke="grey" stroke-width="2" d="M977.54,-375.7C986.8,-367.05 998.16,-356.45 1008.26,-347.03"/>
<polygon fill="grey" stroke="grey" stroke-width="2" points="1010.75,-349.49 1015.67,-340.1 1005.98,-344.37 1010.75,-349.49"/>
</g>
<!-- 7&#45;&gt;24 -->
<g id="edge51" class="edge">
<title>7&#45;&gt;24</title>
<path fill="none" stroke="grey" stroke-width="2" d="M1014.74,-383.33C1040.92,-375.88 1070.21,-362.82 1088,-340 1103.32,-320.35 1105.69,-291.43 1104.92,-270.28"/>
<polygon fill="grey" stroke="grey" stroke-width="2" points="1108.4,-269.78 1104.28,-260.02 1101.41,-270.22 1108.4,-269.78"/>
</g>
<!-- 7&#45;&gt;36 -->
<g id="edge81" class="edge">
<title>7&#45;&gt;36</title>
<path fill="none" stroke="grey" stroke-width="2" d="M903.13,-390.58C782.55,-385 488.74,-369.49 232.53,-340.12"/>
<polygon fill="grey" stroke="grey" stroke-width="2" points="232.62,-336.61 222.28,-338.94 231.82,-343.56 232.62,-336.61"/>
</g>
<!-- 8&#45;&gt;2 -->
<g id="edge9" class="edge">
<title>8&#45;&gt;2</title>
<path fill="none" stroke="grey" stroke-width="2" d="M1203.07,-388.13C1085.39,-377.66 821.77,-352.89 807,-340 789.63,-324.84 783.54,-299.36 781.72,-278.32"/>
<polygon fill="grey" stroke="grey" stroke-width="2" points="785.2,-277.88 781.12,-268.1 778.21,-278.29 785.2,-277.88"/>
</g>
<!-- 10 -->
<g id="node11" class="node">
<title>10</title>
<path fill="none" stroke="#d8bc56" stroke-width="2" d="M1386.5,-340C1386.5,-340 1295.5,-340 1295.5,-340 1289.5,-340 1283.5,-334 1283.5,-328 1283.5,-328 1283.5,-316 1283.5,-316 1283.5,-310 1289.5,-304 1295.5,-304 1295.5,-304 1386.5,-304 1386.5,-304 1392.5,-304 1398.5,-310 1398.5,-316 1398.5,-316 1398.5,-328 1398.5,-328 1398.5,-334 1392.5,-340 1386.5,-340"/>
<text text-anchor="middle" x="1341" y="-319.5" font-family="sans" font-size="10.00">samtools_index_md</text>
</g>
<!-- 8&#45;&gt;10 -->
<g id="edge40" class="edge">
<title>8&#45;&gt;10</title>
<path fill="none" stroke="grey" stroke-width="2" d="M1279.27,-375.7C1289.5,-366.97 1302.06,-356.24 1313.18,-346.75"/>
<polygon fill="grey" stroke="grey" stroke-width="2" points="1315.63,-349.26 1320.96,-340.1 1311.09,-343.94 1315.63,-349.26"/>
</g>
<!-- 22 -->
<g id="node23" class="node">
<title>22</title>
<path fill="none" stroke="#d87d56" stroke-width="2" d="M1253.5,-340C1253.5,-340 1186.5,-340 1186.5,-340 1180.5,-340 1174.5,-334 1174.5,-328 1174.5,-328 1174.5,-316 1174.5,-316 1174.5,-310 1180.5,-304 1186.5,-304 1186.5,-304 1253.5,-304 1253.5,-304 1259.5,-304 1265.5,-310 1265.5,-316 1265.5,-316 1265.5,-328 1265.5,-328 1265.5,-334 1259.5,-340 1253.5,-340"/>
<text text-anchor="middle" x="1220" y="-319.5" font-family="sans" font-size="10.00">samtools_stats</text>
</g>
<!-- 8&#45;&gt;22 -->
<g id="edge48" class="edge">
<title>8&#45;&gt;22</title>
<path fill="none" stroke="grey" stroke-width="2" d="M1249.36,-375.7C1244.87,-367.64 1239.44,-357.89 1234.48,-348.98"/>
<polygon fill="grey" stroke="grey" stroke-width="2" points="1237.45,-347.14 1229.53,-340.1 1231.34,-350.54 1237.45,-347.14"/>
</g>
<!-- 8&#45;&gt;25 -->
<g id="edge55" class="edge">
<title>8&#45;&gt;25</title>
<path fill="none" stroke="grey" stroke-width="2" d="M1314.74,-377.39C1343.44,-368.31 1378.5,-355.58 1408,-340 1447.22,-319.28 1487.77,-288.03 1513.62,-266.64"/>
<polygon fill="grey" stroke="grey" stroke-width="2" points="1516.06,-269.16 1521.48,-260.06 1511.56,-263.8 1516.06,-269.16"/>
</g>
<!-- 8&#45;&gt;37 -->
<g id="edge84" class="edge">
<title>8&#45;&gt;37</title>
<path fill="none" stroke="grey" stroke-width="2" d="M1203.22,-388.83C1155.41,-385.28 1084.68,-380.14 1023,-376 768.58,-358.94 701.4,-368.24 444.29,-340.08"/>
<polygon fill="grey" stroke="grey" stroke-width="2" points="444.6,-336.6 434.28,-338.98 443.83,-343.55 444.6,-336.6"/>
</g>
<!-- 9&#45;&gt;2 -->
<g id="edge10" class="edge">
<title>9&#45;&gt;2</title>
<path fill="none" stroke="grey" stroke-width="2" d="M853.58,-303.69C843.6,-295.23 831.27,-284.77 819.67,-274.94"/>
<polygon fill="grey" stroke="grey" stroke-width="2" points="821.68,-272.05 811.79,-268.26 817.15,-277.39 821.68,-272.05"/>
</g>
<!-- 9&#45;&gt;3 -->
<g id="edge16" class="edge">
<title>9&#45;&gt;3</title>
<path fill="none" stroke="grey" stroke-width="2" d="M883.54,-303.69C887.85,-295.88 893.09,-286.37 898.14,-277.22"/>
<polygon fill="grey" stroke="grey" stroke-width="2" points="901.31,-278.7 903.08,-268.26 895.18,-275.32 901.31,-278.7"/>
</g>
<!-- 9&#45;&gt;24 -->
<g id="edge53" class="edge">
<title>9&#45;&gt;24</title>
<path fill="none" stroke="grey" stroke-width="2" d="M923.75,-303.98C964.29,-290.11 1020.91,-270.74 1059.39,-257.58"/>
<polygon fill="grey" stroke="grey" stroke-width="2" points="1060.91,-260.76 1069.24,-254.21 1058.65,-254.13 1060.91,-260.76"/>
</g>
<!-- 10&#45;&gt;2 -->
<g id="edge11" class="edge">
<title>10&#45;&gt;2</title>
<path fill="none" stroke="grey" stroke-width="2" d="M1283.17,-305.54C1280.41,-304.98 1277.68,-304.46 1275,-304 1097.79,-273.47 1048.92,-300.2 872,-268 861.84,-266.15 851.17,-263.68 840.87,-261"/>
<polygon fill="grey" stroke="grey" stroke-width="2" points="841.71,-257.6 831.14,-258.39 839.89,-264.36 841.71,-257.6"/>
</g>
<!-- 10&#45;&gt;25 -->
<g id="edge57" class="edge">
<title>10&#45;&gt;25</title>
<path fill="none" stroke="grey" stroke-width="2" d="M1384.89,-303.88C1418.8,-290.66 1465.43,-272.47 1498.89,-259.42"/>
<polygon fill="grey" stroke="grey" stroke-width="2" points="1500.34,-262.61 1508.38,-255.72 1497.79,-256.09 1500.34,-262.61"/>
</g>
<!-- 11&#45;&gt;3 -->
<g id="edge13" class="edge">
<title>11&#45;&gt;3</title>
<path fill="none" stroke="grey" stroke-width="2" d="M1830.32,-381.11C1741.4,-362.48 1561.72,-326.22 1408,-304 1254.11,-281.75 1214.01,-289.4 1060,-268 1027.32,-263.46 990.66,-257.02 962.65,-251.82"/>
<polygon fill="grey" stroke="grey" stroke-width="2" points="963.21,-248.36 952.74,-249.96 961.92,-255.25 963.21,-248.36"/>
</g>
<!-- 12 -->
<g id="node13" class="node">
<title>12</title>
<path fill="none" stroke="#d8bc56" stroke-width="2" d="M1862.5,-340C1862.5,-340 1771.5,-340 1771.5,-340 1765.5,-340 1759.5,-334 1759.5,-328 1759.5,-328 1759.5,-316 1759.5,-316 1759.5,-310 1765.5,-304 1771.5,-304 1771.5,-304 1862.5,-304 1862.5,-304 1868.5,-304 1874.5,-310 1874.5,-316 1874.5,-316 1874.5,-328 1874.5,-328 1874.5,-334 1868.5,-340 1862.5,-340"/>
<text text-anchor="middle" x="1817" y="-319.5" font-family="sans" font-size="10.00">samtools_index_md</text>
</g>
<!-- 11&#45;&gt;12 -->
<g id="edge43" class="edge">
<title>11&#45;&gt;12</title>
<path fill="none" stroke="grey" stroke-width="2" d="M1868.94,-375.7C1860.5,-367.14 1850.18,-356.66 1840.96,-347.3"/>
<polygon fill="grey" stroke="grey" stroke-width="2" points="1843.37,-344.77 1833.86,-340.1 1838.39,-349.68 1843.37,-344.77"/>
</g>
<!-- 23 -->
<g id="node24" class="node">
<title>23</title>
<path fill="none" stroke="#d87d56" stroke-width="2" d="M2010.5,-340C2010.5,-340 1943.5,-340 1943.5,-340 1937.5,-340 1931.5,-334 1931.5,-328 1931.5,-328 1931.5,-316 1931.5,-316 1931.5,-310 1937.5,-304 1943.5,-304 1943.5,-304 2010.5,-304 2010.5,-304 2016.5,-304 2022.5,-310 2022.5,-316 2022.5,-316 2022.5,-328 2022.5,-328 2022.5,-334 2016.5,-340 2010.5,-340"/>
<text text-anchor="middle" x="1977" y="-319.5" font-family="sans" font-size="10.00">samtools_stats</text>
</g>
<!-- 11&#45;&gt;23 -->
<g id="edge49" class="edge">
<title>11&#45;&gt;23</title>
<path fill="none" stroke="grey" stroke-width="2" d="M1908.49,-375.7C1919.96,-366.88 1934.06,-356.03 1946.48,-346.47"/>
<polygon fill="grey" stroke="grey" stroke-width="2" points="1948.97,-348.98 1954.76,-340.1 1944.7,-343.43 1948.97,-348.98"/>
</g>
<!-- 11&#45;&gt;26 -->
<g id="edge59" class="edge">
<title>11&#45;&gt;26</title>
<path fill="none" stroke="grey" stroke-width="2" d="M1941.8,-386.24C1972.77,-379.57 2009.47,-366.32 2032,-340 2048.42,-320.82 2052.24,-291.64 2052.52,-270.3"/>
<polygon fill="grey" stroke="grey" stroke-width="2" points="2056.02,-270.19 2052.41,-260.23 2049.02,-270.28 2056.02,-270.19"/>
</g>
<!-- 11&#45;&gt;27 -->
<g id="edge63" class="edge">
<title>11&#45;&gt;27</title>
<path fill="none" stroke="grey" stroke-width="2" d="M1890.73,-375.93C1894.98,-356.69 1898.57,-325.3 1884,-304 1882.52,-301.83 1830.87,-280.69 1789.21,-263.9"/>
<polygon fill="grey" stroke="grey" stroke-width="2" points="1790.27,-260.55 1779.69,-260.07 1787.66,-267.05 1790.27,-260.55"/>
</g>
<!-- 11&#45;&gt;38 -->
<g id="edge87" class="edge">
<title>11&#45;&gt;38</title>
<path fill="none" stroke="grey" stroke-width="2" d="M1830.39,-390.6C1671,-383.64 1198.81,-362.53 807,-340 757.42,-337.15 702.51,-333.59 656.13,-330.46"/>
<polygon fill="grey" stroke="grey" stroke-width="2" points="656.28,-326.96 646.07,-329.78 655.81,-333.95 656.28,-326.96"/>
</g>
<!-- 12&#45;&gt;3 -->
<g id="edge15" class="edge">
<title>12&#45;&gt;3</title>
<path fill="none" stroke="grey" stroke-width="2" d="M1759.46,-316.5C1714.22,-313 1649.6,-308.06 1593,-304 1356.18,-287.02 1295.71,-296.48 1060,-268 1027.24,-264.04 990.59,-257.59 962.59,-252.24"/>
<polygon fill="grey" stroke="grey" stroke-width="2" points="963.18,-248.79 952.69,-250.32 961.85,-255.66 963.18,-248.79"/>
</g>
<!-- 12&#45;&gt;26 -->
<g id="edge61" class="edge">
<title>12&#45;&gt;26</title>
<path fill="none" stroke="grey" stroke-width="2" d="M1868.06,-303.98C1910.21,-289.93 1969.31,-270.23 2008.82,-257.06"/>
<polygon fill="grey" stroke="grey" stroke-width="2" points="2010.04,-260.34 2018.42,-253.86 2007.82,-253.7 2010.04,-260.34"/>
</g>
<!-- 12&#45;&gt;27 -->
<g id="edge65" class="edge">
<title>12&#45;&gt;27</title>
<path fill="none" stroke="grey" stroke-width="2" d="M1799.25,-303.69C1788.27,-292.98 1774.01,-279.08 1761.91,-267.29"/>
<polygon fill="grey" stroke="grey" stroke-width="2" points="1764.31,-264.74 1754.7,-260.26 1759.42,-269.75 1764.31,-264.74"/>
</g>
<!-- 13&#45;&gt;4 -->
<g id="edge17" class="edge">
<title>13&#45;&gt;4</title>
<path fill="none" stroke="grey" stroke-width="2" d="M2301.96,-591.57C2297.58,-564.86 2290,-512.12 2290,-467 2290,-467 2290,-467 2290,-321 2290,-272.21 2295.51,-247.19 2258,-216 2224.99,-188.55 1931.77,-170.53 1826.45,-164.89"/>
<polygon fill="grey" stroke="grey" stroke-width="2" points="1826.46,-161.39 1816.29,-164.35 1826.09,-168.38 1826.46,-161.39"/>
</g>
<!-- 14&#45;&gt;4 -->
<g id="edge18" class="edge">
<title>14&#45;&gt;4</title>
<path fill="none" stroke="grey" stroke-width="2" d="M2228.84,-663.61C2234.4,-636.94 2244,-584.27 2244,-539 2244,-539 2244,-539 2244,-321 2244,-273.58 2259.49,-248.55 2225,-216 2196.17,-188.8 1926.55,-170.82 1826.3,-165.03"/>
<polygon fill="grey" stroke="grey" stroke-width="2" points="1826.22,-161.52 1816.04,-164.44 1825.83,-168.51 1826.22,-161.52"/>
</g>
<!-- 15 -->
<g id="node16" class="node">
<title>15</title>
<path fill="none" stroke="#b6d856" stroke-width="2" d="M1861.5,-260C1861.5,-260 1820.5,-260 1820.5,-260 1814.5,-260 1808.5,-254 1808.5,-248 1808.5,-248 1808.5,-236 1808.5,-236 1808.5,-230 1814.5,-224 1820.5,-224 1820.5,-224 1861.5,-224 1861.5,-224 1867.5,-224 1873.5,-230 1873.5,-236 1873.5,-236 1873.5,-248 1873.5,-248 1873.5,-254 1867.5,-260 1861.5,-260"/>
<text text-anchor="middle" x="1841" y="-245" font-family="sans" font-size="10.00">fastqc</text>
<text text-anchor="middle" x="1841" y="-234" font-family="sans" font-size="10.00">library: T2</text>
</g>
<!-- 15&#45;&gt;4 -->
<g id="edge19" class="edge">
<title>15&#45;&gt;4</title>
<path fill="none" stroke="grey" stroke-width="2" d="M1829.46,-223.69C1822.59,-213.39 1813.75,-200.13 1806.09,-188.63"/>
<polygon fill="grey" stroke="grey" stroke-width="2" points="1808.97,-186.64 1800.51,-180.26 1803.14,-190.52 1808.97,-186.64"/>
</g>
<!-- 16 -->
<g id="node17" class="node">
<title>16</title>
<path fill="none" stroke="#b6d856" stroke-width="2" d="M1944.5,-260C1944.5,-260 1903.5,-260 1903.5,-260 1897.5,-260 1891.5,-254 1891.5,-248 1891.5,-248 1891.5,-236 1891.5,-236 1891.5,-230 1897.5,-224 1903.5,-224 1903.5,-224 1944.5,-224 1944.5,-224 1950.5,-224 1956.5,-230 1956.5,-236 1956.5,-236 1956.5,-248 1956.5,-248 1956.5,-254 1950.5,-260 1944.5,-260"/>
<text text-anchor="middle" x="1924" y="-245" font-family="sans" font-size="10.00">fastqc</text>
<text text-anchor="middle" x="1924" y="-234" font-family="sans" font-size="10.00">library: T3</text>
</g>
<!-- 16&#45;&gt;4 -->
<g id="edge20" class="edge">
<title>16&#45;&gt;4</title>
<path fill="none" stroke="grey" stroke-width="2" d="M1896.29,-223.93C1891.86,-221.25 1887.31,-218.53 1883,-216 1864.01,-204.86 1842.65,-192.78 1825.09,-182.97"/>
<polygon fill="grey" stroke="grey" stroke-width="2" points="1826.73,-179.88 1816.29,-178.06 1823.32,-185.99 1826.73,-179.88"/>
</g>
<!-- 17 -->
<g id="node18" class="node">
<title>17</title>
<path fill="none" stroke="#b6d856" stroke-width="2" d="M2203.5,-260C2203.5,-260 2154.5,-260 2154.5,-260 2148.5,-260 2142.5,-254 2142.5,-248 2142.5,-248 2142.5,-236 2142.5,-236 2142.5,-230 2148.5,-224 2154.5,-224 2154.5,-224 2203.5,-224 2203.5,-224 2209.5,-224 2215.5,-230 2215.5,-236 2215.5,-236 2215.5,-248 2215.5,-248 2215.5,-254 2209.5,-260 2203.5,-260"/>
<text text-anchor="middle" x="2179" y="-245" font-family="sans" font-size="10.00">fastqc</text>
<text text-anchor="middle" x="2179" y="-234" font-family="sans" font-size="10.00">library: DS2</text>
</g>
<!-- 17&#45;&gt;4 -->
<g id="edge21" class="edge">
<title>17&#45;&gt;4</title>
<path fill="none" stroke="grey" stroke-width="2" d="M2147.78,-223.87C2141.38,-220.89 2134.58,-218.08 2128,-216 2021.93,-182.56 1890.27,-169.7 1826.76,-165.2"/>
<polygon fill="grey" stroke="grey" stroke-width="2" points="1826.65,-161.68 1816.44,-164.5 1826.18,-168.67 1826.65,-161.68"/>
</g>
<!-- 18 -->
<g id="node19" class="node">
<title>18</title>
<path fill="none" stroke="#d86e56" stroke-width="2" d="M1137,-844C1137,-844 1081,-844 1081,-844 1075,-844 1069,-838 1069,-832 1069,-832 1069,-820 1069,-820 1069,-814 1075,-808 1081,-808 1081,-808 1137,-808 1137,-808 1143,-808 1149,-814 1149,-820 1149,-820 1149,-832 1149,-832 1149,-838 1143,-844 1137,-844"/>
<text text-anchor="middle" x="1109" y="-829" font-family="sans" font-size="10.00">trimmomatic</text>
<text text-anchor="middle" x="1109" y="-818" font-family="sans" font-size="10.00">library: T2</text>
</g>
<!-- 18&#45;&gt;4 -->
<g id="edge22" class="edge">
<title>18&#45;&gt;4</title>
<path fill="none" stroke="grey" stroke-width="2" d="M1113.99,-807.97C1124.09,-771.96 1146,-685.28 1146,-611 1146,-611 1146,-611 1146,-393 1146,-352.46 1140.77,-335.73 1166,-304 1222.17,-233.36 1262.37,-241.29 1349,-216 1493.78,-173.73 1674.83,-165.12 1751.71,-163.4"/>
<polygon fill="grey" stroke="grey" stroke-width="2" points="1751.92,-166.9 1761.85,-163.2 1751.79,-159.9 1751.92,-166.9"/>
</g>
<!-- 18&#45;&gt;50 -->
<g id="edge104" class="edge">
<title>18&#45;&gt;50</title>
<path fill="none" stroke="grey" stroke-width="2" d="M1099.61,-807.7C1095.24,-799.64 1089.94,-789.89 1085.1,-780.98"/>
<polygon fill="grey" stroke="grey" stroke-width="2" points="1088.13,-779.22 1080.29,-772.1 1081.98,-782.56 1088.13,-779.22"/>
</g>
<!-- 19 -->
<g id="node20" class="node">
<title>19</title>
<path fill="none" stroke="#d86e56" stroke-width="2" d="M1425,-844C1425,-844 1369,-844 1369,-844 1363,-844 1357,-838 1357,-832 1357,-832 1357,-820 1357,-820 1357,-814 1363,-808 1369,-808 1369,-808 1425,-808 1425,-808 1431,-808 1437,-814 1437,-820 1437,-820 1437,-832 1437,-832 1437,-838 1431,-844 1425,-844"/>
<text text-anchor="middle" x="1397" y="-829" font-family="sans" font-size="10.00">trimmomatic</text>
<text text-anchor="middle" x="1397" y="-818" font-family="sans" font-size="10.00">library: T3</text>
</g>
<!-- 19&#45;&gt;4 -->
<g id="edge23" class="edge">
<title>19&#45;&gt;4</title>
<path fill="none" stroke="grey" stroke-width="2" d="M1400.29,-807.75C1416.13,-729.18 1491.35,-400.93 1675,-216 1696.22,-194.63 1727.69,-180.9 1752.19,-172.78"/>
<polygon fill="grey" stroke="grey" stroke-width="2" points="1753.38,-176.07 1761.87,-169.74 1751.28,-169.4 1753.38,-176.07"/>
</g>
<!-- 19&#45;&gt;51 -->
<g id="edge107" class="edge">
<title>19&#45;&gt;51</title>
<path fill="none" stroke="grey" stroke-width="2" d="M1386.12,-807.7C1381.01,-799.56 1374.8,-789.69 1369.16,-780.7"/>
<polygon fill="grey" stroke="grey" stroke-width="2" points="1372.04,-778.71 1363.75,-772.1 1366.11,-782.43 1372.04,-778.71"/>
</g>
<!-- 20 -->
<g id="node21" class="node">
<title>20</title>
<path fill="none" stroke="#d86e56" stroke-width="2" d="M1876,-844C1876,-844 1820,-844 1820,-844 1814,-844 1808,-838 1808,-832 1808,-832 1808,-820 1808,-820 1808,-814 1814,-808 1820,-808 1820,-808 1876,-808 1876,-808 1882,-808 1888,-814 1888,-820 1888,-820 1888,-832 1888,-832 1888,-838 1882,-844 1876,-844"/>
<text text-anchor="middle" x="1848" y="-829" font-family="sans" font-size="10.00">trimmomatic</text>
<text text-anchor="middle" x="1848" y="-818" font-family="sans" font-size="10.00">library: DS2</text>
</g>
<!-- 20&#45;&gt;4 -->
<g id="edge24" class="edge">
<title>20&#45;&gt;4</title>
<path fill="none" stroke="grey" stroke-width="2" d="M1869.94,-807.82C1946.85,-745.35 2196.71,-522.46 2141,-304 2129.99,-260.83 2129.21,-241.96 2093,-216 2050.76,-185.71 1897.9,-170.89 1826.38,-165.49"/>
<polygon fill="grey" stroke="grey" stroke-width="2" points="1826.27,-161.97 1816.04,-164.73 1825.75,-168.95 1826.27,-161.97"/>
</g>
<!-- 20&#45;&gt;52 -->
<g id="edge110" class="edge">
<title>20&#45;&gt;52</title>
<path fill="none" stroke="grey" stroke-width="2" d="M1836.88,-807.7C1831.64,-799.56 1825.3,-789.69 1819.52,-780.7"/>
<polygon fill="grey" stroke="grey" stroke-width="2" points="1822.35,-778.62 1814,-772.1 1816.46,-782.41 1822.35,-778.62"/>
</g>
<!-- 21&#45;&gt;4 -->
<g id="edge25" class="edge">
<title>21&#45;&gt;4</title>
<path fill="none" stroke="grey" stroke-width="2" d="M1032.65,-303.7C1031.85,-279.89 1034.44,-237.54 1060,-216 1113.19,-171.17 1610.16,-164.25 1751.6,-163.19"/>
<polygon fill="grey" stroke="grey" stroke-width="2" points="1751.95,-166.69 1761.92,-163.12 1751.9,-159.69 1751.95,-166.69"/>
</g>
<!-- 22&#45;&gt;4 -->
<g id="edge26" class="edge">
<title>22&#45;&gt;4</title>
<path fill="none" stroke="grey" stroke-width="2" d="M1258.69,-303.98C1312.05,-281.1 1411.69,-240.45 1500,-216 1588.91,-191.39 1696.42,-175.1 1751.89,-167.66"/>
<polygon fill="grey" stroke="grey" stroke-width="2" points="1752.49,-171.11 1761.95,-166.33 1751.57,-164.17 1752.49,-171.11"/>
</g>
<!-- 23&#45;&gt;4 -->
<g id="edge27" class="edge">
<title>23&#45;&gt;4</title>
<path fill="none" stroke="grey" stroke-width="2" d="M1980.48,-303.92C1984.07,-281.15 1986.59,-240.84 1966,-216 1931.92,-174.88 1867.29,-164.83 1826.27,-162.83"/>
<polygon fill="grey" stroke="grey" stroke-width="2" points="1826.25,-159.32 1816.13,-162.47 1826.01,-166.32 1826.25,-159.32"/>
</g>
<!-- 24&#45;&gt;4 -->
<g id="edge28" class="edge">
<title>24&#45;&gt;4</title>
<path fill="none" stroke="grey" stroke-width="2" d="M1129.54,-223.98C1135.74,-220.83 1142.44,-217.93 1149,-216 1263.35,-182.41 1633.08,-167.96 1751.88,-164.11"/>
<polygon fill="grey" stroke="grey" stroke-width="2" points="1752.05,-167.6 1761.93,-163.79 1751.83,-160.61 1752.05,-167.6"/>
</g>
<!-- 25&#45;&gt;4 -->
<g id="edge29" class="edge">
<title>25&#45;&gt;4</title>
<path fill="none" stroke="grey" stroke-width="2" d="M1573.68,-230.72C1619.85,-216.2 1703.92,-189.76 1752.22,-174.57"/>
<polygon fill="grey" stroke="grey" stroke-width="2" points="1753.47,-177.84 1761.96,-171.5 1751.37,-171.17 1753.47,-177.84"/>
</g>
<!-- 26&#45;&gt;4 -->
<g id="edge30" class="edge">
<title>26&#45;&gt;4</title>
<path fill="none" stroke="grey" stroke-width="2" d="M2018.42,-224.11C2012.07,-221.17 2005.4,-218.32 1999,-216 1939.89,-194.58 1868.4,-178.53 1825.93,-169.97"/>
<polygon fill="grey" stroke="grey" stroke-width="2" points="1826.53,-166.52 1816.04,-168.01 1825.16,-173.39 1826.53,-166.52"/>
</g>
<!-- 27&#45;&gt;4 -->
<g id="edge31" class="edge">
<title>27&#45;&gt;4</title>
<path fill="none" stroke="grey" stroke-width="2" d="M1748.54,-223.69C1755.41,-213.39 1764.25,-200.13 1771.91,-188.63"/>
<polygon fill="grey" stroke="grey" stroke-width="2" points="1774.86,-190.52 1777.49,-180.26 1769.03,-186.64 1774.86,-190.52"/>
</g>
<!-- 28 -->
<g id="node29" class="node">
<title>28</title>
<path fill="none" stroke="#56d86b" stroke-width="2" d="M210.5,-260C210.5,-260 139.5,-260 139.5,-260 133.5,-260 127.5,-254 127.5,-248 127.5,-248 127.5,-236 127.5,-236 127.5,-230 133.5,-224 139.5,-224 139.5,-224 210.5,-224 210.5,-224 216.5,-224 222.5,-230 222.5,-236 222.5,-236 222.5,-248 222.5,-248 222.5,-254 216.5,-260 210.5,-260"/>
<text text-anchor="middle" x="175" y="-239.5" font-family="sans" font-size="10.00">gatk_gathervcfs</text>
</g>
<!-- 28&#45;&gt;6 -->
<g id="edge32" class="edge">
<title>28&#45;&gt;6</title>
<path fill="none" stroke="grey" stroke-width="2" d="M210.55,-223.88C234.61,-212.3 266.57,-196.91 292.34,-184.5"/>
<polygon fill="grey" stroke="grey" stroke-width="2" points="294.04,-187.57 301.53,-180.08 291,-181.26 294.04,-187.57"/>
</g>
<!-- 29 -->
<g id="node30" class="node">
<title>29</title>
<path fill="none" stroke="#56d86b" stroke-width="2" d="M372.5,-260C372.5,-260 301.5,-260 301.5,-260 295.5,-260 289.5,-254 289.5,-248 289.5,-248 289.5,-236 289.5,-236 289.5,-230 295.5,-224 301.5,-224 301.5,-224 372.5,-224 372.5,-224 378.5,-224 384.5,-230 384.5,-236 384.5,-236 384.5,-248 384.5,-248 384.5,-254 378.5,-260 372.5,-260"/>
<text text-anchor="middle" x="337" y="-239.5" font-family="sans" font-size="10.00">gatk_gathervcfs</text>
</g>
<!-- 29&#45;&gt;6 -->
<g id="edge33" class="edge">
<title>29&#45;&gt;6</title>
<path fill="none" stroke="grey" stroke-width="2" d="M337,-223.69C337,-213.89 337,-201.42 337,-190.33"/>
<polygon fill="grey" stroke="grey" stroke-width="2" points="340.5,-190.26 337,-180.26 333.5,-190.26 340.5,-190.26"/>
</g>
<!-- 30 -->
<g id="node31" class="node">
<title>30</title>
<path fill="none" stroke="#56d86b" stroke-width="2" d="M534.5,-260C534.5,-260 463.5,-260 463.5,-260 457.5,-260 451.5,-254 451.5,-248 451.5,-248 451.5,-236 451.5,-236 451.5,-230 457.5,-224 463.5,-224 463.5,-224 534.5,-224 534.5,-224 540.5,-224 546.5,-230 546.5,-236 546.5,-236 546.5,-248 546.5,-248 546.5,-254 540.5,-260 534.5,-260"/>
<text text-anchor="middle" x="499" y="-239.5" font-family="sans" font-size="10.00">gatk_gathervcfs</text>
</g>
<!-- 30&#45;&gt;6 -->
<g id="edge34" class="edge">
<title>30&#45;&gt;6</title>
<path fill="none" stroke="grey" stroke-width="2" d="M463.45,-223.88C439.39,-212.3 407.43,-196.91 381.66,-184.5"/>
<polygon fill="grey" stroke="grey" stroke-width="2" points="383,-181.26 372.47,-180.08 379.96,-187.57 383,-181.26"/>
</g>
<!-- 31&#45;&gt;7 -->
<g id="edge35" class="edge">
<title>31&#45;&gt;7</title>
<path fill="none" stroke="grey" stroke-width="2" d="M959,-447.7C959,-439.98 959,-430.71 959,-422.11"/>
<polygon fill="grey" stroke="grey" stroke-width="2" points="962.5,-422.1 959,-412.1 955.5,-422.1 962.5,-422.1"/>
</g>
<!-- 32&#45;&gt;8 -->
<g id="edge37" class="edge">
<title>32&#45;&gt;8</title>
<path fill="none" stroke="grey" stroke-width="2" d="M1259,-447.7C1259,-439.98 1259,-430.71 1259,-422.11"/>
<polygon fill="grey" stroke="grey" stroke-width="2" points="1262.5,-422.1 1259,-412.1 1255.5,-422.1 1262.5,-422.1"/>
</g>
<!-- 33&#45;&gt;11 -->
<g id="edge41" class="edge">
<title>33&#45;&gt;11</title>
<path fill="none" stroke="grey" stroke-width="2" d="M1873.96,-447.7C1875.72,-439.98 1877.84,-430.71 1879.8,-422.11"/>
<polygon fill="grey" stroke="grey" stroke-width="2" points="1883.27,-422.63 1882.09,-412.1 1876.45,-421.07 1883.27,-422.63"/>
</g>
<!-- 34 -->
<g id="node35" class="node">
<title>34</title>
<path fill="none" stroke="#a7d856" stroke-width="2" d="M2280,-772C2280,-772 2170,-772 2170,-772 2164,-772 2158,-766 2158,-760 2158,-760 2158,-748 2158,-748 2158,-742 2164,-736 2170,-736 2170,-736 2280,-736 2280,-736 2286,-736 2292,-742 2292,-748 2292,-748 2292,-760 2292,-760 2292,-766 2286,-772 2280,-772"/>
<text text-anchor="middle" x="2225" y="-751.5" font-family="sans" font-size="10.00">bedtools_makewindows</text>
</g>
<!-- 34&#45;&gt;14 -->
<g id="edge46" class="edge">
<title>34&#45;&gt;14</title>
<path fill="none" stroke="grey" stroke-width="2" d="M2225,-735.7C2225,-727.98 2225,-718.71 2225,-710.11"/>
<polygon fill="grey" stroke="grey" stroke-width="2" points="2228.5,-710.1 2225,-700.1 2221.5,-710.1 2228.5,-710.1"/>
</g>
<!-- 35&#45;&gt;24 -->
<g id="edge52" class="edge">
<title>35&#45;&gt;24</title>
<path fill="none" stroke="grey" stroke-width="2" d="M1529.83,-807.98C1517.63,-758.16 1481,-608.39 1451,-484 1431.72,-404.04 1467.25,-361.05 1408,-304 1370.87,-268.25 1219.85,-251.94 1144.78,-245.93"/>
<polygon fill="grey" stroke="grey" stroke-width="2" points="1144.96,-242.43 1134.71,-245.15 1144.41,-249.41 1144.96,-242.43"/>
</g>
<!-- 35&#45;&gt;25 -->
<g id="edge56" class="edge">
<title>35&#45;&gt;25</title>
<path fill="none" stroke="grey" stroke-width="2" d="M1535.38,-807.96C1537.42,-781.32 1541,-728.17 1541,-683 1541,-683 1541,-683 1541,-393 1541,-350.09 1541,-300.28 1541,-270.23"/>
<polygon fill="grey" stroke="grey" stroke-width="2" points="1544.5,-270.1 1541,-260.1 1537.5,-270.1 1544.5,-270.1"/>
</g>
<!-- 35&#45;&gt;26 -->
<g id="edge60" class="edge">
<title>35&#45;&gt;26</title>
<path fill="none" stroke="grey" stroke-width="2" d="M1553.38,-807.98C1590.68,-775.96 1676.03,-706.19 1758,-664 1802.24,-641.23 1824.62,-658.41 1864,-628 1985.38,-534.28 2009.92,-486.87 2054,-340 2060.86,-317.16 2059.21,-289.92 2056.37,-270.13"/>
<polygon fill="grey" stroke="grey" stroke-width="2" points="2059.83,-269.56 2054.77,-260.25 2052.92,-270.68 2059.83,-269.56"/>
</g>
<!-- 35&#45;&gt;27 -->
<g id="edge64" class="edge">
<title>35&#45;&gt;27</title>
<path fill="none" stroke="grey" stroke-width="2" d="M1539.97,-807.9C1568.65,-725.66 1692.45,-370.72 1727.64,-269.84"/>
<polygon fill="grey" stroke="grey" stroke-width="2" points="1731.05,-270.7 1731.03,-260.1 1724.44,-268.39 1731.05,-270.7"/>
</g>
<!-- 35&#45;&gt;50 -->
<g id="edge105" class="edge">
<title>35&#45;&gt;50</title>
<path fill="none" stroke="grey" stroke-width="2" d="M1499.38,-817.89C1483.2,-814.68 1463.65,-810.95 1446,-808 1326.95,-788.1 1185.8,-769.49 1115.47,-760.55"/>
<polygon fill="grey" stroke="grey" stroke-width="2" points="1115.57,-757.03 1105.21,-759.25 1114.7,-763.98 1115.57,-757.03"/>
</g>
<!-- 35&#45;&gt;51 -->
<g id="edge108" class="edge">
<title>35&#45;&gt;51</title>
<path fill="none" stroke="grey" stroke-width="2" d="M1499.1,-811.5C1469.87,-800.2 1428,-784.01 1396.57,-771.85"/>
<polygon fill="grey" stroke="grey" stroke-width="2" points="1397.77,-768.56 1387.18,-768.22 1395.24,-775.09 1397.77,-768.56"/>
</g>
<!-- 35&#45;&gt;52 -->
<g id="edge111" class="edge">
<title>35&#45;&gt;52</title>
<path fill="none" stroke="grey" stroke-width="2" d="M1568.62,-815.99C1617.27,-803.33 1705.89,-780.27 1759.11,-766.42"/>
<polygon fill="grey" stroke="grey" stroke-width="2" points="1760.14,-769.77 1768.94,-763.86 1758.38,-762.99 1760.14,-769.77"/>
</g>
<!-- 36&#45;&gt;28 -->
<g id="edge66" class="edge">
<title>36&#45;&gt;28</title>
<path fill="none" stroke="grey" stroke-width="2" d="M136.1,-303.69C142.63,-293.49 151.03,-280.39 158.35,-268.97"/>
<polygon fill="grey" stroke="grey" stroke-width="2" points="161.48,-270.57 163.93,-260.26 155.59,-266.79 161.48,-270.57"/>
</g>
<!-- 37&#45;&gt;29 -->
<g id="edge67" class="edge">
<title>37&#45;&gt;29</title>
<path fill="none" stroke="grey" stroke-width="2" d="M337,-303.69C337,-293.89 337,-281.42 337,-270.33"/>
<polygon fill="grey" stroke="grey" stroke-width="2" points="340.5,-270.26 337,-260.26 333.5,-270.26 340.5,-270.26"/>
</g>
<!-- 38&#45;&gt;30 -->
<g id="edge68" class="edge">
<title>38&#45;&gt;30</title>
<path fill="none" stroke="grey" stroke-width="2" d="M537.9,-303.69C531.37,-293.49 522.97,-280.39 515.65,-268.97"/>
<polygon fill="grey" stroke="grey" stroke-width="2" points="518.41,-266.79 510.07,-260.26 512.52,-270.57 518.41,-266.79"/>
</g>
<!-- 39 -->
<g id="node40" class="node">
<title>39</title>
<path fill="none" stroke="#80d856" stroke-width="2" d="M1049,-628C1049,-628 987,-628 987,-628 981,-628 975,-622 975,-616 975,-616 975,-604 975,-604 975,-598 981,-592 987,-592 987,-592 1049,-592 1049,-592 1055,-592 1061,-598 1061,-604 1061,-604 1061,-616 1061,-616 1061,-622 1055,-628 1049,-628"/>
<text text-anchor="middle" x="1018" y="-607.5" font-family="sans" font-size="10.00">samtools_sort</text>
</g>
<!-- 39&#45;&gt;31 -->
<g id="edge69" class="edge">
<title>39&#45;&gt;31</title>
<path fill="none" stroke="grey" stroke-width="2" d="M1001.33,-591.72C992.81,-581.96 983,-569.12 977,-556 968.05,-536.44 963.53,-512.44 961.26,-494.3"/>
<polygon fill="grey" stroke="grey" stroke-width="2" points="964.71,-493.67 960.14,-484.11 957.75,-494.43 964.71,-493.67"/>
</g>
<!-- 40 -->
<g id="node41" class="node">
<title>40</title>
<path fill="none" stroke="#56b9d8" stroke-width="2" d="M1068,-556C1068,-556 998,-556 998,-556 992,-556 986,-550 986,-544 986,-544 986,-532 986,-532 986,-526 992,-520 998,-520 998,-520 1068,-520 1068,-520 1074,-520 1080,-526 1080,-532 1080,-532 1080,-544 1080,-544 1080,-550 1074,-556 1068,-556"/>
<text text-anchor="middle" x="1033" y="-535.5" font-family="sans" font-size="10.00">samtools_index</text>
</g>
<!-- 39&#45;&gt;40 -->
<g id="edge90" class="edge">
<title>39&#45;&gt;40</title>
<path fill="none" stroke="grey" stroke-width="2" d="M1021.71,-591.7C1023.36,-583.98 1025.35,-574.71 1027.19,-566.11"/>
<polygon fill="grey" stroke="grey" stroke-width="2" points="1030.66,-566.62 1029.33,-556.1 1023.82,-565.15 1030.66,-566.62"/>
</g>
<!-- 40&#45;&gt;31 -->
<g id="edge71" class="edge">
<title>40&#45;&gt;31</title>
<path fill="none" stroke="grey" stroke-width="2" d="M1014.71,-519.7C1005.57,-511.05 994.36,-500.45 984.4,-491.03"/>
<polygon fill="grey" stroke="grey" stroke-width="2" points="986.75,-488.43 977.08,-484.1 981.94,-493.52 986.75,-488.43"/>
</g>
<!-- 41 -->
<g id="node42" class="node">
<title>41</title>
<path fill="none" stroke="#80d856" stroke-width="2" d="M1317,-628C1317,-628 1255,-628 1255,-628 1249,-628 1243,-622 1243,-616 1243,-616 1243,-604 1243,-604 1243,-598 1249,-592 1255,-592 1255,-592 1317,-592 1317,-592 1323,-592 1329,-598 1329,-604 1329,-604 1329,-616 1329,-616 1329,-622 1323,-628 1317,-628"/>
<text text-anchor="middle" x="1286" y="-607.5" font-family="sans" font-size="10.00">samtools_sort</text>
</g>
<!-- 41&#45;&gt;32 -->
<g id="edge72" class="edge">
<title>41&#45;&gt;32</title>
<path fill="none" stroke="grey" stroke-width="2" d="M1298.85,-591.93C1310.85,-573.76 1325.47,-544.33 1315,-520 1310.21,-508.87 1301.81,-498.99 1292.95,-490.86"/>
<polygon fill="grey" stroke="grey" stroke-width="2" points="1295,-488.01 1285.12,-484.18 1290.46,-493.34 1295,-488.01"/>
</g>
<!-- 42 -->
<g id="node43" class="node">
<title>42</title>
<path fill="none" stroke="#56b9d8" stroke-width="2" d="M1294,-556C1294,-556 1224,-556 1224,-556 1218,-556 1212,-550 1212,-544 1212,-544 1212,-532 1212,-532 1212,-526 1218,-520 1224,-520 1224,-520 1294,-520 1294,-520 1300,-520 1306,-526 1306,-532 1306,-532 1306,-544 1306,-544 1306,-550 1300,-556 1294,-556"/>
<text text-anchor="middle" x="1259" y="-535.5" font-family="sans" font-size="10.00">samtools_index</text>
</g>
<!-- 41&#45;&gt;42 -->
<g id="edge92" class="edge">
<title>41&#45;&gt;42</title>
<path fill="none" stroke="grey" stroke-width="2" d="M1279.33,-591.7C1276.29,-583.81 1272.62,-574.3 1269.24,-565.55"/>
<polygon fill="grey" stroke="grey" stroke-width="2" points="1272.46,-564.17 1265.6,-556.1 1265.93,-566.69 1272.46,-564.17"/>
</g>
<!-- 42&#45;&gt;32 -->
<g id="edge74" class="edge">
<title>42&#45;&gt;32</title>
<path fill="none" stroke="grey" stroke-width="2" d="M1259,-519.7C1259,-511.98 1259,-502.71 1259,-494.11"/>
<polygon fill="grey" stroke="grey" stroke-width="2" points="1262.5,-494.1 1259,-484.1 1255.5,-494.1 1262.5,-494.1"/>
</g>
<!-- 43 -->
<g id="node44" class="node">
<title>43</title>
<path fill="none" stroke="#80d856" stroke-width="2" d="M1843,-628C1843,-628 1781,-628 1781,-628 1775,-628 1769,-622 1769,-616 1769,-616 1769,-604 1769,-604 1769,-598 1775,-592 1781,-592 1781,-592 1843,-592 1843,-592 1849,-592 1855,-598 1855,-604 1855,-604 1855,-616 1855,-616 1855,-622 1849,-628 1843,-628"/>
<text text-anchor="middle" x="1812" y="-607.5" font-family="sans" font-size="10.00">samtools_sort</text>
</g>
<!-- 43&#45;&gt;33 -->
<g id="edge75" class="edge">
<title>43&#45;&gt;33</title>
<path fill="none" stroke="grey" stroke-width="2" d="M1833.81,-591.97C1844.2,-582.56 1855.72,-569.96 1862,-556 1870.69,-536.7 1872.39,-512.69 1872.08,-494.47"/>
<polygon fill="grey" stroke="grey" stroke-width="2" points="1875.57,-494.09 1871.69,-484.23 1868.57,-494.36 1875.57,-494.09"/>
</g>
<!-- 44 -->
<g id="node45" class="node">
<title>44</title>
<path fill="none" stroke="#56b9d8" stroke-width="2" d="M1841,-556C1841,-556 1771,-556 1771,-556 1765,-556 1759,-550 1759,-544 1759,-544 1759,-532 1759,-532 1759,-526 1765,-520 1771,-520 1771,-520 1841,-520 1841,-520 1847,-520 1853,-526 1853,-532 1853,-532 1853,-544 1853,-544 1853,-550 1847,-556 1841,-556"/>
<text text-anchor="middle" x="1806" y="-535.5" font-family="sans" font-size="10.00">samtools_index</text>
</g>
<!-- 43&#45;&gt;44 -->
<g id="edge94" class="edge">
<title>43&#45;&gt;44</title>
<path fill="none" stroke="grey" stroke-width="2" d="M1810.52,-591.7C1809.86,-583.98 1809.06,-574.71 1808.32,-566.11"/>
<polygon fill="grey" stroke="grey" stroke-width="2" points="1811.81,-565.77 1807.47,-556.1 1804.83,-566.37 1811.81,-565.77"/>
</g>
<!-- 44&#45;&gt;33 -->
<g id="edge77" class="edge">
<title>44&#45;&gt;33</title>
<path fill="none" stroke="grey" stroke-width="2" d="M1821.82,-519.7C1829.57,-511.22 1839.04,-500.86 1847.52,-491.58"/>
<polygon fill="grey" stroke="grey" stroke-width="2" points="1850.2,-493.85 1854.36,-484.1 1845.03,-489.12 1850.2,-493.85"/>
</g>
<!-- 45&#45;&gt;34 -->
<g id="edge78" class="edge">
<title>45&#45;&gt;34</title>
<path fill="none" stroke="grey" stroke-width="2" d="M2216.72,-807.7C2217.93,-799.98 2219.39,-790.71 2220.74,-782.11"/>
<polygon fill="grey" stroke="grey" stroke-width="2" points="2224.22,-782.53 2222.31,-772.1 2217.3,-781.44 2224.22,-782.53"/>
</g>
<!-- 46&#45;&gt;36 -->
<g id="edge82" class="edge">
<title>46&#45;&gt;36</title>
<path fill="none" stroke="grey" stroke-width="2" d="M322.64,-383.41C288.82,-373.07 233.99,-356.32 190.66,-343.07"/>
<polygon fill="grey" stroke="grey" stroke-width="2" points="191.62,-339.71 181.04,-340.13 189.58,-346.4 191.62,-339.71"/>
</g>
<!-- 46&#45;&gt;37 -->
<g id="edge85" class="edge">
<title>46&#45;&gt;37</title>
<path fill="none" stroke="grey" stroke-width="2" d="M349.8,-375.7C347.9,-367.9 345.62,-358.51 343.52,-349.83"/>
<polygon fill="grey" stroke="grey" stroke-width="2" points="346.92,-349 341.15,-340.1 340.11,-350.65 346.92,-349"/>
</g>
<!-- 46&#45;&gt;38 -->
<g id="edge88" class="edge">
<title>46&#45;&gt;38</title>
<path fill="none" stroke="grey" stroke-width="2" d="M385.33,-381.75C413.97,-371.47 457.02,-356.02 491.79,-343.54"/>
<polygon fill="grey" stroke="grey" stroke-width="2" points="493.12,-346.78 501.35,-340.1 490.76,-340.19 493.12,-346.78"/>
</g>
<!-- 47&#45;&gt;39 -->
<g id="edge89" class="edge">
<title>47&#45;&gt;39</title>
<path fill="none" stroke="grey" stroke-width="2" d="M1018,-663.7C1018,-655.98 1018,-646.71 1018,-638.11"/>
<polygon fill="grey" stroke="grey" stroke-width="2" points="1021.5,-638.1 1018,-628.1 1014.5,-638.1 1021.5,-638.1"/>
</g>
<!-- 48&#45;&gt;41 -->
<g id="edge91" class="edge">
<title>48&#45;&gt;41</title>
<path fill="none" stroke="grey" stroke-width="2" d="M1286,-663.7C1286,-655.98 1286,-646.71 1286,-638.11"/>
<polygon fill="grey" stroke="grey" stroke-width="2" points="1289.5,-638.1 1286,-628.1 1282.5,-638.1 1289.5,-638.1"/>
</g>
<!-- 49&#45;&gt;43 -->
<g id="edge93" class="edge">
<title>49&#45;&gt;43</title>
<path fill="none" stroke="grey" stroke-width="2" d="M1812,-663.7C1812,-655.98 1812,-646.71 1812,-638.11"/>
<polygon fill="grey" stroke="grey" stroke-width="2" points="1815.5,-638.1 1812,-628.1 1808.5,-638.1 1815.5,-638.1"/>
</g>
<!-- 50&#45;&gt;47 -->
<g id="edge97" class="edge">
<title>50&#45;&gt;47</title>
<path fill="none" stroke="grey" stroke-width="2" d="M1057.9,-735.7C1051.61,-727.39 1043.95,-717.28 1037.04,-708.14"/>
<polygon fill="grey" stroke="grey" stroke-width="2" points="1039.78,-705.96 1030.95,-700.1 1034.2,-710.19 1039.78,-705.96"/>
</g>
<!-- 51&#45;&gt;48 -->
<g id="edge99" class="edge">
<title>51&#45;&gt;48</title>
<path fill="none" stroke="grey" stroke-width="2" d="M1336.44,-735.7C1328.32,-727.22 1318.41,-716.86 1309.53,-707.58"/>
<polygon fill="grey" stroke="grey" stroke-width="2" points="1311.81,-704.91 1302.37,-700.1 1306.76,-709.75 1311.81,-704.91"/>
</g>
<!-- 52&#45;&gt;49 -->
<g id="edge101" class="edge">
<title>52&#45;&gt;49</title>
<path fill="none" stroke="grey" stroke-width="2" d="M1805.22,-735.7C1806.22,-727.98 1807.41,-718.71 1808.51,-710.11"/>
<polygon fill="grey" stroke="grey" stroke-width="2" points="1812,-710.47 1809.8,-700.1 1805.05,-709.58 1812,-710.47"/>
</g>
</g>
</svg>
