<?xml version="1.0" encoding="UTF-8" standalone="no"?>
<!DOCTYPE svg PUBLIC "-//W3C//DTD SVG 1.1//EN"
 "http://www.w3.org/Graphics/SVG/1.1/DTD/svg11.dtd">
<!-- Generated by graphviz version 2.43.0 (0)
 -->
<!-- Title: snakemake_dag Pages: 1 -->
<svg width="1853pt" height="836pt"
 viewBox="0.00 0.00 1853.00 836.00" xmlns="http://www.w3.org/2000/svg" xmlns:xlink="http://www.w3.org/1999/xlink">
<g id="graph0" class="graph" transform="scale(1 1) rotate(0) translate(4 832)">
<title>snakemake_dag</title>
<polygon fill="white" stroke="transparent" points="-4,4 -4,-832 1849,-832 1849,4 -4,4"/>
<!-- 0 -->
<g id="node1" class="node">
<title>0</title>
<path fill="none" stroke="#d89556" stroke-width="2" d="M554,-36C554,-36 524,-36 524,-36 518,-36 512,-30 512,-24 512,-24 512,-12 512,-12 512,-6 518,0 524,0 524,0 554,0 554,0 560,0 566,-6 566,-12 566,-12 566,-24 566,-24 566,-30 560,-36 554,-36"/>
<text text-anchor="middle" x="539" y="-15.5" font-family="sans" font-size="10.00">all</text>
</g>
<!-- 1 -->
<g id="node2" class="node">
<title>1</title>
<path fill="none" stroke="#d8c356" stroke-width="2" d="M710.5,-108C710.5,-108 623.5,-108 623.5,-108 617.5,-108 611.5,-102 611.5,-96 611.5,-96 611.5,-84 611.5,-84 611.5,-78 617.5,-72 623.5,-72 623.5,-72 710.5,-72 710.5,-72 716.5,-72 722.5,-78 722.5,-84 722.5,-84 722.5,-96 722.5,-96 722.5,-102 716.5,-108 710.5,-108"/>
<text text-anchor="middle" x="667" y="-93" font-family="sans" font-size="10.00">cp_vcfs</text>
<text text-anchor="middle" x="667" y="-82" font-family="sans" font-size="10.00">caller2mv: mutect2</text>
</g>
<!-- 1&#45;&gt;0 -->
<g id="edge1" class="edge">
<title>1&#45;&gt;0</title>
<path fill="none" stroke="grey" stroke-width="2" d="M635.69,-71.88C617.37,-61.86 594.17,-49.17 575.08,-38.73"/>
<polygon fill="grey" stroke="grey" stroke-width="2" points="576.54,-35.54 566.09,-33.81 573.18,-41.68 576.54,-35.54"/>
</g>
<!-- 2 -->
<g id="node3" class="node">
<title>2</title>
<path fill="none" stroke="#d8c356" stroke-width="2" d="M958.5,-108C958.5,-108 863.5,-108 863.5,-108 857.5,-108 851.5,-102 851.5,-96 851.5,-96 851.5,-84 851.5,-84 851.5,-78 857.5,-72 863.5,-72 863.5,-72 958.5,-72 958.5,-72 964.5,-72 970.5,-78 970.5,-84 970.5,-84 970.5,-96 970.5,-96 970.5,-102 964.5,-108 958.5,-108"/>
<text text-anchor="middle" x="911" y="-93" font-family="sans" font-size="10.00">cp_vcfs</text>
<text text-anchor="middle" x="911" y="-82" font-family="sans" font-size="10.00">caller2mv: freebayes</text>
</g>
<!-- 2&#45;&gt;0 -->
<g id="edge2" class="edge">
<title>2&#45;&gt;0</title>
<path fill="none" stroke="grey" stroke-width="2" d="M851.22,-74.01C848.11,-73.31 845.02,-72.64 842,-72 746.8,-51.97 633.67,-33.61 576.32,-24.69"/>
<polygon fill="grey" stroke="grey" stroke-width="2" points="576.7,-21.2 566.28,-23.13 575.63,-28.12 576.7,-21.2"/>
</g>
<!-- 3 -->
<g id="node4" class="node">
<title>3</title>
<path fill="none" stroke="#d8c356" stroke-width="2" d="M821,-108C821,-108 753,-108 753,-108 747,-108 741,-102 741,-96 741,-96 741,-84 741,-84 741,-78 747,-72 753,-72 753,-72 821,-72 821,-72 827,-72 833,-78 833,-84 833,-84 833,-96 833,-96 833,-102 827,-108 821,-108"/>
<text text-anchor="middle" x="787" y="-93" font-family="sans" font-size="10.00">cp_vcfs</text>
<text text-anchor="middle" x="787" y="-82" font-family="sans" font-size="10.00">caller2mv: gatk</text>
</g>
<!-- 3&#45;&gt;0 -->
<g id="edge3" class="edge">
<title>3&#45;&gt;0</title>
<path fill="none" stroke="grey" stroke-width="2" d="M740.88,-74.9C737.54,-73.91 734.22,-72.93 731,-72 677.19,-56.41 614.58,-39.32 575.87,-28.88"/>
<polygon fill="grey" stroke="grey" stroke-width="2" points="576.65,-25.47 566.09,-26.24 574.83,-32.23 576.65,-25.47"/>
</g>
<!-- 4 -->
<g id="node5" class="node">
<title>4</title>
<path fill="none" stroke="#d8c356" stroke-width="2" d="M296,-108C296,-108 210,-108 210,-108 204,-108 198,-102 198,-96 198,-96 198,-84 198,-84 198,-78 204,-72 210,-72 210,-72 296,-72 296,-72 302,-72 308,-78 308,-84 308,-84 308,-96 308,-96 308,-102 302,-108 296,-108"/>
<text text-anchor="middle" x="253" y="-93" font-family="sans" font-size="10.00">cp_vcfs</text>
<text text-anchor="middle" x="253" y="-82" font-family="sans" font-size="10.00">caller2mv: strelka2</text>
</g>
<!-- 4&#45;&gt;0 -->
<g id="edge4" class="edge">
<title>4&#45;&gt;0</title>
<path fill="none" stroke="grey" stroke-width="2" d="M308.14,-74.26C311.13,-73.49 314.1,-72.73 317,-72 381.92,-55.63 457.84,-37.78 501.97,-27.54"/>
<polygon fill="grey" stroke="grey" stroke-width="2" points="503,-30.89 511.95,-25.23 501.42,-24.07 503,-30.89"/>
</g>
<!-- 5 -->
<g id="node6" class="node">
<title>5</title>
<path fill="none" stroke="#d8c356" stroke-width="2" d="M416,-108C416,-108 338,-108 338,-108 332,-108 326,-102 326,-96 326,-96 326,-84 326,-84 326,-78 332,-72 338,-72 338,-72 416,-72 416,-72 422,-72 428,-78 428,-84 428,-84 428,-96 428,-96 428,-102 422,-108 416,-108"/>
<text text-anchor="middle" x="377" y="-93" font-family="sans" font-size="10.00">cp_vcfs</text>
<text text-anchor="middle" x="377" y="-82" font-family="sans" font-size="10.00">caller2mv: manta</text>
</g>
<!-- 5&#45;&gt;0 -->
<g id="edge5" class="edge">
<title>5&#45;&gt;0</title>
<path fill="none" stroke="grey" stroke-width="2" d="M416.63,-71.88C442.88,-60.53 477.05,-45.77 502.6,-34.73"/>
<polygon fill="grey" stroke="grey" stroke-width="2" points="504.15,-37.87 511.94,-30.69 501.38,-31.44 504.15,-37.87"/>
</g>
<!-- 6 -->
<g id="node7" class="node">
<title>6</title>
<path fill="none" stroke="#d8c356" stroke-width="2" d="M581.5,-108C581.5,-108 496.5,-108 496.5,-108 490.5,-108 484.5,-102 484.5,-96 484.5,-96 484.5,-84 484.5,-84 484.5,-78 490.5,-72 496.5,-72 496.5,-72 581.5,-72 581.5,-72 587.5,-72 593.5,-78 593.5,-84 593.5,-84 593.5,-96 593.5,-96 593.5,-102 587.5,-108 581.5,-108"/>
<text text-anchor="middle" x="539" y="-93" font-family="sans" font-size="10.00">cp_vcfs</text>
<text text-anchor="middle" x="539" y="-82" font-family="sans" font-size="10.00">caller2mv: varscan</text>
</g>
<!-- 6&#45;&gt;0 -->
<g id="edge6" class="edge">
<title>6&#45;&gt;0</title>
<path fill="none" stroke="grey" stroke-width="2" d="M539,-71.7C539,-63.98 539,-54.71 539,-46.11"/>
<polygon fill="grey" stroke="grey" stroke-width="2" points="542.5,-46.1 539,-36.1 535.5,-46.1 542.5,-46.1"/>
</g>
<!-- 7 -->
<g id="node8" class="node">
<title>7</title>
<path fill="none" stroke="#d8c356" stroke-width="2" d="M500,-180C500,-180 384,-180 384,-180 378,-180 372,-174 372,-168 372,-168 372,-156 372,-156 372,-150 378,-144 384,-144 384,-144 500,-144 500,-144 506,-144 512,-150 512,-156 512,-156 512,-168 512,-168 512,-174 506,-180 500,-180"/>
<text text-anchor="middle" x="442" y="-165" font-family="sans" font-size="10.00">cp_vcfs</text>
<text text-anchor="middle" x="442" y="-154" font-family="sans" font-size="10.00">caller2mv: somaticsniper</text>
</g>
<!-- 7&#45;&gt;0 -->
<g id="edge7" class="edge">
<title>7&#45;&gt;0</title>
<path fill="none" stroke="grey" stroke-width="2" d="M445.58,-143.66C450.1,-124.74 459.27,-94.18 475,-72 482.98,-60.75 493.93,-50.51 504.52,-42.09"/>
<polygon fill="grey" stroke="grey" stroke-width="2" points="506.65,-44.87 512.49,-36.03 502.41,-39.3 506.65,-44.87"/>
</g>
<!-- 8 -->
<g id="node9" class="node">
<title>8</title>
<path fill="none" stroke="#d8c356" stroke-width="2" d="M164,-180C164,-180 90,-180 90,-180 84,-180 78,-174 78,-168 78,-168 78,-156 78,-156 78,-150 84,-144 90,-144 90,-144 164,-144 164,-144 170,-144 176,-150 176,-156 176,-156 176,-168 176,-168 176,-174 170,-180 164,-180"/>
<text text-anchor="middle" x="127" y="-165" font-family="sans" font-size="10.00">cp_vcfs</text>
<text text-anchor="middle" x="127" y="-154" font-family="sans" font-size="10.00">caller2mv: muse</text>
</g>
<!-- 8&#45;&gt;0 -->
<g id="edge8" class="edge">
<title>8&#45;&gt;0</title>
<path fill="none" stroke="grey" stroke-width="2" d="M133.92,-143.7C143.18,-123 161.65,-89 189,-72 240.82,-39.78 422.85,-25.65 501.9,-20.94"/>
<polygon fill="grey" stroke="grey" stroke-width="2" points="502.12,-24.43 511.9,-20.36 501.72,-17.44 502.12,-24.43"/>
</g>
<!-- 9 -->
<g id="node10" class="node">
<title>9</title>
<path fill="none" stroke="#56d8b9" stroke-width="2" d="M1565,-324C1565,-324 1535,-324 1535,-324 1529,-324 1523,-318 1523,-312 1523,-312 1523,-300 1523,-300 1523,-294 1529,-288 1535,-288 1535,-288 1565,-288 1565,-288 1571,-288 1577,-294 1577,-300 1577,-300 1577,-312 1577,-312 1577,-318 1571,-324 1565,-324"/>
<text text-anchor="middle" x="1550" y="-303.5" font-family="sans" font-size="10.00">multiqc</text>
</g>
<!-- 9&#45;&gt;0 -->
<g id="edge9" class="edge">
<title>9&#45;&gt;0</title>
<path fill="none" stroke="grey" stroke-width="2" d="M1522.97,-290.9C1442.62,-249.64 1197.17,-128.56 979,-72 833.18,-34.2 653.04,-23.22 576.37,-20.14"/>
<polygon fill="grey" stroke="grey" stroke-width="2" points="576.38,-16.64 566.25,-19.76 576.11,-23.64 576.38,-16.64"/>
</g>
<!-- 10 -->
<g id="node11" class="node">
<title>10</title>
<path fill="none" stroke="#afd856" stroke-width="2" d="M724,-324C724,-324 664,-324 664,-324 658,-324 652,-318 652,-312 652,-312 652,-300 652,-300 652,-294 658,-288 664,-288 664,-288 724,-288 724,-288 730,-288 736,-294 736,-300 736,-300 736,-312 736,-312 736,-318 730,-324 724,-324"/>
<text text-anchor="middle" x="694" y="-303.5" font-family="sans" font-size="10.00">gatk_mutect2</text>
</g>
<!-- 10&#45;&gt;1 -->
<g id="edge10" class="edge">
<title>10&#45;&gt;1</title>
<path fill="none" stroke="grey" stroke-width="2" d="M691.84,-287.85C687.17,-250.83 676.11,-163.18 670.46,-118.39"/>
<polygon fill="grey" stroke="grey" stroke-width="2" points="673.9,-117.72 669.17,-108.23 666.95,-118.59 673.9,-117.72"/>
</g>
<!-- 11 -->
<g id="node12" class="node">
<title>11</title>
<path fill="none" stroke="#d8d356" stroke-width="2" d="M962.5,-252C962.5,-252 859.5,-252 859.5,-252 853.5,-252 847.5,-246 847.5,-240 847.5,-240 847.5,-228 847.5,-228 847.5,-222 853.5,-216 859.5,-216 859.5,-216 962.5,-216 962.5,-216 968.5,-216 974.5,-222 974.5,-228 974.5,-228 974.5,-240 974.5,-240 974.5,-246 968.5,-252 962.5,-252"/>
<text text-anchor="middle" x="911" y="-237" font-family="sans" font-size="10.00">bedtools_substract</text>
<text text-anchor="middle" x="911" y="-226" font-family="sans" font-size="10.00">caller2filter: freebayes</text>
</g>
<!-- 11&#45;&gt;2 -->
<g id="edge11" class="edge">
<title>11&#45;&gt;2</title>
<path fill="none" stroke="grey" stroke-width="2" d="M911,-215.87C911,-191.67 911,-147.21 911,-118.39"/>
<polygon fill="grey" stroke="grey" stroke-width="2" points="914.5,-118.19 911,-108.19 907.5,-118.19 914.5,-118.19"/>
</g>
<!-- 12 -->
<g id="node13" class="node">
<title>12</title>
<path fill="none" stroke="#d8d356" stroke-width="2" d="M829.5,-180C829.5,-180 744.5,-180 744.5,-180 738.5,-180 732.5,-174 732.5,-168 732.5,-168 732.5,-156 732.5,-156 732.5,-150 738.5,-144 744.5,-144 744.5,-144 829.5,-144 829.5,-144 835.5,-144 841.5,-150 841.5,-156 841.5,-156 841.5,-168 841.5,-168 841.5,-174 835.5,-180 829.5,-180"/>
<text text-anchor="middle" x="787" y="-165" font-family="sans" font-size="10.00">bedtools_substract</text>
<text text-anchor="middle" x="787" y="-154" font-family="sans" font-size="10.00">caller2filter: gatk</text>
</g>
<!-- 12&#45;&gt;3 -->
<g id="edge12" class="edge">
<title>12&#45;&gt;3</title>
<path fill="none" stroke="grey" stroke-width="2" d="M787,-143.7C787,-135.98 787,-126.71 787,-118.11"/>
<polygon fill="grey" stroke="grey" stroke-width="2" points="790.5,-118.1 787,-108.1 783.5,-118.1 790.5,-118.1"/>
</g>
<!-- 13 -->
<g id="node14" class="node">
<title>13</title>
<path fill="none" stroke="#d8d356" stroke-width="2" d="M299.5,-180C299.5,-180 206.5,-180 206.5,-180 200.5,-180 194.5,-174 194.5,-168 194.5,-168 194.5,-156 194.5,-156 194.5,-150 200.5,-144 206.5,-144 206.5,-144 299.5,-144 299.5,-144 305.5,-144 311.5,-150 311.5,-156 311.5,-156 311.5,-168 311.5,-168 311.5,-174 305.5,-180 299.5,-180"/>
<text text-anchor="middle" x="253" y="-165" font-family="sans" font-size="10.00">bedtools_substract</text>
<text text-anchor="middle" x="253" y="-154" font-family="sans" font-size="10.00">caller2filter: strelka2</text>
</g>
<!-- 13&#45;&gt;4 -->
<g id="edge13" class="edge">
<title>13&#45;&gt;4</title>
<path fill="none" stroke="grey" stroke-width="2" d="M253,-143.7C253,-135.98 253,-126.71 253,-118.11"/>
<polygon fill="grey" stroke="grey" stroke-width="2" points="256.5,-118.1 253,-108.1 249.5,-118.1 256.5,-118.1"/>
</g>
<!-- 14 -->
<g id="node15" class="node">
<title>14</title>
<path fill="none" stroke="#8fd856" stroke-width="2" d="M366,-324C366,-324 336,-324 336,-324 330,-324 324,-318 324,-312 324,-312 324,-300 324,-300 324,-294 330,-288 336,-288 336,-288 366,-288 366,-288 372,-288 378,-294 378,-300 378,-300 378,-312 378,-312 378,-318 372,-324 366,-324"/>
<text text-anchor="middle" x="351" y="-303.5" font-family="sans" font-size="10.00">manta</text>
</g>
<!-- 14&#45;&gt;5 -->
<g id="edge14" class="edge">
<title>14&#45;&gt;5</title>
<path fill="none" stroke="grey" stroke-width="2" d="M351.24,-287.96C351.89,-258.44 354.28,-195.97 363,-144 364.46,-135.33 366.69,-126.01 368.94,-117.64"/>
<polygon fill="grey" stroke="grey" stroke-width="2" points="372.31,-118.59 371.65,-108.01 365.57,-116.69 372.31,-118.59"/>
</g>
<!-- 30 -->
<g id="node31" class="node">
<title>30</title>
<path fill="none" stroke="#d8b456" stroke-width="2" d="M300,-252C300,-252 268,-252 268,-252 262,-252 256,-246 256,-240 256,-240 256,-228 256,-228 256,-222 262,-216 268,-216 268,-216 300,-216 300,-216 306,-216 312,-222 312,-228 312,-228 312,-240 312,-240 312,-246 306,-252 300,-252"/>
<text text-anchor="middle" x="284" y="-231.5" font-family="sans" font-size="10.00">strelka2</text>
</g>
<!-- 14&#45;&gt;30 -->
<g id="edge69" class="edge">
<title>14&#45;&gt;30</title>
<path fill="none" stroke="grey" stroke-width="2" d="M334.44,-287.7C326.32,-279.22 316.41,-268.86 307.53,-259.58"/>
<polygon fill="grey" stroke="grey" stroke-width="2" points="309.81,-256.91 300.37,-252.1 304.76,-261.75 309.81,-256.91"/>
</g>
<!-- 15 -->
<g id="node16" class="node">
<title>15</title>
<path fill="none" stroke="#56d8a9" stroke-width="2" d="M594,-180C594,-180 542,-180 542,-180 536,-180 530,-174 530,-168 530,-168 530,-156 530,-156 530,-150 536,-144 542,-144 542,-144 594,-144 594,-144 600,-144 606,-150 606,-156 606,-156 606,-168 606,-168 606,-174 600,-180 594,-180"/>
<text text-anchor="middle" x="568" y="-159.5" font-family="sans" font-size="10.00">varscan2vcf</text>
</g>
<!-- 15&#45;&gt;6 -->
<g id="edge15" class="edge">
<title>15&#45;&gt;6</title>
<path fill="none" stroke="grey" stroke-width="2" d="M560.83,-143.7C557.57,-135.81 553.63,-126.3 550,-117.55"/>
<polygon fill="grey" stroke="grey" stroke-width="2" points="553.15,-116 546.09,-108.1 546.68,-118.68 553.15,-116"/>
</g>
<!-- 16 -->
<g id="node17" class="node">
<title>16</title>
<path fill="none" stroke="#d8d356" stroke-width="2" d="M503.5,-252C503.5,-252 380.5,-252 380.5,-252 374.5,-252 368.5,-246 368.5,-240 368.5,-240 368.5,-228 368.5,-228 368.5,-222 374.5,-216 380.5,-216 380.5,-216 503.5,-216 503.5,-216 509.5,-216 515.5,-222 515.5,-228 515.5,-228 515.5,-240 515.5,-240 515.5,-246 509.5,-252 503.5,-252"/>
<text text-anchor="middle" x="442" y="-237" font-family="sans" font-size="10.00">bedtools_substract</text>
<text text-anchor="middle" x="442" y="-226" font-family="sans" font-size="10.00">caller2filter: somaticsniper</text>
</g>
<!-- 16&#45;&gt;7 -->
<g id="edge16" class="edge">
<title>16&#45;&gt;7</title>
<path fill="none" stroke="grey" stroke-width="2" d="M442,-215.7C442,-207.98 442,-198.71 442,-190.11"/>
<polygon fill="grey" stroke="grey" stroke-width="2" points="445.5,-190.1 442,-180.1 438.5,-190.1 445.5,-190.1"/>
</g>
<!-- 17 -->
<g id="node18" class="node">
<title>17</title>
<path fill="none" stroke="#56a2d8" stroke-width="2" d="M188,-324C188,-324 158,-324 158,-324 152,-324 146,-318 146,-312 146,-312 146,-300 146,-300 146,-294 152,-288 158,-288 158,-288 188,-288 188,-288 194,-288 200,-294 200,-300 200,-300 200,-312 200,-312 200,-318 194,-324 188,-324"/>
<text text-anchor="middle" x="173" y="-303.5" font-family="sans" font-size="10.00">muse</text>
</g>
<!-- 17&#45;&gt;8 -->
<g id="edge17" class="edge">
<title>17&#45;&gt;8</title>
<path fill="none" stroke="grey" stroke-width="2" d="M167.45,-287.87C159.58,-263.56 145.08,-218.82 135.75,-190.01"/>
<polygon fill="grey" stroke="grey" stroke-width="2" points="138.98,-188.62 132.57,-180.19 132.32,-190.78 138.98,-188.62"/>
</g>
<!-- 18 -->
<g id="node19" class="node">
<title>18</title>
<path fill="none" stroke="#56d89a" stroke-width="2" d="M1833,-684C1833,-684 1803,-684 1803,-684 1797,-684 1791,-678 1791,-672 1791,-672 1791,-660 1791,-660 1791,-654 1797,-648 1803,-648 1803,-648 1833,-648 1833,-648 1839,-648 1845,-654 1845,-660 1845,-660 1845,-672 1845,-672 1845,-678 1839,-684 1833,-684"/>
<text text-anchor="middle" x="1818" y="-663.5" font-family="sans" font-size="10.00">fastqc</text>
</g>
<!-- 18&#45;&gt;9 -->
<g id="edge18" class="edge">
<title>18&#45;&gt;9</title>
<path fill="none" stroke="grey" stroke-width="2" d="M1816.87,-647.74C1812.58,-596.39 1792.92,-443.03 1708,-360 1675.24,-327.97 1622.55,-315.28 1587.12,-310.27"/>
<polygon fill="grey" stroke="grey" stroke-width="2" points="1587.53,-306.79 1577.17,-309 1586.64,-313.74 1587.53,-306.79"/>
</g>
<!-- 19 -->
<g id="node20" class="node">
<title>19</title>
<path fill="none" stroke="#d85656" stroke-width="2" d="M1723,-756C1723,-756 1667,-756 1667,-756 1661,-756 1655,-750 1655,-744 1655,-744 1655,-732 1655,-732 1655,-726 1661,-720 1667,-720 1667,-720 1723,-720 1723,-720 1729,-720 1735,-726 1735,-732 1735,-732 1735,-744 1735,-744 1735,-750 1729,-756 1723,-756"/>
<text text-anchor="middle" x="1695" y="-735.5" font-family="sans" font-size="10.00">trimmomatic</text>
</g>
<!-- 19&#45;&gt;9 -->
<g id="edge19" class="edge">
<title>19&#45;&gt;9</title>
<path fill="none" stroke="grey" stroke-width="2" d="M1694.8,-719.95C1694.51,-693.29 1694,-640.12 1694,-595 1694,-595 1694,-595 1694,-449 1694,-408.03 1696.68,-391.09 1670,-360 1648.76,-335.25 1613.73,-321.6 1586.99,-314.38"/>
<polygon fill="grey" stroke="grey" stroke-width="2" points="1587.74,-310.97 1577.19,-311.92 1586.04,-317.75 1587.74,-310.97"/>
</g>
<!-- 38 -->
<g id="node39" class="node">
<title>38</title>
<path fill="none" stroke="#56d86b" stroke-width="2" d="M1310,-684C1310,-684 1266,-684 1266,-684 1260,-684 1254,-678 1254,-672 1254,-672 1254,-660 1254,-660 1254,-654 1260,-648 1266,-648 1266,-648 1310,-648 1310,-648 1316,-648 1322,-654 1322,-660 1322,-660 1322,-672 1322,-672 1322,-678 1316,-684 1310,-684"/>
<text text-anchor="middle" x="1288" y="-663.5" font-family="sans" font-size="10.00">bwa_mem</text>
</g>
<!-- 19&#45;&gt;38 -->
<g id="edge88" class="edge">
<title>19&#45;&gt;38</title>
<path fill="none" stroke="grey" stroke-width="2" d="M1654.86,-730.1C1578.28,-716.93 1411.87,-688.3 1332.22,-674.6"/>
<polygon fill="grey" stroke="grey" stroke-width="2" points="1332.48,-671.1 1322.03,-672.85 1331.29,-678 1332.48,-671.1"/>
</g>
<!-- 20 -->
<g id="node21" class="node">
<title>20</title>
<path fill="none" stroke="#ced856" stroke-width="2" d="M1459.5,-396C1459.5,-396 1392.5,-396 1392.5,-396 1386.5,-396 1380.5,-390 1380.5,-384 1380.5,-384 1380.5,-372 1380.5,-372 1380.5,-366 1386.5,-360 1392.5,-360 1392.5,-360 1459.5,-360 1459.5,-360 1465.5,-360 1471.5,-366 1471.5,-372 1471.5,-372 1471.5,-384 1471.5,-384 1471.5,-390 1465.5,-396 1459.5,-396"/>
<text text-anchor="middle" x="1426" y="-375.5" font-family="sans" font-size="10.00">samtools_stats</text>
</g>
<!-- 20&#45;&gt;9 -->
<g id="edge20" class="edge">
<title>20&#45;&gt;9</title>
<path fill="none" stroke="grey" stroke-width="2" d="M1456.33,-359.88C1473.75,-350.04 1495.73,-337.64 1514.02,-327.31"/>
<polygon fill="grey" stroke="grey" stroke-width="2" points="1515.95,-330.24 1522.93,-322.28 1512.5,-324.15 1515.95,-330.24"/>
</g>
<!-- 21 -->
<g id="node22" class="node">
<title>21</title>
<path fill="none" stroke="#5673d8" stroke-width="2" d="M1540,-396C1540,-396 1502,-396 1502,-396 1496,-396 1490,-390 1490,-384 1490,-384 1490,-372 1490,-372 1490,-366 1496,-360 1502,-360 1502,-360 1540,-360 1540,-360 1546,-360 1552,-366 1552,-372 1552,-372 1552,-384 1552,-384 1552,-390 1546,-396 1540,-396"/>
<text text-anchor="middle" x="1521" y="-375.5" font-family="sans" font-size="10.00">qualimap</text>
</g>
<!-- 21&#45;&gt;9 -->
<g id="edge21" class="edge">
<title>21&#45;&gt;9</title>
<path fill="none" stroke="grey" stroke-width="2" d="M1528.17,-359.7C1531.43,-351.81 1535.37,-342.3 1539,-333.55"/>
<polygon fill="grey" stroke="grey" stroke-width="2" points="1542.32,-334.68 1542.91,-324.1 1535.85,-332 1542.32,-334.68"/>
</g>
<!-- 22 -->
<g id="node23" class="node">
<title>22</title>
<path fill="none" stroke="#56d87b" stroke-width="2" d="M1221.5,-468C1221.5,-468 1126.5,-468 1126.5,-468 1120.5,-468 1114.5,-462 1114.5,-456 1114.5,-456 1114.5,-444 1114.5,-444 1114.5,-438 1120.5,-432 1126.5,-432 1126.5,-432 1221.5,-432 1221.5,-432 1227.5,-432 1233.5,-438 1233.5,-444 1233.5,-444 1233.5,-456 1233.5,-456 1233.5,-462 1227.5,-468 1221.5,-468"/>
<text text-anchor="middle" x="1174" y="-447.5" font-family="sans" font-size="10.00">gatk_markduplicates</text>
</g>
<!-- 22&#45;&gt;9 -->
<g id="edge22" class="edge">
<title>22&#45;&gt;9</title>
<path fill="none" stroke="grey" stroke-width="2" d="M1233.71,-449.94C1331.53,-450.05 1519.26,-443.84 1561,-396 1575.71,-379.14 1570.44,-353.16 1562.98,-333.61"/>
<polygon fill="grey" stroke="grey" stroke-width="2" points="1566.19,-332.21 1559.1,-324.33 1559.73,-334.91 1566.19,-332.21"/>
</g>
<!-- 22&#45;&gt;10 -->
<g id="edge24" class="edge">
<title>22&#45;&gt;10</title>
<path fill="none" stroke="grey" stroke-width="2" d="M1114.23,-444.8C1049.78,-438.93 944.89,-425.48 859,-396 811.02,-379.53 760.31,-350.13 727.97,-329.64"/>
<polygon fill="grey" stroke="grey" stroke-width="2" points="729.66,-326.57 719.36,-324.12 725.89,-332.47 729.66,-326.57"/>
</g>
<!-- 22&#45;&gt;14 -->
<g id="edge36" class="edge">
<title>22&#45;&gt;14</title>
<path fill="none" stroke="grey" stroke-width="2" d="M1114.48,-446.81C1035.61,-442.61 892.82,-430.53 776,-396 740.16,-385.41 735.74,-370.92 700,-360 589.79,-326.33 453.2,-313.53 388.43,-309.1"/>
<polygon fill="grey" stroke="grey" stroke-width="2" points="388.51,-305.6 378.3,-308.44 388.05,-312.59 388.51,-305.6"/>
</g>
<!-- 22&#45;&gt;17 -->
<g id="edge46" class="edge">
<title>22&#45;&gt;17</title>
<path fill="none" stroke="grey" stroke-width="2" d="M1114.24,-443.5C1023.62,-434.9 846.07,-417.07 696,-396 513.01,-370.31 295.61,-330.22 210.13,-314.08"/>
<polygon fill="grey" stroke="grey" stroke-width="2" points="210.61,-310.61 200.14,-312.19 209.31,-317.49 210.61,-310.61"/>
</g>
<!-- 22&#45;&gt;20 -->
<g id="edge53" class="edge">
<title>22&#45;&gt;20</title>
<path fill="none" stroke="grey" stroke-width="2" d="M1233.72,-432.41C1275.27,-420.87 1330.26,-405.59 1370.79,-394.34"/>
<polygon fill="grey" stroke="grey" stroke-width="2" points="1371.8,-397.69 1380.5,-391.64 1369.93,-390.94 1371.8,-397.69"/>
</g>
<!-- 22&#45;&gt;21 -->
<g id="edge54" class="edge">
<title>22&#45;&gt;21</title>
<path fill="none" stroke="grey" stroke-width="2" d="M1233.54,-442.65C1295.86,-435.09 1396.11,-420.33 1480,-396 1480.1,-395.97 1480.2,-395.94 1480.31,-395.91"/>
<polygon fill="grey" stroke="grey" stroke-width="2" points="1481.53,-399.19 1489.92,-392.72 1479.32,-392.55 1481.53,-399.19"/>
</g>
<!-- 25 -->
<g id="node26" class="node">
<title>25</title>
<path fill="none" stroke="#d8a456" stroke-width="2" d="M1007.5,-396C1007.5,-396 916.5,-396 916.5,-396 910.5,-396 904.5,-390 904.5,-384 904.5,-384 904.5,-372 904.5,-372 904.5,-366 910.5,-360 916.5,-360 916.5,-360 1007.5,-360 1007.5,-360 1013.5,-360 1019.5,-366 1019.5,-372 1019.5,-372 1019.5,-384 1019.5,-384 1019.5,-390 1013.5,-396 1007.5,-396"/>
<text text-anchor="middle" x="962" y="-375.5" font-family="sans" font-size="10.00">samtools_index_md</text>
</g>
<!-- 22&#45;&gt;25 -->
<g id="edge57" class="edge">
<title>22&#45;&gt;25</title>
<path fill="none" stroke="grey" stroke-width="2" d="M1122.41,-431.97C1092.53,-422.1 1054.74,-409.62 1023.34,-399.25"/>
<polygon fill="grey" stroke="grey" stroke-width="2" points="1024.41,-395.92 1013.82,-396.11 1022.22,-402.57 1024.41,-395.92"/>
</g>
<!-- 28 -->
<g id="node29" class="node">
<title>28</title>
<path fill="none" stroke="#70d856" stroke-width="2" d="M1391.5,-324C1391.5,-324 1350.5,-324 1350.5,-324 1344.5,-324 1338.5,-318 1338.5,-312 1338.5,-312 1338.5,-300 1338.5,-300 1338.5,-294 1344.5,-288 1350.5,-288 1350.5,-288 1391.5,-288 1391.5,-288 1397.5,-288 1403.5,-294 1403.5,-300 1403.5,-300 1403.5,-312 1403.5,-312 1403.5,-318 1397.5,-324 1391.5,-324"/>
<text text-anchor="middle" x="1371" y="-303.5" font-family="sans" font-size="10.00">freebayes</text>
</g>
<!-- 22&#45;&gt;28 -->
<g id="edge61" class="edge">
<title>22&#45;&gt;28</title>
<path fill="none" stroke="grey" stroke-width="2" d="M1197.76,-431.87C1232.96,-406.5 1299.06,-358.85 1338.65,-330.32"/>
<polygon fill="grey" stroke="grey" stroke-width="2" points="1341.09,-332.88 1347.15,-324.19 1336.99,-327.2 1341.09,-332.88"/>
</g>
<!-- 22&#45;&gt;30 -->
<g id="edge68" class="edge">
<title>22&#45;&gt;30</title>
<path fill="none" stroke="grey" stroke-width="2" d="M1155.08,-431.83C1115.6,-397.2 1020.11,-319.63 924,-288 804.49,-248.68 483.52,-269.96 359,-252 346.94,-250.26 333.95,-247.6 322.22,-244.9"/>
<polygon fill="grey" stroke="grey" stroke-width="2" points="322.83,-241.45 312.29,-242.53 321.21,-248.26 322.83,-241.45"/>
</g>
<!-- 32 -->
<g id="node33" class="node">
<title>32</title>
<path fill="none" stroke="#d88556" stroke-width="2" d="M869,-324C869,-324 807,-324 807,-324 801,-324 795,-318 795,-312 795,-312 795,-300 795,-300 795,-294 801,-288 807,-288 807,-288 869,-288 869,-288 875,-288 881,-294 881,-300 881,-300 881,-312 881,-312 881,-318 875,-324 869,-324"/>
<text text-anchor="middle" x="838" y="-303.5" font-family="sans" font-size="10.00">somaticsniper</text>
</g>
<!-- 22&#45;&gt;32 -->
<g id="edge74" class="edge">
<title>22&#45;&gt;32</title>
<path fill="none" stroke="grey" stroke-width="2" d="M1114.32,-443.23C1043.34,-435.42 930.03,-419.68 895,-396 872.66,-380.9 857.19,-353.81 848.06,-333.47"/>
<polygon fill="grey" stroke="grey" stroke-width="2" points="851.21,-331.94 844.08,-324.11 844.77,-334.68 851.21,-331.94"/>
</g>
<!-- 36 -->
<g id="node37" class="node">
<title>36</title>
<path fill="none" stroke="#9fd856" stroke-width="2" d="M1308.5,-324C1308.5,-324 1213.5,-324 1213.5,-324 1207.5,-324 1201.5,-318 1201.5,-312 1201.5,-312 1201.5,-300 1201.5,-300 1201.5,-294 1207.5,-288 1213.5,-288 1213.5,-288 1308.5,-288 1308.5,-288 1314.5,-288 1320.5,-294 1320.5,-300 1320.5,-300 1320.5,-312 1320.5,-312 1320.5,-318 1314.5,-324 1308.5,-324"/>
<text text-anchor="middle" x="1261" y="-303.5" font-family="sans" font-size="10.00">gatk_haplotypecaller</text>
</g>
<!-- 22&#45;&gt;36 -->
<g id="edge80" class="edge">
<title>22&#45;&gt;36</title>
<path fill="none" stroke="grey" stroke-width="2" d="M1182.92,-431.98C1192.57,-413.86 1208.64,-384.47 1224,-360 1229.73,-350.88 1236.36,-341.14 1242.42,-332.54"/>
<polygon fill="grey" stroke="grey" stroke-width="2" points="1245.28,-334.55 1248.23,-324.38 1239.58,-330.49 1245.28,-334.55"/>
</g>
<!-- 37 -->
<g id="node38" class="node">
<title>37</title>
<path fill="none" stroke="#80d856" stroke-width="2" d="M1171.5,-324C1171.5,-324 1088.5,-324 1088.5,-324 1082.5,-324 1076.5,-318 1076.5,-312 1076.5,-312 1076.5,-300 1076.5,-300 1076.5,-294 1082.5,-288 1088.5,-288 1088.5,-288 1171.5,-288 1171.5,-288 1177.5,-288 1183.5,-294 1183.5,-300 1183.5,-300 1183.5,-312 1183.5,-312 1183.5,-318 1177.5,-324 1171.5,-324"/>
<text text-anchor="middle" x="1130" y="-303.5" font-family="sans" font-size="10.00">samtools_mpileup</text>
</g>
<!-- 22&#45;&gt;37 -->
<g id="edge84" class="edge">
<title>22&#45;&gt;37</title>
<path fill="none" stroke="grey" stroke-width="2" d="M1168.69,-431.87C1161.16,-407.56 1147.3,-362.82 1138.37,-334.01"/>
<polygon fill="grey" stroke="grey" stroke-width="2" points="1141.63,-332.71 1135.33,-324.19 1134.94,-334.78 1141.63,-332.71"/>
</g>
<!-- 23 -->
<g id="node24" class="node">
<title>23</title>
<path fill="none" stroke="#56c1d8" stroke-width="2" stroke-dasharray="5,2" d="M1147,-828C1147,-828 1091,-828 1091,-828 1085,-828 1079,-822 1079,-816 1079,-816 1079,-804 1079,-804 1079,-798 1085,-792 1091,-792 1091,-792 1147,-792 1147,-792 1153,-792 1159,-798 1159,-804 1159,-804 1159,-816 1159,-816 1159,-822 1153,-828 1147,-828"/>
<text text-anchor="middle" x="1119" y="-807.5" font-family="sans" font-size="10.00">cp_reference</text>
</g>
<!-- 23&#45;&gt;10 -->
<g id="edge23" class="edge">
<title>23&#45;&gt;10</title>
<path fill="none" stroke="grey" stroke-width="2" d="M1078.78,-806.59C986.63,-800.66 762.76,-783.78 693,-756 630.98,-731.3 572,-733.76 572,-667 572,-667 572,-667 572,-449 572,-396.79 620.03,-354.2 655.82,-329.71"/>
<polygon fill="grey" stroke="grey" stroke-width="2" points="657.76,-332.61 664.16,-324.17 653.89,-326.78 657.76,-332.61"/>
</g>
<!-- 23&#45;&gt;14 -->
<g id="edge35" class="edge">
<title>23&#45;&gt;14</title>
<path fill="none" stroke="grey" stroke-width="2" d="M1078.98,-807.64C892.06,-800.77 114,-766.23 114,-667 114,-667 114,-667 114,-449 114,-357.03 246.95,-323.17 313.7,-311.96"/>
<polygon fill="grey" stroke="grey" stroke-width="2" points="314.49,-315.38 323.81,-310.36 313.39,-308.47 314.49,-315.38"/>
</g>
<!-- 23&#45;&gt;17 -->
<g id="edge45" class="edge">
<title>23&#45;&gt;17</title>
<path fill="none" stroke="grey" stroke-width="2" d="M1078.86,-808.18C912.11,-804.57 278.82,-788.81 196,-756 56.37,-700.68 69.68,-579.1 100,-432 107.03,-397.88 113.14,-389.91 131,-360 136.75,-350.38 144.05,-340.56 150.95,-332.03"/>
<polygon fill="grey" stroke="grey" stroke-width="2" points="153.68,-334.22 157.38,-324.3 148.29,-329.75 153.68,-334.22"/>
</g>
<!-- 26 -->
<g id="node27" class="node">
<title>26</title>
<path fill="none" stroke="#56d0d8" stroke-width="2" stroke-dasharray="5,2" d="M1070.5,-756C1070.5,-756 1025.5,-756 1025.5,-756 1019.5,-756 1013.5,-750 1013.5,-744 1013.5,-744 1013.5,-732 1013.5,-732 1013.5,-726 1019.5,-720 1025.5,-720 1025.5,-720 1070.5,-720 1070.5,-720 1076.5,-720 1082.5,-726 1082.5,-732 1082.5,-732 1082.5,-744 1082.5,-744 1082.5,-750 1076.5,-756 1070.5,-756"/>
<text text-anchor="middle" x="1048" y="-735.5" font-family="sans" font-size="10.00">bwa_index</text>
</g>
<!-- 23&#45;&gt;26 -->
<g id="edge58" class="edge">
<title>23&#45;&gt;26</title>
<path fill="none" stroke="grey" stroke-width="2" d="M1101.45,-791.7C1092.77,-783.14 1082.14,-772.66 1072.65,-763.3"/>
<polygon fill="grey" stroke="grey" stroke-width="2" points="1074.93,-760.63 1065.35,-756.1 1070.01,-765.62 1074.93,-760.63"/>
</g>
<!-- 23&#45;&gt;28 -->
<g id="edge60" class="edge">
<title>23&#45;&gt;28</title>
<path fill="none" stroke="grey" stroke-width="2" d="M1159.16,-805.07C1223.77,-798.08 1347.09,-781.75 1382,-756 1528.61,-647.86 1533.06,-572.55 1578,-396 1581.95,-380.49 1587.81,-372.64 1578,-360 1558.07,-334.33 1468.46,-318.97 1413.88,-311.83"/>
<polygon fill="grey" stroke="grey" stroke-width="2" points="1414.16,-308.34 1403.8,-310.56 1413.28,-315.28 1414.16,-308.34"/>
</g>
<!-- 29 -->
<g id="node30" class="node">
<title>29</title>
<path fill="none" stroke="#56b1d8" stroke-width="2" d="M1202,-252C1202,-252 1110,-252 1110,-252 1104,-252 1098,-246 1098,-240 1098,-240 1098,-228 1098,-228 1098,-222 1104,-216 1110,-216 1110,-216 1202,-216 1202,-216 1208,-216 1214,-222 1214,-228 1214,-228 1214,-240 1214,-240 1214,-246 1208,-252 1202,-252"/>
<text text-anchor="middle" x="1156" y="-231.5" font-family="sans" font-size="10.00">gatk_genotypegvcfs</text>
</g>
<!-- 23&#45;&gt;29 -->
<g id="edge64" class="edge">
<title>23&#45;&gt;29</title>
<path fill="none" stroke="grey" stroke-width="2" d="M1159.04,-808.33C1290.06,-805.76 1700.14,-794.66 1744,-756 1774.34,-729.25 1763,-707.45 1763,-667 1763,-667 1763,-667 1763,-521 1763,-390.95 1707.92,-333.24 1586,-288 1521.25,-263.97 1328.14,-247.15 1224.13,-239.55"/>
<polygon fill="grey" stroke="grey" stroke-width="2" points="1224.27,-236.05 1214.05,-238.82 1223.77,-243.03 1224.27,-236.05"/>
</g>
<!-- 23&#45;&gt;30 -->
<g id="edge67" class="edge">
<title>23&#45;&gt;30</title>
<path fill="none" stroke="grey" stroke-width="2" d="M1078.88,-808.1C905.32,-804.03 223.72,-786.24 133,-756 65.52,-733.51 0,-738.12 0,-667 0,-667 0,-667 0,-377 0,-268.41 168.15,-242.86 245.68,-236.85"/>
<polygon fill="grey" stroke="grey" stroke-width="2" points="246.26,-240.32 255.99,-236.12 245.77,-233.33 246.26,-240.32"/>
</g>
<!-- 23&#45;&gt;32 -->
<g id="edge73" class="edge">
<title>23&#45;&gt;32</title>
<path fill="none" stroke="grey" stroke-width="2" d="M1078.84,-805.58C964.94,-794.78 648,-756.68 648,-667 648,-667 648,-667 648,-449 648,-380.24 728.83,-340.77 785.05,-321.63"/>
<polygon fill="grey" stroke="grey" stroke-width="2" points="786.48,-324.84 794.89,-318.4 784.29,-318.19 786.48,-324.84"/>
</g>
<!-- 23&#45;&gt;36 -->
<g id="edge79" class="edge">
<title>23&#45;&gt;36</title>
<path fill="none" stroke="grey" stroke-width="2" d="M1159.08,-804.39C1217.96,-796.9 1324,-780.41 1353,-756 1385.77,-728.41 1390,-709.84 1390,-667 1390,-667 1390,-667 1390,-521 1390,-442.63 1325.76,-368.3 1287.95,-331.34"/>
<polygon fill="grey" stroke="grey" stroke-width="2" points="1289.96,-328.41 1280.31,-324.03 1285.12,-333.47 1289.96,-328.41"/>
</g>
<!-- 23&#45;&gt;37 -->
<g id="edge83" class="edge">
<title>23&#45;&gt;37</title>
<path fill="none" stroke="grey" stroke-width="2" d="M1159.3,-803.75C1213.16,-795.93 1304.58,-779.56 1328,-756 1356.73,-727.1 1350,-707.75 1350,-667 1350,-667 1350,-667 1350,-593 1350,-473.34 1227.52,-373.02 1165.33,-329.8"/>
<polygon fill="grey" stroke="grey" stroke-width="2" points="1167.21,-326.84 1156.98,-324.08 1163.25,-332.62 1167.21,-326.84"/>
</g>
<!-- 23&#45;&gt;38 -->
<g id="edge87" class="edge">
<title>23&#45;&gt;38</title>
<path fill="none" stroke="grey" stroke-width="2" d="M1117.98,-791.75C1117.77,-772.04 1120.48,-739.94 1138,-720 1169.73,-683.89 1194.68,-700.02 1240,-684 1241.41,-683.5 1242.84,-683 1244.28,-682.49"/>
<polygon fill="grey" stroke="grey" stroke-width="2" points="1245.65,-685.71 1253.91,-679.08 1243.32,-679.11 1245.65,-685.71"/>
</g>
<!-- 39 -->
<g id="node40" class="node">
<title>39</title>
<path fill="none" stroke="#56d88a" stroke-width="2" stroke-dasharray="5,2" d="M1227,-756C1227,-756 1159,-756 1159,-756 1153,-756 1147,-750 1147,-744 1147,-744 1147,-732 1147,-732 1147,-726 1153,-720 1159,-720 1159,-720 1227,-720 1227,-720 1233,-720 1239,-726 1239,-732 1239,-732 1239,-744 1239,-744 1239,-750 1233,-756 1227,-756"/>
<text text-anchor="middle" x="1193" y="-735.5" font-family="sans" font-size="10.00">samtools_faidx</text>
</g>
<!-- 23&#45;&gt;39 -->
<g id="edge92" class="edge">
<title>23&#45;&gt;39</title>
<path fill="none" stroke="grey" stroke-width="2" d="M1137.29,-791.7C1146.43,-783.05 1157.64,-772.45 1167.6,-763.03"/>
<polygon fill="grey" stroke="grey" stroke-width="2" points="1170.06,-765.52 1174.92,-756.1 1165.25,-760.43 1170.06,-765.52"/>
</g>
<!-- 40 -->
<g id="node41" class="node">
<title>40</title>
<path fill="none" stroke="#5663d8" stroke-width="2" stroke-dasharray="5,2" d="M1307,-756C1307,-756 1269,-756 1269,-756 1263,-756 1257,-750 1257,-744 1257,-744 1257,-732 1257,-732 1257,-726 1263,-720 1269,-720 1269,-720 1307,-720 1307,-720 1313,-720 1319,-726 1319,-732 1319,-732 1319,-744 1319,-744 1319,-750 1313,-756 1307,-756"/>
<text text-anchor="middle" x="1288" y="-735.5" font-family="sans" font-size="10.00">gatk_dict</text>
</g>
<!-- 23&#45;&gt;40 -->
<g id="edge93" class="edge">
<title>23&#45;&gt;40</title>
<path fill="none" stroke="grey" stroke-width="2" d="M1159.15,-792.65C1182.54,-783.09 1212.82,-770.66 1247.25,-756.3"/>
<polygon fill="grey" stroke="grey" stroke-width="2" points="1248.69,-759.48 1256.57,-752.4 1246,-753.03 1248.69,-759.48"/>
</g>
<!-- 24 -->
<g id="node25" class="node">
<title>24</title>
<path fill="none" stroke="#5682d8" stroke-width="2" stroke-dasharray="5,2" d="M378,-468C378,-468 346,-468 346,-468 340,-468 334,-462 334,-456 334,-456 334,-444 334,-444 334,-438 340,-432 346,-432 346,-432 378,-432 378,-432 384,-432 390,-438 390,-444 390,-444 390,-456 390,-456 390,-462 384,-468 378,-468"/>
<text text-anchor="middle" x="362" y="-447.5" font-family="sans" font-size="10.00">cp_snps</text>
</g>
<!-- 24&#45;&gt;10 -->
<g id="edge25" class="edge">
<title>24&#45;&gt;10</title>
<path fill="none" stroke="grey" stroke-width="2" d="M390.05,-441.68C420.63,-433.09 470.47,-417.28 510,-396 533.48,-383.36 534.7,-372.96 558,-360 584.61,-345.2 616.2,-332.62 642.23,-323.43"/>
<polygon fill="grey" stroke="grey" stroke-width="2" points="643.61,-326.66 651.92,-320.08 641.32,-320.04 643.61,-326.66"/>
</g>
<!-- 24&#45;&gt;11 -->
<g id="edge30" class="edge">
<title>24&#45;&gt;11</title>
<path fill="none" stroke="grey" stroke-width="2" d="M390.42,-438.17C413.44,-428.74 446.17,-413.81 472,-396 491.15,-382.79 491.16,-373.65 510,-360 564.42,-320.55 579.76,-310.78 643,-288 706.64,-265.08 782.55,-251.25 837.31,-243.49"/>
<polygon fill="grey" stroke="grey" stroke-width="2" points="837.86,-246.95 847.28,-242.11 836.9,-240.01 837.86,-246.95"/>
</g>
<!-- 24&#45;&gt;12 -->
<g id="edge32" class="edge">
<title>24&#45;&gt;12</title>
<path fill="none" stroke="grey" stroke-width="2" d="M381.64,-431.83C393.23,-421.58 408.11,-408.22 421,-396 462.06,-357.08 552.24,-244.67 601,-216 638.17,-194.15 684.86,-180.88 722.16,-173.09"/>
<polygon fill="grey" stroke="grey" stroke-width="2" points="723.3,-176.43 732.41,-171.03 721.92,-169.56 723.3,-176.43"/>
</g>
<!-- 24&#45;&gt;13 -->
<g id="edge34" class="edge">
<title>24&#45;&gt;13</title>
<path fill="none" stroke="grey" stroke-width="2" d="M336.32,-431.83C323.94,-422.46 309.71,-409.95 300,-396 252.36,-327.55 242.3,-299.26 247,-216 247.48,-207.55 248.38,-198.38 249.34,-190.07"/>
<polygon fill="grey" stroke="grey" stroke-width="2" points="252.81,-190.5 250.56,-180.14 245.87,-189.64 252.81,-190.5"/>
</g>
<!-- 24&#45;&gt;14 -->
<g id="edge37" class="edge">
<title>24&#45;&gt;14</title>
<path fill="none" stroke="grey" stroke-width="2" d="M345.11,-431.99C336.71,-422.31 327.42,-409.46 323,-396 318.01,-380.8 319.15,-375.53 323,-360 325.29,-350.75 329.53,-341.34 334.02,-333.07"/>
<polygon fill="grey" stroke="grey" stroke-width="2" points="337.13,-334.68 339.11,-324.28 331.07,-331.17 337.13,-334.68"/>
</g>
<!-- 24&#45;&gt;15 -->
<g id="edge42" class="edge">
<title>24&#45;&gt;15</title>
<path fill="none" stroke="grey" stroke-width="2" d="M376.11,-431.54C383.79,-421.52 393.1,-408.49 400,-396 425.05,-350.63 408.02,-325.3 444,-288 471.07,-259.94 495.93,-279.07 524,-252 541.67,-234.96 553.3,-209.34 560.13,-189.95"/>
<polygon fill="grey" stroke="grey" stroke-width="2" points="563.55,-190.79 563.37,-180.19 556.9,-188.59 563.55,-190.79"/>
</g>
<!-- 24&#45;&gt;16 -->
<g id="edge44" class="edge">
<title>24&#45;&gt;16</title>
<path fill="none" stroke="grey" stroke-width="2" d="M341.26,-431.59C331.64,-422.16 321.21,-409.66 316,-396 298.89,-351.15 288.38,-327.95 315,-288 325.45,-272.31 341.52,-261.26 358.76,-253.48"/>
<polygon fill="grey" stroke="grey" stroke-width="2" points="360.52,-256.54 368.42,-249.48 357.84,-250.07 360.52,-256.54"/>
</g>
<!-- 24&#45;&gt;17 -->
<g id="edge47" class="edge">
<title>24&#45;&gt;17</title>
<path fill="none" stroke="grey" stroke-width="2" d="M333.84,-445.54C301.3,-440.19 247.91,-427.06 214,-396 196.03,-379.54 185.33,-353.63 179.39,-334.01"/>
<polygon fill="grey" stroke="grey" stroke-width="2" points="182.7,-332.82 176.64,-324.12 175.95,-334.7 182.7,-332.82"/>
</g>
<!-- 27 -->
<g id="node28" class="node">
<title>27</title>
<path fill="none" stroke="#d87556" stroke-width="2" stroke-dasharray="5,2" d="M379.5,-396C379.5,-396 344.5,-396 344.5,-396 338.5,-396 332.5,-390 332.5,-384 332.5,-384 332.5,-372 332.5,-372 332.5,-366 338.5,-360 344.5,-360 344.5,-360 379.5,-360 379.5,-360 385.5,-360 391.5,-366 391.5,-372 391.5,-372 391.5,-384 391.5,-384 391.5,-390 385.5,-396 379.5,-396"/>
<text text-anchor="middle" x="362" y="-375.5" font-family="sans" font-size="10.00">gatk_idx</text>
</g>
<!-- 24&#45;&gt;27 -->
<g id="edge59" class="edge">
<title>24&#45;&gt;27</title>
<path fill="none" stroke="grey" stroke-width="2" d="M362,-431.7C362,-423.98 362,-414.71 362,-406.11"/>
<polygon fill="grey" stroke="grey" stroke-width="2" points="365.5,-406.1 362,-396.1 358.5,-406.1 365.5,-406.1"/>
</g>
<!-- 25&#45;&gt;10 -->
<g id="edge26" class="edge">
<title>25&#45;&gt;10</title>
<path fill="none" stroke="grey" stroke-width="2" d="M904.18,-361.9C857.26,-349.64 791.67,-332.51 746.3,-320.66"/>
<polygon fill="grey" stroke="grey" stroke-width="2" points="746.93,-317.21 736.37,-318.07 745.16,-323.98 746.93,-317.21"/>
</g>
<!-- 25&#45;&gt;14 -->
<g id="edge38" class="edge">
<title>25&#45;&gt;14</title>
<path fill="none" stroke="grey" stroke-width="2" d="M904.24,-370.38C780.27,-356.18 491.57,-323.1 388.44,-311.29"/>
<polygon fill="grey" stroke="grey" stroke-width="2" points="388.54,-307.78 378.21,-310.12 387.75,-314.73 388.54,-307.78"/>
</g>
<!-- 25&#45;&gt;17 -->
<g id="edge48" class="edge">
<title>25&#45;&gt;17</title>
<path fill="none" stroke="grey" stroke-width="2" d="M904.38,-373.01C791.26,-365.01 532.26,-345.9 315,-324 279.36,-320.41 238.79,-315.46 210.16,-311.83"/>
<polygon fill="grey" stroke="grey" stroke-width="2" points="210.55,-308.36 200.19,-310.56 209.67,-315.3 210.55,-308.36"/>
</g>
<!-- 25&#45;&gt;28 -->
<g id="edge62" class="edge">
<title>25&#45;&gt;28</title>
<path fill="none" stroke="grey" stroke-width="2" d="M1019.77,-372.99C1090.74,-367.1 1214.68,-353.72 1328.33,-323.79"/>
<polygon fill="grey" stroke="grey" stroke-width="2" points="1329.49,-327.1 1338.24,-321.13 1327.68,-320.34 1329.49,-327.1"/>
</g>
<!-- 25&#45;&gt;30 -->
<g id="edge70" class="edge">
<title>25&#45;&gt;30</title>
<path fill="none" stroke="grey" stroke-width="2" d="M953.82,-360C942.67,-338.92 920.51,-303.85 890,-288 785.05,-233.47 476.02,-269.12 359,-252 346.94,-250.24 333.95,-247.57 322.22,-244.87"/>
<polygon fill="grey" stroke="grey" stroke-width="2" points="322.83,-241.42 312.3,-242.51 321.21,-248.23 322.83,-241.42"/>
</g>
<!-- 25&#45;&gt;32 -->
<g id="edge75" class="edge">
<title>25&#45;&gt;32</title>
<path fill="none" stroke="grey" stroke-width="2" d="M931.67,-359.88C915.3,-350.64 894.92,-339.13 877.35,-329.21"/>
<polygon fill="grey" stroke="grey" stroke-width="2" points="878.88,-326.06 868.45,-324.19 875.44,-332.15 878.88,-326.06"/>
</g>
<!-- 25&#45;&gt;36 -->
<g id="edge81" class="edge">
<title>25&#45;&gt;36</title>
<path fill="none" stroke="grey" stroke-width="2" d="M1019.72,-363.95C1063.99,-353.89 1126.9,-339.46 1191.25,-324.16"/>
<polygon fill="grey" stroke="grey" stroke-width="2" points="1192.26,-327.52 1201.17,-321.8 1190.64,-320.71 1192.26,-327.52"/>
</g>
<!-- 25&#45;&gt;37 -->
<g id="edge85" class="edge">
<title>25&#45;&gt;37</title>
<path fill="none" stroke="grey" stroke-width="2" d="M1003.1,-359.88C1026.17,-350.26 1055.14,-338.19 1079.57,-328.01"/>
<polygon fill="grey" stroke="grey" stroke-width="2" points="1081.15,-331.15 1089.04,-324.07 1078.46,-324.68 1081.15,-331.15"/>
</g>
<!-- 26&#45;&gt;10 -->
<g id="edge27" class="edge">
<title>26&#45;&gt;10</title>
<path fill="none" stroke="grey" stroke-width="2" d="M1013.22,-735.52C937,-730.24 762,-706.01 762,-595 762,-595 762,-595 762,-449 762,-404.6 734.63,-359.38 714.62,-332.25"/>
<polygon fill="grey" stroke="grey" stroke-width="2" points="717.26,-329.95 708.42,-324.11 711.69,-334.18 717.26,-329.95"/>
</g>
<!-- 26&#45;&gt;14 -->
<g id="edge39" class="edge">
<title>26&#45;&gt;14</title>
<path fill="none" stroke="grey" stroke-width="2" d="M1013.12,-736.38C959.59,-734.11 855.27,-724.36 778,-684 727.57,-657.66 686,-651.89 686,-595 686,-595 686,-595 686,-449 686,-320.77 475.36,-306.61 388.13,-306.25"/>
<polygon fill="grey" stroke="grey" stroke-width="2" points="388.12,-302.75 378.13,-306.27 388.14,-309.75 388.12,-302.75"/>
</g>
<!-- 26&#45;&gt;17 -->
<g id="edge49" class="edge">
<title>26&#45;&gt;17</title>
<path fill="none" stroke="grey" stroke-width="2" d="M1013.42,-735.24C848.76,-726.43 152,-683.89 152,-595 152,-595 152,-595 152,-449 152,-408.78 160.35,-362.84 166.51,-334.37"/>
<polygon fill="grey" stroke="grey" stroke-width="2" points="169.99,-334.89 168.75,-324.37 163.15,-333.36 169.99,-334.89"/>
</g>
<!-- 26&#45;&gt;28 -->
<g id="edge63" class="edge">
<title>26&#45;&gt;28</title>
<path fill="none" stroke="grey" stroke-width="2" d="M1082.8,-728.13C1113.9,-719.4 1160.13,-704.41 1197,-684 1208.28,-677.76 1555.38,-407.61 1561,-396 1567.97,-381.6 1570.68,-372.74 1561,-360 1543.22,-336.59 1463.85,-320.74 1413.48,-312.84"/>
<polygon fill="grey" stroke="grey" stroke-width="2" points="1413.93,-309.37 1403.51,-311.32 1412.87,-316.29 1413.93,-309.37"/>
</g>
<!-- 26&#45;&gt;29 -->
<g id="edge66" class="edge">
<title>26&#45;&gt;29</title>
<path fill="none" stroke="grey" stroke-width="2" d="M1048,-719.95C1048,-693.29 1048,-640.11 1048,-595 1048,-595 1048,-595 1048,-377 1048,-336.55 1043.43,-320.87 1067,-288 1076.2,-275.17 1089.55,-264.91 1103.13,-256.96"/>
<polygon fill="grey" stroke="grey" stroke-width="2" points="1104.96,-259.95 1112.04,-252.07 1101.59,-253.81 1104.96,-259.95"/>
</g>
<!-- 26&#45;&gt;30 -->
<g id="edge71" class="edge">
<title>26&#45;&gt;30</title>
<path fill="none" stroke="grey" stroke-width="2" d="M1013.23,-734.86C835.64,-723.02 38,-658.3 38,-451 38,-451 38,-451 38,-377 38,-282.25 176.57,-249.74 245.71,-239.41"/>
<polygon fill="grey" stroke="grey" stroke-width="2" points="246.37,-242.85 255.78,-237.99 245.39,-235.92 246.37,-242.85"/>
</g>
<!-- 26&#45;&gt;32 -->
<g id="edge76" class="edge">
<title>26&#45;&gt;32</title>
<path fill="none" stroke="grey" stroke-width="2" d="M1013.32,-730.23C953.68,-716.34 838,-678.62 838,-595 838,-595 838,-595 838,-449 838,-409 838,-362.65 838,-334.08"/>
<polygon fill="grey" stroke="grey" stroke-width="2" points="841.5,-334.05 838,-324.05 834.5,-334.05 841.5,-334.05"/>
</g>
<!-- 26&#45;&gt;36 -->
<g id="edge82" class="edge">
<title>26&#45;&gt;36</title>
<path fill="none" stroke="grey" stroke-width="2" d="M1082.52,-720.66C1135.17,-694.98 1231.52,-644.71 1251,-612 1304.36,-522.41 1281.58,-390.3 1268.2,-334"/>
<polygon fill="grey" stroke="grey" stroke-width="2" points="1271.55,-332.96 1265.75,-324.09 1264.75,-334.64 1271.55,-332.96"/>
</g>
<!-- 26&#45;&gt;37 -->
<g id="edge86" class="edge">
<title>26&#45;&gt;37</title>
<path fill="none" stroke="grey" stroke-width="2" d="M1055.69,-719.91C1066.79,-693.62 1086,-641.45 1086,-595 1086,-595 1086,-595 1086,-449 1086,-407.21 1103.6,-361.48 1116.54,-333.51"/>
<polygon fill="grey" stroke="grey" stroke-width="2" points="1119.74,-334.93 1120.88,-324.39 1113.42,-331.92 1119.74,-334.93"/>
</g>
<!-- 26&#45;&gt;38 -->
<g id="edge89" class="edge">
<title>26&#45;&gt;38</title>
<path fill="none" stroke="grey" stroke-width="2" d="M1082.62,-726.5C1089.99,-724.31 1097.75,-722.05 1105,-720 1164.76,-703.12 1180.69,-702.38 1240,-684 1241.4,-683.57 1242.82,-683.12 1244.25,-682.66"/>
<polygon fill="grey" stroke="grey" stroke-width="2" points="1245.37,-685.97 1253.76,-679.5 1243.17,-679.33 1245.37,-685.97"/>
</g>
<!-- 27&#45;&gt;10 -->
<g id="edge28" class="edge">
<title>27&#45;&gt;10</title>
<path fill="none" stroke="grey" stroke-width="2" d="M391.75,-370.73C448.19,-358.83 571.41,-332.85 641.85,-318"/>
<polygon fill="grey" stroke="grey" stroke-width="2" points="642.78,-321.38 651.84,-315.89 641.34,-314.53 642.78,-321.38"/>
</g>
<!-- 27&#45;&gt;14 -->
<g id="edge40" class="edge">
<title>27&#45;&gt;14</title>
<path fill="none" stroke="grey" stroke-width="2" d="M359.28,-359.7C358.07,-351.98 356.61,-342.71 355.26,-334.11"/>
<polygon fill="grey" stroke="grey" stroke-width="2" points="358.7,-333.44 353.69,-324.1 351.78,-334.53 358.7,-333.44"/>
</g>
<!-- 27&#45;&gt;17 -->
<g id="edge50" class="edge">
<title>27&#45;&gt;17</title>
<path fill="none" stroke="grey" stroke-width="2" d="M332.47,-366.06C299.35,-353.8 245.59,-333.89 209.77,-320.62"/>
<polygon fill="grey" stroke="grey" stroke-width="2" points="210.77,-317.26 200.18,-317.07 208.34,-323.82 210.77,-317.26"/>
</g>
<!-- 28&#45;&gt;11 -->
<g id="edge29" class="edge">
<title>28&#45;&gt;11</title>
<path fill="none" stroke="grey" stroke-width="2" d="M1338.26,-290.81C1335.16,-289.76 1332.04,-288.79 1329,-288 1265.7,-271.48 1086.82,-252.17 984.75,-242.04"/>
<polygon fill="grey" stroke="grey" stroke-width="2" points="984.81,-238.52 974.51,-241.02 984.12,-245.49 984.81,-238.52"/>
</g>
<!-- 29&#45;&gt;12 -->
<g id="edge31" class="edge">
<title>29&#45;&gt;12</title>
<path fill="none" stroke="grey" stroke-width="2" d="M1097.94,-221.99C1031.01,-209.29 921.3,-188.48 851.69,-175.27"/>
<polygon fill="grey" stroke="grey" stroke-width="2" points="852.19,-171.8 841.72,-173.38 850.89,-178.68 852.19,-171.8"/>
</g>
<!-- 30&#45;&gt;13 -->
<g id="edge33" class="edge">
<title>30&#45;&gt;13</title>
<path fill="none" stroke="grey" stroke-width="2" d="M276.34,-215.7C272.81,-207.73 268.54,-198.1 264.63,-189.26"/>
<polygon fill="grey" stroke="grey" stroke-width="2" points="267.82,-187.83 260.57,-180.1 261.42,-190.67 267.82,-187.83"/>
</g>
<!-- 31 -->
<g id="node32" class="node">
<title>31</title>
<path fill="none" stroke="#61d856" stroke-width="2" d="M653.5,-252C653.5,-252 622.5,-252 622.5,-252 616.5,-252 610.5,-246 610.5,-240 610.5,-240 610.5,-228 610.5,-228 610.5,-222 616.5,-216 622.5,-216 622.5,-216 653.5,-216 653.5,-216 659.5,-216 665.5,-222 665.5,-228 665.5,-228 665.5,-240 665.5,-240 665.5,-246 659.5,-252 653.5,-252"/>
<text text-anchor="middle" x="638" y="-231.5" font-family="sans" font-size="10.00">varscan</text>
</g>
<!-- 31&#45;&gt;15 -->
<g id="edge41" class="edge">
<title>31&#45;&gt;15</title>
<path fill="none" stroke="grey" stroke-width="2" d="M620.7,-215.7C612.14,-207.14 601.66,-196.66 592.3,-187.3"/>
<polygon fill="grey" stroke="grey" stroke-width="2" points="594.65,-184.7 585.1,-180.1 589.7,-189.65 594.65,-184.7"/>
</g>
<!-- 32&#45;&gt;16 -->
<g id="edge43" class="edge">
<title>32&#45;&gt;16</title>
<path fill="none" stroke="grey" stroke-width="2" d="M794.95,-297.06C779.24,-294.18 761.32,-290.92 745,-288 670.8,-274.73 586.32,-259.98 525.44,-249.42"/>
<polygon fill="grey" stroke="grey" stroke-width="2" points="525.95,-245.96 515.5,-247.69 524.76,-252.85 525.95,-245.96"/>
</g>
<!-- 33 -->
<g id="node34" class="node">
<title>33</title>
<path fill="none" stroke="#d86656" stroke-width="2" d="M1826.5,-828C1826.5,-828 1677.5,-828 1677.5,-828 1671.5,-828 1665.5,-822 1665.5,-816 1665.5,-816 1665.5,-804 1665.5,-804 1665.5,-798 1671.5,-792 1677.5,-792 1677.5,-792 1826.5,-792 1826.5,-792 1832.5,-792 1838.5,-798 1838.5,-804 1838.5,-804 1838.5,-816 1838.5,-816 1838.5,-822 1832.5,-828 1826.5,-828"/>
<text text-anchor="middle" x="1752" y="-813" font-family="sans" font-size="10.00">cp_reads</text>
<text text-anchor="middle" x="1752" y="-802" font-family="sans" font-size="10.00">library: N100_R2_AF0.6_NR7000</text>
</g>
<!-- 33&#45;&gt;18 -->
<g id="edge51" class="edge">
<title>33&#45;&gt;18</title>
<path fill="none" stroke="grey" stroke-width="2" d="M1760.15,-791.83C1765.05,-781.47 1771.41,-767.99 1777,-756 1786.83,-734.92 1797.85,-710.98 1805.99,-693.24"/>
<polygon fill="grey" stroke="grey" stroke-width="2" points="1809.2,-694.63 1810.19,-684.08 1802.84,-691.71 1809.2,-694.63"/>
</g>
<!-- 33&#45;&gt;19 -->
<g id="edge52" class="edge">
<title>33&#45;&gt;19</title>
<path fill="none" stroke="grey" stroke-width="2" d="M1737.91,-791.7C1731.08,-783.3 1722.74,-773.07 1715.24,-763.86"/>
<polygon fill="grey" stroke="grey" stroke-width="2" points="1717.96,-761.65 1708.93,-756.1 1712.53,-766.07 1717.96,-761.65"/>
</g>
<!-- 34 -->
<g id="node35" class="node">
<title>34</title>
<path fill="none" stroke="#bed856" stroke-width="2" d="M1230,-612C1230,-612 1168,-612 1168,-612 1162,-612 1156,-606 1156,-600 1156,-600 1156,-588 1156,-588 1156,-582 1162,-576 1168,-576 1168,-576 1230,-576 1230,-576 1236,-576 1242,-582 1242,-588 1242,-588 1242,-600 1242,-600 1242,-606 1236,-612 1230,-612"/>
<text text-anchor="middle" x="1199" y="-591.5" font-family="sans" font-size="10.00">samtools_sort</text>
</g>
<!-- 34&#45;&gt;22 -->
<g id="edge55" class="edge">
<title>34&#45;&gt;22</title>
<path fill="none" stroke="grey" stroke-width="2" d="M1172.88,-575.82C1161.42,-566.69 1149.19,-554.39 1143,-540 1134.02,-519.14 1143.89,-494.74 1154.81,-476.76"/>
<polygon fill="grey" stroke="grey" stroke-width="2" points="1157.99,-478.29 1160.52,-468 1152.13,-474.47 1157.99,-478.29"/>
</g>
<!-- 35 -->
<g id="node36" class="node">
<title>35</title>
<path fill="none" stroke="#56d8c9" stroke-width="2" d="M1234,-540C1234,-540 1164,-540 1164,-540 1158,-540 1152,-534 1152,-528 1152,-528 1152,-516 1152,-516 1152,-510 1158,-504 1164,-504 1164,-504 1234,-504 1234,-504 1240,-504 1246,-510 1246,-516 1246,-516 1246,-528 1246,-528 1246,-534 1240,-540 1234,-540"/>
<text text-anchor="middle" x="1199" y="-519.5" font-family="sans" font-size="10.00">samtools_index</text>
</g>
<!-- 34&#45;&gt;35 -->
<g id="edge78" class="edge">
<title>34&#45;&gt;35</title>
<path fill="none" stroke="grey" stroke-width="2" d="M1199,-575.7C1199,-567.98 1199,-558.71 1199,-550.11"/>
<polygon fill="grey" stroke="grey" stroke-width="2" points="1202.5,-550.1 1199,-540.1 1195.5,-550.1 1202.5,-550.1"/>
</g>
<!-- 35&#45;&gt;22 -->
<g id="edge56" class="edge">
<title>35&#45;&gt;22</title>
<path fill="none" stroke="grey" stroke-width="2" d="M1192.82,-503.7C1190,-495.81 1186.61,-486.3 1183.48,-477.55"/>
<polygon fill="grey" stroke="grey" stroke-width="2" points="1186.77,-476.34 1180.11,-468.1 1180.18,-478.7 1186.77,-476.34"/>
</g>
<!-- 36&#45;&gt;29 -->
<g id="edge65" class="edge">
<title>36&#45;&gt;29</title>
<path fill="none" stroke="grey" stroke-width="2" d="M1235.31,-287.88C1221.71,-278.81 1204.83,-267.55 1190.14,-257.76"/>
<polygon fill="grey" stroke="grey" stroke-width="2" points="1192.05,-254.82 1181.78,-252.19 1188.16,-260.65 1192.05,-254.82"/>
</g>
<!-- 37&#45;&gt;31 -->
<g id="edge72" class="edge">
<title>37&#45;&gt;31</title>
<path fill="none" stroke="grey" stroke-width="2" d="M1076.38,-296.16C1059.62,-293.46 1041.05,-290.54 1024,-288 896.4,-269.01 744.7,-248.9 675.62,-239.88"/>
<polygon fill="grey" stroke="grey" stroke-width="2" points="676.01,-236.4 665.65,-238.58 675.11,-243.34 676.01,-236.4"/>
</g>
<!-- 38&#45;&gt;34 -->
<g id="edge77" class="edge">
<title>38&#45;&gt;34</title>
<path fill="none" stroke="grey" stroke-width="2" d="M1266,-647.7C1254.79,-638.88 1241,-628.03 1228.85,-618.47"/>
<polygon fill="grey" stroke="grey" stroke-width="2" points="1230.77,-615.54 1220.75,-612.1 1226.44,-621.04 1230.77,-615.54"/>
</g>
<!-- 39&#45;&gt;38 -->
<g id="edge90" class="edge">
<title>39&#45;&gt;38</title>
<path fill="none" stroke="grey" stroke-width="2" d="M1216.48,-719.7C1228.56,-710.8 1243.45,-699.82 1256.52,-690.2"/>
<polygon fill="grey" stroke="grey" stroke-width="2" points="1258.81,-692.85 1264.79,-684.1 1254.66,-687.22 1258.81,-692.85"/>
</g>
<!-- 40&#45;&gt;38 -->
<g id="edge91" class="edge">
<title>40&#45;&gt;38</title>
<path fill="none" stroke="grey" stroke-width="2" d="M1288,-719.7C1288,-711.98 1288,-702.71 1288,-694.11"/>
<polygon fill="grey" stroke="grey" stroke-width="2" points="1291.5,-694.1 1288,-684.1 1284.5,-694.1 1291.5,-694.1"/>
</g>
</g>
</svg>
