<?xml version="1.0" encoding="UTF-8" standalone="no"?>
<!DOCTYPE svg PUBLIC "-//W3C//DTD SVG 1.1//EN"
 "http://www.w3.org/Graphics/SVG/1.1/DTD/svg11.dtd">
<!-- Generated by graphviz version 2.43.0 (0)
 -->
<!-- Title: snakemake_dag Pages: 1 -->
<svg width="1537pt" height="961pt"
 viewBox="0.00 0.00 1537.00 961.00" xmlns="http://www.w3.org/2000/svg" xmlns:xlink="http://www.w3.org/1999/xlink">
<g id="graph0" class="graph" transform="scale(1 1) rotate(0) translate(4 957)">
<title>snakemake_dag</title>
<polygon fill="white" stroke="transparent" points="-4,4 -4,-957 1533,-957 1533,4 -4,4"/>
<!-- 0 -->
<g id="node1" class="node">
<title>0</title>
<path fill="none" stroke="#d6d856" stroke-width="2" d="M749.5,-36C749.5,-36 719.5,-36 719.5,-36 713.5,-36 707.5,-30 707.5,-24 707.5,-24 707.5,-12 707.5,-12 707.5,-6 713.5,0 719.5,0 719.5,0 749.5,0 749.5,0 755.5,0 761.5,-6 761.5,-12 761.5,-12 761.5,-24 761.5,-24 761.5,-30 755.5,-36 749.5,-36"/>
<text text-anchor="middle" x="734.5" y="-15.5" font-family="sans" font-size="10.00">all</text>
</g>
<!-- 1 -->
<g id="node2" class="node">
<title>1</title>
<path fill="none" stroke="#9fd856" stroke-width="2" d="M1517,-223C1517,-223 1338,-223 1338,-223 1332,-223 1326,-217 1326,-211 1326,-211 1326,-194 1326,-194 1326,-188 1332,-182 1338,-182 1338,-182 1517,-182 1517,-182 1523,-182 1529,-188 1529,-194 1529,-194 1529,-211 1529,-211 1529,-217 1523,-223 1517,-223"/>
<text text-anchor="middle" x="1427.5" y="-211" font-family="sans" font-size="10.00">cp_vcfs</text>
<text text-anchor="middle" x="1427.5" y="-200" font-family="sans" font-size="10.00">caller2mv: mutect2</text>
<text text-anchor="middle" x="1427.5" y="-189" font-family="sans" font-size="10.00">library: N100_R2_AF0.6_NR7000_REP1</text>
</g>
<!-- 1&#45;&gt;0 -->
<g id="edge1" class="edge">
<title>1&#45;&gt;0</title>
<path fill="none" stroke="grey" stroke-width="2" d="M1401.32,-181.96C1354.79,-147.41 1260.97,-78.54 1243.5,-72 1156.82,-39.52 874.01,-24.8 771.79,-20.45"/>
<polygon fill="grey" stroke="grey" stroke-width="2" points="771.77,-16.94 761.64,-20.02 771.48,-23.94 771.77,-16.94"/>
</g>
<!-- 8 -->
<g id="node9" class="node">
<title>8</title>
<path fill="none" stroke="#68d856" stroke-width="2" d="M1442.5,-146C1442.5,-146 1376.5,-146 1376.5,-146 1370.5,-146 1364.5,-140 1364.5,-134 1364.5,-134 1364.5,-84 1364.5,-84 1364.5,-78 1370.5,-72 1376.5,-72 1376.5,-72 1442.5,-72 1442.5,-72 1448.5,-72 1454.5,-78 1454.5,-84 1454.5,-84 1454.5,-134 1454.5,-134 1454.5,-140 1448.5,-146 1442.5,-146"/>
<text text-anchor="middle" x="1409.5" y="-134" font-family="sans" font-size="10.00">evaluate_call</text>
<text text-anchor="middle" x="1409.5" y="-123" font-family="sans" font-size="10.00">AF: 0.6</text>
<text text-anchor="middle" x="1409.5" y="-112" font-family="sans" font-size="10.00">NR: 7000</text>
<text text-anchor="middle" x="1409.5" y="-101" font-family="sans" font-size="10.00">REP: 1</text>
<text text-anchor="middle" x="1409.5" y="-90" font-family="sans" font-size="10.00">caller: mutect2</text>
<text text-anchor="middle" x="1409.5" y="-79" font-family="sans" font-size="10.00">lib: N100_R2</text>
</g>
<!-- 1&#45;&gt;8 -->
<g id="edge22" class="edge">
<title>1&#45;&gt;8</title>
<path fill="none" stroke="grey" stroke-width="2" d="M1423.59,-181.65C1422.11,-174.08 1420.34,-165.12 1418.57,-156.13"/>
<polygon fill="grey" stroke="grey" stroke-width="2" points="1421.96,-155.18 1416.59,-146.05 1415.09,-156.53 1421.96,-155.18"/>
</g>
<!-- 2 -->
<g id="node3" class="node">
<title>2</title>
<path fill="none" stroke="#9fd856" stroke-width="2" d="M191,-223C191,-223 12,-223 12,-223 6,-223 0,-217 0,-211 0,-211 0,-194 0,-194 0,-188 6,-182 12,-182 12,-182 191,-182 191,-182 197,-182 203,-188 203,-194 203,-194 203,-211 203,-211 203,-217 197,-223 191,-223"/>
<text text-anchor="middle" x="101.5" y="-211" font-family="sans" font-size="10.00">cp_vcfs</text>
<text text-anchor="middle" x="101.5" y="-200" font-family="sans" font-size="10.00">caller2mv: freebayes</text>
<text text-anchor="middle" x="101.5" y="-189" font-family="sans" font-size="10.00">library: N100_R2_AF0.6_NR7000_REP1</text>
</g>
<!-- 2&#45;&gt;0 -->
<g id="edge2" class="edge">
<title>2&#45;&gt;0</title>
<path fill="none" stroke="grey" stroke-width="2" d="M108.94,-181.61C121.16,-152.03 148.52,-97.21 191.5,-72 277.49,-21.57 589.17,-18.24 697.27,-18.65"/>
<polygon fill="grey" stroke="grey" stroke-width="2" points="697.36,-22.15 707.38,-18.7 697.4,-15.15 697.36,-22.15"/>
</g>
<!-- 9 -->
<g id="node10" class="node">
<title>9</title>
<path fill="none" stroke="#68d856" stroke-width="2" d="M286.5,-146C286.5,-146 212.5,-146 212.5,-146 206.5,-146 200.5,-140 200.5,-134 200.5,-134 200.5,-84 200.5,-84 200.5,-78 206.5,-72 212.5,-72 212.5,-72 286.5,-72 286.5,-72 292.5,-72 298.5,-78 298.5,-84 298.5,-84 298.5,-134 298.5,-134 298.5,-140 292.5,-146 286.5,-146"/>
<text text-anchor="middle" x="249.5" y="-134" font-family="sans" font-size="10.00">evaluate_call</text>
<text text-anchor="middle" x="249.5" y="-123" font-family="sans" font-size="10.00">AF: 0.6</text>
<text text-anchor="middle" x="249.5" y="-112" font-family="sans" font-size="10.00">NR: 7000</text>
<text text-anchor="middle" x="249.5" y="-101" font-family="sans" font-size="10.00">REP: 1</text>
<text text-anchor="middle" x="249.5" y="-90" font-family="sans" font-size="10.00">caller: freebayes</text>
<text text-anchor="middle" x="249.5" y="-79" font-family="sans" font-size="10.00">lib: N100_R2</text>
</g>
<!-- 2&#45;&gt;9 -->
<g id="edge23" class="edge">
<title>2&#45;&gt;9</title>
<path fill="none" stroke="grey" stroke-width="2" d="M133.25,-181.87C150.27,-171.35 171.77,-158.06 191.64,-145.77"/>
<polygon fill="grey" stroke="grey" stroke-width="2" points="193.66,-148.64 200.33,-140.4 189.98,-142.68 193.66,-148.64"/>
</g>
<!-- 3 -->
<g id="node4" class="node">
<title>3</title>
<path fill="none" stroke="#9fd856" stroke-width="2" d="M412,-223C412,-223 233,-223 233,-223 227,-223 221,-217 221,-211 221,-211 221,-194 221,-194 221,-188 227,-182 233,-182 233,-182 412,-182 412,-182 418,-182 424,-188 424,-194 424,-194 424,-211 424,-211 424,-217 418,-223 412,-223"/>
<text text-anchor="middle" x="322.5" y="-211" font-family="sans" font-size="10.00">cp_vcfs</text>
<text text-anchor="middle" x="322.5" y="-200" font-family="sans" font-size="10.00">caller2mv: gatk</text>
<text text-anchor="middle" x="322.5" y="-189" font-family="sans" font-size="10.00">library: N100_R2_AF0.6_NR7000_REP1</text>
</g>
<!-- 3&#45;&gt;0 -->
<g id="edge3" class="edge">
<title>3&#45;&gt;0</title>
<path fill="none" stroke="grey" stroke-width="2" d="M326.48,-181.56C333.43,-152.42 350.67,-98.77 387.5,-72 436.44,-36.42 618.26,-24.15 697.35,-20.43"/>
<polygon fill="grey" stroke="grey" stroke-width="2" points="697.53,-23.93 707.36,-19.98 697.21,-16.94 697.53,-23.93"/>
</g>
<!-- 10 -->
<g id="node11" class="node">
<title>10</title>
<path fill="none" stroke="#68d856" stroke-width="2" d="M466.5,-146C466.5,-146 408.5,-146 408.5,-146 402.5,-146 396.5,-140 396.5,-134 396.5,-134 396.5,-84 396.5,-84 396.5,-78 402.5,-72 408.5,-72 408.5,-72 466.5,-72 466.5,-72 472.5,-72 478.5,-78 478.5,-84 478.5,-84 478.5,-134 478.5,-134 478.5,-140 472.5,-146 466.5,-146"/>
<text text-anchor="middle" x="437.5" y="-134" font-family="sans" font-size="10.00">evaluate_call</text>
<text text-anchor="middle" x="437.5" y="-123" font-family="sans" font-size="10.00">AF: 0.6</text>
<text text-anchor="middle" x="437.5" y="-112" font-family="sans" font-size="10.00">NR: 7000</text>
<text text-anchor="middle" x="437.5" y="-101" font-family="sans" font-size="10.00">REP: 1</text>
<text text-anchor="middle" x="437.5" y="-90" font-family="sans" font-size="10.00">caller: gatk</text>
<text text-anchor="middle" x="437.5" y="-79" font-family="sans" font-size="10.00">lib: N100_R2</text>
</g>
<!-- 3&#45;&gt;10 -->
<g id="edge24" class="edge">
<title>3&#45;&gt;10</title>
<path fill="none" stroke="grey" stroke-width="2" d="M347.17,-181.87C359.09,-172.39 373.83,-160.66 387.93,-149.44"/>
<polygon fill="grey" stroke="grey" stroke-width="2" points="390.48,-151.88 396.13,-142.92 386.13,-146.4 390.48,-151.88"/>
</g>
<!-- 4 -->
<g id="node5" class="node">
<title>4</title>
<path fill="none" stroke="#9fd856" stroke-width="2" d="M854,-223C854,-223 675,-223 675,-223 669,-223 663,-217 663,-211 663,-211 663,-194 663,-194 663,-188 669,-182 675,-182 675,-182 854,-182 854,-182 860,-182 866,-188 866,-194 866,-194 866,-211 866,-211 866,-217 860,-223 854,-223"/>
<text text-anchor="middle" x="764.5" y="-211" font-family="sans" font-size="10.00">cp_vcfs</text>
<text text-anchor="middle" x="764.5" y="-200" font-family="sans" font-size="10.00">caller2mv: strelka2</text>
<text text-anchor="middle" x="764.5" y="-189" font-family="sans" font-size="10.00">library: N100_R2_AF0.6_NR7000_REP1</text>
</g>
<!-- 4&#45;&gt;0 -->
<g id="edge4" class="edge">
<title>4&#45;&gt;0</title>
<path fill="none" stroke="grey" stroke-width="2" d="M742.45,-181.86C733.16,-172.11 723.38,-159.54 718.5,-146 706.59,-112.96 715.48,-72.32 724.03,-46.05"/>
<polygon fill="grey" stroke="grey" stroke-width="2" points="727.41,-47 727.37,-36.4 720.79,-44.71 727.41,-47"/>
</g>
<!-- 11 -->
<g id="node12" class="node">
<title>11</title>
<path fill="none" stroke="#68d856" stroke-width="2" d="M804,-146C804,-146 739,-146 739,-146 733,-146 727,-140 727,-134 727,-134 727,-84 727,-84 727,-78 733,-72 739,-72 739,-72 804,-72 804,-72 810,-72 816,-78 816,-84 816,-84 816,-134 816,-134 816,-140 810,-146 804,-146"/>
<text text-anchor="middle" x="771.5" y="-134" font-family="sans" font-size="10.00">evaluate_call</text>
<text text-anchor="middle" x="771.5" y="-123" font-family="sans" font-size="10.00">AF: 0.6</text>
<text text-anchor="middle" x="771.5" y="-112" font-family="sans" font-size="10.00">NR: 7000</text>
<text text-anchor="middle" x="771.5" y="-101" font-family="sans" font-size="10.00">REP: 1</text>
<text text-anchor="middle" x="771.5" y="-90" font-family="sans" font-size="10.00">caller: strelka2</text>
<text text-anchor="middle" x="771.5" y="-79" font-family="sans" font-size="10.00">lib: N100_R2</text>
</g>
<!-- 4&#45;&gt;11 -->
<g id="edge25" class="edge">
<title>4&#45;&gt;11</title>
<path fill="none" stroke="grey" stroke-width="2" d="M766.02,-181.65C766.6,-174.08 767.28,-165.12 767.97,-156.13"/>
<polygon fill="grey" stroke="grey" stroke-width="2" points="771.47,-156.28 768.74,-146.05 764.49,-155.75 771.47,-156.28"/>
</g>
<!-- 5 -->
<g id="node6" class="node">
<title>5</title>
<path fill="none" stroke="#9fd856" stroke-width="2" d="M633,-223C633,-223 454,-223 454,-223 448,-223 442,-217 442,-211 442,-211 442,-194 442,-194 442,-188 448,-182 454,-182 454,-182 633,-182 633,-182 639,-182 645,-188 645,-194 645,-194 645,-211 645,-211 645,-217 639,-223 633,-223"/>
<text text-anchor="middle" x="543.5" y="-211" font-family="sans" font-size="10.00">cp_vcfs</text>
<text text-anchor="middle" x="543.5" y="-200" font-family="sans" font-size="10.00">caller2mv: varscan</text>
<text text-anchor="middle" x="543.5" y="-189" font-family="sans" font-size="10.00">library: N100_R2_AF0.6_NR7000_REP1</text>
</g>
<!-- 5&#45;&gt;0 -->
<g id="edge5" class="edge">
<title>5&#45;&gt;0</title>
<path fill="none" stroke="grey" stroke-width="2" d="M542.08,-181.69C541.21,-153.69 543.9,-102.55 571.5,-72 603.68,-36.38 660.04,-24.6 697.32,-20.77"/>
<polygon fill="grey" stroke="grey" stroke-width="2" points="697.64,-24.25 707.29,-19.88 697.02,-17.28 697.64,-24.25"/>
</g>
<!-- 12 -->
<g id="node13" class="node">
<title>12</title>
<path fill="none" stroke="#68d856" stroke-width="2" d="M656.5,-146C656.5,-146 592.5,-146 592.5,-146 586.5,-146 580.5,-140 580.5,-134 580.5,-134 580.5,-84 580.5,-84 580.5,-78 586.5,-72 592.5,-72 592.5,-72 656.5,-72 656.5,-72 662.5,-72 668.5,-78 668.5,-84 668.5,-84 668.5,-134 668.5,-134 668.5,-140 662.5,-146 656.5,-146"/>
<text text-anchor="middle" x="624.5" y="-134" font-family="sans" font-size="10.00">evaluate_call</text>
<text text-anchor="middle" x="624.5" y="-123" font-family="sans" font-size="10.00">AF: 0.6</text>
<text text-anchor="middle" x="624.5" y="-112" font-family="sans" font-size="10.00">NR: 7000</text>
<text text-anchor="middle" x="624.5" y="-101" font-family="sans" font-size="10.00">REP: 1</text>
<text text-anchor="middle" x="624.5" y="-90" font-family="sans" font-size="10.00">caller: varscan</text>
<text text-anchor="middle" x="624.5" y="-79" font-family="sans" font-size="10.00">lib: N100_R2</text>
</g>
<!-- 5&#45;&gt;12 -->
<g id="edge26" class="edge">
<title>5&#45;&gt;12</title>
<path fill="none" stroke="grey" stroke-width="2" d="M561.08,-181.65C568.35,-173.43 577.08,-163.56 585.72,-153.81"/>
<polygon fill="grey" stroke="grey" stroke-width="2" points="588.58,-155.85 592.59,-146.05 583.34,-151.21 588.58,-155.85"/>
</g>
<!-- 6 -->
<g id="node7" class="node">
<title>6</title>
<path fill="none" stroke="#9fd856" stroke-width="2" d="M1075,-223C1075,-223 896,-223 896,-223 890,-223 884,-217 884,-211 884,-211 884,-194 884,-194 884,-188 890,-182 896,-182 896,-182 1075,-182 1075,-182 1081,-182 1087,-188 1087,-194 1087,-194 1087,-211 1087,-211 1087,-217 1081,-223 1075,-223"/>
<text text-anchor="middle" x="985.5" y="-211" font-family="sans" font-size="10.00">cp_vcfs</text>
<text text-anchor="middle" x="985.5" y="-200" font-family="sans" font-size="10.00">caller2mv: somaticsniper</text>
<text text-anchor="middle" x="985.5" y="-189" font-family="sans" font-size="10.00">library: N100_R2_AF0.6_NR7000_REP1</text>
</g>
<!-- 6&#45;&gt;0 -->
<g id="edge6" class="edge">
<title>6&#45;&gt;0</title>
<path fill="none" stroke="grey" stroke-width="2" d="M957.25,-181.8C942.74,-171.45 924.92,-158.38 909.5,-146 870.7,-114.85 865.85,-101.1 825.5,-72 808.23,-59.55 787.85,-47.46 770.75,-37.98"/>
<polygon fill="grey" stroke="grey" stroke-width="2" points="772.09,-34.72 761.64,-32.99 768.73,-40.86 772.09,-34.72"/>
</g>
<!-- 13 -->
<g id="node14" class="node">
<title>13</title>
<path fill="none" stroke="#68d856" stroke-width="2" d="M1025,-146C1025,-146 930,-146 930,-146 924,-146 918,-140 918,-134 918,-134 918,-84 918,-84 918,-78 924,-72 930,-72 930,-72 1025,-72 1025,-72 1031,-72 1037,-78 1037,-84 1037,-84 1037,-134 1037,-134 1037,-140 1031,-146 1025,-146"/>
<text text-anchor="middle" x="977.5" y="-134" font-family="sans" font-size="10.00">evaluate_call</text>
<text text-anchor="middle" x="977.5" y="-123" font-family="sans" font-size="10.00">AF: 0.6</text>
<text text-anchor="middle" x="977.5" y="-112" font-family="sans" font-size="10.00">NR: 7000</text>
<text text-anchor="middle" x="977.5" y="-101" font-family="sans" font-size="10.00">REP: 1</text>
<text text-anchor="middle" x="977.5" y="-90" font-family="sans" font-size="10.00">caller: somaticsniper</text>
<text text-anchor="middle" x="977.5" y="-79" font-family="sans" font-size="10.00">lib: N100_R2</text>
</g>
<!-- 6&#45;&gt;13 -->
<g id="edge27" class="edge">
<title>6&#45;&gt;13</title>
<path fill="none" stroke="grey" stroke-width="2" d="M983.76,-181.65C983.1,-174.08 982.32,-165.12 981.53,-156.13"/>
<polygon fill="grey" stroke="grey" stroke-width="2" points="985.01,-155.7 980.65,-146.05 978.04,-156.31 985.01,-155.7"/>
</g>
<!-- 7 -->
<g id="node8" class="node">
<title>7</title>
<path fill="none" stroke="#9fd856" stroke-width="2" d="M1296,-223C1296,-223 1117,-223 1117,-223 1111,-223 1105,-217 1105,-211 1105,-211 1105,-194 1105,-194 1105,-188 1111,-182 1117,-182 1117,-182 1296,-182 1296,-182 1302,-182 1308,-188 1308,-194 1308,-194 1308,-211 1308,-211 1308,-217 1302,-223 1296,-223"/>
<text text-anchor="middle" x="1206.5" y="-211" font-family="sans" font-size="10.00">cp_vcfs</text>
<text text-anchor="middle" x="1206.5" y="-200" font-family="sans" font-size="10.00">caller2mv: muse</text>
<text text-anchor="middle" x="1206.5" y="-189" font-family="sans" font-size="10.00">library: N100_R2_AF0.6_NR7000_REP1</text>
</g>
<!-- 7&#45;&gt;0 -->
<g id="edge7" class="edge">
<title>7&#45;&gt;0</title>
<path fill="none" stroke="grey" stroke-width="2" d="M1183.48,-181.78C1143.04,-147.3 1062.01,-79.01 1046.5,-72 953.92,-30.17 832.32,-21.12 771.91,-19.31"/>
<polygon fill="grey" stroke="grey" stroke-width="2" points="771.79,-15.81 761.71,-19.06 771.62,-22.81 771.79,-15.81"/>
</g>
<!-- 14 -->
<g id="node15" class="node">
<title>14</title>
<path fill="none" stroke="#68d856" stroke-width="2" d="M1222.5,-146C1222.5,-146 1164.5,-146 1164.5,-146 1158.5,-146 1152.5,-140 1152.5,-134 1152.5,-134 1152.5,-84 1152.5,-84 1152.5,-78 1158.5,-72 1164.5,-72 1164.5,-72 1222.5,-72 1222.5,-72 1228.5,-72 1234.5,-78 1234.5,-84 1234.5,-84 1234.5,-134 1234.5,-134 1234.5,-140 1228.5,-146 1222.5,-146"/>
<text text-anchor="middle" x="1193.5" y="-134" font-family="sans" font-size="10.00">evaluate_call</text>
<text text-anchor="middle" x="1193.5" y="-123" font-family="sans" font-size="10.00">AF: 0.6</text>
<text text-anchor="middle" x="1193.5" y="-112" font-family="sans" font-size="10.00">NR: 7000</text>
<text text-anchor="middle" x="1193.5" y="-101" font-family="sans" font-size="10.00">REP: 1</text>
<text text-anchor="middle" x="1193.5" y="-90" font-family="sans" font-size="10.00">caller: muse</text>
<text text-anchor="middle" x="1193.5" y="-79" font-family="sans" font-size="10.00">lib: N100_R2</text>
</g>
<!-- 7&#45;&gt;14 -->
<g id="edge28" class="edge">
<title>7&#45;&gt;14</title>
<path fill="none" stroke="grey" stroke-width="2" d="M1203.68,-181.65C1202.6,-174.08 1201.33,-165.12 1200.05,-156.13"/>
<polygon fill="grey" stroke="grey" stroke-width="2" points="1203.49,-155.45 1198.62,-146.05 1196.56,-156.44 1203.49,-155.45"/>
</g>
<!-- 8&#45;&gt;0 -->
<g id="edge8" class="edge">
<title>8&#45;&gt;0</title>
<path fill="none" stroke="grey" stroke-width="2" d="M1364.2,-85.5C1351.91,-80.26 1338.42,-75.26 1325.5,-72 1121.12,-20.43 865.9,-17.44 771.67,-18.32"/>
<polygon fill="grey" stroke="grey" stroke-width="2" points="771.47,-14.82 761.51,-18.43 771.55,-21.82 771.47,-14.82"/>
</g>
<!-- 9&#45;&gt;0 -->
<g id="edge9" class="edge">
<title>9&#45;&gt;0</title>
<path fill="none" stroke="grey" stroke-width="2" d="M298.58,-83.21C308.61,-78.92 319.24,-74.91 329.5,-72 461.22,-34.62 624.64,-23.48 697.01,-20.26"/>
<polygon fill="grey" stroke="grey" stroke-width="2" points="697.57,-23.74 707.42,-19.82 697.28,-16.74 697.57,-23.74"/>
</g>
<!-- 10&#45;&gt;0 -->
<g id="edge10" class="edge">
<title>10&#45;&gt;0</title>
<path fill="none" stroke="grey" stroke-width="2" d="M478.76,-91.48C495.6,-85.02 515.35,-77.78 533.5,-72 589.97,-54.02 656.69,-37.3 697.28,-27.62"/>
<polygon fill="grey" stroke="grey" stroke-width="2" points="698.34,-30.97 707.27,-25.26 696.73,-24.16 698.34,-30.97"/>
</g>
<!-- 11&#45;&gt;0 -->
<g id="edge11" class="edge">
<title>11&#45;&gt;0</title>
<path fill="none" stroke="grey" stroke-width="2" d="M756.45,-71.8C752.81,-63.04 748.98,-53.84 745.56,-45.61"/>
<polygon fill="grey" stroke="grey" stroke-width="2" points="748.7,-44.05 741.63,-36.16 742.24,-46.74 748.7,-44.05"/>
</g>
<!-- 12&#45;&gt;0 -->
<g id="edge12" class="edge">
<title>12&#45;&gt;0</title>
<path fill="none" stroke="grey" stroke-width="2" d="M668.61,-72.31C681.02,-62.27 694.2,-51.61 705.48,-42.48"/>
<polygon fill="grey" stroke="grey" stroke-width="2" points="707.75,-45.14 713.33,-36.13 703.35,-39.7 707.75,-45.14"/>
</g>
<!-- 13&#45;&gt;0 -->
<g id="edge13" class="edge">
<title>13&#45;&gt;0</title>
<path fill="none" stroke="grey" stroke-width="2" d="M917.83,-83.36C908.06,-79.47 898.02,-75.56 888.5,-72 848.71,-57.12 802.58,-41.45 771.26,-31.04"/>
<polygon fill="grey" stroke="grey" stroke-width="2" points="772.23,-27.68 761.64,-27.86 770.03,-34.32 772.23,-27.68"/>
</g>
<!-- 14&#45;&gt;0 -->
<g id="edge14" class="edge">
<title>14&#45;&gt;0</title>
<path fill="none" stroke="grey" stroke-width="2" d="M1152.37,-85.44C1141.61,-80.33 1129.84,-75.41 1118.5,-72 994.99,-34.83 841.18,-23.61 771.67,-20.32"/>
<polygon fill="grey" stroke="grey" stroke-width="2" points="771.79,-16.82 761.65,-19.87 771.48,-23.81 771.79,-16.82"/>
</g>
<!-- 15 -->
<g id="node16" class="node">
<title>15</title>
<path fill="none" stroke="#78d856" stroke-width="2" d="M1351,-369.5C1351,-369.5 1266,-369.5 1266,-369.5 1260,-369.5 1254,-363.5 1254,-357.5 1254,-357.5 1254,-345.5 1254,-345.5 1254,-339.5 1260,-333.5 1266,-333.5 1266,-333.5 1351,-333.5 1351,-333.5 1357,-333.5 1363,-339.5 1363,-345.5 1363,-345.5 1363,-357.5 1363,-357.5 1363,-363.5 1357,-369.5 1351,-369.5"/>
<text text-anchor="middle" x="1308.5" y="-354.5" font-family="sans" font-size="10.00">bedtools_substract</text>
<text text-anchor="middle" x="1308.5" y="-343.5" font-family="sans" font-size="10.00">caller: mutect2</text>
</g>
<!-- 15&#45;&gt;1 -->
<g id="edge15" class="edge">
<title>15&#45;&gt;1</title>
<path fill="none" stroke="grey" stroke-width="2" d="M1322.38,-333.35C1342.67,-308.29 1380.64,-261.39 1404.96,-231.34"/>
<polygon fill="grey" stroke="grey" stroke-width="2" points="1407.86,-233.32 1411.43,-223.35 1402.42,-228.92 1407.86,-233.32"/>
</g>
<!-- 16 -->
<g id="node17" class="node">
<title>16</title>
<path fill="none" stroke="#78d856" stroke-width="2" d="M269,-444C269,-444 184,-444 184,-444 178,-444 172,-438 172,-432 172,-432 172,-420 172,-420 172,-414 178,-408 184,-408 184,-408 269,-408 269,-408 275,-408 281,-414 281,-420 281,-420 281,-432 281,-432 281,-438 275,-444 269,-444"/>
<text text-anchor="middle" x="226.5" y="-429" font-family="sans" font-size="10.00">bedtools_substract</text>
<text text-anchor="middle" x="226.5" y="-418" font-family="sans" font-size="10.00">caller: freebayes</text>
</g>
<!-- 16&#45;&gt;2 -->
<g id="edge16" class="edge">
<title>16&#45;&gt;2</title>
<path fill="none" stroke="grey" stroke-width="2" d="M216.9,-407.99C195.56,-370.17 144,-278.8 117.62,-232.07"/>
<polygon fill="grey" stroke="grey" stroke-width="2" points="120.51,-230.07 112.55,-223.08 114.42,-233.51 120.51,-230.07"/>
</g>
<!-- 17 -->
<g id="node18" class="node">
<title>17</title>
<path fill="none" stroke="#78d856" stroke-width="2" d="M432,-369.5C432,-369.5 347,-369.5 347,-369.5 341,-369.5 335,-363.5 335,-357.5 335,-357.5 335,-345.5 335,-345.5 335,-339.5 341,-333.5 347,-333.5 347,-333.5 432,-333.5 432,-333.5 438,-333.5 444,-339.5 444,-345.5 444,-345.5 444,-357.5 444,-357.5 444,-363.5 438,-369.5 432,-369.5"/>
<text text-anchor="middle" x="389.5" y="-354.5" font-family="sans" font-size="10.00">bedtools_substract</text>
<text text-anchor="middle" x="389.5" y="-343.5" font-family="sans" font-size="10.00">caller: gatk</text>
</g>
<!-- 17&#45;&gt;3 -->
<g id="edge17" class="edge">
<title>17&#45;&gt;3</title>
<path fill="none" stroke="grey" stroke-width="2" d="M381.68,-333.35C370.41,-308.61 349.43,-262.59 335.72,-232.5"/>
<polygon fill="grey" stroke="grey" stroke-width="2" points="338.88,-230.99 331.55,-223.35 332.51,-233.9 338.88,-230.99"/>
</g>
<!-- 18 -->
<g id="node19" class="node">
<title>18</title>
<path fill="none" stroke="#78d856" stroke-width="2" d="M807,-444C807,-444 722,-444 722,-444 716,-444 710,-438 710,-432 710,-432 710,-420 710,-420 710,-414 716,-408 722,-408 722,-408 807,-408 807,-408 813,-408 819,-414 819,-420 819,-420 819,-432 819,-432 819,-438 813,-444 807,-444"/>
<text text-anchor="middle" x="764.5" y="-429" font-family="sans" font-size="10.00">bedtools_substract</text>
<text text-anchor="middle" x="764.5" y="-418" font-family="sans" font-size="10.00">caller: strelka2</text>
</g>
<!-- 18&#45;&gt;4 -->
<g id="edge18" class="edge">
<title>18&#45;&gt;4</title>
<path fill="none" stroke="grey" stroke-width="2" d="M764.5,-407.99C764.5,-370.49 764.5,-280.33 764.5,-233.25"/>
<polygon fill="grey" stroke="grey" stroke-width="2" points="768,-233.08 764.5,-223.08 761,-233.08 768,-233.08"/>
</g>
<!-- 19 -->
<g id="node20" class="node">
<title>19</title>
<path fill="none" stroke="#78d856" stroke-width="2" d="M598,-295C598,-295 513,-295 513,-295 507,-295 501,-289 501,-283 501,-283 501,-271 501,-271 501,-265 507,-259 513,-259 513,-259 598,-259 598,-259 604,-259 610,-265 610,-271 610,-271 610,-283 610,-283 610,-289 604,-295 598,-295"/>
<text text-anchor="middle" x="555.5" y="-280" font-family="sans" font-size="10.00">bedtools_substract</text>
<text text-anchor="middle" x="555.5" y="-269" font-family="sans" font-size="10.00">caller: varscan</text>
</g>
<!-- 19&#45;&gt;5 -->
<g id="edge19" class="edge">
<title>19&#45;&gt;5</title>
<path fill="none" stroke="grey" stroke-width="2" d="M552.66,-258.82C551.38,-251.11 549.84,-241.8 548.39,-233.03"/>
<polygon fill="grey" stroke="grey" stroke-width="2" points="551.83,-232.41 546.75,-223.12 544.93,-233.56 551.83,-232.41"/>
</g>
<!-- 20 -->
<g id="node21" class="node">
<title>20</title>
<path fill="none" stroke="#78d856" stroke-width="2" d="M966,-295C966,-295 871,-295 871,-295 865,-295 859,-289 859,-283 859,-283 859,-271 859,-271 859,-265 865,-259 871,-259 871,-259 966,-259 966,-259 972,-259 978,-265 978,-271 978,-271 978,-283 978,-283 978,-289 972,-295 966,-295"/>
<text text-anchor="middle" x="918.5" y="-280" font-family="sans" font-size="10.00">bedtools_substract</text>
<text text-anchor="middle" x="918.5" y="-269" font-family="sans" font-size="10.00">caller: somaticsniper</text>
</g>
<!-- 20&#45;&gt;6 -->
<g id="edge20" class="edge">
<title>20&#45;&gt;6</title>
<path fill="none" stroke="grey" stroke-width="2" d="M934.38,-258.82C942.19,-250.36 951.8,-239.97 960.57,-230.48"/>
<polygon fill="grey" stroke="grey" stroke-width="2" points="963.15,-232.84 967.37,-223.12 958.01,-228.09 963.15,-232.84"/>
</g>
<!-- 21 -->
<g id="node22" class="node">
<title>21</title>
<path fill="none" stroke="#56d8c9" stroke-width="2" d="M919.5,-516C919.5,-516 889.5,-516 889.5,-516 883.5,-516 877.5,-510 877.5,-504 877.5,-504 877.5,-492 877.5,-492 877.5,-486 883.5,-480 889.5,-480 889.5,-480 919.5,-480 919.5,-480 925.5,-480 931.5,-486 931.5,-492 931.5,-492 931.5,-504 931.5,-504 931.5,-510 925.5,-516 919.5,-516"/>
<text text-anchor="middle" x="904.5" y="-495.5" font-family="sans" font-size="10.00">muse</text>
</g>
<!-- 21&#45;&gt;7 -->
<g id="edge21" class="edge">
<title>21&#45;&gt;7</title>
<path fill="none" stroke="grey" stroke-width="2" d="M922.04,-479.95C972.38,-431.03 1117.62,-289.88 1178.8,-230.42"/>
<polygon fill="grey" stroke="grey" stroke-width="2" points="1181.44,-232.73 1186.18,-223.25 1176.57,-227.71 1181.44,-232.73"/>
</g>
<!-- 22 -->
<g id="node23" class="node">
<title>22</title>
<path fill="none" stroke="#56d88a" stroke-width="2" d="M1023.5,-516C1023.5,-516 963.5,-516 963.5,-516 957.5,-516 951.5,-510 951.5,-504 951.5,-504 951.5,-492 951.5,-492 951.5,-486 957.5,-480 963.5,-480 963.5,-480 1023.5,-480 1023.5,-480 1029.5,-480 1035.5,-486 1035.5,-492 1035.5,-492 1035.5,-504 1035.5,-504 1035.5,-510 1029.5,-516 1023.5,-516"/>
<text text-anchor="middle" x="993.5" y="-495.5" font-family="sans" font-size="10.00">gatk_mutect2</text>
</g>
<!-- 22&#45;&gt;15 -->
<g id="edge29" class="edge">
<title>22&#45;&gt;15</title>
<path fill="none" stroke="grey" stroke-width="2" d="M1035.52,-480.18C1060.38,-470.04 1092.41,-456.68 1120.5,-444 1170.82,-421.28 1227.72,-393.25 1265.61,-374.25"/>
<polygon fill="grey" stroke="grey" stroke-width="2" points="1267.45,-377.24 1274.81,-369.62 1264.31,-370.99 1267.45,-377.24"/>
</g>
<!-- 23 -->
<g id="node24" class="node">
<title>23</title>
<path fill="none" stroke="#56d8d8" stroke-width="2" d="M368,-516C368,-516 327,-516 327,-516 321,-516 315,-510 315,-504 315,-504 315,-492 315,-492 315,-486 321,-480 327,-480 327,-480 368,-480 368,-480 374,-480 380,-486 380,-492 380,-492 380,-504 380,-504 380,-510 374,-516 368,-516"/>
<text text-anchor="middle" x="347.5" y="-495.5" font-family="sans" font-size="10.00">freebayes</text>
</g>
<!-- 23&#45;&gt;16 -->
<g id="edge30" class="edge">
<title>23&#45;&gt;16</title>
<path fill="none" stroke="grey" stroke-width="2" d="M317.9,-479.88C301.93,-470.64 282.04,-459.13 264.89,-449.21"/>
<polygon fill="grey" stroke="grey" stroke-width="2" points="266.62,-446.17 256.21,-444.19 263.12,-452.23 266.62,-446.17"/>
</g>
<!-- 24 -->
<g id="node25" class="node">
<title>24</title>
<path fill="none" stroke="#568ad8" stroke-width="2" d="M458.5,-444C458.5,-444 366.5,-444 366.5,-444 360.5,-444 354.5,-438 354.5,-432 354.5,-432 354.5,-420 354.5,-420 354.5,-414 360.5,-408 366.5,-408 366.5,-408 458.5,-408 458.5,-408 464.5,-408 470.5,-414 470.5,-420 470.5,-420 470.5,-432 470.5,-432 470.5,-438 464.5,-444 458.5,-444"/>
<text text-anchor="middle" x="412.5" y="-423.5" font-family="sans" font-size="10.00">gatk_genotypegvcfs</text>
</g>
<!-- 24&#45;&gt;17 -->
<g id="edge31" class="edge">
<title>24&#45;&gt;17</title>
<path fill="none" stroke="grey" stroke-width="2" d="M407.05,-407.82C404.36,-399.33 401.05,-388.89 398.03,-379.38"/>
<polygon fill="grey" stroke="grey" stroke-width="2" points="401.27,-378.03 394.91,-369.56 394.6,-380.15 401.27,-378.03"/>
</g>
<!-- 25 -->
<g id="node26" class="node">
<title>25</title>
<path fill="none" stroke="#d8c356" stroke-width="2" d="M743.5,-516C743.5,-516 711.5,-516 711.5,-516 705.5,-516 699.5,-510 699.5,-504 699.5,-504 699.5,-492 699.5,-492 699.5,-486 705.5,-480 711.5,-480 711.5,-480 743.5,-480 743.5,-480 749.5,-480 755.5,-486 755.5,-492 755.5,-492 755.5,-504 755.5,-504 755.5,-510 749.5,-516 743.5,-516"/>
<text text-anchor="middle" x="727.5" y="-495.5" font-family="sans" font-size="10.00">strelka2</text>
</g>
<!-- 25&#45;&gt;18 -->
<g id="edge32" class="edge">
<title>25&#45;&gt;18</title>
<path fill="none" stroke="grey" stroke-width="2" d="M736.65,-479.7C740.9,-471.64 746.06,-461.89 750.77,-452.98"/>
<polygon fill="grey" stroke="grey" stroke-width="2" points="753.88,-454.58 755.46,-444.1 747.69,-451.31 753.88,-454.58"/>
</g>
<!-- 26 -->
<g id="node27" class="node">
<title>26</title>
<path fill="none" stroke="#8fd856" stroke-width="2" d="M633,-372C633,-372 502,-372 502,-372 496,-372 490,-366 490,-360 490,-360 490,-343 490,-343 490,-337 496,-331 502,-331 502,-331 633,-331 633,-331 639,-331 645,-337 645,-343 645,-343 645,-360 645,-360 645,-366 639,-372 633,-372"/>
<text text-anchor="middle" x="567.5" y="-360" font-family="sans" font-size="10.00">varscan2vcf</text>
<text text-anchor="middle" x="567.5" y="-349" font-family="sans" font-size="10.00">REP: 1</text>
<text text-anchor="middle" x="567.5" y="-338" font-family="sans" font-size="10.00">lib: N100_R2_AF0.6_NR7000</text>
</g>
<!-- 26&#45;&gt;19 -->
<g id="edge33" class="edge">
<title>26&#45;&gt;19</title>
<path fill="none" stroke="grey" stroke-width="2" d="M564.22,-330.69C562.93,-322.91 561.43,-313.84 560.04,-305.45"/>
<polygon fill="grey" stroke="grey" stroke-width="2" points="563.45,-304.61 558.37,-295.32 556.55,-305.76 563.45,-304.61"/>
</g>
<!-- 27 -->
<g id="node28" class="node">
<title>27</title>
<path fill="none" stroke="#b6d856" stroke-width="2" d="M847.5,-516C847.5,-516 785.5,-516 785.5,-516 779.5,-516 773.5,-510 773.5,-504 773.5,-504 773.5,-492 773.5,-492 773.5,-486 779.5,-480 785.5,-480 785.5,-480 847.5,-480 847.5,-480 853.5,-480 859.5,-486 859.5,-492 859.5,-492 859.5,-504 859.5,-504 859.5,-510 853.5,-516 847.5,-516"/>
<text text-anchor="middle" x="816.5" y="-495.5" font-family="sans" font-size="10.00">somaticsniper</text>
</g>
<!-- 27&#45;&gt;20 -->
<g id="edge34" class="edge">
<title>27&#45;&gt;20</title>
<path fill="none" stroke="grey" stroke-width="2" d="M824.5,-479.82C842.27,-441.68 885.09,-349.74 906.24,-304.31"/>
<polygon fill="grey" stroke="grey" stroke-width="2" points="909.48,-305.65 910.53,-295.1 903.14,-302.69 909.48,-305.65"/>
</g>
<!-- 28 -->
<g id="node29" class="node">
<title>28</title>
<path fill="none" stroke="#567bd8" stroke-width="2" d="M737,-660C737,-660 642,-660 642,-660 636,-660 630,-654 630,-648 630,-648 630,-636 630,-636 630,-630 636,-624 642,-624 642,-624 737,-624 737,-624 743,-624 749,-630 749,-636 749,-636 749,-648 749,-648 749,-654 743,-660 737,-660"/>
<text text-anchor="middle" x="689.5" y="-639.5" font-family="sans" font-size="10.00">gatk_markduplicates</text>
</g>
<!-- 28&#45;&gt;21 -->
<g id="edge35" class="edge">
<title>28&#45;&gt;21</title>
<path fill="none" stroke="grey" stroke-width="2" d="M746.66,-623.92C770.65,-615.26 798.12,-603.29 820.5,-588 846.29,-570.38 870.16,-543.65 885.81,-524.08"/>
<polygon fill="grey" stroke="grey" stroke-width="2" points="888.59,-526.21 891.99,-516.18 883.07,-521.9 888.59,-526.21"/>
</g>
<!-- 28&#45;&gt;22 -->
<g id="edge39" class="edge">
<title>28&#45;&gt;22</title>
<path fill="none" stroke="grey" stroke-width="2" d="M749.05,-640.76C837.62,-638.99 997.55,-629.91 1033.5,-588 1049.62,-569.21 1034.3,-542.87 1018.19,-523.73"/>
<polygon fill="grey" stroke="grey" stroke-width="2" points="1020.58,-521.15 1011.32,-516.01 1015.35,-525.8 1020.58,-521.15"/>
</g>
<!-- 28&#45;&gt;23 -->
<g id="edge43" class="edge">
<title>28&#45;&gt;23</title>
<path fill="none" stroke="grey" stroke-width="2" d="M629.63,-632.8C584.64,-625.15 522.29,-611.33 471.5,-588 434.88,-571.18 398.01,-542.94 374.11,-522.78"/>
<polygon fill="grey" stroke="grey" stroke-width="2" points="376.09,-519.87 366.22,-516.02 371.54,-525.18 376.09,-519.87"/>
</g>
<!-- 28&#45;&gt;25 -->
<g id="edge48" class="edge">
<title>28&#45;&gt;25</title>
<path fill="none" stroke="grey" stroke-width="2" d="M678.33,-623.67C667.98,-605.28 655.71,-575.67 666.5,-552 671.92,-540.11 681.46,-529.86 691.42,-521.63"/>
<polygon fill="grey" stroke="grey" stroke-width="2" points="693.63,-524.34 699.42,-515.47 689.36,-518.8 693.63,-524.34"/>
</g>
<!-- 28&#45;&gt;27 -->
<g id="edge52" class="edge">
<title>28&#45;&gt;27</title>
<path fill="none" stroke="grey" stroke-width="2" d="M749.02,-624.18C767.75,-616.1 786.84,-604.47 799.5,-588 812.94,-570.51 816.76,-545.47 817.46,-526.4"/>
<polygon fill="grey" stroke="grey" stroke-width="2" points="820.96,-526.28 817.57,-516.24 813.96,-526.2 820.96,-526.28"/>
</g>
<!-- 29 -->
<g id="node30" class="node">
<title>29</title>
<path fill="none" stroke="#d88d56" stroke-width="2" d="M778,-588C778,-588 687,-588 687,-588 681,-588 675,-582 675,-576 675,-576 675,-564 675,-564 675,-558 681,-552 687,-552 687,-552 778,-552 778,-552 784,-552 790,-558 790,-564 790,-564 790,-576 790,-576 790,-582 784,-588 778,-588"/>
<text text-anchor="middle" x="732.5" y="-567.5" font-family="sans" font-size="10.00">samtools_index_md</text>
</g>
<!-- 28&#45;&gt;29 -->
<g id="edge57" class="edge">
<title>28&#45;&gt;29</title>
<path fill="none" stroke="grey" stroke-width="2" d="M700.13,-623.7C705.13,-615.56 711.19,-605.69 716.71,-596.7"/>
<polygon fill="grey" stroke="grey" stroke-width="2" points="719.74,-598.46 721.99,-588.1 713.78,-594.79 719.74,-598.46"/>
</g>
<!-- 33 -->
<g id="node34" class="node">
<title>33</title>
<path fill="none" stroke="#56d8b1" stroke-width="2" d="M505,-516C505,-516 410,-516 410,-516 404,-516 398,-510 398,-504 398,-504 398,-492 398,-492 398,-486 404,-480 410,-480 410,-480 505,-480 505,-480 511,-480 517,-486 517,-492 517,-492 517,-504 517,-504 517,-510 511,-516 505,-516"/>
<text text-anchor="middle" x="457.5" y="-495.5" font-family="sans" font-size="10.00">gatk_haplotypecaller</text>
</g>
<!-- 28&#45;&gt;33 -->
<g id="edge58" class="edge">
<title>28&#45;&gt;33</title>
<path fill="none" stroke="grey" stroke-width="2" d="M629.84,-636.48C589.96,-630.71 538.43,-617.62 502.5,-588 483.16,-572.06 471.3,-545.68 464.65,-525.78"/>
<polygon fill="grey" stroke="grey" stroke-width="2" points="467.94,-524.56 461.63,-516.04 461.25,-526.63 467.94,-524.56"/>
</g>
<!-- 37 -->
<g id="node38" class="node">
<title>37</title>
<path fill="none" stroke="#56a2d8" stroke-width="2" d="M669,-516C669,-516 586,-516 586,-516 580,-516 574,-510 574,-504 574,-504 574,-492 574,-492 574,-486 580,-480 586,-480 586,-480 669,-480 669,-480 675,-480 681,-486 681,-492 681,-492 681,-504 681,-504 681,-510 675,-516 669,-516"/>
<text text-anchor="middle" x="627.5" y="-495.5" font-family="sans" font-size="10.00">samtools_mpileup</text>
</g>
<!-- 28&#45;&gt;37 -->
<g id="edge64" class="edge">
<title>28&#45;&gt;37</title>
<path fill="none" stroke="grey" stroke-width="2" d="M677.84,-623.86C671.29,-613.73 663.29,-600.48 657.5,-588 648.15,-567.84 640.26,-543.93 634.92,-525.97"/>
<polygon fill="grey" stroke="grey" stroke-width="2" points="638.22,-524.79 632.07,-516.16 631.49,-526.74 638.22,-524.79"/>
</g>
<!-- 29&#45;&gt;21 -->
<g id="edge36" class="edge">
<title>29&#45;&gt;21</title>
<path fill="none" stroke="grey" stroke-width="2" d="M778.47,-552C802.8,-542.79 833.32,-530.92 868.05,-516.07"/>
<polygon fill="grey" stroke="grey" stroke-width="2" points="869.66,-519.18 877.47,-512.01 866.9,-512.75 869.66,-519.18"/>
</g>
<!-- 29&#45;&gt;22 -->
<g id="edge40" class="edge">
<title>29&#45;&gt;22</title>
<path fill="none" stroke="grey" stroke-width="2" d="M790.14,-555.31C832.03,-545.12 890,-530.52 940.5,-516 940.83,-515.9 941.16,-515.81 941.5,-515.71"/>
<polygon fill="grey" stroke="grey" stroke-width="2" points="942.75,-518.99 951.33,-512.78 940.75,-512.28 942.75,-518.99"/>
</g>
<!-- 29&#45;&gt;23 -->
<g id="edge44" class="edge">
<title>29&#45;&gt;23</title>
<path fill="none" stroke="grey" stroke-width="2" d="M674.78,-561.81C595.56,-551.68 456.24,-532.79 390.31,-516.09"/>
<polygon fill="grey" stroke="grey" stroke-width="2" points="390.94,-512.64 380.38,-513.43 389.13,-519.4 390.94,-512.64"/>
</g>
<!-- 29&#45;&gt;25 -->
<g id="edge49" class="edge">
<title>29&#45;&gt;25</title>
<path fill="none" stroke="grey" stroke-width="2" d="M731.26,-551.7C730.71,-543.98 730.05,-534.71 729.44,-526.11"/>
<polygon fill="grey" stroke="grey" stroke-width="2" points="732.93,-525.83 728.72,-516.1 725.94,-526.33 732.93,-525.83"/>
</g>
<!-- 29&#45;&gt;27 -->
<g id="edge53" class="edge">
<title>29&#45;&gt;27</title>
<path fill="none" stroke="grey" stroke-width="2" d="M753.26,-551.7C763.74,-542.97 776.61,-532.24 788,-522.75"/>
<polygon fill="grey" stroke="grey" stroke-width="2" points="790.53,-525.19 795.97,-516.1 786.05,-519.82 790.53,-525.19"/>
</g>
<!-- 29&#45;&gt;33 -->
<g id="edge59" class="edge">
<title>29&#45;&gt;33</title>
<path fill="none" stroke="grey" stroke-width="2" d="M674.85,-554.33C631.86,-543.38 572.93,-528.38 527.27,-516.76"/>
<polygon fill="grey" stroke="grey" stroke-width="2" points="528,-513.34 517.45,-514.26 526.28,-520.12 528,-513.34"/>
</g>
<!-- 29&#45;&gt;37 -->
<g id="edge65" class="edge">
<title>29&#45;&gt;37</title>
<path fill="none" stroke="grey" stroke-width="2" d="M706.81,-551.88C693.21,-542.81 676.33,-531.55 661.64,-521.76"/>
<polygon fill="grey" stroke="grey" stroke-width="2" points="663.55,-518.82 653.28,-516.19 659.66,-524.65 663.55,-518.82"/>
</g>
<!-- 30 -->
<g id="node31" class="node">
<title>30</title>
<path fill="none" stroke="#c6d856" stroke-width="2" d="M568,-588C568,-588 523,-588 523,-588 517,-588 511,-582 511,-576 511,-576 511,-564 511,-564 511,-558 517,-552 523,-552 523,-552 568,-552 568,-552 574,-552 580,-558 580,-564 580,-564 580,-576 580,-576 580,-582 574,-588 568,-588"/>
<text text-anchor="middle" x="545.5" y="-573" font-family="sans" font-size="10.00">bwa_index</text>
<text text-anchor="middle" x="545.5" y="-562" font-family="sans" font-size="10.00">REP: 1</text>
</g>
<!-- 30&#45;&gt;21 -->
<g id="edge37" class="edge">
<title>30&#45;&gt;21</title>
<path fill="none" stroke="grey" stroke-width="2" d="M580.05,-563.89C652.21,-553.13 815.95,-528.32 867.59,-515.5"/>
<polygon fill="grey" stroke="grey" stroke-width="2" points="868.6,-518.85 877.3,-512.81 866.73,-512.11 868.6,-518.85"/>
</g>
<!-- 30&#45;&gt;23 -->
<g id="edge45" class="edge">
<title>30&#45;&gt;23</title>
<path fill="none" stroke="grey" stroke-width="2" d="M510.96,-558.08C480.99,-548.44 436.27,-533.67 389.48,-516.26"/>
<polygon fill="grey" stroke="grey" stroke-width="2" points="390.69,-512.98 380.09,-512.75 388.23,-519.53 390.69,-512.98"/>
</g>
<!-- 30&#45;&gt;24 -->
<g id="edge47" class="edge">
<title>30&#45;&gt;24</title>
<path fill="none" stroke="grey" stroke-width="2" d="M546.17,-551.69C546.02,-532.22 542.95,-500.63 526.5,-480 514.62,-465.1 497.58,-454.19 480.28,-446.29"/>
<polygon fill="grey" stroke="grey" stroke-width="2" points="481.25,-442.9 470.68,-442.21 478.51,-449.34 481.25,-442.9"/>
</g>
<!-- 30&#45;&gt;25 -->
<g id="edge50" class="edge">
<title>30&#45;&gt;25</title>
<path fill="none" stroke="grey" stroke-width="2" d="M580.08,-557.24C607.62,-547.68 647.31,-533.47 689.9,-516.1"/>
<polygon fill="grey" stroke="grey" stroke-width="2" points="691.4,-519.27 699.32,-512.23 688.74,-512.8 691.4,-519.27"/>
</g>
<!-- 30&#45;&gt;27 -->
<g id="edge54" class="edge">
<title>30&#45;&gt;27</title>
<path fill="none" stroke="grey" stroke-width="2" d="M580.24,-561.48C621.66,-552.32 693.17,-535.89 763.53,-516.17"/>
<polygon fill="grey" stroke="grey" stroke-width="2" points="764.78,-519.45 773.45,-513.36 762.87,-512.72 764.78,-519.45"/>
</g>
<!-- 30&#45;&gt;33 -->
<g id="edge60" class="edge">
<title>30&#45;&gt;33</title>
<path fill="none" stroke="grey" stroke-width="2" d="M523.75,-551.7C512.66,-542.88 499.03,-532.03 487.01,-522.47"/>
<polygon fill="grey" stroke="grey" stroke-width="2" points="489.01,-519.59 479,-516.1 484.65,-525.07 489.01,-519.59"/>
</g>
<!-- 30&#45;&gt;37 -->
<g id="edge66" class="edge">
<title>30&#45;&gt;37</title>
<path fill="none" stroke="grey" stroke-width="2" d="M565.77,-551.7C576,-542.97 588.56,-532.24 599.68,-522.75"/>
<polygon fill="grey" stroke="grey" stroke-width="2" points="602.13,-525.26 607.46,-516.1 597.59,-519.94 602.13,-525.26"/>
</g>
<!-- 31 -->
<g id="node32" class="node">
<title>31</title>
<path fill="none" stroke="#d87d56" stroke-width="2" d="M932,-588C932,-588 897,-588 897,-588 891,-588 885,-582 885,-576 885,-576 885,-564 885,-564 885,-558 891,-552 897,-552 897,-552 932,-552 932,-552 938,-552 944,-558 944,-564 944,-564 944,-576 944,-576 944,-582 938,-588 932,-588"/>
<text text-anchor="middle" x="914.5" y="-573" font-family="sans" font-size="10.00">gatk_idx</text>
<text text-anchor="middle" x="914.5" y="-562" font-family="sans" font-size="10.00">REP: 1</text>
</g>
<!-- 31&#45;&gt;21 -->
<g id="edge38" class="edge">
<title>31&#45;&gt;21</title>
<path fill="none" stroke="grey" stroke-width="2" d="M912.03,-551.7C910.93,-543.98 909.6,-534.71 908.37,-526.11"/>
<polygon fill="grey" stroke="grey" stroke-width="2" points="911.82,-525.51 906.94,-516.1 904.89,-526.5 911.82,-525.51"/>
</g>
<!-- 31&#45;&gt;22 -->
<g id="edge42" class="edge">
<title>31&#45;&gt;22</title>
<path fill="none" stroke="grey" stroke-width="2" d="M934.03,-551.7C943.88,-542.97 955.99,-532.24 966.7,-522.75"/>
<polygon fill="grey" stroke="grey" stroke-width="2" points="969.03,-525.36 974.2,-516.1 964.39,-520.12 969.03,-525.36"/>
</g>
<!-- 32 -->
<g id="node33" class="node">
<title>32</title>
<path fill="none" stroke="#d86656" stroke-width="2" d="M1012.5,-588C1012.5,-588 974.5,-588 974.5,-588 968.5,-588 962.5,-582 962.5,-576 962.5,-576 962.5,-564 962.5,-564 962.5,-558 968.5,-552 974.5,-552 974.5,-552 1012.5,-552 1012.5,-552 1018.5,-552 1024.5,-558 1024.5,-564 1024.5,-564 1024.5,-576 1024.5,-576 1024.5,-582 1018.5,-588 1012.5,-588"/>
<text text-anchor="middle" x="993.5" y="-573" font-family="sans" font-size="10.00">gatk_dict</text>
<text text-anchor="middle" x="993.5" y="-562" font-family="sans" font-size="10.00">REP: 1</text>
</g>
<!-- 32&#45;&gt;22 -->
<g id="edge41" class="edge">
<title>32&#45;&gt;22</title>
<path fill="none" stroke="grey" stroke-width="2" d="M993.5,-551.7C993.5,-543.98 993.5,-534.71 993.5,-526.11"/>
<polygon fill="grey" stroke="grey" stroke-width="2" points="997,-526.1 993.5,-516.1 990,-526.1 997,-526.1"/>
</g>
<!-- 33&#45;&gt;24 -->
<g id="edge46" class="edge">
<title>33&#45;&gt;24</title>
<path fill="none" stroke="grey" stroke-width="2" d="M446.38,-479.7C441.14,-471.56 434.8,-461.69 429.02,-452.7"/>
<polygon fill="grey" stroke="grey" stroke-width="2" points="431.85,-450.62 423.5,-444.1 425.96,-454.41 431.85,-450.62"/>
</g>
<!-- 34 -->
<g id="node35" class="node">
<title>34</title>
<path fill="none" stroke="#d8a456" stroke-width="2" d="M680,-444C680,-444 501,-444 501,-444 495,-444 489,-438 489,-432 489,-432 489,-420 489,-420 489,-414 495,-408 501,-408 501,-408 680,-408 680,-408 686,-408 692,-414 692,-420 692,-420 692,-432 692,-432 692,-438 686,-444 680,-444"/>
<text text-anchor="middle" x="590.5" y="-429" font-family="sans" font-size="10.00">varscan</text>
<text text-anchor="middle" x="590.5" y="-418" font-family="sans" font-size="10.00">library: N100_R2_AF0.6_NR7000_REP1</text>
</g>
<!-- 34&#45;&gt;26 -->
<g id="edge51" class="edge">
<title>34&#45;&gt;26</title>
<path fill="none" stroke="grey" stroke-width="2" d="M585.05,-407.82C582.58,-400.03 579.59,-390.6 576.78,-381.75"/>
<polygon fill="grey" stroke="grey" stroke-width="2" points="580.08,-380.59 573.72,-372.12 573.41,-382.71 580.08,-380.59"/>
</g>
<!-- 35 -->
<g id="node36" class="node">
<title>35</title>
<path fill="none" stroke="#566bd8" stroke-width="2" d="M720.5,-804C720.5,-804 658.5,-804 658.5,-804 652.5,-804 646.5,-798 646.5,-792 646.5,-792 646.5,-780 646.5,-780 646.5,-774 652.5,-768 658.5,-768 658.5,-768 720.5,-768 720.5,-768 726.5,-768 732.5,-774 732.5,-780 732.5,-780 732.5,-792 732.5,-792 732.5,-798 726.5,-804 720.5,-804"/>
<text text-anchor="middle" x="689.5" y="-783.5" font-family="sans" font-size="10.00">samtools_sort</text>
</g>
<!-- 35&#45;&gt;28 -->
<g id="edge55" class="edge">
<title>35&#45;&gt;28</title>
<path fill="none" stroke="grey" stroke-width="2" d="M682.02,-767.7C678.03,-757.52 673.53,-744.27 671.5,-732 668.89,-716.21 668.89,-711.79 671.5,-696 672.94,-687.28 675.63,-678.06 678.5,-669.8"/>
<polygon fill="grey" stroke="grey" stroke-width="2" points="681.83,-670.89 682.02,-660.3 675.27,-668.46 681.83,-670.89"/>
</g>
<!-- 36 -->
<g id="node37" class="node">
<title>36</title>
<path fill="none" stroke="#d85656" stroke-width="2" d="M762.5,-732C762.5,-732 692.5,-732 692.5,-732 686.5,-732 680.5,-726 680.5,-720 680.5,-720 680.5,-708 680.5,-708 680.5,-702 686.5,-696 692.5,-696 692.5,-696 762.5,-696 762.5,-696 768.5,-696 774.5,-702 774.5,-708 774.5,-708 774.5,-720 774.5,-720 774.5,-726 768.5,-732 762.5,-732"/>
<text text-anchor="middle" x="727.5" y="-711.5" font-family="sans" font-size="10.00">samtools_index</text>
</g>
<!-- 35&#45;&gt;36 -->
<g id="edge63" class="edge">
<title>35&#45;&gt;36</title>
<path fill="none" stroke="grey" stroke-width="2" d="M698.89,-767.7C703.26,-759.64 708.56,-749.89 713.4,-740.98"/>
<polygon fill="grey" stroke="grey" stroke-width="2" points="716.52,-742.56 718.21,-732.1 710.37,-739.22 716.52,-742.56"/>
</g>
<!-- 36&#45;&gt;28 -->
<g id="edge56" class="edge">
<title>36&#45;&gt;28</title>
<path fill="none" stroke="grey" stroke-width="2" d="M718.11,-695.7C713.74,-687.64 708.44,-677.89 703.6,-668.98"/>
<polygon fill="grey" stroke="grey" stroke-width="2" points="706.63,-667.22 698.79,-660.1 700.48,-670.56 706.63,-667.22"/>
</g>
<!-- 37&#45;&gt;34 -->
<g id="edge61" class="edge">
<title>37&#45;&gt;34</title>
<path fill="none" stroke="grey" stroke-width="2" d="M618.35,-479.7C614.1,-471.64 608.94,-461.89 604.23,-452.98"/>
<polygon fill="grey" stroke="grey" stroke-width="2" points="607.31,-451.31 599.54,-444.1 601.12,-454.58 607.31,-451.31"/>
</g>
<!-- 38 -->
<g id="node39" class="node">
<title>38</title>
<path fill="none" stroke="#56b1d8" stroke-width="2" d="M755,-881C755,-881 624,-881 624,-881 618,-881 612,-875 612,-869 612,-869 612,-852 612,-852 612,-846 618,-840 624,-840 624,-840 755,-840 755,-840 761,-840 767,-846 767,-852 767,-852 767,-869 767,-869 767,-875 761,-881 755,-881"/>
<text text-anchor="middle" x="689.5" y="-869" font-family="sans" font-size="10.00">bwa_mem</text>
<text text-anchor="middle" x="689.5" y="-858" font-family="sans" font-size="10.00">REP: 1</text>
<text text-anchor="middle" x="689.5" y="-847" font-family="sans" font-size="10.00">lib: N100_R2_AF0.6_NR7000</text>
</g>
<!-- 38&#45;&gt;35 -->
<g id="edge62" class="edge">
<title>38&#45;&gt;35</title>
<path fill="none" stroke="grey" stroke-width="2" d="M689.5,-839.69C689.5,-831.91 689.5,-822.84 689.5,-814.45"/>
<polygon fill="grey" stroke="grey" stroke-width="2" points="693,-814.32 689.5,-804.32 686,-814.32 693,-814.32"/>
</g>
<!-- 39 -->
<g id="node40" class="node">
<title>39</title>
<path fill="none" stroke="#d8b456" stroke-width="2" d="M779,-953C779,-953 600,-953 600,-953 594,-953 588,-947 588,-941 588,-941 588,-929 588,-929 588,-923 594,-917 600,-917 600,-917 779,-917 779,-917 785,-917 791,-923 791,-929 791,-929 791,-941 791,-941 791,-947 785,-953 779,-953"/>
<text text-anchor="middle" x="689.5" y="-938" font-family="sans" font-size="10.00">trimmomatic</text>
<text text-anchor="middle" x="689.5" y="-927" font-family="sans" font-size="10.00">library: N100_R2_AF0.6_NR7000_REP1</text>
</g>
<!-- 39&#45;&gt;38 -->
<g id="edge67" class="edge">
<title>39&#45;&gt;38</title>
<path fill="none" stroke="grey" stroke-width="2" d="M689.5,-916.82C689.5,-909.2 689.5,-900 689.5,-891.32"/>
<polygon fill="grey" stroke="grey" stroke-width="2" points="693,-891.12 689.5,-881.12 686,-891.12 693,-891.12"/>
</g>
</g>
</svg>
