<?xml version="1.0" encoding="UTF-8" standalone="no"?>
<!DOCTYPE svg PUBLIC "-//W3C//DTD SVG 1.1//EN"
 "http://www.w3.org/Graphics/SVG/1.1/DTD/svg11.dtd">
<!-- Generated by graphviz version 2.43.0 (0)
 -->
<!-- Title: snakemake_dag Pages: 1 -->
<svg width="1003pt" height="1212pt"
 viewBox="0.00 0.00 1002.50 1212.00" xmlns="http://www.w3.org/2000/svg" xmlns:xlink="http://www.w3.org/1999/xlink">
<g id="graph0" class="graph" transform="scale(1 1) rotate(0) translate(4 1208)">
<title>snakemake_dag</title>
<polygon fill="white" stroke="transparent" points="-4,4 -4,-1208 998.5,-1208 998.5,4 -4,4"/>
<!-- 0 -->
<g id="node1" class="node">
<title>0</title>
<path fill="none" stroke="#56d86b" stroke-width="2" d="M396.5,-36C396.5,-36 366.5,-36 366.5,-36 360.5,-36 354.5,-30 354.5,-24 354.5,-24 354.5,-12 354.5,-12 354.5,-6 360.5,0 366.5,0 366.5,0 396.5,0 396.5,0 402.5,0 408.5,-6 408.5,-12 408.5,-12 408.5,-24 408.5,-24 408.5,-30 402.5,-36 396.5,-36"/>
<text text-anchor="middle" x="381.5" y="-15.5" font-family="sans" font-size="10.00">all</text>
</g>
<!-- 1 -->
<g id="node2" class="node">
<title>1</title>
<path fill="none" stroke="#d89c56" stroke-width="2" d="M240.5,-108C240.5,-108 210.5,-108 210.5,-108 204.5,-108 198.5,-102 198.5,-96 198.5,-96 198.5,-84 198.5,-84 198.5,-78 204.5,-72 210.5,-72 210.5,-72 240.5,-72 240.5,-72 246.5,-72 252.5,-78 252.5,-84 252.5,-84 252.5,-96 252.5,-96 252.5,-102 246.5,-108 240.5,-108"/>
<text text-anchor="middle" x="225.5" y="-87.5" font-family="sans" font-size="10.00">psl2pos</text>
</g>
<!-- 1&#45;&gt;0 -->
<g id="edge1" class="edge">
<title>1&#45;&gt;0</title>
<path fill="none" stroke="grey" stroke-width="2" d="M252.67,-76.81C278.32,-65.3 316.95,-47.96 345.22,-35.28"/>
<polygon fill="grey" stroke="grey" stroke-width="2" points="346.69,-38.46 354.38,-31.17 343.82,-32.07 346.69,-38.46"/>
</g>
<!-- 2 -->
<g id="node3" class="node">
<title>2</title>
<path fill="none" stroke="#d8bc56" stroke-width="2" d="M724.5,-396C724.5,-396 678.5,-396 678.5,-396 672.5,-396 666.5,-390 666.5,-384 666.5,-384 666.5,-372 666.5,-372 666.5,-366 672.5,-360 678.5,-360 678.5,-360 724.5,-360 724.5,-360 730.5,-360 736.5,-366 736.5,-372 736.5,-372 736.5,-384 736.5,-384 736.5,-390 730.5,-396 724.5,-396"/>
<text text-anchor="middle" x="701.5" y="-375.5" font-family="sans" font-size="10.00">strelka2sql</text>
</g>
<!-- 2&#45;&gt;0 -->
<g id="edge2" class="edge">
<title>2&#45;&gt;0</title>
<path fill="none" stroke="grey" stroke-width="2" d="M684.36,-359.89C661.12,-334.8 622.5,-285.5 622.5,-235 622.5,-235 622.5,-235 622.5,-161 622.5,-67.65 486.63,-34.43 418.93,-23.67"/>
<polygon fill="grey" stroke="grey" stroke-width="2" points="419.09,-20.15 408.68,-22.13 418.05,-27.08 419.09,-20.15"/>
</g>
<!-- 3 -->
<g id="node4" class="node">
<title>3</title>
<path fill="none" stroke="#68d856" stroke-width="2" d="M399,-108C399,-108 364,-108 364,-108 358,-108 352,-102 352,-96 352,-96 352,-84 352,-84 352,-78 358,-72 364,-72 364,-72 399,-72 399,-72 405,-72 411,-78 411,-84 411,-84 411,-96 411,-96 411,-102 405,-108 399,-108"/>
<text text-anchor="middle" x="381.5" y="-87.5" font-family="sans" font-size="10.00">gatk2sql</text>
</g>
<!-- 3&#45;&gt;0 -->
<g id="edge3" class="edge">
<title>3&#45;&gt;0</title>
<path fill="none" stroke="grey" stroke-width="2" d="M381.5,-71.7C381.5,-63.98 381.5,-54.71 381.5,-46.11"/>
<polygon fill="grey" stroke="grey" stroke-width="2" points="385,-46.1 381.5,-36.1 378,-46.1 385,-46.1"/>
</g>
<!-- 4 -->
<g id="node5" class="node">
<title>4</title>
<path fill="none" stroke="#56d8d0" stroke-width="2" d="M185,-468C185,-468 152,-468 152,-468 146,-468 140,-462 140,-456 140,-456 140,-444 140,-444 140,-438 146,-432 152,-432 152,-432 185,-432 185,-432 191,-432 197,-438 197,-444 197,-444 197,-456 197,-456 197,-462 191,-468 185,-468"/>
<text text-anchor="middle" x="168.5" y="-447.5" font-family="sans" font-size="10.00">cp_napo</text>
</g>
<!-- 4&#45;&gt;1 -->
<g id="edge4" class="edge">
<title>4&#45;&gt;1</title>
<path fill="none" stroke="grey" stroke-width="2" d="M180.31,-431.96C197.01,-406.16 225.5,-355.08 225.5,-307 225.5,-307 225.5,-307 225.5,-233 225.5,-193 225.5,-146.65 225.5,-118.08"/>
<polygon fill="grey" stroke="grey" stroke-width="2" points="229,-118.05 225.5,-108.05 222,-118.05 229,-118.05"/>
</g>
<!-- 10 -->
<g id="node11" class="node">
<title>10</title>
<path fill="none" stroke="#d87556" stroke-width="2" d="M185.5,-252C185.5,-252 105.5,-252 105.5,-252 99.5,-252 93.5,-246 93.5,-240 93.5,-240 93.5,-228 93.5,-228 93.5,-222 99.5,-216 105.5,-216 105.5,-216 185.5,-216 185.5,-216 191.5,-216 197.5,-222 197.5,-228 197.5,-228 197.5,-240 197.5,-240 197.5,-246 191.5,-252 185.5,-252"/>
<text text-anchor="middle" x="145.5" y="-231.5" font-family="sans" font-size="10.00">bedtools_getfasta</text>
</g>
<!-- 4&#45;&gt;10 -->
<g id="edge15" class="edge">
<title>4&#45;&gt;10</title>
<path fill="none" stroke="grey" stroke-width="2" d="M170.76,-431.85C174.18,-402.16 179.18,-339.45 168.5,-288 166.62,-278.96 163.13,-269.58 159.41,-261.26"/>
<polygon fill="grey" stroke="grey" stroke-width="2" points="162.5,-259.6 155.04,-252.07 156.18,-262.61 162.5,-259.6"/>
</g>
<!-- 15 -->
<g id="node16" class="node">
<title>15</title>
<path fill="none" stroke="#56d89a" stroke-width="2" d="M147.5,-324C147.5,-324 57.5,-324 57.5,-324 51.5,-324 45.5,-318 45.5,-312 45.5,-312 45.5,-300 45.5,-300 45.5,-294 51.5,-288 57.5,-288 57.5,-288 147.5,-288 147.5,-288 153.5,-288 159.5,-294 159.5,-300 159.5,-300 159.5,-312 159.5,-312 159.5,-318 153.5,-324 147.5,-324"/>
<text text-anchor="middle" x="102.5" y="-303.5" font-family="sans" font-size="10.00">napomutations2bed</text>
</g>
<!-- 4&#45;&gt;15 -->
<g id="edge31" class="edge">
<title>4&#45;&gt;15</title>
<path fill="none" stroke="grey" stroke-width="2" d="M161.32,-431.8C153.7,-413.78 141.19,-384.7 129.5,-360 125.33,-351.18 120.56,-341.66 116.2,-333.15"/>
<polygon fill="grey" stroke="grey" stroke-width="2" points="119.21,-331.34 111.51,-324.06 112.99,-334.55 119.21,-331.34"/>
</g>
<!-- 24 -->
<g id="node25" class="node">
<title>24</title>
<path fill="none" stroke="#d86656" stroke-width="2" d="M109,-396C109,-396 12,-396 12,-396 6,-396 0,-390 0,-384 0,-384 0,-372 0,-372 0,-366 6,-360 12,-360 12,-360 109,-360 109,-360 115,-360 121,-366 121,-372 121,-372 121,-384 121,-384 121,-390 115,-396 109,-396"/>
<text text-anchor="middle" x="60.5" y="-375.5" font-family="sans" font-size="10.00">samtools_faidx_napo</text>
</g>
<!-- 4&#45;&gt;24 -->
<g id="edge42" class="edge">
<title>4&#45;&gt;24</title>
<path fill="none" stroke="grey" stroke-width="2" d="M142.08,-431.88C128.09,-422.81 110.72,-411.55 95.61,-401.76"/>
<polygon fill="grey" stroke="grey" stroke-width="2" points="97.32,-398.69 87.02,-396.19 93.51,-404.57 97.32,-398.69"/>
</g>
<!-- 5 -->
<g id="node6" class="node">
<title>5</title>
<path fill="none" stroke="#56d8a9" stroke-width="2" d="M173.5,-180C173.5,-180 143.5,-180 143.5,-180 137.5,-180 131.5,-174 131.5,-168 131.5,-168 131.5,-156 131.5,-156 131.5,-150 137.5,-144 143.5,-144 143.5,-144 173.5,-144 173.5,-144 179.5,-144 185.5,-150 185.5,-156 185.5,-156 185.5,-168 185.5,-168 185.5,-174 179.5,-180 173.5,-180"/>
<text text-anchor="middle" x="158.5" y="-159.5" font-family="sans" font-size="10.00">blat</text>
</g>
<!-- 5&#45;&gt;1 -->
<g id="edge5" class="edge">
<title>5&#45;&gt;1</title>
<path fill="none" stroke="grey" stroke-width="2" d="M175.06,-143.7C183.18,-135.22 193.09,-124.86 201.97,-115.58"/>
<polygon fill="grey" stroke="grey" stroke-width="2" points="204.74,-117.75 209.13,-108.1 199.69,-112.91 204.74,-117.75"/>
</g>
<!-- 6 -->
<g id="node7" class="node">
<title>6</title>
<path fill="none" stroke="#59d856" stroke-width="2" d="M725,-468C725,-468 678,-468 678,-468 672,-468 666,-462 666,-456 666,-456 666,-444 666,-444 666,-438 672,-432 678,-432 678,-432 725,-432 725,-432 731,-432 737,-438 737,-444 737,-444 737,-456 737,-456 737,-462 731,-468 725,-468"/>
<text text-anchor="middle" x="701.5" y="-447.5" font-family="sans" font-size="10.00">strelka2tsv</text>
</g>
<!-- 6&#45;&gt;2 -->
<g id="edge6" class="edge">
<title>6&#45;&gt;2</title>
<path fill="none" stroke="grey" stroke-width="2" d="M701.5,-431.7C701.5,-423.98 701.5,-414.71 701.5,-406.11"/>
<polygon fill="grey" stroke="grey" stroke-width="2" points="705,-406.1 701.5,-396.1 698,-406.1 705,-406.1"/>
</g>
<!-- 7 -->
<g id="node8" class="node">
<title>7</title>
<path fill="none" stroke="#59d856" stroke-width="2" d="M826,-468C826,-468 779,-468 779,-468 773,-468 767,-462 767,-456 767,-456 767,-444 767,-444 767,-438 773,-432 779,-432 779,-432 826,-432 826,-432 832,-432 838,-438 838,-444 838,-444 838,-456 838,-456 838,-462 832,-468 826,-468"/>
<text text-anchor="middle" x="802.5" y="-447.5" font-family="sans" font-size="10.00">strelka2tsv</text>
</g>
<!-- 7&#45;&gt;2 -->
<g id="edge7" class="edge">
<title>7&#45;&gt;2</title>
<path fill="none" stroke="grey" stroke-width="2" d="M777.79,-431.88C764.83,-422.89 748.77,-411.76 734.73,-402.03"/>
<polygon fill="grey" stroke="grey" stroke-width="2" points="736.52,-399.01 726.3,-396.19 732.53,-404.76 736.52,-399.01"/>
</g>
<!-- 8 -->
<g id="node9" class="node">
<title>8</title>
<path fill="none" stroke="#567bd8" stroke-width="2" d="M498,-180C498,-180 403,-180 403,-180 397,-180 391,-174 391,-168 391,-168 391,-156 391,-156 391,-150 397,-144 403,-144 403,-144 498,-144 498,-144 504,-144 510,-150 510,-156 510,-156 510,-168 510,-168 510,-174 504,-180 498,-180"/>
<text text-anchor="middle" x="450.5" y="-165" font-family="sans" font-size="10.00">gatk2tsv</text>
<text text-anchor="middle" x="450.5" y="-154" font-family="sans" font-size="10.00">vcfs: upper_vs_lower</text>
</g>
<!-- 8&#45;&gt;3 -->
<g id="edge8" class="edge">
<title>8&#45;&gt;3</title>
<path fill="none" stroke="grey" stroke-width="2" d="M433.44,-143.7C425,-135.14 414.68,-124.66 405.46,-115.3"/>
<polygon fill="grey" stroke="grey" stroke-width="2" points="407.87,-112.77 398.36,-108.1 402.89,-117.68 407.87,-112.77"/>
</g>
<!-- 9 -->
<g id="node10" class="node">
<title>9</title>
<path fill="none" stroke="#567bd8" stroke-width="2" d="M361,-180C361,-180 266,-180 266,-180 260,-180 254,-174 254,-168 254,-168 254,-156 254,-156 254,-150 260,-144 266,-144 266,-144 361,-144 361,-144 367,-144 373,-150 373,-156 373,-156 373,-168 373,-168 373,-174 367,-180 361,-180"/>
<text text-anchor="middle" x="313.5" y="-165" font-family="sans" font-size="10.00">gatk2tsv</text>
<text text-anchor="middle" x="313.5" y="-154" font-family="sans" font-size="10.00">vcfs: lower_vs_upper</text>
</g>
<!-- 9&#45;&gt;3 -->
<g id="edge9" class="edge">
<title>9&#45;&gt;3</title>
<path fill="none" stroke="grey" stroke-width="2" d="M330.31,-143.7C338.63,-135.14 348.81,-124.66 357.89,-115.3"/>
<polygon fill="grey" stroke="grey" stroke-width="2" points="360.43,-117.72 364.88,-108.1 355.41,-112.84 360.43,-117.72"/>
</g>
<!-- 10&#45;&gt;5 -->
<g id="edge10" class="edge">
<title>10&#45;&gt;5</title>
<path fill="none" stroke="grey" stroke-width="2" d="M148.71,-215.7C150.15,-207.98 151.87,-198.71 153.46,-190.11"/>
<polygon fill="grey" stroke="grey" stroke-width="2" points="156.94,-190.58 155.32,-180.1 150.06,-189.3 156.94,-190.58"/>
</g>
<!-- 11 -->
<g id="node12" class="node">
<title>11</title>
<path fill="none" stroke="#d8d356" stroke-width="2" d="M731.5,-550.5C731.5,-550.5 671.5,-550.5 671.5,-550.5 665.5,-550.5 659.5,-544.5 659.5,-538.5 659.5,-538.5 659.5,-521.5 659.5,-521.5 659.5,-515.5 665.5,-509.5 671.5,-509.5 671.5,-509.5 731.5,-509.5 731.5,-509.5 737.5,-509.5 743.5,-515.5 743.5,-521.5 743.5,-521.5 743.5,-538.5 743.5,-538.5 743.5,-544.5 737.5,-550.5 731.5,-550.5"/>
<text text-anchor="middle" x="701.5" y="-538.5" font-family="sans" font-size="10.00">strelka2</text>
<text text-anchor="middle" x="701.5" y="-527.5" font-family="sans" font-size="10.00">normal: lower</text>
<text text-anchor="middle" x="701.5" y="-516.5" font-family="sans" font-size="10.00">tumor: upper</text>
</g>
<!-- 11&#45;&gt;6 -->
<g id="edge11" class="edge">
<title>11&#45;&gt;6</title>
<path fill="none" stroke="grey" stroke-width="2" d="M701.5,-509.32C701.5,-499.87 701.5,-488.4 701.5,-478.14"/>
<polygon fill="grey" stroke="grey" stroke-width="2" points="705,-478.03 701.5,-468.03 698,-478.03 705,-478.03"/>
</g>
<!-- 12 -->
<g id="node13" class="node">
<title>12</title>
<path fill="none" stroke="#d8d356" stroke-width="2" d="M841,-550.5C841,-550.5 780,-550.5 780,-550.5 774,-550.5 768,-544.5 768,-538.5 768,-538.5 768,-521.5 768,-521.5 768,-515.5 774,-509.5 780,-509.5 780,-509.5 841,-509.5 841,-509.5 847,-509.5 853,-515.5 853,-521.5 853,-521.5 853,-538.5 853,-538.5 853,-544.5 847,-550.5 841,-550.5"/>
<text text-anchor="middle" x="810.5" y="-538.5" font-family="sans" font-size="10.00">strelka2</text>
<text text-anchor="middle" x="810.5" y="-527.5" font-family="sans" font-size="10.00">normal: upper</text>
<text text-anchor="middle" x="810.5" y="-516.5" font-family="sans" font-size="10.00">tumor: lower</text>
</g>
<!-- 12&#45;&gt;7 -->
<g id="edge12" class="edge">
<title>12&#45;&gt;7</title>
<path fill="none" stroke="grey" stroke-width="2" d="M808.48,-509.32C807.51,-499.87 806.34,-488.4 805.28,-478.14"/>
<polygon fill="grey" stroke="grey" stroke-width="2" points="808.75,-477.62 804.25,-468.03 801.79,-478.33 808.75,-477.62"/>
</g>
<!-- 13 -->
<g id="node14" class="node">
<title>13</title>
<path fill="none" stroke="#ced856" stroke-width="2" d="M492,-252C492,-252 409,-252 409,-252 403,-252 397,-246 397,-240 397,-240 397,-228 397,-228 397,-222 403,-216 409,-216 409,-216 492,-216 492,-216 498,-216 504,-222 504,-228 504,-228 504,-240 504,-240 504,-246 498,-252 492,-252"/>
<text text-anchor="middle" x="450.5" y="-231.5" font-family="sans" font-size="10.00">gatk_selectfiltered</text>
</g>
<!-- 13&#45;&gt;8 -->
<g id="edge13" class="edge">
<title>13&#45;&gt;8</title>
<path fill="none" stroke="grey" stroke-width="2" d="M450.5,-215.7C450.5,-207.98 450.5,-198.71 450.5,-190.11"/>
<polygon fill="grey" stroke="grey" stroke-width="2" points="454,-190.1 450.5,-180.1 447,-190.1 454,-190.1"/>
</g>
<!-- 14 -->
<g id="node15" class="node">
<title>14</title>
<path fill="none" stroke="#ced856" stroke-width="2" d="M355,-252C355,-252 272,-252 272,-252 266,-252 260,-246 260,-240 260,-240 260,-228 260,-228 260,-222 266,-216 272,-216 272,-216 355,-216 355,-216 361,-216 367,-222 367,-228 367,-228 367,-240 367,-240 367,-246 361,-252 355,-252"/>
<text text-anchor="middle" x="313.5" y="-231.5" font-family="sans" font-size="10.00">gatk_selectfiltered</text>
</g>
<!-- 14&#45;&gt;9 -->
<g id="edge14" class="edge">
<title>14&#45;&gt;9</title>
<path fill="none" stroke="grey" stroke-width="2" d="M313.5,-215.7C313.5,-207.98 313.5,-198.71 313.5,-190.11"/>
<polygon fill="grey" stroke="grey" stroke-width="2" points="317,-190.1 313.5,-180.1 310,-190.1 317,-190.1"/>
</g>
<!-- 15&#45;&gt;10 -->
<g id="edge16" class="edge">
<title>15&#45;&gt;10</title>
<path fill="none" stroke="grey" stroke-width="2" d="M113.13,-287.7C118.13,-279.56 124.19,-269.69 129.71,-260.7"/>
<polygon fill="grey" stroke="grey" stroke-width="2" points="132.74,-262.46 134.99,-252.1 126.78,-258.79 132.74,-262.46"/>
</g>
<!-- 16 -->
<g id="node17" class="node">
<title>16</title>
<path fill="none" stroke="#78d856" stroke-width="2" d="M637.5,-1204C637.5,-1204 581.5,-1204 581.5,-1204 575.5,-1204 569.5,-1198 569.5,-1192 569.5,-1192 569.5,-1180 569.5,-1180 569.5,-1174 575.5,-1168 581.5,-1168 581.5,-1168 637.5,-1168 637.5,-1168 643.5,-1168 649.5,-1174 649.5,-1180 649.5,-1180 649.5,-1192 649.5,-1192 649.5,-1198 643.5,-1204 637.5,-1204"/>
<text text-anchor="middle" x="609.5" y="-1183.5" font-family="sans" font-size="10.00">cp_reference</text>
</g>
<!-- 16&#45;&gt;11 -->
<g id="edge17" class="edge">
<title>16&#45;&gt;11</title>
<path fill="none" stroke="grey" stroke-width="2" d="M649.66,-1180.03C727.18,-1170.13 891.68,-1147.58 912.5,-1132 947.83,-1105.56 956.5,-1087.13 956.5,-1043 956.5,-1043 956.5,-1043 956.5,-681 956.5,-657.54 826.64,-591.18 752.26,-555.09"/>
<polygon fill="grey" stroke="grey" stroke-width="2" points="753.56,-551.83 743.04,-550.63 750.52,-558.13 753.56,-551.83"/>
</g>
<!-- 16&#45;&gt;12 -->
<g id="edge23" class="edge">
<title>16&#45;&gt;12</title>
<path fill="none" stroke="grey" stroke-width="2" d="M649.67,-1180.55C732.93,-1171.06 918.61,-1148.34 942.5,-1132 980.31,-1106.14 994.5,-1088.81 994.5,-1043 994.5,-1043 994.5,-1043 994.5,-681 994.5,-612.57 917.1,-569.81 862.7,-548.2"/>
<polygon fill="grey" stroke="grey" stroke-width="2" points="863.77,-544.86 853.18,-544.54 861.25,-551.39 863.77,-544.86"/>
</g>
<!-- 17 -->
<g id="node18" class="node">
<title>17</title>
<path fill="none" stroke="#56c1d8" stroke-width="2" d="M816,-700C816,-700 729,-700 729,-700 723,-700 717,-694 717,-688 717,-688 717,-676 717,-676 717,-670 723,-664 729,-664 729,-664 816,-664 816,-664 822,-664 828,-670 828,-676 828,-676 828,-688 828,-688 828,-694 822,-700 816,-700"/>
<text text-anchor="middle" x="772.5" y="-679.5" font-family="sans" font-size="10.00">samtools_view_md</text>
</g>
<!-- 16&#45;&gt;17 -->
<g id="edge34" class="edge">
<title>16&#45;&gt;17</title>
<path fill="none" stroke="grey" stroke-width="2" d="M649.56,-1179.52C721.69,-1169.32 867.65,-1147.12 885.5,-1132 917.69,-1104.73 918.5,-1085.19 918.5,-1043 918.5,-1043 918.5,-1043 918.5,-825 918.5,-779.41 899.92,-768.05 867.5,-736 854.81,-723.46 838.55,-712.96 823.09,-704.7"/>
<polygon fill="grey" stroke="grey" stroke-width="2" points="824.6,-701.54 814.1,-700.09 821.41,-707.77 824.6,-701.54"/>
</g>
<!-- 18 -->
<g id="node19" class="node">
<title>18</title>
<path fill="none" stroke="#56c1d8" stroke-width="2" d="M482,-700C482,-700 395,-700 395,-700 389,-700 383,-694 383,-688 383,-688 383,-676 383,-676 383,-670 389,-664 395,-664 395,-664 482,-664 482,-664 488,-664 494,-670 494,-676 494,-676 494,-688 494,-688 494,-694 488,-700 482,-700"/>
<text text-anchor="middle" x="438.5" y="-679.5" font-family="sans" font-size="10.00">samtools_view_md</text>
</g>
<!-- 16&#45;&gt;18 -->
<g id="edge36" class="edge">
<title>16&#45;&gt;18</title>
<path fill="none" stroke="grey" stroke-width="2" d="M633.17,-1167.94C644.71,-1158.52 657.92,-1145.92 666.5,-1132 692.17,-1090.38 702.67,-1070.49 687.5,-1024 642.75,-886.84 519.63,-759.02 465.09,-707.25"/>
<polygon fill="grey" stroke="grey" stroke-width="2" points="467.25,-704.47 457.56,-700.18 462.45,-709.57 467.25,-704.47"/>
</g>
<!-- 21 -->
<g id="node22" class="node">
<title>21</title>
<path fill="none" stroke="#56a9d8" stroke-width="2" d="M438,-1132C438,-1132 393,-1132 393,-1132 387,-1132 381,-1126 381,-1120 381,-1120 381,-1108 381,-1108 381,-1102 387,-1096 393,-1096 393,-1096 438,-1096 438,-1096 444,-1096 450,-1102 450,-1108 450,-1108 450,-1120 450,-1120 450,-1126 444,-1132 438,-1132"/>
<text text-anchor="middle" x="415.5" y="-1111.5" font-family="sans" font-size="10.00">bwa_index</text>
</g>
<!-- 16&#45;&gt;21 -->
<g id="edge39" class="edge">
<title>16&#45;&gt;21</title>
<path fill="none" stroke="grey" stroke-width="2" d="M569.28,-1171.14C539.01,-1160.63 496.54,-1145.7 459.5,-1132 459.4,-1131.96 459.31,-1131.93 459.21,-1131.89"/>
<polygon fill="grey" stroke="grey" stroke-width="2" points="460.64,-1128.69 450.05,-1128.46 458.19,-1135.25 460.64,-1128.69"/>
</g>
<!-- 25 -->
<g id="node26" class="node">
<title>25</title>
<path fill="none" stroke="#56d87b" stroke-width="2" d="M847,-772C847,-772 752,-772 752,-772 746,-772 740,-766 740,-760 740,-760 740,-748 740,-748 740,-742 746,-736 752,-736 752,-736 847,-736 847,-736 853,-736 859,-742 859,-748 859,-748 859,-760 859,-760 859,-766 853,-772 847,-772"/>
<text text-anchor="middle" x="799.5" y="-751.5" font-family="sans" font-size="10.00">gatk_markduplicates</text>
</g>
<!-- 16&#45;&gt;25 -->
<g id="edge44" class="edge">
<title>16&#45;&gt;25</title>
<path fill="none" stroke="grey" stroke-width="2" d="M649.63,-1181.82C713.01,-1175.95 832.13,-1161.28 861.5,-1132 890.14,-1103.44 880.5,-1083.45 880.5,-1043 880.5,-1043 880.5,-1043 880.5,-897 880.5,-856.55 882.19,-842.76 861.5,-808 854.76,-796.67 844.72,-786.57 834.67,-778.31"/>
<polygon fill="grey" stroke="grey" stroke-width="2" points="836.72,-775.46 826.67,-772.08 832.42,-780.99 836.72,-775.46"/>
</g>
<!-- 26 -->
<g id="node27" class="node">
<title>26</title>
<path fill="none" stroke="#56d87b" stroke-width="2" d="M371,-772C371,-772 276,-772 276,-772 270,-772 264,-766 264,-760 264,-760 264,-748 264,-748 264,-742 270,-736 276,-736 276,-736 371,-736 371,-736 377,-736 383,-742 383,-748 383,-748 383,-760 383,-760 383,-766 377,-772 371,-772"/>
<text text-anchor="middle" x="323.5" y="-751.5" font-family="sans" font-size="10.00">gatk_markduplicates</text>
</g>
<!-- 16&#45;&gt;26 -->
<g id="edge47" class="edge">
<title>16&#45;&gt;26</title>
<path fill="none" stroke="grey" stroke-width="2" d="M569.33,-1185.64C480.76,-1184.74 276.5,-1169.01 276.5,-1043 276.5,-1043 276.5,-1043 276.5,-969 276.5,-900.24 299.93,-821.89 313.71,-781.77"/>
<polygon fill="grey" stroke="grey" stroke-width="2" points="317.06,-782.79 317.06,-772.19 310.45,-780.47 317.06,-782.79"/>
</g>
<!-- 35 -->
<g id="node36" class="node">
<title>35</title>
<path fill="none" stroke="#56d88a" stroke-width="2" d="M777.5,-988C777.5,-988 711.5,-988 711.5,-988 705.5,-988 699.5,-982 699.5,-976 699.5,-976 699.5,-964 699.5,-964 699.5,-958 705.5,-952 711.5,-952 711.5,-952 777.5,-952 777.5,-952 783.5,-952 789.5,-958 789.5,-964 789.5,-964 789.5,-976 789.5,-976 789.5,-982 783.5,-988 777.5,-988"/>
<text text-anchor="middle" x="744.5" y="-967.5" font-family="sans" font-size="10.00">samtools_view</text>
</g>
<!-- 16&#45;&gt;35 -->
<g id="edge58" class="edge">
<title>16&#45;&gt;35</title>
<path fill="none" stroke="grey" stroke-width="2" d="M649.51,-1176.04C673.87,-1168.45 703.49,-1155.01 720.5,-1132 749.53,-1092.73 750.31,-1033.12 747.74,-998.52"/>
<polygon fill="grey" stroke="grey" stroke-width="2" points="751.2,-997.87 746.82,-988.22 744.23,-998.49 751.2,-997.87"/>
</g>
<!-- 36 -->
<g id="node37" class="node">
<title>36</title>
<path fill="none" stroke="#56d88a" stroke-width="2" d="M395.5,-988C395.5,-988 329.5,-988 329.5,-988 323.5,-988 317.5,-982 317.5,-976 317.5,-976 317.5,-964 317.5,-964 317.5,-958 323.5,-952 329.5,-952 329.5,-952 395.5,-952 395.5,-952 401.5,-952 407.5,-958 407.5,-964 407.5,-964 407.5,-976 407.5,-976 407.5,-982 401.5,-988 395.5,-988"/>
<text text-anchor="middle" x="362.5" y="-967.5" font-family="sans" font-size="10.00">samtools_view</text>
</g>
<!-- 16&#45;&gt;36 -->
<g id="edge60" class="edge">
<title>16&#45;&gt;36</title>
<path fill="none" stroke="grey" stroke-width="2" d="M569.38,-1181.52C506.65,-1175.27 389.41,-1160.11 359.5,-1132 323.93,-1098.57 329.58,-1071.8 339.5,-1024 341.38,-1014.96 344.87,-1005.58 348.59,-997.26"/>
<polygon fill="grey" stroke="grey" stroke-width="2" points="351.82,-998.61 352.96,-988.07 345.5,-995.6 351.82,-998.61"/>
</g>
<!-- 37 -->
<g id="node38" class="node">
<title>37</title>
<path fill="none" stroke="#d8ac56" stroke-width="2" d="M535.5,-556C535.5,-556 365.5,-556 365.5,-556 359.5,-556 353.5,-550 353.5,-544 353.5,-544 353.5,-516 353.5,-516 353.5,-510 359.5,-504 365.5,-504 365.5,-504 535.5,-504 535.5,-504 541.5,-504 547.5,-510 547.5,-516 547.5,-516 547.5,-544 547.5,-544 547.5,-550 541.5,-556 535.5,-556"/>
<text text-anchor="middle" x="450.5" y="-544" font-family="sans" font-size="10.00">gatk_haplotypecaller</text>
<text text-anchor="middle" x="450.5" y="-533" font-family="sans" font-size="10.00">interval: 0000&#45;scattered.interval_list</text>
<text text-anchor="middle" x="450.5" y="-522" font-family="sans" font-size="10.00">normal: lower</text>
<text text-anchor="middle" x="450.5" y="-511" font-family="sans" font-size="10.00">tumor: upper</text>
</g>
<!-- 16&#45;&gt;37 -->
<g id="edge61" class="edge">
<title>16&#45;&gt;37</title>
<path fill="none" stroke="grey" stroke-width="2" d="M569.4,-1182.63C494.04,-1177.5 334.87,-1163.2 290.5,-1132 223.44,-1084.85 200.5,-1052.98 200.5,-971 200.5,-971 200.5,-971 200.5,-681 200.5,-639.86 301.29,-590.49 374.88,-559.93"/>
<polygon fill="grey" stroke="grey" stroke-width="2" points="376.24,-563.15 384.16,-556.11 373.58,-556.68 376.24,-563.15"/>
</g>
<!-- 38 -->
<g id="node39" class="node">
<title>38</title>
<path fill="none" stroke="#d8ac56" stroke-width="2" d="M323.5,-556C323.5,-556 153.5,-556 153.5,-556 147.5,-556 141.5,-550 141.5,-544 141.5,-544 141.5,-516 141.5,-516 141.5,-510 147.5,-504 153.5,-504 153.5,-504 323.5,-504 323.5,-504 329.5,-504 335.5,-510 335.5,-516 335.5,-516 335.5,-544 335.5,-544 335.5,-550 329.5,-556 323.5,-556"/>
<text text-anchor="middle" x="238.5" y="-544" font-family="sans" font-size="10.00">gatk_haplotypecaller</text>
<text text-anchor="middle" x="238.5" y="-533" font-family="sans" font-size="10.00">interval: 0000&#45;scattered.interval_list</text>
<text text-anchor="middle" x="238.5" y="-522" font-family="sans" font-size="10.00">normal: upper</text>
<text text-anchor="middle" x="238.5" y="-511" font-family="sans" font-size="10.00">tumor: lower</text>
</g>
<!-- 16&#45;&gt;38 -->
<g id="edge67" class="edge">
<title>16&#45;&gt;38</title>
<path fill="none" stroke="grey" stroke-width="2" d="M569.21,-1183.47C455.32,-1178.79 137.01,-1163.03 102.5,-1132 72.42,-1104.96 83.5,-1083.45 83.5,-1043 83.5,-1043 83.5,-1043 83.5,-681 83.5,-627.22 132.28,-586.58 175.1,-561.25"/>
<polygon fill="grey" stroke="grey" stroke-width="2" points="176.92,-564.25 183.85,-556.24 173.44,-558.18 176.92,-564.25"/>
</g>
<!-- 39 -->
<g id="node40" class="node">
<title>39</title>
<path fill="none" stroke="#88d856" stroke-width="2" d="M666.5,-1060C666.5,-1060 622.5,-1060 622.5,-1060 616.5,-1060 610.5,-1054 610.5,-1048 610.5,-1048 610.5,-1036 610.5,-1036 610.5,-1030 616.5,-1024 622.5,-1024 622.5,-1024 666.5,-1024 666.5,-1024 672.5,-1024 678.5,-1030 678.5,-1036 678.5,-1036 678.5,-1048 678.5,-1048 678.5,-1054 672.5,-1060 666.5,-1060"/>
<text text-anchor="middle" x="644.5" y="-1039.5" font-family="sans" font-size="10.00">bwa_mem</text>
</g>
<!-- 16&#45;&gt;39 -->
<g id="edge73" class="edge">
<title>16&#45;&gt;39</title>
<path fill="none" stroke="grey" stroke-width="2" d="M627.23,-1167.6C635.74,-1158 645.03,-1145.34 649.5,-1132 656.2,-1112.01 654.35,-1088.08 651.15,-1070.08"/>
<polygon fill="grey" stroke="grey" stroke-width="2" points="654.58,-1069.35 649.17,-1060.23 647.72,-1070.73 654.58,-1069.35"/>
</g>
<!-- 40 -->
<g id="node41" class="node">
<title>40</title>
<path fill="none" stroke="#88d856" stroke-width="2" d="M404.5,-1060C404.5,-1060 360.5,-1060 360.5,-1060 354.5,-1060 348.5,-1054 348.5,-1048 348.5,-1048 348.5,-1036 348.5,-1036 348.5,-1030 354.5,-1024 360.5,-1024 360.5,-1024 404.5,-1024 404.5,-1024 410.5,-1024 416.5,-1030 416.5,-1036 416.5,-1036 416.5,-1048 416.5,-1048 416.5,-1054 410.5,-1060 404.5,-1060"/>
<text text-anchor="middle" x="382.5" y="-1039.5" font-family="sans" font-size="10.00">bwa_mem</text>
</g>
<!-- 16&#45;&gt;40 -->
<g id="edge78" class="edge">
<title>16&#45;&gt;40</title>
<path fill="none" stroke="grey" stroke-width="2" d="M569.39,-1181.99C508.15,-1176.47 395.86,-1162.38 371.5,-1132 357.57,-1114.62 362.64,-1088.87 369.83,-1069.54"/>
<polygon fill="grey" stroke="grey" stroke-width="2" points="373.15,-1070.67 373.69,-1060.09 366.67,-1068.02 373.15,-1070.67"/>
</g>
<!-- 42 -->
<g id="node43" class="node">
<title>42</title>
<path fill="none" stroke="#56d0d8" stroke-width="2" d="M548.5,-1132C548.5,-1132 480.5,-1132 480.5,-1132 474.5,-1132 468.5,-1126 468.5,-1120 468.5,-1120 468.5,-1108 468.5,-1108 468.5,-1102 474.5,-1096 480.5,-1096 480.5,-1096 548.5,-1096 548.5,-1096 554.5,-1096 560.5,-1102 560.5,-1108 560.5,-1108 560.5,-1120 560.5,-1120 560.5,-1126 554.5,-1132 548.5,-1132"/>
<text text-anchor="middle" x="514.5" y="-1111.5" font-family="sans" font-size="10.00">samtools_faidx</text>
</g>
<!-- 16&#45;&gt;42 -->
<g id="edge84" class="edge">
<title>16&#45;&gt;42</title>
<path fill="none" stroke="grey" stroke-width="2" d="M586.02,-1167.7C573.94,-1158.8 559.05,-1147.82 545.98,-1138.2"/>
<polygon fill="grey" stroke="grey" stroke-width="2" points="547.84,-1135.22 537.71,-1132.1 543.69,-1140.85 547.84,-1135.22"/>
</g>
<!-- 43 -->
<g id="node44" class="node">
<title>43</title>
<path fill="none" stroke="#d85656" stroke-width="2" d="M628.5,-1132C628.5,-1132 590.5,-1132 590.5,-1132 584.5,-1132 578.5,-1126 578.5,-1120 578.5,-1120 578.5,-1108 578.5,-1108 578.5,-1102 584.5,-1096 590.5,-1096 590.5,-1096 628.5,-1096 628.5,-1096 634.5,-1096 640.5,-1102 640.5,-1108 640.5,-1108 640.5,-1120 640.5,-1120 640.5,-1126 634.5,-1132 628.5,-1132"/>
<text text-anchor="middle" x="609.5" y="-1111.5" font-family="sans" font-size="10.00">gatk_dict</text>
</g>
<!-- 16&#45;&gt;43 -->
<g id="edge85" class="edge">
<title>16&#45;&gt;43</title>
<path fill="none" stroke="grey" stroke-width="2" d="M609.5,-1167.7C609.5,-1159.98 609.5,-1150.71 609.5,-1142.11"/>
<polygon fill="grey" stroke="grey" stroke-width="2" points="613,-1142.1 609.5,-1132.1 606,-1142.1 613,-1142.1"/>
</g>
<!-- 17&#45;&gt;11 -->
<g id="edge18" class="edge">
<title>17&#45;&gt;11</title>
<path fill="none" stroke="grey" stroke-width="2" d="M769.94,-663.89C766.72,-645.43 760.15,-615.52 748.5,-592 742.66,-580.21 734.36,-568.46 726.36,-558.48"/>
<polygon fill="grey" stroke="grey" stroke-width="2" points="728.85,-556 719.77,-550.54 723.46,-560.47 728.85,-556"/>
</g>
<!-- 17&#45;&gt;12 -->
<g id="edge25" class="edge">
<title>17&#45;&gt;12</title>
<path fill="none" stroke="grey" stroke-width="2" d="M796.25,-663.91C807.05,-654.65 818.7,-642.2 824.5,-628 833.32,-606.41 828.68,-580.12 822.47,-560.36"/>
<polygon fill="grey" stroke="grey" stroke-width="2" points="825.7,-559 819.13,-550.68 819.08,-561.28 825.7,-559"/>
</g>
<!-- 19 -->
<g id="node20" class="node">
<title>19</title>
<path fill="none" stroke="#bed856" stroke-width="2" d="M656,-628C656,-628 565,-628 565,-628 559,-628 553,-622 553,-616 553,-616 553,-604 553,-604 553,-598 559,-592 565,-592 565,-592 656,-592 656,-592 662,-592 668,-598 668,-604 668,-604 668,-616 668,-616 668,-622 662,-628 656,-628"/>
<text text-anchor="middle" x="610.5" y="-607.5" font-family="sans" font-size="10.00">samtools_index_md</text>
</g>
<!-- 17&#45;&gt;19 -->
<g id="edge37" class="edge">
<title>17&#45;&gt;19</title>
<path fill="none" stroke="grey" stroke-width="2" d="M732.87,-663.88C710.72,-654.31 682.94,-642.3 659.44,-632.15"/>
<polygon fill="grey" stroke="grey" stroke-width="2" points="660.57,-628.82 650,-628.07 657.79,-635.25 660.57,-628.82"/>
</g>
<!-- 17&#45;&gt;37 -->
<g id="edge62" class="edge">
<title>17&#45;&gt;37</title>
<path fill="none" stroke="grey" stroke-width="2" d="M716.52,-677.04C668.04,-671.59 597.42,-658.66 543.5,-628 535.79,-623.62 504.45,-590.25 480.26,-563.85"/>
<polygon fill="grey" stroke="grey" stroke-width="2" points="482.67,-561.29 473.34,-556.27 477.5,-566.02 482.67,-561.29"/>
</g>
<!-- 17&#45;&gt;38 -->
<g id="edge69" class="edge">
<title>17&#45;&gt;38</title>
<path fill="none" stroke="grey" stroke-width="2" d="M716.95,-678.33C621.38,-672.97 430.44,-658.69 371.5,-628 352.25,-617.97 355.26,-605.79 338.5,-592 324.98,-580.88 309.24,-570.34 294.3,-561.24"/>
<polygon fill="grey" stroke="grey" stroke-width="2" points="296.01,-558.18 285.63,-556.06 292.42,-564.19 296.01,-558.18"/>
</g>
<!-- 18&#45;&gt;11 -->
<g id="edge19" class="edge">
<title>18&#45;&gt;11</title>
<path fill="none" stroke="grey" stroke-width="2" d="M494.2,-675.32C556.15,-667.87 650.91,-652.76 676.5,-628 694.36,-610.73 700.07,-582.52 701.63,-560.97"/>
<polygon fill="grey" stroke="grey" stroke-width="2" points="705.14,-560.85 702.1,-550.7 698.15,-560.53 705.14,-560.85"/>
</g>
<!-- 18&#45;&gt;12 -->
<g id="edge24" class="edge">
<title>18&#45;&gt;12</title>
<path fill="none" stroke="grey" stroke-width="2" d="M494.12,-678.1C549.09,-673.37 634.32,-660.88 700.5,-628 734.77,-610.97 766.71,-580.51 787.25,-558.25"/>
<polygon fill="grey" stroke="grey" stroke-width="2" points="789.91,-560.52 794.02,-550.76 784.72,-555.83 789.91,-560.52"/>
</g>
<!-- 20 -->
<g id="node21" class="node">
<title>20</title>
<path fill="none" stroke="#bed856" stroke-width="2" d="M484,-628C484,-628 393,-628 393,-628 387,-628 381,-622 381,-616 381,-616 381,-604 381,-604 381,-598 387,-592 393,-592 393,-592 484,-592 484,-592 490,-592 496,-598 496,-604 496,-604 496,-616 496,-616 496,-622 490,-628 484,-628"/>
<text text-anchor="middle" x="438.5" y="-607.5" font-family="sans" font-size="10.00">samtools_index_md</text>
</g>
<!-- 18&#45;&gt;20 -->
<g id="edge38" class="edge">
<title>18&#45;&gt;20</title>
<path fill="none" stroke="grey" stroke-width="2" d="M438.5,-663.7C438.5,-655.98 438.5,-646.71 438.5,-638.11"/>
<polygon fill="grey" stroke="grey" stroke-width="2" points="442,-638.1 438.5,-628.1 435,-638.1 442,-638.1"/>
</g>
<!-- 18&#45;&gt;37 -->
<g id="edge63" class="edge">
<title>18&#45;&gt;37</title>
<path fill="none" stroke="grey" stroke-width="2" d="M405.97,-663.98C392.71,-655.18 378.8,-643.09 371.5,-628 364.53,-613.6 364.45,-606.36 371.5,-592 377.11,-580.59 385.99,-570.7 395.81,-562.41"/>
<polygon fill="grey" stroke="grey" stroke-width="2" points="398.14,-565.03 403.84,-556.11 393.82,-559.53 398.14,-565.03"/>
</g>
<!-- 18&#45;&gt;38 -->
<g id="edge68" class="edge">
<title>18&#45;&gt;38</title>
<path fill="none" stroke="grey" stroke-width="2" d="M413.27,-663.92C398.36,-653.69 379.19,-640.33 362.5,-628 333.67,-606.69 301.83,-581.75 277.63,-562.5"/>
<polygon fill="grey" stroke="grey" stroke-width="2" points="279.73,-559.7 269.73,-556.2 275.37,-565.17 279.73,-559.7"/>
</g>
<!-- 19&#45;&gt;11 -->
<g id="edge20" class="edge">
<title>19&#45;&gt;11</title>
<path fill="none" stroke="grey" stroke-width="2" d="M630.7,-591.69C642.4,-581.65 657.39,-568.81 670.56,-557.52"/>
<polygon fill="grey" stroke="grey" stroke-width="2" points="673.16,-559.9 678.47,-550.74 668.6,-554.59 673.16,-559.9"/>
</g>
<!-- 19&#45;&gt;12 -->
<g id="edge27" class="edge">
<title>19&#45;&gt;12</title>
<path fill="none" stroke="grey" stroke-width="2" d="M658.06,-591.92C685.75,-581.81 721.25,-568.56 752.5,-556 754.37,-555.25 756.27,-554.48 758.19,-553.69"/>
<polygon fill="grey" stroke="grey" stroke-width="2" points="759.95,-556.75 767.84,-549.67 757.26,-550.28 759.95,-556.75"/>
</g>
<!-- 19&#45;&gt;37 -->
<g id="edge64" class="edge">
<title>19&#45;&gt;37</title>
<path fill="none" stroke="grey" stroke-width="2" d="M575.39,-591.88C556.55,-582.7 532.81,-571.13 511.1,-560.54"/>
<polygon fill="grey" stroke="grey" stroke-width="2" points="512.46,-557.31 501.94,-556.07 509.39,-563.6 512.46,-557.31"/>
</g>
<!-- 19&#45;&gt;38 -->
<g id="edge71" class="edge">
<title>19&#45;&gt;38</title>
<path fill="none" stroke="grey" stroke-width="2" d="M552.78,-598.1C501.03,-588.2 422.79,-572.88 345.43,-556.17"/>
<polygon fill="grey" stroke="grey" stroke-width="2" points="346.03,-552.72 335.52,-554.02 344.55,-559.56 346.03,-552.72"/>
</g>
<!-- 20&#45;&gt;11 -->
<g id="edge21" class="edge">
<title>20&#45;&gt;11</title>
<path fill="none" stroke="grey" stroke-width="2" d="M495.89,-591.98C541.7,-578.39 605.32,-559.52 649.62,-546.39"/>
<polygon fill="grey" stroke="grey" stroke-width="2" points="650.73,-549.71 659.32,-543.51 648.74,-543 650.73,-549.71"/>
</g>
<!-- 20&#45;&gt;12 -->
<g id="edge26" class="edge">
<title>20&#45;&gt;12</title>
<path fill="none" stroke="grey" stroke-width="2" d="M496.15,-599.64C583.43,-585.41 740.3,-559.6 752.5,-556 754.43,-555.43 756.39,-554.81 758.35,-554.16"/>
<polygon fill="grey" stroke="grey" stroke-width="2" points="759.95,-557.3 768.17,-550.62 757.57,-550.72 759.95,-557.3"/>
</g>
<!-- 20&#45;&gt;37 -->
<g id="edge65" class="edge">
<title>20&#45;&gt;37</title>
<path fill="none" stroke="grey" stroke-width="2" d="M441.16,-591.69C442.31,-584.21 443.71,-575.16 445.06,-566.36"/>
<polygon fill="grey" stroke="grey" stroke-width="2" points="448.55,-566.67 446.61,-556.26 441.63,-565.61 448.55,-566.67"/>
</g>
<!-- 20&#45;&gt;38 -->
<g id="edge70" class="edge">
<title>20&#45;&gt;38</title>
<path fill="none" stroke="grey" stroke-width="2" d="M394.61,-591.88C370.54,-582.5 340.06,-570.61 312.43,-559.83"/>
<polygon fill="grey" stroke="grey" stroke-width="2" points="313.38,-556.45 302.79,-556.07 310.84,-562.97 313.38,-556.45"/>
</g>
<!-- 21&#45;&gt;11 -->
<g id="edge22" class="edge">
<title>21&#45;&gt;11</title>
<path fill="none" stroke="grey" stroke-width="2" d="M430.57,-1095.69C481.39,-1036.03 646.3,-831.36 700.5,-628 706.36,-606.03 706.31,-580.26 704.97,-560.8"/>
<polygon fill="grey" stroke="grey" stroke-width="2" points="708.44,-560.38 704.11,-550.71 701.47,-560.97 708.44,-560.38"/>
</g>
<!-- 21&#45;&gt;12 -->
<g id="edge28" class="edge">
<title>21&#45;&gt;12</title>
<path fill="none" stroke="grey" stroke-width="2" d="M443.03,-1095.9C457.4,-1086.29 474.79,-1073.53 488.5,-1060 552.47,-996.89 657.8,-788.82 730.5,-736 770.75,-706.75 806.14,-739.42 836.5,-700 865.82,-661.93 852.69,-638.73 841.5,-592 838.84,-580.88 833.79,-569.5 828.54,-559.63"/>
<polygon fill="grey" stroke="grey" stroke-width="2" points="831.46,-557.68 823.5,-550.68 825.36,-561.11 831.46,-557.68"/>
</g>
<!-- 21&#45;&gt;37 -->
<g id="edge66" class="edge">
<title>21&#45;&gt;37</title>
<path fill="none" stroke="grey" stroke-width="2" d="M424,-1095.99C436.27,-1069.82 457.5,-1017.79 457.5,-971 457.5,-971 457.5,-971 457.5,-897 457.5,-856.55 453.35,-845.62 438.5,-808 417.93,-755.89 392.54,-752.69 373.5,-700 362.5,-669.55 364.95,-660.28 362.5,-628 361.29,-612.05 355.08,-606.17 362.5,-592 368.62,-580.32 378.1,-570.43 388.61,-562.23"/>
<polygon fill="grey" stroke="grey" stroke-width="2" points="390.76,-565 396.81,-556.3 386.66,-559.33 390.76,-565"/>
</g>
<!-- 21&#45;&gt;38 -->
<g id="edge72" class="edge">
<title>21&#45;&gt;38</title>
<path fill="none" stroke="grey" stroke-width="2" d="M384.64,-1095.81C369.79,-1086.53 352.46,-1074.09 339.5,-1060 233.38,-944.67 162.5,-911.73 162.5,-755 162.5,-755 162.5,-755 162.5,-681 162.5,-640.03 167.41,-628.25 186.5,-592 191.71,-582.1 198.78,-572.4 206.02,-563.76"/>
<polygon fill="grey" stroke="grey" stroke-width="2" points="208.73,-565.97 212.67,-556.14 203.46,-561.37 208.73,-565.97"/>
</g>
<!-- 21&#45;&gt;39 -->
<g id="edge75" class="edge">
<title>21&#45;&gt;39</title>
<path fill="none" stroke="grey" stroke-width="2" d="M450.44,-1099.1C453.49,-1098.01 456.54,-1096.96 459.5,-1096 519.4,-1076.63 536.33,-1078.52 596.5,-1060 597.9,-1059.57 599.32,-1059.12 600.75,-1058.67"/>
<polygon fill="grey" stroke="grey" stroke-width="2" points="601.87,-1061.98 610.27,-1055.51 599.67,-1055.33 601.87,-1061.98"/>
</g>
<!-- 21&#45;&gt;40 -->
<g id="edge80" class="edge">
<title>21&#45;&gt;40</title>
<path fill="none" stroke="grey" stroke-width="2" d="M407.34,-1095.7C403.59,-1087.73 399.05,-1078.1 394.88,-1069.26"/>
<polygon fill="grey" stroke="grey" stroke-width="2" points="397.99,-1067.66 390.56,-1060.1 391.66,-1070.64 397.99,-1067.66"/>
</g>
<!-- 22 -->
<g id="node23" class="node">
<title>22</title>
<path fill="none" stroke="#569ad8" stroke-width="2" d="M498,-324C498,-324 403,-324 403,-324 397,-324 391,-318 391,-312 391,-312 391,-300 391,-300 391,-294 397,-288 403,-288 403,-288 498,-288 498,-288 504,-288 510,-294 510,-300 510,-300 510,-312 510,-312 510,-318 504,-324 498,-324"/>
<text text-anchor="middle" x="450.5" y="-303.5" font-family="sans" font-size="10.00">gatk_variantfiltration</text>
</g>
<!-- 22&#45;&gt;13 -->
<g id="edge29" class="edge">
<title>22&#45;&gt;13</title>
<path fill="none" stroke="grey" stroke-width="2" d="M450.5,-287.7C450.5,-279.98 450.5,-270.71 450.5,-262.11"/>
<polygon fill="grey" stroke="grey" stroke-width="2" points="454,-262.1 450.5,-252.1 447,-262.1 454,-262.1"/>
</g>
<!-- 23 -->
<g id="node24" class="node">
<title>23</title>
<path fill="none" stroke="#569ad8" stroke-width="2" d="M361,-324C361,-324 266,-324 266,-324 260,-324 254,-318 254,-312 254,-312 254,-300 254,-300 254,-294 260,-288 266,-288 266,-288 361,-288 361,-288 367,-288 373,-294 373,-300 373,-300 373,-312 373,-312 373,-318 367,-324 361,-324"/>
<text text-anchor="middle" x="313.5" y="-303.5" font-family="sans" font-size="10.00">gatk_variantfiltration</text>
</g>
<!-- 23&#45;&gt;14 -->
<g id="edge30" class="edge">
<title>23&#45;&gt;14</title>
<path fill="none" stroke="grey" stroke-width="2" d="M313.5,-287.7C313.5,-279.98 313.5,-270.71 313.5,-262.11"/>
<polygon fill="grey" stroke="grey" stroke-width="2" points="317,-262.1 313.5,-252.1 310,-262.1 317,-262.1"/>
</g>
<!-- 24&#45;&gt;15 -->
<g id="edge32" class="edge">
<title>24&#45;&gt;15</title>
<path fill="none" stroke="grey" stroke-width="2" d="M70.88,-359.7C75.76,-351.56 81.69,-341.69 87.08,-332.7"/>
<polygon fill="grey" stroke="grey" stroke-width="2" points="90.09,-334.48 92.24,-324.1 84.09,-330.88 90.09,-334.48"/>
</g>
<!-- 25&#45;&gt;17 -->
<g id="edge33" class="edge">
<title>25&#45;&gt;17</title>
<path fill="none" stroke="grey" stroke-width="2" d="M792.83,-735.7C789.79,-727.81 786.12,-718.3 782.74,-709.55"/>
<polygon fill="grey" stroke="grey" stroke-width="2" points="785.96,-708.17 779.1,-700.1 779.43,-710.69 785.96,-708.17"/>
</g>
<!-- 26&#45;&gt;18 -->
<g id="edge35" class="edge">
<title>26&#45;&gt;18</title>
<path fill="none" stroke="grey" stroke-width="2" d="M351.63,-735.88C366.67,-726.72 385.37,-715.34 401.56,-705.48"/>
<polygon fill="grey" stroke="grey" stroke-width="2" points="403.54,-708.38 410.26,-700.19 399.9,-702.4 403.54,-708.38"/>
</g>
<!-- 27 -->
<g id="node28" class="node">
<title>27</title>
<path fill="none" stroke="#566bd8" stroke-width="2" d="M486,-396C486,-396 415,-396 415,-396 409,-396 403,-390 403,-384 403,-384 403,-372 403,-372 403,-366 409,-360 415,-360 415,-360 486,-360 486,-360 492,-360 498,-366 498,-372 498,-372 498,-384 498,-384 498,-390 492,-396 486,-396"/>
<text text-anchor="middle" x="450.5" y="-375.5" font-family="sans" font-size="10.00">gatk_selectsnps</text>
</g>
<!-- 27&#45;&gt;22 -->
<g id="edge40" class="edge">
<title>27&#45;&gt;22</title>
<path fill="none" stroke="grey" stroke-width="2" d="M450.5,-359.7C450.5,-351.98 450.5,-342.71 450.5,-334.11"/>
<polygon fill="grey" stroke="grey" stroke-width="2" points="454,-334.1 450.5,-324.1 447,-334.1 454,-334.1"/>
</g>
<!-- 28 -->
<g id="node29" class="node">
<title>28</title>
<path fill="none" stroke="#566bd8" stroke-width="2" d="M343,-396C343,-396 272,-396 272,-396 266,-396 260,-390 260,-384 260,-384 260,-372 260,-372 260,-366 266,-360 272,-360 272,-360 343,-360 343,-360 349,-360 355,-366 355,-372 355,-372 355,-384 355,-384 355,-390 349,-396 343,-396"/>
<text text-anchor="middle" x="307.5" y="-375.5" font-family="sans" font-size="10.00">gatk_selectsnps</text>
</g>
<!-- 28&#45;&gt;23 -->
<g id="edge41" class="edge">
<title>28&#45;&gt;23</title>
<path fill="none" stroke="grey" stroke-width="2" d="M308.98,-359.7C309.64,-351.98 310.44,-342.71 311.18,-334.11"/>
<polygon fill="grey" stroke="grey" stroke-width="2" points="314.67,-334.37 312.03,-324.1 307.69,-333.77 314.67,-334.37"/>
</g>
<!-- 29 -->
<g id="node30" class="node">
<title>29</title>
<path fill="none" stroke="#afd856" stroke-width="2" d="M794.5,-916C794.5,-916 732.5,-916 732.5,-916 726.5,-916 720.5,-910 720.5,-904 720.5,-904 720.5,-892 720.5,-892 720.5,-886 726.5,-880 732.5,-880 732.5,-880 794.5,-880 794.5,-880 800.5,-880 806.5,-886 806.5,-892 806.5,-892 806.5,-904 806.5,-904 806.5,-910 800.5,-916 794.5,-916"/>
<text text-anchor="middle" x="763.5" y="-895.5" font-family="sans" font-size="10.00">samtools_sort</text>
</g>
<!-- 29&#45;&gt;25 -->
<g id="edge43" class="edge">
<title>29&#45;&gt;25</title>
<path fill="none" stroke="grey" stroke-width="2" d="M755.57,-879.68C748.34,-861.3 740.09,-831.69 749.5,-808 753.79,-797.2 761.44,-787.32 769.49,-779.1"/>
<polygon fill="grey" stroke="grey" stroke-width="2" points="772.08,-781.47 776.9,-772.04 767.25,-776.4 772.08,-781.47"/>
</g>
<!-- 30 -->
<g id="node31" class="node">
<title>30</title>
<path fill="none" stroke="#9fd856" stroke-width="2" d="M840.5,-844C840.5,-844 770.5,-844 770.5,-844 764.5,-844 758.5,-838 758.5,-832 758.5,-832 758.5,-820 758.5,-820 758.5,-814 764.5,-808 770.5,-808 770.5,-808 840.5,-808 840.5,-808 846.5,-808 852.5,-814 852.5,-820 852.5,-820 852.5,-832 852.5,-832 852.5,-838 846.5,-844 840.5,-844"/>
<text text-anchor="middle" x="805.5" y="-823.5" font-family="sans" font-size="10.00">samtools_index</text>
</g>
<!-- 29&#45;&gt;30 -->
<g id="edge52" class="edge">
<title>29&#45;&gt;30</title>
<path fill="none" stroke="grey" stroke-width="2" d="M773.88,-879.7C778.76,-871.56 784.69,-861.69 790.08,-852.7"/>
<polygon fill="grey" stroke="grey" stroke-width="2" points="793.09,-854.48 795.24,-844.1 787.09,-850.88 793.09,-854.48"/>
</g>
<!-- 30&#45;&gt;25 -->
<g id="edge45" class="edge">
<title>30&#45;&gt;25</title>
<path fill="none" stroke="grey" stroke-width="2" d="M804.02,-807.7C803.36,-799.98 802.56,-790.71 801.82,-782.11"/>
<polygon fill="grey" stroke="grey" stroke-width="2" points="805.31,-781.77 800.97,-772.1 798.33,-782.37 805.31,-781.77"/>
</g>
<!-- 31 -->
<g id="node32" class="node">
<title>31</title>
<path fill="none" stroke="#afd856" stroke-width="2" d="M393.5,-916C393.5,-916 331.5,-916 331.5,-916 325.5,-916 319.5,-910 319.5,-904 319.5,-904 319.5,-892 319.5,-892 319.5,-886 325.5,-880 331.5,-880 331.5,-880 393.5,-880 393.5,-880 399.5,-880 405.5,-886 405.5,-892 405.5,-892 405.5,-904 405.5,-904 405.5,-910 399.5,-916 393.5,-916"/>
<text text-anchor="middle" x="362.5" y="-895.5" font-family="sans" font-size="10.00">samtools_sort</text>
</g>
<!-- 31&#45;&gt;26 -->
<g id="edge46" class="edge">
<title>31&#45;&gt;26</title>
<path fill="none" stroke="grey" stroke-width="2" d="M347.07,-879.72C339.36,-869.96 330.78,-857.11 326.5,-844 320,-824.07 319.55,-800.27 320.55,-782.31"/>
<polygon fill="grey" stroke="grey" stroke-width="2" points="324.05,-782.45 321.31,-772.22 317.07,-781.93 324.05,-782.45"/>
</g>
<!-- 32 -->
<g id="node33" class="node">
<title>32</title>
<path fill="none" stroke="#9fd856" stroke-width="2" d="M417.5,-844C417.5,-844 347.5,-844 347.5,-844 341.5,-844 335.5,-838 335.5,-832 335.5,-832 335.5,-820 335.5,-820 335.5,-814 341.5,-808 347.5,-808 347.5,-808 417.5,-808 417.5,-808 423.5,-808 429.5,-814 429.5,-820 429.5,-820 429.5,-832 429.5,-832 429.5,-838 423.5,-844 417.5,-844"/>
<text text-anchor="middle" x="382.5" y="-823.5" font-family="sans" font-size="10.00">samtools_index</text>
</g>
<!-- 31&#45;&gt;32 -->
<g id="edge54" class="edge">
<title>31&#45;&gt;32</title>
<path fill="none" stroke="grey" stroke-width="2" d="M367.44,-879.7C369.67,-871.9 372.35,-862.51 374.83,-853.83"/>
<polygon fill="grey" stroke="grey" stroke-width="2" points="378.23,-854.68 377.61,-844.1 371.5,-852.76 378.23,-854.68"/>
</g>
<!-- 32&#45;&gt;26 -->
<g id="edge48" class="edge">
<title>32&#45;&gt;26</title>
<path fill="none" stroke="grey" stroke-width="2" d="M367.92,-807.7C360.84,-799.3 352.22,-789.07 344.45,-779.86"/>
<polygon fill="grey" stroke="grey" stroke-width="2" points="347.04,-777.49 337.92,-772.1 341.69,-782.01 347.04,-777.49"/>
</g>
<!-- 33 -->
<g id="node34" class="node">
<title>33</title>
<path fill="none" stroke="#56d8c1" stroke-width="2" d="M486,-468C486,-468 415,-468 415,-468 409,-468 403,-462 403,-456 403,-456 403,-444 403,-444 403,-438 409,-432 415,-432 415,-432 486,-432 486,-432 492,-432 498,-438 498,-444 498,-444 498,-456 498,-456 498,-462 492,-468 486,-468"/>
<text text-anchor="middle" x="450.5" y="-447.5" font-family="sans" font-size="10.00">gatk_gathervcfs</text>
</g>
<!-- 33&#45;&gt;27 -->
<g id="edge49" class="edge">
<title>33&#45;&gt;27</title>
<path fill="none" stroke="grey" stroke-width="2" d="M450.5,-431.7C450.5,-423.98 450.5,-414.71 450.5,-406.11"/>
<polygon fill="grey" stroke="grey" stroke-width="2" points="454,-406.1 450.5,-396.1 447,-406.1 454,-406.1"/>
</g>
<!-- 34 -->
<g id="node35" class="node">
<title>34</title>
<path fill="none" stroke="#56d8c1" stroke-width="2" d="M318,-468C318,-468 247,-468 247,-468 241,-468 235,-462 235,-456 235,-456 235,-444 235,-444 235,-438 241,-432 247,-432 247,-432 318,-432 318,-432 324,-432 330,-438 330,-444 330,-444 330,-456 330,-456 330,-462 324,-468 318,-468"/>
<text text-anchor="middle" x="282.5" y="-447.5" font-family="sans" font-size="10.00">gatk_gathervcfs</text>
</g>
<!-- 34&#45;&gt;28 -->
<g id="edge50" class="edge">
<title>34&#45;&gt;28</title>
<path fill="none" stroke="grey" stroke-width="2" d="M288.68,-431.7C291.5,-423.81 294.89,-414.3 298.02,-405.55"/>
<polygon fill="grey" stroke="grey" stroke-width="2" points="301.32,-406.7 301.39,-396.1 294.73,-404.34 301.32,-406.7"/>
</g>
<!-- 35&#45;&gt;29 -->
<g id="edge51" class="edge">
<title>35&#45;&gt;29</title>
<path fill="none" stroke="grey" stroke-width="2" d="M749.2,-951.7C751.31,-943.9 753.86,-934.51 756.22,-925.83"/>
<polygon fill="grey" stroke="grey" stroke-width="2" points="759.62,-926.67 758.86,-916.1 752.86,-924.84 759.62,-926.67"/>
</g>
<!-- 36&#45;&gt;31 -->
<g id="edge53" class="edge">
<title>36&#45;&gt;31</title>
<path fill="none" stroke="grey" stroke-width="2" d="M362.5,-951.7C362.5,-943.98 362.5,-934.71 362.5,-926.11"/>
<polygon fill="grey" stroke="grey" stroke-width="2" points="366,-926.1 362.5,-916.1 359,-926.1 366,-926.1"/>
</g>
<!-- 37&#45;&gt;33 -->
<g id="edge55" class="edge">
<title>37&#45;&gt;33</title>
<path fill="none" stroke="grey" stroke-width="2" d="M450.5,-503.89C450.5,-495.84 450.5,-486.88 450.5,-478.66"/>
<polygon fill="grey" stroke="grey" stroke-width="2" points="454,-478.41 450.5,-468.41 447,-478.41 454,-478.41"/>
</g>
<!-- 38&#45;&gt;34 -->
<g id="edge56" class="edge">
<title>38&#45;&gt;34</title>
<path fill="none" stroke="grey" stroke-width="2" d="M252.66,-503.89C257.46,-495.39 262.83,-485.87 267.68,-477.28"/>
<polygon fill="grey" stroke="grey" stroke-width="2" points="270.81,-478.84 272.68,-468.41 264.72,-475.4 270.81,-478.84"/>
</g>
<!-- 39&#45;&gt;35 -->
<g id="edge57" class="edge">
<title>39&#45;&gt;35</title>
<path fill="none" stroke="grey" stroke-width="2" d="M668.96,-1023.88C681.8,-1014.89 697.7,-1003.76 711.59,-994.03"/>
<polygon fill="grey" stroke="grey" stroke-width="2" points="713.76,-996.79 719.94,-988.19 709.74,-991.06 713.76,-996.79"/>
</g>
<!-- 40&#45;&gt;36 -->
<g id="edge59" class="edge">
<title>40&#45;&gt;36</title>
<path fill="none" stroke="grey" stroke-width="2" d="M377.56,-1023.7C375.33,-1015.9 372.65,-1006.51 370.17,-997.83"/>
<polygon fill="grey" stroke="grey" stroke-width="2" points="373.5,-996.76 367.39,-988.1 366.77,-998.68 373.5,-996.76"/>
</g>
<!-- 41 -->
<g id="node42" class="node">
<title>41</title>
<path fill="none" stroke="#568ad8" stroke-width="2" d="M840.5,-1132C840.5,-1132 784.5,-1132 784.5,-1132 778.5,-1132 772.5,-1126 772.5,-1120 772.5,-1120 772.5,-1108 772.5,-1108 772.5,-1102 778.5,-1096 784.5,-1096 784.5,-1096 840.5,-1096 840.5,-1096 846.5,-1096 852.5,-1102 852.5,-1108 852.5,-1108 852.5,-1120 852.5,-1120 852.5,-1126 846.5,-1132 840.5,-1132"/>
<text text-anchor="middle" x="812.5" y="-1111.5" font-family="sans" font-size="10.00">trimmomatic</text>
</g>
<!-- 41&#45;&gt;39 -->
<g id="edge74" class="edge">
<title>41&#45;&gt;39</title>
<path fill="none" stroke="grey" stroke-width="2" d="M772.26,-1096.23C746.84,-1085.64 714.01,-1071.96 687.99,-1061.12"/>
<polygon fill="grey" stroke="grey" stroke-width="2" points="689.32,-1057.88 678.74,-1057.27 686.62,-1064.34 689.32,-1057.88"/>
</g>
<!-- 42&#45;&gt;39 -->
<g id="edge76" class="edge">
<title>42&#45;&gt;39</title>
<path fill="none" stroke="grey" stroke-width="2" d="M546.3,-1095.88C563.61,-1086.55 585.22,-1074.92 603.76,-1064.94"/>
<polygon fill="grey" stroke="grey" stroke-width="2" points="605.43,-1068.01 612.58,-1060.19 602.11,-1061.85 605.43,-1068.01"/>
</g>
<!-- 42&#45;&gt;40 -->
<g id="edge81" class="edge">
<title>42&#45;&gt;40</title>
<path fill="none" stroke="grey" stroke-width="2" d="M482.21,-1095.88C464.63,-1086.55 442.69,-1074.92 423.87,-1064.94"/>
<polygon fill="grey" stroke="grey" stroke-width="2" points="425.39,-1061.78 414.91,-1060.19 422.11,-1067.97 425.39,-1061.78"/>
</g>
<!-- 43&#45;&gt;39 -->
<g id="edge77" class="edge">
<title>43&#45;&gt;39</title>
<path fill="none" stroke="grey" stroke-width="2" d="M618.15,-1095.7C622.14,-1087.73 626.95,-1078.1 631.37,-1069.26"/>
<polygon fill="grey" stroke="grey" stroke-width="2" points="634.61,-1070.61 635.95,-1060.1 628.35,-1067.48 634.61,-1070.61"/>
</g>
<!-- 43&#45;&gt;40 -->
<g id="edge82" class="edge">
<title>43&#45;&gt;40</title>
<path fill="none" stroke="grey" stroke-width="2" d="M578.2,-1099.26C575.28,-1098.11 572.35,-1097 569.5,-1096 521.3,-1079 464.67,-1063.57 426.47,-1053.79"/>
<polygon fill="grey" stroke="grey" stroke-width="2" points="427.24,-1050.38 416.68,-1051.31 425.52,-1057.16 427.24,-1050.38"/>
</g>
<!-- 44 -->
<g id="node45" class="node">
<title>44</title>
<path fill="none" stroke="#568ad8" stroke-width="2" d="M179.5,-1132C179.5,-1132 123.5,-1132 123.5,-1132 117.5,-1132 111.5,-1126 111.5,-1120 111.5,-1120 111.5,-1108 111.5,-1108 111.5,-1102 117.5,-1096 123.5,-1096 123.5,-1096 179.5,-1096 179.5,-1096 185.5,-1096 191.5,-1102 191.5,-1108 191.5,-1108 191.5,-1120 191.5,-1120 191.5,-1126 185.5,-1132 179.5,-1132"/>
<text text-anchor="middle" x="151.5" y="-1111.5" font-family="sans" font-size="10.00">trimmomatic</text>
</g>
<!-- 44&#45;&gt;40 -->
<g id="edge79" class="edge">
<title>44&#45;&gt;40</title>
<path fill="none" stroke="grey" stroke-width="2" d="M191.74,-1100.81C232.78,-1088.37 296.29,-1069.12 338.61,-1056.3"/>
<polygon fill="grey" stroke="grey" stroke-width="2" points="339.81,-1059.59 348.36,-1053.35 337.78,-1052.9 339.81,-1059.59"/>
</g>
<!-- 45 -->
<g id="node46" class="node">
<title>45</title>
<path fill="none" stroke="#d88d56" stroke-width="2" d="M841,-1204C841,-1204 784,-1204 784,-1204 778,-1204 772,-1198 772,-1192 772,-1192 772,-1180 772,-1180 772,-1174 778,-1168 784,-1168 784,-1168 841,-1168 841,-1168 847,-1168 853,-1174 853,-1180 853,-1180 853,-1192 853,-1192 853,-1198 847,-1204 841,-1204"/>
<text text-anchor="middle" x="812.5" y="-1189" font-family="sans" font-size="10.00">cp_reads</text>
<text text-anchor="middle" x="812.5" y="-1178" font-family="sans" font-size="10.00">library: upper</text>
</g>
<!-- 45&#45;&gt;41 -->
<g id="edge83" class="edge">
<title>45&#45;&gt;41</title>
<path fill="none" stroke="grey" stroke-width="2" d="M812.5,-1167.7C812.5,-1159.98 812.5,-1150.71 812.5,-1142.11"/>
<polygon fill="grey" stroke="grey" stroke-width="2" points="816,-1142.1 812.5,-1132.1 809,-1142.1 816,-1142.1"/>
</g>
<!-- 46 -->
<g id="node47" class="node">
<title>46</title>
<path fill="none" stroke="#d88d56" stroke-width="2" d="M179.5,-1204C179.5,-1204 123.5,-1204 123.5,-1204 117.5,-1204 111.5,-1198 111.5,-1192 111.5,-1192 111.5,-1180 111.5,-1180 111.5,-1174 117.5,-1168 123.5,-1168 123.5,-1168 179.5,-1168 179.5,-1168 185.5,-1168 191.5,-1174 191.5,-1180 191.5,-1180 191.5,-1192 191.5,-1192 191.5,-1198 185.5,-1204 179.5,-1204"/>
<text text-anchor="middle" x="151.5" y="-1189" font-family="sans" font-size="10.00">cp_reads</text>
<text text-anchor="middle" x="151.5" y="-1178" font-family="sans" font-size="10.00">library: lower</text>
</g>
<!-- 46&#45;&gt;44 -->
<g id="edge86" class="edge">
<title>46&#45;&gt;44</title>
<path fill="none" stroke="grey" stroke-width="2" d="M151.5,-1167.7C151.5,-1159.98 151.5,-1150.71 151.5,-1142.11"/>
<polygon fill="grey" stroke="grey" stroke-width="2" points="155,-1142.1 151.5,-1132.1 148,-1142.1 155,-1142.1"/>
</g>
</g>
</svg>
