<?xml version="1.0" encoding="UTF-8" standalone="no"?>
<!DOCTYPE svg PUBLIC "-//W3C//DTD SVG 1.1//EN"
 "http://www.w3.org/Graphics/SVG/1.1/DTD/svg11.dtd">
<!-- Generated by graphviz version 2.43.0 (0)
 -->
<!-- Title: snakemake_dag Pages: 1 -->
<svg width="1189pt" height="692pt"
 viewBox="0.00 0.00 1189.40 692.00" xmlns="http://www.w3.org/2000/svg" xmlns:xlink="http://www.w3.org/1999/xlink">
<g id="graph0" class="graph" transform="scale(1 1) rotate(0) translate(4 688)">
<title>snakemake_dag</title>
<polygon fill="white" stroke="transparent" points="-4,4 -4,-688 1185.4,-688 1185.4,4 -4,4"/>
<!-- 0 -->
<g id="node1" class="node">
<title>0</title>
<path fill="none" stroke="#88d856" stroke-width="2" d="M573.4,-36C573.4,-36 543.4,-36 543.4,-36 537.4,-36 531.4,-30 531.4,-24 531.4,-24 531.4,-12 531.4,-12 531.4,-6 537.4,0 543.4,0 543.4,0 573.4,0 573.4,0 579.4,0 585.4,-6 585.4,-12 585.4,-12 585.4,-24 585.4,-24 585.4,-30 579.4,-36 573.4,-36"/>
<text text-anchor="middle" x="558.4" y="-15.5" font-family="sans" font-size="10.00">all</text>
</g>
<!-- 1 -->
<g id="node2" class="node">
<title>1</title>
<path fill="none" stroke="#56d863" stroke-width="2" d="M118.9,-252C118.9,-252 23.9,-252 23.9,-252 17.9,-252 11.9,-246 11.9,-240 11.9,-240 11.9,-228 11.9,-228 11.9,-222 17.9,-216 23.9,-216 23.9,-216 118.9,-216 118.9,-216 124.9,-216 130.9,-222 130.9,-228 130.9,-228 130.9,-240 130.9,-240 130.9,-246 124.9,-252 118.9,-252"/>
<text text-anchor="middle" x="71.4" y="-231.5" font-family="sans" font-size="10.00">gatk_markduplicates</text>
</g>
<!-- 1&#45;&gt;0 -->
<g id="edge1" class="edge">
<title>1&#45;&gt;0</title>
<path fill="none" stroke="grey" stroke-width="2" d="M39.82,-215.78C26.95,-206.93 13.46,-194.86 6.4,-180 -0.46,-165.55 -3.33,-156.7 6.4,-144 69.83,-61.29 407.24,-29.82 520.96,-21.47"/>
<polygon fill="grey" stroke="grey" stroke-width="2" points="521.52,-24.93 531.25,-20.73 521.02,-17.95 521.52,-24.93"/>
</g>
<!-- 5 -->
<g id="node6" class="node">
<title>5</title>
<path fill="none" stroke="#d87556" stroke-width="2" d="M573.4,-108C573.4,-108 543.4,-108 543.4,-108 537.4,-108 531.4,-102 531.4,-96 531.4,-96 531.4,-84 531.4,-84 531.4,-78 537.4,-72 543.4,-72 543.4,-72 573.4,-72 573.4,-72 579.4,-72 585.4,-78 585.4,-84 585.4,-84 585.4,-96 585.4,-96 585.4,-102 579.4,-108 573.4,-108"/>
<text text-anchor="middle" x="558.4" y="-87.5" font-family="sans" font-size="10.00">multiqc</text>
</g>
<!-- 1&#45;&gt;5 -->
<g id="edge26" class="edge">
<title>1&#45;&gt;5</title>
<path fill="none" stroke="grey" stroke-width="2" d="M47.86,-215.67C24.94,-196.75 -3.73,-166.2 16.4,-144 50.28,-106.65 404.11,-94.74 521.09,-91.81"/>
<polygon fill="grey" stroke="grey" stroke-width="2" points="521.42,-95.31 531.34,-91.56 521.25,-88.31 521.42,-95.31"/>
</g>
<!-- 18 -->
<g id="node19" class="node">
<title>18</title>
<path fill="none" stroke="#5673d8" stroke-width="2" d="M104.9,-180C104.9,-180 37.9,-180 37.9,-180 31.9,-180 25.9,-174 25.9,-168 25.9,-168 25.9,-156 25.9,-156 25.9,-150 31.9,-144 37.9,-144 37.9,-144 104.9,-144 104.9,-144 110.9,-144 116.9,-150 116.9,-156 116.9,-156 116.9,-168 116.9,-168 116.9,-174 110.9,-180 104.9,-180"/>
<text text-anchor="middle" x="71.4" y="-159.5" font-family="sans" font-size="10.00">samtools_stats</text>
</g>
<!-- 1&#45;&gt;18 -->
<g id="edge42" class="edge">
<title>1&#45;&gt;18</title>
<path fill="none" stroke="grey" stroke-width="2" d="M71.4,-215.7C71.4,-207.98 71.4,-198.71 71.4,-190.11"/>
<polygon fill="grey" stroke="grey" stroke-width="2" points="74.9,-190.1 71.4,-180.1 67.9,-190.1 74.9,-190.1"/>
</g>
<!-- 22 -->
<g id="node23" class="node">
<title>22</title>
<path fill="none" stroke="#56d0d8" stroke-width="2" d="M185.4,-180C185.4,-180 147.4,-180 147.4,-180 141.4,-180 135.4,-174 135.4,-168 135.4,-168 135.4,-156 135.4,-156 135.4,-150 141.4,-144 147.4,-144 147.4,-144 185.4,-144 185.4,-144 191.4,-144 197.4,-150 197.4,-156 197.4,-156 197.4,-168 197.4,-168 197.4,-174 191.4,-180 185.4,-180"/>
<text text-anchor="middle" x="166.4" y="-159.5" font-family="sans" font-size="10.00">qualimap</text>
</g>
<!-- 1&#45;&gt;22 -->
<g id="edge46" class="edge">
<title>1&#45;&gt;22</title>
<path fill="none" stroke="grey" stroke-width="2" d="M94.89,-215.7C106.97,-206.8 121.86,-195.82 134.92,-186.2"/>
<polygon fill="grey" stroke="grey" stroke-width="2" points="137.22,-188.85 143.19,-180.1 133.06,-183.22 137.22,-188.85"/>
</g>
<!-- 2 -->
<g id="node3" class="node">
<title>2</title>
<path fill="none" stroke="#56d863" stroke-width="2" d="M734.9,-252C734.9,-252 639.9,-252 639.9,-252 633.9,-252 627.9,-246 627.9,-240 627.9,-240 627.9,-228 627.9,-228 627.9,-222 633.9,-216 639.9,-216 639.9,-216 734.9,-216 734.9,-216 740.9,-216 746.9,-222 746.9,-228 746.9,-228 746.9,-240 746.9,-240 746.9,-246 740.9,-252 734.9,-252"/>
<text text-anchor="middle" x="687.4" y="-231.5" font-family="sans" font-size="10.00">gatk_markduplicates</text>
</g>
<!-- 2&#45;&gt;0 -->
<g id="edge2" class="edge">
<title>2&#45;&gt;0</title>
<path fill="none" stroke="grey" stroke-width="2" d="M735.44,-215.85C751.37,-207.6 767.34,-195.95 776.4,-180 784.31,-166.09 784.43,-157.84 776.4,-144 737.35,-76.58 646.69,-42.39 595.43,-27.88"/>
<polygon fill="grey" stroke="grey" stroke-width="2" points="596.3,-24.49 585.73,-25.24 594.46,-31.25 596.3,-24.49"/>
</g>
<!-- 2&#45;&gt;5 -->
<g id="edge28" class="edge">
<title>2&#45;&gt;5</title>
<path fill="none" stroke="grey" stroke-width="2" d="M678.28,-215.71C667.8,-196.82 649.35,-166.3 628.4,-144 618.16,-133.09 605.48,-122.76 593.74,-114.16"/>
<polygon fill="grey" stroke="grey" stroke-width="2" points="595.57,-111.17 585.4,-108.22 591.51,-116.87 595.57,-111.17"/>
</g>
<!-- 20 -->
<g id="node21" class="node">
<title>20</title>
<path fill="none" stroke="#5673d8" stroke-width="2" d="M754.9,-180C754.9,-180 687.9,-180 687.9,-180 681.9,-180 675.9,-174 675.9,-168 675.9,-168 675.9,-156 675.9,-156 675.9,-150 681.9,-144 687.9,-144 687.9,-144 754.9,-144 754.9,-144 760.9,-144 766.9,-150 766.9,-156 766.9,-156 766.9,-168 766.9,-168 766.9,-174 760.9,-180 754.9,-180"/>
<text text-anchor="middle" x="721.4" y="-159.5" font-family="sans" font-size="10.00">samtools_stats</text>
</g>
<!-- 2&#45;&gt;20 -->
<g id="edge44" class="edge">
<title>2&#45;&gt;20</title>
<path fill="none" stroke="grey" stroke-width="2" d="M695.81,-215.7C699.68,-207.73 704.36,-198.1 708.65,-189.26"/>
<polygon fill="grey" stroke="grey" stroke-width="2" points="711.88,-190.63 713.1,-180.1 705.58,-187.57 711.88,-190.63"/>
</g>
<!-- 24 -->
<g id="node25" class="node">
<title>24</title>
<path fill="none" stroke="#56d0d8" stroke-width="2" d="M607.4,-180C607.4,-180 569.4,-180 569.4,-180 563.4,-180 557.4,-174 557.4,-168 557.4,-168 557.4,-156 557.4,-156 557.4,-150 563.4,-144 569.4,-144 569.4,-144 607.4,-144 607.4,-144 613.4,-144 619.4,-150 619.4,-156 619.4,-156 619.4,-168 619.4,-168 619.4,-174 613.4,-180 607.4,-180"/>
<text text-anchor="middle" x="588.4" y="-159.5" font-family="sans" font-size="10.00">qualimap</text>
</g>
<!-- 2&#45;&gt;24 -->
<g id="edge48" class="edge">
<title>2&#45;&gt;24</title>
<path fill="none" stroke="grey" stroke-width="2" d="M663.19,-215.88C650.48,-206.89 634.74,-195.76 620.98,-186.03"/>
<polygon fill="grey" stroke="grey" stroke-width="2" points="622.9,-183.11 612.72,-180.19 618.86,-188.82 622.9,-183.11"/>
</g>
<!-- 3 -->
<g id="node4" class="node">
<title>3</title>
<path fill="none" stroke="#56d863" stroke-width="2" d="M389.9,-252C389.9,-252 294.9,-252 294.9,-252 288.9,-252 282.9,-246 282.9,-240 282.9,-240 282.9,-228 282.9,-228 282.9,-222 288.9,-216 294.9,-216 294.9,-216 389.9,-216 389.9,-216 395.9,-216 401.9,-222 401.9,-228 401.9,-228 401.9,-240 401.9,-240 401.9,-246 395.9,-252 389.9,-252"/>
<text text-anchor="middle" x="342.4" y="-231.5" font-family="sans" font-size="10.00">gatk_markduplicates</text>
</g>
<!-- 3&#45;&gt;0 -->
<g id="edge3" class="edge">
<title>3&#45;&gt;0</title>
<path fill="none" stroke="grey" stroke-width="2" d="M287.58,-215.96C270.75,-207.87 254.11,-196.28 244.4,-180 236.21,-166.26 235.42,-157.24 244.4,-144 307.55,-50.89 452.26,-27.13 520.92,-21.07"/>
<polygon fill="grey" stroke="grey" stroke-width="2" points="521.58,-24.53 531.27,-20.25 521.02,-17.56 521.58,-24.53"/>
</g>
<!-- 3&#45;&gt;5 -->
<g id="edge27" class="edge">
<title>3&#45;&gt;5</title>
<path fill="none" stroke="grey" stroke-width="2" d="M341.57,-215.83C341.58,-195.9 344.75,-163.29 363.4,-144 404.74,-101.24 476.84,-91.87 520.83,-90.42"/>
<polygon fill="grey" stroke="grey" stroke-width="2" points="521.18,-93.91 531.11,-90.21 521.04,-86.92 521.18,-93.91"/>
</g>
<!-- 19 -->
<g id="node20" class="node">
<title>19</title>
<path fill="none" stroke="#5673d8" stroke-width="2" d="M450.9,-180C450.9,-180 383.9,-180 383.9,-180 377.9,-180 371.9,-174 371.9,-168 371.9,-168 371.9,-156 371.9,-156 371.9,-150 377.9,-144 383.9,-144 383.9,-144 450.9,-144 450.9,-144 456.9,-144 462.9,-150 462.9,-156 462.9,-156 462.9,-168 462.9,-168 462.9,-174 456.9,-180 450.9,-180"/>
<text text-anchor="middle" x="417.4" y="-159.5" font-family="sans" font-size="10.00">samtools_stats</text>
</g>
<!-- 3&#45;&gt;19 -->
<g id="edge43" class="edge">
<title>3&#45;&gt;19</title>
<path fill="none" stroke="grey" stroke-width="2" d="M360.94,-215.7C370.21,-207.05 381.57,-196.45 391.66,-187.03"/>
<polygon fill="grey" stroke="grey" stroke-width="2" points="394.16,-189.49 399.08,-180.1 389.38,-184.37 394.16,-189.49"/>
</g>
<!-- 23 -->
<g id="node24" class="node">
<title>23</title>
<path fill="none" stroke="#56d0d8" stroke-width="2" d="M303.4,-180C303.4,-180 265.4,-180 265.4,-180 259.4,-180 253.4,-174 253.4,-168 253.4,-168 253.4,-156 253.4,-156 253.4,-150 259.4,-144 265.4,-144 265.4,-144 303.4,-144 303.4,-144 309.4,-144 315.4,-150 315.4,-156 315.4,-156 315.4,-168 315.4,-168 315.4,-174 309.4,-180 303.4,-180"/>
<text text-anchor="middle" x="284.4" y="-159.5" font-family="sans" font-size="10.00">qualimap</text>
</g>
<!-- 3&#45;&gt;23 -->
<g id="edge47" class="edge">
<title>3&#45;&gt;23</title>
<path fill="none" stroke="grey" stroke-width="2" d="M328.07,-215.7C321.11,-207.3 312.63,-197.07 305,-187.86"/>
<polygon fill="grey" stroke="grey" stroke-width="2" points="307.65,-185.57 298.58,-180.1 302.26,-190.04 307.65,-185.57"/>
</g>
<!-- 4 -->
<g id="node5" class="node">
<title>4</title>
<path fill="none" stroke="#56d863" stroke-width="2" d="M960.9,-252C960.9,-252 865.9,-252 865.9,-252 859.9,-252 853.9,-246 853.9,-240 853.9,-240 853.9,-228 853.9,-228 853.9,-222 859.9,-216 865.9,-216 865.9,-216 960.9,-216 960.9,-216 966.9,-216 972.9,-222 972.9,-228 972.9,-228 972.9,-240 972.9,-240 972.9,-246 966.9,-252 960.9,-252"/>
<text text-anchor="middle" x="913.4" y="-231.5" font-family="sans" font-size="10.00">gatk_markduplicates</text>
</g>
<!-- 4&#45;&gt;0 -->
<g id="edge4" class="edge">
<title>4&#45;&gt;0</title>
<path fill="none" stroke="grey" stroke-width="2" d="M972.92,-223.72C998.81,-216.4 1026.77,-203.33 1042.4,-180 1051.31,-166.71 1052.2,-156.65 1042.4,-144 986.85,-72.28 699.23,-34.33 595.64,-22.83"/>
<polygon fill="grey" stroke="grey" stroke-width="2" points="595.95,-19.35 585.63,-21.74 595.19,-26.3 595.95,-19.35"/>
</g>
<!-- 4&#45;&gt;5 -->
<g id="edge29" class="edge">
<title>4&#45;&gt;5</title>
<path fill="none" stroke="grey" stroke-width="2" d="M891.94,-215.73C866.02,-195.69 820.42,-162.99 776.4,-144 715.82,-117.86 639.94,-103.11 595.55,-96.12"/>
<polygon fill="grey" stroke="grey" stroke-width="2" points="595.92,-92.63 585.51,-94.58 594.87,-99.55 595.92,-92.63"/>
</g>
<!-- 21 -->
<g id="node22" class="node">
<title>21</title>
<path fill="none" stroke="#5673d8" stroke-width="2" d="M940.9,-180C940.9,-180 873.9,-180 873.9,-180 867.9,-180 861.9,-174 861.9,-168 861.9,-168 861.9,-156 861.9,-156 861.9,-150 867.9,-144 873.9,-144 873.9,-144 940.9,-144 940.9,-144 946.9,-144 952.9,-150 952.9,-156 952.9,-156 952.9,-168 952.9,-168 952.9,-174 946.9,-180 940.9,-180"/>
<text text-anchor="middle" x="907.4" y="-159.5" font-family="sans" font-size="10.00">samtools_stats</text>
</g>
<!-- 4&#45;&gt;21 -->
<g id="edge45" class="edge">
<title>4&#45;&gt;21</title>
<path fill="none" stroke="grey" stroke-width="2" d="M911.92,-215.7C911.26,-207.98 910.47,-198.71 909.73,-190.11"/>
<polygon fill="grey" stroke="grey" stroke-width="2" points="913.21,-189.77 908.87,-180.1 906.24,-190.37 913.21,-189.77"/>
</g>
<!-- 25 -->
<g id="node26" class="node">
<title>25</title>
<path fill="none" stroke="#56d0d8" stroke-width="2" d="M1021.4,-180C1021.4,-180 983.4,-180 983.4,-180 977.4,-180 971.4,-174 971.4,-168 971.4,-168 971.4,-156 971.4,-156 971.4,-150 977.4,-144 983.4,-144 983.4,-144 1021.4,-144 1021.4,-144 1027.4,-144 1033.4,-150 1033.4,-156 1033.4,-156 1033.4,-168 1033.4,-168 1033.4,-174 1027.4,-180 1021.4,-180"/>
<text text-anchor="middle" x="1002.4" y="-159.5" font-family="sans" font-size="10.00">qualimap</text>
</g>
<!-- 4&#45;&gt;25 -->
<g id="edge49" class="edge">
<title>4&#45;&gt;25</title>
<path fill="none" stroke="grey" stroke-width="2" d="M935.4,-215.7C946.61,-206.88 960.41,-196.03 972.56,-186.47"/>
<polygon fill="grey" stroke="grey" stroke-width="2" points="974.96,-189.04 980.66,-180.1 970.63,-183.54 974.96,-189.04"/>
</g>
<!-- 5&#45;&gt;0 -->
<g id="edge5" class="edge">
<title>5&#45;&gt;0</title>
<path fill="none" stroke="grey" stroke-width="2" d="M558.4,-71.7C558.4,-63.98 558.4,-54.71 558.4,-46.11"/>
<polygon fill="grey" stroke="grey" stroke-width="2" points="561.9,-46.1 558.4,-36.1 554.9,-46.1 561.9,-46.1"/>
</g>
<!-- 6 -->
<g id="node7" class="node">
<title>6</title>
<path fill="none" stroke="#9fd856" stroke-width="2" d="M177.4,-396C177.4,-396 115.4,-396 115.4,-396 109.4,-396 103.4,-390 103.4,-384 103.4,-384 103.4,-372 103.4,-372 103.4,-366 109.4,-360 115.4,-360 115.4,-360 177.4,-360 177.4,-360 183.4,-360 189.4,-366 189.4,-372 189.4,-372 189.4,-384 189.4,-384 189.4,-390 183.4,-396 177.4,-396"/>
<text text-anchor="middle" x="146.4" y="-375.5" font-family="sans" font-size="10.00">samtools_sort</text>
</g>
<!-- 6&#45;&gt;1 -->
<g id="edge6" class="edge">
<title>6&#45;&gt;1</title>
<path fill="none" stroke="grey" stroke-width="2" d="M122.44,-359.88C111.07,-350.53 98.27,-338.01 90.4,-324 79.74,-305 75.05,-280.64 72.99,-262.21"/>
<polygon fill="grey" stroke="grey" stroke-width="2" points="76.47,-261.76 72.06,-252.13 69.5,-262.41 76.47,-261.76"/>
</g>
<!-- 7 -->
<g id="node8" class="node">
<title>7</title>
<path fill="none" stroke="#d89556" stroke-width="2" d="M181.4,-324C181.4,-324 111.4,-324 111.4,-324 105.4,-324 99.4,-318 99.4,-312 99.4,-312 99.4,-300 99.4,-300 99.4,-294 105.4,-288 111.4,-288 111.4,-288 181.4,-288 181.4,-288 187.4,-288 193.4,-294 193.4,-300 193.4,-300 193.4,-312 193.4,-312 193.4,-318 187.4,-324 181.4,-324"/>
<text text-anchor="middle" x="146.4" y="-303.5" font-family="sans" font-size="10.00">samtools_index</text>
</g>
<!-- 6&#45;&gt;7 -->
<g id="edge31" class="edge">
<title>6&#45;&gt;7</title>
<path fill="none" stroke="grey" stroke-width="2" d="M146.4,-359.7C146.4,-351.98 146.4,-342.71 146.4,-334.11"/>
<polygon fill="grey" stroke="grey" stroke-width="2" points="149.9,-334.1 146.4,-324.1 142.9,-334.1 149.9,-334.1"/>
</g>
<!-- 7&#45;&gt;1 -->
<g id="edge7" class="edge">
<title>7&#45;&gt;1</title>
<path fill="none" stroke="grey" stroke-width="2" d="M127.87,-287.7C118.6,-279.05 107.24,-268.45 97.15,-259.03"/>
<polygon fill="grey" stroke="grey" stroke-width="2" points="99.43,-256.37 89.73,-252.1 94.65,-261.49 99.43,-256.37"/>
</g>
<!-- 8 -->
<g id="node9" class="node">
<title>8</title>
<path fill="none" stroke="#9fd856" stroke-width="2" d="M691.4,-396C691.4,-396 629.4,-396 629.4,-396 623.4,-396 617.4,-390 617.4,-384 617.4,-384 617.4,-372 617.4,-372 617.4,-366 623.4,-360 629.4,-360 629.4,-360 691.4,-360 691.4,-360 697.4,-360 703.4,-366 703.4,-372 703.4,-372 703.4,-384 703.4,-384 703.4,-390 697.4,-396 691.4,-396"/>
<text text-anchor="middle" x="660.4" y="-375.5" font-family="sans" font-size="10.00">samtools_sort</text>
</g>
<!-- 8&#45;&gt;2 -->
<g id="edge8" class="edge">
<title>8&#45;&gt;2</title>
<path fill="none" stroke="grey" stroke-width="2" d="M662.33,-359.84C664.48,-341.84 668.34,-312.78 673.4,-288 675.15,-279.48 677.43,-270.28 679.65,-261.98"/>
<polygon fill="grey" stroke="grey" stroke-width="2" points="683.09,-262.64 682.37,-252.07 676.34,-260.79 683.09,-262.64"/>
</g>
<!-- 9 -->
<g id="node10" class="node">
<title>9</title>
<path fill="none" stroke="#d89556" stroke-width="2" d="M764.4,-324C764.4,-324 694.4,-324 694.4,-324 688.4,-324 682.4,-318 682.4,-312 682.4,-312 682.4,-300 682.4,-300 682.4,-294 688.4,-288 694.4,-288 694.4,-288 764.4,-288 764.4,-288 770.4,-288 776.4,-294 776.4,-300 776.4,-300 776.4,-312 776.4,-312 776.4,-318 770.4,-324 764.4,-324"/>
<text text-anchor="middle" x="729.4" y="-303.5" font-family="sans" font-size="10.00">samtools_index</text>
</g>
<!-- 8&#45;&gt;9 -->
<g id="edge33" class="edge">
<title>8&#45;&gt;9</title>
<path fill="none" stroke="grey" stroke-width="2" d="M677.46,-359.7C685.9,-351.14 696.23,-340.66 705.45,-331.3"/>
<polygon fill="grey" stroke="grey" stroke-width="2" points="708.02,-333.68 712.54,-324.1 703.03,-328.77 708.02,-333.68"/>
</g>
<!-- 9&#45;&gt;2 -->
<g id="edge9" class="edge">
<title>9&#45;&gt;2</title>
<path fill="none" stroke="grey" stroke-width="2" d="M719.02,-287.7C714.14,-279.56 708.22,-269.69 702.83,-260.7"/>
<polygon fill="grey" stroke="grey" stroke-width="2" points="705.81,-258.88 697.67,-252.1 699.81,-262.48 705.81,-258.88"/>
</g>
<!-- 10 -->
<g id="node11" class="node">
<title>10</title>
<path fill="none" stroke="#9fd856" stroke-width="2" d="M395.4,-396C395.4,-396 333.4,-396 333.4,-396 327.4,-396 321.4,-390 321.4,-384 321.4,-384 321.4,-372 321.4,-372 321.4,-366 327.4,-360 333.4,-360 333.4,-360 395.4,-360 395.4,-360 401.4,-360 407.4,-366 407.4,-372 407.4,-372 407.4,-384 407.4,-384 407.4,-390 401.4,-396 395.4,-396"/>
<text text-anchor="middle" x="364.4" y="-375.5" font-family="sans" font-size="10.00">samtools_sort</text>
</g>
<!-- 10&#45;&gt;3 -->
<g id="edge10" class="edge">
<title>10&#45;&gt;3</title>
<path fill="none" stroke="grey" stroke-width="2" d="M351.68,-359.85C345.12,-349.92 337.8,-336.88 334.4,-324 329.02,-303.56 331.63,-279.66 335.26,-261.78"/>
<polygon fill="grey" stroke="grey" stroke-width="2" points="338.67,-262.55 337.45,-252.02 331.84,-261.01 338.67,-262.55"/>
</g>
<!-- 11 -->
<g id="node12" class="node">
<title>11</title>
<path fill="none" stroke="#d89556" stroke-width="2" d="M425.4,-324C425.4,-324 355.4,-324 355.4,-324 349.4,-324 343.4,-318 343.4,-312 343.4,-312 343.4,-300 343.4,-300 343.4,-294 349.4,-288 355.4,-288 355.4,-288 425.4,-288 425.4,-288 431.4,-288 437.4,-294 437.4,-300 437.4,-300 437.4,-312 437.4,-312 437.4,-318 431.4,-324 425.4,-324"/>
<text text-anchor="middle" x="390.4" y="-303.5" font-family="sans" font-size="10.00">samtools_index</text>
</g>
<!-- 10&#45;&gt;11 -->
<g id="edge35" class="edge">
<title>10&#45;&gt;11</title>
<path fill="none" stroke="grey" stroke-width="2" d="M370.83,-359.7C373.76,-351.81 377.29,-342.3 380.54,-333.55"/>
<polygon fill="grey" stroke="grey" stroke-width="2" points="383.85,-334.7 384.05,-324.1 377.29,-332.26 383.85,-334.7"/>
</g>
<!-- 11&#45;&gt;3 -->
<g id="edge11" class="edge">
<title>11&#45;&gt;3</title>
<path fill="none" stroke="grey" stroke-width="2" d="M378.54,-287.7C372.9,-279.47 366.05,-269.48 359.84,-260.42"/>
<polygon fill="grey" stroke="grey" stroke-width="2" points="362.68,-258.37 354.13,-252.1 356.9,-262.33 362.68,-258.37"/>
</g>
<!-- 12 -->
<g id="node13" class="node">
<title>12</title>
<path fill="none" stroke="#9fd856" stroke-width="2" d="M885.4,-396C885.4,-396 823.4,-396 823.4,-396 817.4,-396 811.4,-390 811.4,-384 811.4,-384 811.4,-372 811.4,-372 811.4,-366 817.4,-360 823.4,-360 823.4,-360 885.4,-360 885.4,-360 891.4,-360 897.4,-366 897.4,-372 897.4,-372 897.4,-384 897.4,-384 897.4,-390 891.4,-396 885.4,-396"/>
<text text-anchor="middle" x="854.4" y="-375.5" font-family="sans" font-size="10.00">samtools_sort</text>
</g>
<!-- 12&#45;&gt;4 -->
<g id="edge12" class="edge">
<title>12&#45;&gt;4</title>
<path fill="none" stroke="grey" stroke-width="2" d="M854.39,-359.81C854.97,-341.28 857.71,-311.32 868.4,-288 873.06,-277.86 880.22,-268.13 887.47,-259.83"/>
<polygon fill="grey" stroke="grey" stroke-width="2" points="890.16,-262.08 894.37,-252.36 885.01,-257.33 890.16,-262.08"/>
</g>
<!-- 13 -->
<g id="node14" class="node">
<title>13</title>
<path fill="none" stroke="#d89556" stroke-width="2" d="M959.4,-324C959.4,-324 889.4,-324 889.4,-324 883.4,-324 877.4,-318 877.4,-312 877.4,-312 877.4,-300 877.4,-300 877.4,-294 883.4,-288 889.4,-288 889.4,-288 959.4,-288 959.4,-288 965.4,-288 971.4,-294 971.4,-300 971.4,-300 971.4,-312 971.4,-312 971.4,-318 965.4,-324 959.4,-324"/>
<text text-anchor="middle" x="924.4" y="-303.5" font-family="sans" font-size="10.00">samtools_index</text>
</g>
<!-- 12&#45;&gt;13 -->
<g id="edge37" class="edge">
<title>12&#45;&gt;13</title>
<path fill="none" stroke="grey" stroke-width="2" d="M871.71,-359.7C880.27,-351.14 890.75,-340.66 900.1,-331.3"/>
<polygon fill="grey" stroke="grey" stroke-width="2" points="902.7,-333.65 907.3,-324.1 897.75,-328.7 902.7,-333.65"/>
</g>
<!-- 13&#45;&gt;4 -->
<g id="edge13" class="edge">
<title>13&#45;&gt;4</title>
<path fill="none" stroke="grey" stroke-width="2" d="M921.69,-287.7C920.47,-279.98 919.02,-270.71 917.66,-262.11"/>
<polygon fill="grey" stroke="grey" stroke-width="2" points="921.1,-261.44 916.09,-252.1 914.19,-262.53 921.1,-261.44"/>
</g>
<!-- 14 -->
<g id="node15" class="node">
<title>14</title>
<path fill="none" stroke="#56d8c1" stroke-width="2" d="M567.4,-396C567.4,-396 537.4,-396 537.4,-396 531.4,-396 525.4,-390 525.4,-384 525.4,-384 525.4,-372 525.4,-372 525.4,-366 531.4,-360 537.4,-360 537.4,-360 567.4,-360 567.4,-360 573.4,-360 579.4,-366 579.4,-372 579.4,-372 579.4,-384 579.4,-384 579.4,-390 573.4,-396 567.4,-396"/>
<text text-anchor="middle" x="552.4" y="-375.5" font-family="sans" font-size="10.00">fastqc</text>
</g>
<!-- 14&#45;&gt;5 -->
<g id="edge14" class="edge">
<title>14&#45;&gt;5</title>
<path fill="none" stroke="grey" stroke-width="2" d="M550.83,-359.99C547.55,-321.46 540.87,-224.56 548.4,-144 549.2,-135.48 550.7,-126.28 552.31,-117.99"/>
<polygon fill="grey" stroke="grey" stroke-width="2" points="555.76,-118.57 554.35,-108.07 548.9,-117.16 555.76,-118.57"/>
</g>
<!-- 15 -->
<g id="node16" class="node">
<title>15</title>
<path fill="none" stroke="#56d8c1" stroke-width="2" d="M1169.4,-468C1169.4,-468 1139.4,-468 1139.4,-468 1133.4,-468 1127.4,-462 1127.4,-456 1127.4,-456 1127.4,-444 1127.4,-444 1127.4,-438 1133.4,-432 1139.4,-432 1139.4,-432 1169.4,-432 1169.4,-432 1175.4,-432 1181.4,-438 1181.4,-444 1181.4,-444 1181.4,-456 1181.4,-456 1181.4,-462 1175.4,-468 1169.4,-468"/>
<text text-anchor="middle" x="1154.4" y="-447.5" font-family="sans" font-size="10.00">fastqc</text>
</g>
<!-- 15&#45;&gt;5 -->
<g id="edge15" class="edge">
<title>15&#45;&gt;5</title>
<path fill="none" stroke="grey" stroke-width="2" d="M1152.63,-431.97C1150,-405.34 1145.4,-352.21 1145.4,-307 1145.4,-307 1145.4,-307 1145.4,-233 1145.4,-190.97 1146.6,-169.79 1113.4,-144 1072.59,-112.3 713.65,-96.61 595.75,-92.27"/>
<polygon fill="grey" stroke="grey" stroke-width="2" points="595.87,-88.78 585.75,-91.91 595.62,-95.77 595.87,-88.78"/>
</g>
<!-- 16 -->
<g id="node17" class="node">
<title>16</title>
<path fill="none" stroke="#68d856" stroke-width="2" d="M519.4,-540C519.4,-540 463.4,-540 463.4,-540 457.4,-540 451.4,-534 451.4,-528 451.4,-528 451.4,-516 451.4,-516 451.4,-510 457.4,-504 463.4,-504 463.4,-504 519.4,-504 519.4,-504 525.4,-504 531.4,-510 531.4,-516 531.4,-516 531.4,-528 531.4,-528 531.4,-534 525.4,-540 519.4,-540"/>
<text text-anchor="middle" x="491.4" y="-519.5" font-family="sans" font-size="10.00">trimmomatic</text>
</g>
<!-- 16&#45;&gt;5 -->
<g id="edge16" class="edge">
<title>16&#45;&gt;5</title>
<path fill="none" stroke="grey" stroke-width="2" d="M491.4,-503.95C491.4,-477.29 491.4,-424.11 491.4,-379 491.4,-379 491.4,-379 491.4,-233 491.4,-188.73 518.37,-143.47 538.09,-116.3"/>
<polygon fill="grey" stroke="grey" stroke-width="2" points="541.01,-118.25 544.2,-108.14 535.4,-114.05 541.01,-118.25"/>
</g>
<!-- 26 -->
<g id="node27" class="node">
<title>26</title>
<path fill="none" stroke="#bed856" stroke-width="2" d="M241.4,-468C241.4,-468 197.4,-468 197.4,-468 191.4,-468 185.4,-462 185.4,-456 185.4,-456 185.4,-444 185.4,-444 185.4,-438 191.4,-432 197.4,-432 197.4,-432 241.4,-432 241.4,-432 247.4,-432 253.4,-438 253.4,-444 253.4,-444 253.4,-456 253.4,-456 253.4,-462 247.4,-468 241.4,-468"/>
<text text-anchor="middle" x="219.4" y="-447.5" font-family="sans" font-size="10.00">bwa_mem</text>
</g>
<!-- 16&#45;&gt;26 -->
<g id="edge51" class="edge">
<title>16&#45;&gt;26</title>
<path fill="none" stroke="grey" stroke-width="2" d="M451.27,-510.67C401.12,-497.76 315.58,-475.75 263.6,-462.37"/>
<polygon fill="grey" stroke="grey" stroke-width="2" points="264.23,-458.92 253.67,-459.82 262.48,-465.7 264.23,-458.92"/>
</g>
<!-- 27 -->
<g id="node28" class="node">
<title>27</title>
<path fill="none" stroke="#bed856" stroke-width="2" d="M682.4,-468C682.4,-468 638.4,-468 638.4,-468 632.4,-468 626.4,-462 626.4,-456 626.4,-456 626.4,-444 626.4,-444 626.4,-438 632.4,-432 638.4,-432 638.4,-432 682.4,-432 682.4,-432 688.4,-432 694.4,-438 694.4,-444 694.4,-444 694.4,-456 694.4,-456 694.4,-462 688.4,-468 682.4,-468"/>
<text text-anchor="middle" x="660.4" y="-447.5" font-family="sans" font-size="10.00">bwa_mem</text>
</g>
<!-- 16&#45;&gt;27 -->
<g id="edge56" class="edge">
<title>16&#45;&gt;27</title>
<path fill="none" stroke="grey" stroke-width="2" d="M531.46,-504.41C557.19,-493.75 590.61,-479.91 616.98,-468.99"/>
<polygon fill="grey" stroke="grey" stroke-width="2" points="618.45,-472.17 626.34,-465.11 615.77,-465.7 618.45,-472.17"/>
</g>
<!-- 17 -->
<g id="node18" class="node">
<title>17</title>
<path fill="none" stroke="#68d856" stroke-width="2" d="M1061.4,-540C1061.4,-540 1005.4,-540 1005.4,-540 999.4,-540 993.4,-534 993.4,-528 993.4,-528 993.4,-516 993.4,-516 993.4,-510 999.4,-504 1005.4,-504 1005.4,-504 1061.4,-504 1061.4,-504 1067.4,-504 1073.4,-510 1073.4,-516 1073.4,-516 1073.4,-528 1073.4,-528 1073.4,-534 1067.4,-540 1061.4,-540"/>
<text text-anchor="middle" x="1033.4" y="-519.5" font-family="sans" font-size="10.00">trimmomatic</text>
</g>
<!-- 17&#45;&gt;5 -->
<g id="edge17" class="edge">
<title>17&#45;&gt;5</title>
<path fill="none" stroke="grey" stroke-width="2" d="M1047.4,-503.82C1066.78,-478.26 1099.4,-427.93 1099.4,-379 1099.4,-379 1099.4,-379 1099.4,-233 1099.4,-186.03 1082.32,-168.76 1042.4,-144 967.81,-97.74 695.7,-91.66 595.65,-91.01"/>
<polygon fill="grey" stroke="grey" stroke-width="2" points="595.43,-87.51 585.41,-90.96 595.4,-94.51 595.43,-87.51"/>
</g>
<!-- 28 -->
<g id="node29" class="node">
<title>28</title>
<path fill="none" stroke="#bed856" stroke-width="2" d="M386.4,-468C386.4,-468 342.4,-468 342.4,-468 336.4,-468 330.4,-462 330.4,-456 330.4,-456 330.4,-444 330.4,-444 330.4,-438 336.4,-432 342.4,-432 342.4,-432 386.4,-432 386.4,-432 392.4,-432 398.4,-438 398.4,-444 398.4,-444 398.4,-456 398.4,-456 398.4,-462 392.4,-468 386.4,-468"/>
<text text-anchor="middle" x="364.4" y="-447.5" font-family="sans" font-size="10.00">bwa_mem</text>
</g>
<!-- 17&#45;&gt;28 -->
<g id="edge61" class="edge">
<title>17&#45;&gt;28</title>
<path fill="none" stroke="grey" stroke-width="2" d="M993.29,-515.86C965.54,-512.36 927.75,-507.71 894.4,-504 714.5,-484.01 499.84,-463.6 408.76,-455.1"/>
<polygon fill="grey" stroke="grey" stroke-width="2" points="408.82,-451.59 398.53,-454.15 408.17,-458.56 408.82,-451.59"/>
</g>
<!-- 29 -->
<g id="node30" class="node">
<title>29</title>
<path fill="none" stroke="#bed856" stroke-width="2" d="M876.4,-468C876.4,-468 832.4,-468 832.4,-468 826.4,-468 820.4,-462 820.4,-456 820.4,-456 820.4,-444 820.4,-444 820.4,-438 826.4,-432 832.4,-432 832.4,-432 876.4,-432 876.4,-432 882.4,-432 888.4,-438 888.4,-444 888.4,-444 888.4,-456 888.4,-456 888.4,-462 882.4,-468 876.4,-468"/>
<text text-anchor="middle" x="854.4" y="-447.5" font-family="sans" font-size="10.00">bwa_mem</text>
</g>
<!-- 17&#45;&gt;29 -->
<g id="edge66" class="edge">
<title>17&#45;&gt;29</title>
<path fill="none" stroke="grey" stroke-width="2" d="M993.23,-505.29C964.9,-494.21 926.96,-479.37 897.91,-468.01"/>
<polygon fill="grey" stroke="grey" stroke-width="2" points="899.01,-464.69 888.42,-464.3 896.46,-471.21 899.01,-464.69"/>
</g>
<!-- 18&#45;&gt;5 -->
<g id="edge18" class="edge">
<title>18&#45;&gt;5</title>
<path fill="none" stroke="grey" stroke-width="2" d="M117.16,-146.19C120.27,-145.39 123.37,-144.65 126.4,-144 270.42,-113.16 445.57,-98.56 520.95,-93.35"/>
<polygon fill="grey" stroke="grey" stroke-width="2" points="521.59,-96.81 531.33,-92.64 521.12,-89.83 521.59,-96.81"/>
</g>
<!-- 19&#45;&gt;5 -->
<g id="edge19" class="edge">
<title>19&#45;&gt;5</title>
<path fill="none" stroke="grey" stroke-width="2" d="M451.9,-143.88C473.2,-133.3 500.51,-119.74 522.13,-109.01"/>
<polygon fill="grey" stroke="grey" stroke-width="2" points="523.92,-112.03 531.33,-104.44 520.81,-105.76 523.92,-112.03"/>
</g>
<!-- 20&#45;&gt;5 -->
<g id="edge20" class="edge">
<title>20&#45;&gt;5</title>
<path fill="none" stroke="grey" stroke-width="2" d="M681.53,-143.88C655.12,-132.53 620.74,-117.77 595.02,-106.73"/>
<polygon fill="grey" stroke="grey" stroke-width="2" points="596.2,-103.42 585.63,-102.69 593.43,-109.85 596.2,-103.42"/>
</g>
<!-- 21&#45;&gt;5 -->
<g id="edge21" class="edge">
<title>21&#45;&gt;5</title>
<path fill="none" stroke="grey" stroke-width="2" d="M861.66,-147.56C856.86,-146.29 852.04,-145.08 847.4,-144 757.79,-123.14 650.99,-105.36 595.7,-96.68"/>
<polygon fill="grey" stroke="grey" stroke-width="2" points="596.1,-93.2 585.68,-95.12 595.02,-100.12 596.1,-93.2"/>
</g>
<!-- 22&#45;&gt;5 -->
<g id="edge22" class="edge">
<title>22&#45;&gt;5</title>
<path fill="none" stroke="grey" stroke-width="2" d="M197.46,-153.88C211.73,-150.7 228.89,-147 244.4,-144 344,-124.75 462.13,-105.87 521.07,-96.72"/>
<polygon fill="grey" stroke="grey" stroke-width="2" points="521.68,-100.16 531.03,-95.17 520.61,-93.25 521.68,-100.16"/>
</g>
<!-- 23&#45;&gt;5 -->
<g id="edge23" class="edge">
<title>23&#45;&gt;5</title>
<path fill="none" stroke="grey" stroke-width="2" d="M315.69,-148.57C320.26,-146.93 324.93,-145.36 329.4,-144 396.07,-123.79 475.65,-106.97 521.28,-98"/>
<polygon fill="grey" stroke="grey" stroke-width="2" points="522.16,-101.4 531.3,-96.05 520.82,-94.52 522.16,-101.4"/>
</g>
<!-- 24&#45;&gt;5 -->
<g id="edge24" class="edge">
<title>24&#45;&gt;5</title>
<path fill="none" stroke="grey" stroke-width="2" d="M580.99,-143.7C577.61,-135.81 573.53,-126.3 569.78,-117.55"/>
<polygon fill="grey" stroke="grey" stroke-width="2" points="572.89,-115.92 565.73,-108.1 566.46,-118.67 572.89,-115.92"/>
</g>
<!-- 25&#45;&gt;5 -->
<g id="edge25" class="edge">
<title>25&#45;&gt;5</title>
<path fill="none" stroke="grey" stroke-width="2" d="M971.25,-146.81C968.29,-145.75 965.32,-144.79 962.4,-144 830.95,-108.16 668.6,-96.25 596.27,-92.55"/>
<polygon fill="grey" stroke="grey" stroke-width="2" points="596.01,-89.03 585.86,-92.04 595.67,-96.02 596.01,-89.03"/>
</g>
<!-- 26&#45;&gt;6 -->
<g id="edge30" class="edge">
<title>26&#45;&gt;6</title>
<path fill="none" stroke="grey" stroke-width="2" d="M201.36,-431.7C192.34,-423.05 181.29,-412.45 171.46,-403.03"/>
<polygon fill="grey" stroke="grey" stroke-width="2" points="173.88,-400.5 164.24,-396.1 169.04,-405.55 173.88,-400.5"/>
</g>
<!-- 27&#45;&gt;8 -->
<g id="edge32" class="edge">
<title>27&#45;&gt;8</title>
<path fill="none" stroke="grey" stroke-width="2" d="M660.4,-431.7C660.4,-423.98 660.4,-414.71 660.4,-406.11"/>
<polygon fill="grey" stroke="grey" stroke-width="2" points="663.9,-406.1 660.4,-396.1 656.9,-406.1 663.9,-406.1"/>
</g>
<!-- 28&#45;&gt;10 -->
<g id="edge34" class="edge">
<title>28&#45;&gt;10</title>
<path fill="none" stroke="grey" stroke-width="2" d="M364.4,-431.7C364.4,-423.98 364.4,-414.71 364.4,-406.11"/>
<polygon fill="grey" stroke="grey" stroke-width="2" points="367.9,-406.1 364.4,-396.1 360.9,-406.1 367.9,-406.1"/>
</g>
<!-- 29&#45;&gt;12 -->
<g id="edge36" class="edge">
<title>29&#45;&gt;12</title>
<path fill="none" stroke="grey" stroke-width="2" d="M854.4,-431.7C854.4,-423.98 854.4,-414.71 854.4,-406.11"/>
<polygon fill="grey" stroke="grey" stroke-width="2" points="857.9,-406.1 854.4,-396.1 850.9,-406.1 857.9,-406.1"/>
</g>
<!-- 30 -->
<g id="node31" class="node">
<title>30</title>
<path fill="none" stroke="#d8d356" stroke-width="2" d="M562.4,-612C562.4,-612 508.4,-612 508.4,-612 502.4,-612 496.4,-606 496.4,-600 496.4,-600 496.4,-588 496.4,-588 496.4,-582 502.4,-576 508.4,-576 508.4,-576 562.4,-576 562.4,-576 568.4,-576 574.4,-582 574.4,-588 574.4,-588 574.4,-600 574.4,-600 574.4,-606 568.4,-612 562.4,-612"/>
<text text-anchor="middle" x="535.4" y="-597" font-family="sans" font-size="10.00">cp_reads</text>
<text text-anchor="middle" x="535.4" y="-586" font-family="sans" font-size="10.00">library: test2</text>
</g>
<!-- 30&#45;&gt;14 -->
<g id="edge38" class="edge">
<title>30&#45;&gt;14</title>
<path fill="none" stroke="grey" stroke-width="2" d="M537.11,-575.82C538.12,-565.45 539.39,-551.97 540.4,-540 544.35,-493.28 548.26,-438.87 550.5,-406.78"/>
<polygon fill="grey" stroke="grey" stroke-width="2" points="554.02,-406.62 551.22,-396.4 547.04,-406.13 554.02,-406.62"/>
</g>
<!-- 30&#45;&gt;16 -->
<g id="edge40" class="edge">
<title>30&#45;&gt;16</title>
<path fill="none" stroke="grey" stroke-width="2" d="M524.53,-575.7C519.41,-567.56 513.21,-557.69 507.56,-548.7"/>
<polygon fill="grey" stroke="grey" stroke-width="2" points="510.44,-546.71 502.16,-540.1 504.51,-550.43 510.44,-546.71"/>
</g>
<!-- 31 -->
<g id="node32" class="node">
<title>31</title>
<path fill="none" stroke="#d8d356" stroke-width="2" d="M1120.4,-612C1120.4,-612 1066.4,-612 1066.4,-612 1060.4,-612 1054.4,-606 1054.4,-600 1054.4,-600 1054.4,-588 1054.4,-588 1054.4,-582 1060.4,-576 1066.4,-576 1066.4,-576 1120.4,-576 1120.4,-576 1126.4,-576 1132.4,-582 1132.4,-588 1132.4,-588 1132.4,-600 1132.4,-600 1132.4,-606 1126.4,-612 1120.4,-612"/>
<text text-anchor="middle" x="1093.4" y="-597" font-family="sans" font-size="10.00">cp_reads</text>
<text text-anchor="middle" x="1093.4" y="-586" font-family="sans" font-size="10.00">library: test1</text>
</g>
<!-- 31&#45;&gt;15 -->
<g id="edge39" class="edge">
<title>31&#45;&gt;15</title>
<path fill="none" stroke="grey" stroke-width="2" d="M1100.76,-575.87C1111.25,-551.46 1130.59,-506.43 1142.96,-477.64"/>
<polygon fill="grey" stroke="grey" stroke-width="2" points="1146.29,-478.76 1147.02,-468.19 1139.86,-476 1146.29,-478.76"/>
</g>
<!-- 31&#45;&gt;17 -->
<g id="edge41" class="edge">
<title>31&#45;&gt;17</title>
<path fill="none" stroke="grey" stroke-width="2" d="M1078.57,-575.7C1071.38,-567.3 1062.61,-557.07 1054.71,-547.86"/>
<polygon fill="grey" stroke="grey" stroke-width="2" points="1057.23,-545.42 1048.07,-540.1 1051.92,-549.97 1057.23,-545.42"/>
</g>
<!-- 32 -->
<g id="node33" class="node">
<title>32</title>
<path fill="none" stroke="#56d882" stroke-width="2" d="M376.9,-612C376.9,-612 257.9,-612 257.9,-612 251.9,-612 245.9,-606 245.9,-600 245.9,-600 245.9,-588 245.9,-588 245.9,-582 251.9,-576 257.9,-576 257.9,-576 376.9,-576 376.9,-576 382.9,-576 388.9,-582 388.9,-588 388.9,-588 388.9,-600 388.9,-600 388.9,-606 382.9,-612 376.9,-612"/>
<text text-anchor="middle" x="317.4" y="-597" font-family="sans" font-size="10.00">samtools_faidx_split</text>
<text text-anchor="middle" x="317.4" y="-586" font-family="sans" font-size="10.00">chromosome: Qrob_Chr01</text>
</g>
<!-- 32&#45;&gt;26 -->
<g id="edge50" class="edge">
<title>32&#45;&gt;26</title>
<path fill="none" stroke="grey" stroke-width="2" d="M245.8,-582.31C197.94,-573.53 141.14,-559.38 126.4,-540 116.72,-527.26 118.37,-517.83 126.4,-504 137.19,-485.44 157.17,-472.84 175.85,-464.6"/>
<polygon fill="grey" stroke="grey" stroke-width="2" points="177.23,-467.82 185.16,-460.79 174.58,-461.34 177.23,-467.82"/>
</g>
<!-- 32&#45;&gt;28 -->
<g id="edge60" class="edge">
<title>32&#45;&gt;28</title>
<path fill="none" stroke="grey" stroke-width="2" d="M363.93,-575.85C379.66,-567.56 395.48,-555.88 404.4,-540 416.13,-519.12 402.71,-494.17 388.34,-476"/>
<polygon fill="grey" stroke="grey" stroke-width="2" points="390.87,-473.57 381.76,-468.17 385.52,-478.08 390.87,-473.57"/>
</g>
<!-- 33 -->
<g id="node34" class="node">
<title>33</title>
<path fill="none" stroke="#5692d8" stroke-width="2" d="M192.9,-540C192.9,-540 147.9,-540 147.9,-540 141.9,-540 135.9,-534 135.9,-528 135.9,-528 135.9,-516 135.9,-516 135.9,-510 141.9,-504 147.9,-504 147.9,-504 192.9,-504 192.9,-504 198.9,-504 204.9,-510 204.9,-516 204.9,-516 204.9,-528 204.9,-528 204.9,-534 198.9,-540 192.9,-540"/>
<text text-anchor="middle" x="170.4" y="-519.5" font-family="sans" font-size="10.00">bwa_index</text>
</g>
<!-- 32&#45;&gt;33 -->
<g id="edge71" class="edge">
<title>32&#45;&gt;33</title>
<path fill="none" stroke="grey" stroke-width="2" d="M281.44,-575.88C261.16,-566.22 235.65,-554.07 214.21,-543.86"/>
<polygon fill="grey" stroke="grey" stroke-width="2" points="215.51,-540.6 204.98,-539.47 212.5,-546.92 215.51,-540.6"/>
</g>
<!-- 34 -->
<g id="node35" class="node">
<title>34</title>
<path fill="none" stroke="#56b1d8" stroke-width="2" d="M303.4,-540C303.4,-540 235.4,-540 235.4,-540 229.4,-540 223.4,-534 223.4,-528 223.4,-528 223.4,-516 223.4,-516 223.4,-510 229.4,-504 235.4,-504 235.4,-504 303.4,-504 303.4,-504 309.4,-504 315.4,-510 315.4,-516 315.4,-516 315.4,-528 315.4,-528 315.4,-534 309.4,-540 303.4,-540"/>
<text text-anchor="middle" x="269.4" y="-519.5" font-family="sans" font-size="10.00">samtools_faidx</text>
</g>
<!-- 32&#45;&gt;34 -->
<g id="edge72" class="edge">
<title>32&#45;&gt;34</title>
<path fill="none" stroke="grey" stroke-width="2" d="M305.54,-575.7C299.9,-567.47 293.05,-557.48 286.84,-548.42"/>
<polygon fill="grey" stroke="grey" stroke-width="2" points="289.68,-546.37 281.13,-540.1 283.9,-550.33 289.68,-546.37"/>
</g>
<!-- 35 -->
<g id="node36" class="node">
<title>35</title>
<path fill="none" stroke="#56d8a2" stroke-width="2" d="M383.4,-540C383.4,-540 345.4,-540 345.4,-540 339.4,-540 333.4,-534 333.4,-528 333.4,-528 333.4,-516 333.4,-516 333.4,-510 339.4,-504 345.4,-504 345.4,-504 383.4,-504 383.4,-504 389.4,-504 395.4,-510 395.4,-516 395.4,-516 395.4,-528 395.4,-528 395.4,-534 389.4,-540 383.4,-540"/>
<text text-anchor="middle" x="364.4" y="-519.5" font-family="sans" font-size="10.00">gatk_dict</text>
</g>
<!-- 32&#45;&gt;35 -->
<g id="edge73" class="edge">
<title>32&#45;&gt;35</title>
<path fill="none" stroke="grey" stroke-width="2" d="M329.02,-575.7C334.54,-567.47 341.25,-557.48 347.34,-548.42"/>
<polygon fill="grey" stroke="grey" stroke-width="2" points="350.25,-550.36 352.92,-540.1 344.44,-546.46 350.25,-550.36"/>
</g>
<!-- 33&#45;&gt;26 -->
<g id="edge52" class="edge">
<title>33&#45;&gt;26</title>
<path fill="none" stroke="grey" stroke-width="2" d="M182.52,-503.7C188.27,-495.47 195.27,-485.48 201.61,-476.42"/>
<polygon fill="grey" stroke="grey" stroke-width="2" points="204.56,-478.3 207.43,-468.1 198.83,-474.29 204.56,-478.3"/>
</g>
<!-- 33&#45;&gt;28 -->
<g id="edge62" class="edge">
<title>33&#45;&gt;28</title>
<path fill="none" stroke="grey" stroke-width="2" d="M204.96,-507.54C208.15,-506.33 211.33,-505.14 214.4,-504 250.01,-490.83 290.63,-476.53 320.61,-466.1"/>
<polygon fill="grey" stroke="grey" stroke-width="2" points="322.05,-469.3 330.35,-462.72 319.75,-462.69 322.05,-469.3"/>
</g>
<!-- 34&#45;&gt;26 -->
<g id="edge53" class="edge">
<title>34&#45;&gt;26</title>
<path fill="none" stroke="grey" stroke-width="2" d="M257.04,-503.7C251.17,-495.47 244.04,-485.48 237.56,-476.42"/>
<polygon fill="grey" stroke="grey" stroke-width="2" points="240.28,-474.21 231.62,-468.1 234.59,-478.28 240.28,-474.21"/>
</g>
<!-- 34&#45;&gt;28 -->
<g id="edge63" class="edge">
<title>34&#45;&gt;28</title>
<path fill="none" stroke="grey" stroke-width="2" d="M292.89,-503.7C304.97,-494.8 319.86,-483.82 332.92,-474.2"/>
<polygon fill="grey" stroke="grey" stroke-width="2" points="335.22,-476.85 341.19,-468.1 331.06,-471.22 335.22,-476.85"/>
</g>
<!-- 35&#45;&gt;26 -->
<g id="edge54" class="edge">
<title>35&#45;&gt;26</title>
<path fill="none" stroke="grey" stroke-width="2" d="M333.3,-505.98C312.67,-496.03 285.33,-482.82 262.6,-471.85"/>
<polygon fill="grey" stroke="grey" stroke-width="2" points="264.03,-468.66 253.5,-467.46 260.98,-474.96 264.03,-468.66"/>
</g>
<!-- 35&#45;&gt;28 -->
<g id="edge64" class="edge">
<title>35&#45;&gt;28</title>
<path fill="none" stroke="grey" stroke-width="2" d="M364.4,-503.7C364.4,-495.98 364.4,-486.71 364.4,-478.11"/>
<polygon fill="grey" stroke="grey" stroke-width="2" points="367.9,-478.1 364.4,-468.1 360.9,-478.1 367.9,-478.1"/>
</g>
<!-- 36 -->
<g id="node37" class="node">
<title>36</title>
<path fill="none" stroke="#56d882" stroke-width="2" d="M742.9,-612C742.9,-612 623.9,-612 623.9,-612 617.9,-612 611.9,-606 611.9,-600 611.9,-600 611.9,-588 611.9,-588 611.9,-582 617.9,-576 623.9,-576 623.9,-576 742.9,-576 742.9,-576 748.9,-576 754.9,-582 754.9,-588 754.9,-588 754.9,-600 754.9,-600 754.9,-606 748.9,-612 742.9,-612"/>
<text text-anchor="middle" x="683.4" y="-597" font-family="sans" font-size="10.00">samtools_faidx_split</text>
<text text-anchor="middle" x="683.4" y="-586" font-family="sans" font-size="10.00">chromosome: Qrob_Chr02</text>
</g>
<!-- 36&#45;&gt;27 -->
<g id="edge55" class="edge">
<title>36&#45;&gt;27</title>
<path fill="none" stroke="grey" stroke-width="2" d="M651.35,-575.88C638.28,-567.05 624.58,-554.97 617.4,-540 610.49,-525.57 612.06,-519.08 617.4,-504 621.07,-493.68 627.69,-483.9 634.66,-475.61"/>
<polygon fill="grey" stroke="grey" stroke-width="2" points="637.28,-477.94 641.37,-468.16 632.07,-473.26 637.28,-477.94"/>
</g>
<!-- 36&#45;&gt;29 -->
<g id="edge65" class="edge">
<title>36&#45;&gt;29</title>
<path fill="none" stroke="grey" stroke-width="2" d="M754.93,-584.47C809.15,-576.36 877.19,-562.08 894.4,-540 909.54,-520.6 894.62,-494.56 878.88,-475.66"/>
<polygon fill="grey" stroke="grey" stroke-width="2" points="881.41,-473.24 872.17,-468.04 876.15,-477.86 881.41,-473.24"/>
</g>
<!-- 37 -->
<g id="node38" class="node">
<title>37</title>
<path fill="none" stroke="#5692d8" stroke-width="2" d="M682.9,-540C682.9,-540 637.9,-540 637.9,-540 631.9,-540 625.9,-534 625.9,-528 625.9,-528 625.9,-516 625.9,-516 625.9,-510 631.9,-504 637.9,-504 637.9,-504 682.9,-504 682.9,-504 688.9,-504 694.9,-510 694.9,-516 694.9,-516 694.9,-528 694.9,-528 694.9,-534 688.9,-540 682.9,-540"/>
<text text-anchor="middle" x="660.4" y="-519.5" font-family="sans" font-size="10.00">bwa_index</text>
</g>
<!-- 36&#45;&gt;37 -->
<g id="edge75" class="edge">
<title>36&#45;&gt;37</title>
<path fill="none" stroke="grey" stroke-width="2" d="M677.72,-575.7C675.16,-567.9 672.07,-558.51 669.22,-549.83"/>
<polygon fill="grey" stroke="grey" stroke-width="2" points="672.47,-548.51 666.02,-540.1 665.82,-550.7 672.47,-548.51"/>
</g>
<!-- 38 -->
<g id="node39" class="node">
<title>38</title>
<path fill="none" stroke="#56b1d8" stroke-width="2" d="M793.4,-540C793.4,-540 725.4,-540 725.4,-540 719.4,-540 713.4,-534 713.4,-528 713.4,-528 713.4,-516 713.4,-516 713.4,-510 719.4,-504 725.4,-504 725.4,-504 793.4,-504 793.4,-504 799.4,-504 805.4,-510 805.4,-516 805.4,-516 805.4,-528 805.4,-528 805.4,-534 799.4,-540 793.4,-540"/>
<text text-anchor="middle" x="759.4" y="-519.5" font-family="sans" font-size="10.00">samtools_faidx</text>
</g>
<!-- 36&#45;&gt;38 -->
<g id="edge76" class="edge">
<title>36&#45;&gt;38</title>
<path fill="none" stroke="grey" stroke-width="2" d="M702.19,-575.7C711.58,-567.05 723.09,-556.45 733.32,-547.03"/>
<polygon fill="grey" stroke="grey" stroke-width="2" points="735.85,-549.45 740.83,-540.1 731.11,-544.3 735.85,-549.45"/>
</g>
<!-- 39 -->
<g id="node40" class="node">
<title>39</title>
<path fill="none" stroke="#56d8a2" stroke-width="2" d="M873.4,-540C873.4,-540 835.4,-540 835.4,-540 829.4,-540 823.4,-534 823.4,-528 823.4,-528 823.4,-516 823.4,-516 823.4,-510 829.4,-504 835.4,-504 835.4,-504 873.4,-504 873.4,-504 879.4,-504 885.4,-510 885.4,-516 885.4,-516 885.4,-528 885.4,-528 885.4,-534 879.4,-540 873.4,-540"/>
<text text-anchor="middle" x="854.4" y="-519.5" font-family="sans" font-size="10.00">gatk_dict</text>
</g>
<!-- 36&#45;&gt;39 -->
<g id="edge77" class="edge">
<title>36&#45;&gt;39</title>
<path fill="none" stroke="grey" stroke-width="2" d="M726.26,-575.88C749.68,-566.48 779.41,-554.46 813.31,-540.43"/>
<polygon fill="grey" stroke="grey" stroke-width="2" points="815.09,-543.48 822.98,-536.41 812.41,-537.01 815.09,-543.48"/>
</g>
<!-- 37&#45;&gt;27 -->
<g id="edge57" class="edge">
<title>37&#45;&gt;27</title>
<path fill="none" stroke="grey" stroke-width="2" d="M660.4,-503.7C660.4,-495.98 660.4,-486.71 660.4,-478.11"/>
<polygon fill="grey" stroke="grey" stroke-width="2" points="663.9,-478.1 660.4,-468.1 656.9,-478.1 663.9,-478.1"/>
</g>
<!-- 37&#45;&gt;29 -->
<g id="edge67" class="edge">
<title>37&#45;&gt;29</title>
<path fill="none" stroke="grey" stroke-width="2" d="M694.96,-507.54C698.15,-506.33 701.33,-505.14 704.4,-504 740.01,-490.83 780.63,-476.53 810.61,-466.1"/>
<polygon fill="grey" stroke="grey" stroke-width="2" points="812.05,-469.3 820.35,-462.72 809.75,-462.69 812.05,-469.3"/>
</g>
<!-- 38&#45;&gt;27 -->
<g id="edge58" class="edge">
<title>38&#45;&gt;27</title>
<path fill="none" stroke="grey" stroke-width="2" d="M735.19,-503.88C722.48,-494.89 706.74,-483.76 692.98,-474.03"/>
<polygon fill="grey" stroke="grey" stroke-width="2" points="694.9,-471.11 684.72,-468.19 690.86,-476.82 694.9,-471.11"/>
</g>
<!-- 38&#45;&gt;29 -->
<g id="edge68" class="edge">
<title>38&#45;&gt;29</title>
<path fill="none" stroke="grey" stroke-width="2" d="M782.89,-503.7C794.97,-494.8 809.86,-483.82 822.92,-474.2"/>
<polygon fill="grey" stroke="grey" stroke-width="2" points="825.22,-476.85 831.19,-468.1 821.06,-471.22 825.22,-476.85"/>
</g>
<!-- 39&#45;&gt;27 -->
<g id="edge59" class="edge">
<title>39&#45;&gt;27</title>
<path fill="none" stroke="grey" stroke-width="2" d="M823.05,-507.43C820.14,-506.24 817.22,-505.08 814.4,-504 777.61,-489.87 735.22,-475.41 704.24,-465.17"/>
<polygon fill="grey" stroke="grey" stroke-width="2" points="705.19,-461.8 694.6,-462 703.01,-468.45 705.19,-461.8"/>
</g>
<!-- 39&#45;&gt;29 -->
<g id="edge69" class="edge">
<title>39&#45;&gt;29</title>
<path fill="none" stroke="grey" stroke-width="2" d="M854.4,-503.7C854.4,-495.98 854.4,-486.71 854.4,-478.11"/>
<polygon fill="grey" stroke="grey" stroke-width="2" points="857.9,-478.1 854.4,-468.1 850.9,-478.1 857.9,-478.1"/>
</g>
<!-- 40 -->
<g id="node41" class="node">
<title>40</title>
<path fill="none" stroke="#d85656" stroke-width="2" d="M493.4,-684C493.4,-684 437.4,-684 437.4,-684 431.4,-684 425.4,-678 425.4,-672 425.4,-672 425.4,-660 425.4,-660 425.4,-654 431.4,-648 437.4,-648 437.4,-648 493.4,-648 493.4,-648 499.4,-648 505.4,-654 505.4,-660 505.4,-660 505.4,-672 505.4,-672 505.4,-678 499.4,-684 493.4,-684"/>
<text text-anchor="middle" x="465.4" y="-663.5" font-family="sans" font-size="10.00">cp_reference</text>
</g>
<!-- 40&#45;&gt;32 -->
<g id="edge70" class="edge">
<title>40&#45;&gt;32</title>
<path fill="none" stroke="grey" stroke-width="2" d="M429.2,-647.88C409.15,-638.39 384.03,-626.51 362.69,-616.42"/>
<polygon fill="grey" stroke="grey" stroke-width="2" points="364.03,-613.18 353.49,-612.07 361.04,-619.51 364.03,-613.18"/>
</g>
<!-- 40&#45;&gt;36 -->
<g id="edge74" class="edge">
<title>40&#45;&gt;36</title>
<path fill="none" stroke="grey" stroke-width="2" d="M505.64,-652.08C537.83,-641.74 583.54,-627.07 620.54,-615.19"/>
<polygon fill="grey" stroke="grey" stroke-width="2" points="621.79,-618.46 630.24,-612.07 619.65,-611.8 621.79,-618.46"/>
</g>
</g>
</svg>
