<?xml version="1.0" encoding="UTF-8" standalone="no"?>
<!DOCTYPE svg PUBLIC "-//W3C//DTD SVG 1.1//EN"
 "http://www.w3.org/Graphics/SVG/1.1/DTD/svg11.dtd">
<!-- Generated by graphviz version 2.43.0 (0)
 -->
<!-- Title: snakemake_dag Pages: 1 -->
<svg width="1068pt" height="913pt"
 viewBox="0.00 0.00 1067.50 913.00" xmlns="http://www.w3.org/2000/svg" xmlns:xlink="http://www.w3.org/1999/xlink">
<g id="graph0" class="graph" transform="scale(1 1) rotate(0) translate(4 909)">
<title>snakemake_dag</title>
<polygon fill="white" stroke="transparent" points="-4,4 -4,-909 1063.5,-909 1063.5,4 -4,4"/>
<!-- 0 -->
<g id="node1" class="node">
<title>0</title>
<path fill="none" stroke="#d8bc56" stroke-width="2" d="M305.5,-36C305.5,-36 275.5,-36 275.5,-36 269.5,-36 263.5,-30 263.5,-24 263.5,-24 263.5,-12 263.5,-12 263.5,-6 269.5,0 275.5,0 275.5,0 305.5,0 305.5,0 311.5,0 317.5,-6 317.5,-12 317.5,-12 317.5,-24 317.5,-24 317.5,-30 311.5,-36 305.5,-36"/>
<text text-anchor="middle" x="290.5" y="-15.5" font-family="sans" font-size="10.00">all</text>
</g>
<!-- 1 -->
<g id="node2" class="node">
<title>1</title>
<path fill="none" stroke="#56d8b1" stroke-width="2" d="M261.5,-108C261.5,-108 231.5,-108 231.5,-108 225.5,-108 219.5,-102 219.5,-96 219.5,-96 219.5,-84 219.5,-84 219.5,-78 225.5,-72 231.5,-72 231.5,-72 261.5,-72 261.5,-72 267.5,-72 273.5,-78 273.5,-84 273.5,-84 273.5,-96 273.5,-96 273.5,-102 267.5,-108 261.5,-108"/>
<text text-anchor="middle" x="246.5" y="-87.5" font-family="sans" font-size="10.00">psl2pos</text>
</g>
<!-- 1&#45;&gt;0 -->
<g id="edge1" class="edge">
<title>1&#45;&gt;0</title>
<path fill="none" stroke="grey" stroke-width="2" d="M257.38,-71.7C262.49,-63.56 268.7,-53.69 274.34,-44.7"/>
<polygon fill="grey" stroke="grey" stroke-width="2" points="277.39,-46.43 279.75,-36.1 271.46,-42.71 277.39,-46.43"/>
</g>
<!-- 2 -->
<g id="node3" class="node">
<title>2</title>
<path fill="none" stroke="#78d856" stroke-width="2" d="M449,-108C449,-108 388,-108 388,-108 382,-108 376,-102 376,-96 376,-96 376,-84 376,-84 376,-78 382,-72 388,-72 388,-72 449,-72 449,-72 455,-72 461,-78 461,-84 461,-84 461,-96 461,-96 461,-102 455,-108 449,-108"/>
<text text-anchor="middle" x="418.5" y="-87.5" font-family="sans" font-size="10.00">strelkatsv2sql</text>
</g>
<!-- 2&#45;&gt;0 -->
<g id="edge2" class="edge">
<title>2&#45;&gt;0</title>
<path fill="none" stroke="grey" stroke-width="2" d="M387.19,-71.88C368.87,-61.86 345.67,-49.17 326.58,-38.73"/>
<polygon fill="grey" stroke="grey" stroke-width="2" points="328.04,-35.54 317.59,-33.81 324.68,-41.68 328.04,-35.54"/>
</g>
<!-- 3 -->
<g id="node4" class="node">
<title>3</title>
<path fill="none" stroke="#56d873" stroke-width="2" d="M166,-473C166,-473 133,-473 133,-473 127,-473 121,-467 121,-461 121,-461 121,-449 121,-449 121,-443 127,-437 133,-437 133,-437 166,-437 166,-437 172,-437 178,-443 178,-449 178,-449 178,-461 178,-461 178,-467 172,-473 166,-473"/>
<text text-anchor="middle" x="149.5" y="-452.5" font-family="sans" font-size="10.00">cp_napo</text>
</g>
<!-- 3&#45;&gt;1 -->
<g id="edge3" class="edge">
<title>3&#45;&gt;1</title>
<path fill="none" stroke="grey" stroke-width="2" d="M171.51,-436.88C200.13,-412.5 246.5,-364.84 246.5,-312 246.5,-312 246.5,-312 246.5,-235.5 246.5,-194.79 246.5,-147.63 246.5,-118.56"/>
<polygon fill="grey" stroke="grey" stroke-width="2" points="250,-118.35 246.5,-108.35 243,-118.35 250,-118.35"/>
</g>
<!-- 6 -->
<g id="node7" class="node">
<title>6</title>
<path fill="none" stroke="#56a9d8" stroke-width="2" d="M206.5,-254.5C206.5,-254.5 126.5,-254.5 126.5,-254.5 120.5,-254.5 114.5,-248.5 114.5,-242.5 114.5,-242.5 114.5,-230.5 114.5,-230.5 114.5,-224.5 120.5,-218.5 126.5,-218.5 126.5,-218.5 206.5,-218.5 206.5,-218.5 212.5,-218.5 218.5,-224.5 218.5,-230.5 218.5,-230.5 218.5,-242.5 218.5,-242.5 218.5,-248.5 212.5,-254.5 206.5,-254.5"/>
<text text-anchor="middle" x="166.5" y="-234" font-family="sans" font-size="10.00">bedtools_getfasta</text>
</g>
<!-- 3&#45;&gt;6 -->
<g id="edge8" class="edge">
<title>3&#45;&gt;6</title>
<path fill="none" stroke="grey" stroke-width="2" d="M152.98,-436.7C157.61,-412.67 165.57,-367.74 168.5,-329 169.71,-313.05 168.79,-309 168.5,-293 168.34,-283.95 168.02,-274.08 167.69,-265.2"/>
<polygon fill="grey" stroke="grey" stroke-width="2" points="171.18,-264.85 167.29,-254.99 164.19,-265.12 171.18,-264.85"/>
</g>
<!-- 8 -->
<g id="node9" class="node">
<title>8</title>
<path fill="none" stroke="#61d856" stroke-width="2" d="M147.5,-329C147.5,-329 57.5,-329 57.5,-329 51.5,-329 45.5,-323 45.5,-317 45.5,-317 45.5,-305 45.5,-305 45.5,-299 51.5,-293 57.5,-293 57.5,-293 147.5,-293 147.5,-293 153.5,-293 159.5,-299 159.5,-305 159.5,-305 159.5,-317 159.5,-317 159.5,-323 153.5,-329 147.5,-329"/>
<text text-anchor="middle" x="102.5" y="-308.5" font-family="sans" font-size="10.00">napomutations2bed</text>
</g>
<!-- 3&#45;&gt;8 -->
<g id="edge16" class="edge">
<title>3&#45;&gt;8</title>
<path fill="none" stroke="grey" stroke-width="2" d="M146.97,-436.91C143.97,-418.72 138.26,-389.28 129.5,-365 126.24,-355.97 121.79,-346.5 117.44,-338.11"/>
<polygon fill="grey" stroke="grey" stroke-width="2" points="120.45,-336.33 112.64,-329.17 114.29,-339.64 120.45,-336.33"/>
</g>
<!-- 15 -->
<g id="node16" class="node">
<title>15</title>
<path fill="none" stroke="#9fd856" stroke-width="2" d="M109,-401C109,-401 12,-401 12,-401 6,-401 0,-395 0,-389 0,-389 0,-377 0,-377 0,-371 6,-365 12,-365 12,-365 109,-365 109,-365 115,-365 121,-371 121,-377 121,-377 121,-389 121,-389 121,-395 115,-401 109,-401"/>
<text text-anchor="middle" x="60.5" y="-380.5" font-family="sans" font-size="10.00">samtools_faidx_napo</text>
</g>
<!-- 3&#45;&gt;15 -->
<g id="edge25" class="edge">
<title>3&#45;&gt;15</title>
<path fill="none" stroke="grey" stroke-width="2" d="M127.5,-436.7C116.29,-427.88 102.5,-417.03 90.35,-407.47"/>
<polygon fill="grey" stroke="grey" stroke-width="2" points="92.27,-404.54 82.25,-401.1 87.94,-410.04 92.27,-404.54"/>
</g>
<!-- 4 -->
<g id="node5" class="node">
<title>4</title>
<path fill="none" stroke="#56d0d8" stroke-width="2" d="M194.5,-180C194.5,-180 164.5,-180 164.5,-180 158.5,-180 152.5,-174 152.5,-168 152.5,-168 152.5,-156 152.5,-156 152.5,-150 158.5,-144 164.5,-144 164.5,-144 194.5,-144 194.5,-144 200.5,-144 206.5,-150 206.5,-156 206.5,-156 206.5,-168 206.5,-168 206.5,-174 200.5,-180 194.5,-180"/>
<text text-anchor="middle" x="179.5" y="-159.5" font-family="sans" font-size="10.00">blat</text>
</g>
<!-- 4&#45;&gt;1 -->
<g id="edge4" class="edge">
<title>4&#45;&gt;1</title>
<path fill="none" stroke="grey" stroke-width="2" d="M196.06,-143.7C204.18,-135.22 214.09,-124.86 222.97,-115.58"/>
<polygon fill="grey" stroke="grey" stroke-width="2" points="225.74,-117.75 230.13,-108.1 220.69,-112.91 225.74,-117.75"/>
</g>
<!-- 5 -->
<g id="node6" class="node">
<title>5</title>
<path fill="none" stroke="#566bd8" stroke-width="2" d="M588,-180C588,-180 541,-180 541,-180 535,-180 529,-174 529,-168 529,-168 529,-156 529,-156 529,-150 535,-144 541,-144 541,-144 588,-144 588,-144 594,-144 600,-150 600,-156 600,-156 600,-168 600,-168 600,-174 594,-180 588,-180"/>
<text text-anchor="middle" x="564.5" y="-159.5" font-family="sans" font-size="10.00">strelka2tsv</text>
</g>
<!-- 5&#45;&gt;2 -->
<g id="edge5" class="edge">
<title>5&#45;&gt;2</title>
<path fill="none" stroke="grey" stroke-width="2" d="M528.78,-143.88C509,-134.39 484.23,-122.51 463.17,-112.42"/>
<polygon fill="grey" stroke="grey" stroke-width="2" points="464.63,-109.24 454.1,-108.07 461.6,-115.55 464.63,-109.24"/>
</g>
<!-- 6&#45;&gt;4 -->
<g id="edge6" class="edge">
<title>6&#45;&gt;4</title>
<path fill="none" stroke="grey" stroke-width="2" d="M169.58,-218.32C171.09,-209.92 172.93,-199.62 174.63,-190.19"/>
<polygon fill="grey" stroke="grey" stroke-width="2" points="178.12,-190.52 176.44,-180.06 171.23,-189.28 178.12,-190.52"/>
</g>
<!-- 7 -->
<g id="node8" class="node">
<title>7</title>
<path fill="none" stroke="#d86e56" stroke-width="2" d="M677.5,-257C677.5,-257 619.5,-257 619.5,-257 613.5,-257 607.5,-251 607.5,-245 607.5,-245 607.5,-228 607.5,-228 607.5,-222 613.5,-216 619.5,-216 619.5,-216 677.5,-216 677.5,-216 683.5,-216 689.5,-222 689.5,-228 689.5,-228 689.5,-245 689.5,-245 689.5,-251 683.5,-257 677.5,-257"/>
<text text-anchor="middle" x="648.5" y="-245" font-family="sans" font-size="10.00">strelka2</text>
<text text-anchor="middle" x="648.5" y="-234" font-family="sans" font-size="10.00">normal: test2</text>
<text text-anchor="middle" x="648.5" y="-223" font-family="sans" font-size="10.00">tumor: test1</text>
</g>
<!-- 7&#45;&gt;5 -->
<g id="edge7" class="edge">
<title>7&#45;&gt;5</title>
<path fill="none" stroke="grey" stroke-width="2" d="M625.55,-215.69C615.15,-206.72 602.78,-196.04 591.9,-186.65"/>
<polygon fill="grey" stroke="grey" stroke-width="2" points="594.14,-183.96 584.29,-180.08 589.57,-189.26 594.14,-183.96"/>
</g>
<!-- 8&#45;&gt;6 -->
<g id="edge9" class="edge">
<title>8&#45;&gt;6</title>
<path fill="none" stroke="grey" stroke-width="2" d="M117.67,-292.82C125.72,-283.7 135.75,-272.33 144.63,-262.27"/>
<polygon fill="grey" stroke="grey" stroke-width="2" points="147.45,-264.37 151.44,-254.56 142.2,-259.74 147.45,-264.37"/>
</g>
<!-- 9 -->
<g id="node10" class="node">
<title>9</title>
<path fill="none" stroke="#5682d8" stroke-width="2" d="M682,-905C682,-905 563,-905 563,-905 557,-905 551,-899 551,-893 551,-893 551,-881 551,-881 551,-875 557,-869 563,-869 563,-869 682,-869 682,-869 688,-869 694,-875 694,-881 694,-881 694,-893 694,-893 694,-899 688,-905 682,-905"/>
<text text-anchor="middle" x="622.5" y="-890" font-family="sans" font-size="10.00">samtools_faidx_split</text>
<text text-anchor="middle" x="622.5" y="-879" font-family="sans" font-size="10.00">chromosome: Qrob_Chr01</text>
</g>
<!-- 9&#45;&gt;7 -->
<g id="edge10" class="edge">
<title>9&#45;&gt;7</title>
<path fill="none" stroke="grey" stroke-width="2" d="M676.24,-868.96C695.88,-860.62 717.05,-848.87 732.5,-833 762.75,-801.93 772.5,-787.37 772.5,-744 772.5,-744 772.5,-744 772.5,-382 772.5,-330.43 726.46,-288.06 690.48,-262.82"/>
<polygon fill="grey" stroke="grey" stroke-width="2" points="692.29,-259.81 682.06,-257.08 688.35,-265.6 692.29,-259.81"/>
</g>
<!-- 10 -->
<g id="node11" class="node">
<title>10</title>
<path fill="none" stroke="#d8d356" stroke-width="2" d="M481,-401C481,-401 394,-401 394,-401 388,-401 382,-395 382,-389 382,-389 382,-377 382,-377 382,-371 388,-365 394,-365 394,-365 481,-365 481,-365 487,-365 493,-371 493,-377 493,-377 493,-389 493,-389 493,-395 487,-401 481,-401"/>
<text text-anchor="middle" x="437.5" y="-380.5" font-family="sans" font-size="10.00">samtools_view_md</text>
</g>
<!-- 9&#45;&gt;10 -->
<g id="edge19" class="edge">
<title>9&#45;&gt;10</title>
<path fill="none" stroke="grey" stroke-width="2" d="M550.87,-886C449.54,-884.46 271.5,-875.56 225.5,-833 195.81,-805.53 206.5,-784.45 206.5,-744 206.5,-744 206.5,-744 206.5,-526 206.5,-447.82 303.72,-411.31 372.02,-395.31"/>
<polygon fill="grey" stroke="grey" stroke-width="2" points="372.89,-398.71 381.88,-393.1 371.35,-391.88 372.89,-398.71"/>
</g>
<!-- 11 -->
<g id="node12" class="node">
<title>11</title>
<path fill="none" stroke="#d8d356" stroke-width="2" d="M989,-401C989,-401 902,-401 902,-401 896,-401 890,-395 890,-389 890,-389 890,-377 890,-377 890,-371 896,-365 902,-365 902,-365 989,-365 989,-365 995,-365 1001,-371 1001,-377 1001,-377 1001,-389 1001,-389 1001,-395 995,-401 989,-401"/>
<text text-anchor="middle" x="945.5" y="-380.5" font-family="sans" font-size="10.00">samtools_view_md</text>
</g>
<!-- 9&#45;&gt;11 -->
<g id="edge21" class="edge">
<title>9&#45;&gt;11</title>
<path fill="none" stroke="grey" stroke-width="2" d="M694.05,-878.52C775.34,-869.29 902.42,-852.4 946.5,-833 1005.01,-807.25 1059.5,-807.93 1059.5,-744 1059.5,-744 1059.5,-744 1059.5,-526 1059.5,-475 1014.23,-431.88 980.74,-406.97"/>
<polygon fill="grey" stroke="grey" stroke-width="2" points="982.67,-404.05 972.52,-401.04 978.58,-409.73 982.67,-404.05"/>
</g>
<!-- 14 -->
<g id="node15" class="node">
<title>14</title>
<path fill="none" stroke="#5692d8" stroke-width="2" d="M694,-833C694,-833 649,-833 649,-833 643,-833 637,-827 637,-821 637,-821 637,-809 637,-809 637,-803 643,-797 649,-797 649,-797 694,-797 694,-797 700,-797 706,-803 706,-809 706,-809 706,-821 706,-821 706,-827 700,-833 694,-833"/>
<text text-anchor="middle" x="671.5" y="-812.5" font-family="sans" font-size="10.00">bwa_index</text>
</g>
<!-- 9&#45;&gt;14 -->
<g id="edge24" class="edge">
<title>9&#45;&gt;14</title>
<path fill="none" stroke="grey" stroke-width="2" d="M634.61,-868.7C640.37,-860.47 647.36,-850.48 653.71,-841.42"/>
<polygon fill="grey" stroke="grey" stroke-width="2" points="656.66,-843.3 659.53,-833.1 650.92,-839.29 656.66,-843.3"/>
</g>
<!-- 16 -->
<g id="node17" class="node">
<title>16</title>
<path fill="none" stroke="#56d8a2" stroke-width="2" d="M478,-473C478,-473 383,-473 383,-473 377,-473 371,-467 371,-461 371,-461 371,-449 371,-449 371,-443 377,-437 383,-437 383,-437 478,-437 478,-437 484,-437 490,-443 490,-449 490,-449 490,-461 490,-461 490,-467 484,-473 478,-473"/>
<text text-anchor="middle" x="430.5" y="-452.5" font-family="sans" font-size="10.00">gatk_markduplicates</text>
</g>
<!-- 9&#45;&gt;16 -->
<g id="edge27" class="edge">
<title>9&#45;&gt;16</title>
<path fill="none" stroke="grey" stroke-width="2" d="M550.76,-880.31C467.8,-869.34 342.5,-837.34 342.5,-744 342.5,-744 342.5,-744 342.5,-598 342.5,-551.01 377.74,-506.63 403.62,-480.37"/>
<polygon fill="grey" stroke="grey" stroke-width="2" points="406.3,-482.65 410.97,-473.14 401.39,-477.66 406.3,-482.65"/>
</g>
<!-- 17 -->
<g id="node18" class="node">
<title>17</title>
<path fill="none" stroke="#56d8a2" stroke-width="2" d="M993,-473C993,-473 898,-473 898,-473 892,-473 886,-467 886,-461 886,-461 886,-449 886,-449 886,-443 892,-437 898,-437 898,-437 993,-437 993,-437 999,-437 1005,-443 1005,-449 1005,-449 1005,-461 1005,-461 1005,-467 999,-473 993,-473"/>
<text text-anchor="middle" x="945.5" y="-452.5" font-family="sans" font-size="10.00">gatk_markduplicates</text>
</g>
<!-- 9&#45;&gt;17 -->
<g id="edge30" class="edge">
<title>9&#45;&gt;17</title>
<path fill="none" stroke="grey" stroke-width="2" d="M694.01,-876.52C768.79,-865.88 877.05,-848.12 889.5,-833 900.94,-819.11 883.43,-525.55 890.5,-509 895.25,-497.87 903.61,-487.94 912.39,-479.77"/>
<polygon fill="grey" stroke="grey" stroke-width="2" points="914.87,-482.25 920.14,-473.05 910.29,-476.96 914.87,-482.25"/>
</g>
<!-- 22 -->
<g id="node23" class="node">
<title>22</title>
<path fill="none" stroke="#d8ac56" stroke-width="2" d="M494.5,-689C494.5,-689 428.5,-689 428.5,-689 422.5,-689 416.5,-683 416.5,-677 416.5,-677 416.5,-665 416.5,-665 416.5,-659 422.5,-653 428.5,-653 428.5,-653 494.5,-653 494.5,-653 500.5,-653 506.5,-659 506.5,-665 506.5,-665 506.5,-677 506.5,-677 506.5,-683 500.5,-689 494.5,-689"/>
<text text-anchor="middle" x="461.5" y="-668.5" font-family="sans" font-size="10.00">samtools_view</text>
</g>
<!-- 9&#45;&gt;22 -->
<g id="edge37" class="edge">
<title>9&#45;&gt;22</title>
<path fill="none" stroke="grey" stroke-width="2" d="M550.86,-875.88C501.39,-867.25 441.85,-853.05 426.5,-833 419.62,-824.02 420.4,-755.23 429.5,-725 432.37,-715.48 437.34,-705.91 442.53,-697.58"/>
<polygon fill="grey" stroke="grey" stroke-width="2" points="445.55,-699.36 448.15,-689.09 439.71,-695.5 445.55,-699.36"/>
</g>
<!-- 23 -->
<g id="node24" class="node">
<title>23</title>
<path fill="none" stroke="#d8ac56" stroke-width="2" d="M979.5,-689C979.5,-689 913.5,-689 913.5,-689 907.5,-689 901.5,-683 901.5,-677 901.5,-677 901.5,-665 901.5,-665 901.5,-659 907.5,-653 913.5,-653 913.5,-653 979.5,-653 979.5,-653 985.5,-653 991.5,-659 991.5,-665 991.5,-665 991.5,-677 991.5,-677 991.5,-683 985.5,-689 979.5,-689"/>
<text text-anchor="middle" x="946.5" y="-668.5" font-family="sans" font-size="10.00">samtools_view</text>
</g>
<!-- 9&#45;&gt;23 -->
<g id="edge39" class="edge">
<title>9&#45;&gt;23</title>
<path fill="none" stroke="grey" stroke-width="2" d="M694.17,-877.75C777.8,-867.46 906.71,-849.23 922.5,-833 957.07,-797.49 955.54,-735.08 951.15,-699.29"/>
<polygon fill="grey" stroke="grey" stroke-width="2" points="954.57,-698.52 949.73,-689.1 947.64,-699.48 954.57,-698.52"/>
</g>
<!-- 24 -->
<g id="node25" class="node">
<title>24</title>
<path fill="none" stroke="#56c1d8" stroke-width="2" d="M494.5,-761C494.5,-761 450.5,-761 450.5,-761 444.5,-761 438.5,-755 438.5,-749 438.5,-749 438.5,-737 438.5,-737 438.5,-731 444.5,-725 450.5,-725 450.5,-725 494.5,-725 494.5,-725 500.5,-725 506.5,-731 506.5,-737 506.5,-737 506.5,-749 506.5,-749 506.5,-755 500.5,-761 494.5,-761"/>
<text text-anchor="middle" x="472.5" y="-740.5" font-family="sans" font-size="10.00">bwa_mem</text>
</g>
<!-- 9&#45;&gt;24 -->
<g id="edge40" class="edge">
<title>9&#45;&gt;24</title>
<path fill="none" stroke="grey" stroke-width="2" d="M550.65,-874.53C504.82,-865.57 451.48,-851.54 437.5,-833 423.05,-813.83 436.09,-787.92 450.18,-769"/>
<polygon fill="grey" stroke="grey" stroke-width="2" points="452.96,-771.12 456.41,-761.1 447.47,-766.78 452.96,-771.12"/>
</g>
<!-- 25 -->
<g id="node26" class="node">
<title>25</title>
<path fill="none" stroke="#56c1d8" stroke-width="2" d="M732.5,-761C732.5,-761 688.5,-761 688.5,-761 682.5,-761 676.5,-755 676.5,-749 676.5,-749 676.5,-737 676.5,-737 676.5,-731 682.5,-725 688.5,-725 688.5,-725 732.5,-725 732.5,-725 738.5,-725 744.5,-731 744.5,-737 744.5,-737 744.5,-749 744.5,-749 744.5,-755 738.5,-761 732.5,-761"/>
<text text-anchor="middle" x="710.5" y="-740.5" font-family="sans" font-size="10.00">bwa_mem</text>
</g>
<!-- 9&#45;&gt;25 -->
<g id="edge45" class="edge">
<title>9&#45;&gt;25</title>
<path fill="none" stroke="grey" stroke-width="2" d="M673.61,-868.84C689.93,-860.67 706.16,-849.07 715.5,-833 726.39,-814.26 723.87,-789.38 719.35,-770.7"/>
<polygon fill="grey" stroke="grey" stroke-width="2" points="722.72,-769.75 716.71,-761.03 715.97,-771.6 722.72,-769.75"/>
</g>
<!-- 27 -->
<g id="node28" class="node">
<title>27</title>
<path fill="none" stroke="#56d88a" stroke-width="2" d="M606.5,-833C606.5,-833 538.5,-833 538.5,-833 532.5,-833 526.5,-827 526.5,-821 526.5,-821 526.5,-809 526.5,-809 526.5,-803 532.5,-797 538.5,-797 538.5,-797 606.5,-797 606.5,-797 612.5,-797 618.5,-803 618.5,-809 618.5,-809 618.5,-821 618.5,-821 618.5,-827 612.5,-833 606.5,-833"/>
<text text-anchor="middle" x="572.5" y="-812.5" font-family="sans" font-size="10.00">samtools_faidx</text>
</g>
<!-- 9&#45;&gt;27 -->
<g id="edge51" class="edge">
<title>9&#45;&gt;27</title>
<path fill="none" stroke="grey" stroke-width="2" d="M610.14,-868.7C604.27,-860.47 597.13,-850.48 590.66,-841.42"/>
<polygon fill="grey" stroke="grey" stroke-width="2" points="593.38,-839.21 584.72,-833.1 587.68,-843.28 593.38,-839.21"/>
</g>
<!-- 28 -->
<g id="node29" class="node">
<title>28</title>
<path fill="none" stroke="#56d863" stroke-width="2" d="M496.5,-833C496.5,-833 458.5,-833 458.5,-833 452.5,-833 446.5,-827 446.5,-821 446.5,-821 446.5,-809 446.5,-809 446.5,-803 452.5,-797 458.5,-797 458.5,-797 496.5,-797 496.5,-797 502.5,-797 508.5,-803 508.5,-809 508.5,-809 508.5,-821 508.5,-821 508.5,-827 502.5,-833 496.5,-833"/>
<text text-anchor="middle" x="477.5" y="-812.5" font-family="sans" font-size="10.00">gatk_dict</text>
</g>
<!-- 9&#45;&gt;28 -->
<g id="edge52" class="edge">
<title>9&#45;&gt;28</title>
<path fill="none" stroke="grey" stroke-width="2" d="M587.03,-868.88C566.14,-858.79 539.65,-846 517.95,-835.53"/>
<polygon fill="grey" stroke="grey" stroke-width="2" points="519.19,-832.24 508.67,-831.05 516.15,-838.55 519.19,-832.24"/>
</g>
<!-- 10&#45;&gt;7 -->
<g id="edge11" class="edge">
<title>10&#45;&gt;7</title>
<path fill="none" stroke="grey" stroke-width="2" d="M463.18,-364.91C478.67,-354.58 498.76,-341.1 516.5,-329 549.03,-306.81 585.84,-281.26 612.31,-262.81"/>
<polygon fill="grey" stroke="grey" stroke-width="2" points="614.32,-265.67 620.52,-257.08 610.31,-259.93 614.32,-265.67"/>
</g>
<!-- 12 -->
<g id="node13" class="node">
<title>12</title>
<path fill="none" stroke="#d89556" stroke-width="2" d="M495,-329C495,-329 404,-329 404,-329 398,-329 392,-323 392,-317 392,-317 392,-305 392,-305 392,-299 398,-293 404,-293 404,-293 495,-293 495,-293 501,-293 507,-299 507,-305 507,-305 507,-317 507,-317 507,-323 501,-329 495,-329"/>
<text text-anchor="middle" x="449.5" y="-308.5" font-family="sans" font-size="10.00">samtools_index_md</text>
</g>
<!-- 10&#45;&gt;12 -->
<g id="edge22" class="edge">
<title>10&#45;&gt;12</title>
<path fill="none" stroke="grey" stroke-width="2" d="M440.47,-364.7C441.79,-356.98 443.38,-347.71 444.85,-339.11"/>
<polygon fill="grey" stroke="grey" stroke-width="2" points="448.33,-339.55 446.57,-329.1 441.43,-338.37 448.33,-339.55"/>
</g>
<!-- 11&#45;&gt;7 -->
<g id="edge12" class="edge">
<title>11&#45;&gt;7</title>
<path fill="none" stroke="grey" stroke-width="2" d="M946.99,-364.65C947.7,-344.53 945.51,-311.75 926.5,-293 895.07,-261.99 771.14,-247.18 699.8,-241.1"/>
<polygon fill="grey" stroke="grey" stroke-width="2" points="699.93,-237.6 689.68,-240.27 699.36,-244.58 699.93,-237.6"/>
</g>
<!-- 13 -->
<g id="node14" class="node">
<title>13</title>
<path fill="none" stroke="#d89556" stroke-width="2" d="M905,-329C905,-329 814,-329 814,-329 808,-329 802,-323 802,-317 802,-317 802,-305 802,-305 802,-299 808,-293 814,-293 814,-293 905,-293 905,-293 911,-293 917,-299 917,-305 917,-305 917,-317 917,-317 917,-323 911,-329 905,-329"/>
<text text-anchor="middle" x="859.5" y="-308.5" font-family="sans" font-size="10.00">samtools_index_md</text>
</g>
<!-- 11&#45;&gt;13 -->
<g id="edge23" class="edge">
<title>11&#45;&gt;13</title>
<path fill="none" stroke="grey" stroke-width="2" d="M924.24,-364.7C913.41,-355.88 900.08,-345.03 888.34,-335.47"/>
<polygon fill="grey" stroke="grey" stroke-width="2" points="890.48,-332.7 880.51,-329.1 886.06,-338.13 890.48,-332.7"/>
</g>
<!-- 12&#45;&gt;7 -->
<g id="edge13" class="edge">
<title>12&#45;&gt;7</title>
<path fill="none" stroke="grey" stroke-width="2" d="M496.41,-292.91C526.79,-281.84 566.35,-267.43 597.51,-256.08"/>
<polygon fill="grey" stroke="grey" stroke-width="2" points="599.11,-259.22 607.31,-252.51 596.71,-252.64 599.11,-259.22"/>
</g>
<!-- 13&#45;&gt;7 -->
<g id="edge14" class="edge">
<title>13&#45;&gt;7</title>
<path fill="none" stroke="grey" stroke-width="2" d="M809.76,-292.91C776.5,-281.48 732.85,-266.48 699.35,-254.97"/>
<polygon fill="grey" stroke="grey" stroke-width="2" points="700.34,-251.61 689.75,-251.67 698.07,-258.23 700.34,-251.61"/>
</g>
<!-- 14&#45;&gt;7 -->
<g id="edge15" class="edge">
<title>14&#45;&gt;7</title>
<path fill="none" stroke="grey" stroke-width="2" d="M666.85,-796.66C660.12,-770.05 648.5,-717.45 648.5,-672 648.5,-672 648.5,-672 648.5,-382 648.5,-342.4 648.5,-296.7 648.5,-267.48"/>
<polygon fill="grey" stroke="grey" stroke-width="2" points="652,-267.13 648.5,-257.13 645,-267.13 652,-267.13"/>
</g>
<!-- 14&#45;&gt;24 -->
<g id="edge42" class="edge">
<title>14&#45;&gt;24</title>
<path fill="none" stroke="grey" stroke-width="2" d="M636.96,-800.51C633.77,-799.31 630.58,-798.12 627.5,-797 590.24,-783.44 547.6,-768.93 516.48,-758.53"/>
<polygon fill="grey" stroke="grey" stroke-width="2" points="517.4,-755.14 506.8,-755.3 515.18,-761.78 517.4,-755.14"/>
</g>
<!-- 14&#45;&gt;25 -->
<g id="edge47" class="edge">
<title>14&#45;&gt;25</title>
<path fill="none" stroke="grey" stroke-width="2" d="M681.14,-796.7C685.63,-788.64 691.06,-778.89 696.02,-769.98"/>
<polygon fill="grey" stroke="grey" stroke-width="2" points="699.16,-771.54 700.97,-761.1 693.05,-768.14 699.16,-771.54"/>
</g>
<!-- 15&#45;&gt;8 -->
<g id="edge17" class="edge">
<title>15&#45;&gt;8</title>
<path fill="none" stroke="grey" stroke-width="2" d="M70.88,-364.7C75.76,-356.56 81.69,-346.69 87.08,-337.7"/>
<polygon fill="grey" stroke="grey" stroke-width="2" points="90.09,-339.48 92.24,-329.1 84.09,-335.88 90.09,-339.48"/>
</g>
<!-- 16&#45;&gt;10 -->
<g id="edge18" class="edge">
<title>16&#45;&gt;10</title>
<path fill="none" stroke="grey" stroke-width="2" d="M432.23,-436.7C433,-428.98 433.93,-419.71 434.79,-411.11"/>
<polygon fill="grey" stroke="grey" stroke-width="2" points="438.28,-411.4 435.79,-401.1 431.31,-410.71 438.28,-411.4"/>
</g>
<!-- 17&#45;&gt;11 -->
<g id="edge20" class="edge">
<title>17&#45;&gt;11</title>
<path fill="none" stroke="grey" stroke-width="2" d="M945.5,-436.7C945.5,-428.98 945.5,-419.71 945.5,-411.11"/>
<polygon fill="grey" stroke="grey" stroke-width="2" points="949,-411.1 945.5,-401.1 942,-411.1 949,-411.1"/>
</g>
<!-- 18 -->
<g id="node19" class="node">
<title>18</title>
<path fill="none" stroke="#d85656" stroke-width="2" d="M492.5,-617C492.5,-617 430.5,-617 430.5,-617 424.5,-617 418.5,-611 418.5,-605 418.5,-605 418.5,-593 418.5,-593 418.5,-587 424.5,-581 430.5,-581 430.5,-581 492.5,-581 492.5,-581 498.5,-581 504.5,-587 504.5,-593 504.5,-593 504.5,-605 504.5,-605 504.5,-611 498.5,-617 492.5,-617"/>
<text text-anchor="middle" x="461.5" y="-596.5" font-family="sans" font-size="10.00">samtools_sort</text>
</g>
<!-- 18&#45;&gt;16 -->
<g id="edge26" class="edge">
<title>18&#45;&gt;16</title>
<path fill="none" stroke="grey" stroke-width="2" d="M438.9,-580.96C428.44,-571.63 417.1,-559.11 411.5,-545 403.48,-524.81 409.56,-500.62 416.91,-482.56"/>
<polygon fill="grey" stroke="grey" stroke-width="2" points="420.19,-483.79 421.03,-473.23 413.79,-480.96 420.19,-483.79"/>
</g>
<!-- 19 -->
<g id="node20" class="node">
<title>19</title>
<path fill="none" stroke="#b6d856" stroke-width="2" d="M502.5,-545C502.5,-545 432.5,-545 432.5,-545 426.5,-545 420.5,-539 420.5,-533 420.5,-533 420.5,-521 420.5,-521 420.5,-515 426.5,-509 432.5,-509 432.5,-509 502.5,-509 502.5,-509 508.5,-509 514.5,-515 514.5,-521 514.5,-521 514.5,-533 514.5,-533 514.5,-539 508.5,-545 502.5,-545"/>
<text text-anchor="middle" x="467.5" y="-524.5" font-family="sans" font-size="10.00">samtools_index</text>
</g>
<!-- 18&#45;&gt;19 -->
<g id="edge33" class="edge">
<title>18&#45;&gt;19</title>
<path fill="none" stroke="grey" stroke-width="2" d="M462.98,-580.7C463.64,-572.98 464.44,-563.71 465.18,-555.11"/>
<polygon fill="grey" stroke="grey" stroke-width="2" points="468.67,-555.37 466.03,-545.1 461.69,-554.77 468.67,-555.37"/>
</g>
<!-- 19&#45;&gt;16 -->
<g id="edge28" class="edge">
<title>19&#45;&gt;16</title>
<path fill="none" stroke="grey" stroke-width="2" d="M458.35,-508.7C454.1,-500.64 448.94,-490.89 444.23,-481.98"/>
<polygon fill="grey" stroke="grey" stroke-width="2" points="447.31,-480.31 439.54,-473.1 441.12,-483.58 447.31,-480.31"/>
</g>
<!-- 20 -->
<g id="node21" class="node">
<title>20</title>
<path fill="none" stroke="#d85656" stroke-width="2" d="M977.5,-617C977.5,-617 915.5,-617 915.5,-617 909.5,-617 903.5,-611 903.5,-605 903.5,-605 903.5,-593 903.5,-593 903.5,-587 909.5,-581 915.5,-581 915.5,-581 977.5,-581 977.5,-581 983.5,-581 989.5,-587 989.5,-593 989.5,-593 989.5,-605 989.5,-605 989.5,-611 983.5,-617 977.5,-617"/>
<text text-anchor="middle" x="946.5" y="-596.5" font-family="sans" font-size="10.00">samtools_sort</text>
</g>
<!-- 20&#45;&gt;17 -->
<g id="edge29" class="edge">
<title>20&#45;&gt;17</title>
<path fill="none" stroke="grey" stroke-width="2" d="M972.62,-580.82C984.08,-571.69 996.31,-559.39 1002.5,-545 1008.83,-530.3 1008.89,-523.67 1002.5,-509 997.57,-497.68 988.89,-487.68 979.77,-479.51"/>
<polygon fill="grey" stroke="grey" stroke-width="2" points="982,-476.81 972.08,-473.09 977.51,-482.19 982,-476.81"/>
</g>
<!-- 21 -->
<g id="node22" class="node">
<title>21</title>
<path fill="none" stroke="#b6d856" stroke-width="2" d="M981.5,-545C981.5,-545 911.5,-545 911.5,-545 905.5,-545 899.5,-539 899.5,-533 899.5,-533 899.5,-521 899.5,-521 899.5,-515 905.5,-509 911.5,-509 911.5,-509 981.5,-509 981.5,-509 987.5,-509 993.5,-515 993.5,-521 993.5,-521 993.5,-533 993.5,-533 993.5,-539 987.5,-545 981.5,-545"/>
<text text-anchor="middle" x="946.5" y="-524.5" font-family="sans" font-size="10.00">samtools_index</text>
</g>
<!-- 20&#45;&gt;21 -->
<g id="edge35" class="edge">
<title>20&#45;&gt;21</title>
<path fill="none" stroke="grey" stroke-width="2" d="M946.5,-580.7C946.5,-572.98 946.5,-563.71 946.5,-555.11"/>
<polygon fill="grey" stroke="grey" stroke-width="2" points="950,-555.1 946.5,-545.1 943,-555.1 950,-555.1"/>
</g>
<!-- 21&#45;&gt;17 -->
<g id="edge31" class="edge">
<title>21&#45;&gt;17</title>
<path fill="none" stroke="grey" stroke-width="2" d="M946.25,-508.7C946.14,-500.98 946.01,-491.71 945.89,-483.11"/>
<polygon fill="grey" stroke="grey" stroke-width="2" points="949.39,-483.05 945.74,-473.1 942.39,-483.15 949.39,-483.05"/>
</g>
<!-- 22&#45;&gt;18 -->
<g id="edge32" class="edge">
<title>22&#45;&gt;18</title>
<path fill="none" stroke="grey" stroke-width="2" d="M461.5,-652.7C461.5,-644.98 461.5,-635.71 461.5,-627.11"/>
<polygon fill="grey" stroke="grey" stroke-width="2" points="465,-627.1 461.5,-617.1 458,-627.1 465,-627.1"/>
</g>
<!-- 23&#45;&gt;20 -->
<g id="edge34" class="edge">
<title>23&#45;&gt;20</title>
<path fill="none" stroke="grey" stroke-width="2" d="M946.5,-652.7C946.5,-644.98 946.5,-635.71 946.5,-627.11"/>
<polygon fill="grey" stroke="grey" stroke-width="2" points="950,-627.1 946.5,-617.1 943,-627.1 950,-627.1"/>
</g>
<!-- 24&#45;&gt;22 -->
<g id="edge36" class="edge">
<title>24&#45;&gt;22</title>
<path fill="none" stroke="grey" stroke-width="2" d="M469.78,-724.7C468.57,-716.98 467.11,-707.71 465.76,-699.11"/>
<polygon fill="grey" stroke="grey" stroke-width="2" points="469.2,-698.44 464.19,-689.1 462.28,-699.53 469.2,-698.44"/>
</g>
<!-- 25&#45;&gt;23 -->
<g id="edge38" class="edge">
<title>25&#45;&gt;23</title>
<path fill="none" stroke="grey" stroke-width="2" d="M744.56,-731.9C782.98,-720.5 845.99,-701.81 891.42,-688.34"/>
<polygon fill="grey" stroke="grey" stroke-width="2" points="892.53,-691.66 901.12,-685.46 890.54,-684.95 892.53,-691.66"/>
</g>
<!-- 26 -->
<g id="node27" class="node">
<title>26</title>
<path fill="none" stroke="#d87d56" stroke-width="2" d="M302.5,-833C302.5,-833 246.5,-833 246.5,-833 240.5,-833 234.5,-827 234.5,-821 234.5,-821 234.5,-809 234.5,-809 234.5,-803 240.5,-797 246.5,-797 246.5,-797 302.5,-797 302.5,-797 308.5,-797 314.5,-803 314.5,-809 314.5,-809 314.5,-821 314.5,-821 314.5,-827 308.5,-833 302.5,-833"/>
<text text-anchor="middle" x="274.5" y="-812.5" font-family="sans" font-size="10.00">trimmomatic</text>
</g>
<!-- 26&#45;&gt;24 -->
<g id="edge41" class="edge">
<title>26&#45;&gt;24</title>
<path fill="none" stroke="grey" stroke-width="2" d="M314.57,-799.83C347.69,-788.13 394.64,-771.53 428.73,-759.47"/>
<polygon fill="grey" stroke="grey" stroke-width="2" points="430.17,-762.68 438.43,-756.05 427.83,-756.08 430.17,-762.68"/>
</g>
<!-- 27&#45;&gt;24 -->
<g id="edge43" class="edge">
<title>27&#45;&gt;24</title>
<path fill="none" stroke="grey" stroke-width="2" d="M548.04,-796.88C535.2,-787.89 519.3,-776.76 505.41,-767.03"/>
<polygon fill="grey" stroke="grey" stroke-width="2" points="507.26,-764.06 497.06,-761.19 503.24,-769.79 507.26,-764.06"/>
</g>
<!-- 27&#45;&gt;25 -->
<g id="edge48" class="edge">
<title>27&#45;&gt;25</title>
<path fill="none" stroke="grey" stroke-width="2" d="M606.26,-796.88C624.72,-787.51 647.78,-775.81 667.52,-765.8"/>
<polygon fill="grey" stroke="grey" stroke-width="2" points="669.28,-768.83 676.61,-761.19 666.11,-762.59 669.28,-768.83"/>
</g>
<!-- 28&#45;&gt;24 -->
<g id="edge44" class="edge">
<title>28&#45;&gt;24</title>
<path fill="none" stroke="grey" stroke-width="2" d="M476.26,-796.7C475.71,-788.98 475.05,-779.71 474.44,-771.11"/>
<polygon fill="grey" stroke="grey" stroke-width="2" points="477.93,-770.83 473.72,-761.1 470.94,-771.33 477.93,-770.83"/>
</g>
<!-- 28&#45;&gt;25 -->
<g id="edge49" class="edge">
<title>28&#45;&gt;25</title>
<path fill="none" stroke="grey" stroke-width="2" d="M508.79,-800.23C511.71,-799.09 514.65,-797.99 517.5,-797 567.76,-779.51 626.97,-763.97 666.42,-754.32"/>
<polygon fill="grey" stroke="grey" stroke-width="2" points="667.37,-757.69 676.26,-751.93 665.72,-750.89 667.37,-757.69"/>
</g>
<!-- 29 -->
<g id="node30" class="node">
<title>29</title>
<path fill="none" stroke="#d87d56" stroke-width="2" d="M868.5,-833C868.5,-833 812.5,-833 812.5,-833 806.5,-833 800.5,-827 800.5,-821 800.5,-821 800.5,-809 800.5,-809 800.5,-803 806.5,-797 812.5,-797 812.5,-797 868.5,-797 868.5,-797 874.5,-797 880.5,-803 880.5,-809 880.5,-809 880.5,-821 880.5,-821 880.5,-827 874.5,-833 868.5,-833"/>
<text text-anchor="middle" x="840.5" y="-812.5" font-family="sans" font-size="10.00">trimmomatic</text>
</g>
<!-- 29&#45;&gt;25 -->
<g id="edge46" class="edge">
<title>29&#45;&gt;25</title>
<path fill="none" stroke="grey" stroke-width="2" d="M808.7,-796.88C791.39,-787.55 769.78,-775.92 751.24,-765.94"/>
<polygon fill="grey" stroke="grey" stroke-width="2" points="752.89,-762.85 742.42,-761.19 749.57,-769.01 752.89,-762.85"/>
</g>
<!-- 30 -->
<g id="node31" class="node">
<title>30</title>
<path fill="none" stroke="#56d8c9" stroke-width="2" d="M301.5,-905C301.5,-905 247.5,-905 247.5,-905 241.5,-905 235.5,-899 235.5,-893 235.5,-893 235.5,-881 235.5,-881 235.5,-875 241.5,-869 247.5,-869 247.5,-869 301.5,-869 301.5,-869 307.5,-869 313.5,-875 313.5,-881 313.5,-881 313.5,-893 313.5,-893 313.5,-899 307.5,-905 301.5,-905"/>
<text text-anchor="middle" x="274.5" y="-890" font-family="sans" font-size="10.00">cp_reads</text>
<text text-anchor="middle" x="274.5" y="-879" font-family="sans" font-size="10.00">library: test1</text>
</g>
<!-- 30&#45;&gt;26 -->
<g id="edge50" class="edge">
<title>30&#45;&gt;26</title>
<path fill="none" stroke="grey" stroke-width="2" d="M274.5,-868.7C274.5,-860.98 274.5,-851.71 274.5,-843.11"/>
<polygon fill="grey" stroke="grey" stroke-width="2" points="278,-843.1 274.5,-833.1 271,-843.1 278,-843.1"/>
</g>
<!-- 31 -->
<g id="node32" class="node">
<title>31</title>
<path fill="none" stroke="#56d8c9" stroke-width="2" d="M867.5,-905C867.5,-905 813.5,-905 813.5,-905 807.5,-905 801.5,-899 801.5,-893 801.5,-893 801.5,-881 801.5,-881 801.5,-875 807.5,-869 813.5,-869 813.5,-869 867.5,-869 867.5,-869 873.5,-869 879.5,-875 879.5,-881 879.5,-881 879.5,-893 879.5,-893 879.5,-899 873.5,-905 867.5,-905"/>
<text text-anchor="middle" x="840.5" y="-890" font-family="sans" font-size="10.00">cp_reads</text>
<text text-anchor="middle" x="840.5" y="-879" font-family="sans" font-size="10.00">library: test2</text>
</g>
<!-- 31&#45;&gt;29 -->
<g id="edge53" class="edge">
<title>31&#45;&gt;29</title>
<path fill="none" stroke="grey" stroke-width="2" d="M840.5,-868.7C840.5,-860.98 840.5,-851.71 840.5,-843.11"/>
<polygon fill="grey" stroke="grey" stroke-width="2" points="844,-843.1 840.5,-833.1 837,-843.1 844,-843.1"/>
</g>
</g>
</svg>
