<?xml version="1.0" encoding="UTF-8" standalone="no"?>
<!DOCTYPE svg PUBLIC "-//W3C//DTD SVG 1.1//EN"
 "http://www.w3.org/Graphics/SVG/1.1/DTD/svg11.dtd">
<!-- Generated by graphviz version 2.43.0 (0)
 -->
<!-- Title: snakemake_dag Pages: 1 -->
<svg width="956pt" height="620pt"
 viewBox="0.00 0.00 955.50 620.00" xmlns="http://www.w3.org/2000/svg" xmlns:xlink="http://www.w3.org/1999/xlink">
<g id="graph0" class="graph" transform="scale(1 1) rotate(0) translate(4 616)">
<title>snakemake_dag</title>
<polygon fill="white" stroke="transparent" points="-4,4 -4,-616 951.5,-616 951.5,4 -4,4"/>
<!-- 0 -->
<g id="node1" class="node">
<title>0</title>
<path fill="none" stroke="#59d856" stroke-width="2" d="M498.5,-36C498.5,-36 468.5,-36 468.5,-36 462.5,-36 456.5,-30 456.5,-24 456.5,-24 456.5,-12 456.5,-12 456.5,-6 462.5,0 468.5,0 468.5,0 498.5,0 498.5,0 504.5,0 510.5,-6 510.5,-12 510.5,-12 510.5,-24 510.5,-24 510.5,-30 504.5,-36 498.5,-36"/>
<text text-anchor="middle" x="483.5" y="-15.5" font-family="sans" font-size="10.00">all</text>
</g>
<!-- 1 -->
<g id="node2" class="node">
<title>1</title>
<path fill="none" stroke="#56c9d8" stroke-width="2" d="M795,-252C795,-252 700,-252 700,-252 694,-252 688,-246 688,-240 688,-240 688,-228 688,-228 688,-222 694,-216 700,-216 700,-216 795,-216 795,-216 801,-216 807,-222 807,-228 807,-228 807,-240 807,-240 807,-246 801,-252 795,-252"/>
<text text-anchor="middle" x="747.5" y="-231.5" font-family="sans" font-size="10.00">gatk_markduplicates</text>
</g>
<!-- 1&#45;&gt;0 -->
<g id="edge1" class="edge">
<title>1&#45;&gt;0</title>
<path fill="none" stroke="grey" stroke-width="2" d="M776.54,-215.84C788.82,-206.87 801.81,-194.68 808.5,-180 815.14,-165.44 816.81,-157.67 808.5,-144 747.69,-44.02 593.04,-23.77 521.22,-19.84"/>
<polygon fill="grey" stroke="grey" stroke-width="2" points="520.99,-16.32 510.83,-19.35 520.66,-23.32 520.99,-16.32"/>
</g>
<!-- 2 -->
<g id="node3" class="node">
<title>2</title>
<path fill="none" stroke="#56a9d8" stroke-width="2" d="M787,-180C787,-180 696,-180 696,-180 690,-180 684,-174 684,-168 684,-168 684,-156 684,-156 684,-150 690,-144 696,-144 696,-144 787,-144 787,-144 793,-144 799,-150 799,-156 799,-156 799,-168 799,-168 799,-174 793,-180 787,-180"/>
<text text-anchor="middle" x="741.5" y="-159.5" font-family="sans" font-size="10.00">samtools_index_md</text>
</g>
<!-- 1&#45;&gt;2 -->
<g id="edge13" class="edge">
<title>1&#45;&gt;2</title>
<path fill="none" stroke="grey" stroke-width="2" d="M746.02,-215.7C745.36,-207.98 744.56,-198.71 743.82,-190.11"/>
<polygon fill="grey" stroke="grey" stroke-width="2" points="747.31,-189.77 742.97,-180.1 740.33,-190.37 747.31,-189.77"/>
</g>
<!-- 5 -->
<g id="node6" class="node">
<title>5</title>
<path fill="none" stroke="#d87556" stroke-width="2" d="M609.5,-108C609.5,-108 549.5,-108 549.5,-108 543.5,-108 537.5,-102 537.5,-96 537.5,-96 537.5,-84 537.5,-84 537.5,-78 543.5,-72 549.5,-72 549.5,-72 609.5,-72 609.5,-72 615.5,-72 621.5,-78 621.5,-84 621.5,-84 621.5,-96 621.5,-96 621.5,-102 615.5,-108 609.5,-108"/>
<text text-anchor="middle" x="579.5" y="-87.5" font-family="sans" font-size="10.00">gatk_mutect2</text>
</g>
<!-- 1&#45;&gt;5 -->
<g id="edge18" class="edge">
<title>1&#45;&gt;5</title>
<path fill="none" stroke="grey" stroke-width="2" d="M722.98,-216C708.81,-205.91 690.81,-192.66 675.5,-180 650.26,-159.12 623.01,-133.54 604.01,-115.17"/>
<polygon fill="grey" stroke="grey" stroke-width="2" points="606.27,-112.48 596.66,-108.02 601.39,-117.5 606.27,-112.48"/>
</g>
<!-- 7 -->
<g id="node8" class="node">
<title>7</title>
<path fill="none" stroke="#56d8a9" stroke-width="2" d="M905.5,-180C905.5,-180 867.5,-180 867.5,-180 861.5,-180 855.5,-174 855.5,-168 855.5,-168 855.5,-156 855.5,-156 855.5,-150 861.5,-144 867.5,-144 867.5,-144 905.5,-144 905.5,-144 911.5,-144 917.5,-150 917.5,-156 917.5,-156 917.5,-168 917.5,-168 917.5,-174 911.5,-180 905.5,-180"/>
<text text-anchor="middle" x="886.5" y="-159.5" font-family="sans" font-size="10.00">qualimap</text>
</g>
<!-- 1&#45;&gt;7 -->
<g id="edge29" class="edge">
<title>1&#45;&gt;7</title>
<path fill="none" stroke="grey" stroke-width="2" d="M781.5,-215.88C801.02,-206.05 825.64,-193.65 846.13,-183.33"/>
<polygon fill="grey" stroke="grey" stroke-width="2" points="847.87,-186.37 855.22,-178.75 844.72,-180.12 847.87,-186.37"/>
</g>
<!-- 2&#45;&gt;0 -->
<g id="edge2" class="edge">
<title>2&#45;&gt;0</title>
<path fill="none" stroke="grey" stroke-width="2" d="M724,-143.87C703.19,-124.28 666.7,-92.29 630.5,-72 595.21,-52.22 551.14,-37.49 520.51,-28.65"/>
<polygon fill="grey" stroke="grey" stroke-width="2" points="521.24,-25.22 510.67,-25.88 519.34,-31.96 521.24,-25.22"/>
</g>
<!-- 2&#45;&gt;5 -->
<g id="edge20" class="edge">
<title>2&#45;&gt;5</title>
<path fill="none" stroke="grey" stroke-width="2" d="M701.87,-143.88C679.72,-134.31 651.94,-122.3 628.44,-112.15"/>
<polygon fill="grey" stroke="grey" stroke-width="2" points="629.57,-108.82 619,-108.07 626.79,-115.25 629.57,-108.82"/>
</g>
<!-- 3 -->
<g id="node4" class="node">
<title>3</title>
<path fill="none" stroke="#56c9d8" stroke-width="2" d="M266,-252C266,-252 171,-252 171,-252 165,-252 159,-246 159,-240 159,-240 159,-228 159,-228 159,-222 165,-216 171,-216 171,-216 266,-216 266,-216 272,-216 278,-222 278,-228 278,-228 278,-240 278,-240 278,-246 272,-252 266,-252"/>
<text text-anchor="middle" x="218.5" y="-231.5" font-family="sans" font-size="10.00">gatk_markduplicates</text>
</g>
<!-- 3&#45;&gt;0 -->
<g id="edge3" class="edge">
<title>3&#45;&gt;0</title>
<path fill="none" stroke="grey" stroke-width="2" d="M190.24,-215.97C178.07,-206.96 165.13,-194.7 158.5,-180 151.92,-165.41 150.54,-157.88 158.5,-144 216.97,-42.03 374.1,-22.85 446.3,-19.52"/>
<polygon fill="grey" stroke="grey" stroke-width="2" points="446.45,-23.02 456.31,-19.13 446.19,-16.02 446.45,-23.02"/>
</g>
<!-- 4 -->
<g id="node5" class="node">
<title>4</title>
<path fill="none" stroke="#56a9d8" stroke-width="2" d="M271,-180C271,-180 180,-180 180,-180 174,-180 168,-174 168,-168 168,-168 168,-156 168,-156 168,-150 174,-144 180,-144 180,-144 271,-144 271,-144 277,-144 283,-150 283,-156 283,-156 283,-168 283,-168 283,-174 277,-180 271,-180"/>
<text text-anchor="middle" x="225.5" y="-159.5" font-family="sans" font-size="10.00">samtools_index_md</text>
</g>
<!-- 3&#45;&gt;4 -->
<g id="edge16" class="edge">
<title>3&#45;&gt;4</title>
<path fill="none" stroke="grey" stroke-width="2" d="M220.23,-215.7C221,-207.98 221.93,-198.71 222.79,-190.11"/>
<polygon fill="grey" stroke="grey" stroke-width="2" points="226.28,-190.4 223.79,-180.1 219.31,-189.71 226.28,-190.4"/>
</g>
<!-- 6 -->
<g id="node7" class="node">
<title>6</title>
<path fill="none" stroke="#d87556" stroke-width="2" d="M417.5,-108C417.5,-108 357.5,-108 357.5,-108 351.5,-108 345.5,-102 345.5,-96 345.5,-96 345.5,-84 345.5,-84 345.5,-78 351.5,-72 357.5,-72 357.5,-72 417.5,-72 417.5,-72 423.5,-72 429.5,-78 429.5,-84 429.5,-84 429.5,-96 429.5,-96 429.5,-102 423.5,-108 417.5,-108"/>
<text text-anchor="middle" x="387.5" y="-87.5" font-family="sans" font-size="10.00">gatk_mutect2</text>
</g>
<!-- 3&#45;&gt;6 -->
<g id="edge24" class="edge">
<title>3&#45;&gt;6</title>
<path fill="none" stroke="grey" stroke-width="2" d="M243.72,-215.81C258.05,-205.77 276.13,-192.63 291.5,-180 316.81,-159.2 344.05,-133.61 363.03,-115.22"/>
<polygon fill="grey" stroke="grey" stroke-width="2" points="365.66,-117.54 370.37,-108.05 360.77,-112.53 365.66,-117.54"/>
</g>
<!-- 8 -->
<g id="node9" class="node">
<title>8</title>
<path fill="none" stroke="#56d8a9" stroke-width="2" d="M99.5,-180C99.5,-180 61.5,-180 61.5,-180 55.5,-180 49.5,-174 49.5,-168 49.5,-168 49.5,-156 49.5,-156 49.5,-150 55.5,-144 61.5,-144 61.5,-144 99.5,-144 99.5,-144 105.5,-144 111.5,-150 111.5,-156 111.5,-156 111.5,-168 111.5,-168 111.5,-174 105.5,-180 99.5,-180"/>
<text text-anchor="middle" x="80.5" y="-159.5" font-family="sans" font-size="10.00">qualimap</text>
</g>
<!-- 3&#45;&gt;8 -->
<g id="edge30" class="edge">
<title>3&#45;&gt;8</title>
<path fill="none" stroke="grey" stroke-width="2" d="M184.74,-215.88C165.37,-206.05 140.92,-193.65 120.58,-183.33"/>
<polygon fill="grey" stroke="grey" stroke-width="2" points="122.05,-180.15 111.55,-178.75 118.89,-186.4 122.05,-180.15"/>
</g>
<!-- 4&#45;&gt;0 -->
<g id="edge4" class="edge">
<title>4&#45;&gt;0</title>
<path fill="none" stroke="grey" stroke-width="2" d="M243,-143.87C263.81,-124.28 300.3,-92.29 336.5,-72 371.79,-52.22 415.86,-37.49 446.49,-28.65"/>
<polygon fill="grey" stroke="grey" stroke-width="2" points="447.66,-31.96 456.33,-25.88 445.76,-25.22 447.66,-31.96"/>
</g>
<!-- 4&#45;&gt;6 -->
<g id="edge26" class="edge">
<title>4&#45;&gt;6</title>
<path fill="none" stroke="grey" stroke-width="2" d="M265.13,-143.88C287.28,-134.31 315.06,-122.3 338.56,-112.15"/>
<polygon fill="grey" stroke="grey" stroke-width="2" points="340.21,-115.25 348,-108.07 337.43,-108.82 340.21,-115.25"/>
</g>
<!-- 5&#45;&gt;0 -->
<g id="edge5" class="edge">
<title>5&#45;&gt;0</title>
<path fill="none" stroke="grey" stroke-width="2" d="M555.77,-71.7C543.56,-62.8 528.51,-51.82 515.32,-42.2"/>
<polygon fill="grey" stroke="grey" stroke-width="2" points="517.1,-39.17 506.96,-36.1 512.98,-44.82 517.1,-39.17"/>
</g>
<!-- 6&#45;&gt;0 -->
<g id="edge6" class="edge">
<title>6&#45;&gt;0</title>
<path fill="none" stroke="grey" stroke-width="2" d="M411.23,-71.7C423.44,-62.8 438.49,-51.82 451.68,-42.2"/>
<polygon fill="grey" stroke="grey" stroke-width="2" points="454.02,-44.82 460.04,-36.1 449.9,-39.17 454.02,-44.82"/>
</g>
<!-- 7&#45;&gt;0 -->
<g id="edge7" class="edge">
<title>7&#45;&gt;0</title>
<path fill="none" stroke="grey" stroke-width="2" d="M882.85,-143.81C877.52,-123.21 865.51,-89.32 841.5,-72 790.72,-35.38 602.02,-23.65 520.93,-20.26"/>
<polygon fill="grey" stroke="grey" stroke-width="2" points="520.81,-16.75 510.68,-19.85 520.53,-23.75 520.81,-16.75"/>
</g>
<!-- 9 -->
<g id="node10" class="node">
<title>9</title>
<path fill="none" stroke="#d8ac56" stroke-width="2" d="M935.5,-108C935.5,-108 905.5,-108 905.5,-108 899.5,-108 893.5,-102 893.5,-96 893.5,-96 893.5,-84 893.5,-84 893.5,-78 899.5,-72 905.5,-72 905.5,-72 935.5,-72 935.5,-72 941.5,-72 947.5,-78 947.5,-84 947.5,-84 947.5,-96 947.5,-96 947.5,-102 941.5,-108 935.5,-108"/>
<text text-anchor="middle" x="920.5" y="-87.5" font-family="sans" font-size="10.00">multiqc</text>
</g>
<!-- 7&#45;&gt;9 -->
<g id="edge32" class="edge">
<title>7&#45;&gt;9</title>
<path fill="none" stroke="grey" stroke-width="2" d="M894.9,-143.7C898.77,-135.73 903.45,-126.1 907.74,-117.26"/>
<polygon fill="grey" stroke="grey" stroke-width="2" points="910.97,-118.63 912.19,-108.1 904.67,-115.57 910.97,-118.63"/>
</g>
<!-- 8&#45;&gt;0 -->
<g id="edge8" class="edge">
<title>8&#45;&gt;0</title>
<path fill="none" stroke="grey" stroke-width="2" d="M84.15,-143.81C89.48,-123.21 101.49,-89.32 125.5,-72 176.28,-35.38 364.98,-23.65 446.07,-20.26"/>
<polygon fill="grey" stroke="grey" stroke-width="2" points="446.47,-23.75 456.32,-19.85 446.19,-16.75 446.47,-23.75"/>
</g>
<!-- 10 -->
<g id="node11" class="node">
<title>10</title>
<path fill="none" stroke="#d8ac56" stroke-width="2" d="M61.5,-108C61.5,-108 31.5,-108 31.5,-108 25.5,-108 19.5,-102 19.5,-96 19.5,-96 19.5,-84 19.5,-84 19.5,-78 25.5,-72 31.5,-72 31.5,-72 61.5,-72 61.5,-72 67.5,-72 73.5,-78 73.5,-84 73.5,-84 73.5,-96 73.5,-96 73.5,-102 67.5,-108 61.5,-108"/>
<text text-anchor="middle" x="46.5" y="-87.5" font-family="sans" font-size="10.00">multiqc</text>
</g>
<!-- 8&#45;&gt;10 -->
<g id="edge34" class="edge">
<title>8&#45;&gt;10</title>
<path fill="none" stroke="grey" stroke-width="2" d="M72.1,-143.7C68.23,-135.73 63.55,-126.1 59.26,-117.26"/>
<polygon fill="grey" stroke="grey" stroke-width="2" points="62.33,-115.57 54.81,-108.1 56.03,-118.63 62.33,-115.57"/>
</g>
<!-- 9&#45;&gt;0 -->
<g id="edge9" class="edge">
<title>9&#45;&gt;0</title>
<path fill="none" stroke="grey" stroke-width="2" d="M893.5,-76.65C888.9,-74.88 884.11,-73.24 879.5,-72 750.81,-37.35 592.23,-24.85 521.11,-20.78"/>
<polygon fill="grey" stroke="grey" stroke-width="2" points="521.04,-17.27 510.87,-20.22 520.66,-24.26 521.04,-17.27"/>
</g>
<!-- 10&#45;&gt;0 -->
<g id="edge10" class="edge">
<title>10&#45;&gt;0</title>
<path fill="none" stroke="grey" stroke-width="2" d="M73.5,-76.65C78.1,-74.88 82.89,-73.24 87.5,-72 216.19,-37.35 374.77,-24.85 445.89,-20.78"/>
<polygon fill="grey" stroke="grey" stroke-width="2" points="446.34,-24.26 456.13,-20.22 445.96,-17.27 446.34,-24.26"/>
</g>
<!-- 11 -->
<g id="node12" class="node">
<title>11</title>
<path fill="none" stroke="#8fd856" stroke-width="2" d="M719.5,-396C719.5,-396 657.5,-396 657.5,-396 651.5,-396 645.5,-390 645.5,-384 645.5,-384 645.5,-372 645.5,-372 645.5,-366 651.5,-360 657.5,-360 657.5,-360 719.5,-360 719.5,-360 725.5,-360 731.5,-366 731.5,-372 731.5,-372 731.5,-384 731.5,-384 731.5,-390 725.5,-396 719.5,-396"/>
<text text-anchor="middle" x="688.5" y="-375.5" font-family="sans" font-size="10.00">samtools_sort</text>
</g>
<!-- 11&#45;&gt;1 -->
<g id="edge11" class="edge">
<title>11&#45;&gt;1</title>
<path fill="none" stroke="grey" stroke-width="2" d="M686.77,-359.75C685.63,-341.16 685.94,-311.15 696.5,-288 701.37,-277.33 709.31,-267.49 717.49,-259.26"/>
<polygon fill="grey" stroke="grey" stroke-width="2" points="720.13,-261.59 725,-252.18 715.32,-256.5 720.13,-261.59"/>
</g>
<!-- 12 -->
<g id="node13" class="node">
<title>12</title>
<path fill="none" stroke="#5673d8" stroke-width="2" d="M787.5,-324C787.5,-324 717.5,-324 717.5,-324 711.5,-324 705.5,-318 705.5,-312 705.5,-312 705.5,-300 705.5,-300 705.5,-294 711.5,-288 717.5,-288 717.5,-288 787.5,-288 787.5,-288 793.5,-288 799.5,-294 799.5,-300 799.5,-300 799.5,-312 799.5,-312 799.5,-318 793.5,-324 787.5,-324"/>
<text text-anchor="middle" x="752.5" y="-303.5" font-family="sans" font-size="10.00">samtools_index</text>
</g>
<!-- 11&#45;&gt;12 -->
<g id="edge36" class="edge">
<title>11&#45;&gt;12</title>
<path fill="none" stroke="grey" stroke-width="2" d="M704.32,-359.7C712.07,-351.22 721.54,-340.86 730.02,-331.58"/>
<polygon fill="grey" stroke="grey" stroke-width="2" points="732.7,-333.85 736.86,-324.1 727.53,-329.12 732.7,-333.85"/>
</g>
<!-- 12&#45;&gt;1 -->
<g id="edge12" class="edge">
<title>12&#45;&gt;1</title>
<path fill="none" stroke="grey" stroke-width="2" d="M751.26,-287.7C750.71,-279.98 750.05,-270.71 749.44,-262.11"/>
<polygon fill="grey" stroke="grey" stroke-width="2" points="752.93,-261.83 748.72,-252.1 745.94,-262.33 752.93,-261.83"/>
</g>
<!-- 13 -->
<g id="node14" class="node">
<title>13</title>
<path fill="none" stroke="#8fd856" stroke-width="2" d="M306.5,-396C306.5,-396 244.5,-396 244.5,-396 238.5,-396 232.5,-390 232.5,-384 232.5,-384 232.5,-372 232.5,-372 232.5,-366 238.5,-360 244.5,-360 244.5,-360 306.5,-360 306.5,-360 312.5,-360 318.5,-366 318.5,-372 318.5,-372 318.5,-384 318.5,-384 318.5,-390 312.5,-396 306.5,-396"/>
<text text-anchor="middle" x="275.5" y="-375.5" font-family="sans" font-size="10.00">samtools_sort</text>
</g>
<!-- 13&#45;&gt;3 -->
<g id="edge14" class="edge">
<title>13&#45;&gt;3</title>
<path fill="none" stroke="grey" stroke-width="2" d="M275.71,-359.84C275.32,-341.34 272.92,-311.39 262.5,-288 258,-277.9 251.01,-268.18 243.92,-259.89"/>
<polygon fill="grey" stroke="grey" stroke-width="2" points="246.47,-257.48 237.17,-252.41 241.27,-262.17 246.47,-257.48"/>
</g>
<!-- 14 -->
<g id="node15" class="node">
<title>14</title>
<path fill="none" stroke="#5673d8" stroke-width="2" d="M241.5,-324C241.5,-324 171.5,-324 171.5,-324 165.5,-324 159.5,-318 159.5,-312 159.5,-312 159.5,-300 159.5,-300 159.5,-294 165.5,-288 171.5,-288 171.5,-288 241.5,-288 241.5,-288 247.5,-288 253.5,-294 253.5,-300 253.5,-300 253.5,-312 253.5,-312 253.5,-318 247.5,-324 241.5,-324"/>
<text text-anchor="middle" x="206.5" y="-303.5" font-family="sans" font-size="10.00">samtools_index</text>
</g>
<!-- 13&#45;&gt;14 -->
<g id="edge38" class="edge">
<title>13&#45;&gt;14</title>
<path fill="none" stroke="grey" stroke-width="2" d="M258.44,-359.7C250,-351.14 239.68,-340.66 230.46,-331.3"/>
<polygon fill="grey" stroke="grey" stroke-width="2" points="232.87,-328.77 223.36,-324.1 227.89,-333.68 232.87,-328.77"/>
</g>
<!-- 14&#45;&gt;3 -->
<g id="edge15" class="edge">
<title>14&#45;&gt;3</title>
<path fill="none" stroke="grey" stroke-width="2" d="M209.47,-287.7C210.79,-279.98 212.38,-270.71 213.85,-262.11"/>
<polygon fill="grey" stroke="grey" stroke-width="2" points="217.33,-262.55 215.57,-252.1 210.43,-261.37 217.33,-262.55"/>
</g>
<!-- 15 -->
<g id="node16" class="node">
<title>15</title>
<path fill="none" stroke="#56d8c9" stroke-width="2" stroke-dasharray="5,2" d="M440.5,-612C440.5,-612 384.5,-612 384.5,-612 378.5,-612 372.5,-606 372.5,-600 372.5,-600 372.5,-588 372.5,-588 372.5,-582 378.5,-576 384.5,-576 384.5,-576 440.5,-576 440.5,-576 446.5,-576 452.5,-582 452.5,-588 452.5,-588 452.5,-600 452.5,-600 452.5,-606 446.5,-612 440.5,-612"/>
<text text-anchor="middle" x="412.5" y="-591.5" font-family="sans" font-size="10.00">cp_reference</text>
</g>
<!-- 15&#45;&gt;5 -->
<g id="edge17" class="edge">
<title>15&#45;&gt;5</title>
<path fill="none" stroke="grey" stroke-width="2" d="M452.51,-584.4C512.17,-568.96 617.5,-530.45 617.5,-451 617.5,-451 617.5,-451 617.5,-233 617.5,-191.63 602.27,-145.72 591.09,-117.61"/>
<polygon fill="grey" stroke="grey" stroke-width="2" points="594.22,-116.02 587.19,-108.09 587.74,-118.67 594.22,-116.02"/>
</g>
<!-- 15&#45;&gt;6 -->
<g id="edge23" class="edge">
<title>15&#45;&gt;6</title>
<path fill="none" stroke="grey" stroke-width="2" d="M394.63,-575.9C385.5,-566.19 374.97,-553.34 368.5,-540 350.85,-503.61 349.5,-491.45 349.5,-451 349.5,-451 349.5,-451 349.5,-233 349.5,-191.63 364.73,-145.72 375.91,-117.61"/>
<polygon fill="grey" stroke="grey" stroke-width="2" points="379.26,-118.67 379.81,-108.09 372.78,-116.02 379.26,-118.67"/>
</g>
<!-- 17 -->
<g id="node18" class="node">
<title>17</title>
<path fill="none" stroke="#5692d8" stroke-width="2" stroke-dasharray="5,2" d="M435,-540C435,-540 390,-540 390,-540 384,-540 378,-534 378,-528 378,-528 378,-516 378,-516 378,-510 384,-504 390,-504 390,-504 435,-504 435,-504 441,-504 447,-510 447,-516 447,-516 447,-528 447,-528 447,-534 441,-540 435,-540"/>
<text text-anchor="middle" x="412.5" y="-519.5" font-family="sans" font-size="10.00">bwa_index</text>
</g>
<!-- 15&#45;&gt;17 -->
<g id="edge39" class="edge">
<title>15&#45;&gt;17</title>
<path fill="none" stroke="grey" stroke-width="2" d="M412.5,-575.7C412.5,-567.98 412.5,-558.71 412.5,-550.11"/>
<polygon fill="grey" stroke="grey" stroke-width="2" points="416,-550.1 412.5,-540.1 409,-550.1 416,-550.1"/>
</g>
<!-- 21 -->
<g id="node22" class="node">
<title>21</title>
<path fill="none" stroke="#70d856" stroke-width="2" d="M577.5,-468C577.5,-468 533.5,-468 533.5,-468 527.5,-468 521.5,-462 521.5,-456 521.5,-456 521.5,-444 521.5,-444 521.5,-438 527.5,-432 533.5,-432 533.5,-432 577.5,-432 577.5,-432 583.5,-432 589.5,-438 589.5,-444 589.5,-444 589.5,-456 589.5,-456 589.5,-462 583.5,-468 577.5,-468"/>
<text text-anchor="middle" x="555.5" y="-447.5" font-family="sans" font-size="10.00">bwa_mem</text>
</g>
<!-- 15&#45;&gt;21 -->
<g id="edge43" class="edge">
<title>15&#45;&gt;21</title>
<path fill="none" stroke="grey" stroke-width="2" d="M452.68,-585.88C480.29,-578.88 515.6,-565.4 536.5,-540 550.67,-522.79 554.99,-497.51 556.01,-478.29"/>
<polygon fill="grey" stroke="grey" stroke-width="2" points="559.52,-478.14 556.29,-468.05 552.52,-477.96 559.52,-478.14"/>
</g>
<!-- 22 -->
<g id="node23" class="node">
<title>22</title>
<path fill="none" stroke="#70d856" stroke-width="2" d="M297.5,-468C297.5,-468 253.5,-468 253.5,-468 247.5,-468 241.5,-462 241.5,-456 241.5,-456 241.5,-444 241.5,-444 241.5,-438 247.5,-432 253.5,-432 253.5,-432 297.5,-432 297.5,-432 303.5,-432 309.5,-438 309.5,-444 309.5,-444 309.5,-456 309.5,-456 309.5,-462 303.5,-468 297.5,-468"/>
<text text-anchor="middle" x="275.5" y="-447.5" font-family="sans" font-size="10.00">bwa_mem</text>
</g>
<!-- 15&#45;&gt;22 -->
<g id="edge48" class="edge">
<title>15&#45;&gt;22</title>
<path fill="none" stroke="grey" stroke-width="2" d="M372.07,-587.6C321.35,-579.91 238.78,-564.01 220.5,-540 204.5,-518.98 224.42,-493.13 244.62,-474.71"/>
<polygon fill="grey" stroke="grey" stroke-width="2" points="247.05,-477.24 252.3,-468.04 242.46,-471.95 247.05,-477.24"/>
</g>
<!-- 26 -->
<g id="node27" class="node">
<title>26</title>
<path fill="none" stroke="#d85656" stroke-width="2" stroke-dasharray="5,2" d="M309.5,-540C309.5,-540 241.5,-540 241.5,-540 235.5,-540 229.5,-534 229.5,-528 229.5,-528 229.5,-516 229.5,-516 229.5,-510 235.5,-504 241.5,-504 241.5,-504 309.5,-504 309.5,-504 315.5,-504 321.5,-510 321.5,-516 321.5,-516 321.5,-528 321.5,-528 321.5,-534 315.5,-540 309.5,-540"/>
<text text-anchor="middle" x="275.5" y="-519.5" font-family="sans" font-size="10.00">samtools_faidx</text>
</g>
<!-- 15&#45;&gt;26 -->
<g id="edge54" class="edge">
<title>15&#45;&gt;26</title>
<path fill="none" stroke="grey" stroke-width="2" d="M378.99,-575.88C360.66,-566.51 337.76,-554.81 318.17,-544.8"/>
<polygon fill="grey" stroke="grey" stroke-width="2" points="319.64,-541.62 309.14,-540.19 316.46,-547.86 319.64,-541.62"/>
</g>
<!-- 27 -->
<g id="node28" class="node">
<title>27</title>
<path fill="none" stroke="#c6d856" stroke-width="2" stroke-dasharray="5,2" d="M515.5,-540C515.5,-540 477.5,-540 477.5,-540 471.5,-540 465.5,-534 465.5,-528 465.5,-528 465.5,-516 465.5,-516 465.5,-510 471.5,-504 477.5,-504 477.5,-504 515.5,-504 515.5,-504 521.5,-504 527.5,-510 527.5,-516 527.5,-516 527.5,-528 527.5,-528 527.5,-534 521.5,-540 515.5,-540"/>
<text text-anchor="middle" x="496.5" y="-519.5" font-family="sans" font-size="10.00">gatk_dict</text>
</g>
<!-- 15&#45;&gt;27 -->
<g id="edge55" class="edge">
<title>15&#45;&gt;27</title>
<path fill="none" stroke="grey" stroke-width="2" d="M433.26,-575.7C443.74,-566.97 456.61,-556.24 468,-546.75"/>
<polygon fill="grey" stroke="grey" stroke-width="2" points="470.53,-549.19 475.97,-540.1 466.05,-543.82 470.53,-549.19"/>
</g>
<!-- 16 -->
<g id="node17" class="node">
<title>16</title>
<path fill="none" stroke="#56d892" stroke-width="2" stroke-dasharray="5,2" d="M499.5,-252C499.5,-252 467.5,-252 467.5,-252 461.5,-252 455.5,-246 455.5,-240 455.5,-240 455.5,-228 455.5,-228 455.5,-222 461.5,-216 467.5,-216 467.5,-216 499.5,-216 499.5,-216 505.5,-216 511.5,-222 511.5,-228 511.5,-228 511.5,-240 511.5,-240 511.5,-246 505.5,-252 499.5,-252"/>
<text text-anchor="middle" x="483.5" y="-231.5" font-family="sans" font-size="10.00">cp_snps</text>
</g>
<!-- 16&#45;&gt;5 -->
<g id="edge19" class="edge">
<title>16&#45;&gt;5</title>
<path fill="none" stroke="grey" stroke-width="2" d="M496.79,-215.54C504.47,-205.3 514.22,-192.05 522.5,-180 536.83,-159.14 552.27,-134.91 563.46,-117.01"/>
<polygon fill="grey" stroke="grey" stroke-width="2" points="566.59,-118.62 568.9,-108.28 560.64,-114.92 566.59,-118.62"/>
</g>
<!-- 16&#45;&gt;6 -->
<g id="edge25" class="edge">
<title>16&#45;&gt;6</title>
<path fill="none" stroke="grey" stroke-width="2" d="M470.21,-215.54C462.53,-205.3 452.78,-192.05 444.5,-180 430.17,-159.14 414.73,-134.91 403.54,-117.01"/>
<polygon fill="grey" stroke="grey" stroke-width="2" points="406.36,-114.92 398.1,-108.28 400.41,-118.62 406.36,-114.92"/>
</g>
<!-- 18 -->
<g id="node19" class="node">
<title>18</title>
<path fill="none" stroke="#d88d56" stroke-width="2" stroke-dasharray="5,2" d="M501,-180C501,-180 466,-180 466,-180 460,-180 454,-174 454,-168 454,-168 454,-156 454,-156 454,-150 460,-144 466,-144 466,-144 501,-144 501,-144 507,-144 513,-150 513,-156 513,-156 513,-168 513,-168 513,-174 507,-180 501,-180"/>
<text text-anchor="middle" x="483.5" y="-159.5" font-family="sans" font-size="10.00">gatk_idx</text>
</g>
<!-- 16&#45;&gt;18 -->
<g id="edge40" class="edge">
<title>16&#45;&gt;18</title>
<path fill="none" stroke="grey" stroke-width="2" d="M483.5,-215.7C483.5,-207.98 483.5,-198.71 483.5,-190.11"/>
<polygon fill="grey" stroke="grey" stroke-width="2" points="487,-190.1 483.5,-180.1 480,-190.1 487,-190.1"/>
</g>
<!-- 17&#45;&gt;5 -->
<g id="edge21" class="edge">
<title>17&#45;&gt;5</title>
<path fill="none" stroke="grey" stroke-width="2" d="M419.59,-503.75C437.05,-461.14 483.44,-347.47 520.5,-252 532.87,-220.14 535.72,-212.08 547.5,-180 555.17,-159.13 563.68,-135.43 569.99,-117.74"/>
<polygon fill="grey" stroke="grey" stroke-width="2" points="573.37,-118.68 573.43,-108.09 566.78,-116.33 573.37,-118.68"/>
</g>
<!-- 17&#45;&gt;6 -->
<g id="edge27" class="edge">
<title>17&#45;&gt;6</title>
<path fill="none" stroke="grey" stroke-width="2" d="M407.44,-503.68C400.14,-477.11 387.5,-424.56 387.5,-379 387.5,-379 387.5,-379 387.5,-233 387.5,-193 387.5,-146.65 387.5,-118.08"/>
<polygon fill="grey" stroke="grey" stroke-width="2" points="391,-118.05 387.5,-108.05 384,-118.05 391,-118.05"/>
</g>
<!-- 17&#45;&gt;21 -->
<g id="edge45" class="edge">
<title>17&#45;&gt;21</title>
<path fill="none" stroke="grey" stroke-width="2" d="M447.12,-504.05C466.61,-494.51 491.15,-482.5 511.94,-472.32"/>
<polygon fill="grey" stroke="grey" stroke-width="2" points="513.76,-475.33 521.2,-467.79 510.68,-469.04 513.76,-475.33"/>
</g>
<!-- 17&#45;&gt;22 -->
<g id="edge50" class="edge">
<title>17&#45;&gt;22</title>
<path fill="none" stroke="grey" stroke-width="2" d="M378.99,-503.88C360.66,-494.51 337.76,-482.81 318.17,-472.8"/>
<polygon fill="grey" stroke="grey" stroke-width="2" points="319.64,-469.62 309.14,-468.19 316.46,-475.86 319.64,-469.62"/>
</g>
<!-- 18&#45;&gt;5 -->
<g id="edge22" class="edge">
<title>18&#45;&gt;5</title>
<path fill="none" stroke="grey" stroke-width="2" d="M507.23,-143.7C519.44,-134.8 534.49,-123.82 547.68,-114.2"/>
<polygon fill="grey" stroke="grey" stroke-width="2" points="550.02,-116.82 556.04,-108.1 545.9,-111.17 550.02,-116.82"/>
</g>
<!-- 18&#45;&gt;6 -->
<g id="edge28" class="edge">
<title>18&#45;&gt;6</title>
<path fill="none" stroke="grey" stroke-width="2" d="M459.77,-143.7C447.56,-134.8 432.51,-123.82 419.32,-114.2"/>
<polygon fill="grey" stroke="grey" stroke-width="2" points="421.1,-111.17 410.96,-108.1 416.98,-116.82 421.1,-111.17"/>
</g>
<!-- 19 -->
<g id="node20" class="node">
<title>19</title>
<path fill="none" stroke="#56d873" stroke-width="2" d="M875.5,-396C875.5,-396 845.5,-396 845.5,-396 839.5,-396 833.5,-390 833.5,-384 833.5,-384 833.5,-372 833.5,-372 833.5,-366 839.5,-360 845.5,-360 845.5,-360 875.5,-360 875.5,-360 881.5,-360 887.5,-366 887.5,-372 887.5,-372 887.5,-384 887.5,-384 887.5,-390 881.5,-396 875.5,-396"/>
<text text-anchor="middle" x="860.5" y="-375.5" font-family="sans" font-size="10.00">fastqc</text>
</g>
<!-- 19&#45;&gt;9 -->
<g id="edge31" class="edge">
<title>19&#45;&gt;9</title>
<path fill="none" stroke="grey" stroke-width="2" d="M868.37,-359.82C883.31,-326.19 915.27,-248.89 926.5,-180 929.84,-159.49 928.03,-136.04 925.56,-118.36"/>
<polygon fill="grey" stroke="grey" stroke-width="2" points="928.97,-117.51 923.97,-108.17 922.05,-118.59 928.97,-117.51"/>
</g>
<!-- 20 -->
<g id="node21" class="node">
<title>20</title>
<path fill="none" stroke="#56d873" stroke-width="2" d="M42.5,-468C42.5,-468 12.5,-468 12.5,-468 6.5,-468 0.5,-462 0.5,-456 0.5,-456 0.5,-444 0.5,-444 0.5,-438 6.5,-432 12.5,-432 12.5,-432 42.5,-432 42.5,-432 48.5,-432 54.5,-438 54.5,-444 54.5,-444 54.5,-456 54.5,-456 54.5,-462 48.5,-468 42.5,-468"/>
<text text-anchor="middle" x="27.5" y="-447.5" font-family="sans" font-size="10.00">fastqc</text>
</g>
<!-- 20&#45;&gt;10 -->
<g id="edge33" class="edge">
<title>20&#45;&gt;10</title>
<path fill="none" stroke="grey" stroke-width="2" d="M26.31,-431.96C24.57,-405.31 21.5,-352.15 21.5,-307 21.5,-307 21.5,-307 21.5,-233 21.5,-192.6 31.44,-146.71 38.78,-118.3"/>
<polygon fill="grey" stroke="grey" stroke-width="2" points="42.25,-118.88 41.44,-108.32 35.48,-117.08 42.25,-118.88"/>
</g>
<!-- 21&#45;&gt;11 -->
<g id="edge35" class="edge">
<title>21&#45;&gt;11</title>
<path fill="none" stroke="grey" stroke-width="2" d="M588.04,-431.88C605.75,-422.55 627.85,-410.92 646.82,-400.94"/>
<polygon fill="grey" stroke="grey" stroke-width="2" points="648.62,-403.94 655.84,-396.19 645.36,-397.75 648.62,-403.94"/>
</g>
<!-- 22&#45;&gt;13 -->
<g id="edge37" class="edge">
<title>22&#45;&gt;13</title>
<path fill="none" stroke="grey" stroke-width="2" d="M275.5,-431.7C275.5,-423.98 275.5,-414.71 275.5,-406.11"/>
<polygon fill="grey" stroke="grey" stroke-width="2" points="279,-406.1 275.5,-396.1 272,-406.1 279,-406.1"/>
</g>
<!-- 23 -->
<g id="node24" class="node">
<title>23</title>
<path fill="none" stroke="#d8cb56" stroke-width="2" d="M811,-612C811,-612 656,-612 656,-612 650,-612 644,-606 644,-600 644,-600 644,-588 644,-588 644,-582 650,-576 656,-576 656,-576 811,-576 811,-576 817,-576 823,-582 823,-588 823,-588 823,-600 823,-600 823,-606 817,-612 811,-612"/>
<text text-anchor="middle" x="733.5" y="-597" font-family="sans" font-size="10.00">cp_reads</text>
<text text-anchor="middle" x="733.5" y="-586" font-family="sans" font-size="10.00">library: N100_R2_AF0.8_NR50000</text>
</g>
<!-- 23&#45;&gt;19 -->
<g id="edge41" class="edge">
<title>23&#45;&gt;19</title>
<path fill="none" stroke="grey" stroke-width="2" d="M743.68,-575.85C765.88,-538.44 818.77,-449.32 845.08,-404.98"/>
<polygon fill="grey" stroke="grey" stroke-width="2" points="848.18,-406.62 850.27,-396.23 842.16,-403.05 848.18,-406.62"/>
</g>
<!-- 25 -->
<g id="node26" class="node">
<title>25</title>
<path fill="none" stroke="#afd856" stroke-width="2" d="M724.5,-540C724.5,-540 668.5,-540 668.5,-540 662.5,-540 656.5,-534 656.5,-528 656.5,-528 656.5,-516 656.5,-516 656.5,-510 662.5,-504 668.5,-504 668.5,-504 724.5,-504 724.5,-504 730.5,-504 736.5,-510 736.5,-516 736.5,-516 736.5,-528 736.5,-528 736.5,-534 730.5,-540 724.5,-540"/>
<text text-anchor="middle" x="696.5" y="-519.5" font-family="sans" font-size="10.00">trimmomatic</text>
</g>
<!-- 23&#45;&gt;25 -->
<g id="edge53" class="edge">
<title>23&#45;&gt;25</title>
<path fill="none" stroke="grey" stroke-width="2" d="M724.35,-575.7C720.1,-567.64 714.94,-557.89 710.23,-548.98"/>
<polygon fill="grey" stroke="grey" stroke-width="2" points="713.31,-547.31 705.54,-540.1 707.12,-550.58 713.31,-547.31"/>
</g>
<!-- 24 -->
<g id="node25" class="node">
<title>24</title>
<path fill="none" stroke="#d8cb56" stroke-width="2" d="M167,-612C167,-612 12,-612 12,-612 6,-612 0,-606 0,-600 0,-600 0,-588 0,-588 0,-582 6,-576 12,-576 12,-576 167,-576 167,-576 173,-576 179,-582 179,-588 179,-588 179,-600 179,-600 179,-606 173,-612 167,-612"/>
<text text-anchor="middle" x="89.5" y="-597" font-family="sans" font-size="10.00">cp_reads</text>
<text text-anchor="middle" x="89.5" y="-586" font-family="sans" font-size="10.00">library: N100_R2_AF0.6_NR50000</text>
</g>
<!-- 24&#45;&gt;20 -->
<g id="edge42" class="edge">
<title>24&#45;&gt;20</title>
<path fill="none" stroke="grey" stroke-width="2" d="M82.02,-575.87C71.36,-551.46 51.7,-506.43 39.13,-477.64"/>
<polygon fill="grey" stroke="grey" stroke-width="2" points="42.21,-475.95 35.01,-468.19 35.8,-478.75 42.21,-475.95"/>
</g>
<!-- 28 -->
<g id="node29" class="node">
<title>28</title>
<path fill="none" stroke="#afd856" stroke-width="2" d="M156.5,-540C156.5,-540 100.5,-540 100.5,-540 94.5,-540 88.5,-534 88.5,-528 88.5,-528 88.5,-516 88.5,-516 88.5,-510 94.5,-504 100.5,-504 100.5,-504 156.5,-504 156.5,-504 162.5,-504 168.5,-510 168.5,-516 168.5,-516 168.5,-528 168.5,-528 168.5,-534 162.5,-540 156.5,-540"/>
<text text-anchor="middle" x="128.5" y="-519.5" font-family="sans" font-size="10.00">trimmomatic</text>
</g>
<!-- 24&#45;&gt;28 -->
<g id="edge56" class="edge">
<title>24&#45;&gt;28</title>
<path fill="none" stroke="grey" stroke-width="2" d="M99.14,-575.7C103.63,-567.64 109.06,-557.89 114.02,-548.98"/>
<polygon fill="grey" stroke="grey" stroke-width="2" points="117.16,-550.54 118.97,-540.1 111.05,-547.14 117.16,-550.54"/>
</g>
<!-- 25&#45;&gt;21 -->
<g id="edge44" class="edge">
<title>25&#45;&gt;21</title>
<path fill="none" stroke="grey" stroke-width="2" d="M662.01,-503.88C642.92,-494.4 619.01,-482.53 598.69,-472.44"/>
<polygon fill="grey" stroke="grey" stroke-width="2" points="600.15,-469.26 589.64,-467.95 597.04,-475.53 600.15,-469.26"/>
</g>
<!-- 26&#45;&gt;21 -->
<g id="edge46" class="edge">
<title>26&#45;&gt;21</title>
<path fill="none" stroke="grey" stroke-width="2" d="M321.74,-509.44C374.31,-496.3 459.52,-475 511.25,-462.06"/>
<polygon fill="grey" stroke="grey" stroke-width="2" points="512.27,-465.41 521.13,-459.59 510.58,-458.62 512.27,-465.41"/>
</g>
<!-- 26&#45;&gt;22 -->
<g id="edge51" class="edge">
<title>26&#45;&gt;22</title>
<path fill="none" stroke="grey" stroke-width="2" d="M275.5,-503.7C275.5,-495.98 275.5,-486.71 275.5,-478.11"/>
<polygon fill="grey" stroke="grey" stroke-width="2" points="279,-478.1 275.5,-468.1 272,-478.1 279,-478.1"/>
</g>
<!-- 27&#45;&gt;21 -->
<g id="edge47" class="edge">
<title>27&#45;&gt;21</title>
<path fill="none" stroke="grey" stroke-width="2" d="M511.08,-503.7C518.16,-495.3 526.78,-485.07 534.55,-475.86"/>
<polygon fill="grey" stroke="grey" stroke-width="2" points="537.31,-478.01 541.08,-468.1 531.96,-473.49 537.31,-478.01"/>
</g>
<!-- 27&#45;&gt;22 -->
<g id="edge52" class="edge">
<title>27&#45;&gt;22</title>
<path fill="none" stroke="grey" stroke-width="2" d="M465.29,-507.66C462.01,-506.37 458.7,-505.13 455.5,-504 409.74,-487.83 356.27,-472.53 319.57,-462.56"/>
<polygon fill="grey" stroke="grey" stroke-width="2" points="320.25,-459.12 309.68,-459.9 318.43,-465.88 320.25,-459.12"/>
</g>
<!-- 28&#45;&gt;22 -->
<g id="edge49" class="edge">
<title>28&#45;&gt;22</title>
<path fill="none" stroke="grey" stroke-width="2" d="M164.46,-503.88C184.9,-494.14 210.62,-481.89 232.17,-471.63"/>
<polygon fill="grey" stroke="grey" stroke-width="2" points="233.9,-474.69 241.43,-467.23 230.89,-468.37 233.9,-474.69"/>
</g>
</g>
</svg>
