<?xml version="1.0" encoding="UTF-8" standalone="no"?>
<!DOCTYPE svg PUBLIC "-//W3C//DTD SVG 1.1//EN"
 "http://www.w3.org/Graphics/SVG/1.1/DTD/svg11.dtd">
<!-- Generated by graphviz version 2.43.0 (0)
 -->
<!-- Title: snakemake_dag Pages: 1 -->
<svg width="79pt" height="116pt"
 viewBox="0.00 0.00 79.00 116.00" xmlns="http://www.w3.org/2000/svg" xmlns:xlink="http://www.w3.org/1999/xlink">
<g id="graph0" class="graph" transform="scale(1 1) rotate(0) translate(4 112)">
<title>snakemake_dag</title>
<polygon fill="white" stroke="transparent" points="-4,4 -4,-112 75,-112 75,4 -4,4"/>
<!-- 0 -->
<g id="node1" class="node">
<title>0</title>
<path fill="none" stroke="#59d856" stroke-width="2" d="M50.5,-36C50.5,-36 20.5,-36 20.5,-36 14.5,-36 8.5,-30 8.5,-24 8.5,-24 8.5,-12 8.5,-12 8.5,-6 14.5,0 20.5,0 20.5,0 50.5,0 50.5,0 56.5,0 62.5,-6 62.5,-12 62.5,-12 62.5,-24 62.5,-24 62.5,-30 56.5,-36 50.5,-36"/>
<text text-anchor="middle" x="35.5" y="-15.5" font-family="sans" font-size="10.00">all</text>
</g>
<!-- 1 -->
<g id="node2" class="node">
<title>1</title>
<path fill="none" stroke="#56d8d8" stroke-width="2" d="M59,-108C59,-108 12,-108 12,-108 6,-108 0,-102 0,-96 0,-96 0,-84 0,-84 0,-78 6,-72 12,-72 12,-72 59,-72 59,-72 65,-72 71,-78 71,-84 71,-84 71,-96 71,-96 71,-102 65,-108 59,-108"/>
<text text-anchor="middle" x="35.5" y="-93" font-family="sans" font-size="10.00">fastqc</text>
<text text-anchor="middle" x="35.5" y="-82" font-family="sans" font-size="10.00">library: AL1</text>
</g>
<!-- 1&#45;&gt;0 -->
<g id="edge1" class="edge">
<title>1&#45;&gt;0</title>
<path fill="none" stroke="grey" stroke-width="2" d="M35.5,-71.7C35.5,-63.98 35.5,-54.71 35.5,-46.11"/>
<polygon fill="grey" stroke="grey" stroke-width="2" points="39,-46.1 35.5,-36.1 32,-46.1 39,-46.1"/>
</g>
</g>
</svg>
