<?xml version="1.0" encoding="UTF-8" standalone="no"?>
<!DOCTYPE svg PUBLIC "-//W3C//DTD SVG 1.1//EN"
 "http://www.w3.org/Graphics/SVG/1.1/DTD/svg11.dtd">
<!-- Generated by graphviz version 2.43.0 (0)
 -->
<!-- Title: snakemake_dag Pages: 1 -->
<svg width="1102pt" height="548pt"
 viewBox="0.00 0.00 1101.50 548.00" xmlns="http://www.w3.org/2000/svg" xmlns:xlink="http://www.w3.org/1999/xlink">
<g id="graph0" class="graph" transform="scale(1 1) rotate(0) translate(4 544)">
<title>snakemake_dag</title>
<polygon fill="white" stroke="transparent" points="-4,4 -4,-544 1097.5,-544 1097.5,4 -4,4"/>
<!-- 0 -->
<g id="node1" class="node">
<title>0</title>
<path fill="none" stroke="#56d86b" stroke-width="2" d="M600,-36C600,-36 570,-36 570,-36 564,-36 558,-30 558,-24 558,-24 558,-12 558,-12 558,-6 564,0 570,0 570,0 600,0 600,0 606,0 612,-6 612,-12 612,-12 612,-24 612,-24 612,-30 606,-36 600,-36"/>
<text text-anchor="middle" x="585" y="-15.5" font-family="sans" font-size="10.00">all</text>
</g>
<!-- 1 -->
<g id="node2" class="node">
<title>1</title>
<path fill="none" stroke="#d85656" stroke-width="2" stroke-dasharray="5,2" d="M171,-108C171,-108 141,-108 141,-108 135,-108 129,-102 129,-96 129,-96 129,-84 129,-84 129,-78 135,-72 141,-72 141,-72 171,-72 171,-72 177,-72 183,-78 183,-84 183,-84 183,-96 183,-96 183,-102 177,-108 171,-108"/>
<text text-anchor="middle" x="156" y="-87.5" font-family="sans" font-size="10.00">multiqc</text>
</g>
<!-- 1&#45;&gt;0 -->
<g id="edge1" class="edge">
<title>1&#45;&gt;0</title>
<path fill="none" stroke="grey" stroke-width="2" d="M183.23,-83.84C201.76,-80.38 226.83,-75.77 249,-72 357.42,-53.54 485.9,-33.89 547.89,-24.55"/>
<polygon fill="grey" stroke="grey" stroke-width="2" points="548.59,-27.99 557.96,-23.04 547.55,-21.06 548.59,-27.99"/>
</g>
<!-- 2 -->
<g id="node3" class="node">
<title>2</title>
<path fill="none" stroke="#d8bc56" stroke-width="2" stroke-dasharray="5,2" d="M459.5,-252C459.5,-252 364.5,-252 364.5,-252 358.5,-252 352.5,-246 352.5,-240 352.5,-240 352.5,-228 352.5,-228 352.5,-222 358.5,-216 364.5,-216 364.5,-216 459.5,-216 459.5,-216 465.5,-216 471.5,-222 471.5,-228 471.5,-228 471.5,-240 471.5,-240 471.5,-246 465.5,-252 459.5,-252"/>
<text text-anchor="middle" x="412" y="-231.5" font-family="sans" font-size="10.00">gatk_markduplicates</text>
</g>
<!-- 2&#45;&gt;0 -->
<g id="edge2" class="edge">
<title>2&#45;&gt;0</title>
<path fill="none" stroke="grey" stroke-width="2" d="M391.61,-215.84C357.12,-184.77 294.51,-118.15 332,-72 358.73,-39.08 483.87,-25.88 547.56,-21.23"/>
<polygon fill="grey" stroke="grey" stroke-width="2" points="547.86,-24.72 557.59,-20.53 547.37,-17.73 547.86,-24.72"/>
</g>
<!-- 3 -->
<g id="node4" class="node">
<title>3</title>
<path fill="none" stroke="#569ad8" stroke-width="2" stroke-dasharray="5,2" d="M435.5,-108C435.5,-108 352.5,-108 352.5,-108 346.5,-108 340.5,-102 340.5,-96 340.5,-96 340.5,-84 340.5,-84 340.5,-78 346.5,-72 352.5,-72 352.5,-72 435.5,-72 435.5,-72 441.5,-72 447.5,-78 447.5,-84 447.5,-84 447.5,-96 447.5,-96 447.5,-102 441.5,-108 435.5,-108"/>
<text text-anchor="middle" x="394" y="-93" font-family="sans" font-size="10.00">samtools_index</text>
<text text-anchor="middle" x="394" y="-82" font-family="sans" font-size="10.00">sample: base1.md</text>
</g>
<!-- 2&#45;&gt;3 -->
<g id="edge16" class="edge">
<title>2&#45;&gt;3</title>
<path fill="none" stroke="grey" stroke-width="2" d="M398.44,-215.97C391.44,-206.09 383.63,-193.05 380,-180 374.32,-159.59 378.56,-135.87 383.83,-118.05"/>
<polygon fill="grey" stroke="grey" stroke-width="2" points="387.23,-118.9 386.97,-108.31 380.57,-116.75 387.23,-118.9"/>
</g>
<!-- 4 -->
<g id="node5" class="node">
<title>4</title>
<path fill="none" stroke="#88d856" stroke-width="2" stroke-dasharray="5,2" d="M544.5,-108C544.5,-108 477.5,-108 477.5,-108 471.5,-108 465.5,-102 465.5,-96 465.5,-96 465.5,-84 465.5,-84 465.5,-78 471.5,-72 477.5,-72 477.5,-72 544.5,-72 544.5,-72 550.5,-72 556.5,-78 556.5,-84 556.5,-84 556.5,-96 556.5,-96 556.5,-102 550.5,-108 544.5,-108"/>
<text text-anchor="middle" x="511" y="-87.5" font-family="sans" font-size="10.00">samtools_stats</text>
</g>
<!-- 2&#45;&gt;4 -->
<g id="edge17" class="edge">
<title>2&#45;&gt;4</title>
<path fill="none" stroke="grey" stroke-width="2" d="M407.37,-215.88C403.26,-196.86 399.74,-165.96 413,-144 418.83,-134.34 439.72,-122.47 460.72,-112.41"/>
<polygon fill="grey" stroke="grey" stroke-width="2" points="462.42,-115.48 470.01,-108.08 459.46,-109.14 462.42,-115.48"/>
</g>
<!-- 5 -->
<g id="node6" class="node">
<title>5</title>
<path fill="none" stroke="#567bd8" stroke-width="2" stroke-dasharray="5,2" d="M472,-180C472,-180 434,-180 434,-180 428,-180 422,-174 422,-168 422,-168 422,-156 422,-156 422,-150 428,-144 434,-144 434,-144 472,-144 472,-144 478,-144 484,-150 484,-156 484,-156 484,-168 484,-168 484,-174 478,-180 472,-180"/>
<text text-anchor="middle" x="453" y="-159.5" font-family="sans" font-size="10.00">qualimap</text>
</g>
<!-- 2&#45;&gt;5 -->
<g id="edge18" class="edge">
<title>2&#45;&gt;5</title>
<path fill="none" stroke="grey" stroke-width="2" d="M422.13,-215.7C426.85,-207.64 432.56,-197.89 437.78,-188.98"/>
<polygon fill="grey" stroke="grey" stroke-width="2" points="440.95,-190.5 442.98,-180.1 434.91,-186.96 440.95,-190.5"/>
</g>
<!-- 11 -->
<g id="node12" class="node">
<title>11</title>
<path fill="none" stroke="#56d8d0" stroke-width="2" d="M277.5,-180C277.5,-180 236.5,-180 236.5,-180 230.5,-180 224.5,-174 224.5,-168 224.5,-168 224.5,-156 224.5,-156 224.5,-150 230.5,-144 236.5,-144 236.5,-144 277.5,-144 277.5,-144 283.5,-144 289.5,-150 289.5,-156 289.5,-156 289.5,-168 289.5,-168 289.5,-174 283.5,-180 277.5,-180"/>
<text text-anchor="middle" x="257" y="-159.5" font-family="sans" font-size="10.00">freebayes</text>
</g>
<!-- 2&#45;&gt;11 -->
<g id="edge28" class="edge">
<title>2&#45;&gt;11</title>
<path fill="none" stroke="grey" stroke-width="2" d="M374.08,-215.88C351.32,-205.6 322.32,-192.5 298.89,-181.92"/>
<polygon fill="grey" stroke="grey" stroke-width="2" points="300.1,-178.62 289.54,-177.7 297.22,-185 300.1,-178.62"/>
</g>
<!-- 18 -->
<g id="node19" class="node">
<title>18</title>
<path fill="none" stroke="#56d8a9" stroke-width="2" stroke-dasharray="5,2" d="M647.5,-180C647.5,-180 552.5,-180 552.5,-180 546.5,-180 540.5,-174 540.5,-168 540.5,-168 540.5,-156 540.5,-156 540.5,-150 546.5,-144 552.5,-144 552.5,-144 647.5,-144 647.5,-144 653.5,-144 659.5,-150 659.5,-156 659.5,-156 659.5,-168 659.5,-168 659.5,-174 653.5,-180 647.5,-180"/>
<text text-anchor="middle" x="600" y="-159.5" font-family="sans" font-size="10.00">gatk_haplotypecaller</text>
</g>
<!-- 2&#45;&gt;18 -->
<g id="edge36" class="edge">
<title>2&#45;&gt;18</title>
<path fill="none" stroke="grey" stroke-width="2" d="M457.99,-215.88C484.15,-206.14 517.09,-193.87 544.65,-183.61"/>
<polygon fill="grey" stroke="grey" stroke-width="2" points="546.01,-186.84 554.16,-180.07 543.57,-180.28 546.01,-186.84"/>
</g>
<!-- 3&#45;&gt;0 -->
<g id="edge3" class="edge">
<title>3&#45;&gt;0</title>
<path fill="none" stroke="grey" stroke-width="2" d="M440.72,-71.88C473.91,-59.71 517.84,-43.62 548.47,-32.39"/>
<polygon fill="grey" stroke="grey" stroke-width="2" points="549.73,-35.65 557.91,-28.93 547.32,-29.08 549.73,-35.65"/>
</g>
<!-- 4&#45;&gt;0 -->
<g id="edge4" class="edge">
<title>4&#45;&gt;0</title>
<path fill="none" stroke="grey" stroke-width="2" d="M529.29,-71.7C538.43,-63.05 549.64,-52.45 559.6,-43.03"/>
<polygon fill="grey" stroke="grey" stroke-width="2" points="562.06,-45.52 566.92,-36.1 557.25,-40.43 562.06,-45.52"/>
</g>
<!-- 5&#45;&gt;0 -->
<g id="edge5" class="edge">
<title>5&#45;&gt;0</title>
<path fill="none" stroke="grey" stroke-width="2" d="M484.15,-148.08C515.65,-134.75 560.47,-114.96 566,-108 579.78,-90.65 584.17,-65.6 585.31,-46.49"/>
<polygon fill="grey" stroke="grey" stroke-width="2" points="588.82,-46.41 585.66,-36.3 581.82,-46.18 588.82,-46.41"/>
</g>
<!-- 6 -->
<g id="node7" class="node">
<title>6</title>
<path fill="none" stroke="#d8bc56" stroke-width="2" stroke-dasharray="5,2" d="M972.5,-180C972.5,-180 877.5,-180 877.5,-180 871.5,-180 865.5,-174 865.5,-168 865.5,-168 865.5,-156 865.5,-156 865.5,-150 871.5,-144 877.5,-144 877.5,-144 972.5,-144 972.5,-144 978.5,-144 984.5,-150 984.5,-156 984.5,-156 984.5,-168 984.5,-168 984.5,-174 978.5,-180 972.5,-180"/>
<text text-anchor="middle" x="925" y="-159.5" font-family="sans" font-size="10.00">gatk_markduplicates</text>
</g>
<!-- 6&#45;&gt;0 -->
<g id="edge6" class="edge">
<title>6&#45;&gt;0</title>
<path fill="none" stroke="grey" stroke-width="2" d="M901.96,-143.8C888.61,-133.65 871.61,-120.4 857,-108 839.02,-92.74 838.87,-82.99 818,-72 754.35,-38.5 670.04,-26.06 622.25,-21.53"/>
<polygon fill="grey" stroke="grey" stroke-width="2" points="622.33,-18.02 612.06,-20.63 621.71,-24.99 622.33,-18.02"/>
</g>
<!-- 7 -->
<g id="node8" class="node">
<title>7</title>
<path fill="none" stroke="#569ad8" stroke-width="2" stroke-dasharray="5,2" d="M972.5,-108C972.5,-108 877.5,-108 877.5,-108 871.5,-108 865.5,-102 865.5,-96 865.5,-96 865.5,-84 865.5,-84 865.5,-78 871.5,-72 877.5,-72 877.5,-72 972.5,-72 972.5,-72 978.5,-72 984.5,-78 984.5,-84 984.5,-84 984.5,-96 984.5,-96 984.5,-102 978.5,-108 972.5,-108"/>
<text text-anchor="middle" x="925" y="-93" font-family="sans" font-size="10.00">samtools_index</text>
<text text-anchor="middle" x="925" y="-82" font-family="sans" font-size="10.00">sample: mutated.md</text>
</g>
<!-- 6&#45;&gt;7 -->
<g id="edge21" class="edge">
<title>6&#45;&gt;7</title>
<path fill="none" stroke="grey" stroke-width="2" d="M925,-143.7C925,-135.98 925,-126.71 925,-118.11"/>
<polygon fill="grey" stroke="grey" stroke-width="2" points="928.5,-118.1 925,-108.1 921.5,-118.1 928.5,-118.1"/>
</g>
<!-- 8 -->
<g id="node9" class="node">
<title>8</title>
<path fill="none" stroke="#88d856" stroke-width="2" stroke-dasharray="5,2" d="M1081.5,-108C1081.5,-108 1014.5,-108 1014.5,-108 1008.5,-108 1002.5,-102 1002.5,-96 1002.5,-96 1002.5,-84 1002.5,-84 1002.5,-78 1008.5,-72 1014.5,-72 1014.5,-72 1081.5,-72 1081.5,-72 1087.5,-72 1093.5,-78 1093.5,-84 1093.5,-84 1093.5,-96 1093.5,-96 1093.5,-102 1087.5,-108 1081.5,-108"/>
<text text-anchor="middle" x="1048" y="-87.5" font-family="sans" font-size="10.00">samtools_stats</text>
</g>
<!-- 6&#45;&gt;8 -->
<g id="edge22" class="edge">
<title>6&#45;&gt;8</title>
<path fill="none" stroke="grey" stroke-width="2" d="M955.09,-143.88C971.32,-134.64 991.54,-123.13 1008.97,-113.21"/>
<polygon fill="grey" stroke="grey" stroke-width="2" points="1010.84,-116.18 1017.8,-108.19 1007.37,-110.09 1010.84,-116.18"/>
</g>
<!-- 9 -->
<g id="node10" class="node">
<title>9</title>
<path fill="none" stroke="#567bd8" stroke-width="2" stroke-dasharray="5,2" d="M797,-108C797,-108 759,-108 759,-108 753,-108 747,-102 747,-96 747,-96 747,-84 747,-84 747,-78 753,-72 759,-72 759,-72 797,-72 797,-72 803,-72 809,-78 809,-84 809,-84 809,-96 809,-96 809,-102 803,-108 797,-108"/>
<text text-anchor="middle" x="778" y="-87.5" font-family="sans" font-size="10.00">qualimap</text>
</g>
<!-- 6&#45;&gt;9 -->
<g id="edge23" class="edge">
<title>6&#45;&gt;9</title>
<path fill="none" stroke="grey" stroke-width="2" d="M889.04,-143.88C867.62,-133.68 840.39,-120.71 818.25,-110.17"/>
<polygon fill="grey" stroke="grey" stroke-width="2" points="819.64,-106.95 809.11,-105.81 816.63,-113.27 819.64,-106.95"/>
</g>
<!-- 7&#45;&gt;0 -->
<g id="edge7" class="edge">
<title>7&#45;&gt;0</title>
<path fill="none" stroke="grey" stroke-width="2" d="M865.26,-75.12C860.44,-74.05 855.64,-73 851,-72 769.59,-54.54 673.74,-35.92 622.24,-26.06"/>
<polygon fill="grey" stroke="grey" stroke-width="2" points="622.72,-22.59 612.24,-24.16 621.41,-29.47 622.72,-22.59"/>
</g>
<!-- 8&#45;&gt;0 -->
<g id="edge8" class="edge">
<title>8&#45;&gt;0</title>
<path fill="none" stroke="grey" stroke-width="2" d="M1002.49,-74.05C999.63,-73.31 996.78,-72.61 994,-72 858.71,-42.18 694.29,-27.16 622.06,-21.6"/>
<polygon fill="grey" stroke="grey" stroke-width="2" points="622.32,-18.11 612.08,-20.85 621.79,-25.09 622.32,-18.11"/>
</g>
<!-- 9&#45;&gt;0 -->
<g id="edge9" class="edge">
<title>9&#45;&gt;0</title>
<path fill="none" stroke="grey" stroke-width="2" d="M746.64,-75.43C743.73,-74.25 740.82,-73.08 738,-72 698.59,-56.82 652.74,-41.2 621.58,-30.89"/>
<polygon fill="grey" stroke="grey" stroke-width="2" points="622.6,-27.54 612.01,-27.74 620.41,-34.19 622.6,-27.54"/>
</g>
<!-- 10 -->
<g id="node11" class="node">
<title>10</title>
<path fill="none" stroke="#ced856" stroke-width="2" stroke-dasharray="5,2" d="M717,-108C717,-108 625,-108 625,-108 619,-108 613,-102 613,-96 613,-96 613,-84 613,-84 613,-78 619,-72 625,-72 625,-72 717,-72 717,-72 723,-72 729,-78 729,-84 729,-84 729,-96 729,-96 729,-102 723,-108 717,-108"/>
<text text-anchor="middle" x="671" y="-87.5" font-family="sans" font-size="10.00">gatk_genotypegvcfs</text>
</g>
<!-- 10&#45;&gt;0 -->
<g id="edge10" class="edge">
<title>10&#45;&gt;0</title>
<path fill="none" stroke="grey" stroke-width="2" d="M649.74,-71.7C638.91,-62.88 625.58,-52.03 613.84,-42.47"/>
<polygon fill="grey" stroke="grey" stroke-width="2" points="615.98,-39.7 606.01,-36.1 611.56,-45.13 615.98,-39.7"/>
</g>
<!-- 11&#45;&gt;0 -->
<g id="edge11" class="edge">
<title>11&#45;&gt;0</title>
<path fill="none" stroke="grey" stroke-width="2" d="M259.96,-143.99C264.46,-123.57 275.03,-89.86 298,-72 336.44,-42.11 478.96,-27.23 547.59,-21.66"/>
<polygon fill="grey" stroke="grey" stroke-width="2" points="548.25,-25.12 557.94,-20.85 547.7,-18.15 548.25,-25.12"/>
</g>
<!-- 12 -->
<g id="node13" class="node">
<title>12</title>
<path fill="none" stroke="#d89c56" stroke-width="2" stroke-dasharray="5,2" d="M76,-180C76,-180 12,-180 12,-180 6,-180 0,-174 0,-168 0,-168 0,-156 0,-156 0,-150 6,-144 12,-144 12,-144 76,-144 76,-144 82,-144 88,-150 88,-156 88,-156 88,-168 88,-168 88,-174 82,-180 76,-180"/>
<text text-anchor="middle" x="44" y="-165" font-family="sans" font-size="10.00">fastqc</text>
<text text-anchor="middle" x="44" y="-154" font-family="sans" font-size="10.00">sample: base1</text>
</g>
<!-- 12&#45;&gt;1 -->
<g id="edge12" class="edge">
<title>12&#45;&gt;1</title>
<path fill="none" stroke="grey" stroke-width="2" d="M71.4,-143.88C86.15,-134.66 104.53,-123.17 120.38,-113.26"/>
<polygon fill="grey" stroke="grey" stroke-width="2" points="122.26,-116.22 128.88,-107.95 118.55,-110.28 122.26,-116.22"/>
</g>
<!-- 13 -->
<g id="node14" class="node">
<title>13</title>
<path fill="none" stroke="#d89c56" stroke-width="2" stroke-dasharray="5,2" d="M194,-180C194,-180 118,-180 118,-180 112,-180 106,-174 106,-168 106,-168 106,-156 106,-156 106,-150 112,-144 118,-144 118,-144 194,-144 194,-144 200,-144 206,-150 206,-156 206,-156 206,-168 206,-168 206,-174 200,-180 194,-180"/>
<text text-anchor="middle" x="156" y="-165" font-family="sans" font-size="10.00">fastqc</text>
<text text-anchor="middle" x="156" y="-154" font-family="sans" font-size="10.00">sample: mutated</text>
</g>
<!-- 13&#45;&gt;1 -->
<g id="edge13" class="edge">
<title>13&#45;&gt;1</title>
<path fill="none" stroke="grey" stroke-width="2" d="M156,-143.7C156,-135.98 156,-126.71 156,-118.11"/>
<polygon fill="grey" stroke="grey" stroke-width="2" points="159.5,-118.1 156,-108.1 152.5,-118.1 159.5,-118.1"/>
</g>
<!-- 14 -->
<g id="node15" class="node">
<title>14</title>
<path fill="none" stroke="#d87556" stroke-width="2" stroke-dasharray="5,2" d="M472,-396C472,-396 410,-396 410,-396 404,-396 398,-390 398,-384 398,-384 398,-372 398,-372 398,-366 404,-360 410,-360 410,-360 472,-360 472,-360 478,-360 484,-366 484,-372 484,-372 484,-384 484,-384 484,-390 478,-396 472,-396"/>
<text text-anchor="middle" x="441" y="-375.5" font-family="sans" font-size="10.00">samtools_sort</text>
</g>
<!-- 14&#45;&gt;2 -->
<g id="edge14" class="edge">
<title>14&#45;&gt;2</title>
<path fill="none" stroke="grey" stroke-width="2" d="M448.57,-359.81C455.52,-341.54 463.52,-312.03 455,-288 451.34,-277.68 444.71,-267.9 437.74,-259.61"/>
<polygon fill="grey" stroke="grey" stroke-width="2" points="440.33,-257.26 431.04,-252.16 435.13,-261.94 440.33,-257.26"/>
</g>
<!-- 15 -->
<g id="node16" class="node">
<title>15</title>
<path fill="none" stroke="#569ad8" stroke-width="2" stroke-dasharray="5,2" d="M434,-324C434,-324 364,-324 364,-324 358,-324 352,-318 352,-312 352,-312 352,-300 352,-300 352,-294 358,-288 364,-288 364,-288 434,-288 434,-288 440,-288 446,-294 446,-300 446,-300 446,-312 446,-312 446,-318 440,-324 434,-324"/>
<text text-anchor="middle" x="399" y="-303.5" font-family="sans" font-size="10.00">samtools_index</text>
</g>
<!-- 14&#45;&gt;15 -->
<g id="edge33" class="edge">
<title>14&#45;&gt;15</title>
<path fill="none" stroke="grey" stroke-width="2" d="M430.62,-359.7C425.74,-351.56 419.81,-341.69 414.42,-332.7"/>
<polygon fill="grey" stroke="grey" stroke-width="2" points="417.41,-330.88 409.26,-324.1 411.41,-334.48 417.41,-330.88"/>
</g>
<!-- 15&#45;&gt;2 -->
<g id="edge15" class="edge">
<title>15&#45;&gt;2</title>
<path fill="none" stroke="grey" stroke-width="2" d="M402.21,-287.7C403.65,-279.98 405.37,-270.71 406.96,-262.11"/>
<polygon fill="grey" stroke="grey" stroke-width="2" points="410.44,-262.58 408.82,-252.1 403.56,-261.3 410.44,-262.58"/>
</g>
<!-- 16 -->
<g id="node17" class="node">
<title>16</title>
<path fill="none" stroke="#d87556" stroke-width="2" stroke-dasharray="5,2" d="M939,-324C939,-324 877,-324 877,-324 871,-324 865,-318 865,-312 865,-312 865,-300 865,-300 865,-294 871,-288 877,-288 877,-288 939,-288 939,-288 945,-288 951,-294 951,-300 951,-300 951,-312 951,-312 951,-318 945,-324 939,-324"/>
<text text-anchor="middle" x="908" y="-303.5" font-family="sans" font-size="10.00">samtools_sort</text>
</g>
<!-- 16&#45;&gt;6 -->
<g id="edge19" class="edge">
<title>16&#45;&gt;6</title>
<path fill="none" stroke="grey" stroke-width="2" d="M907.11,-287.83C906.47,-269.82 906.28,-240.76 910,-216 911.28,-207.49 913.51,-198.41 915.87,-190.22"/>
<polygon fill="grey" stroke="grey" stroke-width="2" points="919.29,-191.01 918.86,-180.42 912.6,-188.96 919.29,-191.01"/>
</g>
<!-- 17 -->
<g id="node18" class="node">
<title>17</title>
<path fill="none" stroke="#569ad8" stroke-width="2" stroke-dasharray="5,2" d="M1001,-252C1001,-252 931,-252 931,-252 925,-252 919,-246 919,-240 919,-240 919,-228 919,-228 919,-222 925,-216 931,-216 931,-216 1001,-216 1001,-216 1007,-216 1013,-222 1013,-228 1013,-228 1013,-240 1013,-240 1013,-246 1007,-252 1001,-252"/>
<text text-anchor="middle" x="966" y="-231.5" font-family="sans" font-size="10.00">samtools_index</text>
</g>
<!-- 16&#45;&gt;17 -->
<g id="edge35" class="edge">
<title>16&#45;&gt;17</title>
<path fill="none" stroke="grey" stroke-width="2" d="M922.34,-287.7C929.29,-279.3 937.77,-269.07 945.4,-259.86"/>
<polygon fill="grey" stroke="grey" stroke-width="2" points="948.14,-262.04 951.83,-252.1 942.75,-257.57 948.14,-262.04"/>
</g>
<!-- 17&#45;&gt;6 -->
<g id="edge20" class="edge">
<title>17&#45;&gt;6</title>
<path fill="none" stroke="grey" stroke-width="2" d="M955.87,-215.7C951.15,-207.64 945.44,-197.89 940.22,-188.98"/>
<polygon fill="grey" stroke="grey" stroke-width="2" points="943.09,-186.96 935.02,-180.1 937.05,-190.5 943.09,-186.96"/>
</g>
<!-- 18&#45;&gt;10 -->
<g id="edge24" class="edge">
<title>18&#45;&gt;10</title>
<path fill="none" stroke="grey" stroke-width="2" d="M617.55,-143.7C626.23,-135.14 636.86,-124.66 646.35,-115.3"/>
<polygon fill="grey" stroke="grey" stroke-width="2" points="648.99,-117.62 653.65,-108.1 644.07,-112.63 648.99,-117.62"/>
</g>
<!-- 19 -->
<g id="node20" class="node">
<title>19</title>
<path fill="none" stroke="#afd856" stroke-width="2" stroke-dasharray="5,2" d="M783.5,-540C783.5,-540 738.5,-540 738.5,-540 732.5,-540 726.5,-534 726.5,-528 726.5,-528 726.5,-516 726.5,-516 726.5,-510 732.5,-504 738.5,-504 738.5,-504 783.5,-504 783.5,-504 789.5,-504 795.5,-510 795.5,-516 795.5,-516 795.5,-528 795.5,-528 795.5,-534 789.5,-540 783.5,-540"/>
<text text-anchor="middle" x="761" y="-519.5" font-family="sans" font-size="10.00">bwa_index</text>
</g>
<!-- 19&#45;&gt;10 -->
<g id="edge25" class="edge">
<title>19&#45;&gt;10</title>
<path fill="none" stroke="grey" stroke-width="2" d="M777.49,-503.77C799.84,-478.53 837,-429.05 837,-379 837,-379 837,-379 837,-233 837,-174.16 776.02,-134.48 727.98,-112.35"/>
<polygon fill="grey" stroke="grey" stroke-width="2" points="729.13,-109.03 718.57,-108.16 726.28,-115.42 729.13,-109.03"/>
</g>
<!-- 19&#45;&gt;11 -->
<g id="edge29" class="edge">
<title>19&#45;&gt;11</title>
<path fill="none" stroke="grey" stroke-width="2" d="M762.78,-503.69C763.81,-483.3 762,-449.93 742,-432 683.3,-379.35 456.14,-437.35 389,-396 365.71,-381.66 288.42,-220.51 286,-216 281.26,-207.18 276.02,-197.57 271.32,-188.98"/>
<polygon fill="grey" stroke="grey" stroke-width="2" points="274.35,-187.23 266.47,-180.15 268.21,-190.6 274.35,-187.23"/>
</g>
<!-- 19&#45;&gt;18 -->
<g id="edge37" class="edge">
<title>19&#45;&gt;18</title>
<path fill="none" stroke="grey" stroke-width="2" d="M768.07,-503.97C774.59,-485.84 782.25,-456.44 775,-432 759.17,-378.64 661.44,-244.7 619.3,-188.48"/>
<polygon fill="grey" stroke="grey" stroke-width="2" points="621.85,-186.03 613.04,-180.14 616.25,-190.24 621.85,-186.03"/>
</g>
<!-- 22 -->
<g id="node23" class="node">
<title>22</title>
<path fill="none" stroke="#56c1d8" stroke-width="2" stroke-dasharray="5,2" d="M527,-468C527,-468 463,-468 463,-468 457,-468 451,-462 451,-456 451,-456 451,-444 451,-444 451,-438 457,-432 463,-432 463,-432 527,-432 527,-432 533,-432 539,-438 539,-444 539,-444 539,-456 539,-456 539,-462 533,-468 527,-468"/>
<text text-anchor="middle" x="495" y="-453" font-family="sans" font-size="10.00">bwa_mem</text>
<text text-anchor="middle" x="495" y="-442" font-family="sans" font-size="10.00">sample: base1</text>
</g>
<!-- 19&#45;&gt;22 -->
<g id="edge40" class="edge">
<title>19&#45;&gt;22</title>
<path fill="none" stroke="grey" stroke-width="2" d="M726.5,-511.92C681.46,-500.07 602.16,-479.2 549.09,-465.24"/>
<polygon fill="grey" stroke="grey" stroke-width="2" points="549.74,-461.79 539.18,-462.63 547.96,-468.56 549.74,-461.79"/>
</g>
<!-- 23 -->
<g id="node24" class="node">
<title>23</title>
<path fill="none" stroke="#56c1d8" stroke-width="2" stroke-dasharray="5,2" d="M721,-468C721,-468 645,-468 645,-468 639,-468 633,-462 633,-456 633,-456 633,-444 633,-444 633,-438 639,-432 645,-432 645,-432 721,-432 721,-432 727,-432 733,-438 733,-444 733,-444 733,-456 733,-456 733,-462 727,-468 721,-468"/>
<text text-anchor="middle" x="683" y="-453" font-family="sans" font-size="10.00">bwa_mem</text>
<text text-anchor="middle" x="683" y="-442" font-family="sans" font-size="10.00">sample: mutated</text>
</g>
<!-- 19&#45;&gt;23 -->
<g id="edge43" class="edge">
<title>19&#45;&gt;23</title>
<path fill="none" stroke="grey" stroke-width="2" d="M741.72,-503.7C732.08,-495.05 720.27,-484.45 709.77,-475.03"/>
<polygon fill="grey" stroke="grey" stroke-width="2" points="711.84,-472.18 702.06,-468.1 707.16,-477.39 711.84,-472.18"/>
</g>
<!-- 20 -->
<g id="node21" class="node">
<title>20</title>
<path fill="none" stroke="#56d88a" stroke-width="2" stroke-dasharray="5,2" d="M457,-540C457,-540 389,-540 389,-540 383,-540 377,-534 377,-528 377,-528 377,-516 377,-516 377,-510 383,-504 389,-504 389,-504 457,-504 457,-504 463,-504 469,-510 469,-516 469,-516 469,-528 469,-528 469,-534 463,-540 457,-540"/>
<text text-anchor="middle" x="423" y="-519.5" font-family="sans" font-size="10.00">samtools_faidx</text>
</g>
<!-- 20&#45;&gt;10 -->
<g id="edge26" class="edge">
<title>20&#45;&gt;10</title>
<path fill="none" stroke="grey" stroke-width="2" d="M417.74,-503.84C412.98,-484.79 408.58,-453.86 422,-432 440.52,-401.85 471.42,-424.04 493,-396 517.67,-363.95 512,-347.45 512,-307 512,-307 512,-307 512,-233 512,-192.46 505.46,-174.65 532,-144 550.14,-123.05 577.49,-110.36 603.15,-102.67"/>
<polygon fill="grey" stroke="grey" stroke-width="2" points="604.18,-106.02 612.87,-99.96 602.3,-99.27 604.18,-106.02"/>
</g>
<!-- 20&#45;&gt;11 -->
<g id="edge30" class="edge">
<title>20&#45;&gt;11</title>
<path fill="none" stroke="grey" stroke-width="2" d="M376.56,-506.03C324.72,-486.07 248,-445.32 248,-379 248,-379 248,-379 248,-305 248,-264.92 251.62,-218.59 254.26,-190.05"/>
<polygon fill="grey" stroke="grey" stroke-width="2" points="257.75,-190.31 255.22,-180.03 250.79,-189.65 257.75,-190.31"/>
</g>
<!-- 20&#45;&gt;18 -->
<g id="edge38" class="edge">
<title>20&#45;&gt;18</title>
<path fill="none" stroke="grey" stroke-width="2" d="M422.22,-503.95C422.23,-484.43 425.14,-452.5 442,-432 467.8,-400.63 498.71,-426.08 526,-396 540.19,-380.35 577.07,-248.1 592.76,-190.09"/>
<polygon fill="grey" stroke="grey" stroke-width="2" points="596.21,-190.73 595.44,-180.17 589.46,-188.91 596.21,-190.73"/>
</g>
<!-- 20&#45;&gt;22 -->
<g id="edge41" class="edge">
<title>20&#45;&gt;22</title>
<path fill="none" stroke="grey" stroke-width="2" d="M440.8,-503.7C449.6,-495.14 460.38,-484.66 470,-475.3"/>
<polygon fill="grey" stroke="grey" stroke-width="2" points="472.68,-477.58 477.41,-468.1 467.8,-472.57 472.68,-477.58"/>
</g>
<!-- 20&#45;&gt;23 -->
<g id="edge44" class="edge">
<title>20&#45;&gt;23</title>
<path fill="none" stroke="grey" stroke-width="2" d="M469.18,-508.57C512.1,-497.01 576.25,-479.74 623.09,-467.13"/>
<polygon fill="grey" stroke="grey" stroke-width="2" points="624.06,-470.49 632.81,-464.51 622.24,-463.73 624.06,-470.49"/>
</g>
<!-- 21 -->
<g id="node22" class="node">
<title>21</title>
<path fill="none" stroke="#68d856" stroke-width="2" stroke-dasharray="5,2" d="M586,-540C586,-540 548,-540 548,-540 542,-540 536,-534 536,-528 536,-528 536,-516 536,-516 536,-510 542,-504 548,-504 548,-504 586,-504 586,-504 592,-504 598,-510 598,-516 598,-516 598,-528 598,-528 598,-534 592,-540 586,-540"/>
<text text-anchor="middle" x="567" y="-519.5" font-family="sans" font-size="10.00">gatk_dict</text>
</g>
<!-- 21&#45;&gt;10 -->
<g id="edge27" class="edge">
<title>21&#45;&gt;10</title>
<path fill="none" stroke="grey" stroke-width="2" d="M577.95,-503.93C607.74,-457.21 688,-329.25 688,-307 688,-307 688,-307 688,-233 688,-192.93 681.24,-146.95 676.25,-118.43"/>
<polygon fill="grey" stroke="grey" stroke-width="2" points="679.66,-117.63 674.44,-108.41 672.77,-118.87 679.66,-117.63"/>
</g>
<!-- 21&#45;&gt;11 -->
<g id="edge31" class="edge">
<title>21&#45;&gt;11</title>
<path fill="none" stroke="grey" stroke-width="2" d="M535.74,-511.5C487.91,-495.41 396.67,-458.31 345,-396 293.02,-333.32 269.89,-236.76 261.3,-190.09"/>
<polygon fill="grey" stroke="grey" stroke-width="2" points="264.73,-189.38 259.55,-180.14 257.83,-190.59 264.73,-189.38"/>
</g>
<!-- 21&#45;&gt;18 -->
<g id="edge39" class="edge">
<title>21&#45;&gt;18</title>
<path fill="none" stroke="grey" stroke-width="2" d="M568.59,-503.73C573.9,-446.19 591,-260.66 597.48,-190.35"/>
<polygon fill="grey" stroke="grey" stroke-width="2" points="600.99,-190.37 598.42,-180.09 594.02,-189.73 600.99,-190.37"/>
</g>
<!-- 21&#45;&gt;22 -->
<g id="edge42" class="edge">
<title>21&#45;&gt;22</title>
<path fill="none" stroke="grey" stroke-width="2" d="M549.2,-503.7C540.4,-495.14 529.62,-484.66 520,-475.3"/>
<polygon fill="grey" stroke="grey" stroke-width="2" points="522.2,-472.57 512.59,-468.1 517.32,-477.58 522.2,-472.57"/>
</g>
<!-- 21&#45;&gt;23 -->
<g id="edge45" class="edge">
<title>21&#45;&gt;23</title>
<path fill="none" stroke="grey" stroke-width="2" d="M595.38,-503.88C610.54,-494.72 629.41,-483.34 645.74,-473.48"/>
<polygon fill="grey" stroke="grey" stroke-width="2" points="647.76,-476.35 654.51,-468.19 644.14,-470.36 647.76,-476.35"/>
</g>
<!-- 22&#45;&gt;14 -->
<g id="edge32" class="edge">
<title>22&#45;&gt;14</title>
<path fill="none" stroke="grey" stroke-width="2" d="M481.65,-431.7C475.24,-423.39 467.44,-413.28 460.39,-404.14"/>
<polygon fill="grey" stroke="grey" stroke-width="2" points="463.07,-401.88 454.19,-396.1 457.53,-406.16 463.07,-401.88"/>
</g>
<!-- 23&#45;&gt;16 -->
<g id="edge34" class="edge">
<title>23&#45;&gt;16</title>
<path fill="none" stroke="grey" stroke-width="2" d="M710.14,-431.87C750.68,-406.28 827.11,-358.05 872.19,-329.6"/>
<polygon fill="grey" stroke="grey" stroke-width="2" points="874.17,-332.49 880.76,-324.19 870.44,-326.57 874.17,-332.49"/>
</g>
</g>
</svg>
