<?xml version="1.0" encoding="UTF-8" standalone="no"?>
<!DOCTYPE svg PUBLIC "-//W3C//DTD SVG 1.1//EN"
 "http://www.w3.org/Graphics/SVG/1.1/DTD/svg11.dtd">
<!-- Generated by graphviz version 2.43.0 (0)
 -->
<!-- Title: snakemake_dag Pages: 1 -->
<svg width="1185pt" height="913pt"
 viewBox="0.00 0.00 1185.00 913.00" xmlns="http://www.w3.org/2000/svg" xmlns:xlink="http://www.w3.org/1999/xlink">
<g id="graph0" class="graph" transform="scale(1 1) rotate(0) translate(4 909)">
<title>snakemake_dag</title>
<polygon fill="white" stroke="transparent" points="-4,4 -4,-909 1181,-909 1181,4 -4,4"/>
<!-- 0 -->
<g id="node1" class="node">
<title>0</title>
<path fill="none" stroke="#5673d8" stroke-width="2" d="M928,-36C928,-36 898,-36 898,-36 892,-36 886,-30 886,-24 886,-24 886,-12 886,-12 886,-6 892,0 898,0 898,0 928,0 928,0 934,0 940,-6 940,-12 940,-12 940,-24 940,-24 940,-30 934,-36 928,-36"/>
<text text-anchor="middle" x="913" y="-15.5" font-family="sans" font-size="10.00">all</text>
</g>
<!-- 1 -->
<g id="node2" class="node">
<title>1</title>
<path fill="none" stroke="#56a9d8" stroke-width="2" d="M1024,-108C1024,-108 978,-108 978,-108 972,-108 966,-102 966,-96 966,-96 966,-84 966,-84 966,-78 972,-72 978,-72 978,-72 1024,-72 1024,-72 1030,-72 1036,-78 1036,-84 1036,-84 1036,-96 1036,-96 1036,-102 1030,-108 1024,-108"/>
<text text-anchor="middle" x="1001" y="-87.5" font-family="sans" font-size="10.00">strelka2sql</text>
</g>
<!-- 1&#45;&gt;0 -->
<g id="edge1" class="edge">
<title>1&#45;&gt;0</title>
<path fill="none" stroke="grey" stroke-width="2" d="M979.25,-71.7C968.16,-62.88 954.53,-52.03 942.51,-42.47"/>
<polygon fill="grey" stroke="grey" stroke-width="2" points="944.51,-39.59 934.5,-36.1 940.15,-45.07 944.51,-39.59"/>
</g>
<!-- 2 -->
<g id="node3" class="node">
<title>2</title>
<path fill="none" stroke="#56a9d8" stroke-width="2" d="M936,-108C936,-108 890,-108 890,-108 884,-108 878,-102 878,-96 878,-96 878,-84 878,-84 878,-78 884,-72 890,-72 890,-72 936,-72 936,-72 942,-72 948,-78 948,-84 948,-84 948,-96 948,-96 948,-102 942,-108 936,-108"/>
<text text-anchor="middle" x="913" y="-87.5" font-family="sans" font-size="10.00">strelka2sql</text>
</g>
<!-- 2&#45;&gt;0 -->
<g id="edge2" class="edge">
<title>2&#45;&gt;0</title>
<path fill="none" stroke="grey" stroke-width="2" d="M913,-71.7C913,-63.98 913,-54.71 913,-46.11"/>
<polygon fill="grey" stroke="grey" stroke-width="2" points="916.5,-46.1 913,-36.1 909.5,-46.1 916.5,-46.1"/>
</g>
<!-- 3 -->
<g id="node4" class="node">
<title>3</title>
<path fill="none" stroke="#80d856" stroke-width="2" d="M369,-180C369,-180 339,-180 339,-180 333,-180 327,-174 327,-168 327,-168 327,-156 327,-156 327,-150 333,-144 339,-144 339,-144 369,-144 369,-144 375,-144 381,-150 381,-156 381,-156 381,-168 381,-168 381,-174 375,-180 369,-180"/>
<text text-anchor="middle" x="354" y="-159.5" font-family="sans" font-size="10.00">multiqc</text>
</g>
<!-- 3&#45;&gt;0 -->
<g id="edge3" class="edge">
<title>3&#45;&gt;0</title>
<path fill="none" stroke="grey" stroke-width="2" d="M381.34,-154.05C473.19,-130.72 770.83,-55.11 875.87,-28.43"/>
<polygon fill="grey" stroke="grey" stroke-width="2" points="876.88,-31.79 885.71,-25.93 875.16,-25 876.88,-31.79"/>
</g>
<!-- 4 -->
<g id="node5" class="node">
<title>4</title>
<path fill="none" stroke="#b6d856" stroke-width="2" d="M1036.5,-180C1036.5,-180 989.5,-180 989.5,-180 983.5,-180 977.5,-174 977.5,-168 977.5,-168 977.5,-156 977.5,-156 977.5,-150 983.5,-144 989.5,-144 989.5,-144 1036.5,-144 1036.5,-144 1042.5,-144 1048.5,-150 1048.5,-156 1048.5,-156 1048.5,-168 1048.5,-168 1048.5,-174 1042.5,-180 1036.5,-180"/>
<text text-anchor="middle" x="1013" y="-159.5" font-family="sans" font-size="10.00">strelka2tsv</text>
</g>
<!-- 4&#45;&gt;1 -->
<g id="edge4" class="edge">
<title>4&#45;&gt;1</title>
<path fill="none" stroke="grey" stroke-width="2" d="M1010.03,-143.7C1008.71,-135.98 1007.12,-126.71 1005.65,-118.11"/>
<polygon fill="grey" stroke="grey" stroke-width="2" points="1009.07,-117.37 1003.93,-108.1 1002.17,-118.55 1009.07,-117.37"/>
</g>
<!-- 5 -->
<g id="node6" class="node">
<title>5</title>
<path fill="none" stroke="#b6d856" stroke-width="2" d="M936.5,-180C936.5,-180 889.5,-180 889.5,-180 883.5,-180 877.5,-174 877.5,-168 877.5,-168 877.5,-156 877.5,-156 877.5,-150 883.5,-144 889.5,-144 889.5,-144 936.5,-144 936.5,-144 942.5,-144 948.5,-150 948.5,-156 948.5,-156 948.5,-168 948.5,-168 948.5,-174 942.5,-180 936.5,-180"/>
<text text-anchor="middle" x="913" y="-159.5" font-family="sans" font-size="10.00">strelka2tsv</text>
</g>
<!-- 5&#45;&gt;2 -->
<g id="edge5" class="edge">
<title>5&#45;&gt;2</title>
<path fill="none" stroke="grey" stroke-width="2" d="M913,-143.7C913,-135.98 913,-126.71 913,-118.11"/>
<polygon fill="grey" stroke="grey" stroke-width="2" points="916.5,-118.1 913,-108.1 909.5,-118.1 916.5,-118.1"/>
</g>
<!-- 6 -->
<g id="node7" class="node">
<title>6</title>
<path fill="none" stroke="#d85656" stroke-width="2" d="M231.5,-254.5C231.5,-254.5 166.5,-254.5 166.5,-254.5 160.5,-254.5 154.5,-248.5 154.5,-242.5 154.5,-242.5 154.5,-230.5 154.5,-230.5 154.5,-224.5 160.5,-218.5 166.5,-218.5 166.5,-218.5 231.5,-218.5 231.5,-218.5 237.5,-218.5 243.5,-224.5 243.5,-230.5 243.5,-230.5 243.5,-242.5 243.5,-242.5 243.5,-248.5 237.5,-254.5 231.5,-254.5"/>
<text text-anchor="middle" x="199" y="-239.5" font-family="sans" font-size="10.00">fastqc</text>
<text text-anchor="middle" x="199" y="-228.5" font-family="sans" font-size="10.00">library: mutant</text>
</g>
<!-- 6&#45;&gt;3 -->
<g id="edge6" class="edge">
<title>6&#45;&gt;3</title>
<path fill="none" stroke="grey" stroke-width="2" d="M235.73,-218.32C260.39,-206.78 292.75,-191.65 317.38,-180.13"/>
<polygon fill="grey" stroke="grey" stroke-width="2" points="319.17,-183.16 326.75,-175.75 316.2,-176.81 319.17,-183.16"/>
</g>
<!-- 7 -->
<g id="node8" class="node">
<title>7</title>
<path fill="none" stroke="#d85656" stroke-width="2" d="M86,-254.5C86,-254.5 12,-254.5 12,-254.5 6,-254.5 0,-248.5 0,-242.5 0,-242.5 0,-230.5 0,-230.5 0,-224.5 6,-218.5 12,-218.5 12,-218.5 86,-218.5 86,-218.5 92,-218.5 98,-224.5 98,-230.5 98,-230.5 98,-242.5 98,-242.5 98,-248.5 92,-254.5 86,-254.5"/>
<text text-anchor="middle" x="49" y="-239.5" font-family="sans" font-size="10.00">fastqc</text>
<text text-anchor="middle" x="49" y="-228.5" font-family="sans" font-size="10.00">library: revertant</text>
</g>
<!-- 7&#45;&gt;3 -->
<g id="edge7" class="edge">
<title>7&#45;&gt;3</title>
<path fill="none" stroke="grey" stroke-width="2" d="M98.07,-219.87C102.76,-218.51 107.46,-217.2 112,-216 184.06,-196.99 269.45,-179.43 317.1,-170.07"/>
<polygon fill="grey" stroke="grey" stroke-width="2" points="317.82,-173.5 326.96,-168.14 316.48,-166.63 317.82,-173.5"/>
</g>
<!-- 8 -->
<g id="node9" class="node">
<title>8</title>
<path fill="none" stroke="#56d863" stroke-width="2" d="M316.5,-833C316.5,-833 251.5,-833 251.5,-833 245.5,-833 239.5,-827 239.5,-821 239.5,-821 239.5,-809 239.5,-809 239.5,-803 245.5,-797 251.5,-797 251.5,-797 316.5,-797 316.5,-797 322.5,-797 328.5,-803 328.5,-809 328.5,-809 328.5,-821 328.5,-821 328.5,-827 322.5,-833 316.5,-833"/>
<text text-anchor="middle" x="284" y="-818" font-family="sans" font-size="10.00">trimmomatic</text>
<text text-anchor="middle" x="284" y="-807" font-family="sans" font-size="10.00">library: mutant</text>
</g>
<!-- 8&#45;&gt;3 -->
<g id="edge8" class="edge">
<title>8&#45;&gt;3</title>
<path fill="none" stroke="grey" stroke-width="2" d="M276.45,-796.97C238.2,-709.57 70.55,-311.69 145,-216 165.89,-189.15 262.5,-173.71 316.76,-167.01"/>
<polygon fill="grey" stroke="grey" stroke-width="2" points="317.17,-170.49 326.69,-165.82 316.34,-163.53 317.17,-170.49"/>
</g>
<!-- 30 -->
<g id="node31" class="node">
<title>30</title>
<path fill="none" stroke="#d87556" stroke-width="2" d="M585,-761C585,-761 541,-761 541,-761 535,-761 529,-755 529,-749 529,-749 529,-737 529,-737 529,-731 535,-725 541,-725 541,-725 585,-725 585,-725 591,-725 597,-731 597,-737 597,-737 597,-749 597,-749 597,-755 591,-761 585,-761"/>
<text text-anchor="middle" x="563" y="-740.5" font-family="sans" font-size="10.00">bwa_mem</text>
</g>
<!-- 8&#45;&gt;30 -->
<g id="edge58" class="edge">
<title>8&#45;&gt;30</title>
<path fill="none" stroke="grey" stroke-width="2" d="M328.52,-802.83C380.73,-789.73 466.75,-768.15 518.81,-755.09"/>
<polygon fill="grey" stroke="grey" stroke-width="2" points="519.91,-758.42 528.76,-752.59 518.2,-751.63 519.91,-758.42"/>
</g>
<!-- 9 -->
<g id="node10" class="node">
<title>9</title>
<path fill="none" stroke="#56d863" stroke-width="2" d="M476,-833C476,-833 402,-833 402,-833 396,-833 390,-827 390,-821 390,-821 390,-809 390,-809 390,-803 396,-797 402,-797 402,-797 476,-797 476,-797 482,-797 488,-803 488,-809 488,-809 488,-821 488,-821 488,-827 482,-833 476,-833"/>
<text text-anchor="middle" x="439" y="-818" font-family="sans" font-size="10.00">trimmomatic</text>
<text text-anchor="middle" x="439" y="-807" font-family="sans" font-size="10.00">library: revertant</text>
</g>
<!-- 9&#45;&gt;3 -->
<g id="edge9" class="edge">
<title>9&#45;&gt;3</title>
<path fill="none" stroke="grey" stroke-width="2" d="M432.57,-796.54C407.92,-728.59 319.44,-474.78 291,-257 288.64,-238.93 283.31,-232.52 291,-216 296.96,-203.2 307.71,-192.38 318.65,-183.93"/>
<polygon fill="grey" stroke="grey" stroke-width="2" points="320.92,-186.61 326.99,-177.93 316.83,-180.93 320.92,-186.61"/>
</g>
<!-- 31 -->
<g id="node32" class="node">
<title>31</title>
<path fill="none" stroke="#d87556" stroke-width="2" d="M671,-761C671,-761 627,-761 627,-761 621,-761 615,-755 615,-749 615,-749 615,-737 615,-737 615,-731 621,-725 627,-725 627,-725 671,-725 671,-725 677,-725 683,-731 683,-737 683,-737 683,-749 683,-749 683,-755 677,-761 671,-761"/>
<text text-anchor="middle" x="649" y="-740.5" font-family="sans" font-size="10.00">bwa_mem</text>
</g>
<!-- 9&#45;&gt;31 -->
<g id="edge61" class="edge">
<title>9&#45;&gt;31</title>
<path fill="none" stroke="grey" stroke-width="2" d="M488.26,-799.35C519.45,-789.84 560.81,-776.84 605.28,-761.15"/>
<polygon fill="grey" stroke="grey" stroke-width="2" points="606.56,-764.41 614.81,-757.76 604.22,-757.81 606.56,-764.41"/>
</g>
<!-- 10 -->
<g id="node11" class="node">
<title>10</title>
<path fill="none" stroke="#61d856" stroke-width="2" d="M455.5,-329C455.5,-329 388.5,-329 388.5,-329 382.5,-329 376.5,-323 376.5,-317 376.5,-317 376.5,-305 376.5,-305 376.5,-299 382.5,-293 388.5,-293 388.5,-293 455.5,-293 455.5,-293 461.5,-293 467.5,-299 467.5,-305 467.5,-305 467.5,-317 467.5,-317 467.5,-323 461.5,-329 455.5,-329"/>
<text text-anchor="middle" x="422" y="-308.5" font-family="sans" font-size="10.00">samtools_stats</text>
</g>
<!-- 10&#45;&gt;3 -->
<g id="edge10" class="edge">
<title>10&#45;&gt;3</title>
<path fill="none" stroke="grey" stroke-width="2" d="M424.76,-292.67C427.04,-272.99 428.21,-240.43 416,-216 409.95,-203.91 399.79,-193.46 389.43,-185.12"/>
<polygon fill="grey" stroke="grey" stroke-width="2" points="391.24,-182.1 381.15,-178.89 387.03,-187.7 391.24,-182.1"/>
</g>
<!-- 11 -->
<g id="node12" class="node">
<title>11</title>
<path fill="none" stroke="#61d856" stroke-width="2" d="M851.5,-329C851.5,-329 784.5,-329 784.5,-329 778.5,-329 772.5,-323 772.5,-317 772.5,-317 772.5,-305 772.5,-305 772.5,-299 778.5,-293 784.5,-293 784.5,-293 851.5,-293 851.5,-293 857.5,-293 863.5,-299 863.5,-305 863.5,-305 863.5,-317 863.5,-317 863.5,-323 857.5,-329 851.5,-329"/>
<text text-anchor="middle" x="818" y="-308.5" font-family="sans" font-size="10.00">samtools_stats</text>
</g>
<!-- 11&#45;&gt;3 -->
<g id="edge11" class="edge">
<title>11&#45;&gt;3</title>
<path fill="none" stroke="grey" stroke-width="2" d="M783.39,-292.97C740.34,-272.35 664.2,-237.7 596,-216 524.98,-193.4 439.22,-177.11 391.22,-168.95"/>
<polygon fill="grey" stroke="grey" stroke-width="2" points="391.73,-165.48 381.29,-167.28 390.57,-172.39 391.73,-165.48"/>
</g>
<!-- 12 -->
<g id="node13" class="node">
<title>12</title>
<path fill="none" stroke="#56d89a" stroke-width="2" d="M395.5,-254.5C395.5,-254.5 312.5,-254.5 312.5,-254.5 306.5,-254.5 300.5,-248.5 300.5,-242.5 300.5,-242.5 300.5,-230.5 300.5,-230.5 300.5,-224.5 306.5,-218.5 312.5,-218.5 312.5,-218.5 395.5,-218.5 395.5,-218.5 401.5,-218.5 407.5,-224.5 407.5,-230.5 407.5,-230.5 407.5,-242.5 407.5,-242.5 407.5,-248.5 401.5,-254.5 395.5,-254.5"/>
<text text-anchor="middle" x="354" y="-234" font-family="sans" font-size="10.00">mosdepth_regions</text>
</g>
<!-- 12&#45;&gt;3 -->
<g id="edge12" class="edge">
<title>12&#45;&gt;3</title>
<path fill="none" stroke="grey" stroke-width="2" d="M354,-218.32C354,-209.92 354,-199.62 354,-190.19"/>
<polygon fill="grey" stroke="grey" stroke-width="2" points="357.5,-190.06 354,-180.06 350.5,-190.06 357.5,-190.06"/>
</g>
<!-- 13 -->
<g id="node14" class="node">
<title>13</title>
<path fill="none" stroke="#56d89a" stroke-width="2" d="M575.5,-254.5C575.5,-254.5 492.5,-254.5 492.5,-254.5 486.5,-254.5 480.5,-248.5 480.5,-242.5 480.5,-242.5 480.5,-230.5 480.5,-230.5 480.5,-224.5 486.5,-218.5 492.5,-218.5 492.5,-218.5 575.5,-218.5 575.5,-218.5 581.5,-218.5 587.5,-224.5 587.5,-230.5 587.5,-230.5 587.5,-242.5 587.5,-242.5 587.5,-248.5 581.5,-254.5 575.5,-254.5"/>
<text text-anchor="middle" x="534" y="-234" font-family="sans" font-size="10.00">mosdepth_regions</text>
</g>
<!-- 13&#45;&gt;3 -->
<g id="edge13" class="edge">
<title>13&#45;&gt;3</title>
<path fill="none" stroke="grey" stroke-width="2" d="M491.34,-218.32C460.71,-205.98 419.84,-189.52 390.67,-177.77"/>
<polygon fill="grey" stroke="grey" stroke-width="2" points="391.84,-174.47 381.25,-173.98 389.22,-180.96 391.84,-174.47"/>
</g>
<!-- 14 -->
<g id="node15" class="node">
<title>14</title>
<path fill="none" stroke="#ced856" stroke-width="2" d="M1058.5,-257C1058.5,-257 991.5,-257 991.5,-257 985.5,-257 979.5,-251 979.5,-245 979.5,-245 979.5,-228 979.5,-228 979.5,-222 985.5,-216 991.5,-216 991.5,-216 1058.5,-216 1058.5,-216 1064.5,-216 1070.5,-222 1070.5,-228 1070.5,-228 1070.5,-245 1070.5,-245 1070.5,-251 1064.5,-257 1058.5,-257"/>
<text text-anchor="middle" x="1025" y="-245" font-family="sans" font-size="10.00">strelka2</text>
<text text-anchor="middle" x="1025" y="-234" font-family="sans" font-size="10.00">base: revertant</text>
<text text-anchor="middle" x="1025" y="-223" font-family="sans" font-size="10.00">tumor: mutant</text>
</g>
<!-- 14&#45;&gt;4 -->
<g id="edge14" class="edge">
<title>14&#45;&gt;4</title>
<path fill="none" stroke="grey" stroke-width="2" d="M1021.72,-215.69C1020.43,-207.91 1018.93,-198.84 1017.54,-190.45"/>
<polygon fill="grey" stroke="grey" stroke-width="2" points="1020.95,-189.61 1015.87,-180.32 1014.05,-190.76 1020.95,-189.61"/>
</g>
<!-- 15 -->
<g id="node16" class="node">
<title>15</title>
<path fill="none" stroke="#ced856" stroke-width="2" d="M949.5,-257C949.5,-257 876.5,-257 876.5,-257 870.5,-257 864.5,-251 864.5,-245 864.5,-245 864.5,-228 864.5,-228 864.5,-222 870.5,-216 876.5,-216 876.5,-216 949.5,-216 949.5,-216 955.5,-216 961.5,-222 961.5,-228 961.5,-228 961.5,-245 961.5,-245 961.5,-251 955.5,-257 949.5,-257"/>
<text text-anchor="middle" x="913" y="-245" font-family="sans" font-size="10.00">strelka2</text>
<text text-anchor="middle" x="913" y="-234" font-family="sans" font-size="10.00">base: mutant</text>
<text text-anchor="middle" x="913" y="-223" font-family="sans" font-size="10.00">tumor: revertant</text>
</g>
<!-- 15&#45;&gt;5 -->
<g id="edge15" class="edge">
<title>15&#45;&gt;5</title>
<path fill="none" stroke="grey" stroke-width="2" d="M913,-215.69C913,-207.91 913,-198.84 913,-190.45"/>
<polygon fill="grey" stroke="grey" stroke-width="2" points="916.5,-190.32 913,-180.32 909.5,-190.32 916.5,-190.32"/>
</g>
<!-- 16 -->
<g id="node17" class="node">
<title>16</title>
<path fill="none" stroke="#d8c356" stroke-width="2" d="M742.5,-401C742.5,-401 655.5,-401 655.5,-401 649.5,-401 643.5,-395 643.5,-389 643.5,-389 643.5,-377 643.5,-377 643.5,-371 649.5,-365 655.5,-365 655.5,-365 742.5,-365 742.5,-365 748.5,-365 754.5,-371 754.5,-377 754.5,-377 754.5,-389 754.5,-389 754.5,-395 748.5,-401 742.5,-401"/>
<text text-anchor="middle" x="699" y="-380.5" font-family="sans" font-size="10.00">samtools_view_md</text>
</g>
<!-- 16&#45;&gt;10 -->
<g id="edge16" class="edge">
<title>16&#45;&gt;10</title>
<path fill="none" stroke="grey" stroke-width="2" d="M643.28,-367.92C595.05,-355.73 525.66,-338.2 477.5,-326.02"/>
<polygon fill="grey" stroke="grey" stroke-width="2" points="478.11,-322.57 467.56,-323.51 476.39,-329.36 478.11,-322.57"/>
</g>
<!-- 16&#45;&gt;12 -->
<g id="edge19" class="edge">
<title>16&#45;&gt;12</title>
<path fill="none" stroke="grey" stroke-width="2" d="M643.23,-380.84C558.84,-377.86 404.54,-367.19 367,-329 350.62,-312.34 348.67,-285.03 350.03,-264.57"/>
<polygon fill="grey" stroke="grey" stroke-width="2" points="353.52,-264.88 350.99,-254.59 346.55,-264.21 353.52,-264.88"/>
</g>
<!-- 16&#45;&gt;14 -->
<g id="edge27" class="edge">
<title>16&#45;&gt;14</title>
<path fill="none" stroke="grey" stroke-width="2" d="M754.63,-375.8C838.16,-366 988.16,-346.25 1006,-329 1022.22,-313.32 1026.42,-287.69 1026.88,-267.54"/>
<polygon fill="grey" stroke="grey" stroke-width="2" points="1030.38,-267.27 1026.81,-257.29 1023.38,-267.32 1030.38,-267.27"/>
</g>
<!-- 16&#45;&gt;15 -->
<g id="edge33" class="edge">
<title>16&#45;&gt;15</title>
<path fill="none" stroke="grey" stroke-width="2" d="M707.49,-364.91C718.15,-345.06 738.22,-312.52 764,-293 790.59,-272.86 825.28,-259.37 854.49,-250.73"/>
<polygon fill="grey" stroke="grey" stroke-width="2" points="855.5,-254.08 864.17,-247.99 853.59,-247.35 855.5,-254.08"/>
</g>
<!-- 20 -->
<g id="node21" class="node">
<title>20</title>
<path fill="none" stroke="#568ad8" stroke-width="2" d="M703.5,-329C703.5,-329 612.5,-329 612.5,-329 606.5,-329 600.5,-323 600.5,-317 600.5,-317 600.5,-305 600.5,-305 600.5,-299 606.5,-293 612.5,-293 612.5,-293 703.5,-293 703.5,-293 709.5,-293 715.5,-299 715.5,-305 715.5,-305 715.5,-317 715.5,-317 715.5,-323 709.5,-329 703.5,-329"/>
<text text-anchor="middle" x="658" y="-308.5" font-family="sans" font-size="10.00">samtools_index_md</text>
</g>
<!-- 16&#45;&gt;20 -->
<g id="edge41" class="edge">
<title>16&#45;&gt;20</title>
<path fill="none" stroke="grey" stroke-width="2" d="M688.87,-364.7C684.15,-356.64 678.44,-346.89 673.22,-337.98"/>
<polygon fill="grey" stroke="grey" stroke-width="2" points="676.09,-335.96 668.02,-329.1 670.05,-339.5 676.09,-335.96"/>
</g>
<!-- 17 -->
<g id="node18" class="node">
<title>17</title>
<path fill="none" stroke="#d8c356" stroke-width="2" d="M982.5,-401C982.5,-401 895.5,-401 895.5,-401 889.5,-401 883.5,-395 883.5,-389 883.5,-389 883.5,-377 883.5,-377 883.5,-371 889.5,-365 895.5,-365 895.5,-365 982.5,-365 982.5,-365 988.5,-365 994.5,-371 994.5,-377 994.5,-377 994.5,-389 994.5,-389 994.5,-395 988.5,-401 982.5,-401"/>
<text text-anchor="middle" x="939" y="-380.5" font-family="sans" font-size="10.00">samtools_view_md</text>
</g>
<!-- 17&#45;&gt;11 -->
<g id="edge17" class="edge">
<title>17&#45;&gt;11</title>
<path fill="none" stroke="grey" stroke-width="2" d="M909.4,-364.88C893.43,-355.64 873.54,-344.13 856.39,-334.21"/>
<polygon fill="grey" stroke="grey" stroke-width="2" points="858.12,-331.17 847.71,-329.19 854.62,-337.23 858.12,-331.17"/>
</g>
<!-- 17&#45;&gt;13 -->
<g id="edge23" class="edge">
<title>17&#45;&gt;13</title>
<path fill="none" stroke="grey" stroke-width="2" d="M883.27,-376.04C791.41,-365.85 615.95,-344.64 592,-329 568.48,-313.64 552.67,-285.06 543.57,-263.91"/>
<polygon fill="grey" stroke="grey" stroke-width="2" points="546.75,-262.45 539.75,-254.51 540.27,-265.09 546.75,-262.45"/>
</g>
<!-- 17&#45;&gt;14 -->
<g id="edge28" class="edge">
<title>17&#45;&gt;14</title>
<path fill="none" stroke="grey" stroke-width="2" d="M981.86,-364.96C997.26,-356.54 1013.03,-344.75 1022,-329 1032.57,-310.44 1032.87,-286.15 1030.77,-267.27"/>
<polygon fill="grey" stroke="grey" stroke-width="2" points="1034.2,-266.55 1029.36,-257.13 1027.27,-267.51 1034.2,-266.55"/>
</g>
<!-- 17&#45;&gt;15 -->
<g id="edge32" class="edge">
<title>17&#45;&gt;15</title>
<path fill="none" stroke="grey" stroke-width="2" d="M971.53,-364.98C984.79,-356.18 998.7,-344.09 1006,-329 1012.97,-314.6 1013.9,-306.91 1006,-293 997.93,-278.78 984.61,-267.82 970.54,-259.54"/>
<polygon fill="grey" stroke="grey" stroke-width="2" points="972.18,-256.45 961.72,-254.73 968.83,-262.59 972.18,-256.45"/>
</g>
<!-- 21 -->
<g id="node22" class="node">
<title>21</title>
<path fill="none" stroke="#568ad8" stroke-width="2" d="M984.5,-329C984.5,-329 893.5,-329 893.5,-329 887.5,-329 881.5,-323 881.5,-317 881.5,-317 881.5,-305 881.5,-305 881.5,-299 887.5,-293 893.5,-293 893.5,-293 984.5,-293 984.5,-293 990.5,-293 996.5,-299 996.5,-305 996.5,-305 996.5,-317 996.5,-317 996.5,-323 990.5,-329 984.5,-329"/>
<text text-anchor="middle" x="939" y="-308.5" font-family="sans" font-size="10.00">samtools_index_md</text>
</g>
<!-- 17&#45;&gt;21 -->
<g id="edge42" class="edge">
<title>17&#45;&gt;21</title>
<path fill="none" stroke="grey" stroke-width="2" d="M939,-364.7C939,-356.98 939,-347.71 939,-339.11"/>
<polygon fill="grey" stroke="grey" stroke-width="2" points="942.5,-339.1 939,-329.1 935.5,-339.1 942.5,-339.1"/>
</g>
<!-- 18 -->
<g id="node19" class="node">
<title>18</title>
<path fill="none" stroke="#56d8d0" stroke-width="2" d="M777,-905C777,-905 721,-905 721,-905 715,-905 709,-899 709,-893 709,-893 709,-881 709,-881 709,-875 715,-869 721,-869 721,-869 777,-869 777,-869 783,-869 789,-875 789,-881 789,-881 789,-893 789,-893 789,-899 783,-905 777,-905"/>
<text text-anchor="middle" x="749" y="-884.5" font-family="sans" font-size="10.00">cp_reference</text>
</g>
<!-- 18&#45;&gt;12 -->
<g id="edge18" class="edge">
<title>18&#45;&gt;12</title>
<path fill="none" stroke="grey" stroke-width="2" d="M708.77,-884.48C589.17,-879.62 241.64,-863.04 201,-833 166.55,-807.53 164,-786.84 164,-744 164,-744 164,-744 164,-382 164,-316.87 235.61,-277.25 290.9,-256.36"/>
<polygon fill="grey" stroke="grey" stroke-width="2" points="292.12,-259.64 300.32,-252.92 289.72,-253.07 292.12,-259.64"/>
</g>
<!-- 18&#45;&gt;13 -->
<g id="edge22" class="edge">
<title>18&#45;&gt;13</title>
<path fill="none" stroke="grey" stroke-width="2" d="M708.73,-884.41C593.26,-879.5 266.9,-863.08 230,-833 197.86,-806.8 202,-785.47 202,-744 202,-744 202,-744 202,-670 202,-475.58 362.89,-487.13 476,-329 491.35,-307.54 507.3,-282.12 518.57,-263.53"/>
<polygon fill="grey" stroke="grey" stroke-width="2" points="521.71,-265.11 523.86,-254.74 515.71,-261.5 521.71,-265.11"/>
</g>
<!-- 18&#45;&gt;14 -->
<g id="edge26" class="edge">
<title>18&#45;&gt;14</title>
<path fill="none" stroke="grey" stroke-width="2" d="M789.35,-884.36C848.43,-880.76 960.99,-869.3 1049,-833 1113.05,-806.58 1177,-813.29 1177,-744 1177,-744 1177,-744 1177,-382 1177,-326.31 1122.73,-285.58 1079.05,-261.82"/>
<polygon fill="grey" stroke="grey" stroke-width="2" points="1080.67,-258.71 1070.19,-257.15 1077.41,-264.91 1080.67,-258.71"/>
</g>
<!-- 18&#45;&gt;15 -->
<g id="edge31" class="edge">
<title>18&#45;&gt;15</title>
<path fill="none" stroke="grey" stroke-width="2" d="M789.21,-883.51C839.98,-879.02 928.92,-866.66 997,-833 1051.54,-806.04 1101,-804.84 1101,-744 1101,-744 1101,-744 1101,-382 1101,-329.11 1063.85,-325.34 1022,-293 1006.19,-280.78 987.27,-270.05 969.67,-261.36"/>
<polygon fill="grey" stroke="grey" stroke-width="2" points="971.14,-258.18 960.61,-257 968.11,-264.49 971.14,-258.18"/>
</g>
<!-- 18&#45;&gt;16 -->
<g id="edge37" class="edge">
<title>18&#45;&gt;16</title>
<path fill="none" stroke="grey" stroke-width="2" d="M756.69,-868.91C767.79,-842.62 787,-790.45 787,-744 787,-744 787,-744 787,-526 787,-485.55 789.59,-471.2 768,-437 760.61,-425.29 749.67,-415.18 738.67,-407.01"/>
<polygon fill="grey" stroke="grey" stroke-width="2" points="740.5,-404.02 730.3,-401.15 736.48,-409.76 740.5,-404.02"/>
</g>
<!-- 18&#45;&gt;17 -->
<g id="edge39" class="edge">
<title>18&#45;&gt;17</title>
<path fill="none" stroke="grey" stroke-width="2" d="M789.13,-883.1C864.34,-875.24 1019,-846.61 1019,-744 1019,-744 1019,-744 1019,-526 1019,-485.55 1020.55,-471.84 1000,-437 993.36,-425.75 983.49,-415.67 973.6,-407.4"/>
<polygon fill="grey" stroke="grey" stroke-width="2" points="975.75,-404.64 965.74,-401.17 971.4,-410.12 975.75,-404.64"/>
</g>
<!-- 19 -->
<g id="node20" class="node">
<title>19</title>
<path fill="none" stroke="#56c1d8" stroke-width="2" d="M585.5,-833C585.5,-833 540.5,-833 540.5,-833 534.5,-833 528.5,-827 528.5,-821 528.5,-821 528.5,-809 528.5,-809 528.5,-803 534.5,-797 540.5,-797 540.5,-797 585.5,-797 585.5,-797 591.5,-797 597.5,-803 597.5,-809 597.5,-809 597.5,-821 597.5,-821 597.5,-827 591.5,-833 585.5,-833"/>
<text text-anchor="middle" x="563" y="-812.5" font-family="sans" font-size="10.00">bwa_index</text>
</g>
<!-- 18&#45;&gt;19 -->
<g id="edge40" class="edge">
<title>18&#45;&gt;19</title>
<path fill="none" stroke="grey" stroke-width="2" d="M708.64,-870.81C678.75,-859.56 638.05,-844.25 607.27,-832.66"/>
<polygon fill="grey" stroke="grey" stroke-width="2" points="608.25,-829.29 597.65,-829.04 605.78,-835.84 608.25,-829.29"/>
</g>
<!-- 22 -->
<g id="node23" class="node">
<title>22</title>
<path fill="none" stroke="#97d856" stroke-width="2" d="M746.5,-473C746.5,-473 651.5,-473 651.5,-473 645.5,-473 639.5,-467 639.5,-461 639.5,-461 639.5,-449 639.5,-449 639.5,-443 645.5,-437 651.5,-437 651.5,-437 746.5,-437 746.5,-437 752.5,-437 758.5,-443 758.5,-449 758.5,-449 758.5,-461 758.5,-461 758.5,-467 752.5,-473 746.5,-473"/>
<text text-anchor="middle" x="699" y="-452.5" font-family="sans" font-size="10.00">gatk_markduplicates</text>
</g>
<!-- 18&#45;&gt;22 -->
<g id="edge44" class="edge">
<title>18&#45;&gt;22</title>
<path fill="none" stroke="grey" stroke-width="2" d="M749,-868.95C749,-842.29 749,-789.11 749,-744 749,-744 749,-744 749,-598 749,-555.68 729,-510.09 714.3,-482.3"/>
<polygon fill="grey" stroke="grey" stroke-width="2" points="717.22,-480.35 709.36,-473.24 711.07,-483.7 717.22,-480.35"/>
</g>
<!-- 23 -->
<g id="node24" class="node">
<title>23</title>
<path fill="none" stroke="#97d856" stroke-width="2" d="M978.5,-473C978.5,-473 883.5,-473 883.5,-473 877.5,-473 871.5,-467 871.5,-461 871.5,-461 871.5,-449 871.5,-449 871.5,-443 877.5,-437 883.5,-437 883.5,-437 978.5,-437 978.5,-437 984.5,-437 990.5,-443 990.5,-449 990.5,-449 990.5,-461 990.5,-461 990.5,-467 984.5,-473 978.5,-473"/>
<text text-anchor="middle" x="931" y="-452.5" font-family="sans" font-size="10.00">gatk_markduplicates</text>
</g>
<!-- 18&#45;&gt;23 -->
<g id="edge47" class="edge">
<title>18&#45;&gt;23</title>
<path fill="none" stroke="grey" stroke-width="2" d="M789.14,-879.55C854.09,-866.58 975,-830.77 975,-744 975,-744 975,-744 975,-598 975,-556.21 957.4,-510.48 944.46,-482.51"/>
<polygon fill="grey" stroke="grey" stroke-width="2" points="947.58,-480.92 940.12,-473.39 941.26,-483.93 947.58,-480.92"/>
</g>
<!-- 28 -->
<g id="node29" class="node">
<title>28</title>
<path fill="none" stroke="#d8ac56" stroke-width="2" d="M689,-689C689,-689 623,-689 623,-689 617,-689 611,-683 611,-677 611,-677 611,-665 611,-665 611,-659 617,-653 623,-653 623,-653 689,-653 689,-653 695,-653 701,-659 701,-665 701,-665 701,-677 701,-677 701,-683 695,-689 689,-689"/>
<text text-anchor="middle" x="656" y="-668.5" font-family="sans" font-size="10.00">samtools_view</text>
</g>
<!-- 18&#45;&gt;28 -->
<g id="edge54" class="edge">
<title>18&#45;&gt;28</title>
<path fill="none" stroke="grey" stroke-width="2" d="M744.53,-868.96C736.31,-838.93 717.3,-775 692,-725 687.3,-715.72 681.23,-706.15 675.42,-697.73"/>
<polygon fill="grey" stroke="grey" stroke-width="2" points="678.18,-695.57 669.53,-689.45 672.47,-699.62 678.18,-695.57"/>
</g>
<!-- 29 -->
<g id="node30" class="node">
<title>29</title>
<path fill="none" stroke="#d8ac56" stroke-width="2" d="M893,-689C893,-689 827,-689 827,-689 821,-689 815,-683 815,-677 815,-677 815,-665 815,-665 815,-659 821,-653 827,-653 827,-653 893,-653 893,-653 899,-653 905,-659 905,-665 905,-665 905,-677 905,-677 905,-683 899,-689 893,-689"/>
<text text-anchor="middle" x="860" y="-668.5" font-family="sans" font-size="10.00">samtools_view</text>
</g>
<!-- 18&#45;&gt;29 -->
<g id="edge56" class="edge">
<title>18&#45;&gt;29</title>
<path fill="none" stroke="grey" stroke-width="2" d="M769.66,-868.8C780.19,-859.16 792.53,-846.4 801,-833 828.26,-789.86 845.47,-732.29 853.87,-698.97"/>
<polygon fill="grey" stroke="grey" stroke-width="2" points="857.32,-699.6 856.28,-689.05 850.51,-697.94 857.32,-699.6"/>
</g>
<!-- 18&#45;&gt;30 -->
<g id="edge57" class="edge">
<title>18&#45;&gt;30</title>
<path fill="none" stroke="grey" stroke-width="2" d="M722.19,-869C706.68,-858.92 686.93,-845.67 670,-833 641.87,-811.95 611.17,-786.1 589.9,-767.69"/>
<polygon fill="grey" stroke="grey" stroke-width="2" points="592.07,-764.94 582.23,-761.02 587.48,-770.23 592.07,-764.94"/>
</g>
<!-- 18&#45;&gt;31 -->
<g id="edge60" class="edge">
<title>18&#45;&gt;31</title>
<path fill="none" stroke="grey" stroke-width="2" d="M729.85,-868.99C719.39,-859.12 706.64,-846.07 697,-833 682.52,-813.36 669.61,-788.8 660.84,-770.46"/>
<polygon fill="grey" stroke="grey" stroke-width="2" points="663.93,-768.82 656.52,-761.24 657.59,-771.78 663.93,-768.82"/>
</g>
<!-- 19&#45;&gt;12 -->
<g id="edge20" class="edge">
<title>19&#45;&gt;12</title>
<path fill="none" stroke="grey" stroke-width="2" d="M543.9,-796.78C533.96,-787.04 522.21,-774.19 514,-761 405.35,-586.35 385.52,-531.24 348,-329 344.02,-307.54 346.02,-282.83 348.74,-264.49"/>
<polygon fill="grey" stroke="grey" stroke-width="2" points="352.21,-264.95 350.39,-254.51 345.31,-263.81 352.21,-264.95"/>
</g>
<!-- 19&#45;&gt;13 -->
<g id="edge24" class="edge">
<title>19&#45;&gt;13</title>
<path fill="none" stroke="grey" stroke-width="2" d="M543.96,-796.84C534.82,-787.3 524.83,-774.62 520,-761 514.65,-745.92 519.77,-741 520,-725 522.51,-549.85 530.11,-339.42 532.93,-265.11"/>
<polygon fill="grey" stroke="grey" stroke-width="2" points="536.44,-264.89 533.32,-254.77 529.45,-264.63 536.44,-264.89"/>
</g>
<!-- 19&#45;&gt;30 -->
<g id="edge59" class="edge">
<title>19&#45;&gt;30</title>
<path fill="none" stroke="grey" stroke-width="2" d="M563,-796.7C563,-788.98 563,-779.71 563,-771.11"/>
<polygon fill="grey" stroke="grey" stroke-width="2" points="566.5,-771.1 563,-761.1 559.5,-771.1 566.5,-771.1"/>
</g>
<!-- 19&#45;&gt;31 -->
<g id="edge62" class="edge">
<title>19&#45;&gt;31</title>
<path fill="none" stroke="grey" stroke-width="2" d="M584.26,-796.7C595.09,-787.88 608.42,-777.03 620.16,-767.47"/>
<polygon fill="grey" stroke="grey" stroke-width="2" points="622.44,-770.13 627.99,-761.1 618.02,-764.7 622.44,-770.13"/>
</g>
<!-- 20&#45;&gt;12 -->
<g id="edge21" class="edge">
<title>20&#45;&gt;12</title>
<path fill="none" stroke="grey" stroke-width="2" d="M600.46,-296.28C548.28,-283.83 471.5,-265.52 417.53,-252.65"/>
<polygon fill="grey" stroke="grey" stroke-width="2" points="418.27,-249.23 407.73,-250.31 416.65,-256.04 418.27,-249.23"/>
</g>
<!-- 20&#45;&gt;14 -->
<g id="edge29" class="edge">
<title>20&#45;&gt;14</title>
<path fill="none" stroke="grey" stroke-width="2" d="M715.8,-300.49C794.16,-287.55 928.38,-265.27 969.27,-256.9"/>
<polygon fill="grey" stroke="grey" stroke-width="2" points="970.23,-260.27 979.22,-254.66 968.7,-253.44 970.23,-260.27"/>
</g>
<!-- 20&#45;&gt;15 -->
<g id="edge35" class="edge">
<title>20&#45;&gt;15</title>
<path fill="none" stroke="grey" stroke-width="2" d="M715.54,-293.64C757.02,-281.85 812.81,-265.99 854.5,-254.13"/>
<polygon fill="grey" stroke="grey" stroke-width="2" points="855.58,-257.46 864.24,-251.36 853.67,-250.73 855.58,-257.46"/>
</g>
<!-- 21&#45;&gt;13 -->
<g id="edge25" class="edge">
<title>21&#45;&gt;13</title>
<path fill="none" stroke="grey" stroke-width="2" d="M881.48,-294.86C878.62,-294.21 875.78,-293.58 873,-293 777.8,-272.99 666.28,-255.94 597.89,-246.21"/>
<polygon fill="grey" stroke="grey" stroke-width="2" points="598.1,-242.71 587.71,-244.77 597.12,-249.64 598.1,-242.71"/>
</g>
<!-- 21&#45;&gt;14 -->
<g id="edge30" class="edge">
<title>21&#45;&gt;14</title>
<path fill="none" stroke="grey" stroke-width="2" d="M959.38,-292.82C969.71,-284.11 982.48,-273.35 994,-263.64"/>
<polygon fill="grey" stroke="grey" stroke-width="2" points="996.34,-266.24 1001.73,-257.12 991.83,-260.89 996.34,-266.24"/>
</g>
<!-- 21&#45;&gt;15 -->
<g id="edge34" class="edge">
<title>21&#45;&gt;15</title>
<path fill="none" stroke="grey" stroke-width="2" d="M932.84,-292.82C930.05,-285.03 926.66,-275.6 923.49,-266.75"/>
<polygon fill="grey" stroke="grey" stroke-width="2" points="926.71,-265.35 920.04,-257.12 920.12,-267.71 926.71,-265.35"/>
</g>
<!-- 22&#45;&gt;16 -->
<g id="edge36" class="edge">
<title>22&#45;&gt;16</title>
<path fill="none" stroke="grey" stroke-width="2" d="M699,-436.7C699,-428.98 699,-419.71 699,-411.11"/>
<polygon fill="grey" stroke="grey" stroke-width="2" points="702.5,-411.1 699,-401.1 695.5,-411.1 702.5,-411.1"/>
</g>
<!-- 23&#45;&gt;17 -->
<g id="edge38" class="edge">
<title>23&#45;&gt;17</title>
<path fill="none" stroke="grey" stroke-width="2" d="M932.98,-436.7C933.86,-428.98 934.92,-419.71 935.9,-411.11"/>
<polygon fill="grey" stroke="grey" stroke-width="2" points="939.39,-411.44 937.05,-401.1 932.43,-410.64 939.39,-411.44"/>
</g>
<!-- 24 -->
<g id="node25" class="node">
<title>24</title>
<path fill="none" stroke="#d88d56" stroke-width="2" d="M687,-617C687,-617 625,-617 625,-617 619,-617 613,-611 613,-605 613,-605 613,-593 613,-593 613,-587 619,-581 625,-581 625,-581 687,-581 687,-581 693,-581 699,-587 699,-593 699,-593 699,-605 699,-605 699,-611 693,-617 687,-617"/>
<text text-anchor="middle" x="656" y="-596.5" font-family="sans" font-size="10.00">samtools_sort</text>
</g>
<!-- 24&#45;&gt;22 -->
<g id="edge43" class="edge">
<title>24&#45;&gt;22</title>
<path fill="none" stroke="grey" stroke-width="2" d="M668.01,-580.63C674.35,-570.64 681.68,-557.6 686,-545 692.86,-524.97 696.1,-501.18 697.63,-483.24"/>
<polygon fill="grey" stroke="grey" stroke-width="2" points="701.13,-483.4 698.37,-473.17 694.15,-482.89 701.13,-483.4"/>
</g>
<!-- 25 -->
<g id="node26" class="node">
<title>25</title>
<path fill="none" stroke="#56d8b9" stroke-width="2" d="M665,-545C665,-545 595,-545 595,-545 589,-545 583,-539 583,-533 583,-533 583,-521 583,-521 583,-515 589,-509 595,-509 595,-509 665,-509 665,-509 671,-509 677,-515 677,-521 677,-521 677,-533 677,-533 677,-539 671,-545 665,-545"/>
<text text-anchor="middle" x="630" y="-524.5" font-family="sans" font-size="10.00">samtools_index</text>
</g>
<!-- 24&#45;&gt;25 -->
<g id="edge50" class="edge">
<title>24&#45;&gt;25</title>
<path fill="none" stroke="grey" stroke-width="2" d="M649.57,-580.7C646.64,-572.81 643.11,-563.3 639.86,-554.55"/>
<polygon fill="grey" stroke="grey" stroke-width="2" points="643.12,-553.26 636.35,-545.1 636.55,-555.7 643.12,-553.26"/>
</g>
<!-- 25&#45;&gt;22 -->
<g id="edge45" class="edge">
<title>25&#45;&gt;22</title>
<path fill="none" stroke="grey" stroke-width="2" d="M647.06,-508.7C655.5,-500.14 665.82,-489.66 675.04,-480.3"/>
<polygon fill="grey" stroke="grey" stroke-width="2" points="677.61,-482.68 682.14,-473.1 672.63,-477.77 677.61,-482.68"/>
</g>
<!-- 26 -->
<g id="node27" class="node">
<title>26</title>
<path fill="none" stroke="#d88d56" stroke-width="2" d="M893,-617C893,-617 831,-617 831,-617 825,-617 819,-611 819,-605 819,-605 819,-593 819,-593 819,-587 825,-581 831,-581 831,-581 893,-581 893,-581 899,-581 905,-587 905,-593 905,-593 905,-605 905,-605 905,-611 899,-617 893,-617"/>
<text text-anchor="middle" x="862" y="-596.5" font-family="sans" font-size="10.00">samtools_sort</text>
</g>
<!-- 26&#45;&gt;23 -->
<g id="edge46" class="edge">
<title>26&#45;&gt;23</title>
<path fill="none" stroke="grey" stroke-width="2" d="M886.64,-580.86C898.04,-571.58 910.66,-559.14 918,-545 927.93,-525.89 930.93,-501.53 931.59,-483.13"/>
<polygon fill="grey" stroke="grey" stroke-width="2" points="935.09,-483.13 931.74,-473.07 928.09,-483.02 935.09,-483.13"/>
</g>
<!-- 27 -->
<g id="node28" class="node">
<title>27</title>
<path fill="none" stroke="#56d8b9" stroke-width="2" d="M897,-545C897,-545 827,-545 827,-545 821,-545 815,-539 815,-533 815,-533 815,-521 815,-521 815,-515 821,-509 827,-509 827,-509 897,-509 897,-509 903,-509 909,-515 909,-521 909,-521 909,-533 909,-533 909,-539 903,-545 897,-545"/>
<text text-anchor="middle" x="862" y="-524.5" font-family="sans" font-size="10.00">samtools_index</text>
</g>
<!-- 26&#45;&gt;27 -->
<g id="edge52" class="edge">
<title>26&#45;&gt;27</title>
<path fill="none" stroke="grey" stroke-width="2" d="M862,-580.7C862,-572.98 862,-563.71 862,-555.11"/>
<polygon fill="grey" stroke="grey" stroke-width="2" points="865.5,-555.1 862,-545.1 858.5,-555.1 865.5,-555.1"/>
</g>
<!-- 27&#45;&gt;23 -->
<g id="edge48" class="edge">
<title>27&#45;&gt;23</title>
<path fill="none" stroke="grey" stroke-width="2" d="M879.06,-508.7C887.5,-500.14 897.82,-489.66 907.04,-480.3"/>
<polygon fill="grey" stroke="grey" stroke-width="2" points="909.61,-482.68 914.14,-473.1 904.63,-477.77 909.61,-482.68"/>
</g>
<!-- 28&#45;&gt;24 -->
<g id="edge49" class="edge">
<title>28&#45;&gt;24</title>
<path fill="none" stroke="grey" stroke-width="2" d="M656,-652.7C656,-644.98 656,-635.71 656,-627.11"/>
<polygon fill="grey" stroke="grey" stroke-width="2" points="659.5,-627.1 656,-617.1 652.5,-627.1 659.5,-627.1"/>
</g>
<!-- 29&#45;&gt;26 -->
<g id="edge51" class="edge">
<title>29&#45;&gt;26</title>
<path fill="none" stroke="grey" stroke-width="2" d="M860.49,-652.7C860.71,-644.98 860.98,-635.71 861.23,-627.11"/>
<polygon fill="grey" stroke="grey" stroke-width="2" points="864.72,-627.2 861.51,-617.1 857.73,-627 864.72,-627.2"/>
</g>
<!-- 30&#45;&gt;28 -->
<g id="edge53" class="edge">
<title>30&#45;&gt;28</title>
<path fill="none" stroke="grey" stroke-width="2" d="M585.99,-724.7C597.81,-715.8 612.39,-704.82 625.18,-695.2"/>
<polygon fill="grey" stroke="grey" stroke-width="2" points="627.39,-697.91 633.28,-689.1 623.18,-692.32 627.39,-697.91"/>
</g>
<!-- 31&#45;&gt;29 -->
<g id="edge55" class="edge">
<title>31&#45;&gt;29</title>
<path fill="none" stroke="grey" stroke-width="2" d="M683.37,-730.6C716.42,-719.63 766.9,-702.89 805.44,-690.1"/>
<polygon fill="grey" stroke="grey" stroke-width="2" points="806.58,-693.41 814.97,-686.94 804.38,-686.77 806.58,-693.41"/>
</g>
</g>
</svg>
