<?xml version="1.0" encoding="UTF-8" standalone="no"?>
<!DOCTYPE svg PUBLIC "-//W3C//DTD SVG 1.1//EN"
 "http://www.w3.org/Graphics/SVG/1.1/DTD/svg11.dtd">
<!-- Generated by graphviz version 2.43.0 (0)
 -->
<!-- Title: snakemake_dag Pages: 1 -->
<svg width="708pt" height="620pt"
 viewBox="0.00 0.00 707.50 620.00" xmlns="http://www.w3.org/2000/svg" xmlns:xlink="http://www.w3.org/1999/xlink">
<g id="graph0" class="graph" transform="scale(1 1) rotate(0) translate(4 616)">
<title>snakemake_dag</title>
<polygon fill="white" stroke="transparent" points="-4,4 -4,-616 703.5,-616 703.5,4 -4,4"/>
<!-- 0 -->
<g id="node1" class="node">
<title>0</title>
<path fill="none" stroke="#d8c356" stroke-width="2" stroke-dasharray="5,2" d="M385.5,-36C385.5,-36 355.5,-36 355.5,-36 349.5,-36 343.5,-30 343.5,-24 343.5,-24 343.5,-12 343.5,-12 343.5,-6 349.5,0 355.5,0 355.5,0 385.5,0 385.5,0 391.5,0 397.5,-6 397.5,-12 397.5,-12 397.5,-24 397.5,-24 397.5,-30 391.5,-36 385.5,-36"/>
<text text-anchor="middle" x="370.5" y="-15.5" font-family="sans" font-size="10.00">all</text>
</g>
<!-- 1 -->
<g id="node2" class="node">
<title>1</title>
<path fill="none" stroke="#61d856" stroke-width="2" stroke-dasharray="5,2" d="M575.5,-108C575.5,-108 515.5,-108 515.5,-108 509.5,-108 503.5,-102 503.5,-96 503.5,-96 503.5,-84 503.5,-84 503.5,-78 509.5,-72 515.5,-72 515.5,-72 575.5,-72 575.5,-72 581.5,-72 587.5,-78 587.5,-84 587.5,-84 587.5,-96 587.5,-96 587.5,-102 581.5,-108 575.5,-108"/>
<text text-anchor="middle" x="545.5" y="-87.5" font-family="sans" font-size="10.00">gatk_mutect2</text>
</g>
<!-- 1&#45;&gt;0 -->
<g id="edge1" class="edge">
<title>1&#45;&gt;0</title>
<path fill="none" stroke="grey" stroke-width="2" d="M503.14,-72.05C473.82,-60.33 435.19,-44.88 407.19,-33.68"/>
<polygon fill="grey" stroke="grey" stroke-width="2" points="408.34,-30.37 397.76,-29.9 405.74,-36.87 408.34,-30.37"/>
</g>
<!-- 2 -->
<g id="node3" class="node">
<title>2</title>
<path fill="none" stroke="#d88d56" stroke-width="2" stroke-dasharray="5,2" d="M211.5,-108C211.5,-108 181.5,-108 181.5,-108 175.5,-108 169.5,-102 169.5,-96 169.5,-96 169.5,-84 169.5,-84 169.5,-78 175.5,-72 181.5,-72 181.5,-72 211.5,-72 211.5,-72 217.5,-72 223.5,-78 223.5,-84 223.5,-84 223.5,-96 223.5,-96 223.5,-102 217.5,-108 211.5,-108"/>
<text text-anchor="middle" x="196.5" y="-87.5" font-family="sans" font-size="10.00">multiqc</text>
</g>
<!-- 2&#45;&gt;0 -->
<g id="edge2" class="edge">
<title>2&#45;&gt;0</title>
<path fill="none" stroke="grey" stroke-width="2" d="M223.69,-78.06C253.35,-66.13 301,-46.96 333.93,-33.71"/>
<polygon fill="grey" stroke="grey" stroke-width="2" points="335.25,-36.96 343.22,-29.98 332.63,-30.46 335.25,-36.96"/>
</g>
<!-- 3 -->
<g id="node4" class="node">
<title>3</title>
<path fill="none" stroke="#97d856" stroke-width="2" stroke-dasharray="5,2" d="M583.5,-612C583.5,-612 527.5,-612 527.5,-612 521.5,-612 515.5,-606 515.5,-600 515.5,-600 515.5,-588 515.5,-588 515.5,-582 521.5,-576 527.5,-576 527.5,-576 583.5,-576 583.5,-576 589.5,-576 595.5,-582 595.5,-588 595.5,-588 595.5,-600 595.5,-600 595.5,-606 589.5,-612 583.5,-612"/>
<text text-anchor="middle" x="555.5" y="-591.5" font-family="sans" font-size="10.00">cp_reference</text>
</g>
<!-- 3&#45;&gt;1 -->
<g id="edge3" class="edge">
<title>3&#45;&gt;1</title>
<path fill="none" stroke="grey" stroke-width="2" d="M595.73,-580.58C617.57,-572.11 643.66,-558.95 661.5,-540 690.99,-508.69 699.5,-494.01 699.5,-451 699.5,-451 699.5,-451 699.5,-233 699.5,-190.5 693.88,-174.71 664.5,-144 646.44,-125.12 620.46,-112.49 597.37,-104.31"/>
<polygon fill="grey" stroke="grey" stroke-width="2" points="598.28,-100.93 587.69,-101.07 596.06,-107.57 598.28,-100.93"/>
</g>
<!-- 7 -->
<g id="node8" class="node">
<title>7</title>
<path fill="none" stroke="#56c1d8" stroke-width="2" stroke-dasharray="5,2" d="M641,-540C641,-540 596,-540 596,-540 590,-540 584,-534 584,-528 584,-528 584,-516 584,-516 584,-510 590,-504 596,-504 596,-504 641,-504 641,-504 647,-504 653,-510 653,-516 653,-516 653,-528 653,-528 653,-534 647,-540 641,-540"/>
<text text-anchor="middle" x="618.5" y="-519.5" font-family="sans" font-size="10.00">bwa_index</text>
</g>
<!-- 3&#45;&gt;7 -->
<g id="edge17" class="edge">
<title>3&#45;&gt;7</title>
<path fill="none" stroke="grey" stroke-width="2" d="M571.07,-575.7C578.7,-567.22 588.02,-556.86 596.38,-547.58"/>
<polygon fill="grey" stroke="grey" stroke-width="2" points="599.02,-549.88 603.11,-540.1 593.81,-545.2 599.02,-549.88"/>
</g>
<!-- 16 -->
<g id="node17" class="node">
<title>16</title>
<path fill="none" stroke="#b6d856" stroke-width="2" stroke-dasharray="5,2" d="M483.5,-468C483.5,-468 439.5,-468 439.5,-468 433.5,-468 427.5,-462 427.5,-456 427.5,-456 427.5,-444 427.5,-444 427.5,-438 433.5,-432 439.5,-432 439.5,-432 483.5,-432 483.5,-432 489.5,-432 495.5,-438 495.5,-444 495.5,-444 495.5,-456 495.5,-456 495.5,-462 489.5,-468 483.5,-468"/>
<text text-anchor="middle" x="461.5" y="-447.5" font-family="sans" font-size="10.00">bwa_mem</text>
</g>
<!-- 3&#45;&gt;16 -->
<g id="edge25" class="edge">
<title>3&#45;&gt;16</title>
<path fill="none" stroke="grey" stroke-width="2" d="M555.46,-575.85C554.64,-556.82 550.94,-525.9 536.5,-504 528.38,-491.68 516.33,-481.34 504.25,-473.16"/>
<polygon fill="grey" stroke="grey" stroke-width="2" points="505.82,-470.02 495.51,-467.59 502.06,-475.92 505.82,-470.02"/>
</g>
<!-- 17 -->
<g id="node18" class="node">
<title>17</title>
<path fill="none" stroke="#5673d8" stroke-width="2" stroke-dasharray="5,2" d="M435.5,-540C435.5,-540 367.5,-540 367.5,-540 361.5,-540 355.5,-534 355.5,-528 355.5,-528 355.5,-516 355.5,-516 355.5,-510 361.5,-504 367.5,-504 367.5,-504 435.5,-504 435.5,-504 441.5,-504 447.5,-510 447.5,-516 447.5,-516 447.5,-528 447.5,-528 447.5,-534 441.5,-540 435.5,-540"/>
<text text-anchor="middle" x="401.5" y="-519.5" font-family="sans" font-size="10.00">samtools_faidx</text>
</g>
<!-- 3&#45;&gt;17 -->
<g id="edge30" class="edge">
<title>3&#45;&gt;17</title>
<path fill="none" stroke="grey" stroke-width="2" d="M517.83,-575.88C496.87,-566.35 470.6,-554.41 448.32,-544.28"/>
<polygon fill="grey" stroke="grey" stroke-width="2" points="449.6,-541.02 439.05,-540.07 446.71,-547.39 449.6,-541.02"/>
</g>
<!-- 18 -->
<g id="node19" class="node">
<title>18</title>
<path fill="none" stroke="#56d8d0" stroke-width="2" stroke-dasharray="5,2" d="M515.5,-540C515.5,-540 477.5,-540 477.5,-540 471.5,-540 465.5,-534 465.5,-528 465.5,-528 465.5,-516 465.5,-516 465.5,-510 471.5,-504 477.5,-504 477.5,-504 515.5,-504 515.5,-504 521.5,-504 527.5,-510 527.5,-516 527.5,-516 527.5,-528 527.5,-528 527.5,-534 521.5,-540 515.5,-540"/>
<text text-anchor="middle" x="496.5" y="-519.5" font-family="sans" font-size="10.00">gatk_dict</text>
</g>
<!-- 3&#45;&gt;18 -->
<g id="edge31" class="edge">
<title>3&#45;&gt;18</title>
<path fill="none" stroke="grey" stroke-width="2" d="M540.92,-575.7C533.84,-567.3 525.22,-557.07 517.45,-547.86"/>
<polygon fill="grey" stroke="grey" stroke-width="2" points="520.04,-545.49 510.92,-540.1 514.69,-550.01 520.04,-545.49"/>
</g>
<!-- 4 -->
<g id="node5" class="node">
<title>4</title>
<path fill="none" stroke="#56d89a" stroke-width="2" stroke-dasharray="5,2" d="M364,-252C364,-252 269,-252 269,-252 263,-252 257,-246 257,-240 257,-240 257,-228 257,-228 257,-222 263,-216 269,-216 269,-216 364,-216 364,-216 370,-216 376,-222 376,-228 376,-228 376,-240 376,-240 376,-246 370,-252 364,-252"/>
<text text-anchor="middle" x="316.5" y="-231.5" font-family="sans" font-size="10.00">gatk_markduplicates</text>
</g>
<!-- 4&#45;&gt;1 -->
<g id="edge4" class="edge">
<title>4&#45;&gt;1</title>
<path fill="none" stroke="grey" stroke-width="2" d="M327.04,-215.86C340.1,-195.94 364.14,-163.35 392.5,-144 422.99,-123.2 462.45,-109.79 493.65,-101.67"/>
<polygon fill="grey" stroke="grey" stroke-width="2" points="494.62,-105.03 503.48,-99.21 492.93,-98.24 494.62,-105.03"/>
</g>
<!-- 4&#45;&gt;2 -->
<g id="edge13" class="edge">
<title>4&#45;&gt;2</title>
<path fill="none" stroke="grey" stroke-width="2" d="M287.47,-215.92C273.3,-206.58 256.72,-194.06 244.5,-180 228.3,-161.35 215.4,-136.32 207.08,-117.55"/>
<polygon fill="grey" stroke="grey" stroke-width="2" points="210.19,-115.93 203.04,-108.11 203.76,-118.68 210.19,-115.93"/>
</g>
<!-- 6 -->
<g id="node7" class="node">
<title>6</title>
<path fill="none" stroke="#ced856" stroke-width="2" stroke-dasharray="5,2" d="M505,-180C505,-180 414,-180 414,-180 408,-180 402,-174 402,-168 402,-168 402,-156 402,-156 402,-150 408,-144 414,-144 414,-144 505,-144 505,-144 511,-144 517,-150 517,-156 517,-156 517,-168 517,-168 517,-174 511,-180 505,-180"/>
<text text-anchor="middle" x="459.5" y="-159.5" font-family="sans" font-size="10.00">samtools_index_md</text>
</g>
<!-- 4&#45;&gt;6 -->
<g id="edge16" class="edge">
<title>4&#45;&gt;6</title>
<path fill="none" stroke="grey" stroke-width="2" d="M351.48,-215.88C370.7,-206.47 394.73,-194.71 415.24,-184.67"/>
<polygon fill="grey" stroke="grey" stroke-width="2" points="416.94,-187.73 424.38,-180.19 413.86,-181.44 416.94,-187.73"/>
</g>
<!-- 11 -->
<g id="node12" class="node">
<title>11</title>
<path fill="none" stroke="#568ad8" stroke-width="2" stroke-dasharray="5,2" d="M333,-180C333,-180 266,-180 266,-180 260,-180 254,-174 254,-168 254,-168 254,-156 254,-156 254,-150 260,-144 266,-144 266,-144 333,-144 333,-144 339,-144 345,-150 345,-156 345,-156 345,-168 345,-168 345,-174 339,-180 333,-180"/>
<text text-anchor="middle" x="299.5" y="-159.5" font-family="sans" font-size="10.00">samtools_stats</text>
</g>
<!-- 4&#45;&gt;11 -->
<g id="edge21" class="edge">
<title>4&#45;&gt;11</title>
<path fill="none" stroke="grey" stroke-width="2" d="M312.3,-215.7C310.4,-207.9 308.12,-198.51 306.02,-189.83"/>
<polygon fill="grey" stroke="grey" stroke-width="2" points="309.42,-189 303.65,-180.1 302.61,-190.65 309.42,-189"/>
</g>
<!-- 12 -->
<g id="node13" class="node">
<title>12</title>
<path fill="none" stroke="#56d863" stroke-width="2" stroke-dasharray="5,2" d="M185.5,-180C185.5,-180 147.5,-180 147.5,-180 141.5,-180 135.5,-174 135.5,-168 135.5,-168 135.5,-156 135.5,-156 135.5,-150 141.5,-144 147.5,-144 147.5,-144 185.5,-144 185.5,-144 191.5,-144 197.5,-150 197.5,-156 197.5,-156 197.5,-168 197.5,-168 197.5,-174 191.5,-180 185.5,-180"/>
<text text-anchor="middle" x="166.5" y="-159.5" font-family="sans" font-size="10.00">qualimap</text>
</g>
<!-- 4&#45;&gt;12 -->
<g id="edge22" class="edge">
<title>4&#45;&gt;12</title>
<path fill="none" stroke="grey" stroke-width="2" d="M279.81,-215.88C257.8,-205.61 229.77,-192.53 207.1,-181.95"/>
<polygon fill="grey" stroke="grey" stroke-width="2" points="208.29,-178.64 197.75,-177.58 205.33,-184.98 208.29,-178.64"/>
</g>
<!-- 5 -->
<g id="node6" class="node">
<title>5</title>
<path fill="none" stroke="#d8ac56" stroke-width="2" stroke-dasharray="5,2" d="M590.5,-252C590.5,-252 558.5,-252 558.5,-252 552.5,-252 546.5,-246 546.5,-240 546.5,-240 546.5,-228 546.5,-228 546.5,-222 552.5,-216 558.5,-216 558.5,-216 590.5,-216 590.5,-216 596.5,-216 602.5,-222 602.5,-228 602.5,-228 602.5,-240 602.5,-240 602.5,-246 596.5,-252 590.5,-252"/>
<text text-anchor="middle" x="574.5" y="-231.5" font-family="sans" font-size="10.00">cp_snps</text>
</g>
<!-- 5&#45;&gt;1 -->
<g id="edge5" class="edge">
<title>5&#45;&gt;1</title>
<path fill="none" stroke="grey" stroke-width="2" d="M571,-215.87C566.04,-191.56 556.9,-146.82 551.02,-118.01"/>
<polygon fill="grey" stroke="grey" stroke-width="2" points="554.44,-117.29 549.01,-108.19 547.58,-118.69 554.44,-117.29"/>
</g>
<!-- 8 -->
<g id="node9" class="node">
<title>8</title>
<path fill="none" stroke="#56d882" stroke-width="2" stroke-dasharray="5,2" d="M621,-180C621,-180 586,-180 586,-180 580,-180 574,-174 574,-168 574,-168 574,-156 574,-156 574,-150 580,-144 586,-144 586,-144 621,-144 621,-144 627,-144 633,-150 633,-156 633,-156 633,-168 633,-168 633,-174 627,-180 621,-180"/>
<text text-anchor="middle" x="603.5" y="-159.5" font-family="sans" font-size="10.00">gatk_idx</text>
</g>
<!-- 5&#45;&gt;8 -->
<g id="edge18" class="edge">
<title>5&#45;&gt;8</title>
<path fill="none" stroke="grey" stroke-width="2" d="M581.67,-215.7C584.93,-207.81 588.87,-198.3 592.5,-189.55"/>
<polygon fill="grey" stroke="grey" stroke-width="2" points="595.82,-190.68 596.41,-180.1 589.35,-188 595.82,-190.68"/>
</g>
<!-- 6&#45;&gt;1 -->
<g id="edge6" class="edge">
<title>6&#45;&gt;1</title>
<path fill="none" stroke="grey" stroke-width="2" d="M480.76,-143.7C491.59,-134.88 504.92,-124.03 516.66,-114.47"/>
<polygon fill="grey" stroke="grey" stroke-width="2" points="518.94,-117.13 524.49,-108.1 514.52,-111.7 518.94,-117.13"/>
</g>
<!-- 7&#45;&gt;1 -->
<g id="edge7" class="edge">
<title>7&#45;&gt;1</title>
<path fill="none" stroke="grey" stroke-width="2" d="M627.41,-503.58C640,-477.3 661.5,-425.62 661.5,-379 661.5,-379 661.5,-379 661.5,-233 661.5,-192.46 665.83,-176.43 641.5,-144 630.22,-128.97 613.36,-117.65 596.91,-109.41"/>
<polygon fill="grey" stroke="grey" stroke-width="2" points="598.39,-106.24 587.85,-105.15 595.41,-112.57 598.39,-106.24"/>
</g>
<!-- 7&#45;&gt;16 -->
<g id="edge27" class="edge">
<title>7&#45;&gt;16</title>
<path fill="none" stroke="grey" stroke-width="2" d="M583.66,-505.46C560.43,-495.11 529.72,-481.42 504.9,-470.35"/>
<polygon fill="grey" stroke="grey" stroke-width="2" points="506.26,-467.13 495.71,-466.25 503.41,-473.52 506.26,-467.13"/>
</g>
<!-- 8&#45;&gt;1 -->
<g id="edge8" class="edge">
<title>8&#45;&gt;1</title>
<path fill="none" stroke="grey" stroke-width="2" d="M589.16,-143.7C582.21,-135.3 573.73,-125.07 566.1,-115.86"/>
<polygon fill="grey" stroke="grey" stroke-width="2" points="568.75,-113.57 559.67,-108.1 563.36,-118.04 568.75,-113.57"/>
</g>
<!-- 9 -->
<g id="node10" class="node">
<title>9</title>
<path fill="none" stroke="#d87556" stroke-width="2" stroke-dasharray="5,2" d="M67.5,-468C67.5,-468 37.5,-468 37.5,-468 31.5,-468 25.5,-462 25.5,-456 25.5,-456 25.5,-444 25.5,-444 25.5,-438 31.5,-432 37.5,-432 37.5,-432 67.5,-432 67.5,-432 73.5,-432 79.5,-438 79.5,-444 79.5,-444 79.5,-456 79.5,-456 79.5,-462 73.5,-468 67.5,-468"/>
<text text-anchor="middle" x="52.5" y="-447.5" font-family="sans" font-size="10.00">fastqc</text>
</g>
<!-- 9&#45;&gt;2 -->
<g id="edge9" class="edge">
<title>9&#45;&gt;2</title>
<path fill="none" stroke="grey" stroke-width="2" d="M54.28,-431.97C56.9,-405.34 61.5,-352.21 61.5,-307 61.5,-307 61.5,-307 61.5,-233 61.5,-190.97 65.77,-175.59 93.5,-144 110.99,-124.08 137.77,-110.62 159.65,-102.25"/>
<polygon fill="grey" stroke="grey" stroke-width="2" points="161.09,-105.45 169.3,-98.76 158.7,-98.87 161.09,-105.45"/>
</g>
<!-- 10 -->
<g id="node11" class="node">
<title>10</title>
<path fill="none" stroke="#56d8b9" stroke-width="2" stroke-dasharray="5,2" d="M148.5,-540C148.5,-540 92.5,-540 92.5,-540 86.5,-540 80.5,-534 80.5,-528 80.5,-528 80.5,-516 80.5,-516 80.5,-510 86.5,-504 92.5,-504 92.5,-504 148.5,-504 148.5,-504 154.5,-504 160.5,-510 160.5,-516 160.5,-516 160.5,-528 160.5,-528 160.5,-534 154.5,-540 148.5,-540"/>
<text text-anchor="middle" x="120.5" y="-519.5" font-family="sans" font-size="10.00">trimmomatic</text>
</g>
<!-- 10&#45;&gt;2 -->
<g id="edge10" class="edge">
<title>10&#45;&gt;2</title>
<path fill="none" stroke="grey" stroke-width="2" d="M117.93,-504C114.14,-477.4 107.5,-424.3 107.5,-379 107.5,-379 107.5,-379 107.5,-233 107.5,-192.55 104.79,-178.13 126.5,-144 135.01,-130.62 148.16,-119.37 160.77,-110.72"/>
<polygon fill="grey" stroke="grey" stroke-width="2" points="162.87,-113.53 169.35,-105.15 159.06,-107.66 162.87,-113.53"/>
</g>
<!-- 10&#45;&gt;16 -->
<g id="edge26" class="edge">
<title>10&#45;&gt;16</title>
<path fill="none" stroke="grey" stroke-width="2" d="M160.62,-512.76C224.92,-499.56 350.6,-473.76 417.36,-460.06"/>
<polygon fill="grey" stroke="grey" stroke-width="2" points="418.07,-463.49 427.16,-458.05 416.66,-456.63 418.07,-463.49"/>
</g>
<!-- 11&#45;&gt;2 -->
<g id="edge11" class="edge">
<title>11&#45;&gt;2</title>
<path fill="none" stroke="grey" stroke-width="2" d="M274.3,-143.88C261.09,-134.89 244.71,-123.76 230.39,-114.03"/>
<polygon fill="grey" stroke="grey" stroke-width="2" points="232.03,-110.92 221.79,-108.19 228.1,-116.71 232.03,-110.92"/>
</g>
<!-- 12&#45;&gt;2 -->
<g id="edge12" class="edge">
<title>12&#45;&gt;2</title>
<path fill="none" stroke="grey" stroke-width="2" d="M173.92,-143.7C177.29,-135.81 181.37,-126.3 185.12,-117.55"/>
<polygon fill="grey" stroke="grey" stroke-width="2" points="188.45,-118.67 189.17,-108.1 182.01,-115.92 188.45,-118.67"/>
</g>
<!-- 13 -->
<g id="node14" class="node">
<title>13</title>
<path fill="none" stroke="#56a9d8" stroke-width="2" stroke-dasharray="5,2" d="M422.5,-396C422.5,-396 360.5,-396 360.5,-396 354.5,-396 348.5,-390 348.5,-384 348.5,-384 348.5,-372 348.5,-372 348.5,-366 354.5,-360 360.5,-360 360.5,-360 422.5,-360 422.5,-360 428.5,-360 434.5,-366 434.5,-372 434.5,-372 434.5,-384 434.5,-384 434.5,-390 428.5,-396 422.5,-396"/>
<text text-anchor="middle" x="391.5" y="-375.5" font-family="sans" font-size="10.00">samtools_sort</text>
</g>
<!-- 13&#45;&gt;4 -->
<g id="edge14" class="edge">
<title>13&#45;&gt;4</title>
<path fill="none" stroke="grey" stroke-width="2" d="M367.54,-359.88C356.16,-350.53 343.36,-338.01 335.5,-324 324.83,-305 320.14,-280.64 318.09,-262.21"/>
<polygon fill="grey" stroke="grey" stroke-width="2" points="321.56,-261.76 317.16,-252.13 314.59,-262.41 321.56,-261.76"/>
</g>
<!-- 14 -->
<g id="node15" class="node">
<title>14</title>
<path fill="none" stroke="#d85656" stroke-width="2" stroke-dasharray="5,2" d="M426.5,-324C426.5,-324 356.5,-324 356.5,-324 350.5,-324 344.5,-318 344.5,-312 344.5,-312 344.5,-300 344.5,-300 344.5,-294 350.5,-288 356.5,-288 356.5,-288 426.5,-288 426.5,-288 432.5,-288 438.5,-294 438.5,-300 438.5,-300 438.5,-312 438.5,-312 438.5,-318 432.5,-324 426.5,-324"/>
<text text-anchor="middle" x="391.5" y="-303.5" font-family="sans" font-size="10.00">samtools_index</text>
</g>
<!-- 13&#45;&gt;14 -->
<g id="edge24" class="edge">
<title>13&#45;&gt;14</title>
<path fill="none" stroke="grey" stroke-width="2" d="M391.5,-359.7C391.5,-351.98 391.5,-342.71 391.5,-334.11"/>
<polygon fill="grey" stroke="grey" stroke-width="2" points="395,-334.1 391.5,-324.1 388,-334.1 395,-334.1"/>
</g>
<!-- 14&#45;&gt;4 -->
<g id="edge15" class="edge">
<title>14&#45;&gt;4</title>
<path fill="none" stroke="grey" stroke-width="2" d="M372.96,-287.7C363.7,-279.05 352.34,-268.45 342.24,-259.03"/>
<polygon fill="grey" stroke="grey" stroke-width="2" points="344.52,-256.37 334.83,-252.1 339.75,-261.49 344.52,-256.37"/>
</g>
<!-- 15 -->
<g id="node16" class="node">
<title>15</title>
<path fill="none" stroke="#80d856" stroke-width="2" stroke-dasharray="5,2" d="M161,-612C161,-612 12,-612 12,-612 6,-612 0,-606 0,-600 0,-600 0,-588 0,-588 0,-582 6,-576 12,-576 12,-576 161,-576 161,-576 167,-576 173,-582 173,-588 173,-588 173,-600 173,-600 173,-606 167,-612 161,-612"/>
<text text-anchor="middle" x="86.5" y="-597" font-family="sans" font-size="10.00">cp_reads</text>
<text text-anchor="middle" x="86.5" y="-586" font-family="sans" font-size="10.00">library: N100_R2_AF0.6_NR4667</text>
</g>
<!-- 15&#45;&gt;9 -->
<g id="edge19" class="edge">
<title>15&#45;&gt;9</title>
<path fill="none" stroke="grey" stroke-width="2" d="M81.35,-575.89C78.31,-565.54 74.49,-552.07 71.5,-540 66.4,-519.43 61.43,-495.97 57.85,-478.31"/>
<polygon fill="grey" stroke="grey" stroke-width="2" points="61.21,-477.26 55.81,-468.14 54.34,-478.63 61.21,-477.26"/>
</g>
<!-- 15&#45;&gt;10 -->
<g id="edge20" class="edge">
<title>15&#45;&gt;10</title>
<path fill="none" stroke="grey" stroke-width="2" d="M94.9,-575.7C98.77,-567.73 103.45,-558.1 107.74,-549.26"/>
<polygon fill="grey" stroke="grey" stroke-width="2" points="110.97,-550.63 112.19,-540.1 104.67,-547.57 110.97,-550.63"/>
</g>
<!-- 16&#45;&gt;13 -->
<g id="edge23" class="edge">
<title>16&#45;&gt;13</title>
<path fill="none" stroke="grey" stroke-width="2" d="M444.2,-431.7C435.64,-423.14 425.16,-412.66 415.8,-403.3"/>
<polygon fill="grey" stroke="grey" stroke-width="2" points="418.15,-400.7 408.6,-396.1 413.2,-405.65 418.15,-400.7"/>
</g>
<!-- 17&#45;&gt;16 -->
<g id="edge28" class="edge">
<title>17&#45;&gt;16</title>
<path fill="none" stroke="grey" stroke-width="2" d="M416.33,-503.7C423.52,-495.3 432.3,-485.07 440.19,-475.86"/>
<polygon fill="grey" stroke="grey" stroke-width="2" points="442.99,-477.97 446.84,-468.1 437.67,-473.42 442.99,-477.97"/>
</g>
<!-- 18&#45;&gt;16 -->
<g id="edge29" class="edge">
<title>18&#45;&gt;16</title>
<path fill="none" stroke="grey" stroke-width="2" d="M487.85,-503.7C483.86,-495.73 479.05,-486.1 474.63,-477.26"/>
<polygon fill="grey" stroke="grey" stroke-width="2" points="477.65,-475.48 470.05,-468.1 471.39,-478.61 477.65,-475.48"/>
</g>
</g>
</svg>
