<?xml version="1.0" encoding="UTF-8" standalone="no"?>
<!DOCTYPE svg PUBLIC "-//W3C//DTD SVG 1.1//EN"
 "http://www.w3.org/Graphics/SVG/1.1/DTD/svg11.dtd">
<!-- Generated by graphviz version 2.43.0 (0)
 -->
<!-- Title: snakemake_dag Pages: 1 -->
<svg width="1015pt" height="769pt"
 viewBox="0.00 0.00 1014.75 769.00" xmlns="http://www.w3.org/2000/svg" xmlns:xlink="http://www.w3.org/1999/xlink">
<g id="graph0" class="graph" transform="scale(1 1) rotate(0) translate(4 765)">
<title>snakemake_dag</title>
<polygon fill="white" stroke="transparent" points="-4,4 -4,-765 1010.75,-765 1010.75,4 -4,4"/>
<!-- 0 -->
<g id="node1" class="node">
<title>0</title>
<path fill="none" stroke="#97d856" stroke-width="2" d="M540.75,-36C540.75,-36 510.75,-36 510.75,-36 504.75,-36 498.75,-30 498.75,-24 498.75,-24 498.75,-12 498.75,-12 498.75,-6 504.75,0 510.75,0 510.75,0 540.75,0 540.75,0 546.75,0 552.75,-6 552.75,-12 552.75,-12 552.75,-24 552.75,-24 552.75,-30 546.75,-36 540.75,-36"/>
<text text-anchor="middle" x="525.75" y="-15.5" font-family="sans" font-size="10.00">all</text>
</g>
<!-- 1 -->
<g id="node2" class="node">
<title>1</title>
<path fill="none" stroke="#59d856" stroke-width="2" d="M796.25,-257C796.25,-257 709.25,-257 709.25,-257 703.25,-257 697.25,-251 697.25,-245 697.25,-245 697.25,-233 697.25,-233 697.25,-227 703.25,-221 709.25,-221 709.25,-221 796.25,-221 796.25,-221 802.25,-221 808.25,-227 808.25,-233 808.25,-233 808.25,-245 808.25,-245 808.25,-251 802.25,-257 796.25,-257"/>
<text text-anchor="middle" x="752.75" y="-236.5" font-family="sans" font-size="10.00">samtools_view_md</text>
</g>
<!-- 1&#45;&gt;0 -->
<g id="edge1" class="edge">
<title>1&#45;&gt;0</title>
<path fill="none" stroke="grey" stroke-width="2" d="M800.87,-220.93C817.83,-212.6 835.46,-200.88 846.75,-185 876.04,-143.8 892.58,-110.45 859.75,-72 821.97,-27.76 642.52,-20.25 563.39,-19.12"/>
<polygon fill="grey" stroke="grey" stroke-width="2" points="562.95,-15.61 552.91,-19 562.87,-22.61 562.95,-15.61"/>
</g>
<!-- 3 -->
<g id="node4" class="node">
<title>3</title>
<path fill="none" stroke="#56d87b" stroke-width="2" d="M838.75,-113C838.75,-113 794.75,-113 794.75,-113 788.75,-113 782.75,-107 782.75,-101 782.75,-101 782.75,-84 782.75,-84 782.75,-78 788.75,-72 794.75,-72 794.75,-72 838.75,-72 838.75,-72 844.75,-72 850.75,-78 850.75,-84 850.75,-84 850.75,-101 850.75,-101 850.75,-107 844.75,-113 838.75,-113"/>
<text text-anchor="middle" x="816.75" y="-101" font-family="sans" font-size="10.00">strelka2</text>
<text text-anchor="middle" x="816.75" y="-90" font-family="sans" font-size="10.00">normal: L2</text>
<text text-anchor="middle" x="816.75" y="-79" font-family="sans" font-size="10.00">tumor: L1</text>
</g>
<!-- 1&#45;&gt;3 -->
<g id="edge12" class="edge">
<title>1&#45;&gt;3</title>
<path fill="none" stroke="grey" stroke-width="2" d="M792.93,-220.77C807.58,-212.28 822.55,-200.48 830.75,-185 840.89,-165.86 836.47,-141.51 830.01,-122.74"/>
<polygon fill="grey" stroke="grey" stroke-width="2" points="833.22,-121.34 826.41,-113.23 826.68,-123.82 833.22,-121.34"/>
</g>
<!-- 4 -->
<g id="node5" class="node">
<title>4</title>
<path fill="none" stroke="#d87556" stroke-width="2" d="M628.75,-113C628.75,-113 584.75,-113 584.75,-113 578.75,-113 572.75,-107 572.75,-101 572.75,-101 572.75,-84 572.75,-84 572.75,-78 578.75,-72 584.75,-72 584.75,-72 628.75,-72 628.75,-72 634.75,-72 640.75,-78 640.75,-84 640.75,-84 640.75,-101 640.75,-101 640.75,-107 634.75,-113 628.75,-113"/>
<text text-anchor="middle" x="606.75" y="-101" font-family="sans" font-size="10.00">mutect2</text>
<text text-anchor="middle" x="606.75" y="-90" font-family="sans" font-size="10.00">normal: L2</text>
<text text-anchor="middle" x="606.75" y="-79" font-family="sans" font-size="10.00">tumor: L1</text>
</g>
<!-- 1&#45;&gt;4 -->
<g id="edge18" class="edge">
<title>1&#45;&gt;4</title>
<path fill="none" stroke="grey" stroke-width="2" d="M760.09,-220.89C767.1,-201.61 774.61,-170.19 759.75,-149 735.39,-114.25 686.96,-101.17 651.08,-96.3"/>
<polygon fill="grey" stroke="grey" stroke-width="2" points="651.2,-92.79 640.86,-95.08 650.38,-99.74 651.2,-92.79"/>
</g>
<!-- 5 -->
<g id="node6" class="node">
<title>5</title>
<path fill="none" stroke="#56d87b" stroke-width="2" d="M466.75,-113C466.75,-113 422.75,-113 422.75,-113 416.75,-113 410.75,-107 410.75,-101 410.75,-101 410.75,-84 410.75,-84 410.75,-78 416.75,-72 422.75,-72 422.75,-72 466.75,-72 466.75,-72 472.75,-72 478.75,-78 478.75,-84 478.75,-84 478.75,-101 478.75,-101 478.75,-107 472.75,-113 466.75,-113"/>
<text text-anchor="middle" x="444.75" y="-101" font-family="sans" font-size="10.00">strelka2</text>
<text text-anchor="middle" x="444.75" y="-90" font-family="sans" font-size="10.00">normal: L1</text>
<text text-anchor="middle" x="444.75" y="-79" font-family="sans" font-size="10.00">tumor: L2</text>
</g>
<!-- 1&#45;&gt;5 -->
<g id="edge25" class="edge">
<title>1&#45;&gt;5</title>
<path fill="none" stroke="grey" stroke-width="2" d="M710.15,-220.92C685.59,-210.86 654.23,-197.67 626.75,-185 578.64,-162.82 524.51,-135.26 487.89,-116.22"/>
<polygon fill="grey" stroke="grey" stroke-width="2" points="489.45,-113.09 478.96,-111.57 486.21,-119.3 489.45,-113.09"/>
</g>
<!-- 6 -->
<g id="node7" class="node">
<title>6</title>
<path fill="none" stroke="#d87556" stroke-width="2" d="M304.75,-113C304.75,-113 260.75,-113 260.75,-113 254.75,-113 248.75,-107 248.75,-101 248.75,-101 248.75,-84 248.75,-84 248.75,-78 254.75,-72 260.75,-72 260.75,-72 304.75,-72 304.75,-72 310.75,-72 316.75,-78 316.75,-84 316.75,-84 316.75,-101 316.75,-101 316.75,-107 310.75,-113 304.75,-113"/>
<text text-anchor="middle" x="282.75" y="-101" font-family="sans" font-size="10.00">mutect2</text>
<text text-anchor="middle" x="282.75" y="-90" font-family="sans" font-size="10.00">normal: L1</text>
<text text-anchor="middle" x="282.75" y="-79" font-family="sans" font-size="10.00">tumor: L2</text>
</g>
<!-- 1&#45;&gt;6 -->
<g id="edge31" class="edge">
<title>1&#45;&gt;6</title>
<path fill="none" stroke="grey" stroke-width="2" d="M697.19,-234.3C607.13,-227.6 433.79,-211.66 378.75,-185 348.38,-170.29 321.33,-142.44 303.74,-121.31"/>
<polygon fill="grey" stroke="grey" stroke-width="2" points="306.26,-118.87 297.25,-113.3 300.82,-123.27 306.26,-118.87"/>
</g>
<!-- 10 -->
<g id="node11" class="node">
<title>10</title>
<path fill="none" stroke="#78d856" stroke-width="2" d="M738.25,-185C738.25,-185 647.25,-185 647.25,-185 641.25,-185 635.25,-179 635.25,-173 635.25,-173 635.25,-161 635.25,-161 635.25,-155 641.25,-149 647.25,-149 647.25,-149 738.25,-149 738.25,-149 744.25,-149 750.25,-155 750.25,-161 750.25,-161 750.25,-173 750.25,-173 750.25,-179 744.25,-185 738.25,-185"/>
<text text-anchor="middle" x="692.75" y="-164.5" font-family="sans" font-size="10.00">samtools_index_md</text>
</g>
<!-- 1&#45;&gt;10 -->
<g id="edge41" class="edge">
<title>1&#45;&gt;10</title>
<path fill="none" stroke="grey" stroke-width="2" d="M737.92,-220.7C730.73,-212.3 721.95,-202.07 714.06,-192.86"/>
<polygon fill="grey" stroke="grey" stroke-width="2" points="716.58,-190.42 707.41,-185.1 711.26,-194.97 716.58,-190.42"/>
</g>
<!-- 2 -->
<g id="node3" class="node">
<title>2</title>
<path fill="none" stroke="#59d856" stroke-width="2" d="M288.25,-257C288.25,-257 201.25,-257 201.25,-257 195.25,-257 189.25,-251 189.25,-245 189.25,-245 189.25,-233 189.25,-233 189.25,-227 195.25,-221 201.25,-221 201.25,-221 288.25,-221 288.25,-221 294.25,-221 300.25,-227 300.25,-233 300.25,-233 300.25,-245 300.25,-245 300.25,-251 294.25,-257 288.25,-257"/>
<text text-anchor="middle" x="244.75" y="-236.5" font-family="sans" font-size="10.00">samtools_view_md</text>
</g>
<!-- 2&#45;&gt;0 -->
<g id="edge2" class="edge">
<title>2&#45;&gt;0</title>
<path fill="none" stroke="grey" stroke-width="2" d="M235.21,-220.93C230.11,-210.82 224.36,-197.57 221.75,-185 211.41,-135.21 202.97,-107.12 239.75,-72 274.93,-38.42 419.07,-25.37 488.3,-20.96"/>
<polygon fill="grey" stroke="grey" stroke-width="2" points="488.58,-24.45 498.34,-20.35 488.15,-17.47 488.58,-24.45"/>
</g>
<!-- 2&#45;&gt;3 -->
<g id="edge13" class="edge">
<title>2&#45;&gt;3</title>
<path fill="none" stroke="grey" stroke-width="2" d="M300.45,-238.33C417.47,-238.06 684.27,-232.12 759.75,-185 782.5,-170.8 797.64,-143.82 806.56,-122.83"/>
<polygon fill="grey" stroke="grey" stroke-width="2" points="809.88,-123.96 810.34,-113.37 803.38,-121.36 809.88,-123.96"/>
</g>
<!-- 2&#45;&gt;4 -->
<g id="edge19" class="edge">
<title>2&#45;&gt;4</title>
<path fill="none" stroke="grey" stroke-width="2" d="M300.43,-236.04C356.64,-232.03 444.52,-220.11 511.75,-185 541.32,-169.56 567.99,-142.07 585.5,-121.23"/>
<polygon fill="grey" stroke="grey" stroke-width="2" points="588.34,-123.29 591.97,-113.34 582.92,-118.85 588.34,-123.29"/>
</g>
<!-- 2&#45;&gt;5 -->
<g id="edge24" class="edge">
<title>2&#45;&gt;5</title>
<path fill="none" stroke="grey" stroke-width="2" d="M252.92,-220.67C263.03,-200.88 282,-168.7 306.75,-149 334.4,-126.99 371.93,-112.65 400.87,-104.07"/>
<polygon fill="grey" stroke="grey" stroke-width="2" points="402.06,-107.37 410.72,-101.27 400.14,-100.64 402.06,-107.37"/>
</g>
<!-- 2&#45;&gt;6 -->
<g id="edge30" class="edge">
<title>2&#45;&gt;6</title>
<path fill="none" stroke="grey" stroke-width="2" d="M236.84,-220.68C229.62,-202.31 221.38,-172.71 230.75,-149 234.95,-138.38 242.25,-128.59 250.07,-120.3"/>
<polygon fill="grey" stroke="grey" stroke-width="2" points="252.69,-122.64 257.34,-113.12 247.76,-117.66 252.69,-122.64"/>
</g>
<!-- 11 -->
<g id="node12" class="node">
<title>11</title>
<path fill="none" stroke="#78d856" stroke-width="2" d="M490.25,-185C490.25,-185 399.25,-185 399.25,-185 393.25,-185 387.25,-179 387.25,-173 387.25,-173 387.25,-161 387.25,-161 387.25,-155 393.25,-149 399.25,-149 399.25,-149 490.25,-149 490.25,-149 496.25,-149 502.25,-155 502.25,-161 502.25,-161 502.25,-173 502.25,-173 502.25,-179 496.25,-185 490.25,-185"/>
<text text-anchor="middle" x="444.75" y="-164.5" font-family="sans" font-size="10.00">samtools_index_md</text>
</g>
<!-- 2&#45;&gt;11 -->
<g id="edge42" class="edge">
<title>2&#45;&gt;11</title>
<path fill="none" stroke="grey" stroke-width="2" d="M293.42,-220.97C321.36,-211.19 356.65,-198.84 386.11,-188.52"/>
<polygon fill="grey" stroke="grey" stroke-width="2" points="387.58,-191.72 395.86,-185.11 385.27,-185.11 387.58,-191.72"/>
</g>
<!-- 3&#45;&gt;0 -->
<g id="edge3" class="edge">
<title>3&#45;&gt;0</title>
<path fill="none" stroke="grey" stroke-width="2" d="M782.51,-82.97C727.49,-69.26 619.82,-42.44 562.97,-28.27"/>
<polygon fill="grey" stroke="grey" stroke-width="2" points="563.52,-24.8 552.97,-25.78 561.82,-31.59 563.52,-24.8"/>
</g>
<!-- 4&#45;&gt;0 -->
<g id="edge4" class="edge">
<title>4&#45;&gt;0</title>
<path fill="none" stroke="grey" stroke-width="2" d="M584.62,-71.69C574.69,-62.8 562.89,-52.24 552.47,-42.92"/>
<polygon fill="grey" stroke="grey" stroke-width="2" points="554.62,-40.14 544.83,-36.08 549.95,-45.36 554.62,-40.14"/>
</g>
<!-- 5&#45;&gt;0 -->
<g id="edge5" class="edge">
<title>5&#45;&gt;0</title>
<path fill="none" stroke="grey" stroke-width="2" d="M466.88,-71.69C476.81,-62.8 488.61,-52.24 499.03,-42.92"/>
<polygon fill="grey" stroke="grey" stroke-width="2" points="501.55,-45.36 506.67,-36.08 496.88,-40.14 501.55,-45.36"/>
</g>
<!-- 6&#45;&gt;0 -->
<g id="edge6" class="edge">
<title>6&#45;&gt;0</title>
<path fill="none" stroke="grey" stroke-width="2" d="M316.79,-81.34C362.18,-67.8 442.22,-43.92 488.96,-29.98"/>
<polygon fill="grey" stroke="grey" stroke-width="2" points="490.1,-33.29 498.68,-27.08 488.1,-26.58 490.1,-33.29"/>
</g>
<!-- 7 -->
<g id="node8" class="node">
<title>7</title>
<path fill="none" stroke="#d8b456" stroke-width="2" d="M788.25,-329C788.25,-329 693.25,-329 693.25,-329 687.25,-329 681.25,-323 681.25,-317 681.25,-317 681.25,-305 681.25,-305 681.25,-299 687.25,-293 693.25,-293 693.25,-293 788.25,-293 788.25,-293 794.25,-293 800.25,-299 800.25,-305 800.25,-305 800.25,-317 800.25,-317 800.25,-323 794.25,-329 788.25,-329"/>
<text text-anchor="middle" x="740.75" y="-308.5" font-family="sans" font-size="10.00">gatk_markduplicates</text>
</g>
<!-- 7&#45;&gt;1 -->
<g id="edge7" class="edge">
<title>7&#45;&gt;1</title>
<path fill="none" stroke="grey" stroke-width="2" d="M743.72,-292.7C745.04,-284.98 746.63,-275.71 748.1,-267.11"/>
<polygon fill="grey" stroke="grey" stroke-width="2" points="751.58,-267.55 749.82,-257.1 744.68,-266.37 751.58,-267.55"/>
</g>
<!-- 8 -->
<g id="node9" class="node">
<title>8</title>
<path fill="none" stroke="#d85656" stroke-width="2" d="M530.75,-761C530.75,-761 474.75,-761 474.75,-761 468.75,-761 462.75,-755 462.75,-749 462.75,-749 462.75,-737 462.75,-737 462.75,-731 468.75,-725 474.75,-725 474.75,-725 530.75,-725 530.75,-725 536.75,-725 542.75,-731 542.75,-737 542.75,-737 542.75,-749 542.75,-749 542.75,-755 536.75,-761 530.75,-761"/>
<text text-anchor="middle" x="502.75" y="-740.5" font-family="sans" font-size="10.00">cp_reference</text>
</g>
<!-- 8&#45;&gt;1 -->
<g id="edge8" class="edge">
<title>8&#45;&gt;1</title>
<path fill="none" stroke="grey" stroke-width="2" d="M542.88,-740.16C646.59,-735 917.33,-718.78 943.75,-689 954.37,-677.03 946.83,-668.7 943.75,-653 932.2,-594.12 892.75,-588 892.75,-528 892.75,-528 892.75,-528 892.75,-382 892.75,-327.01 838.85,-285.59 797.94,-262.07"/>
<polygon fill="grey" stroke="grey" stroke-width="2" points="799.61,-259 789.17,-257.19 796.2,-265.11 799.61,-259"/>
</g>
<!-- 8&#45;&gt;2 -->
<g id="edge10" class="edge">
<title>8&#45;&gt;2</title>
<path fill="none" stroke="grey" stroke-width="2" d="M462.74,-736.95C406.96,-729.15 309.76,-712.58 283.75,-689 252.72,-660.86 252.75,-641.89 252.75,-600 252.75,-600 252.75,-600 252.75,-526 252.75,-430.9 248.28,-318.09 246.02,-267.24"/>
<polygon fill="grey" stroke="grey" stroke-width="2" points="249.51,-266.91 245.56,-257.08 242.52,-267.23 249.51,-266.91"/>
</g>
<!-- 8&#45;&gt;3 -->
<g id="edge11" class="edge">
<title>8&#45;&gt;3</title>
<path fill="none" stroke="grey" stroke-width="2" d="M542.97,-742.03C641.62,-741.36 892.44,-735.07 959.75,-689 996.66,-663.74 1006.75,-644.73 1006.75,-600 1006.75,-600 1006.75,-600 1006.75,-238 1006.75,-165.09 917.01,-124.14 860.88,-105.67"/>
<polygon fill="grey" stroke="grey" stroke-width="2" points="861.75,-102.27 851.16,-102.58 859.63,-108.94 861.75,-102.27"/>
</g>
<!-- 8&#45;&gt;4 -->
<g id="edge17" class="edge">
<title>8&#45;&gt;4</title>
<path fill="none" stroke="grey" stroke-width="2" d="M542.91,-738.73C591.28,-733.52 674,-720.47 737.75,-689 837.92,-639.56 930.75,-639.71 930.75,-528 930.75,-528 930.75,-528 930.75,-238 930.75,-177.36 739.06,-124.51 650.57,-103.35"/>
<polygon fill="grey" stroke="grey" stroke-width="2" points="651.35,-99.94 640.81,-101.04 649.74,-106.75 651.35,-99.94"/>
</g>
<!-- 8&#45;&gt;5 -->
<g id="edge23" class="edge">
<title>8&#45;&gt;5</title>
<path fill="none" stroke="grey" stroke-width="2" d="M462.64,-735.19C431.18,-728.14 387.84,-714.44 357.75,-689 329.63,-665.23 326.18,-652.6 316.75,-617 312.66,-601.53 316.26,-596.99 316.75,-581 319.42,-493.32 328.75,-471.72 328.75,-384 328.75,-384 328.75,-384 328.75,-310 328.75,-236.05 329.53,-210.4 370.75,-149 378.89,-136.88 390.58,-126.36 402.28,-117.85"/>
<polygon fill="grey" stroke="grey" stroke-width="2" points="404.5,-120.56 410.74,-112 400.53,-114.8 404.5,-120.56"/>
</g>
<!-- 8&#45;&gt;6 -->
<g id="edge29" class="edge">
<title>8&#45;&gt;6</title>
<path fill="none" stroke="grey" stroke-width="2" d="M462.57,-740.24C352.87,-735.06 54.23,-718.37 21.75,-689 -8.25,-661.87 2.75,-640.45 2.75,-600 2.75,-600 2.75,-600 2.75,-238 2.75,-133.16 159.67,-104.31 238.56,-96.43"/>
<polygon fill="grey" stroke="grey" stroke-width="2" points="239.06,-99.9 248.7,-95.49 238.42,-92.93 239.06,-99.9"/>
</g>
<!-- 8&#45;&gt;7 -->
<g id="edge36" class="edge">
<title>8&#45;&gt;7</title>
<path fill="none" stroke="grey" stroke-width="2" d="M542.86,-742.42C588.66,-740.72 663.11,-731.03 708.75,-689 805.97,-599.48 770.08,-532.55 782.75,-401 784.28,-385.07 788.01,-380.11 782.75,-365 779.22,-354.86 772.85,-345.19 766.11,-336.96"/>
<polygon fill="grey" stroke="grey" stroke-width="2" points="768.58,-334.46 759.35,-329.24 763.31,-339.07 768.58,-334.46"/>
</g>
<!-- 9 -->
<g id="node10" class="node">
<title>9</title>
<path fill="none" stroke="#d8b456" stroke-width="2" d="M169.25,-329C169.25,-329 74.25,-329 74.25,-329 68.25,-329 62.25,-323 62.25,-317 62.25,-317 62.25,-305 62.25,-305 62.25,-299 68.25,-293 74.25,-293 74.25,-293 169.25,-293 169.25,-293 175.25,-293 181.25,-299 181.25,-305 181.25,-305 181.25,-317 181.25,-317 181.25,-323 175.25,-329 169.25,-329"/>
<text text-anchor="middle" x="121.75" y="-308.5" font-family="sans" font-size="10.00">gatk_markduplicates</text>
</g>
<!-- 8&#45;&gt;9 -->
<g id="edge39" class="edge">
<title>8&#45;&gt;9</title>
<path fill="none" stroke="grey" stroke-width="2" d="M462.63,-739.08C391.37,-733.22 246.4,-718.03 205.75,-689 96.06,-610.67 117.74,-535.6 110.75,-401 109.92,-385.02 109.12,-380.92 110.75,-365 111.63,-356.46 113.28,-347.26 115.04,-338.96"/>
<polygon fill="grey" stroke="grey" stroke-width="2" points="118.49,-339.57 117.29,-329.05 111.67,-338.03 118.49,-339.57"/>
</g>
<!-- 12 -->
<g id="node13" class="node">
<title>12</title>
<path fill="none" stroke="#d6d856" stroke-width="2" d="M525.25,-689C525.25,-689 480.25,-689 480.25,-689 474.25,-689 468.25,-683 468.25,-677 468.25,-677 468.25,-665 468.25,-665 468.25,-659 474.25,-653 480.25,-653 480.25,-653 525.25,-653 525.25,-653 531.25,-653 537.25,-659 537.25,-665 537.25,-665 537.25,-677 537.25,-677 537.25,-683 531.25,-689 525.25,-689"/>
<text text-anchor="middle" x="502.75" y="-668.5" font-family="sans" font-size="10.00">bwa_index</text>
</g>
<!-- 8&#45;&gt;12 -->
<g id="edge43" class="edge">
<title>8&#45;&gt;12</title>
<path fill="none" stroke="grey" stroke-width="2" d="M502.75,-724.7C502.75,-716.98 502.75,-707.71 502.75,-699.11"/>
<polygon fill="grey" stroke="grey" stroke-width="2" points="506.25,-699.1 502.75,-689.1 499.25,-699.1 506.25,-699.1"/>
</g>
<!-- 17 -->
<g id="node18" class="node">
<title>17</title>
<path fill="none" stroke="#56d8b9" stroke-width="2" d="M733.75,-545C733.75,-545 667.75,-545 667.75,-545 661.75,-545 655.75,-539 655.75,-533 655.75,-533 655.75,-521 655.75,-521 655.75,-515 661.75,-509 667.75,-509 667.75,-509 733.75,-509 733.75,-509 739.75,-509 745.75,-515 745.75,-521 745.75,-521 745.75,-533 745.75,-533 745.75,-539 739.75,-545 733.75,-545"/>
<text text-anchor="middle" x="700.75" y="-524.5" font-family="sans" font-size="10.00">samtools_view</text>
</g>
<!-- 8&#45;&gt;17 -->
<g id="edge49" class="edge">
<title>8&#45;&gt;17</title>
<path fill="none" stroke="grey" stroke-width="2" d="M542.75,-738.6C581.28,-733.49 639.36,-720.73 678.75,-689 718.61,-656.89 727.09,-631.5 718.75,-581 717.31,-572.28 714.62,-563.06 711.75,-554.8"/>
<polygon fill="grey" stroke="grey" stroke-width="2" points="714.98,-553.46 708.23,-545.3 708.42,-555.89 714.98,-553.46"/>
</g>
<!-- 18 -->
<g id="node19" class="node">
<title>18</title>
<path fill="none" stroke="#56d8b9" stroke-width="2" d="M212.75,-545C212.75,-545 146.75,-545 146.75,-545 140.75,-545 134.75,-539 134.75,-533 134.75,-533 134.75,-521 134.75,-521 134.75,-515 140.75,-509 146.75,-509 146.75,-509 212.75,-509 212.75,-509 218.75,-509 224.75,-515 224.75,-521 224.75,-521 224.75,-533 224.75,-533 224.75,-539 218.75,-545 212.75,-545"/>
<text text-anchor="middle" x="179.75" y="-524.5" font-family="sans" font-size="10.00">samtools_view</text>
</g>
<!-- 8&#45;&gt;18 -->
<g id="edge51" class="edge">
<title>8&#45;&gt;18</title>
<path fill="none" stroke="grey" stroke-width="2" d="M462.52,-738.7C397.17,-732.58 271.89,-717.41 238.75,-689 199.02,-654.93 186.03,-591.72 181.8,-555.47"/>
<polygon fill="grey" stroke="grey" stroke-width="2" points="185.24,-554.73 180.74,-545.14 178.28,-555.44 185.24,-554.73"/>
</g>
<!-- 19 -->
<g id="node20" class="node">
<title>19</title>
<path fill="none" stroke="#569ad8" stroke-width="2" d="M697.75,-617C697.75,-617 653.75,-617 653.75,-617 647.75,-617 641.75,-611 641.75,-605 641.75,-605 641.75,-593 641.75,-593 641.75,-587 647.75,-581 653.75,-581 653.75,-581 697.75,-581 697.75,-581 703.75,-581 709.75,-587 709.75,-593 709.75,-593 709.75,-605 709.75,-605 709.75,-611 703.75,-617 697.75,-617"/>
<text text-anchor="middle" x="675.75" y="-596.5" font-family="sans" font-size="10.00">bwa_mem</text>
</g>
<!-- 8&#45;&gt;19 -->
<g id="edge52" class="edge">
<title>8&#45;&gt;19</title>
<path fill="none" stroke="grey" stroke-width="2" d="M542.86,-738.99C578.02,-734.16 627.88,-721.6 656.75,-689 671.6,-672.23 675.83,-646.75 676.65,-627.34"/>
<polygon fill="grey" stroke="grey" stroke-width="2" points="680.15,-627.33 676.8,-617.28 673.15,-627.22 680.15,-627.33"/>
</g>
<!-- 20 -->
<g id="node21" class="node">
<title>20</title>
<path fill="none" stroke="#569ad8" stroke-width="2" d="M381.75,-617C381.75,-617 337.75,-617 337.75,-617 331.75,-617 325.75,-611 325.75,-605 325.75,-605 325.75,-593 325.75,-593 325.75,-587 331.75,-581 337.75,-581 337.75,-581 381.75,-581 381.75,-581 387.75,-581 393.75,-587 393.75,-593 393.75,-593 393.75,-605 393.75,-605 393.75,-611 387.75,-617 381.75,-617"/>
<text text-anchor="middle" x="359.75" y="-596.5" font-family="sans" font-size="10.00">bwa_mem</text>
</g>
<!-- 8&#45;&gt;20 -->
<g id="edge57" class="edge">
<title>8&#45;&gt;20</title>
<path fill="none" stroke="grey" stroke-width="2" d="M462.57,-734.88C434.96,-727.88 399.65,-714.4 378.75,-689 364.58,-671.79 360.26,-646.51 359.24,-627.29"/>
<polygon fill="grey" stroke="grey" stroke-width="2" points="362.73,-626.96 358.96,-617.05 355.73,-627.14 362.73,-626.96"/>
</g>
<!-- 22 -->
<g id="node23" class="node">
<title>22</title>
<path fill="none" stroke="#567bd8" stroke-width="2" d="M635.75,-689C635.75,-689 567.75,-689 567.75,-689 561.75,-689 555.75,-683 555.75,-677 555.75,-677 555.75,-665 555.75,-665 555.75,-659 561.75,-653 567.75,-653 567.75,-653 635.75,-653 635.75,-653 641.75,-653 647.75,-659 647.75,-665 647.75,-665 647.75,-677 647.75,-677 647.75,-683 641.75,-689 635.75,-689"/>
<text text-anchor="middle" x="601.75" y="-668.5" font-family="sans" font-size="10.00">samtools_faidx</text>
</g>
<!-- 8&#45;&gt;22 -->
<g id="edge63" class="edge">
<title>8&#45;&gt;22</title>
<path fill="none" stroke="grey" stroke-width="2" d="M526.97,-724.88C539.67,-715.89 555.41,-704.76 569.17,-695.03"/>
<polygon fill="grey" stroke="grey" stroke-width="2" points="571.29,-697.82 577.44,-689.19 567.25,-692.11 571.29,-697.82"/>
</g>
<!-- 23 -->
<g id="node24" class="node">
<title>23</title>
<path fill="none" stroke="#56d8d8" stroke-width="2" d="M437.75,-689C437.75,-689 399.75,-689 399.75,-689 393.75,-689 387.75,-683 387.75,-677 387.75,-677 387.75,-665 387.75,-665 387.75,-659 393.75,-653 399.75,-653 399.75,-653 437.75,-653 437.75,-653 443.75,-653 449.75,-659 449.75,-665 449.75,-665 449.75,-677 449.75,-677 449.75,-683 443.75,-689 437.75,-689"/>
<text text-anchor="middle" x="418.75" y="-668.5" font-family="sans" font-size="10.00">gatk_dict</text>
</g>
<!-- 8&#45;&gt;23 -->
<g id="edge64" class="edge">
<title>8&#45;&gt;23</title>
<path fill="none" stroke="grey" stroke-width="2" d="M481.99,-724.7C471.51,-715.97 458.64,-705.24 447.25,-695.75"/>
<polygon fill="grey" stroke="grey" stroke-width="2" points="449.2,-692.82 439.28,-689.1 444.72,-698.19 449.2,-692.82"/>
</g>
<!-- 9&#45;&gt;2 -->
<g id="edge9" class="edge">
<title>9&#45;&gt;2</title>
<path fill="none" stroke="grey" stroke-width="2" d="M151.84,-292.88C168.07,-283.64 188.29,-272.13 205.72,-262.21"/>
<polygon fill="grey" stroke="grey" stroke-width="2" points="207.59,-265.18 214.55,-257.19 204.12,-259.09 207.59,-265.18"/>
</g>
<!-- 10&#45;&gt;3 -->
<g id="edge14" class="edge">
<title>10&#45;&gt;3</title>
<path fill="none" stroke="grey" stroke-width="2" d="M722.14,-148.82C737.75,-139.69 757.22,-128.31 774.43,-118.24"/>
<polygon fill="grey" stroke="grey" stroke-width="2" points="776.33,-121.19 783.19,-113.12 772.79,-115.15 776.33,-121.19"/>
</g>
<!-- 10&#45;&gt;4 -->
<g id="edge20" class="edge">
<title>10&#45;&gt;4</title>
<path fill="none" stroke="grey" stroke-width="2" d="M672.37,-148.82C662.04,-140.11 649.27,-129.35 637.75,-119.64"/>
<polygon fill="grey" stroke="grey" stroke-width="2" points="639.92,-116.89 630.02,-113.12 635.41,-122.24 639.92,-116.89"/>
</g>
<!-- 10&#45;&gt;5 -->
<g id="edge27" class="edge">
<title>10&#45;&gt;5</title>
<path fill="none" stroke="grey" stroke-width="2" d="M635.23,-149.18C590.55,-136.12 529.52,-118.28 488.7,-106.35"/>
<polygon fill="grey" stroke="grey" stroke-width="2" points="489.62,-102.97 479.04,-103.52 487.65,-109.69 489.62,-102.97"/>
</g>
<!-- 10&#45;&gt;6 -->
<g id="edge33" class="edge">
<title>10&#45;&gt;6</title>
<path fill="none" stroke="grey" stroke-width="2" d="M634.88,-155.77C552.02,-141.12 401.41,-114.48 326.91,-101.31"/>
<polygon fill="grey" stroke="grey" stroke-width="2" points="327.37,-97.84 316.92,-99.54 326.15,-104.73 327.37,-97.84"/>
</g>
<!-- 11&#45;&gt;3 -->
<g id="edge15" class="edge">
<title>11&#45;&gt;3</title>
<path fill="none" stroke="grey" stroke-width="2" d="M502.47,-154.75C577.01,-140.22 705.14,-115.25 772.46,-102.13"/>
<polygon fill="grey" stroke="grey" stroke-width="2" points="773.19,-105.56 782.34,-100.21 771.85,-98.68 773.19,-105.56"/>
</g>
<!-- 11&#45;&gt;4 -->
<g id="edge21" class="edge">
<title>11&#45;&gt;4</title>
<path fill="none" stroke="grey" stroke-width="2" d="M483.14,-148.82C507.2,-138.05 538.27,-124.15 563.25,-112.97"/>
<polygon fill="grey" stroke="grey" stroke-width="2" points="564.79,-116.11 572.49,-108.83 561.93,-109.72 564.79,-116.11"/>
</g>
<!-- 11&#45;&gt;5 -->
<g id="edge26" class="edge">
<title>11&#45;&gt;5</title>
<path fill="none" stroke="grey" stroke-width="2" d="M444.75,-148.82C444.75,-141.2 444.75,-132 444.75,-123.32"/>
<polygon fill="grey" stroke="grey" stroke-width="2" points="448.25,-123.12 444.75,-113.12 441.25,-123.12 448.25,-123.12"/>
</g>
<!-- 11&#45;&gt;6 -->
<g id="edge32" class="edge">
<title>11&#45;&gt;6</title>
<path fill="none" stroke="grey" stroke-width="2" d="M406.36,-148.82C382.3,-138.05 351.23,-124.15 326.26,-112.97"/>
<polygon fill="grey" stroke="grey" stroke-width="2" points="327.57,-109.72 317.01,-108.83 324.71,-116.11 327.57,-109.72"/>
</g>
<!-- 12&#45;&gt;3 -->
<g id="edge16" class="edge">
<title>12&#45;&gt;3</title>
<path fill="none" stroke="grey" stroke-width="2" d="M528.78,-653C561.58,-629.27 613.75,-582.92 613.75,-528 613.75,-528 613.75,-528 613.75,-454 613.75,-377.79 616.03,-343.9 672.75,-293 722.17,-248.65 767.64,-300.57 817.75,-257 855.26,-224.39 858.94,-197.18 846.75,-149 844.38,-139.64 840.09,-130.15 835.48,-121.73"/>
<polygon fill="grey" stroke="grey" stroke-width="2" points="838.49,-119.94 830.43,-113.06 832.44,-123.46 838.49,-119.94"/>
</g>
<!-- 12&#45;&gt;4 -->
<g id="edge22" class="edge">
<title>12&#45;&gt;4</title>
<path fill="none" stroke="grey" stroke-width="2" d="M518.59,-652.65C540.06,-627.27 575.75,-577.62 575.75,-528 575.75,-528 575.75,-528 575.75,-454 575.75,-331.04 593.88,-185.34 602.41,-123.57"/>
<polygon fill="grey" stroke="grey" stroke-width="2" points="605.91,-123.77 603.83,-113.38 598.98,-122.8 605.91,-123.77"/>
</g>
<!-- 12&#45;&gt;5 -->
<g id="edge28" class="edge">
<title>12&#45;&gt;5</title>
<path fill="none" stroke="grey" stroke-width="2" d="M496.63,-652.69C475.02,-590.5 402.29,-372.12 378.75,-185 376.75,-169.13 372,-163.5 378.75,-149 384.14,-137.43 393.25,-127.42 403.01,-119.2"/>
<polygon fill="grey" stroke="grey" stroke-width="2" points="405.21,-121.93 410.92,-113 400.89,-116.42 405.21,-121.93"/>
</g>
<!-- 12&#45;&gt;6 -->
<g id="edge34" class="edge">
<title>12&#45;&gt;6</title>
<path fill="none" stroke="grey" stroke-width="2" d="M486.96,-652.96C426.73,-587.53 213.19,-351.36 180.75,-257 162.55,-204.05 211.73,-150.46 247.98,-119.7"/>
<polygon fill="grey" stroke="grey" stroke-width="2" points="250.46,-122.18 255.94,-113.12 246,-116.79 250.46,-122.18"/>
</g>
<!-- 12&#45;&gt;19 -->
<g id="edge54" class="edge">
<title>12&#45;&gt;19</title>
<path fill="none" stroke="grey" stroke-width="2" d="M537.34,-656C564.54,-645 602.6,-629.6 631.93,-617.73"/>
<polygon fill="grey" stroke="grey" stroke-width="2" points="633.56,-620.85 641.51,-613.85 630.93,-614.36 633.56,-620.85"/>
</g>
<!-- 12&#45;&gt;20 -->
<g id="edge59" class="edge">
<title>12&#45;&gt;20</title>
<path fill="none" stroke="grey" stroke-width="2" d="M468.13,-653.05C448.64,-643.51 424.1,-631.5 403.31,-621.32"/>
<polygon fill="grey" stroke="grey" stroke-width="2" points="404.57,-618.04 394.05,-616.79 401.49,-624.33 404.57,-618.04"/>
</g>
<!-- 13 -->
<g id="node14" class="node">
<title>13</title>
<path fill="none" stroke="#56d89a" stroke-width="2" d="M731.75,-473C731.75,-473 669.75,-473 669.75,-473 663.75,-473 657.75,-467 657.75,-461 657.75,-461 657.75,-449 657.75,-449 657.75,-443 663.75,-437 669.75,-437 669.75,-437 731.75,-437 731.75,-437 737.75,-437 743.75,-443 743.75,-449 743.75,-449 743.75,-461 743.75,-461 743.75,-467 737.75,-473 731.75,-473"/>
<text text-anchor="middle" x="700.75" y="-452.5" font-family="sans" font-size="10.00">samtools_sort</text>
</g>
<!-- 13&#45;&gt;7 -->
<g id="edge35" class="edge">
<title>13&#45;&gt;7</title>
<path fill="none" stroke="grey" stroke-width="2" d="M687.06,-436.72C674.32,-418.37 658.92,-388.8 670.75,-365 676.75,-352.93 686.96,-342.87 697.76,-334.88"/>
<polygon fill="grey" stroke="grey" stroke-width="2" points="699.81,-337.71 706.07,-329.17 695.84,-331.95 699.81,-337.71"/>
</g>
<!-- 14 -->
<g id="node15" class="node">
<title>14</title>
<path fill="none" stroke="#b6d856" stroke-width="2" d="M761.75,-401C761.75,-401 691.75,-401 691.75,-401 685.75,-401 679.75,-395 679.75,-389 679.75,-389 679.75,-377 679.75,-377 679.75,-371 685.75,-365 691.75,-365 691.75,-365 761.75,-365 761.75,-365 767.75,-365 773.75,-371 773.75,-377 773.75,-377 773.75,-389 773.75,-389 773.75,-395 767.75,-401 761.75,-401"/>
<text text-anchor="middle" x="726.75" y="-380.5" font-family="sans" font-size="10.00">samtools_index</text>
</g>
<!-- 13&#45;&gt;14 -->
<g id="edge45" class="edge">
<title>13&#45;&gt;14</title>
<path fill="none" stroke="grey" stroke-width="2" d="M707.18,-436.7C710.11,-428.81 713.64,-419.3 716.89,-410.55"/>
<polygon fill="grey" stroke="grey" stroke-width="2" points="720.2,-411.7 720.4,-401.1 713.63,-409.26 720.2,-411.7"/>
</g>
<!-- 14&#45;&gt;7 -->
<g id="edge37" class="edge">
<title>14&#45;&gt;7</title>
<path fill="none" stroke="grey" stroke-width="2" d="M730.21,-364.7C731.75,-356.98 733.61,-347.71 735.33,-339.11"/>
<polygon fill="grey" stroke="grey" stroke-width="2" points="738.8,-339.6 737.33,-329.1 731.94,-338.22 738.8,-339.6"/>
</g>
<!-- 15 -->
<g id="node16" class="node">
<title>15</title>
<path fill="none" stroke="#56d89a" stroke-width="2" d="M208.75,-473C208.75,-473 146.75,-473 146.75,-473 140.75,-473 134.75,-467 134.75,-461 134.75,-461 134.75,-449 134.75,-449 134.75,-443 140.75,-437 146.75,-437 146.75,-437 208.75,-437 208.75,-437 214.75,-437 220.75,-443 220.75,-449 220.75,-449 220.75,-461 220.75,-461 220.75,-467 214.75,-473 208.75,-473"/>
<text text-anchor="middle" x="177.75" y="-452.5" font-family="sans" font-size="10.00">samtools_sort</text>
</g>
<!-- 15&#45;&gt;9 -->
<g id="edge38" class="edge">
<title>15&#45;&gt;9</title>
<path fill="none" stroke="grey" stroke-width="2" d="M151.63,-436.82C140.17,-427.69 127.94,-415.39 121.75,-401 113.38,-381.54 113.97,-357.4 116.33,-339.17"/>
<polygon fill="grey" stroke="grey" stroke-width="2" points="119.8,-339.62 117.87,-329.2 112.88,-338.55 119.8,-339.62"/>
</g>
<!-- 16 -->
<g id="node17" class="node">
<title>16</title>
<path fill="none" stroke="#b6d856" stroke-width="2" d="M212.75,-401C212.75,-401 142.75,-401 142.75,-401 136.75,-401 130.75,-395 130.75,-389 130.75,-389 130.75,-377 130.75,-377 130.75,-371 136.75,-365 142.75,-365 142.75,-365 212.75,-365 212.75,-365 218.75,-365 224.75,-371 224.75,-377 224.75,-377 224.75,-389 224.75,-389 224.75,-395 218.75,-401 212.75,-401"/>
<text text-anchor="middle" x="177.75" y="-380.5" font-family="sans" font-size="10.00">samtools_index</text>
</g>
<!-- 15&#45;&gt;16 -->
<g id="edge47" class="edge">
<title>15&#45;&gt;16</title>
<path fill="none" stroke="grey" stroke-width="2" d="M177.75,-436.7C177.75,-428.98 177.75,-419.71 177.75,-411.11"/>
<polygon fill="grey" stroke="grey" stroke-width="2" points="181.25,-411.1 177.75,-401.1 174.25,-411.1 181.25,-411.1"/>
</g>
<!-- 16&#45;&gt;9 -->
<g id="edge40" class="edge">
<title>16&#45;&gt;9</title>
<path fill="none" stroke="grey" stroke-width="2" d="M163.91,-364.7C157.26,-356.39 149.17,-346.28 141.86,-337.14"/>
<polygon fill="grey" stroke="grey" stroke-width="2" points="144.41,-334.73 135.43,-329.1 138.95,-339.1 144.41,-334.73"/>
</g>
<!-- 17&#45;&gt;13 -->
<g id="edge44" class="edge">
<title>17&#45;&gt;13</title>
<path fill="none" stroke="grey" stroke-width="2" d="M700.75,-508.7C700.75,-500.98 700.75,-491.71 700.75,-483.11"/>
<polygon fill="grey" stroke="grey" stroke-width="2" points="704.25,-483.1 700.75,-473.1 697.25,-483.1 704.25,-483.1"/>
</g>
<!-- 18&#45;&gt;15 -->
<g id="edge46" class="edge">
<title>18&#45;&gt;15</title>
<path fill="none" stroke="grey" stroke-width="2" d="M179.26,-508.7C179.04,-500.98 178.77,-491.71 178.53,-483.11"/>
<polygon fill="grey" stroke="grey" stroke-width="2" points="182.02,-483 178.24,-473.1 175.03,-483.2 182.02,-483"/>
</g>
<!-- 19&#45;&gt;17 -->
<g id="edge48" class="edge">
<title>19&#45;&gt;17</title>
<path fill="none" stroke="grey" stroke-width="2" d="M681.93,-580.7C684.75,-572.81 688.14,-563.3 691.27,-554.55"/>
<polygon fill="grey" stroke="grey" stroke-width="2" points="694.57,-555.7 694.64,-545.1 687.98,-553.34 694.57,-555.7"/>
</g>
<!-- 20&#45;&gt;18 -->
<g id="edge50" class="edge">
<title>20&#45;&gt;18</title>
<path fill="none" stroke="grey" stroke-width="2" d="M325.47,-584.67C299.33,-574.5 262.85,-560.32 232.93,-548.68"/>
<polygon fill="grey" stroke="grey" stroke-width="2" points="234.06,-545.36 223.47,-545 231.52,-551.89 234.06,-545.36"/>
</g>
<!-- 21 -->
<g id="node22" class="node">
<title>21</title>
<path fill="none" stroke="#d89556" stroke-width="2" d="M922.75,-689C922.75,-689 866.75,-689 866.75,-689 860.75,-689 854.75,-683 854.75,-677 854.75,-677 854.75,-665 854.75,-665 854.75,-659 860.75,-653 866.75,-653 866.75,-653 922.75,-653 922.75,-653 928.75,-653 934.75,-659 934.75,-665 934.75,-665 934.75,-677 934.75,-677 934.75,-683 928.75,-689 922.75,-689"/>
<text text-anchor="middle" x="894.75" y="-668.5" font-family="sans" font-size="10.00">trimmomatic</text>
</g>
<!-- 21&#45;&gt;19 -->
<g id="edge53" class="edge">
<title>21&#45;&gt;19</title>
<path fill="none" stroke="grey" stroke-width="2" d="M854.58,-657.16C816.33,-644.94 758.91,-626.58 719.51,-613.99"/>
<polygon fill="grey" stroke="grey" stroke-width="2" points="720.5,-610.63 709.91,-610.92 718.37,-617.3 720.5,-610.63"/>
</g>
<!-- 22&#45;&gt;19 -->
<g id="edge55" class="edge">
<title>22&#45;&gt;19</title>
<path fill="none" stroke="grey" stroke-width="2" d="M620.04,-652.7C629.18,-644.05 640.39,-633.45 650.35,-624.03"/>
<polygon fill="grey" stroke="grey" stroke-width="2" points="652.81,-626.52 657.67,-617.1 648,-621.43 652.81,-626.52"/>
</g>
<!-- 22&#45;&gt;20 -->
<g id="edge60" class="edge">
<title>22&#45;&gt;20</title>
<path fill="none" stroke="grey" stroke-width="2" d="M555.56,-655.64C552.58,-654.74 549.63,-653.85 546.75,-653 497.89,-638.53 441.61,-622.69 403.66,-612.13"/>
<polygon fill="grey" stroke="grey" stroke-width="2" points="404.52,-608.73 393.94,-609.43 402.64,-615.48 404.52,-608.73"/>
</g>
<!-- 23&#45;&gt;19 -->
<g id="edge56" class="edge">
<title>23&#45;&gt;19</title>
<path fill="none" stroke="grey" stroke-width="2" d="M449.9,-656.51C453.2,-655.25 456.53,-654.06 459.75,-653 518.3,-633.8 587.78,-617.95 631.82,-608.72"/>
<polygon fill="grey" stroke="grey" stroke-width="2" points="632.55,-612.15 641.63,-606.69 631.13,-605.29 632.55,-612.15"/>
</g>
<!-- 23&#45;&gt;20 -->
<g id="edge61" class="edge">
<title>23&#45;&gt;20</title>
<path fill="none" stroke="grey" stroke-width="2" d="M404.17,-652.7C397.09,-644.3 388.47,-634.07 380.71,-624.86"/>
<polygon fill="grey" stroke="grey" stroke-width="2" points="383.29,-622.49 374.17,-617.1 377.94,-627.01 383.29,-622.49"/>
</g>
<!-- 24 -->
<g id="node25" class="node">
<title>24</title>
<path fill="none" stroke="#d89556" stroke-width="2" d="M98.75,-689C98.75,-689 42.75,-689 42.75,-689 36.75,-689 30.75,-683 30.75,-677 30.75,-677 30.75,-665 30.75,-665 30.75,-659 36.75,-653 42.75,-653 42.75,-653 98.75,-653 98.75,-653 104.75,-653 110.75,-659 110.75,-665 110.75,-665 110.75,-677 110.75,-677 110.75,-683 104.75,-689 98.75,-689"/>
<text text-anchor="middle" x="70.75" y="-668.5" font-family="sans" font-size="10.00">trimmomatic</text>
</g>
<!-- 24&#45;&gt;20 -->
<g id="edge58" class="edge">
<title>24&#45;&gt;20</title>
<path fill="none" stroke="grey" stroke-width="2" d="M110.93,-660.27C164.67,-647.25 259.6,-624.26 315.38,-610.75"/>
<polygon fill="grey" stroke="grey" stroke-width="2" points="316.43,-614.1 325.32,-608.34 314.78,-607.29 316.43,-614.1"/>
</g>
<!-- 25 -->
<g id="node26" class="node">
<title>25</title>
<path fill="none" stroke="#56b9d8" stroke-width="2" d="M915.25,-761C915.25,-761 874.25,-761 874.25,-761 868.25,-761 862.25,-755 862.25,-749 862.25,-749 862.25,-737 862.25,-737 862.25,-731 868.25,-725 874.25,-725 874.25,-725 915.25,-725 915.25,-725 921.25,-725 927.25,-731 927.25,-737 927.25,-737 927.25,-749 927.25,-749 927.25,-755 921.25,-761 915.25,-761"/>
<text text-anchor="middle" x="894.75" y="-746" font-family="sans" font-size="10.00">cp_reads</text>
<text text-anchor="middle" x="894.75" y="-735" font-family="sans" font-size="10.00">library: L1</text>
</g>
<!-- 25&#45;&gt;21 -->
<g id="edge62" class="edge">
<title>25&#45;&gt;21</title>
<path fill="none" stroke="grey" stroke-width="2" d="M894.75,-724.7C894.75,-716.98 894.75,-707.71 894.75,-699.11"/>
<polygon fill="grey" stroke="grey" stroke-width="2" points="898.25,-699.1 894.75,-689.1 891.25,-699.1 898.25,-699.1"/>
</g>
<!-- 26 -->
<g id="node27" class="node">
<title>26</title>
<path fill="none" stroke="#56b9d8" stroke-width="2" d="M91.25,-761C91.25,-761 50.25,-761 50.25,-761 44.25,-761 38.25,-755 38.25,-749 38.25,-749 38.25,-737 38.25,-737 38.25,-731 44.25,-725 50.25,-725 50.25,-725 91.25,-725 91.25,-725 97.25,-725 103.25,-731 103.25,-737 103.25,-737 103.25,-749 103.25,-749 103.25,-755 97.25,-761 91.25,-761"/>
<text text-anchor="middle" x="70.75" y="-746" font-family="sans" font-size="10.00">cp_reads</text>
<text text-anchor="middle" x="70.75" y="-735" font-family="sans" font-size="10.00">library: L2</text>
</g>
<!-- 26&#45;&gt;24 -->
<g id="edge65" class="edge">
<title>26&#45;&gt;24</title>
<path fill="none" stroke="grey" stroke-width="2" d="M70.75,-724.7C70.75,-716.98 70.75,-707.71 70.75,-699.11"/>
<polygon fill="grey" stroke="grey" stroke-width="2" points="74.25,-699.1 70.75,-689.1 67.25,-699.1 74.25,-699.1"/>
</g>
</g>
</svg>
