<?xml version="1.0" encoding="UTF-8" standalone="no"?>
<!DOCTYPE svg PUBLIC "-//W3C//DTD SVG 1.1//EN"
 "http://www.w3.org/Graphics/SVG/1.1/DTD/svg11.dtd">
<!-- Generated by graphviz version 2.43.0 (0)
 -->
<!-- Title: snakemake_dag Pages: 1 -->
<svg width="877pt" height="985pt"
 viewBox="0.00 0.00 876.80 985.00" xmlns="http://www.w3.org/2000/svg" xmlns:xlink="http://www.w3.org/1999/xlink">
<g id="graph0" class="graph" transform="scale(1 1) rotate(0) translate(4 981)">
<title>snakemake_dag</title>
<polygon fill="white" stroke="transparent" points="-4,4 -4,-981 872.8,-981 872.8,4 -4,4"/>
<!-- 0 -->
<g id="node1" class="node">
<title>0</title>
<path fill="none" stroke="#566bd8" stroke-width="2" d="M207.8,-36C207.8,-36 177.8,-36 177.8,-36 171.8,-36 165.8,-30 165.8,-24 165.8,-24 165.8,-12 165.8,-12 165.8,-6 171.8,0 177.8,0 177.8,0 207.8,0 207.8,0 213.8,0 219.8,-6 219.8,-12 219.8,-12 219.8,-24 219.8,-24 219.8,-30 213.8,-36 207.8,-36"/>
<text text-anchor="middle" x="192.8" y="-15.5" font-family="sans" font-size="10.00">all</text>
</g>
<!-- 1 -->
<g id="node2" class="node">
<title>1</title>
<path fill="none" stroke="#56d892" stroke-width="2" d="M276.3,-108C276.3,-108 211.3,-108 211.3,-108 205.3,-108 199.3,-102 199.3,-96 199.3,-96 199.3,-84 199.3,-84 199.3,-78 205.3,-72 211.3,-72 211.3,-72 276.3,-72 276.3,-72 282.3,-72 288.3,-78 288.3,-84 288.3,-84 288.3,-96 288.3,-96 288.3,-102 282.3,-108 276.3,-108"/>
<text text-anchor="middle" x="243.8" y="-93" font-family="sans" font-size="10.00">tsv2sql</text>
<text text-anchor="middle" x="243.8" y="-82" font-family="sans" font-size="10.00">caller: strelka2</text>
</g>
<!-- 1&#45;&gt;0 -->
<g id="edge1" class="edge">
<title>1&#45;&gt;0</title>
<path fill="none" stroke="grey" stroke-width="2" d="M231.19,-71.7C225.2,-63.47 217.92,-53.48 211.32,-44.42"/>
<polygon fill="grey" stroke="grey" stroke-width="2" points="213.97,-42.13 205.26,-36.1 208.32,-46.25 213.97,-42.13"/>
</g>
<!-- 2 -->
<g id="node3" class="node">
<title>2</title>
<path fill="none" stroke="#56d892" stroke-width="2" d="M167.3,-108C167.3,-108 120.3,-108 120.3,-108 114.3,-108 108.3,-102 108.3,-96 108.3,-96 108.3,-84 108.3,-84 108.3,-78 114.3,-72 120.3,-72 120.3,-72 167.3,-72 167.3,-72 173.3,-72 179.3,-78 179.3,-84 179.3,-84 179.3,-96 179.3,-96 179.3,-102 173.3,-108 167.3,-108"/>
<text text-anchor="middle" x="143.8" y="-93" font-family="sans" font-size="10.00">tsv2sql</text>
<text text-anchor="middle" x="143.8" y="-82" font-family="sans" font-size="10.00">caller: gatk</text>
</g>
<!-- 2&#45;&gt;0 -->
<g id="edge2" class="edge">
<title>2&#45;&gt;0</title>
<path fill="none" stroke="grey" stroke-width="2" d="M155.91,-71.7C161.66,-63.47 168.66,-53.48 175,-44.42"/>
<polygon fill="grey" stroke="grey" stroke-width="2" points="177.95,-46.3 180.82,-36.1 172.22,-42.29 177.95,-46.3"/>
</g>
<!-- 3 -->
<g id="node4" class="node">
<title>3</title>
<path fill="none" stroke="#56d8b9" stroke-width="2" d="M389.3,-252C389.3,-252 342.3,-252 342.3,-252 336.3,-252 330.3,-246 330.3,-240 330.3,-240 330.3,-228 330.3,-228 330.3,-222 336.3,-216 342.3,-216 342.3,-216 389.3,-216 389.3,-216 395.3,-216 401.3,-222 401.3,-228 401.3,-228 401.3,-240 401.3,-240 401.3,-246 395.3,-252 389.3,-252"/>
<text text-anchor="middle" x="365.8" y="-231.5" font-family="sans" font-size="10.00">strelka2tsv</text>
</g>
<!-- 3&#45;&gt;1 -->
<g id="edge3" class="edge">
<title>3&#45;&gt;1</title>
<path fill="none" stroke="grey" stroke-width="2" d="M351.08,-215.87C329.74,-191.03 290.06,-144.85 265.4,-116.14"/>
<polygon fill="grey" stroke="grey" stroke-width="2" points="267.73,-113.49 258.56,-108.19 262.43,-118.06 267.73,-113.49"/>
</g>
<!-- 4 -->
<g id="node5" class="node">
<title>4</title>
<path fill="none" stroke="#56a9d8" stroke-width="2" d="M158.3,-180C158.3,-180 123.3,-180 123.3,-180 117.3,-180 111.3,-174 111.3,-168 111.3,-168 111.3,-156 111.3,-156 111.3,-150 117.3,-144 123.3,-144 123.3,-144 158.3,-144 158.3,-144 164.3,-144 170.3,-150 170.3,-156 170.3,-156 170.3,-168 170.3,-168 170.3,-174 164.3,-180 158.3,-180"/>
<text text-anchor="middle" x="140.8" y="-159.5" font-family="sans" font-size="10.00">gatk2tsv</text>
</g>
<!-- 4&#45;&gt;2 -->
<g id="edge4" class="edge">
<title>4&#45;&gt;2</title>
<path fill="none" stroke="grey" stroke-width="2" d="M141.54,-143.7C141.87,-135.98 142.26,-126.71 142.63,-118.11"/>
<polygon fill="grey" stroke="grey" stroke-width="2" points="146.13,-118.25 143.06,-108.1 139.14,-117.95 146.13,-118.25"/>
</g>
<!-- 5 -->
<g id="node6" class="node">
<title>5</title>
<path fill="none" stroke="#56d87b" stroke-width="2" d="M515.8,-329C515.8,-329 457.8,-329 457.8,-329 451.8,-329 445.8,-323 445.8,-317 445.8,-317 445.8,-300 445.8,-300 445.8,-294 451.8,-288 457.8,-288 457.8,-288 515.8,-288 515.8,-288 521.8,-288 527.8,-294 527.8,-300 527.8,-300 527.8,-317 527.8,-317 527.8,-323 521.8,-329 515.8,-329"/>
<text text-anchor="middle" x="486.8" y="-317" font-family="sans" font-size="10.00">strelka2</text>
<text text-anchor="middle" x="486.8" y="-306" font-family="sans" font-size="10.00">normal: test2</text>
<text text-anchor="middle" x="486.8" y="-295" font-family="sans" font-size="10.00">tumor: test1</text>
</g>
<!-- 5&#45;&gt;3 -->
<g id="edge5" class="edge">
<title>5&#45;&gt;3</title>
<path fill="none" stroke="grey" stroke-width="2" d="M454.05,-287.88C438.34,-278.47 419.45,-267.15 403.18,-257.4"/>
<polygon fill="grey" stroke="grey" stroke-width="2" points="404.82,-254.3 394.45,-252.17 401.22,-260.31 404.82,-254.3"/>
</g>
<!-- 6 -->
<g id="node7" class="node">
<title>6</title>
<path fill="none" stroke="#d89556" stroke-width="2" d="M179.8,-252C179.8,-252 87.8,-252 87.8,-252 81.8,-252 75.8,-246 75.8,-240 75.8,-240 75.8,-228 75.8,-228 75.8,-222 81.8,-216 87.8,-216 87.8,-216 179.8,-216 179.8,-216 185.8,-216 191.8,-222 191.8,-228 191.8,-228 191.8,-240 191.8,-240 191.8,-246 185.8,-252 179.8,-252"/>
<text text-anchor="middle" x="133.8" y="-231.5" font-family="sans" font-size="10.00">gatk_genotypegvcfs</text>
</g>
<!-- 6&#45;&gt;4 -->
<g id="edge6" class="edge">
<title>6&#45;&gt;4</title>
<path fill="none" stroke="grey" stroke-width="2" d="M135.53,-215.7C136.3,-207.98 137.22,-198.71 138.08,-190.11"/>
<polygon fill="grey" stroke="grey" stroke-width="2" points="141.57,-190.4 139.08,-180.1 134.61,-189.71 141.57,-190.4"/>
</g>
<!-- 7 -->
<g id="node8" class="node">
<title>7</title>
<path fill="none" stroke="#56d8d0" stroke-width="2" d="M551.3,-977C551.3,-977 432.3,-977 432.3,-977 426.3,-977 420.3,-971 420.3,-965 420.3,-965 420.3,-953 420.3,-953 420.3,-947 426.3,-941 432.3,-941 432.3,-941 551.3,-941 551.3,-941 557.3,-941 563.3,-947 563.3,-953 563.3,-953 563.3,-965 563.3,-965 563.3,-971 557.3,-977 551.3,-977"/>
<text text-anchor="middle" x="491.8" y="-962" font-family="sans" font-size="10.00">samtools_faidx_split</text>
<text text-anchor="middle" x="491.8" y="-951" font-family="sans" font-size="10.00">chromosome: Qrob_Chr01</text>
</g>
<!-- 7&#45;&gt;5 -->
<g id="edge7" class="edge">
<title>7&#45;&gt;5</title>
<path fill="none" stroke="grey" stroke-width="2" d="M563.53,-947.57C654.39,-934.15 800.49,-911.74 810.8,-905 850.32,-879.17 868.8,-863.21 868.8,-816 868.8,-816 868.8,-816 868.8,-454 868.8,-384.09 642.16,-336.15 538.02,-317.81"/>
<polygon fill="grey" stroke="grey" stroke-width="2" points="538.49,-314.34 528.04,-316.07 537.29,-321.23 538.49,-314.34"/>
</g>
<!-- 7&#45;&gt;6 -->
<g id="edge13" class="edge">
<title>7&#45;&gt;6</title>
<path fill="none" stroke="grey" stroke-width="2" d="M419.94,-951.41C300.06,-940.1 70.99,-917.07 57.8,-905 27.95,-877.7 38.8,-856.45 38.8,-816 38.8,-816 38.8,-816 38.8,-382 38.8,-332.28 77.6,-286.07 105.61,-259.19"/>
<polygon fill="grey" stroke="grey" stroke-width="2" points="108.25,-261.51 113.18,-252.13 103.48,-256.39 108.25,-261.51"/>
</g>
<!-- 8 -->
<g id="node9" class="node">
<title>8</title>
<path fill="none" stroke="#68d856" stroke-width="2" d="M654.3,-473C654.3,-473 567.3,-473 567.3,-473 561.3,-473 555.3,-467 555.3,-461 555.3,-461 555.3,-449 555.3,-449 555.3,-443 561.3,-437 567.3,-437 567.3,-437 654.3,-437 654.3,-437 660.3,-437 666.3,-443 666.3,-449 666.3,-449 666.3,-461 666.3,-461 666.3,-467 660.3,-473 654.3,-473"/>
<text text-anchor="middle" x="610.8" y="-452.5" font-family="sans" font-size="10.00">samtools_view_md</text>
</g>
<!-- 7&#45;&gt;8 -->
<g id="edge17" class="edge">
<title>7&#45;&gt;8</title>
<path fill="none" stroke="grey" stroke-width="2" d="M563.51,-947.78C642.1,-936.09 759.41,-917.02 776.8,-905 814.86,-878.7 830.8,-862.27 830.8,-816 830.8,-816 830.8,-816 830.8,-598 830.8,-551.27 811.69,-537.69 774.8,-509 746.43,-486.95 708.59,-473.92 676.41,-466.31"/>
<polygon fill="grey" stroke="grey" stroke-width="2" points="677.14,-462.88 666.62,-464.11 675.61,-469.71 677.14,-462.88"/>
</g>
<!-- 9 -->
<g id="node10" class="node">
<title>9</title>
<path fill="none" stroke="#68d856" stroke-width="2" d="M322.3,-473C322.3,-473 235.3,-473 235.3,-473 229.3,-473 223.3,-467 223.3,-461 223.3,-461 223.3,-449 223.3,-449 223.3,-443 229.3,-437 235.3,-437 235.3,-437 322.3,-437 322.3,-437 328.3,-437 334.3,-443 334.3,-449 334.3,-449 334.3,-461 334.3,-461 334.3,-467 328.3,-473 322.3,-473"/>
<text text-anchor="middle" x="278.8" y="-452.5" font-family="sans" font-size="10.00">samtools_view_md</text>
</g>
<!-- 7&#45;&gt;9 -->
<g id="edge19" class="edge">
<title>7&#45;&gt;9</title>
<path fill="none" stroke="grey" stroke-width="2" d="M518.57,-940.91C551.99,-917.25 604.8,-871.14 604.8,-816 604.8,-816 604.8,-816 604.8,-598 604.8,-485.57 439.82,-461.24 344.59,-456.56"/>
<polygon fill="grey" stroke="grey" stroke-width="2" points="344.61,-453.06 334.47,-456.13 344.31,-460.05 344.61,-453.06"/>
</g>
<!-- 12 -->
<g id="node13" class="node">
<title>12</title>
<path fill="none" stroke="#d8bc56" stroke-width="2" d="M124.3,-905C124.3,-905 79.3,-905 79.3,-905 73.3,-905 67.3,-899 67.3,-893 67.3,-893 67.3,-881 67.3,-881 67.3,-875 73.3,-869 79.3,-869 79.3,-869 124.3,-869 124.3,-869 130.3,-869 136.3,-875 136.3,-881 136.3,-881 136.3,-893 136.3,-893 136.3,-899 130.3,-905 124.3,-905"/>
<text text-anchor="middle" x="101.8" y="-884.5" font-family="sans" font-size="10.00">bwa_index</text>
</g>
<!-- 7&#45;&gt;12 -->
<g id="edge22" class="edge">
<title>7&#45;&gt;12</title>
<path fill="none" stroke="grey" stroke-width="2" d="M420.19,-950.66C350.67,-942.66 242.51,-927.84 150.8,-905 149.32,-904.63 147.83,-904.24 146.33,-903.83"/>
<polygon fill="grey" stroke="grey" stroke-width="2" points="146.94,-900.36 136.36,-900.86 144.94,-907.07 146.94,-900.36"/>
</g>
<!-- 13 -->
<g id="node14" class="node">
<title>13</title>
<path fill="none" stroke="#b6d856" stroke-width="2" d="M238.3,-329C238.3,-329 143.3,-329 143.3,-329 137.3,-329 131.3,-323 131.3,-317 131.3,-317 131.3,-300 131.3,-300 131.3,-294 137.3,-288 143.3,-288 143.3,-288 238.3,-288 238.3,-288 244.3,-288 250.3,-294 250.3,-300 250.3,-300 250.3,-317 250.3,-317 250.3,-323 244.3,-329 238.3,-329"/>
<text text-anchor="middle" x="190.8" y="-317" font-family="sans" font-size="10.00">gatk_haplotypecaller</text>
<text text-anchor="middle" x="190.8" y="-306" font-family="sans" font-size="10.00">normal: test2</text>
<text text-anchor="middle" x="190.8" y="-295" font-family="sans" font-size="10.00">tumor: test1</text>
</g>
<!-- 7&#45;&gt;13 -->
<g id="edge23" class="edge">
<title>7&#45;&gt;13</title>
<path fill="none" stroke="grey" stroke-width="2" d="M420.12,-951.98C292.92,-941.01 39.59,-917.72 24.8,-905 -6.27,-878.29 0.8,-856.97 0.8,-816 0.8,-816 0.8,-816 0.8,-742 0.8,-634.24 114.8,-635.76 114.8,-528 114.8,-528 114.8,-528 114.8,-454 114.8,-409.3 143.63,-364.84 165.78,-337.29"/>
<polygon fill="grey" stroke="grey" stroke-width="2" points="168.71,-339.23 172.4,-329.3 163.32,-334.77 168.71,-339.23"/>
</g>
<!-- 14 -->
<g id="node15" class="node">
<title>14</title>
<path fill="none" stroke="#d87d56" stroke-width="2" d="M753.3,-545C753.3,-545 658.3,-545 658.3,-545 652.3,-545 646.3,-539 646.3,-533 646.3,-533 646.3,-521 646.3,-521 646.3,-515 652.3,-509 658.3,-509 658.3,-509 753.3,-509 753.3,-509 759.3,-509 765.3,-515 765.3,-521 765.3,-521 765.3,-533 765.3,-533 765.3,-539 759.3,-545 753.3,-545"/>
<text text-anchor="middle" x="705.8" y="-524.5" font-family="sans" font-size="10.00">gatk_markduplicates</text>
</g>
<!-- 7&#45;&gt;14 -->
<g id="edge30" class="edge">
<title>7&#45;&gt;14</title>
<path fill="none" stroke="grey" stroke-width="2" d="M563.58,-946.05C627.27,-934.72 711.76,-917.61 721.8,-905 731.76,-892.48 723.66,-884.89 721.8,-869 708.37,-754.65 675.22,-731.35 661.8,-617 659.93,-601.11 656.36,-596.05 661.8,-581 665.55,-570.6 672.33,-560.8 679.46,-552.52"/>
<polygon fill="grey" stroke="grey" stroke-width="2" points="682.12,-554.81 686.32,-545.08 676.97,-550.06 682.12,-554.81"/>
</g>
<!-- 15 -->
<g id="node16" class="node">
<title>15</title>
<path fill="none" stroke="#d87d56" stroke-width="2" d="M326.3,-545C326.3,-545 231.3,-545 231.3,-545 225.3,-545 219.3,-539 219.3,-533 219.3,-533 219.3,-521 219.3,-521 219.3,-515 225.3,-509 231.3,-509 231.3,-509 326.3,-509 326.3,-509 332.3,-509 338.3,-515 338.3,-521 338.3,-521 338.3,-533 338.3,-533 338.3,-539 332.3,-545 326.3,-545"/>
<text text-anchor="middle" x="278.8" y="-524.5" font-family="sans" font-size="10.00">gatk_markduplicates</text>
</g>
<!-- 7&#45;&gt;15 -->
<g id="edge33" class="edge">
<title>7&#45;&gt;15</title>
<path fill="none" stroke="grey" stroke-width="2" d="M420.05,-950.52C333.87,-940.79 198.89,-922.92 183.8,-905 173.49,-892.76 179.62,-884.45 183.8,-869 188.63,-851.12 197.65,-850.09 204.8,-833 220.59,-795.2 228.8,-784.97 228.8,-744 228.8,-744 228.8,-744 228.8,-670 228.8,-627.68 248.8,-582.09 263.5,-554.3"/>
<polygon fill="grey" stroke="grey" stroke-width="2" points="266.72,-555.7 268.44,-545.24 260.57,-552.35 266.72,-555.7"/>
</g>
<!-- 20 -->
<g id="node21" class="node">
<title>20</title>
<path fill="none" stroke="#5692d8" stroke-width="2" d="M785.8,-761C785.8,-761 719.8,-761 719.8,-761 713.8,-761 707.8,-755 707.8,-749 707.8,-749 707.8,-737 707.8,-737 707.8,-731 713.8,-725 719.8,-725 719.8,-725 785.8,-725 785.8,-725 791.8,-725 797.8,-731 797.8,-737 797.8,-737 797.8,-749 797.8,-749 797.8,-755 791.8,-761 785.8,-761"/>
<text text-anchor="middle" x="752.8" y="-740.5" font-family="sans" font-size="10.00">samtools_view</text>
</g>
<!-- 7&#45;&gt;20 -->
<g id="edge40" class="edge">
<title>7&#45;&gt;20</title>
<path fill="none" stroke="grey" stroke-width="2" d="M563.59,-948.26C637.21,-937.53 742.64,-919.84 754.8,-905 785.74,-867.2 773.5,-805.99 762.62,-770.94"/>
<polygon fill="grey" stroke="grey" stroke-width="2" points="765.93,-769.78 759.48,-761.37 759.28,-771.96 765.93,-769.78"/>
</g>
<!-- 21 -->
<g id="node22" class="node">
<title>21</title>
<path fill="none" stroke="#5692d8" stroke-width="2" d="M360.8,-761C360.8,-761 294.8,-761 294.8,-761 288.8,-761 282.8,-755 282.8,-749 282.8,-749 282.8,-737 282.8,-737 282.8,-731 288.8,-725 294.8,-725 294.8,-725 360.8,-725 360.8,-725 366.8,-725 372.8,-731 372.8,-737 372.8,-737 372.8,-749 372.8,-749 372.8,-755 366.8,-761 360.8,-761"/>
<text text-anchor="middle" x="327.8" y="-740.5" font-family="sans" font-size="10.00">samtools_view</text>
</g>
<!-- 7&#45;&gt;21 -->
<g id="edge42" class="edge">
<title>7&#45;&gt;21</title>
<path fill="none" stroke="grey" stroke-width="2" d="M506.55,-940.63C513.89,-930.85 521.98,-918.01 525.8,-905 531.59,-885.25 529.72,-805.68 522.8,-797 505.41,-775.21 434.47,-760.05 383.17,-751.69"/>
<polygon fill="grey" stroke="grey" stroke-width="2" points="383.61,-748.21 373.19,-750.1 382.52,-755.13 383.61,-748.21"/>
</g>
<!-- 22 -->
<g id="node23" class="node">
<title>22</title>
<path fill="none" stroke="#a7d856" stroke-width="2" d="M501.8,-833C501.8,-833 457.8,-833 457.8,-833 451.8,-833 445.8,-827 445.8,-821 445.8,-821 445.8,-809 445.8,-809 445.8,-803 451.8,-797 457.8,-797 457.8,-797 501.8,-797 501.8,-797 507.8,-797 513.8,-803 513.8,-809 513.8,-809 513.8,-821 513.8,-821 513.8,-827 507.8,-833 501.8,-833"/>
<text text-anchor="middle" x="479.8" y="-812.5" font-family="sans" font-size="10.00">bwa_mem</text>
</g>
<!-- 7&#45;&gt;22 -->
<g id="edge43" class="edge">
<title>7&#45;&gt;22</title>
<path fill="none" stroke="grey" stroke-width="2" d="M499.92,-940.8C507.36,-922.78 516.3,-893.7 509.8,-869 507.3,-859.54 502.69,-849.99 497.82,-841.66"/>
<polygon fill="grey" stroke="grey" stroke-width="2" points="500.78,-839.79 492.52,-833.15 494.84,-843.49 500.78,-839.79"/>
</g>
<!-- 23 -->
<g id="node24" class="node">
<title>23</title>
<path fill="none" stroke="#a7d856" stroke-width="2" d="M335.8,-833C335.8,-833 291.8,-833 291.8,-833 285.8,-833 279.8,-827 279.8,-821 279.8,-821 279.8,-809 279.8,-809 279.8,-803 285.8,-797 291.8,-797 291.8,-797 335.8,-797 335.8,-797 341.8,-797 347.8,-803 347.8,-809 347.8,-809 347.8,-821 347.8,-821 347.8,-827 341.8,-833 335.8,-833"/>
<text text-anchor="middle" x="313.8" y="-812.5" font-family="sans" font-size="10.00">bwa_mem</text>
</g>
<!-- 7&#45;&gt;23 -->
<g id="edge48" class="edge">
<title>7&#45;&gt;23</title>
<path fill="none" stroke="grey" stroke-width="2" d="M420.07,-954.35C384.29,-948.55 343.65,-935.13 319.8,-905 306.17,-887.79 305.79,-862.35 308.17,-843.07"/>
<polygon fill="grey" stroke="grey" stroke-width="2" points="311.65,-843.5 309.71,-833.09 304.73,-842.44 311.65,-843.5"/>
</g>
<!-- 25 -->
<g id="node26" class="node">
<title>25</title>
<path fill="none" stroke="#ced856" stroke-width="2" d="M488.8,-905C488.8,-905 420.8,-905 420.8,-905 414.8,-905 408.8,-899 408.8,-893 408.8,-893 408.8,-881 408.8,-881 408.8,-875 414.8,-869 420.8,-869 420.8,-869 488.8,-869 488.8,-869 494.8,-869 500.8,-875 500.8,-881 500.8,-881 500.8,-893 500.8,-893 500.8,-899 494.8,-905 488.8,-905"/>
<text text-anchor="middle" x="454.8" y="-884.5" font-family="sans" font-size="10.00">samtools_faidx</text>
</g>
<!-- 7&#45;&gt;25 -->
<g id="edge54" class="edge">
<title>7&#45;&gt;25</title>
<path fill="none" stroke="grey" stroke-width="2" d="M482.65,-940.7C478.39,-932.64 473.24,-922.89 468.53,-913.98"/>
<polygon fill="grey" stroke="grey" stroke-width="2" points="471.6,-912.31 463.84,-905.1 465.41,-915.58 471.6,-912.31"/>
</g>
<!-- 26 -->
<g id="node27" class="node">
<title>26</title>
<path fill="none" stroke="#56d0d8" stroke-width="2" d="M378.8,-905C378.8,-905 340.8,-905 340.8,-905 334.8,-905 328.8,-899 328.8,-893 328.8,-893 328.8,-881 328.8,-881 328.8,-875 334.8,-869 340.8,-869 340.8,-869 378.8,-869 378.8,-869 384.8,-869 390.8,-875 390.8,-881 390.8,-881 390.8,-893 390.8,-893 390.8,-899 384.8,-905 378.8,-905"/>
<text text-anchor="middle" x="359.8" y="-884.5" font-family="sans" font-size="10.00">gatk_dict</text>
</g>
<!-- 7&#45;&gt;26 -->
<g id="edge55" class="edge">
<title>7&#45;&gt;26</title>
<path fill="none" stroke="grey" stroke-width="2" d="M459.5,-940.88C441.53,-931.35 419,-919.4 399.91,-909.27"/>
<polygon fill="grey" stroke="grey" stroke-width="2" points="401.32,-906.06 390.84,-904.47 398.04,-912.24 401.32,-906.06"/>
</g>
<!-- 8&#45;&gt;5 -->
<g id="edge8" class="edge">
<title>8&#45;&gt;5</title>
<path fill="none" stroke="grey" stroke-width="2" d="M610.08,-436.84C608.46,-417.51 603.26,-386.05 586.8,-365 574.09,-348.75 555.22,-336.55 537.29,-327.79"/>
<polygon fill="grey" stroke="grey" stroke-width="2" points="538.59,-324.53 528.04,-323.52 535.65,-330.89 538.59,-324.53"/>
</g>
<!-- 10 -->
<g id="node11" class="node">
<title>10</title>
<path fill="none" stroke="#59d856" stroke-width="2" d="M532.3,-401C532.3,-401 441.3,-401 441.3,-401 435.3,-401 429.3,-395 429.3,-389 429.3,-389 429.3,-377 429.3,-377 429.3,-371 435.3,-365 441.3,-365 441.3,-365 532.3,-365 532.3,-365 538.3,-365 544.3,-371 544.3,-377 544.3,-377 544.3,-389 544.3,-389 544.3,-395 538.3,-401 532.3,-401"/>
<text text-anchor="middle" x="486.8" y="-380.5" font-family="sans" font-size="10.00">samtools_index_md</text>
</g>
<!-- 8&#45;&gt;10 -->
<g id="edge20" class="edge">
<title>8&#45;&gt;10</title>
<path fill="none" stroke="grey" stroke-width="2" d="M580.46,-436.88C564.1,-427.64 543.71,-416.13 526.14,-406.21"/>
<polygon fill="grey" stroke="grey" stroke-width="2" points="527.67,-403.06 517.25,-401.19 524.23,-409.15 527.67,-403.06"/>
</g>
<!-- 8&#45;&gt;13 -->
<g id="edge24" class="edge">
<title>8&#45;&gt;13</title>
<path fill="none" stroke="grey" stroke-width="2" d="M555.27,-441.2C516.74,-431.68 464.5,-417.52 419.8,-401 384.36,-387.9 377.68,-379.49 342.8,-365 315.18,-353.53 284.26,-342 257.55,-332.45"/>
<polygon fill="grey" stroke="grey" stroke-width="2" points="258.51,-329.08 247.91,-329.03 256.16,-335.67 258.51,-329.08"/>
</g>
<!-- 9&#45;&gt;5 -->
<g id="edge9" class="edge">
<title>9&#45;&gt;5</title>
<path fill="none" stroke="grey" stroke-width="2" d="M334.4,-451.34C406.33,-446.61 525.66,-433.89 552.8,-401 570.3,-379.78 548.74,-354.31 525.7,-335.63"/>
<polygon fill="grey" stroke="grey" stroke-width="2" points="527.6,-332.68 517.55,-329.33 523.32,-338.21 527.6,-332.68"/>
</g>
<!-- 11 -->
<g id="node12" class="node">
<title>11</title>
<path fill="none" stroke="#59d856" stroke-width="2" d="M322.3,-401C322.3,-401 231.3,-401 231.3,-401 225.3,-401 219.3,-395 219.3,-389 219.3,-389 219.3,-377 219.3,-377 219.3,-371 225.3,-365 231.3,-365 231.3,-365 322.3,-365 322.3,-365 328.3,-365 334.3,-371 334.3,-377 334.3,-377 334.3,-389 334.3,-389 334.3,-395 328.3,-401 322.3,-401"/>
<text text-anchor="middle" x="276.8" y="-380.5" font-family="sans" font-size="10.00">samtools_index_md</text>
</g>
<!-- 9&#45;&gt;11 -->
<g id="edge21" class="edge">
<title>9&#45;&gt;11</title>
<path fill="none" stroke="grey" stroke-width="2" d="M278.3,-436.7C278.08,-428.98 277.82,-419.71 277.57,-411.11"/>
<polygon fill="grey" stroke="grey" stroke-width="2" points="281.07,-411 277.28,-401.1 274.07,-411.2 281.07,-411"/>
</g>
<!-- 9&#45;&gt;13 -->
<g id="edge25" class="edge">
<title>9&#45;&gt;13</title>
<path fill="none" stroke="grey" stroke-width="2" d="M247.46,-436.87C233.89,-427.9 219.03,-415.72 209.8,-401 198.21,-382.53 193.55,-358.24 191.74,-339.33"/>
<polygon fill="grey" stroke="grey" stroke-width="2" points="195.22,-338.89 190.99,-329.17 188.24,-339.41 195.22,-338.89"/>
</g>
<!-- 10&#45;&gt;5 -->
<g id="edge10" class="edge">
<title>10&#45;&gt;5</title>
<path fill="none" stroke="grey" stroke-width="2" d="M486.8,-364.82C486.8,-357.2 486.8,-348 486.8,-339.32"/>
<polygon fill="grey" stroke="grey" stroke-width="2" points="490.3,-339.12 486.8,-329.12 483.3,-339.12 490.3,-339.12"/>
</g>
<!-- 10&#45;&gt;13 -->
<g id="edge26" class="edge">
<title>10&#45;&gt;13</title>
<path fill="none" stroke="grey" stroke-width="2" d="M429.02,-367.85C380.76,-356.03 311.79,-339.14 260.47,-326.57"/>
<polygon fill="grey" stroke="grey" stroke-width="2" points="261,-323.09 250.45,-324.11 259.33,-329.89 261,-323.09"/>
</g>
<!-- 11&#45;&gt;5 -->
<g id="edge11" class="edge">
<title>11&#45;&gt;5</title>
<path fill="none" stroke="grey" stroke-width="2" d="M326.3,-364.91C359.41,-353.48 402.85,-338.48 436.18,-326.97"/>
<polygon fill="grey" stroke="grey" stroke-width="2" points="437.43,-330.24 445.74,-323.67 435.15,-323.63 437.43,-330.24"/>
</g>
<!-- 11&#45;&gt;13 -->
<g id="edge27" class="edge">
<title>11&#45;&gt;13</title>
<path fill="none" stroke="grey" stroke-width="2" d="M256.41,-364.82C246.08,-356.11 233.32,-345.35 221.8,-335.64"/>
<polygon fill="grey" stroke="grey" stroke-width="2" points="223.97,-332.89 214.07,-329.12 219.46,-338.24 223.97,-332.89"/>
</g>
<!-- 12&#45;&gt;5 -->
<g id="edge12" class="edge">
<title>12&#45;&gt;5</title>
<path fill="none" stroke="grey" stroke-width="2" d="M121.55,-868.91C147.77,-844.21 190.8,-795.79 190.8,-744 190.8,-744 190.8,-744 190.8,-598 190.8,-525.72 166.12,-491.33 213.8,-437 253.06,-392.26 288.42,-425.22 342.8,-401 382.76,-383.19 424.55,-355.47 452.75,-335.21"/>
<polygon fill="grey" stroke="grey" stroke-width="2" points="455.02,-337.88 461.05,-329.17 450.9,-332.22 455.02,-337.88"/>
</g>
<!-- 12&#45;&gt;6 -->
<g id="edge15" class="edge">
<title>12&#45;&gt;6</title>
<path fill="none" stroke="grey" stroke-width="2" d="M96.74,-868.68C89.43,-842.11 76.8,-789.56 76.8,-744 76.8,-744 76.8,-744 76.8,-382 76.8,-337.24 100.05,-289.69 116.85,-261.17"/>
<polygon fill="grey" stroke="grey" stroke-width="2" points="120.06,-262.62 122.26,-252.26 114.08,-258.99 120.06,-262.62"/>
</g>
<!-- 12&#45;&gt;13 -->
<g id="edge28" class="edge">
<title>12&#45;&gt;13</title>
<path fill="none" stroke="grey" stroke-width="2" d="M112.36,-868.79C127.3,-842.77 152.8,-791.41 152.8,-744 152.8,-744 152.8,-744 152.8,-454 152.8,-412.93 167.33,-367.39 178.42,-338.62"/>
<polygon fill="grey" stroke="grey" stroke-width="2" points="181.73,-339.76 182.17,-329.17 175.23,-337.17 181.73,-339.76"/>
</g>
<!-- 12&#45;&gt;22 -->
<g id="edge45" class="edge">
<title>12&#45;&gt;22</title>
<path fill="none" stroke="grey" stroke-width="2" d="M136.47,-878.59C151.06,-875.53 168.24,-872.01 183.8,-869 273.01,-851.77 377.74,-833.47 435.64,-823.52"/>
<polygon fill="grey" stroke="grey" stroke-width="2" points="436.29,-826.96 445.55,-821.82 435.11,-820.06 436.29,-826.96"/>
</g>
<!-- 12&#45;&gt;23 -->
<g id="edge50" class="edge">
<title>12&#45;&gt;23</title>
<path fill="none" stroke="grey" stroke-width="2" d="M136.33,-874.6C172.78,-862.56 230.34,-843.56 269.96,-830.47"/>
<polygon fill="grey" stroke="grey" stroke-width="2" points="271.23,-833.74 279.63,-827.28 269.03,-827.09 271.23,-833.74"/>
</g>
<!-- 13&#45;&gt;6 -->
<g id="edge14" class="edge">
<title>13&#45;&gt;6</title>
<path fill="none" stroke="grey" stroke-width="2" d="M175.22,-287.69C168.56,-279.21 160.7,-269.22 153.63,-260.23"/>
<polygon fill="grey" stroke="grey" stroke-width="2" points="156.34,-258.02 147.41,-252.32 150.84,-262.34 156.34,-258.02"/>
</g>
<!-- 14&#45;&gt;8 -->
<g id="edge16" class="edge">
<title>14&#45;&gt;8</title>
<path fill="none" stroke="grey" stroke-width="2" d="M682.31,-508.7C670.23,-499.8 655.34,-488.82 642.28,-479.2"/>
<polygon fill="grey" stroke="grey" stroke-width="2" points="644.13,-476.22 634.01,-473.1 639.98,-481.85 644.13,-476.22"/>
</g>
<!-- 15&#45;&gt;9 -->
<g id="edge18" class="edge">
<title>15&#45;&gt;9</title>
<path fill="none" stroke="grey" stroke-width="2" d="M278.8,-508.7C278.8,-500.98 278.8,-491.71 278.8,-483.11"/>
<polygon fill="grey" stroke="grey" stroke-width="2" points="282.3,-483.1 278.8,-473.1 275.3,-483.1 282.3,-483.1"/>
</g>
<!-- 16 -->
<g id="node17" class="node">
<title>16</title>
<path fill="none" stroke="#d85656" stroke-width="2" d="M783.8,-689C783.8,-689 721.8,-689 721.8,-689 715.8,-689 709.8,-683 709.8,-677 709.8,-677 709.8,-665 709.8,-665 709.8,-659 715.8,-653 721.8,-653 721.8,-653 783.8,-653 783.8,-653 789.8,-653 795.8,-659 795.8,-665 795.8,-665 795.8,-677 795.8,-677 795.8,-683 789.8,-689 783.8,-689"/>
<text text-anchor="middle" x="752.8" y="-668.5" font-family="sans" font-size="10.00">samtools_sort</text>
</g>
<!-- 16&#45;&gt;14 -->
<g id="edge29" class="edge">
<title>16&#45;&gt;14</title>
<path fill="none" stroke="grey" stroke-width="2" d="M763.41,-652.84C773.39,-634.34 785.22,-604.39 773.8,-581 767.99,-569.11 758.09,-559.12 747.61,-551.12"/>
<polygon fill="grey" stroke="grey" stroke-width="2" points="749.34,-548.06 739.15,-545.14 745.3,-553.78 749.34,-548.06"/>
</g>
<!-- 17 -->
<g id="node18" class="node">
<title>17</title>
<path fill="none" stroke="#8fd856" stroke-width="2" d="M752.8,-617C752.8,-617 682.8,-617 682.8,-617 676.8,-617 670.8,-611 670.8,-605 670.8,-605 670.8,-593 670.8,-593 670.8,-587 676.8,-581 682.8,-581 682.8,-581 752.8,-581 752.8,-581 758.8,-581 764.8,-587 764.8,-593 764.8,-593 764.8,-605 764.8,-605 764.8,-611 758.8,-617 752.8,-617"/>
<text text-anchor="middle" x="717.8" y="-596.5" font-family="sans" font-size="10.00">samtools_index</text>
</g>
<!-- 16&#45;&gt;17 -->
<g id="edge36" class="edge">
<title>16&#45;&gt;17</title>
<path fill="none" stroke="grey" stroke-width="2" d="M744.14,-652.7C740.16,-644.73 735.34,-635.1 730.93,-626.26"/>
<polygon fill="grey" stroke="grey" stroke-width="2" points="733.95,-624.48 726.35,-617.1 727.69,-627.61 733.95,-624.48"/>
</g>
<!-- 17&#45;&gt;14 -->
<g id="edge31" class="edge">
<title>17&#45;&gt;14</title>
<path fill="none" stroke="grey" stroke-width="2" d="M714.83,-580.7C713.51,-572.98 711.92,-563.71 710.44,-555.11"/>
<polygon fill="grey" stroke="grey" stroke-width="2" points="713.87,-554.37 708.73,-545.1 706.97,-555.55 713.87,-554.37"/>
</g>
<!-- 18 -->
<g id="node19" class="node">
<title>18</title>
<path fill="none" stroke="#d85656" stroke-width="2" d="M358.8,-689C358.8,-689 296.8,-689 296.8,-689 290.8,-689 284.8,-683 284.8,-677 284.8,-677 284.8,-665 284.8,-665 284.8,-659 290.8,-653 296.8,-653 296.8,-653 358.8,-653 358.8,-653 364.8,-653 370.8,-659 370.8,-665 370.8,-665 370.8,-677 370.8,-677 370.8,-683 364.8,-689 358.8,-689"/>
<text text-anchor="middle" x="327.8" y="-668.5" font-family="sans" font-size="10.00">samtools_sort</text>
</g>
<!-- 18&#45;&gt;15 -->
<g id="edge32" class="edge">
<title>18&#45;&gt;15</title>
<path fill="none" stroke="grey" stroke-width="2" d="M313.3,-652.98C305.67,-643.11 296.87,-630.06 291.8,-617 284.12,-597.26 280.93,-573.46 279.62,-555.44"/>
<polygon fill="grey" stroke="grey" stroke-width="2" points="283.11,-555.09 279.04,-545.31 276.12,-555.49 283.11,-555.09"/>
</g>
<!-- 19 -->
<g id="node20" class="node">
<title>19</title>
<path fill="none" stroke="#8fd856" stroke-width="2" d="M382.8,-617C382.8,-617 312.8,-617 312.8,-617 306.8,-617 300.8,-611 300.8,-605 300.8,-605 300.8,-593 300.8,-593 300.8,-587 306.8,-581 312.8,-581 312.8,-581 382.8,-581 382.8,-581 388.8,-581 394.8,-587 394.8,-593 394.8,-593 394.8,-605 394.8,-605 394.8,-611 388.8,-617 382.8,-617"/>
<text text-anchor="middle" x="347.8" y="-596.5" font-family="sans" font-size="10.00">samtools_index</text>
</g>
<!-- 18&#45;&gt;19 -->
<g id="edge38" class="edge">
<title>18&#45;&gt;19</title>
<path fill="none" stroke="grey" stroke-width="2" d="M332.74,-652.7C334.97,-644.9 337.65,-635.51 340.13,-626.83"/>
<polygon fill="grey" stroke="grey" stroke-width="2" points="343.53,-627.68 342.91,-617.1 336.8,-625.76 343.53,-627.68"/>
</g>
<!-- 19&#45;&gt;15 -->
<g id="edge34" class="edge">
<title>19&#45;&gt;15</title>
<path fill="none" stroke="grey" stroke-width="2" d="M330.74,-580.7C322.3,-572.14 311.97,-561.66 302.75,-552.3"/>
<polygon fill="grey" stroke="grey" stroke-width="2" points="305.17,-549.77 295.66,-545.1 300.18,-554.68 305.17,-549.77"/>
</g>
<!-- 20&#45;&gt;16 -->
<g id="edge35" class="edge">
<title>20&#45;&gt;16</title>
<path fill="none" stroke="grey" stroke-width="2" d="M752.8,-724.7C752.8,-716.98 752.8,-707.71 752.8,-699.11"/>
<polygon fill="grey" stroke="grey" stroke-width="2" points="756.3,-699.1 752.8,-689.1 749.3,-699.1 756.3,-699.1"/>
</g>
<!-- 21&#45;&gt;18 -->
<g id="edge37" class="edge">
<title>21&#45;&gt;18</title>
<path fill="none" stroke="grey" stroke-width="2" d="M327.8,-724.7C327.8,-716.98 327.8,-707.71 327.8,-699.11"/>
<polygon fill="grey" stroke="grey" stroke-width="2" points="331.3,-699.1 327.8,-689.1 324.3,-699.1 331.3,-699.1"/>
</g>
<!-- 22&#45;&gt;20 -->
<g id="edge39" class="edge">
<title>22&#45;&gt;20</title>
<path fill="none" stroke="grey" stroke-width="2" d="M513.82,-805.28C559.84,-793.48 642.48,-772.29 697.49,-758.18"/>
<polygon fill="grey" stroke="grey" stroke-width="2" points="698.6,-761.51 707.42,-755.63 696.86,-754.73 698.6,-761.51"/>
</g>
<!-- 23&#45;&gt;21 -->
<g id="edge41" class="edge">
<title>23&#45;&gt;21</title>
<path fill="none" stroke="grey" stroke-width="2" d="M317.26,-796.7C318.8,-788.98 320.65,-779.71 322.37,-771.11"/>
<polygon fill="grey" stroke="grey" stroke-width="2" points="325.85,-771.6 324.37,-761.1 318.98,-770.22 325.85,-771.6"/>
</g>
<!-- 24 -->
<g id="node25" class="node">
<title>24</title>
<path fill="none" stroke="#56d86b" stroke-width="2" d="M700.8,-905C700.8,-905 644.8,-905 644.8,-905 638.8,-905 632.8,-899 632.8,-893 632.8,-893 632.8,-881 632.8,-881 632.8,-875 638.8,-869 644.8,-869 644.8,-869 700.8,-869 700.8,-869 706.8,-869 712.8,-875 712.8,-881 712.8,-881 712.8,-893 712.8,-893 712.8,-899 706.8,-905 700.8,-905"/>
<text text-anchor="middle" x="672.8" y="-884.5" font-family="sans" font-size="10.00">trimmomatic</text>
</g>
<!-- 24&#45;&gt;22 -->
<g id="edge44" class="edge">
<title>24&#45;&gt;22</title>
<path fill="none" stroke="grey" stroke-width="2" d="M632.34,-871.33C600.58,-859.81 556.44,-843.8 523.8,-831.96"/>
<polygon fill="grey" stroke="grey" stroke-width="2" points="524.67,-828.55 514.07,-828.43 522.28,-835.13 524.67,-828.55"/>
</g>
<!-- 25&#45;&gt;22 -->
<g id="edge46" class="edge">
<title>25&#45;&gt;22</title>
<path fill="none" stroke="grey" stroke-width="2" d="M460.97,-868.7C463.79,-860.81 467.19,-851.3 470.31,-842.55"/>
<polygon fill="grey" stroke="grey" stroke-width="2" points="473.62,-843.7 473.69,-833.1 467.03,-841.34 473.62,-843.7"/>
</g>
<!-- 25&#45;&gt;23 -->
<g id="edge51" class="edge">
<title>25&#45;&gt;23</title>
<path fill="none" stroke="grey" stroke-width="2" d="M420.3,-868.88C401.21,-859.4 377.31,-847.53 356.99,-837.44"/>
<polygon fill="grey" stroke="grey" stroke-width="2" points="358.44,-834.26 347.93,-832.95 355.33,-840.53 358.44,-834.26"/>
</g>
<!-- 26&#45;&gt;22 -->
<g id="edge47" class="edge">
<title>26&#45;&gt;22</title>
<path fill="none" stroke="grey" stroke-width="2" d="M389.15,-868.88C404.84,-859.72 424.35,-848.34 441.25,-838.48"/>
<polygon fill="grey" stroke="grey" stroke-width="2" points="443.45,-841.25 450.33,-833.19 439.93,-835.21 443.45,-841.25"/>
</g>
<!-- 26&#45;&gt;23 -->
<g id="edge52" class="edge">
<title>26&#45;&gt;23</title>
<path fill="none" stroke="grey" stroke-width="2" d="M348.42,-868.7C343.08,-860.56 336.59,-850.69 330.68,-841.7"/>
<polygon fill="grey" stroke="grey" stroke-width="2" points="333.45,-839.54 325.04,-833.1 327.6,-843.38 333.45,-839.54"/>
</g>
<!-- 27 -->
<g id="node28" class="node">
<title>27</title>
<path fill="none" stroke="#56d86b" stroke-width="2" d="M260.8,-905C260.8,-905 204.8,-905 204.8,-905 198.8,-905 192.8,-899 192.8,-893 192.8,-893 192.8,-881 192.8,-881 192.8,-875 198.8,-869 204.8,-869 204.8,-869 260.8,-869 260.8,-869 266.8,-869 272.8,-875 272.8,-881 272.8,-881 272.8,-893 272.8,-893 272.8,-899 266.8,-905 260.8,-905"/>
<text text-anchor="middle" x="232.8" y="-884.5" font-family="sans" font-size="10.00">trimmomatic</text>
</g>
<!-- 27&#45;&gt;23 -->
<g id="edge49" class="edge">
<title>27&#45;&gt;23</title>
<path fill="none" stroke="grey" stroke-width="2" d="M252.82,-868.7C262.92,-859.97 275.33,-849.24 286.31,-839.75"/>
<polygon fill="grey" stroke="grey" stroke-width="2" points="288.73,-842.29 294,-833.1 284.15,-836.99 288.73,-842.29"/>
</g>
<!-- 28 -->
<g id="node29" class="node">
<title>28</title>
<path fill="none" stroke="#56b9d8" stroke-width="2" d="M699.8,-977C699.8,-977 645.8,-977 645.8,-977 639.8,-977 633.8,-971 633.8,-965 633.8,-965 633.8,-953 633.8,-953 633.8,-947 639.8,-941 645.8,-941 645.8,-941 699.8,-941 699.8,-941 705.8,-941 711.8,-947 711.8,-953 711.8,-953 711.8,-965 711.8,-965 711.8,-971 705.8,-977 699.8,-977"/>
<text text-anchor="middle" x="672.8" y="-962" font-family="sans" font-size="10.00">cp_reads</text>
<text text-anchor="middle" x="672.8" y="-951" font-family="sans" font-size="10.00">library: test1</text>
</g>
<!-- 28&#45;&gt;24 -->
<g id="edge53" class="edge">
<title>28&#45;&gt;24</title>
<path fill="none" stroke="grey" stroke-width="2" d="M672.8,-940.7C672.8,-932.98 672.8,-923.71 672.8,-915.11"/>
<polygon fill="grey" stroke="grey" stroke-width="2" points="676.3,-915.1 672.8,-905.1 669.3,-915.1 676.3,-915.1"/>
</g>
<!-- 29 -->
<g id="node30" class="node">
<title>29</title>
<path fill="none" stroke="#56b9d8" stroke-width="2" d="M259.8,-977C259.8,-977 205.8,-977 205.8,-977 199.8,-977 193.8,-971 193.8,-965 193.8,-965 193.8,-953 193.8,-953 193.8,-947 199.8,-941 205.8,-941 205.8,-941 259.8,-941 259.8,-941 265.8,-941 271.8,-947 271.8,-953 271.8,-953 271.8,-965 271.8,-965 271.8,-971 265.8,-977 259.8,-977"/>
<text text-anchor="middle" x="232.8" y="-962" font-family="sans" font-size="10.00">cp_reads</text>
<text text-anchor="middle" x="232.8" y="-951" font-family="sans" font-size="10.00">library: test2</text>
</g>
<!-- 29&#45;&gt;27 -->
<g id="edge56" class="edge">
<title>29&#45;&gt;27</title>
<path fill="none" stroke="grey" stroke-width="2" d="M232.8,-940.7C232.8,-932.98 232.8,-923.71 232.8,-915.11"/>
<polygon fill="grey" stroke="grey" stroke-width="2" points="236.3,-915.1 232.8,-905.1 229.3,-915.1 236.3,-915.1"/>
</g>
</g>
</svg>
