<?xml version="1.0" encoding="UTF-8" standalone="no"?>
<!DOCTYPE svg PUBLIC "-//W3C//DTD SVG 1.1//EN"
 "http://www.w3.org/Graphics/SVG/1.1/DTD/svg11.dtd">
<!-- Generated by graphviz version 2.43.0 (0)
 -->
<!-- Title: snakemake_dag Pages: 1 -->
<svg width="360pt" height="764pt"
 viewBox="0.00 0.00 359.68 764.00" xmlns="http://www.w3.org/2000/svg" xmlns:xlink="http://www.w3.org/1999/xlink">
<g id="graph0" class="graph" transform="scale(1 1) rotate(0) translate(4 760)">
<title>snakemake_dag</title>
<polygon fill="white" stroke="transparent" points="-4,4 -4,-760 355.68,-760 355.68,4 -4,4"/>
<!-- 0 -->
<g id="node1" class="node">
<title>0</title>
<path fill="none" stroke="#56d8a9" stroke-width="2" d="M300,-36C300,-36 270,-36 270,-36 264,-36 258,-30 258,-24 258,-24 258,-12 258,-12 258,-6 264,0 270,0 270,0 300,0 300,0 306,0 312,-6 312,-12 312,-12 312,-24 312,-24 312,-30 306,-36 300,-36"/>
<text text-anchor="middle" x="285" y="-15.5" font-family="sans" font-size="10.00">all</text>
</g>
<!-- 1 -->
<g id="node2" class="node">
<title>1</title>
<path fill="none" stroke="#56d88a" stroke-width="2" d="M225,-108C225,-108 195,-108 195,-108 189,-108 183,-102 183,-96 183,-96 183,-84 183,-84 183,-78 189,-72 195,-72 195,-72 225,-72 225,-72 231,-72 237,-78 237,-84 237,-84 237,-96 237,-96 237,-102 231,-108 225,-108"/>
<text text-anchor="middle" x="210" y="-87.5" font-family="sans" font-size="10.00">multiqc</text>
</g>
<!-- 1&#45;&gt;0 -->
<g id="edge1" class="edge">
<title>1&#45;&gt;0</title>
<path fill="none" stroke="grey" stroke-width="2" d="M228.54,-71.7C237.8,-63.05 249.16,-52.45 259.26,-43.03"/>
<polygon fill="grey" stroke="grey" stroke-width="2" points="261.75,-45.49 266.67,-36.1 256.98,-40.37 261.75,-45.49"/>
</g>
<!-- 2 -->
<g id="node3" class="node">
<title>2</title>
<path fill="none" stroke="#afd856" stroke-width="2" d="M253.5,-252C253.5,-252 166.5,-252 166.5,-252 160.5,-252 154.5,-246 154.5,-240 154.5,-240 154.5,-228 154.5,-228 154.5,-222 160.5,-216 166.5,-216 166.5,-216 253.5,-216 253.5,-216 259.5,-216 265.5,-222 265.5,-228 265.5,-228 265.5,-240 265.5,-240 265.5,-246 259.5,-252 253.5,-252"/>
<text text-anchor="middle" x="210" y="-231.5" font-family="sans" font-size="10.00">samtools_view_md</text>
</g>
<!-- 2&#45;&gt;0 -->
<g id="edge2" class="edge">
<title>2&#45;&gt;0</title>
<path fill="none" stroke="grey" stroke-width="2" d="M265.68,-225.21C293.23,-218.23 324.13,-205.02 341,-180 369.98,-137.02 333.09,-77.48 306.9,-44.17"/>
<polygon fill="grey" stroke="grey" stroke-width="2" points="309.53,-41.86 300.51,-36.29 304.09,-46.26 309.53,-41.86"/>
</g>
<!-- 5 -->
<g id="node6" class="node">
<title>5</title>
<path fill="none" stroke="#88d856" stroke-width="2" d="M147.5,-180C147.5,-180 80.5,-180 80.5,-180 74.5,-180 68.5,-174 68.5,-168 68.5,-168 68.5,-156 68.5,-156 68.5,-150 74.5,-144 80.5,-144 80.5,-144 147.5,-144 147.5,-144 153.5,-144 159.5,-150 159.5,-156 159.5,-156 159.5,-168 159.5,-168 159.5,-174 153.5,-180 147.5,-180"/>
<text text-anchor="middle" x="114" y="-159.5" font-family="sans" font-size="10.00">samtools_stats</text>
</g>
<!-- 2&#45;&gt;5 -->
<g id="edge9" class="edge">
<title>2&#45;&gt;5</title>
<path fill="none" stroke="grey" stroke-width="2" d="M186.27,-215.7C174.06,-206.8 159.01,-195.82 145.82,-186.2"/>
<polygon fill="grey" stroke="grey" stroke-width="2" points="147.6,-183.17 137.46,-180.1 143.48,-188.82 147.6,-183.17"/>
</g>
<!-- 6 -->
<g id="node7" class="node">
<title>6</title>
<path fill="none" stroke="#d8bc56" stroke-width="2" d="M230.5,-180C230.5,-180 189.5,-180 189.5,-180 183.5,-180 177.5,-174 177.5,-168 177.5,-168 177.5,-156 177.5,-156 177.5,-150 183.5,-144 189.5,-144 189.5,-144 230.5,-144 230.5,-144 236.5,-144 242.5,-150 242.5,-156 242.5,-156 242.5,-168 242.5,-168 242.5,-174 236.5,-180 230.5,-180"/>
<text text-anchor="middle" x="210" y="-159.5" font-family="sans" font-size="10.00">mosdepth</text>
</g>
<!-- 2&#45;&gt;6 -->
<g id="edge10" class="edge">
<title>2&#45;&gt;6</title>
<path fill="none" stroke="grey" stroke-width="2" d="M210,-215.7C210,-207.98 210,-198.71 210,-190.11"/>
<polygon fill="grey" stroke="grey" stroke-width="2" points="213.5,-190.1 210,-180.1 206.5,-190.1 213.5,-190.1"/>
</g>
<!-- 3 -->
<g id="node4" class="node">
<title>3</title>
<path fill="none" stroke="#d87556" stroke-width="2" d="M319.5,-180C319.5,-180 272.5,-180 272.5,-180 266.5,-180 260.5,-174 260.5,-168 260.5,-168 260.5,-156 260.5,-156 260.5,-150 266.5,-144 272.5,-144 272.5,-144 319.5,-144 319.5,-144 325.5,-144 331.5,-150 331.5,-156 331.5,-156 331.5,-168 331.5,-168 331.5,-174 325.5,-180 319.5,-180"/>
<text text-anchor="middle" x="296" y="-165" font-family="sans" font-size="10.00">fastqc</text>
<text text-anchor="middle" x="296" y="-154" font-family="sans" font-size="10.00">library: AL1</text>
</g>
<!-- 3&#45;&gt;1 -->
<g id="edge3" class="edge">
<title>3&#45;&gt;1</title>
<path fill="none" stroke="grey" stroke-width="2" d="M274.74,-143.7C263.91,-134.88 250.58,-124.03 238.84,-114.47"/>
<polygon fill="grey" stroke="grey" stroke-width="2" points="240.98,-111.7 231.01,-108.1 236.56,-117.13 240.98,-111.7"/>
</g>
<!-- 4 -->
<g id="node5" class="node">
<title>4</title>
<path fill="none" stroke="#56c1d8" stroke-width="2" d="M68,-684C68,-684 12,-684 12,-684 6,-684 0,-678 0,-672 0,-672 0,-660 0,-660 0,-654 6,-648 12,-648 12,-648 68,-648 68,-648 74,-648 80,-654 80,-660 80,-660 80,-672 80,-672 80,-678 74,-684 68,-684"/>
<text text-anchor="middle" x="40" y="-669" font-family="sans" font-size="10.00">trimmomatic</text>
<text text-anchor="middle" x="40" y="-658" font-family="sans" font-size="10.00">library: AL1</text>
</g>
<!-- 4&#45;&gt;1 -->
<g id="edge4" class="edge">
<title>4&#45;&gt;1</title>
<path fill="none" stroke="grey" stroke-width="2" d="M40,-647.95C40,-621.29 40,-568.11 40,-523 40,-523 40,-523 40,-233 40,-192.55 32.28,-174.36 59,-144 87.86,-111.21 138.23,-98.7 172.8,-93.94"/>
<polygon fill="grey" stroke="grey" stroke-width="2" points="173.48,-97.38 182.98,-92.69 172.63,-90.43 173.48,-97.38"/>
</g>
<!-- 12 -->
<g id="node13" class="node">
<title>12</title>
<path fill="none" stroke="#d89c56" stroke-width="2" d="M208,-612C208,-612 164,-612 164,-612 158,-612 152,-606 152,-600 152,-600 152,-588 152,-588 152,-582 158,-576 164,-576 164,-576 208,-576 208,-576 214,-576 220,-582 220,-588 220,-588 220,-600 220,-600 220,-606 214,-612 208,-612"/>
<text text-anchor="middle" x="186" y="-591.5" font-family="sans" font-size="10.00">bwa_mem</text>
</g>
<!-- 4&#45;&gt;12 -->
<g id="edge19" class="edge">
<title>4&#45;&gt;12</title>
<path fill="none" stroke="grey" stroke-width="2" d="M75.72,-647.88C95.86,-638.22 121.19,-626.07 142.5,-615.86"/>
<polygon fill="grey" stroke="grey" stroke-width="2" points="144.15,-618.94 151.66,-611.47 141.13,-612.63 144.15,-618.94"/>
</g>
<!-- 5&#45;&gt;1 -->
<g id="edge5" class="edge">
<title>5&#45;&gt;1</title>
<path fill="none" stroke="grey" stroke-width="2" d="M137.73,-143.7C149.94,-134.8 164.99,-123.82 178.18,-114.2"/>
<polygon fill="grey" stroke="grey" stroke-width="2" points="180.52,-116.82 186.54,-108.1 176.4,-111.17 180.52,-116.82"/>
</g>
<!-- 6&#45;&gt;1 -->
<g id="edge6" class="edge">
<title>6&#45;&gt;1</title>
<path fill="none" stroke="grey" stroke-width="2" d="M210,-143.7C210,-135.98 210,-126.71 210,-118.11"/>
<polygon fill="grey" stroke="grey" stroke-width="2" points="213.5,-118.1 210,-108.1 206.5,-118.1 213.5,-118.1"/>
</g>
<!-- 7 -->
<g id="node8" class="node">
<title>7</title>
<path fill="none" stroke="#68d856" stroke-width="2" d="M229.5,-324C229.5,-324 134.5,-324 134.5,-324 128.5,-324 122.5,-318 122.5,-312 122.5,-312 122.5,-300 122.5,-300 122.5,-294 128.5,-288 134.5,-288 134.5,-288 229.5,-288 229.5,-288 235.5,-288 241.5,-294 241.5,-300 241.5,-300 241.5,-312 241.5,-312 241.5,-318 235.5,-324 229.5,-324"/>
<text text-anchor="middle" x="182" y="-303.5" font-family="sans" font-size="10.00">gatk_markduplicates</text>
</g>
<!-- 7&#45;&gt;2 -->
<g id="edge7" class="edge">
<title>7&#45;&gt;2</title>
<path fill="none" stroke="grey" stroke-width="2" d="M188.92,-287.7C192.07,-279.81 195.88,-270.3 199.38,-261.55"/>
<polygon fill="grey" stroke="grey" stroke-width="2" points="202.69,-262.69 203.16,-252.1 196.19,-260.09 202.69,-262.69"/>
</g>
<!-- 8 -->
<g id="node9" class="node">
<title>8</title>
<path fill="none" stroke="#569ad8" stroke-width="2" d="M262,-756C262,-756 206,-756 206,-756 200,-756 194,-750 194,-744 194,-744 194,-732 194,-732 194,-726 200,-720 206,-720 206,-720 262,-720 262,-720 268,-720 274,-726 274,-732 274,-732 274,-744 274,-744 274,-750 268,-756 262,-756"/>
<text text-anchor="middle" x="234" y="-735.5" font-family="sans" font-size="10.00">cp_reference</text>
</g>
<!-- 8&#45;&gt;2 -->
<g id="edge8" class="edge">
<title>8&#45;&gt;2</title>
<path fill="none" stroke="grey" stroke-width="2" d="M250.49,-719.77C272.84,-694.53 310,-645.05 310,-595 310,-595 310,-595 310,-377 310,-328.49 270.51,-284.87 241.16,-259.16"/>
<polygon fill="grey" stroke="grey" stroke-width="2" points="243.08,-256.19 233.19,-252.39 238.55,-261.53 243.08,-256.19"/>
</g>
<!-- 8&#45;&gt;7 -->
<g id="edge12" class="edge">
<title>8&#45;&gt;7</title>
<path fill="none" stroke="grey" stroke-width="2" d="M193.77,-726.59C170.87,-718.61 143.54,-705.28 127,-684 102.18,-652.06 108,-635.45 108,-595 108,-595 108,-595 108,-449 108,-403.9 137.71,-358.94 159.48,-332.05"/>
<polygon fill="grey" stroke="grey" stroke-width="2" points="162.23,-334.23 165.94,-324.31 156.85,-329.74 162.23,-334.23"/>
</g>
<!-- 11 -->
<g id="node12" class="node">
<title>11</title>
<path fill="none" stroke="#ced856" stroke-width="2" d="M234,-540C234,-540 168,-540 168,-540 162,-540 156,-534 156,-528 156,-528 156,-516 156,-516 156,-510 162,-504 168,-504 168,-504 234,-504 234,-504 240,-504 246,-510 246,-516 246,-516 246,-528 246,-528 246,-534 240,-540 234,-540"/>
<text text-anchor="middle" x="201" y="-519.5" font-family="sans" font-size="10.00">samtools_view</text>
</g>
<!-- 8&#45;&gt;11 -->
<g id="edge17" class="edge">
<title>8&#45;&gt;11</title>
<path fill="none" stroke="grey" stroke-width="2" d="M236.18,-719.66C239.35,-689.69 243.41,-626.56 229,-576 226.39,-566.84 222.06,-557.45 217.59,-549.17"/>
<polygon fill="grey" stroke="grey" stroke-width="2" points="220.55,-547.31 212.55,-540.37 214.48,-550.78 220.55,-547.31"/>
</g>
<!-- 8&#45;&gt;12 -->
<g id="edge18" class="edge">
<title>8&#45;&gt;12</title>
<path fill="none" stroke="grey" stroke-width="2" d="M231.85,-719.86C229.22,-701.62 223.96,-672.14 215,-648 211.6,-638.86 206.85,-629.36 202.17,-620.98"/>
<polygon fill="grey" stroke="grey" stroke-width="2" points="205.04,-618.95 197,-612.06 198.99,-622.47 205.04,-618.95"/>
</g>
<!-- 13 -->
<g id="node14" class="node">
<title>13</title>
<path fill="none" stroke="#d85656" stroke-width="2" d="M193.5,-684C193.5,-684 148.5,-684 148.5,-684 142.5,-684 136.5,-678 136.5,-672 136.5,-672 136.5,-660 136.5,-660 136.5,-654 142.5,-648 148.5,-648 148.5,-648 193.5,-648 193.5,-648 199.5,-648 205.5,-654 205.5,-660 205.5,-660 205.5,-672 205.5,-672 205.5,-678 199.5,-684 193.5,-684"/>
<text text-anchor="middle" x="171" y="-663.5" font-family="sans" font-size="10.00">bwa_index</text>
</g>
<!-- 8&#45;&gt;13 -->
<g id="edge21" class="edge">
<title>8&#45;&gt;13</title>
<path fill="none" stroke="grey" stroke-width="2" d="M218.43,-719.7C210.8,-711.22 201.48,-700.86 193.12,-691.58"/>
<polygon fill="grey" stroke="grey" stroke-width="2" points="195.69,-689.2 186.39,-684.1 190.48,-693.88 195.69,-689.2"/>
</g>
<!-- 9 -->
<g id="node10" class="node">
<title>9</title>
<path fill="none" stroke="#567bd8" stroke-width="2" d="M232,-468C232,-468 170,-468 170,-468 164,-468 158,-462 158,-456 158,-456 158,-444 158,-444 158,-438 164,-432 170,-432 170,-432 232,-432 232,-432 238,-432 244,-438 244,-444 244,-444 244,-456 244,-456 244,-462 238,-468 232,-468"/>
<text text-anchor="middle" x="201" y="-447.5" font-family="sans" font-size="10.00">samtools_sort</text>
</g>
<!-- 9&#45;&gt;7 -->
<g id="edge11" class="edge">
<title>9&#45;&gt;7</title>
<path fill="none" stroke="grey" stroke-width="2" d="M188.69,-431.78C182.35,-421.84 175.27,-408.8 172,-396 166.78,-375.6 169.88,-351.88 173.96,-334.06"/>
<polygon fill="grey" stroke="grey" stroke-width="2" points="177.37,-334.87 176.42,-324.32 170.58,-333.16 177.37,-334.87"/>
</g>
<!-- 10 -->
<g id="node11" class="node">
<title>10</title>
<path fill="none" stroke="#56d86b" stroke-width="2" d="M263,-396C263,-396 193,-396 193,-396 187,-396 181,-390 181,-384 181,-384 181,-372 181,-372 181,-366 187,-360 193,-360 193,-360 263,-360 263,-360 269,-360 275,-366 275,-372 275,-372 275,-384 275,-384 275,-390 269,-396 263,-396"/>
<text text-anchor="middle" x="228" y="-375.5" font-family="sans" font-size="10.00">samtools_index</text>
</g>
<!-- 9&#45;&gt;10 -->
<g id="edge15" class="edge">
<title>9&#45;&gt;10</title>
<path fill="none" stroke="grey" stroke-width="2" d="M207.67,-431.7C210.71,-423.81 214.38,-414.3 217.76,-405.55"/>
<polygon fill="grey" stroke="grey" stroke-width="2" points="221.07,-406.69 221.4,-396.1 214.54,-404.17 221.07,-406.69"/>
</g>
<!-- 10&#45;&gt;7 -->
<g id="edge13" class="edge">
<title>10&#45;&gt;7</title>
<path fill="none" stroke="grey" stroke-width="2" d="M216.63,-359.7C211.28,-351.56 204.8,-341.69 198.89,-332.7"/>
<polygon fill="grey" stroke="grey" stroke-width="2" points="201.66,-330.54 193.24,-324.1 195.81,-334.38 201.66,-330.54"/>
</g>
<!-- 11&#45;&gt;9 -->
<g id="edge14" class="edge">
<title>11&#45;&gt;9</title>
<path fill="none" stroke="grey" stroke-width="2" d="M201,-503.7C201,-495.98 201,-486.71 201,-478.11"/>
<polygon fill="grey" stroke="grey" stroke-width="2" points="204.5,-478.1 201,-468.1 197.5,-478.1 204.5,-478.1"/>
</g>
<!-- 12&#45;&gt;11 -->
<g id="edge16" class="edge">
<title>12&#45;&gt;11</title>
<path fill="none" stroke="grey" stroke-width="2" d="M189.71,-575.7C191.36,-567.98 193.35,-558.71 195.19,-550.11"/>
<polygon fill="grey" stroke="grey" stroke-width="2" points="198.66,-550.62 197.33,-540.1 191.82,-549.15 198.66,-550.62"/>
</g>
<!-- 13&#45;&gt;12 -->
<g id="edge20" class="edge">
<title>13&#45;&gt;12</title>
<path fill="none" stroke="grey" stroke-width="2" d="M174.71,-647.7C176.36,-639.98 178.35,-630.71 180.19,-622.11"/>
<polygon fill="grey" stroke="grey" stroke-width="2" points="183.66,-622.62 182.33,-612.1 176.82,-621.15 183.66,-622.62"/>
</g>
</g>
</svg>
