<?xml version="1.0" encoding="UTF-8" standalone="no"?>
<!DOCTYPE svg PUBLIC "-//W3C//DTD SVG 1.1//EN"
 "http://www.w3.org/Graphics/SVG/1.1/DTD/svg11.dtd">
<!-- Generated by graphviz version 2.43.0 (0)
 -->
<!-- Title: snakemake_dag Pages: 1 -->
<svg width="2191pt" height="924pt"
 viewBox="0.00 0.00 2191.00 924.00" xmlns="http://www.w3.org/2000/svg" xmlns:xlink="http://www.w3.org/1999/xlink">
<g id="graph0" class="graph" transform="scale(1 1) rotate(0) translate(4 920)">
<title>snakemake_dag</title>
<polygon fill="white" stroke="transparent" points="-4,4 -4,-920 2187,-920 2187,4 -4,4"/>
<!-- 0 -->
<g id="node1" class="node">
<title>0</title>
<path fill="none" stroke="#68d856" stroke-width="2" d="M1318,-36C1318,-36 1288,-36 1288,-36 1282,-36 1276,-30 1276,-24 1276,-24 1276,-12 1276,-12 1276,-6 1282,0 1288,0 1288,0 1318,0 1318,0 1324,0 1330,-6 1330,-12 1330,-12 1330,-24 1330,-24 1330,-30 1324,-36 1318,-36"/>
<text text-anchor="middle" x="1303" y="-15.5" font-family="sans" font-size="10.00">all</text>
</g>
<!-- 1 -->
<g id="node2" class="node">
<title>1</title>
<path fill="none" stroke="#56b9d8" stroke-width="2" d="M1957.5,-412C1957.5,-412 1870.5,-412 1870.5,-412 1864.5,-412 1858.5,-406 1858.5,-400 1858.5,-400 1858.5,-388 1858.5,-388 1858.5,-382 1864.5,-376 1870.5,-376 1870.5,-376 1957.5,-376 1957.5,-376 1963.5,-376 1969.5,-382 1969.5,-388 1969.5,-388 1969.5,-400 1969.5,-400 1969.5,-406 1963.5,-412 1957.5,-412"/>
<text text-anchor="middle" x="1914" y="-391.5" font-family="sans" font-size="10.00">samtools_view_md</text>
</g>
<!-- 1&#45;&gt;0 -->
<g id="edge1" class="edge">
<title>1&#45;&gt;0</title>
<path fill="none" stroke="grey" stroke-width="2" d="M1969.81,-384.72C2004.21,-377.43 2047.75,-364.07 2080,-340 2127.49,-304.56 2165.72,-262.51 2129,-216 2028.29,-88.44 1488.35,-34.48 1340.47,-21.96"/>
<polygon fill="grey" stroke="grey" stroke-width="2" points="1340.37,-18.44 1330.12,-21.1 1339.79,-25.41 1340.37,-18.44"/>
</g>
<!-- 22 -->
<g id="node23" class="node">
<title>22</title>
<path fill="none" stroke="#d86e56" stroke-width="2" d="M2058.5,-340C2058.5,-340 1991.5,-340 1991.5,-340 1985.5,-340 1979.5,-334 1979.5,-328 1979.5,-328 1979.5,-316 1979.5,-316 1979.5,-310 1985.5,-304 1991.5,-304 1991.5,-304 2058.5,-304 2058.5,-304 2064.5,-304 2070.5,-310 2070.5,-316 2070.5,-316 2070.5,-328 2070.5,-328 2070.5,-334 2064.5,-340 2058.5,-340"/>
<text text-anchor="middle" x="2025" y="-319.5" font-family="sans" font-size="10.00">samtools_stats</text>
</g>
<!-- 1&#45;&gt;22 -->
<g id="edge46" class="edge">
<title>1&#45;&gt;22</title>
<path fill="none" stroke="grey" stroke-width="2" d="M1941.15,-375.88C1955.53,-366.81 1973.38,-355.55 1988.91,-345.76"/>
<polygon fill="grey" stroke="grey" stroke-width="2" points="1991.15,-348.48 1997.74,-340.19 1987.42,-342.56 1991.15,-348.48"/>
</g>
<!-- 25 -->
<g id="node26" class="node">
<title>25</title>
<path fill="none" stroke="#b6d856" stroke-width="2" d="M1708.5,-260C1708.5,-260 1667.5,-260 1667.5,-260 1661.5,-260 1655.5,-254 1655.5,-248 1655.5,-248 1655.5,-236 1655.5,-236 1655.5,-230 1661.5,-224 1667.5,-224 1667.5,-224 1708.5,-224 1708.5,-224 1714.5,-224 1720.5,-230 1720.5,-236 1720.5,-236 1720.5,-248 1720.5,-248 1720.5,-254 1714.5,-260 1708.5,-260"/>
<text text-anchor="middle" x="1688" y="-239.5" font-family="sans" font-size="10.00">mosdepth</text>
</g>
<!-- 1&#45;&gt;25 -->
<g id="edge56" class="edge">
<title>1&#45;&gt;25</title>
<path fill="none" stroke="grey" stroke-width="2" d="M1858.22,-382.11C1827.44,-374.12 1789.74,-360.94 1761,-340 1735.21,-321.22 1714.4,-290.73 1701.69,-268.95"/>
<polygon fill="grey" stroke="grey" stroke-width="2" points="1704.72,-267.19 1696.75,-260.21 1698.62,-270.64 1704.72,-267.19"/>
</g>
<!-- 26 -->
<g id="node27" class="node">
<title>26</title>
<path fill="none" stroke="#56a9d8" stroke-width="2" d="M1868.5,-260C1868.5,-260 1785.5,-260 1785.5,-260 1779.5,-260 1773.5,-254 1773.5,-248 1773.5,-248 1773.5,-236 1773.5,-236 1773.5,-230 1779.5,-224 1785.5,-224 1785.5,-224 1868.5,-224 1868.5,-224 1874.5,-224 1880.5,-230 1880.5,-236 1880.5,-236 1880.5,-248 1880.5,-248 1880.5,-254 1874.5,-260 1868.5,-260"/>
<text text-anchor="middle" x="1827" y="-239.5" font-family="sans" font-size="10.00">mosdepth_regions</text>
</g>
<!-- 1&#45;&gt;26 -->
<g id="edge60" class="edge">
<title>1&#45;&gt;26</title>
<path fill="none" stroke="grey" stroke-width="2" d="M1913.19,-375.82C1911.65,-357.03 1907.13,-326.59 1894,-304 1885.63,-289.61 1872.74,-276.69 1860.48,-266.49"/>
<polygon fill="grey" stroke="grey" stroke-width="2" points="1862.58,-263.69 1852.58,-260.19 1858.22,-269.16 1862.58,-263.69"/>
</g>
<!-- 36 -->
<g id="node37" class="node">
<title>36</title>
<path fill="none" stroke="#d8a456" stroke-width="2" d="M1872.5,-340C1872.5,-340 1781.5,-340 1781.5,-340 1775.5,-340 1769.5,-334 1769.5,-328 1769.5,-328 1769.5,-316 1769.5,-316 1769.5,-310 1775.5,-304 1781.5,-304 1781.5,-304 1872.5,-304 1872.5,-304 1878.5,-304 1884.5,-310 1884.5,-316 1884.5,-316 1884.5,-328 1884.5,-328 1884.5,-334 1878.5,-340 1872.5,-340"/>
<text text-anchor="middle" x="1827" y="-319.5" font-family="sans" font-size="10.00">samtools_index_md</text>
</g>
<!-- 1&#45;&gt;36 -->
<g id="edge76" class="edge">
<title>1&#45;&gt;36</title>
<path fill="none" stroke="grey" stroke-width="2" d="M1892.49,-375.7C1881.54,-366.88 1868.05,-356.03 1856.18,-346.47"/>
<polygon fill="grey" stroke="grey" stroke-width="2" points="1858.24,-343.65 1848.26,-340.1 1853.86,-349.1 1858.24,-343.65"/>
</g>
<!-- 40 -->
<g id="node41" class="node">
<title>40</title>
<path fill="none" stroke="#56d8d0" stroke-width="2" d="M182,-340C182,-340 12,-340 12,-340 6,-340 0,-334 0,-328 0,-328 0,-316 0,-316 0,-310 6,-304 12,-304 12,-304 182,-304 182,-304 188,-304 194,-310 194,-316 194,-316 194,-328 194,-328 194,-334 188,-340 182,-340"/>
<text text-anchor="middle" x="97" y="-325" font-family="sans" font-size="10.00">gatk_haplotypecaller</text>
<text text-anchor="middle" x="97" y="-314" font-family="sans" font-size="10.00">interval: 0000&#45;scattered.interval_list</text>
</g>
<!-- 1&#45;&gt;40 -->
<g id="edge86" class="edge">
<title>1&#45;&gt;40</title>
<path fill="none" stroke="grey" stroke-width="2" d="M1858.23,-391.47C1580.77,-383.86 356.7,-349.94 204.52,-339.89"/>
<polygon fill="grey" stroke="grey" stroke-width="2" points="204.51,-336.37 194.27,-339.1 203.97,-343.35 204.51,-336.37"/>
</g>
<!-- 2 -->
<g id="node3" class="node">
<title>2</title>
<path fill="none" stroke="#80d856" stroke-width="2" d="M692,-108C692,-108 600,-108 600,-108 594,-108 588,-102 588,-96 588,-96 588,-84 588,-84 588,-78 594,-72 600,-72 600,-72 692,-72 692,-72 698,-72 704,-78 704,-84 704,-84 704,-96 704,-96 704,-102 698,-108 692,-108"/>
<text text-anchor="middle" x="646" y="-87.5" font-family="sans" font-size="10.00">gatk_genotypegvcfs</text>
</g>
<!-- 2&#45;&gt;0 -->
<g id="edge2" class="edge">
<title>2&#45;&gt;0</title>
<path fill="none" stroke="grey" stroke-width="2" d="M704.02,-82.82C836.03,-68.75 1155.9,-34.67 1265.46,-23"/>
<polygon fill="grey" stroke="grey" stroke-width="2" points="1266.12,-26.45 1275.69,-21.91 1265.37,-19.49 1266.12,-26.45"/>
</g>
<!-- 3 -->
<g id="node4" class="node">
<title>3</title>
<path fill="none" stroke="#56d892" stroke-width="2" d="M876,-268C876,-268 802,-268 802,-268 796,-268 790,-262 790,-256 790,-256 790,-228 790,-228 790,-222 796,-216 802,-216 802,-216 876,-216 876,-216 882,-216 888,-222 888,-228 888,-228 888,-256 888,-256 888,-262 882,-268 876,-268"/>
<text text-anchor="middle" x="839" y="-256" font-family="sans" font-size="10.00">strelka2</text>
<text text-anchor="middle" x="839" y="-245" font-family="sans" font-size="10.00">base: T3</text>
<text text-anchor="middle" x="839" y="-234" font-family="sans" font-size="10.00">tissue: cambium</text>
<text text-anchor="middle" x="839" y="-223" font-family="sans" font-size="10.00">tumor: T2</text>
</g>
<!-- 3&#45;&gt;0 -->
<g id="edge3" class="edge">
<title>3&#45;&gt;0</title>
<path fill="none" stroke="grey" stroke-width="2" d="M888.22,-217.45C981.88,-172.64 1183.8,-76.03 1266.53,-36.45"/>
<polygon fill="grey" stroke="grey" stroke-width="2" points="1268.27,-39.5 1275.78,-32.02 1265.25,-33.18 1268.27,-39.5"/>
</g>
<!-- 4 -->
<g id="node5" class="node">
<title>4</title>
<path fill="none" stroke="#56d87b" stroke-width="2" d="M1557,-180C1557,-180 1527,-180 1527,-180 1521,-180 1515,-174 1515,-168 1515,-168 1515,-156 1515,-156 1515,-150 1521,-144 1527,-144 1527,-144 1557,-144 1557,-144 1563,-144 1569,-150 1569,-156 1569,-156 1569,-168 1569,-168 1569,-174 1563,-180 1557,-180"/>
<text text-anchor="middle" x="1542" y="-159.5" font-family="sans" font-size="10.00">multiqc</text>
</g>
<!-- 4&#45;&gt;0 -->
<g id="edge4" class="edge">
<title>4&#45;&gt;0</title>
<path fill="none" stroke="grey" stroke-width="2" d="M1514.58,-144.71C1471.27,-118.98 1387.01,-68.92 1338.92,-40.34"/>
<polygon fill="grey" stroke="grey" stroke-width="2" points="1340.48,-37.2 1330.1,-35.1 1336.91,-43.22 1340.48,-37.2"/>
</g>
<!-- 5 -->
<g id="node6" class="node">
<title>5</title>
<path fill="none" stroke="#d85656" stroke-width="2" d="M1961.5,-484C1961.5,-484 1866.5,-484 1866.5,-484 1860.5,-484 1854.5,-478 1854.5,-472 1854.5,-472 1854.5,-460 1854.5,-460 1854.5,-454 1860.5,-448 1866.5,-448 1866.5,-448 1961.5,-448 1961.5,-448 1967.5,-448 1973.5,-454 1973.5,-460 1973.5,-460 1973.5,-472 1973.5,-472 1973.5,-478 1967.5,-484 1961.5,-484"/>
<text text-anchor="middle" x="1914" y="-463.5" font-family="sans" font-size="10.00">gatk_markduplicates</text>
</g>
<!-- 5&#45;&gt;1 -->
<g id="edge5" class="edge">
<title>5&#45;&gt;1</title>
<path fill="none" stroke="grey" stroke-width="2" d="M1914,-447.7C1914,-439.98 1914,-430.71 1914,-422.11"/>
<polygon fill="grey" stroke="grey" stroke-width="2" points="1917.5,-422.1 1914,-412.1 1910.5,-422.1 1917.5,-422.1"/>
</g>
<!-- 6 -->
<g id="node7" class="node">
<title>6</title>
<path fill="none" stroke="#8fd856" stroke-width="2" d="M1247,-916C1247,-916 1191,-916 1191,-916 1185,-916 1179,-910 1179,-904 1179,-904 1179,-892 1179,-892 1179,-886 1185,-880 1191,-880 1191,-880 1247,-880 1247,-880 1253,-880 1259,-886 1259,-892 1259,-892 1259,-904 1259,-904 1259,-910 1253,-916 1247,-916"/>
<text text-anchor="middle" x="1219" y="-895.5" font-family="sans" font-size="10.00">cp_reference</text>
</g>
<!-- 6&#45;&gt;1 -->
<g id="edge6" class="edge">
<title>6&#45;&gt;1</title>
<path fill="none" stroke="grey" stroke-width="2" d="M1259.01,-896.35C1404.13,-893.7 1897.29,-881.96 1956,-844 1993.74,-819.6 2004,-799.94 2004,-755 2004,-755 2004,-755 2004,-537 2004,-496.36 2005.06,-482.13 1983,-448 1975.42,-436.27 1964.32,-426.1 1953.23,-417.9"/>
<polygon fill="grey" stroke="grey" stroke-width="2" points="1955.01,-414.87 1944.8,-412.01 1951,-420.61 1955.01,-414.87"/>
</g>
<!-- 6&#45;&gt;2 -->
<g id="edge7" class="edge">
<title>6&#45;&gt;2</title>
<path fill="none" stroke="grey" stroke-width="2" d="M1178.63,-897.46C1070.71,-898 778.38,-894.62 699,-844 660.18,-819.25 646,-801.04 646,-755 646,-755 646,-755 646,-241 646,-198.09 646,-148.28 646,-118.23"/>
<polygon fill="grey" stroke="grey" stroke-width="2" points="649.5,-118.1 646,-108.1 642.5,-118.1 649.5,-118.1"/>
</g>
<!-- 6&#45;&gt;3 -->
<g id="edge9" class="edge">
<title>6&#45;&gt;3</title>
<path fill="none" stroke="grey" stroke-width="2" d="M1178.71,-896.13C1080.45,-893.41 831.25,-882.78 759,-844 713.42,-819.54 684,-806.73 684,-755 684,-755 684,-755 684,-393 684,-348.06 700.6,-336.15 732,-304 745.87,-289.8 763.75,-277.88 780.9,-268.45"/>
<polygon fill="grey" stroke="grey" stroke-width="2" points="782.59,-271.52 789.79,-263.75 779.31,-265.33 782.59,-271.52"/>
</g>
<!-- 6&#45;&gt;5 -->
<g id="edge30" class="edge">
<title>6&#45;&gt;5</title>
<path fill="none" stroke="grey" stroke-width="2" d="M1259.49,-896.38C1401.66,-893.86 1872.43,-882.65 1927,-844 1962.24,-819.04 1966,-798.19 1966,-755 1966,-755 1966,-755 1966,-609 1966,-566.49 1945.2,-520.95 1929.91,-493.22"/>
<polygon fill="grey" stroke="grey" stroke-width="2" points="1932.76,-491.15 1924.77,-484.19 1926.67,-494.61 1932.76,-491.15"/>
</g>
<!-- 8 -->
<g id="node9" class="node">
<title>8</title>
<path fill="none" stroke="#56b9d8" stroke-width="2" d="M1285.5,-412C1285.5,-412 1198.5,-412 1198.5,-412 1192.5,-412 1186.5,-406 1186.5,-400 1186.5,-400 1186.5,-388 1186.5,-388 1186.5,-382 1192.5,-376 1198.5,-376 1198.5,-376 1285.5,-376 1285.5,-376 1291.5,-376 1297.5,-382 1297.5,-388 1297.5,-388 1297.5,-400 1297.5,-400 1297.5,-406 1291.5,-412 1285.5,-412"/>
<text text-anchor="middle" x="1242" y="-391.5" font-family="sans" font-size="10.00">samtools_view_md</text>
</g>
<!-- 6&#45;&gt;8 -->
<g id="edge36" class="edge">
<title>6&#45;&gt;8</title>
<path fill="none" stroke="grey" stroke-width="2" d="M1214.25,-879.75C1202.5,-835.48 1173,-714.1 1173,-611 1173,-611 1173,-611 1173,-537 1173,-492.48 1200.78,-447.29 1221.08,-420.2"/>
<polygon fill="grey" stroke="grey" stroke-width="2" points="1224.02,-422.12 1227.37,-412.07 1218.48,-417.84 1224.02,-422.12"/>
</g>
<!-- 9 -->
<g id="node10" class="node">
<title>9</title>
<path fill="none" stroke="#56b9d8" stroke-width="2" d="M851.5,-412C851.5,-412 764.5,-412 764.5,-412 758.5,-412 752.5,-406 752.5,-400 752.5,-400 752.5,-388 752.5,-388 752.5,-382 758.5,-376 764.5,-376 764.5,-376 851.5,-376 851.5,-376 857.5,-376 863.5,-382 863.5,-388 863.5,-388 863.5,-400 863.5,-400 863.5,-406 857.5,-412 851.5,-412"/>
<text text-anchor="middle" x="808" y="-391.5" font-family="sans" font-size="10.00">samtools_view_md</text>
</g>
<!-- 6&#45;&gt;9 -->
<g id="edge38" class="edge">
<title>6&#45;&gt;9</title>
<path fill="none" stroke="grey" stroke-width="2" d="M1178.98,-894.92C1091.72,-889.87 887.28,-875 826,-844 776.92,-819.17 740,-810.01 740,-755 740,-755 740,-755 740,-537 740,-496.55 740.38,-483.91 759,-448 764.39,-437.61 772.37,-427.74 780.33,-419.41"/>
<polygon fill="grey" stroke="grey" stroke-width="2" points="782.94,-421.74 787.56,-412.21 778.01,-416.78 782.94,-421.74"/>
</g>
<!-- 12 -->
<g id="node13" class="node">
<title>12</title>
<path fill="none" stroke="#56d8a9" stroke-width="2" d="M2171,-628C2171,-628 2141,-628 2141,-628 2135,-628 2129,-622 2129,-616 2129,-616 2129,-604 2129,-604 2129,-598 2135,-592 2141,-592 2141,-592 2171,-592 2171,-592 2177,-592 2183,-598 2183,-604 2183,-604 2183,-616 2183,-616 2183,-622 2177,-628 2171,-628"/>
<text text-anchor="middle" x="2156" y="-607.5" font-family="sans" font-size="10.00">busco</text>
</g>
<!-- 6&#45;&gt;12 -->
<g id="edge41" class="edge">
<title>6&#45;&gt;12</title>
<path fill="none" stroke="grey" stroke-width="2" d="M1259.11,-897.28C1422.05,-898.06 2028.81,-897.33 2094,-844 2156.03,-793.26 2159.96,-688.1 2157.99,-638.29"/>
<polygon fill="grey" stroke="grey" stroke-width="2" points="2161.49,-638.08 2157.49,-628.27 2154.5,-638.43 2161.49,-638.08"/>
</g>
<!-- 13 -->
<g id="node14" class="node">
<title>13</title>
<path fill="none" stroke="#d87d56" stroke-width="2" d="M1617.5,-700C1617.5,-700 1560.5,-700 1560.5,-700 1554.5,-700 1548.5,-694 1548.5,-688 1548.5,-688 1548.5,-676 1548.5,-676 1548.5,-670 1554.5,-664 1560.5,-664 1560.5,-664 1617.5,-664 1617.5,-664 1623.5,-664 1629.5,-670 1629.5,-676 1629.5,-676 1629.5,-688 1629.5,-688 1629.5,-694 1623.5,-700 1617.5,-700"/>
<text text-anchor="middle" x="1589" y="-679.5" font-family="sans" font-size="10.00">bedtools_nuc</text>
</g>
<!-- 6&#45;&gt;13 -->
<g id="edge42" class="edge">
<title>6&#45;&gt;13</title>
<path fill="none" stroke="grey" stroke-width="2" d="M1259.23,-894.54C1330.62,-889.43 1475.56,-875.39 1514,-844 1554.02,-811.32 1534.02,-782.27 1557,-736 1561.49,-726.95 1567,-717.4 1572.17,-708.94"/>
<polygon fill="grey" stroke="grey" stroke-width="2" points="1575.27,-710.6 1577.59,-700.26 1569.33,-706.89 1575.27,-710.6"/>
</g>
<!-- 23 -->
<g id="node24" class="node">
<title>23</title>
<path fill="none" stroke="#b6d856" stroke-width="2" d="M1514.5,-260C1514.5,-260 1473.5,-260 1473.5,-260 1467.5,-260 1461.5,-254 1461.5,-248 1461.5,-248 1461.5,-236 1461.5,-236 1461.5,-230 1467.5,-224 1473.5,-224 1473.5,-224 1514.5,-224 1514.5,-224 1520.5,-224 1526.5,-230 1526.5,-236 1526.5,-236 1526.5,-248 1526.5,-248 1526.5,-254 1520.5,-260 1514.5,-260"/>
<text text-anchor="middle" x="1494" y="-239.5" font-family="sans" font-size="10.00">mosdepth</text>
</g>
<!-- 6&#45;&gt;23 -->
<g id="edge47" class="edge">
<title>6&#45;&gt;23</title>
<path fill="none" stroke="grey" stroke-width="2" d="M1259.1,-894.44C1324.85,-889.37 1451.26,-875.68 1481,-844 1552.54,-767.79 1513,-715.53 1513,-611 1513,-611 1513,-611 1513,-393 1513,-349.75 1505.13,-300.04 1499.52,-270.1"/>
<polygon fill="grey" stroke="grey" stroke-width="2" points="1502.9,-269.16 1497.57,-260.01 1496.03,-270.49 1502.9,-269.16"/>
</g>
<!-- 24 -->
<g id="node25" class="node">
<title>24</title>
<path fill="none" stroke="#b6d856" stroke-width="2" d="M990.5,-260C990.5,-260 949.5,-260 949.5,-260 943.5,-260 937.5,-254 937.5,-248 937.5,-248 937.5,-236 937.5,-236 937.5,-230 943.5,-224 949.5,-224 949.5,-224 990.5,-224 990.5,-224 996.5,-224 1002.5,-230 1002.5,-236 1002.5,-236 1002.5,-248 1002.5,-248 1002.5,-254 996.5,-260 990.5,-260"/>
<text text-anchor="middle" x="970" y="-239.5" font-family="sans" font-size="10.00">mosdepth</text>
</g>
<!-- 6&#45;&gt;24 -->
<g id="edge51" class="edge">
<title>6&#45;&gt;24</title>
<path fill="none" stroke="grey" stroke-width="2" d="M1178.75,-896.11C1134.32,-893.13 1062.88,-882.18 1016,-844 981.79,-816.13 972,-799.13 972,-755 972,-755 972,-755 972,-537 972,-438.83 970.87,-322.24 970.31,-270.3"/>
<polygon fill="grey" stroke="grey" stroke-width="2" points="973.81,-270.19 970.2,-260.23 966.81,-270.27 973.81,-270.19"/>
</g>
<!-- 6&#45;&gt;25 -->
<g id="edge55" class="edge">
<title>6&#45;&gt;25</title>
<path fill="none" stroke="grey" stroke-width="2" d="M1259.05,-895.54C1382.51,-890.72 1751.66,-873.94 1796,-844 1838.05,-815.61 1853.35,-782.48 1833,-736 1823.54,-714.39 1805.86,-720.39 1794,-700 1709.11,-554 1692.2,-344.69 1688.83,-270.42"/>
<polygon fill="grey" stroke="grey" stroke-width="2" points="1692.32,-269.92 1688.41,-260.07 1685.32,-270.21 1692.32,-269.92"/>
</g>
<!-- 6&#45;&gt;26 -->
<g id="edge59" class="edge">
<title>6&#45;&gt;26</title>
<path fill="none" stroke="grey" stroke-width="2" d="M1259.11,-895.84C1407.64,-891.34 1921.18,-873.75 1988,-844 2039.97,-820.86 2080,-811.89 2080,-755 2080,-755 2080,-755 2080,-681 2080,-538.21 2052.47,-498.44 1979,-376 1950.48,-328.46 1899.21,-288.91 1864.17,-265.62"/>
<polygon fill="grey" stroke="grey" stroke-width="2" points="1865.92,-262.58 1855.64,-260.05 1862.1,-268.45 1865.92,-262.58"/>
</g>
<!-- 32 -->
<g id="node33" class="node">
<title>32</title>
<path fill="none" stroke="#d85656" stroke-width="2" d="M1321.5,-484C1321.5,-484 1226.5,-484 1226.5,-484 1220.5,-484 1214.5,-478 1214.5,-472 1214.5,-472 1214.5,-460 1214.5,-460 1214.5,-454 1220.5,-448 1226.5,-448 1226.5,-448 1321.5,-448 1321.5,-448 1327.5,-448 1333.5,-454 1333.5,-460 1333.5,-460 1333.5,-472 1333.5,-472 1333.5,-478 1327.5,-484 1321.5,-484"/>
<text text-anchor="middle" x="1274" y="-463.5" font-family="sans" font-size="10.00">gatk_markduplicates</text>
</g>
<!-- 6&#45;&gt;32 -->
<g id="edge69" class="edge">
<title>6&#45;&gt;32</title>
<path fill="none" stroke="grey" stroke-width="2" d="M1217.92,-879.81C1215.74,-843.49 1211,-756.24 1211,-683 1211,-683 1211,-683 1211,-609 1211,-568.55 1212.35,-556.39 1230,-520 1234.9,-509.89 1242.14,-500.06 1249.33,-491.67"/>
<polygon fill="grey" stroke="grey" stroke-width="2" points="1252.05,-493.88 1256.13,-484.1 1246.84,-489.2 1252.05,-493.88"/>
</g>
<!-- 33 -->
<g id="node34" class="node">
<title>33</title>
<path fill="none" stroke="#d85656" stroke-width="2" d="M875.5,-484C875.5,-484 780.5,-484 780.5,-484 774.5,-484 768.5,-478 768.5,-472 768.5,-472 768.5,-460 768.5,-460 768.5,-454 774.5,-448 780.5,-448 780.5,-448 875.5,-448 875.5,-448 881.5,-448 887.5,-454 887.5,-460 887.5,-460 887.5,-472 887.5,-472 887.5,-478 881.5,-484 875.5,-484"/>
<text text-anchor="middle" x="828" y="-463.5" font-family="sans" font-size="10.00">gatk_markduplicates</text>
</g>
<!-- 6&#45;&gt;33 -->
<g id="edge72" class="edge">
<title>6&#45;&gt;33</title>
<path fill="none" stroke="grey" stroke-width="2" d="M1178.86,-892.61C1071.17,-879.72 784,-837.62 784,-755 784,-755 784,-755 784,-609 784,-567.21 801.6,-521.48 814.54,-493.51"/>
<polygon fill="grey" stroke="grey" stroke-width="2" points="817.74,-494.93 818.88,-484.39 811.42,-491.92 817.74,-494.93"/>
</g>
<!-- 35 -->
<g id="node36" class="node">
<title>35</title>
<path fill="none" stroke="#56d0d8" stroke-width="2" d="M1361.5,-844C1361.5,-844 1316.5,-844 1316.5,-844 1310.5,-844 1304.5,-838 1304.5,-832 1304.5,-832 1304.5,-820 1304.5,-820 1304.5,-814 1310.5,-808 1316.5,-808 1316.5,-808 1361.5,-808 1361.5,-808 1367.5,-808 1373.5,-814 1373.5,-820 1373.5,-820 1373.5,-832 1373.5,-832 1373.5,-838 1367.5,-844 1361.5,-844"/>
<text text-anchor="middle" x="1339" y="-823.5" font-family="sans" font-size="10.00">bwa_index</text>
</g>
<!-- 6&#45;&gt;35 -->
<g id="edge75" class="edge">
<title>6&#45;&gt;35</title>
<path fill="none" stroke="grey" stroke-width="2" d="M1248.36,-879.88C1264.05,-870.72 1283.56,-859.34 1300.45,-849.48"/>
<polygon fill="grey" stroke="grey" stroke-width="2" points="1302.66,-852.25 1309.53,-844.19 1299.13,-846.21 1302.66,-852.25"/>
</g>
<!-- 37 -->
<g id="node38" class="node">
<title>37</title>
<path fill="none" stroke="#56d8b9" stroke-width="2" d="M1881,-700C1881,-700 1815,-700 1815,-700 1809,-700 1803,-694 1803,-688 1803,-688 1803,-676 1803,-676 1803,-670 1809,-664 1815,-664 1815,-664 1881,-664 1881,-664 1887,-664 1893,-670 1893,-676 1893,-676 1893,-688 1893,-688 1893,-694 1887,-700 1881,-700"/>
<text text-anchor="middle" x="1848" y="-679.5" font-family="sans" font-size="10.00">samtools_view</text>
</g>
<!-- 6&#45;&gt;37 -->
<g id="edge78" class="edge">
<title>6&#45;&gt;37</title>
<path fill="none" stroke="grey" stroke-width="2" d="M1259.27,-896.99C1399.48,-896.54 1860.09,-891.43 1904,-844 1936.61,-808.77 1922.98,-780.09 1904,-736 1899.21,-724.87 1890.81,-714.99 1881.95,-706.86"/>
<polygon fill="grey" stroke="grey" stroke-width="2" points="1884,-704.01 1874.12,-700.18 1879.46,-709.34 1884,-704.01"/>
</g>
<!-- 38 -->
<g id="node39" class="node">
<title>38</title>
<path fill="none" stroke="#56d8d0" stroke-width="2" d="M606,-340C606,-340 436,-340 436,-340 430,-340 424,-334 424,-328 424,-328 424,-316 424,-316 424,-310 430,-304 436,-304 436,-304 606,-304 606,-304 612,-304 618,-310 618,-316 618,-316 618,-328 618,-328 618,-334 612,-340 606,-340"/>
<text text-anchor="middle" x="521" y="-325" font-family="sans" font-size="10.00">gatk_haplotypecaller</text>
<text text-anchor="middle" x="521" y="-314" font-family="sans" font-size="10.00">interval: 0000&#45;scattered.interval_list</text>
</g>
<!-- 6&#45;&gt;38 -->
<g id="edge79" class="edge">
<title>6&#45;&gt;38</title>
<path fill="none" stroke="grey" stroke-width="2" d="M1178.88,-897.54C1062.34,-898.45 726.11,-896.37 632,-844 588.74,-819.93 565,-804.51 565,-755 565,-755 565,-755 565,-465 565,-423.21 547.4,-377.48 534.46,-349.51"/>
<polygon fill="grey" stroke="grey" stroke-width="2" points="537.58,-347.92 530.12,-340.39 531.26,-350.93 537.58,-347.92"/>
</g>
<!-- 39 -->
<g id="node40" class="node">
<title>39</title>
<path fill="none" stroke="#56d8d0" stroke-width="2" d="M394,-340C394,-340 224,-340 224,-340 218,-340 212,-334 212,-328 212,-328 212,-316 212,-316 212,-310 218,-304 224,-304 224,-304 394,-304 394,-304 400,-304 406,-310 406,-316 406,-316 406,-328 406,-328 406,-334 400,-340 394,-340"/>
<text text-anchor="middle" x="309" y="-325" font-family="sans" font-size="10.00">gatk_haplotypecaller</text>
<text text-anchor="middle" x="309" y="-314" font-family="sans" font-size="10.00">interval: 0000&#45;scattered.interval_list</text>
</g>
<!-- 6&#45;&gt;39 -->
<g id="edge82" class="edge">
<title>6&#45;&gt;39</title>
<path fill="none" stroke="grey" stroke-width="2" d="M1178.74,-897.19C1055.73,-897.23 686.63,-893.16 579,-844 527.54,-820.5 488,-811.57 488,-755 488,-755 488,-755 488,-465 488,-404.13 423.69,-365.21 372.16,-343.8"/>
<polygon fill="grey" stroke="grey" stroke-width="2" points="373.29,-340.48 362.71,-340.01 370.68,-346.98 373.29,-340.48"/>
</g>
<!-- 6&#45;&gt;40 -->
<g id="edge85" class="edge">
<title>6&#45;&gt;40</title>
<path fill="none" stroke="grey" stroke-width="2" d="M1178.85,-896.05C982.85,-890.87 136,-862.32 136,-755 136,-755 136,-755 136,-465 136,-423.56 120.36,-377.67 108.89,-349.58"/>
<polygon fill="grey" stroke="grey" stroke-width="2" points="112,-347.93 104.89,-340.07 105.55,-350.65 112,-347.93"/>
</g>
<!-- 45 -->
<g id="node46" class="node">
<title>45</title>
<path fill="none" stroke="#5692d8" stroke-width="2" d="M1649,-844C1649,-844 1581,-844 1581,-844 1575,-844 1569,-838 1569,-832 1569,-832 1569,-820 1569,-820 1569,-814 1575,-808 1581,-808 1581,-808 1649,-808 1649,-808 1655,-808 1661,-814 1661,-820 1661,-820 1661,-832 1661,-832 1661,-838 1655,-844 1649,-844"/>
<text text-anchor="middle" x="1615" y="-823.5" font-family="sans" font-size="10.00">samtools_faidx</text>
</g>
<!-- 6&#45;&gt;45 -->
<g id="edge92" class="edge">
<title>6&#45;&gt;45</title>
<path fill="none" stroke="grey" stroke-width="2" d="M1259.23,-891.99C1322.09,-883.86 1447.24,-866.41 1552,-844 1554.21,-843.53 1556.45,-843.03 1558.71,-842.5"/>
<polygon fill="grey" stroke="grey" stroke-width="2" points="1559.79,-845.84 1568.69,-840.09 1558.15,-839.04 1559.79,-845.84"/>
</g>
<!-- 46 -->
<g id="node47" class="node">
<title>46</title>
<path fill="none" stroke="#56d86b" stroke-width="2" d="M1812,-772C1812,-772 1768,-772 1768,-772 1762,-772 1756,-766 1756,-760 1756,-760 1756,-748 1756,-748 1756,-742 1762,-736 1768,-736 1768,-736 1812,-736 1812,-736 1818,-736 1824,-742 1824,-748 1824,-748 1824,-760 1824,-760 1824,-766 1818,-772 1812,-772"/>
<text text-anchor="middle" x="1790" y="-751.5" font-family="sans" font-size="10.00">bwa_mem</text>
</g>
<!-- 6&#45;&gt;46 -->
<g id="edge93" class="edge">
<title>6&#45;&gt;46</title>
<path fill="none" stroke="grey" stroke-width="2" d="M1259.21,-895.92C1380.41,-892.29 1736.26,-878.74 1774,-844 1790.64,-828.68 1793.62,-802.41 1793.04,-782.37"/>
<polygon fill="grey" stroke="grey" stroke-width="2" points="1796.53,-782.04 1792.44,-772.26 1789.54,-782.45 1796.53,-782.04"/>
</g>
<!-- 47 -->
<g id="node48" class="node">
<title>47</title>
<path fill="none" stroke="#ced856" stroke-width="2" d="M370,-412C370,-412 332,-412 332,-412 326,-412 320,-406 320,-400 320,-400 320,-388 320,-388 320,-382 326,-376 332,-376 332,-376 370,-376 370,-376 376,-376 382,-382 382,-388 382,-388 382,-400 382,-400 382,-406 376,-412 370,-412"/>
<text text-anchor="middle" x="351" y="-391.5" font-family="sans" font-size="10.00">gatk_dict</text>
</g>
<!-- 6&#45;&gt;47 -->
<g id="edge96" class="edge">
<title>6&#45;&gt;47</title>
<path fill="none" stroke="grey" stroke-width="2" d="M1178.78,-895.98C1032.91,-892.01 536.87,-876.26 474,-844 428.23,-820.51 400,-806.44 400,-755 400,-755 400,-755 400,-537 400,-494.78 380.4,-449.16 365.99,-421.33"/>
<polygon fill="grey" stroke="grey" stroke-width="2" points="368.95,-419.44 361.15,-412.27 362.77,-422.74 368.95,-419.44"/>
</g>
<!-- 48 -->
<g id="node49" class="node">
<title>48</title>
<path fill="none" stroke="#56d8b9" stroke-width="2" d="M1335,-700C1335,-700 1269,-700 1269,-700 1263,-700 1257,-694 1257,-688 1257,-688 1257,-676 1257,-676 1257,-670 1263,-664 1269,-664 1269,-664 1335,-664 1335,-664 1341,-664 1347,-670 1347,-676 1347,-676 1347,-688 1347,-688 1347,-694 1341,-700 1335,-700"/>
<text text-anchor="middle" x="1302" y="-679.5" font-family="sans" font-size="10.00">samtools_view</text>
</g>
<!-- 6&#45;&gt;48 -->
<g id="edge98" class="edge">
<title>6&#45;&gt;48</title>
<path fill="none" stroke="grey" stroke-width="2" d="M1224.14,-879.79C1233.21,-850.02 1253.18,-787.18 1275,-736 1278.77,-727.17 1283.36,-717.76 1287.68,-709.35"/>
<polygon fill="grey" stroke="grey" stroke-width="2" points="1290.84,-710.86 1292.39,-700.38 1284.64,-707.61 1290.84,-710.86"/>
</g>
<!-- 49 -->
<g id="node50" class="node">
<title>49</title>
<path fill="none" stroke="#56d8b9" stroke-width="2" d="M932,-700C932,-700 866,-700 866,-700 860,-700 854,-694 854,-688 854,-688 854,-676 854,-676 854,-670 860,-664 866,-664 866,-664 932,-664 932,-664 938,-664 944,-670 944,-676 944,-676 944,-688 944,-688 944,-694 938,-700 932,-700"/>
<text text-anchor="middle" x="899" y="-679.5" font-family="sans" font-size="10.00">samtools_view</text>
</g>
<!-- 6&#45;&gt;49 -->
<g id="edge100" class="edge">
<title>6&#45;&gt;49</title>
<path fill="none" stroke="grey" stroke-width="2" d="M1178.97,-893.62C1114.28,-887.39 990.7,-872.1 958,-844 918.31,-809.89 905.31,-746.69 901.06,-710.45"/>
<polygon fill="grey" stroke="grey" stroke-width="2" points="904.5,-709.72 900,-700.13 897.54,-710.44 904.5,-709.72"/>
</g>
<!-- 50 -->
<g id="node51" class="node">
<title>50</title>
<path fill="none" stroke="#56d86b" stroke-width="2" d="M1340,-772C1340,-772 1296,-772 1296,-772 1290,-772 1284,-766 1284,-760 1284,-760 1284,-748 1284,-748 1284,-742 1290,-736 1296,-736 1296,-736 1340,-736 1340,-736 1346,-736 1352,-742 1352,-748 1352,-748 1352,-760 1352,-760 1352,-766 1346,-772 1340,-772"/>
<text text-anchor="middle" x="1318" y="-751.5" font-family="sans" font-size="10.00">bwa_mem</text>
</g>
<!-- 6&#45;&gt;50 -->
<g id="edge101" class="edge">
<title>6&#45;&gt;50</title>
<path fill="none" stroke="grey" stroke-width="2" d="M1230.94,-879.87C1248.19,-855.14 1280.18,-809.24 1300.21,-780.51"/>
<polygon fill="grey" stroke="grey" stroke-width="2" points="1303.17,-782.39 1306.02,-772.19 1297.43,-778.39 1303.17,-782.39"/>
</g>
<!-- 51 -->
<g id="node52" class="node">
<title>51</title>
<path fill="none" stroke="#56d86b" stroke-width="2" d="M1057,-772C1057,-772 1013,-772 1013,-772 1007,-772 1001,-766 1001,-760 1001,-760 1001,-748 1001,-748 1001,-742 1007,-736 1013,-736 1013,-736 1057,-736 1057,-736 1063,-736 1069,-742 1069,-748 1069,-748 1069,-760 1069,-760 1069,-766 1063,-772 1057,-772"/>
<text text-anchor="middle" x="1035" y="-751.5" font-family="sans" font-size="10.00">bwa_mem</text>
</g>
<!-- 6&#45;&gt;51 -->
<g id="edge104" class="edge">
<title>6&#45;&gt;51</title>
<path fill="none" stroke="grey" stroke-width="2" d="M1178.98,-891.54C1128.78,-883.78 1047.07,-867.8 1029,-844 1015.74,-826.54 1018.98,-801.18 1024.53,-781.99"/>
<polygon fill="grey" stroke="grey" stroke-width="2" points="1027.91,-782.91 1027.66,-772.32 1021.25,-780.76 1027.91,-782.91"/>
</g>
<!-- 7 -->
<g id="node8" class="node">
<title>7</title>
<path fill="none" stroke="#566bd8" stroke-width="2" d="M446.5,-180C446.5,-180 335.5,-180 335.5,-180 329.5,-180 323.5,-174 323.5,-168 323.5,-168 323.5,-156 323.5,-156 323.5,-150 329.5,-144 335.5,-144 335.5,-144 446.5,-144 446.5,-144 452.5,-144 458.5,-150 458.5,-156 458.5,-156 458.5,-168 458.5,-168 458.5,-174 452.5,-180 446.5,-180"/>
<text text-anchor="middle" x="391" y="-159.5" font-family="sans" font-size="10.00">gatk_genomicsdbimport</text>
</g>
<!-- 7&#45;&gt;2 -->
<g id="edge8" class="edge">
<title>7&#45;&gt;2</title>
<path fill="none" stroke="grey" stroke-width="2" d="M453.05,-143.97C490.84,-133.59 539.14,-120.33 577.96,-109.68"/>
<polygon fill="grey" stroke="grey" stroke-width="2" points="578.9,-113.05 587.61,-107.03 577.04,-106.3 578.9,-113.05"/>
</g>
<!-- 8&#45;&gt;3 -->
<g id="edge10" class="edge">
<title>8&#45;&gt;3</title>
<path fill="none" stroke="grey" stroke-width="2" d="M1186.49,-387.31C1134.04,-380.58 1053.95,-366.72 989,-340 948.67,-323.41 907.39,-295.78 878.37,-274.24"/>
<polygon fill="grey" stroke="grey" stroke-width="2" points="880.24,-271.27 870.14,-268.06 876.03,-276.86 880.24,-271.27"/>
</g>
<!-- 10 -->
<g id="node11" class="node">
<title>10</title>
<path fill="none" stroke="#d8a456" stroke-width="2" d="M1287.5,-340C1287.5,-340 1196.5,-340 1196.5,-340 1190.5,-340 1184.5,-334 1184.5,-328 1184.5,-328 1184.5,-316 1184.5,-316 1184.5,-310 1190.5,-304 1196.5,-304 1196.5,-304 1287.5,-304 1287.5,-304 1293.5,-304 1299.5,-310 1299.5,-316 1299.5,-316 1299.5,-328 1299.5,-328 1299.5,-334 1293.5,-340 1287.5,-340"/>
<text text-anchor="middle" x="1242" y="-319.5" font-family="sans" font-size="10.00">samtools_index_md</text>
</g>
<!-- 8&#45;&gt;10 -->
<g id="edge39" class="edge">
<title>8&#45;&gt;10</title>
<path fill="none" stroke="grey" stroke-width="2" d="M1242,-375.7C1242,-367.98 1242,-358.71 1242,-350.11"/>
<polygon fill="grey" stroke="grey" stroke-width="2" points="1245.5,-350.1 1242,-340.1 1238.5,-350.1 1245.5,-350.1"/>
</g>
<!-- 20 -->
<g id="node21" class="node">
<title>20</title>
<path fill="none" stroke="#d86e56" stroke-width="2" d="M1396.5,-340C1396.5,-340 1329.5,-340 1329.5,-340 1323.5,-340 1317.5,-334 1317.5,-328 1317.5,-328 1317.5,-316 1317.5,-316 1317.5,-310 1323.5,-304 1329.5,-304 1329.5,-304 1396.5,-304 1396.5,-304 1402.5,-304 1408.5,-310 1408.5,-316 1408.5,-316 1408.5,-328 1408.5,-328 1408.5,-334 1402.5,-340 1396.5,-340"/>
<text text-anchor="middle" x="1363" y="-319.5" font-family="sans" font-size="10.00">samtools_stats</text>
</g>
<!-- 8&#45;&gt;20 -->
<g id="edge44" class="edge">
<title>8&#45;&gt;20</title>
<path fill="none" stroke="grey" stroke-width="2" d="M1271.6,-375.88C1287.57,-366.64 1307.46,-355.13 1324.61,-345.21"/>
<polygon fill="grey" stroke="grey" stroke-width="2" points="1326.38,-348.23 1333.29,-340.19 1322.88,-342.17 1326.38,-348.23"/>
</g>
<!-- 8&#45;&gt;23 -->
<g id="edge48" class="edge">
<title>8&#45;&gt;23</title>
<path fill="none" stroke="grey" stroke-width="2" d="M1297.74,-385.2C1334.38,-378.01 1382.03,-364.57 1418,-340 1444.89,-321.63 1466.68,-290.8 1479.92,-268.83"/>
<polygon fill="grey" stroke="grey" stroke-width="2" points="1483.05,-270.42 1485.06,-260.02 1477,-266.89 1483.05,-270.42"/>
</g>
<!-- 8&#45;&gt;38 -->
<g id="edge80" class="edge">
<title>8&#45;&gt;38</title>
<path fill="none" stroke="grey" stroke-width="2" d="M1186.32,-387.59C1066.82,-375.99 783.97,-348.53 628.32,-333.42"/>
<polygon fill="grey" stroke="grey" stroke-width="2" points="628.54,-329.92 618.25,-332.44 627.87,-336.89 628.54,-329.92"/>
</g>
<!-- 9&#45;&gt;3 -->
<g id="edge11" class="edge">
<title>9&#45;&gt;3</title>
<path fill="none" stroke="grey" stroke-width="2" d="M775.47,-375.98C762.21,-367.18 748.3,-355.09 741,-340 734.03,-325.6 733.23,-317.99 741,-304 749.99,-287.81 765.26,-275.37 781.1,-266.07"/>
<polygon fill="grey" stroke="grey" stroke-width="2" points="782.84,-269.1 789.92,-261.22 779.47,-262.97 782.84,-269.1"/>
</g>
<!-- 11 -->
<g id="node12" class="node">
<title>11</title>
<path fill="none" stroke="#d8a456" stroke-width="2" d="M853.5,-340C853.5,-340 762.5,-340 762.5,-340 756.5,-340 750.5,-334 750.5,-328 750.5,-328 750.5,-316 750.5,-316 750.5,-310 756.5,-304 762.5,-304 762.5,-304 853.5,-304 853.5,-304 859.5,-304 865.5,-310 865.5,-316 865.5,-316 865.5,-328 865.5,-328 865.5,-334 859.5,-340 853.5,-340"/>
<text text-anchor="middle" x="808" y="-319.5" font-family="sans" font-size="10.00">samtools_index_md</text>
</g>
<!-- 9&#45;&gt;11 -->
<g id="edge40" class="edge">
<title>9&#45;&gt;11</title>
<path fill="none" stroke="grey" stroke-width="2" d="M808,-375.7C808,-367.98 808,-358.71 808,-350.11"/>
<polygon fill="grey" stroke="grey" stroke-width="2" points="811.5,-350.1 808,-340.1 804.5,-350.1 811.5,-350.1"/>
</g>
<!-- 21 -->
<g id="node22" class="node">
<title>21</title>
<path fill="none" stroke="#d86e56" stroke-width="2" d="M1077.5,-340C1077.5,-340 1010.5,-340 1010.5,-340 1004.5,-340 998.5,-334 998.5,-328 998.5,-328 998.5,-316 998.5,-316 998.5,-310 1004.5,-304 1010.5,-304 1010.5,-304 1077.5,-304 1077.5,-304 1083.5,-304 1089.5,-310 1089.5,-316 1089.5,-316 1089.5,-328 1089.5,-328 1089.5,-334 1083.5,-340 1077.5,-340"/>
<text text-anchor="middle" x="1044" y="-319.5" font-family="sans" font-size="10.00">samtools_stats</text>
</g>
<!-- 9&#45;&gt;21 -->
<g id="edge45" class="edge">
<title>9&#45;&gt;21</title>
<path fill="none" stroke="grey" stroke-width="2" d="M863.63,-376.5C901.28,-365.33 950.83,-350.64 988.46,-339.47"/>
<polygon fill="grey" stroke="grey" stroke-width="2" points="989.66,-342.77 998.25,-336.57 987.67,-336.06 989.66,-342.77"/>
</g>
<!-- 9&#45;&gt;24 -->
<g id="edge52" class="edge">
<title>9&#45;&gt;24</title>
<path fill="none" stroke="grey" stroke-width="2" d="M830.52,-375.95C843.53,-365.84 860.03,-352.59 874,-340 900.1,-316.47 928.18,-287.65 947.19,-267.56"/>
<polygon fill="grey" stroke="grey" stroke-width="2" points="949.94,-269.74 954.25,-260.06 944.85,-264.94 949.94,-269.74"/>
</g>
<!-- 9&#45;&gt;39 -->
<g id="edge83" class="edge">
<title>9&#45;&gt;39</title>
<path fill="none" stroke="grey" stroke-width="2" d="M752.29,-385.93C678.08,-376.42 542.43,-358.68 416.26,-340.17"/>
<polygon fill="grey" stroke="grey" stroke-width="2" points="416.43,-336.66 406.03,-338.66 415.41,-343.58 416.43,-336.66"/>
</g>
<!-- 10&#45;&gt;3 -->
<g id="edge12" class="edge">
<title>10&#45;&gt;3</title>
<path fill="none" stroke="grey" stroke-width="2" d="M1184.34,-313.15C1121.09,-304.1 1016.74,-287.89 928,-268 918.25,-265.81 907.98,-263.21 898.02,-260.53"/>
<polygon fill="grey" stroke="grey" stroke-width="2" points="898.76,-257.1 888.19,-257.83 896.91,-263.85 898.76,-257.1"/>
</g>
<!-- 10&#45;&gt;23 -->
<g id="edge50" class="edge">
<title>10&#45;&gt;23</title>
<path fill="none" stroke="grey" stroke-width="2" d="M1297.4,-303.99C1331.12,-293.62 1375.06,-280.09 1414,-268 1426.16,-264.23 1439.35,-260.11 1451.45,-256.33"/>
<polygon fill="grey" stroke="grey" stroke-width="2" points="1452.81,-259.57 1461.31,-253.25 1450.72,-252.89 1452.81,-259.57"/>
</g>
<!-- 11&#45;&gt;3 -->
<g id="edge13" class="edge">
<title>11&#45;&gt;3</title>
<path fill="none" stroke="grey" stroke-width="2" d="M814.88,-303.69C817.92,-296.04 821.61,-286.76 825.17,-277.79"/>
<polygon fill="grey" stroke="grey" stroke-width="2" points="828.52,-278.84 828.96,-268.26 822.02,-276.26 828.52,-278.84"/>
</g>
<!-- 11&#45;&gt;24 -->
<g id="edge54" class="edge">
<title>11&#45;&gt;24</title>
<path fill="none" stroke="grey" stroke-width="2" d="M843.55,-303.88C868.44,-291.9 901.79,-275.84 927.99,-263.23"/>
<polygon fill="grey" stroke="grey" stroke-width="2" points="929.8,-266.24 937.29,-258.75 926.76,-259.94 929.8,-266.24"/>
</g>
<!-- 12&#45;&gt;4 -->
<g id="edge14" class="edge">
<title>12&#45;&gt;4</title>
<path fill="none" stroke="grey" stroke-width="2" d="M2159.84,-591.61C2165.4,-564.94 2175,-512.27 2175,-467 2175,-467 2175,-467 2175,-393 2175,-311.72 2190.99,-268.57 2129,-216 2087.05,-180.43 1701.59,-167.23 1579.15,-163.91"/>
<polygon fill="grey" stroke="grey" stroke-width="2" points="1579.21,-160.41 1569.13,-163.64 1579.03,-167.4 1579.21,-160.41"/>
</g>
<!-- 13&#45;&gt;4 -->
<g id="edge15" class="edge">
<title>13&#45;&gt;4</title>
<path fill="none" stroke="grey" stroke-width="2" d="M1589,-663.95C1589,-637.29 1589,-584.11 1589,-539 1589,-539 1589,-539 1589,-321 1589,-272.97 1568.8,-220 1554.88,-189.22"/>
<polygon fill="grey" stroke="grey" stroke-width="2" points="1558.01,-187.64 1550.62,-180.04 1551.66,-190.58 1558.01,-187.64"/>
</g>
<!-- 14 -->
<g id="node15" class="node">
<title>14</title>
<path fill="none" stroke="#a7d856" stroke-width="2" d="M2107.5,-260C2107.5,-260 2066.5,-260 2066.5,-260 2060.5,-260 2054.5,-254 2054.5,-248 2054.5,-248 2054.5,-236 2054.5,-236 2054.5,-230 2060.5,-224 2066.5,-224 2066.5,-224 2107.5,-224 2107.5,-224 2113.5,-224 2119.5,-230 2119.5,-236 2119.5,-236 2119.5,-248 2119.5,-248 2119.5,-254 2113.5,-260 2107.5,-260"/>
<text text-anchor="middle" x="2087" y="-245" font-family="sans" font-size="10.00">fastqc</text>
<text text-anchor="middle" x="2087" y="-234" font-family="sans" font-size="10.00">library: T2</text>
</g>
<!-- 14&#45;&gt;4 -->
<g id="edge16" class="edge">
<title>14&#45;&gt;4</title>
<path fill="none" stroke="grey" stroke-width="2" d="M2059.17,-223.97C2053.04,-220.86 2046.45,-217.98 2040,-216 1873.79,-165.05 1663.42,-161.36 1579.26,-162.18"/>
<polygon fill="grey" stroke="grey" stroke-width="2" points="1579.13,-158.68 1569.17,-162.31 1579.21,-165.68 1579.13,-158.68"/>
</g>
<!-- 15 -->
<g id="node16" class="node">
<title>15</title>
<path fill="none" stroke="#a7d856" stroke-width="2" d="M1077.5,-260C1077.5,-260 1036.5,-260 1036.5,-260 1030.5,-260 1024.5,-254 1024.5,-248 1024.5,-248 1024.5,-236 1024.5,-236 1024.5,-230 1030.5,-224 1036.5,-224 1036.5,-224 1077.5,-224 1077.5,-224 1083.5,-224 1089.5,-230 1089.5,-236 1089.5,-236 1089.5,-248 1089.5,-248 1089.5,-254 1083.5,-260 1077.5,-260"/>
<text text-anchor="middle" x="1057" y="-245" font-family="sans" font-size="10.00">fastqc</text>
<text text-anchor="middle" x="1057" y="-234" font-family="sans" font-size="10.00">library: T3</text>
</g>
<!-- 15&#45;&gt;4 -->
<g id="edge17" class="edge">
<title>15&#45;&gt;4</title>
<path fill="none" stroke="grey" stroke-width="2" d="M1085.1,-223.91C1091.16,-220.85 1097.65,-218 1104,-216 1247.24,-170.96 1427.94,-163.82 1504.73,-162.95"/>
<polygon fill="grey" stroke="grey" stroke-width="2" points="1504.9,-166.45 1514.87,-162.86 1504.84,-159.45 1504.9,-166.45"/>
</g>
<!-- 16 -->
<g id="node17" class="node">
<title>16</title>
<path fill="none" stroke="#a7d856" stroke-width="2" d="M1392.5,-260C1392.5,-260 1343.5,-260 1343.5,-260 1337.5,-260 1331.5,-254 1331.5,-248 1331.5,-248 1331.5,-236 1331.5,-236 1331.5,-230 1337.5,-224 1343.5,-224 1343.5,-224 1392.5,-224 1392.5,-224 1398.5,-224 1404.5,-230 1404.5,-236 1404.5,-236 1404.5,-248 1404.5,-248 1404.5,-254 1398.5,-260 1392.5,-260"/>
<text text-anchor="middle" x="1368" y="-245" font-family="sans" font-size="10.00">fastqc</text>
<text text-anchor="middle" x="1368" y="-234" font-family="sans" font-size="10.00">library: DS2</text>
</g>
<!-- 16&#45;&gt;4 -->
<g id="edge18" class="edge">
<title>16&#45;&gt;4</title>
<path fill="none" stroke="grey" stroke-width="2" d="M1402.18,-223.96C1407.78,-221.25 1413.54,-218.51 1419,-216 1447.9,-202.7 1481.05,-188.47 1505.65,-178.11"/>
<polygon fill="grey" stroke="grey" stroke-width="2" points="1507.09,-181.3 1514.96,-174.2 1504.38,-174.85 1507.09,-181.3"/>
</g>
<!-- 17 -->
<g id="node18" class="node">
<title>17</title>
<path fill="none" stroke="#d89556" stroke-width="2" d="M1460,-844C1460,-844 1404,-844 1404,-844 1398,-844 1392,-838 1392,-832 1392,-832 1392,-820 1392,-820 1392,-814 1398,-808 1404,-808 1404,-808 1460,-808 1460,-808 1466,-808 1472,-814 1472,-820 1472,-820 1472,-832 1472,-832 1472,-838 1466,-844 1460,-844"/>
<text text-anchor="middle" x="1432" y="-829" font-family="sans" font-size="10.00">trimmomatic</text>
<text text-anchor="middle" x="1432" y="-818" font-family="sans" font-size="10.00">library: T2</text>
</g>
<!-- 17&#45;&gt;4 -->
<g id="edge19" class="edge">
<title>17&#45;&gt;4</title>
<path fill="none" stroke="grey" stroke-width="2" d="M1472.07,-819.67C1497.3,-816.31 1530.55,-811.9 1560,-808 1681.33,-791.94 1723.83,-827.3 1833,-772 2030.3,-672.05 2030.39,-555.53 2080,-340 2083.59,-324.41 2087.69,-318.03 2080,-304 2062.51,-272.11 1976.17,-228.46 1942,-216 1814.93,-169.66 1651.99,-163.07 1579.58,-162.63"/>
<polygon fill="grey" stroke="grey" stroke-width="2" points="1579.16,-159.13 1569.16,-162.61 1579.15,-166.13 1579.16,-159.13"/>
</g>
<!-- 17&#45;&gt;50 -->
<g id="edge102" class="edge">
<title>17&#45;&gt;50</title>
<path fill="none" stroke="grey" stroke-width="2" d="M1404.11,-807.88C1389.21,-798.72 1370.67,-787.34 1354.62,-777.48"/>
<polygon fill="grey" stroke="grey" stroke-width="2" points="1356.35,-774.44 1345.99,-772.19 1352.69,-780.41 1356.35,-774.44"/>
</g>
<!-- 18 -->
<g id="node19" class="node">
<title>18</title>
<path fill="none" stroke="#d89556" stroke-width="2" d="M1106,-844C1106,-844 1050,-844 1050,-844 1044,-844 1038,-838 1038,-832 1038,-832 1038,-820 1038,-820 1038,-814 1044,-808 1050,-808 1050,-808 1106,-808 1106,-808 1112,-808 1118,-814 1118,-820 1118,-820 1118,-832 1118,-832 1118,-838 1112,-844 1106,-844"/>
<text text-anchor="middle" x="1078" y="-829" font-family="sans" font-size="10.00">trimmomatic</text>
<text text-anchor="middle" x="1078" y="-818" font-family="sans" font-size="10.00">library: T3</text>
</g>
<!-- 18&#45;&gt;4 -->
<g id="edge20" class="edge">
<title>18&#45;&gt;4</title>
<path fill="none" stroke="grey" stroke-width="2" d="M1080.34,-807.83C1092.09,-722.53 1145.22,-346.82 1175,-304 1251.77,-193.62 1427.69,-169.62 1504.72,-164.43"/>
<polygon fill="grey" stroke="grey" stroke-width="2" points="1505.14,-167.91 1514.91,-163.81 1504.72,-160.92 1505.14,-167.91"/>
</g>
<!-- 18&#45;&gt;51 -->
<g id="edge105" class="edge">
<title>18&#45;&gt;51</title>
<path fill="none" stroke="grey" stroke-width="2" d="M1067.37,-807.7C1062.37,-799.56 1056.31,-789.69 1050.79,-780.7"/>
<polygon fill="grey" stroke="grey" stroke-width="2" points="1053.72,-778.79 1045.51,-772.1 1047.76,-782.46 1053.72,-778.79"/>
</g>
<!-- 19 -->
<g id="node20" class="node">
<title>19</title>
<path fill="none" stroke="#d89556" stroke-width="2" d="M1753,-844C1753,-844 1697,-844 1697,-844 1691,-844 1685,-838 1685,-832 1685,-832 1685,-820 1685,-820 1685,-814 1691,-808 1697,-808 1697,-808 1753,-808 1753,-808 1759,-808 1765,-814 1765,-820 1765,-820 1765,-832 1765,-832 1765,-838 1759,-844 1753,-844"/>
<text text-anchor="middle" x="1725" y="-829" font-family="sans" font-size="10.00">trimmomatic</text>
<text text-anchor="middle" x="1725" y="-818" font-family="sans" font-size="10.00">library: DS2</text>
</g>
<!-- 19&#45;&gt;4 -->
<g id="edge21" class="edge">
<title>19&#45;&gt;4</title>
<path fill="none" stroke="grey" stroke-width="2" d="M1722.19,-807.89C1719.18,-789.93 1714.13,-760.91 1709,-736 1661.1,-503.6 1695.83,-427.37 1588,-216 1582.74,-205.7 1575.06,-195.75 1567.47,-187.3"/>
<polygon fill="grey" stroke="grey" stroke-width="2" points="1570.01,-184.89 1560.6,-180.01 1564.91,-189.69 1570.01,-184.89"/>
</g>
<!-- 19&#45;&gt;46 -->
<g id="edge94" class="edge">
<title>19&#45;&gt;46</title>
<path fill="none" stroke="grey" stroke-width="2" d="M1741.07,-807.7C1748.94,-799.22 1758.56,-788.86 1767.17,-779.58"/>
<polygon fill="grey" stroke="grey" stroke-width="2" points="1769.88,-781.81 1774.12,-772.1 1764.75,-777.05 1769.88,-781.81"/>
</g>
<!-- 20&#45;&gt;4 -->
<g id="edge22" class="edge">
<title>20&#45;&gt;4</title>
<path fill="none" stroke="grey" stroke-width="2" d="M1380.56,-303.84C1390.66,-293.7 1403.41,-280.45 1414,-268 1432.72,-245.99 1431.52,-235.31 1453,-216 1468.69,-201.9 1488.68,-189.6 1505.74,-180.4"/>
<polygon fill="grey" stroke="grey" stroke-width="2" points="1507.64,-183.36 1514.87,-175.62 1504.39,-177.16 1507.64,-183.36"/>
</g>
<!-- 21&#45;&gt;4 -->
<g id="edge23" class="edge">
<title>21&#45;&gt;4</title>
<path fill="none" stroke="grey" stroke-width="2" d="M1062.42,-303.74C1073.06,-293.57 1086.56,-280.32 1098,-268 1118.6,-245.82 1115.43,-230.52 1142,-216 1204.18,-182.02 1417.9,-168.65 1504.81,-164.53"/>
<polygon fill="grey" stroke="grey" stroke-width="2" points="1505.17,-168.02 1515,-164.06 1504.85,-161.03 1505.17,-168.02"/>
</g>
<!-- 22&#45;&gt;4 -->
<g id="edge24" class="edge">
<title>22&#45;&gt;4</title>
<path fill="none" stroke="grey" stroke-width="2" d="M2008.96,-303.91C1985.37,-279.96 1938.83,-236.99 1890,-216 1783.9,-170.38 1644.81,-163.23 1579.25,-162.62"/>
<polygon fill="grey" stroke="grey" stroke-width="2" points="1579.02,-159.11 1569,-162.57 1578.99,-166.11 1579.02,-159.11"/>
</g>
<!-- 23&#45;&gt;4 -->
<g id="edge25" class="edge">
<title>23&#45;&gt;4</title>
<path fill="none" stroke="grey" stroke-width="2" d="M1504.65,-223.69C1510.93,-213.49 1518.99,-200.39 1526.02,-188.97"/>
<polygon fill="grey" stroke="grey" stroke-width="2" points="1529.12,-190.61 1531.38,-180.26 1523.16,-186.94 1529.12,-190.61"/>
</g>
<!-- 24&#45;&gt;4 -->
<g id="edge26" class="edge">
<title>24&#45;&gt;4</title>
<path fill="none" stroke="grey" stroke-width="2" d="M996.81,-223.8C1002.61,-220.74 1008.86,-217.92 1015,-216 1106.73,-187.26 1400.12,-170.11 1504.61,-164.79"/>
<polygon fill="grey" stroke="grey" stroke-width="2" points="1504.88,-168.28 1514.69,-164.29 1504.53,-161.29 1504.88,-168.28"/>
</g>
<!-- 25&#45;&gt;4 -->
<g id="edge27" class="edge">
<title>25&#45;&gt;4</title>
<path fill="none" stroke="grey" stroke-width="2" d="M1655.96,-223.88C1632.99,-211.61 1602.01,-195.06 1578.16,-182.32"/>
<polygon fill="grey" stroke="grey" stroke-width="2" points="1579.54,-179.09 1569.07,-177.46 1576.24,-185.26 1579.54,-179.09"/>
</g>
<!-- 26&#45;&gt;4 -->
<g id="edge28" class="edge">
<title>26&#45;&gt;4</title>
<path fill="none" stroke="grey" stroke-width="2" d="M1773.39,-226.33C1716.64,-210.8 1628.57,-186.69 1579.05,-173.14"/>
<polygon fill="grey" stroke="grey" stroke-width="2" points="1579.67,-169.68 1569.1,-170.42 1577.82,-176.43 1579.67,-169.68"/>
</g>
<!-- 27 -->
<g id="node28" class="node">
<title>27</title>
<path fill="none" stroke="#d8bc56" stroke-width="2" d="M1879,-628C1879,-628 1817,-628 1817,-628 1811,-628 1805,-622 1805,-616 1805,-616 1805,-604 1805,-604 1805,-598 1811,-592 1817,-592 1817,-592 1879,-592 1879,-592 1885,-592 1891,-598 1891,-604 1891,-604 1891,-616 1891,-616 1891,-622 1885,-628 1879,-628"/>
<text text-anchor="middle" x="1848" y="-607.5" font-family="sans" font-size="10.00">samtools_sort</text>
</g>
<!-- 27&#45;&gt;5 -->
<g id="edge29" class="edge">
<title>27&#45;&gt;5</title>
<path fill="none" stroke="grey" stroke-width="2" d="M1868.56,-591.86C1878.66,-582.32 1890.11,-569.65 1897,-556 1906.72,-536.75 1910.9,-512.59 1912.69,-494.31"/>
<polygon fill="grey" stroke="grey" stroke-width="2" points="1916.19,-494.55 1913.5,-484.3 1909.21,-493.99 1916.19,-494.55"/>
</g>
<!-- 28 -->
<g id="node29" class="node">
<title>28</title>
<path fill="none" stroke="#d8cb56" stroke-width="2" d="M1876,-556C1876,-556 1806,-556 1806,-556 1800,-556 1794,-550 1794,-544 1794,-544 1794,-532 1794,-532 1794,-526 1800,-520 1806,-520 1806,-520 1876,-520 1876,-520 1882,-520 1888,-526 1888,-532 1888,-532 1888,-544 1888,-544 1888,-550 1882,-556 1876,-556"/>
<text text-anchor="middle" x="1841" y="-535.5" font-family="sans" font-size="10.00">samtools_index</text>
</g>
<!-- 27&#45;&gt;28 -->
<g id="edge64" class="edge">
<title>27&#45;&gt;28</title>
<path fill="none" stroke="grey" stroke-width="2" d="M1846.27,-591.7C1845.5,-583.98 1844.57,-574.71 1843.71,-566.11"/>
<polygon fill="grey" stroke="grey" stroke-width="2" points="1847.19,-565.71 1842.71,-556.1 1840.22,-566.4 1847.19,-565.71"/>
</g>
<!-- 28&#45;&gt;5 -->
<g id="edge31" class="edge">
<title>28&#45;&gt;5</title>
<path fill="none" stroke="grey" stroke-width="2" d="M1859.04,-519.7C1868.06,-511.05 1879.12,-500.45 1888.94,-491.03"/>
<polygon fill="grey" stroke="grey" stroke-width="2" points="1891.37,-493.55 1896.16,-484.1 1886.52,-488.5 1891.37,-493.55"/>
</g>
<!-- 29 -->
<g id="node30" class="node">
<title>29</title>
<path fill="none" stroke="#567bd8" stroke-width="2" d="M507.5,-260C507.5,-260 436.5,-260 436.5,-260 430.5,-260 424.5,-254 424.5,-248 424.5,-248 424.5,-236 424.5,-236 424.5,-230 430.5,-224 436.5,-224 436.5,-224 507.5,-224 507.5,-224 513.5,-224 519.5,-230 519.5,-236 519.5,-236 519.5,-248 519.5,-248 519.5,-254 513.5,-260 507.5,-260"/>
<text text-anchor="middle" x="472" y="-239.5" font-family="sans" font-size="10.00">gatk_gathervcfs</text>
</g>
<!-- 29&#45;&gt;7 -->
<g id="edge32" class="edge">
<title>29&#45;&gt;7</title>
<path fill="none" stroke="grey" stroke-width="2" d="M454.02,-223.69C442.91,-212.98 428.47,-199.08 416.22,-187.29"/>
<polygon fill="grey" stroke="grey" stroke-width="2" points="418.56,-184.68 408.93,-180.26 413.7,-189.72 418.56,-184.68"/>
</g>
<!-- 30 -->
<g id="node31" class="node">
<title>30</title>
<path fill="none" stroke="#567bd8" stroke-width="2" d="M369.5,-260C369.5,-260 298.5,-260 298.5,-260 292.5,-260 286.5,-254 286.5,-248 286.5,-248 286.5,-236 286.5,-236 286.5,-230 292.5,-224 298.5,-224 298.5,-224 369.5,-224 369.5,-224 375.5,-224 381.5,-230 381.5,-236 381.5,-236 381.5,-248 381.5,-248 381.5,-254 375.5,-260 369.5,-260"/>
<text text-anchor="middle" x="334" y="-239.5" font-family="sans" font-size="10.00">gatk_gathervcfs</text>
</g>
<!-- 30&#45;&gt;7 -->
<g id="edge33" class="edge">
<title>30&#45;&gt;7</title>
<path fill="none" stroke="grey" stroke-width="2" d="M346.65,-223.69C354.18,-213.39 363.87,-200.13 372.27,-188.63"/>
<polygon fill="grey" stroke="grey" stroke-width="2" points="375.31,-190.4 378.39,-180.26 369.66,-186.27 375.31,-190.4"/>
</g>
<!-- 31 -->
<g id="node32" class="node">
<title>31</title>
<path fill="none" stroke="#567bd8" stroke-width="2" d="M207.5,-260C207.5,-260 136.5,-260 136.5,-260 130.5,-260 124.5,-254 124.5,-248 124.5,-248 124.5,-236 124.5,-236 124.5,-230 130.5,-224 136.5,-224 136.5,-224 207.5,-224 207.5,-224 213.5,-224 219.5,-230 219.5,-236 219.5,-236 219.5,-248 219.5,-248 219.5,-254 213.5,-260 207.5,-260"/>
<text text-anchor="middle" x="172" y="-239.5" font-family="sans" font-size="10.00">gatk_gathervcfs</text>
</g>
<!-- 31&#45;&gt;7 -->
<g id="edge34" class="edge">
<title>31&#45;&gt;7</title>
<path fill="none" stroke="grey" stroke-width="2" d="M219.52,-224.08C252.98,-212.16 297.96,-196.14 333.45,-183.5"/>
<polygon fill="grey" stroke="grey" stroke-width="2" points="334.95,-186.68 343.2,-180.03 332.6,-180.08 334.95,-186.68"/>
</g>
<!-- 32&#45;&gt;8 -->
<g id="edge35" class="edge">
<title>32&#45;&gt;8</title>
<path fill="none" stroke="grey" stroke-width="2" d="M1266.09,-447.7C1262.45,-439.73 1258.05,-430.1 1254.01,-421.26"/>
<polygon fill="grey" stroke="grey" stroke-width="2" points="1257.16,-419.74 1249.82,-412.1 1250.79,-422.65 1257.16,-419.74"/>
</g>
<!-- 33&#45;&gt;9 -->
<g id="edge37" class="edge">
<title>33&#45;&gt;9</title>
<path fill="none" stroke="grey" stroke-width="2" d="M823.06,-447.7C820.83,-439.9 818.15,-430.51 815.67,-421.83"/>
<polygon fill="grey" stroke="grey" stroke-width="2" points="819,-420.76 812.89,-412.1 812.27,-422.68 819,-420.76"/>
</g>
<!-- 34 -->
<g id="node35" class="node">
<title>34</title>
<path fill="none" stroke="#59d856" stroke-width="2" d="M1688,-772C1688,-772 1578,-772 1578,-772 1572,-772 1566,-766 1566,-760 1566,-760 1566,-748 1566,-748 1566,-742 1572,-736 1578,-736 1578,-736 1688,-736 1688,-736 1694,-736 1700,-742 1700,-748 1700,-748 1700,-760 1700,-760 1700,-766 1694,-772 1688,-772"/>
<text text-anchor="middle" x="1633" y="-751.5" font-family="sans" font-size="10.00">bedtools_makewindows</text>
</g>
<!-- 34&#45;&gt;13 -->
<g id="edge43" class="edge">
<title>34&#45;&gt;13</title>
<path fill="none" stroke="grey" stroke-width="2" d="M1622.12,-735.7C1617.01,-727.56 1610.8,-717.69 1605.16,-708.7"/>
<polygon fill="grey" stroke="grey" stroke-width="2" points="1608.04,-706.71 1599.75,-700.1 1602.11,-710.43 1608.04,-706.71"/>
</g>
<!-- 35&#45;&gt;23 -->
<g id="edge49" class="edge">
<title>35&#45;&gt;23</title>
<path fill="none" stroke="grey" stroke-width="2" d="M1347.25,-807.66C1351.84,-797.47 1357.34,-784.22 1361,-772 1412.59,-599.92 1386.28,-546.79 1442,-376 1454.2,-338.59 1471.26,-296.44 1482.47,-269.81"/>
<polygon fill="grey" stroke="grey" stroke-width="2" points="1485.77,-270.98 1486.45,-260.41 1479.33,-268.25 1485.77,-270.98"/>
</g>
<!-- 35&#45;&gt;24 -->
<g id="edge53" class="edge">
<title>35&#45;&gt;24</title>
<path fill="none" stroke="grey" stroke-width="2" d="M1313.94,-807.82C1301.23,-798.27 1286.17,-785.6 1275,-772 1228.79,-715.76 1231.32,-692.19 1197,-628 1162.88,-564.18 1142.82,-553 1121,-484 1096.68,-407.1 1146.44,-368.48 1098,-304 1073.85,-271.85 1051.06,-285.78 1015,-268 1012.98,-267 1010.92,-265.96 1008.86,-264.89"/>
<polygon fill="grey" stroke="grey" stroke-width="2" points="1010.27,-261.68 999.8,-260.09 1006.99,-267.87 1010.27,-261.68"/>
</g>
<!-- 35&#45;&gt;25 -->
<g id="edge57" class="edge">
<title>35&#45;&gt;25</title>
<path fill="none" stroke="grey" stroke-width="2" d="M1355.44,-807.61C1363.89,-797.82 1373.7,-784.98 1380,-772 1444.79,-638.46 1384.61,-575.26 1461,-448 1509.73,-366.82 1600.69,-299.28 1651.42,-265.76"/>
<polygon fill="grey" stroke="grey" stroke-width="2" points="1653.64,-268.49 1660.11,-260.09 1649.82,-262.63 1653.64,-268.49"/>
</g>
<!-- 35&#45;&gt;26 -->
<g id="edge61" class="edge">
<title>35&#45;&gt;26</title>
<path fill="none" stroke="grey" stroke-width="2" d="M1362.94,-807.91C1375.29,-798.3 1390.03,-785.53 1401,-772 1458.35,-701.23 1446.2,-666.22 1499,-592 1599.31,-451 1639.12,-426.84 1761,-304 1773.44,-291.46 1787.78,-278.08 1799.92,-267.06"/>
<polygon fill="grey" stroke="grey" stroke-width="2" points="1802.45,-269.49 1807.53,-260.19 1797.76,-264.29 1802.45,-269.49"/>
</g>
<!-- 35&#45;&gt;46 -->
<g id="edge95" class="edge">
<title>35&#45;&gt;46</title>
<path fill="none" stroke="grey" stroke-width="2" d="M1373.8,-810.62C1376.88,-809.63 1379.98,-808.74 1383,-808 1524.61,-773.44 1565.06,-795 1709,-772 1720.96,-770.09 1733.83,-767.59 1745.71,-765.1"/>
<polygon fill="grey" stroke="grey" stroke-width="2" points="1746.8,-768.45 1755.85,-762.93 1745.34,-761.61 1746.8,-768.45"/>
</g>
<!-- 35&#45;&gt;50 -->
<g id="edge103" class="edge">
<title>35&#45;&gt;50</title>
<path fill="none" stroke="grey" stroke-width="2" d="M1333.81,-807.7C1331.47,-799.9 1328.65,-790.51 1326.05,-781.83"/>
<polygon fill="grey" stroke="grey" stroke-width="2" points="1329.36,-780.68 1323.13,-772.1 1322.65,-782.69 1329.36,-780.68"/>
</g>
<!-- 35&#45;&gt;51 -->
<g id="edge106" class="edge">
<title>35&#45;&gt;51</title>
<path fill="none" stroke="grey" stroke-width="2" d="M1304.42,-817.04C1248.96,-804.27 1140.17,-779.22 1079.17,-765.17"/>
<polygon fill="grey" stroke="grey" stroke-width="2" points="1079.61,-761.68 1069.08,-762.85 1078.04,-768.5 1079.61,-761.68"/>
</g>
<!-- 36&#45;&gt;25 -->
<g id="edge58" class="edge">
<title>36&#45;&gt;25</title>
<path fill="none" stroke="grey" stroke-width="2" d="M1796.5,-303.88C1776.13,-292.45 1749.15,-277.31 1727.19,-264.99"/>
<polygon fill="grey" stroke="grey" stroke-width="2" points="1728.87,-261.92 1718.43,-260.08 1725.44,-268.02 1728.87,-261.92"/>
</g>
<!-- 36&#45;&gt;26 -->
<g id="edge62" class="edge">
<title>36&#45;&gt;26</title>
<path fill="none" stroke="grey" stroke-width="2" d="M1827,-303.69C1827,-293.89 1827,-281.42 1827,-270.33"/>
<polygon fill="grey" stroke="grey" stroke-width="2" points="1830.5,-270.26 1827,-260.26 1823.5,-270.26 1830.5,-270.26"/>
</g>
<!-- 37&#45;&gt;27 -->
<g id="edge63" class="edge">
<title>37&#45;&gt;27</title>
<path fill="none" stroke="grey" stroke-width="2" d="M1848,-663.7C1848,-655.98 1848,-646.71 1848,-638.11"/>
<polygon fill="grey" stroke="grey" stroke-width="2" points="1851.5,-638.1 1848,-628.1 1844.5,-638.1 1851.5,-638.1"/>
</g>
<!-- 38&#45;&gt;29 -->
<g id="edge65" class="edge">
<title>38&#45;&gt;29</title>
<path fill="none" stroke="grey" stroke-width="2" d="M510.13,-303.69C503.72,-293.49 495.49,-280.39 488.31,-268.97"/>
<polygon fill="grey" stroke="grey" stroke-width="2" points="491.13,-266.87 482.84,-260.26 485.2,-270.59 491.13,-266.87"/>
</g>
<!-- 39&#45;&gt;30 -->
<g id="edge66" class="edge">
<title>39&#45;&gt;30</title>
<path fill="none" stroke="grey" stroke-width="2" d="M314.55,-303.69C317.72,-293.79 321.77,-281.16 325.35,-269.99"/>
<polygon fill="grey" stroke="grey" stroke-width="2" points="328.75,-270.85 328.47,-260.26 322.08,-268.72 328.75,-270.85"/>
</g>
<!-- 40&#45;&gt;31 -->
<g id="edge67" class="edge">
<title>40&#45;&gt;31</title>
<path fill="none" stroke="grey" stroke-width="2" d="M113.64,-303.69C123.84,-293.09 137.05,-279.35 148.32,-267.62"/>
<polygon fill="grey" stroke="grey" stroke-width="2" points="150.99,-269.9 155.4,-260.26 145.95,-265.04 150.99,-269.9"/>
</g>
<!-- 41 -->
<g id="node42" class="node">
<title>41</title>
<path fill="none" stroke="#d8bc56" stroke-width="2" d="M1333,-628C1333,-628 1271,-628 1271,-628 1265,-628 1259,-622 1259,-616 1259,-616 1259,-604 1259,-604 1259,-598 1265,-592 1271,-592 1271,-592 1333,-592 1333,-592 1339,-592 1345,-598 1345,-604 1345,-604 1345,-616 1345,-616 1345,-622 1339,-628 1333,-628"/>
<text text-anchor="middle" x="1302" y="-607.5" font-family="sans" font-size="10.00">samtools_sort</text>
</g>
<!-- 41&#45;&gt;32 -->
<g id="edge68" class="edge">
<title>41&#45;&gt;32</title>
<path fill="none" stroke="grey" stroke-width="2" d="M1319.73,-591.6C1328.24,-582 1337.53,-569.34 1342,-556 1347.08,-540.83 1349.02,-534.38 1342,-520 1336.19,-508.11 1326.29,-498.12 1315.82,-490.12"/>
<polygon fill="grey" stroke="grey" stroke-width="2" points="1317.54,-487.06 1307.36,-484.14 1313.5,-492.78 1317.54,-487.06"/>
</g>
<!-- 42 -->
<g id="node43" class="node">
<title>42</title>
<path fill="none" stroke="#d8cb56" stroke-width="2" d="M1321,-556C1321,-556 1251,-556 1251,-556 1245,-556 1239,-550 1239,-544 1239,-544 1239,-532 1239,-532 1239,-526 1245,-520 1251,-520 1251,-520 1321,-520 1321,-520 1327,-520 1333,-526 1333,-532 1333,-532 1333,-544 1333,-544 1333,-550 1327,-556 1321,-556"/>
<text text-anchor="middle" x="1286" y="-535.5" font-family="sans" font-size="10.00">samtools_index</text>
</g>
<!-- 41&#45;&gt;42 -->
<g id="edge89" class="edge">
<title>41&#45;&gt;42</title>
<path fill="none" stroke="grey" stroke-width="2" d="M1298.04,-591.7C1296.28,-583.98 1294.16,-574.71 1292.2,-566.11"/>
<polygon fill="grey" stroke="grey" stroke-width="2" points="1295.55,-565.07 1289.91,-556.1 1288.73,-566.63 1295.55,-565.07"/>
</g>
<!-- 42&#45;&gt;32 -->
<g id="edge70" class="edge">
<title>42&#45;&gt;32</title>
<path fill="none" stroke="grey" stroke-width="2" d="M1283.03,-519.7C1281.71,-511.98 1280.12,-502.71 1278.65,-494.11"/>
<polygon fill="grey" stroke="grey" stroke-width="2" points="1282.07,-493.37 1276.93,-484.1 1275.17,-494.55 1282.07,-493.37"/>
</g>
<!-- 43 -->
<g id="node44" class="node">
<title>43</title>
<path fill="none" stroke="#d8bc56" stroke-width="2" d="M928,-628C928,-628 866,-628 866,-628 860,-628 854,-622 854,-616 854,-616 854,-604 854,-604 854,-598 860,-592 866,-592 866,-592 928,-592 928,-592 934,-592 940,-598 940,-604 940,-604 940,-616 940,-616 940,-622 934,-628 928,-628"/>
<text text-anchor="middle" x="897" y="-607.5" font-family="sans" font-size="10.00">samtools_sort</text>
</g>
<!-- 43&#45;&gt;33 -->
<g id="edge71" class="edge">
<title>43&#45;&gt;33</title>
<path fill="none" stroke="grey" stroke-width="2" d="M872.36,-591.86C860.96,-582.58 848.34,-570.14 841,-556 831.07,-536.89 828.07,-512.53 827.41,-494.13"/>
<polygon fill="grey" stroke="grey" stroke-width="2" points="830.91,-494.02 827.26,-484.07 823.91,-494.13 830.91,-494.02"/>
</g>
<!-- 44 -->
<g id="node45" class="node">
<title>44</title>
<path fill="none" stroke="#d8cb56" stroke-width="2" d="M932,-556C932,-556 862,-556 862,-556 856,-556 850,-550 850,-544 850,-544 850,-532 850,-532 850,-526 856,-520 862,-520 862,-520 932,-520 932,-520 938,-520 944,-526 944,-532 944,-532 944,-544 944,-544 944,-550 938,-556 932,-556"/>
<text text-anchor="middle" x="897" y="-535.5" font-family="sans" font-size="10.00">samtools_index</text>
</g>
<!-- 43&#45;&gt;44 -->
<g id="edge91" class="edge">
<title>43&#45;&gt;44</title>
<path fill="none" stroke="grey" stroke-width="2" d="M897,-591.7C897,-583.98 897,-574.71 897,-566.11"/>
<polygon fill="grey" stroke="grey" stroke-width="2" points="900.5,-566.1 897,-556.1 893.5,-566.1 900.5,-566.1"/>
</g>
<!-- 44&#45;&gt;33 -->
<g id="edge73" class="edge">
<title>44&#45;&gt;33</title>
<path fill="none" stroke="grey" stroke-width="2" d="M879.94,-519.7C871.5,-511.14 861.18,-500.66 851.96,-491.3"/>
<polygon fill="grey" stroke="grey" stroke-width="2" points="854.37,-488.77 844.86,-484.1 849.39,-493.68 854.37,-488.77"/>
</g>
<!-- 45&#45;&gt;34 -->
<g id="edge74" class="edge">
<title>45&#45;&gt;34</title>
<path fill="none" stroke="grey" stroke-width="2" d="M1619.45,-807.7C1621.45,-799.9 1623.87,-790.51 1626.1,-781.83"/>
<polygon fill="grey" stroke="grey" stroke-width="2" points="1629.5,-782.66 1628.6,-772.1 1622.72,-780.92 1629.5,-782.66"/>
</g>
<!-- 46&#45;&gt;37 -->
<g id="edge77" class="edge">
<title>46&#45;&gt;37</title>
<path fill="none" stroke="grey" stroke-width="2" d="M1804.34,-735.7C1811.29,-727.3 1819.77,-717.07 1827.4,-707.86"/>
<polygon fill="grey" stroke="grey" stroke-width="2" points="1830.14,-710.04 1833.83,-700.1 1824.75,-705.57 1830.14,-710.04"/>
</g>
<!-- 47&#45;&gt;38 -->
<g id="edge81" class="edge">
<title>47&#45;&gt;38</title>
<path fill="none" stroke="grey" stroke-width="2" d="M382.18,-380.16C406.72,-370.05 441.44,-355.76 470.01,-343.99"/>
<polygon fill="grey" stroke="grey" stroke-width="2" points="471.53,-347.16 479.44,-340.11 468.86,-340.68 471.53,-347.16"/>
</g>
<!-- 47&#45;&gt;39 -->
<g id="edge84" class="edge">
<title>47&#45;&gt;39</title>
<path fill="none" stroke="grey" stroke-width="2" d="M340.62,-375.7C335.74,-367.56 329.81,-357.69 324.42,-348.7"/>
<polygon fill="grey" stroke="grey" stroke-width="2" points="327.41,-346.88 319.26,-340.1 321.41,-350.48 327.41,-346.88"/>
</g>
<!-- 47&#45;&gt;40 -->
<g id="edge87" class="edge">
<title>47&#45;&gt;40</title>
<path fill="none" stroke="grey" stroke-width="2" d="M319.85,-384.42C282.41,-374.1 218.39,-356.45 168.55,-342.72"/>
<polygon fill="grey" stroke="grey" stroke-width="2" points="169.35,-339.31 158.78,-340.03 167.49,-346.06 169.35,-339.31"/>
</g>
<!-- 48&#45;&gt;41 -->
<g id="edge88" class="edge">
<title>48&#45;&gt;41</title>
<path fill="none" stroke="grey" stroke-width="2" d="M1302,-663.7C1302,-655.98 1302,-646.71 1302,-638.11"/>
<polygon fill="grey" stroke="grey" stroke-width="2" points="1305.5,-638.1 1302,-628.1 1298.5,-638.1 1305.5,-638.1"/>
</g>
<!-- 49&#45;&gt;43 -->
<g id="edge90" class="edge">
<title>49&#45;&gt;43</title>
<path fill="none" stroke="grey" stroke-width="2" d="M898.51,-663.7C898.29,-655.98 898.02,-646.71 897.77,-638.11"/>
<polygon fill="grey" stroke="grey" stroke-width="2" points="901.27,-638 897.49,-628.1 894.28,-638.2 901.27,-638"/>
</g>
<!-- 50&#45;&gt;48 -->
<g id="edge97" class="edge">
<title>50&#45;&gt;48</title>
<path fill="none" stroke="grey" stroke-width="2" d="M1314.04,-735.7C1312.28,-727.98 1310.16,-718.71 1308.2,-710.11"/>
<polygon fill="grey" stroke="grey" stroke-width="2" points="1311.55,-709.07 1305.91,-700.1 1304.73,-710.63 1311.55,-709.07"/>
</g>
<!-- 51&#45;&gt;49 -->
<g id="edge99" class="edge">
<title>51&#45;&gt;49</title>
<path fill="none" stroke="grey" stroke-width="2" d="M1001.73,-735.88C983.54,-726.51 960.81,-714.81 941.36,-704.8"/>
<polygon fill="grey" stroke="grey" stroke-width="2" points="942.89,-701.65 932.4,-700.19 939.69,-707.88 942.89,-701.65"/>
</g>
</g>
</svg>
