<?xml version="1.0" encoding="UTF-8" standalone="no"?>
<!DOCTYPE svg PUBLIC "-//W3C//DTD SVG 1.1//EN"
 "http://www.w3.org/Graphics/SVG/1.1/DTD/svg11.dtd">
<!-- Generated by graphviz version 2.43.0 (0)
 -->
<!-- Title: snakemake_dag Pages: 1 -->
<svg width="1479pt" height="625pt"
 viewBox="0.00 0.00 1479.43 625.00" xmlns="http://www.w3.org/2000/svg" xmlns:xlink="http://www.w3.org/1999/xlink">
<g id="graph0" class="graph" transform="scale(1 1) rotate(0) translate(4 621)">
<title>snakemake_dag</title>
<polygon fill="white" stroke="transparent" points="-4,4 -4,-621 1475.43,-621 1475.43,4 -4,4"/>
<!-- 0 -->
<g id="node1" class="node">
<title>0</title>
<path fill="none" stroke="#56a2d8" stroke-width="2" d="M905,-36C905,-36 875,-36 875,-36 869,-36 863,-30 863,-24 863,-24 863,-12 863,-12 863,-6 869,0 875,0 875,0 905,0 905,0 911,0 917,-6 917,-12 917,-12 917,-24 917,-24 917,-30 911,-36 905,-36"/>
<text text-anchor="middle" x="890" y="-15.5" font-family="sans" font-size="10.00">all</text>
</g>
<!-- 1 -->
<g id="node2" class="node">
<title>1</title>
<path fill="none" stroke="#d86e56" stroke-width="2" d="M171,-473C171,-473 141,-473 141,-473 135,-473 129,-467 129,-461 129,-461 129,-449 129,-449 129,-443 135,-437 141,-437 141,-437 171,-437 171,-437 177,-437 183,-443 183,-449 183,-449 183,-461 183,-461 183,-467 177,-473 171,-473"/>
<text text-anchor="middle" x="156" y="-452.5" font-family="sans" font-size="10.00">multiqc</text>
</g>
<!-- 1&#45;&gt;0 -->
<g id="edge1" class="edge">
<title>1&#45;&gt;0</title>
<path fill="none" stroke="grey" stroke-width="2" d="M160.05,-436.62C165.89,-409.97 176,-357.31 176,-312 176,-312 176,-312 176,-163.5 176,-116.28 189.96,-97.04 230,-72 282.9,-38.91 720.82,-23.83 852.61,-20.01"/>
<polygon fill="grey" stroke="grey" stroke-width="2" points="852.74,-23.5 862.63,-19.72 852.54,-16.51 852.74,-23.5"/>
</g>
<!-- 2 -->
<g id="node3" class="node">
<title>2</title>
<path fill="none" stroke="#d8a456" stroke-width="2" d="M628.5,-257C628.5,-257 533.5,-257 533.5,-257 527.5,-257 521.5,-251 521.5,-245 521.5,-245 521.5,-233 521.5,-233 521.5,-227 527.5,-221 533.5,-221 533.5,-221 628.5,-221 628.5,-221 634.5,-221 640.5,-227 640.5,-233 640.5,-233 640.5,-245 640.5,-245 640.5,-251 634.5,-257 628.5,-257"/>
<text text-anchor="middle" x="581" y="-236.5" font-family="sans" font-size="10.00">gatk_markduplicates</text>
</g>
<!-- 2&#45;&gt;0 -->
<g id="edge2" class="edge">
<title>2&#45;&gt;0</title>
<path fill="none" stroke="grey" stroke-width="2" d="M595.15,-220.72C626.58,-182.69 702.04,-93.42 735,-72 771.47,-48.3 819.69,-34 852.6,-26.33"/>
<polygon fill="grey" stroke="grey" stroke-width="2" points="853.72,-29.67 862.71,-24.07 852.19,-22.84 853.72,-29.67"/>
</g>
<!-- 3 -->
<g id="node4" class="node">
<title>3</title>
<path fill="none" stroke="#a7d856" stroke-width="2" d="M468.5,-108C468.5,-108 385.5,-108 385.5,-108 379.5,-108 373.5,-102 373.5,-96 373.5,-96 373.5,-84 373.5,-84 373.5,-78 379.5,-72 385.5,-72 385.5,-72 468.5,-72 468.5,-72 474.5,-72 480.5,-78 480.5,-84 480.5,-84 480.5,-96 480.5,-96 480.5,-102 474.5,-108 468.5,-108"/>
<text text-anchor="middle" x="427" y="-93" font-family="sans" font-size="10.00">samtools_index</text>
<text text-anchor="middle" x="427" y="-82" font-family="sans" font-size="10.00">sample: base1.md</text>
</g>
<!-- 2&#45;&gt;3 -->
<g id="edge22" class="edge">
<title>2&#45;&gt;3</title>
<path fill="none" stroke="grey" stroke-width="2" d="M564.91,-220.98C546.65,-201.85 515.8,-170.06 488,-144 477.48,-134.14 465.57,-123.65 455.09,-114.63"/>
<polygon fill="grey" stroke="grey" stroke-width="2" points="457.27,-111.89 447.39,-108.05 452.72,-117.21 457.27,-111.89"/>
</g>
<!-- 4 -->
<g id="node5" class="node">
<title>4</title>
<path fill="none" stroke="#70d856" stroke-width="2" d="M577.5,-108C577.5,-108 510.5,-108 510.5,-108 504.5,-108 498.5,-102 498.5,-96 498.5,-96 498.5,-84 498.5,-84 498.5,-78 504.5,-72 510.5,-72 510.5,-72 577.5,-72 577.5,-72 583.5,-72 589.5,-78 589.5,-84 589.5,-84 589.5,-96 589.5,-96 589.5,-102 583.5,-108 577.5,-108"/>
<text text-anchor="middle" x="544" y="-87.5" font-family="sans" font-size="10.00">samtools_stats</text>
</g>
<!-- 2&#45;&gt;4 -->
<g id="edge23" class="edge">
<title>2&#45;&gt;4</title>
<path fill="none" stroke="grey" stroke-width="2" d="M576.68,-220.85C570.31,-195.51 558.31,-147.85 550.76,-117.85"/>
<polygon fill="grey" stroke="grey" stroke-width="2" points="554.12,-116.88 548.29,-108.04 547.34,-118.59 554.12,-116.88"/>
</g>
<!-- 5 -->
<g id="node6" class="node">
<title>5</title>
<path fill="none" stroke="#bed856" stroke-width="2" d="M658,-108C658,-108 620,-108 620,-108 614,-108 608,-102 608,-96 608,-96 608,-84 608,-84 608,-78 614,-72 620,-72 620,-72 658,-72 658,-72 664,-72 670,-78 670,-84 670,-84 670,-96 670,-96 670,-102 664,-108 658,-108"/>
<text text-anchor="middle" x="639" y="-87.5" font-family="sans" font-size="10.00">qualimap</text>
</g>
<!-- 2&#45;&gt;5 -->
<g id="edge24" class="edge">
<title>2&#45;&gt;5</title>
<path fill="none" stroke="grey" stroke-width="2" d="M587.77,-220.85C597.81,-195.4 616.74,-147.43 628.56,-117.46"/>
<polygon fill="grey" stroke="grey" stroke-width="2" points="631.86,-118.63 632.28,-108.04 625.35,-116.06 631.86,-118.63"/>
</g>
<!-- 11 -->
<g id="node12" class="node">
<title>11</title>
<path fill="none" stroke="#56d8d8" stroke-width="2" d="M781,-182.5C781,-182.5 691,-182.5 691,-182.5 685,-182.5 679,-176.5 679,-170.5 679,-170.5 679,-158.5 679,-158.5 679,-152.5 685,-146.5 691,-146.5 691,-146.5 781,-146.5 781,-146.5 787,-146.5 793,-152.5 793,-158.5 793,-158.5 793,-170.5 793,-170.5 793,-176.5 787,-182.5 781,-182.5"/>
<text text-anchor="middle" x="736" y="-162" font-family="sans" font-size="10.00">freebayes_germline</text>
</g>
<!-- 2&#45;&gt;11 -->
<g id="edge35" class="edge">
<title>2&#45;&gt;11</title>
<path fill="none" stroke="grey" stroke-width="2" d="M617.73,-220.82C639.45,-210.66 667.14,-197.71 690.26,-186.89"/>
<polygon fill="grey" stroke="grey" stroke-width="2" points="691.96,-189.97 699.53,-182.56 688.99,-183.62 691.96,-189.97"/>
</g>
<!-- 12 -->
<g id="node13" class="node">
<title>12</title>
<path fill="none" stroke="#d85656" stroke-width="2" d="M947,-185C947,-185 861,-185 861,-185 855,-185 849,-179 849,-173 849,-173 849,-156 849,-156 849,-150 855,-144 861,-144 861,-144 947,-144 947,-144 953,-144 959,-150 959,-156 959,-156 959,-173 959,-173 959,-179 953,-185 947,-185"/>
<text text-anchor="middle" x="904" y="-173" font-family="sans" font-size="10.00">freebayes_somatic</text>
<text text-anchor="middle" x="904" y="-162" font-family="sans" font-size="10.00">base: base1</text>
<text text-anchor="middle" x="904" y="-151" font-family="sans" font-size="10.00">mutated: mutated</text>
</g>
<!-- 2&#45;&gt;12 -->
<g id="edge40" class="edge">
<title>2&#45;&gt;12</title>
<path fill="none" stroke="grey" stroke-width="2" d="M640.62,-224.62C696.88,-211.99 781.02,-193.1 838.98,-180.09"/>
<polygon fill="grey" stroke="grey" stroke-width="2" points="839.78,-183.5 848.77,-177.9 838.25,-176.67 839.78,-183.5"/>
</g>
<!-- 13 -->
<g id="node14" class="node">
<title>13</title>
<path fill="none" stroke="#5673d8" stroke-width="2" d="M1116.5,-185C1116.5,-185 1035.5,-185 1035.5,-185 1029.5,-185 1023.5,-179 1023.5,-173 1023.5,-173 1023.5,-156 1023.5,-156 1023.5,-150 1029.5,-144 1035.5,-144 1035.5,-144 1116.5,-144 1116.5,-144 1122.5,-144 1128.5,-150 1128.5,-156 1128.5,-156 1128.5,-173 1128.5,-173 1128.5,-179 1122.5,-185 1116.5,-185"/>
<text text-anchor="middle" x="1076" y="-173" font-family="sans" font-size="10.00">gatk_mutect2</text>
<text text-anchor="middle" x="1076" y="-162" font-family="sans" font-size="10.00">base: base1</text>
<text text-anchor="middle" x="1076" y="-151" font-family="sans" font-size="10.00">mutated: mutated</text>
</g>
<!-- 2&#45;&gt;13 -->
<g id="edge46" class="edge">
<title>2&#45;&gt;13</title>
<path fill="none" stroke="grey" stroke-width="2" d="M640.78,-230.61C716.92,-221.02 852.47,-203.33 968,-185 982.68,-182.67 998.44,-179.95 1013.26,-177.29"/>
<polygon fill="grey" stroke="grey" stroke-width="2" points="1014.12,-180.69 1023.34,-175.47 1012.88,-173.81 1014.12,-180.69"/>
</g>
<!-- 24 -->
<g id="node25" class="node">
<title>24</title>
<path fill="none" stroke="#d8bc56" stroke-width="2" d="M433.5,-182.5C433.5,-182.5 338.5,-182.5 338.5,-182.5 332.5,-182.5 326.5,-176.5 326.5,-170.5 326.5,-170.5 326.5,-158.5 326.5,-158.5 326.5,-152.5 332.5,-146.5 338.5,-146.5 338.5,-146.5 433.5,-146.5 433.5,-146.5 439.5,-146.5 445.5,-152.5 445.5,-158.5 445.5,-158.5 445.5,-170.5 445.5,-170.5 445.5,-176.5 439.5,-182.5 433.5,-182.5"/>
<text text-anchor="middle" x="386" y="-162" font-family="sans" font-size="10.00">gatk_haplotypecaller</text>
</g>
<!-- 2&#45;&gt;24 -->
<g id="edge62" class="edge">
<title>2&#45;&gt;24</title>
<path fill="none" stroke="grey" stroke-width="2" d="M534.79,-220.82C506.86,-210.44 471.08,-197.13 441.61,-186.18"/>
<polygon fill="grey" stroke="grey" stroke-width="2" points="442.47,-182.76 431.88,-182.56 440.03,-189.32 442.47,-182.76"/>
</g>
<!-- 3&#45;&gt;0 -->
<g id="edge3" class="edge">
<title>3&#45;&gt;0</title>
<path fill="none" stroke="grey" stroke-width="2" d="M480.5,-74.05C483.71,-73.31 486.89,-72.62 490,-72 621.97,-45.57 781.17,-28.96 852.38,-22.32"/>
<polygon fill="grey" stroke="grey" stroke-width="2" points="853,-25.77 862.64,-21.37 852.36,-18.8 853,-25.77"/>
</g>
<!-- 4&#45;&gt;0 -->
<g id="edge4" class="edge">
<title>4&#45;&gt;0</title>
<path fill="none" stroke="grey" stroke-width="2" d="M589.5,-74.48C592.7,-73.6 595.89,-72.76 599,-72 689.21,-49.93 797.18,-32.59 852.81,-24.31"/>
<polygon fill="grey" stroke="grey" stroke-width="2" points="853.51,-27.75 862.89,-22.83 852.49,-20.82 853.51,-27.75"/>
</g>
<!-- 5&#45;&gt;0 -->
<g id="edge5" class="edge">
<title>5&#45;&gt;0</title>
<path fill="none" stroke="grey" stroke-width="2" d="M670.32,-76.67C674.88,-75.02 679.54,-73.41 684,-72 742.26,-53.56 811.27,-36.82 852.8,-27.28"/>
<polygon fill="grey" stroke="grey" stroke-width="2" points="853.77,-30.65 862.74,-25.01 852.21,-23.82 853.77,-30.65"/>
</g>
<!-- 6 -->
<g id="node7" class="node">
<title>6</title>
<path fill="none" stroke="#d8a456" stroke-width="2" d="M1344.5,-257C1344.5,-257 1249.5,-257 1249.5,-257 1243.5,-257 1237.5,-251 1237.5,-245 1237.5,-245 1237.5,-233 1237.5,-233 1237.5,-227 1243.5,-221 1249.5,-221 1249.5,-221 1344.5,-221 1344.5,-221 1350.5,-221 1356.5,-227 1356.5,-233 1356.5,-233 1356.5,-245 1356.5,-245 1356.5,-251 1350.5,-257 1344.5,-257"/>
<text text-anchor="middle" x="1297" y="-236.5" font-family="sans" font-size="10.00">gatk_markduplicates</text>
</g>
<!-- 6&#45;&gt;0 -->
<g id="edge6" class="edge">
<title>6&#45;&gt;0</title>
<path fill="none" stroke="grey" stroke-width="2" d="M1356.58,-235.99C1393.96,-231.26 1439.57,-218.38 1464,-185 1474.76,-170.29 1472.7,-160.01 1464,-144 1435.93,-92.33 1408.34,-91.87 1353,-72 1274.56,-43.84 1022.49,-26.68 927.07,-21.05"/>
<polygon fill="grey" stroke="grey" stroke-width="2" points="927.21,-17.55 917.02,-20.47 926.8,-24.54 927.21,-17.55"/>
</g>
<!-- 7 -->
<g id="node8" class="node">
<title>7</title>
<path fill="none" stroke="#a7d856" stroke-width="2" d="M1253.5,-182.5C1253.5,-182.5 1158.5,-182.5 1158.5,-182.5 1152.5,-182.5 1146.5,-176.5 1146.5,-170.5 1146.5,-170.5 1146.5,-158.5 1146.5,-158.5 1146.5,-152.5 1152.5,-146.5 1158.5,-146.5 1158.5,-146.5 1253.5,-146.5 1253.5,-146.5 1259.5,-146.5 1265.5,-152.5 1265.5,-158.5 1265.5,-158.5 1265.5,-170.5 1265.5,-170.5 1265.5,-176.5 1259.5,-182.5 1253.5,-182.5"/>
<text text-anchor="middle" x="1206" y="-167.5" font-family="sans" font-size="10.00">samtools_index</text>
<text text-anchor="middle" x="1206" y="-156.5" font-family="sans" font-size="10.00">sample: mutated.md</text>
</g>
<!-- 6&#45;&gt;7 -->
<g id="edge27" class="edge">
<title>6&#45;&gt;7</title>
<path fill="none" stroke="grey" stroke-width="2" d="M1275.43,-220.82C1263.42,-211.25 1248.3,-199.2 1235.23,-188.79"/>
<polygon fill="grey" stroke="grey" stroke-width="2" points="1237.41,-186.05 1227.41,-182.56 1233.05,-191.53 1237.41,-186.05"/>
</g>
<!-- 8 -->
<g id="node9" class="node">
<title>8</title>
<path fill="none" stroke="#70d856" stroke-width="2" d="M1362.5,-182.5C1362.5,-182.5 1295.5,-182.5 1295.5,-182.5 1289.5,-182.5 1283.5,-176.5 1283.5,-170.5 1283.5,-170.5 1283.5,-158.5 1283.5,-158.5 1283.5,-152.5 1289.5,-146.5 1295.5,-146.5 1295.5,-146.5 1362.5,-146.5 1362.5,-146.5 1368.5,-146.5 1374.5,-152.5 1374.5,-158.5 1374.5,-158.5 1374.5,-170.5 1374.5,-170.5 1374.5,-176.5 1368.5,-182.5 1362.5,-182.5"/>
<text text-anchor="middle" x="1329" y="-162" font-family="sans" font-size="10.00">samtools_stats</text>
</g>
<!-- 6&#45;&gt;8 -->
<g id="edge28" class="edge">
<title>6&#45;&gt;8</title>
<path fill="none" stroke="grey" stroke-width="2" d="M1304.58,-220.82C1308.41,-212.15 1313.13,-201.45 1317.4,-191.78"/>
<polygon fill="grey" stroke="grey" stroke-width="2" points="1320.63,-193.12 1321.47,-182.56 1314.23,-190.29 1320.63,-193.12"/>
</g>
<!-- 9 -->
<g id="node10" class="node">
<title>9</title>
<path fill="none" stroke="#bed856" stroke-width="2" d="M1443,-182.5C1443,-182.5 1405,-182.5 1405,-182.5 1399,-182.5 1393,-176.5 1393,-170.5 1393,-170.5 1393,-158.5 1393,-158.5 1393,-152.5 1399,-146.5 1405,-146.5 1405,-146.5 1443,-146.5 1443,-146.5 1449,-146.5 1455,-152.5 1455,-158.5 1455,-158.5 1455,-170.5 1455,-170.5 1455,-176.5 1449,-182.5 1443,-182.5"/>
<text text-anchor="middle" x="1424" y="-162" font-family="sans" font-size="10.00">qualimap</text>
</g>
<!-- 6&#45;&gt;9 -->
<g id="edge29" class="edge">
<title>6&#45;&gt;9</title>
<path fill="none" stroke="grey" stroke-width="2" d="M1327.1,-220.82C1344.5,-210.89 1366.57,-198.29 1385.25,-187.62"/>
<polygon fill="grey" stroke="grey" stroke-width="2" points="1387.17,-190.56 1394.12,-182.56 1383.7,-184.48 1387.17,-190.56"/>
</g>
<!-- 6&#45;&gt;12 -->
<g id="edge41" class="edge">
<title>6&#45;&gt;12</title>
<path fill="none" stroke="grey" stroke-width="2" d="M1237.31,-226.99C1165.12,-213.67 1044.03,-191.33 969.38,-177.56"/>
<polygon fill="grey" stroke="grey" stroke-width="2" points="969.63,-174.05 959.16,-175.68 968.36,-180.93 969.63,-174.05"/>
</g>
<!-- 6&#45;&gt;13 -->
<g id="edge47" class="edge">
<title>6&#45;&gt;13</title>
<path fill="none" stroke="grey" stroke-width="2" d="M1244.91,-220.91C1212.97,-210.43 1171.89,-196.96 1138.24,-185.92"/>
<polygon fill="grey" stroke="grey" stroke-width="2" points="1139.1,-182.52 1128.51,-182.73 1136.92,-189.17 1139.1,-182.52"/>
</g>
<!-- 7&#45;&gt;0 -->
<g id="edge7" class="edge">
<title>7&#45;&gt;0</title>
<path fill="none" stroke="grey" stroke-width="2" d="M1231.03,-146.39C1255.97,-127.29 1287.79,-95.92 1267,-72 1223.19,-21.6 1013.65,-17.74 927.31,-18.36"/>
<polygon fill="grey" stroke="grey" stroke-width="2" points="927.14,-14.86 917.17,-18.45 927.2,-21.86 927.14,-14.86"/>
</g>
<!-- 8&#45;&gt;0 -->
<g id="edge8" class="edge">
<title>8&#45;&gt;0</title>
<path fill="none" stroke="grey" stroke-width="2" d="M1325.63,-146.15C1320.53,-124.98 1308.72,-89.78 1284,-72 1227.33,-31.22 1014.16,-21.8 927.24,-19.64"/>
<polygon fill="grey" stroke="grey" stroke-width="2" points="927.12,-16.13 917.04,-19.4 926.96,-23.13 927.12,-16.13"/>
</g>
<!-- 9&#45;&gt;0 -->
<g id="edge9" class="edge">
<title>9&#45;&gt;0</title>
<path fill="none" stroke="grey" stroke-width="2" d="M1408.74,-146.28C1388.65,-124.89 1351.17,-89.12 1311,-72 1242.07,-42.62 1016.81,-26.46 927.23,-21.07"/>
<polygon fill="grey" stroke="grey" stroke-width="2" points="927.43,-17.57 917.24,-20.48 927.02,-24.56 927.43,-17.57"/>
</g>
<!-- 10 -->
<g id="node11" class="node">
<title>10</title>
<path fill="none" stroke="#56d8a2" stroke-width="2" d="M343,-108C343,-108 251,-108 251,-108 245,-108 239,-102 239,-96 239,-96 239,-84 239,-84 239,-78 245,-72 251,-72 251,-72 343,-72 343,-72 349,-72 355,-78 355,-84 355,-84 355,-96 355,-96 355,-102 349,-108 343,-108"/>
<text text-anchor="middle" x="297" y="-87.5" font-family="sans" font-size="10.00">gatk_genotypegvcfs</text>
</g>
<!-- 10&#45;&gt;0 -->
<g id="edge10" class="edge">
<title>10&#45;&gt;0</title>
<path fill="none" stroke="grey" stroke-width="2" d="M355.12,-73.88C358.45,-73.2 361.76,-72.56 365,-72 546.28,-40.36 766.31,-25.74 852.67,-20.91"/>
<polygon fill="grey" stroke="grey" stroke-width="2" points="852.97,-24.4 862.76,-20.36 852.59,-17.41 852.97,-24.4"/>
</g>
<!-- 11&#45;&gt;0 -->
<g id="edge11" class="edge">
<title>11&#45;&gt;0</title>
<path fill="none" stroke="grey" stroke-width="2" d="M734.97,-146.24C734.7,-126.12 737.32,-92.96 755,-72 779.5,-42.95 822.04,-29.73 852.83,-23.77"/>
<polygon fill="grey" stroke="grey" stroke-width="2" points="853.54,-27.2 862.78,-22.02 852.32,-20.31 853.54,-27.2"/>
</g>
<!-- 12&#45;&gt;0 -->
<g id="edge12" class="edge">
<title>12&#45;&gt;0</title>
<path fill="none" stroke="grey" stroke-width="2" d="M902.08,-143.71C899.64,-118.49 895.4,-74.76 892.65,-46.36"/>
<polygon fill="grey" stroke="grey" stroke-width="2" points="896.12,-45.91 891.68,-36.3 889.16,-46.59 896.12,-45.91"/>
</g>
<!-- 14 -->
<g id="node15" class="node">
<title>14</title>
<path fill="none" stroke="#56d88a" stroke-width="2" d="M1004,-108C1004,-108 930,-108 930,-108 924,-108 918,-102 918,-96 918,-96 918,-84 918,-84 918,-78 924,-72 930,-72 930,-72 1004,-72 1004,-72 1010,-72 1016,-78 1016,-84 1016,-84 1016,-96 1016,-96 1016,-102 1010,-108 1004,-108"/>
<text text-anchor="middle" x="967" y="-93" font-family="sans" font-size="10.00">bcftools_stats</text>
<text text-anchor="middle" x="967" y="-82" font-family="sans" font-size="10.00">caller: freebayes</text>
</g>
<!-- 12&#45;&gt;14 -->
<g id="edge52" class="edge">
<title>12&#45;&gt;14</title>
<path fill="none" stroke="grey" stroke-width="2" d="M921.22,-143.69C928.65,-135.13 937.44,-125.02 945.32,-115.95"/>
<polygon fill="grey" stroke="grey" stroke-width="2" points="948.03,-118.16 951.95,-108.32 942.75,-113.57 948.03,-118.16"/>
</g>
<!-- 15 -->
<g id="node16" class="node">
<title>15</title>
<path fill="none" stroke="#59d856" stroke-width="2" d="M850,-108C850,-108 776,-108 776,-108 770,-108 764,-102 764,-96 764,-96 764,-84 764,-84 764,-78 770,-72 776,-72 776,-72 850,-72 850,-72 856,-72 862,-78 862,-84 862,-84 862,-96 862,-96 862,-102 856,-108 850,-108"/>
<text text-anchor="middle" x="813" y="-93" font-family="sans" font-size="10.00">vcftools_stats</text>
<text text-anchor="middle" x="813" y="-82" font-family="sans" font-size="10.00">caller: freebayes</text>
</g>
<!-- 12&#45;&gt;15 -->
<g id="edge53" class="edge">
<title>12&#45;&gt;15</title>
<path fill="none" stroke="grey" stroke-width="2" d="M879.13,-143.69C867.76,-134.63 854.2,-123.83 842.34,-114.37"/>
<polygon fill="grey" stroke="grey" stroke-width="2" points="844.44,-111.57 834.44,-108.08 840.08,-117.05 844.44,-111.57"/>
</g>
<!-- 13&#45;&gt;0 -->
<g id="edge13" class="edge">
<title>13&#45;&gt;0</title>
<path fill="none" stroke="grey" stroke-width="2" d="M1100.2,-143.77C1121.03,-124.4 1145.08,-94.57 1127,-72 1102.44,-41.35 988.1,-27.24 927.67,-21.83"/>
<polygon fill="grey" stroke="grey" stroke-width="2" points="927.66,-18.32 917.39,-20.95 927.06,-25.29 927.66,-18.32"/>
</g>
<!-- 16 -->
<g id="node17" class="node">
<title>16</title>
<path fill="none" stroke="#56d88a" stroke-width="2" d="M1246,-108C1246,-108 1186,-108 1186,-108 1180,-108 1174,-102 1174,-96 1174,-96 1174,-84 1174,-84 1174,-78 1180,-72 1186,-72 1186,-72 1246,-72 1246,-72 1252,-72 1258,-78 1258,-84 1258,-84 1258,-96 1258,-96 1258,-102 1252,-108 1246,-108"/>
<text text-anchor="middle" x="1216" y="-93" font-family="sans" font-size="10.00">bcftools_stats</text>
<text text-anchor="middle" x="1216" y="-82" font-family="sans" font-size="10.00">caller: gatk</text>
</g>
<!-- 13&#45;&gt;16 -->
<g id="edge54" class="edge">
<title>13&#45;&gt;16</title>
<path fill="none" stroke="grey" stroke-width="2" d="M1113.89,-143.88C1132.4,-134.29 1154.73,-122.73 1173.79,-112.86"/>
<polygon fill="grey" stroke="grey" stroke-width="2" points="1175.58,-115.87 1182.85,-108.17 1172.36,-109.66 1175.58,-115.87"/>
</g>
<!-- 17 -->
<g id="node18" class="node">
<title>17</title>
<path fill="none" stroke="#59d856" stroke-width="2" d="M1106,-108C1106,-108 1046,-108 1046,-108 1040,-108 1034,-102 1034,-96 1034,-96 1034,-84 1034,-84 1034,-78 1040,-72 1046,-72 1046,-72 1106,-72 1106,-72 1112,-72 1118,-78 1118,-84 1118,-84 1118,-96 1118,-96 1118,-102 1112,-108 1106,-108"/>
<text text-anchor="middle" x="1076" y="-93" font-family="sans" font-size="10.00">vcftools_stats</text>
<text text-anchor="middle" x="1076" y="-82" font-family="sans" font-size="10.00">caller: gatk</text>
</g>
<!-- 13&#45;&gt;17 -->
<g id="edge55" class="edge">
<title>13&#45;&gt;17</title>
<path fill="none" stroke="grey" stroke-width="2" d="M1076,-143.69C1076,-135.91 1076,-126.84 1076,-118.45"/>
<polygon fill="grey" stroke="grey" stroke-width="2" points="1079.5,-118.32 1076,-108.32 1072.5,-118.32 1079.5,-118.32"/>
</g>
<!-- 14&#45;&gt;0 -->
<g id="edge14" class="edge">
<title>14&#45;&gt;0</title>
<path fill="none" stroke="grey" stroke-width="2" d="M947.97,-71.7C938.46,-63.05 926.79,-52.45 916.43,-43.03"/>
<polygon fill="grey" stroke="grey" stroke-width="2" points="918.57,-40.24 908.81,-36.1 913.86,-45.42 918.57,-40.24"/>
</g>
<!-- 15&#45;&gt;0 -->
<g id="edge15" class="edge">
<title>15&#45;&gt;0</title>
<path fill="none" stroke="grey" stroke-width="2" d="M832.03,-71.7C841.54,-63.05 853.21,-52.45 863.57,-43.03"/>
<polygon fill="grey" stroke="grey" stroke-width="2" points="866.14,-45.42 871.19,-36.1 861.43,-40.24 866.14,-45.42"/>
</g>
<!-- 16&#45;&gt;0 -->
<g id="edge16" class="edge">
<title>16&#45;&gt;0</title>
<path fill="none" stroke="grey" stroke-width="2" d="M1173.93,-75.73C1169.25,-74.4 1164.53,-73.13 1160,-72 1077.61,-51.46 979.46,-33.89 927.16,-25.07"/>
<polygon fill="grey" stroke="grey" stroke-width="2" points="927.46,-21.57 917.02,-23.37 926.31,-28.48 927.46,-21.57"/>
</g>
<!-- 17&#45;&gt;0 -->
<g id="edge17" class="edge">
<title>17&#45;&gt;0</title>
<path fill="none" stroke="grey" stroke-width="2" d="M1033.79,-73.12C1001.49,-60.96 957.39,-44.36 926.58,-32.77"/>
<polygon fill="grey" stroke="grey" stroke-width="2" points="927.67,-29.44 917.07,-29.19 925.2,-35.99 927.67,-29.44"/>
</g>
<!-- 18 -->
<g id="node19" class="node">
<title>18</title>
<path fill="none" stroke="#88d856" stroke-width="2" d="M76,-545C76,-545 12,-545 12,-545 6,-545 0,-539 0,-533 0,-533 0,-521 0,-521 0,-515 6,-509 12,-509 12,-509 76,-509 76,-509 82,-509 88,-515 88,-521 88,-521 88,-533 88,-533 88,-539 82,-545 76,-545"/>
<text text-anchor="middle" x="44" y="-530" font-family="sans" font-size="10.00">fastqc</text>
<text text-anchor="middle" x="44" y="-519" font-family="sans" font-size="10.00">sample: base1</text>
</g>
<!-- 18&#45;&gt;1 -->
<g id="edge18" class="edge">
<title>18&#45;&gt;1</title>
<path fill="none" stroke="grey" stroke-width="2" d="M71.4,-508.88C86.15,-499.66 104.53,-488.17 120.38,-478.26"/>
<polygon fill="grey" stroke="grey" stroke-width="2" points="122.26,-481.22 128.88,-472.95 118.55,-475.28 122.26,-481.22"/>
</g>
<!-- 19 -->
<g id="node20" class="node">
<title>19</title>
<path fill="none" stroke="#88d856" stroke-width="2" d="M194,-545C194,-545 118,-545 118,-545 112,-545 106,-539 106,-533 106,-533 106,-521 106,-521 106,-515 112,-509 118,-509 118,-509 194,-509 194,-509 200,-509 206,-515 206,-521 206,-521 206,-533 206,-533 206,-539 200,-545 194,-545"/>
<text text-anchor="middle" x="156" y="-530" font-family="sans" font-size="10.00">fastqc</text>
<text text-anchor="middle" x="156" y="-519" font-family="sans" font-size="10.00">sample: mutated</text>
</g>
<!-- 19&#45;&gt;1 -->
<g id="edge19" class="edge">
<title>19&#45;&gt;1</title>
<path fill="none" stroke="grey" stroke-width="2" d="M156,-508.7C156,-500.98 156,-491.71 156,-483.11"/>
<polygon fill="grey" stroke="grey" stroke-width="2" points="159.5,-483.1 156,-473.1 152.5,-483.1 159.5,-483.1"/>
</g>
<!-- 20 -->
<g id="node21" class="node">
<title>20</title>
<path fill="none" stroke="#56d8c1" stroke-width="2" d="M583,-401C583,-401 521,-401 521,-401 515,-401 509,-395 509,-389 509,-389 509,-377 509,-377 509,-371 515,-365 521,-365 521,-365 583,-365 583,-365 589,-365 595,-371 595,-377 595,-377 595,-389 595,-389 595,-395 589,-401 583,-401"/>
<text text-anchor="middle" x="552" y="-380.5" font-family="sans" font-size="10.00">samtools_sort</text>
</g>
<!-- 20&#45;&gt;2 -->
<g id="edge20" class="edge">
<title>20&#45;&gt;2</title>
<path fill="none" stroke="grey" stroke-width="2" d="M544.43,-364.81C537.48,-346.54 529.48,-317.03 538,-293 541.66,-282.68 548.29,-272.9 555.26,-264.61"/>
<polygon fill="grey" stroke="grey" stroke-width="2" points="557.87,-266.94 561.96,-257.16 552.67,-262.26 557.87,-266.94"/>
</g>
<!-- 21 -->
<g id="node22" class="node">
<title>21</title>
<path fill="none" stroke="#a7d856" stroke-width="2" d="M629,-329C629,-329 559,-329 559,-329 553,-329 547,-323 547,-317 547,-317 547,-305 547,-305 547,-299 553,-293 559,-293 559,-293 629,-293 629,-293 635,-293 641,-299 641,-305 641,-305 641,-317 641,-317 641,-323 635,-329 629,-329"/>
<text text-anchor="middle" x="594" y="-308.5" font-family="sans" font-size="10.00">samtools_index</text>
</g>
<!-- 20&#45;&gt;21 -->
<g id="edge59" class="edge">
<title>20&#45;&gt;21</title>
<path fill="none" stroke="grey" stroke-width="2" d="M562.38,-364.7C567.26,-356.56 573.19,-346.69 578.58,-337.7"/>
<polygon fill="grey" stroke="grey" stroke-width="2" points="581.59,-339.48 583.74,-329.1 575.59,-335.88 581.59,-339.48"/>
</g>
<!-- 21&#45;&gt;2 -->
<g id="edge21" class="edge">
<title>21&#45;&gt;2</title>
<path fill="none" stroke="grey" stroke-width="2" d="M590.79,-292.7C589.35,-284.98 587.63,-275.71 586.04,-267.11"/>
<polygon fill="grey" stroke="grey" stroke-width="2" points="589.44,-266.3 584.18,-257.1 582.56,-267.58 589.44,-266.3"/>
</g>
<!-- 22 -->
<g id="node23" class="node">
<title>22</title>
<path fill="none" stroke="#56d8c1" stroke-width="2" d="M1282,-401C1282,-401 1220,-401 1220,-401 1214,-401 1208,-395 1208,-389 1208,-389 1208,-377 1208,-377 1208,-371 1214,-365 1220,-365 1220,-365 1282,-365 1282,-365 1288,-365 1294,-371 1294,-377 1294,-377 1294,-389 1294,-389 1294,-395 1288,-401 1282,-401"/>
<text text-anchor="middle" x="1251" y="-380.5" font-family="sans" font-size="10.00">samtools_sort</text>
</g>
<!-- 22&#45;&gt;6 -->
<g id="edge25" class="edge">
<title>22&#45;&gt;6</title>
<path fill="none" stroke="grey" stroke-width="2" d="M1249.03,-364.99C1247.57,-346.62 1247.12,-316.78 1256,-293 1259.72,-283.03 1266.02,-273.41 1272.58,-265.17"/>
<polygon fill="grey" stroke="grey" stroke-width="2" points="1275.35,-267.33 1279.14,-257.43 1270,-262.8 1275.35,-267.33"/>
</g>
<!-- 23 -->
<g id="node24" class="node">
<title>23</title>
<path fill="none" stroke="#a7d856" stroke-width="2" d="M1347,-329C1347,-329 1277,-329 1277,-329 1271,-329 1265,-323 1265,-317 1265,-317 1265,-305 1265,-305 1265,-299 1271,-293 1277,-293 1277,-293 1347,-293 1347,-293 1353,-293 1359,-299 1359,-305 1359,-305 1359,-317 1359,-317 1359,-323 1353,-329 1347,-329"/>
<text text-anchor="middle" x="1312" y="-308.5" font-family="sans" font-size="10.00">samtools_index</text>
</g>
<!-- 22&#45;&gt;23 -->
<g id="edge61" class="edge">
<title>22&#45;&gt;23</title>
<path fill="none" stroke="grey" stroke-width="2" d="M1266.08,-364.7C1273.39,-356.3 1282.31,-346.07 1290.34,-336.86"/>
<polygon fill="grey" stroke="grey" stroke-width="2" points="1293.16,-338.94 1297.09,-329.1 1287.89,-334.34 1293.16,-338.94"/>
</g>
<!-- 23&#45;&gt;6 -->
<g id="edge26" class="edge">
<title>23&#45;&gt;6</title>
<path fill="none" stroke="grey" stroke-width="2" d="M1308.29,-292.7C1306.64,-284.98 1304.65,-275.71 1302.81,-267.11"/>
<polygon fill="grey" stroke="grey" stroke-width="2" points="1306.18,-266.15 1300.67,-257.1 1299.34,-267.62 1306.18,-266.15"/>
</g>
<!-- 24&#45;&gt;10 -->
<g id="edge30" class="edge">
<title>24&#45;&gt;10</title>
<path fill="none" stroke="grey" stroke-width="2" d="M364.91,-146.32C353.27,-136.84 338.65,-124.93 325.95,-114.58"/>
<polygon fill="grey" stroke="grey" stroke-width="2" points="327.9,-111.66 317.94,-108.06 323.48,-117.09 327.9,-111.66"/>
</g>
<!-- 25 -->
<g id="node26" class="node">
<title>25</title>
<path fill="none" stroke="#568ad8" stroke-width="2" d="M649.5,-617C649.5,-617 614.5,-617 614.5,-617 608.5,-617 602.5,-611 602.5,-605 602.5,-605 602.5,-593 602.5,-593 602.5,-587 608.5,-581 614.5,-581 614.5,-581 649.5,-581 649.5,-581 655.5,-581 661.5,-587 661.5,-593 661.5,-593 661.5,-605 661.5,-605 661.5,-611 655.5,-617 649.5,-617"/>
<text text-anchor="middle" x="632" y="-596.5" font-family="sans" font-size="10.00">mv_data</text>
</g>
<!-- 25&#45;&gt;10 -->
<g id="edge31" class="edge">
<title>25&#45;&gt;10</title>
<path fill="none" stroke="grey" stroke-width="2" d="M602.1,-598.93C544.17,-599.5 414.03,-594.6 320,-545 271.35,-519.34 234,-511.01 234,-456 234,-456 234,-456 234,-238 234,-192.4 259.93,-144.81 278.52,-116.55"/>
<polygon fill="grey" stroke="grey" stroke-width="2" points="281.54,-118.32 284.25,-108.08 275.75,-114.4 281.54,-118.32"/>
</g>
<!-- 25&#45;&gt;11 -->
<g id="edge36" class="edge">
<title>25&#45;&gt;11</title>
<path fill="none" stroke="grey" stroke-width="2" d="M661.89,-595.31C710.86,-590.15 810.56,-576.45 889,-545 944.97,-522.56 974.79,-525.75 1004,-473 1039.33,-409.19 844.28,-248.97 766.73,-188.81"/>
<polygon fill="grey" stroke="grey" stroke-width="2" points="768.79,-185.98 758.73,-182.64 764.51,-191.52 768.79,-185.98"/>
</g>
<!-- 25&#45;&gt;12 -->
<g id="edge42" class="edge">
<title>25&#45;&gt;12</title>
<path fill="none" stroke="grey" stroke-width="2" d="M661.74,-598.47C719.44,-598.24 849.28,-592.02 945,-545 987.35,-524.2 1004.08,-516.22 1023,-473 1068.9,-368.16 1038.8,-312.46 970,-221 961.82,-210.13 951.14,-199.99 940.76,-191.42"/>
<polygon fill="grey" stroke="grey" stroke-width="2" points="942.93,-188.68 932.92,-185.2 938.57,-194.16 942.93,-188.68"/>
</g>
<!-- 25&#45;&gt;13 -->
<g id="edge48" class="edge">
<title>25&#45;&gt;13</title>
<path fill="none" stroke="grey" stroke-width="2" d="M661.85,-596.76C776.21,-591.21 1180,-563.99 1180,-456 1180,-456 1180,-456 1180,-310 1180,-261.34 1140.67,-217.88 1110.38,-191.63"/>
<polygon fill="grey" stroke="grey" stroke-width="2" points="1112.42,-188.77 1102.51,-185.01 1107.91,-194.13 1112.42,-188.77"/>
</g>
<!-- 25&#45;&gt;18 -->
<g id="edge56" class="edge">
<title>25&#45;&gt;18</title>
<path fill="none" stroke="grey" stroke-width="2" d="M602.38,-597.26C522.26,-594.79 294.59,-584.73 97.99,-544.94"/>
<polygon fill="grey" stroke="grey" stroke-width="2" points="98.56,-541.49 88.06,-542.9 97.15,-548.34 98.56,-541.49"/>
</g>
<!-- 25&#45;&gt;19 -->
<g id="edge57" class="edge">
<title>25&#45;&gt;19</title>
<path fill="none" stroke="grey" stroke-width="2" d="M602.31,-595.53C534.25,-589.58 361.89,-572.85 220,-545 218.73,-544.75 217.45,-544.49 216.16,-544.22"/>
<polygon fill="grey" stroke="grey" stroke-width="2" points="216.69,-540.75 206.16,-541.99 215.16,-547.59 216.69,-540.75"/>
</g>
<!-- 25&#45;&gt;24 -->
<g id="edge63" class="edge">
<title>25&#45;&gt;24</title>
<path fill="none" stroke="grey" stroke-width="2" d="M602.23,-592.89C515.98,-577.27 272,-526.8 272,-456 272,-456 272,-456 272,-310 272,-258.15 317.79,-213.98 351.33,-188.58"/>
<polygon fill="grey" stroke="grey" stroke-width="2" points="353.57,-191.28 359.56,-182.54 349.43,-185.64 353.57,-191.28"/>
</g>
<!-- 26 -->
<g id="node27" class="node">
<title>26</title>
<path fill="none" stroke="#56d873" stroke-width="2" d="M689.5,-545C689.5,-545 644.5,-545 644.5,-545 638.5,-545 632.5,-539 632.5,-533 632.5,-533 632.5,-521 632.5,-521 632.5,-515 638.5,-509 644.5,-509 644.5,-509 689.5,-509 689.5,-509 695.5,-509 701.5,-515 701.5,-521 701.5,-521 701.5,-533 701.5,-533 701.5,-539 695.5,-545 689.5,-545"/>
<text text-anchor="middle" x="667" y="-524.5" font-family="sans" font-size="10.00">bwa_index</text>
</g>
<!-- 25&#45;&gt;26 -->
<g id="edge67" class="edge">
<title>25&#45;&gt;26</title>
<path fill="none" stroke="grey" stroke-width="2" d="M640.65,-580.7C644.64,-572.73 649.45,-563.1 653.87,-554.26"/>
<polygon fill="grey" stroke="grey" stroke-width="2" points="657.11,-555.61 658.45,-545.1 650.85,-552.48 657.11,-555.61"/>
</g>
<!-- 27 -->
<g id="node28" class="node">
<title>27</title>
<path fill="none" stroke="#d6d856" stroke-width="2" d="M840,-545C840,-545 772,-545 772,-545 766,-545 760,-539 760,-533 760,-533 760,-521 760,-521 760,-515 766,-509 772,-509 772,-509 840,-509 840,-509 846,-509 852,-515 852,-521 852,-521 852,-533 852,-533 852,-539 846,-545 840,-545"/>
<text text-anchor="middle" x="806" y="-524.5" font-family="sans" font-size="10.00">samtools_faidx</text>
</g>
<!-- 25&#45;&gt;27 -->
<g id="edge68" class="edge">
<title>25&#45;&gt;27</title>
<path fill="none" stroke="grey" stroke-width="2" d="M661.52,-586.13C686.8,-575.95 723.81,-561.06 754.04,-548.9"/>
<polygon fill="grey" stroke="grey" stroke-width="2" points="755.63,-552.04 763.6,-545.06 753.01,-545.54 755.63,-552.04"/>
</g>
<!-- 28 -->
<g id="node29" class="node">
<title>28</title>
<path fill="none" stroke="#56c1d8" stroke-width="2" d="M594,-545C594,-545 556,-545 556,-545 550,-545 544,-539 544,-533 544,-533 544,-521 544,-521 544,-515 550,-509 556,-509 556,-509 594,-509 594,-509 600,-509 606,-515 606,-521 606,-521 606,-533 606,-533 606,-539 600,-545 594,-545"/>
<text text-anchor="middle" x="575" y="-524.5" font-family="sans" font-size="10.00">gatk_dict</text>
</g>
<!-- 25&#45;&gt;28 -->
<g id="edge69" class="edge">
<title>25&#45;&gt;28</title>
<path fill="none" stroke="grey" stroke-width="2" d="M617.91,-580.7C611.08,-572.3 602.74,-562.07 595.24,-552.86"/>
<polygon fill="grey" stroke="grey" stroke-width="2" points="597.96,-550.65 588.93,-545.1 592.53,-555.07 597.96,-550.65"/>
</g>
<!-- 29 -->
<g id="node30" class="node">
<title>29</title>
<path fill="none" stroke="#d88d56" stroke-width="2" d="M490,-473C490,-473 426,-473 426,-473 420,-473 414,-467 414,-461 414,-461 414,-449 414,-449 414,-443 420,-437 426,-437 426,-437 490,-437 490,-437 496,-437 502,-443 502,-449 502,-449 502,-461 502,-461 502,-467 496,-473 490,-473"/>
<text text-anchor="middle" x="458" y="-458" font-family="sans" font-size="10.00">bwa_mem</text>
<text text-anchor="middle" x="458" y="-447" font-family="sans" font-size="10.00">sample: base1</text>
</g>
<!-- 25&#45;&gt;29 -->
<g id="edge70" class="edge">
<title>25&#45;&gt;29</title>
<path fill="none" stroke="grey" stroke-width="2" d="M602.31,-585.2C582.19,-575.73 555.61,-561.63 535,-545 511.97,-526.42 490.35,-500.38 475.92,-481.27"/>
<polygon fill="grey" stroke="grey" stroke-width="2" points="478.58,-478.98 469.82,-473.02 472.96,-483.14 478.58,-478.98"/>
</g>
<!-- 30 -->
<g id="node31" class="node">
<title>30</title>
<path fill="none" stroke="#d88d56" stroke-width="2" d="M950,-473C950,-473 874,-473 874,-473 868,-473 862,-467 862,-461 862,-461 862,-449 862,-449 862,-443 868,-437 874,-437 874,-437 950,-437 950,-437 956,-437 962,-443 962,-449 962,-449 962,-461 962,-461 962,-467 956,-473 950,-473"/>
<text text-anchor="middle" x="912" y="-458" font-family="sans" font-size="10.00">bwa_mem</text>
<text text-anchor="middle" x="912" y="-447" font-family="sans" font-size="10.00">sample: mutated</text>
</g>
<!-- 25&#45;&gt;30 -->
<g id="edge74" class="edge">
<title>25&#45;&gt;30</title>
<path fill="none" stroke="grey" stroke-width="2" d="M661.85,-598.41C708.79,-597.57 800.73,-589.78 861,-545 881.79,-529.56 895.42,-502.94 903.31,-482.82"/>
<polygon fill="grey" stroke="grey" stroke-width="2" points="906.66,-483.86 906.83,-473.27 900.09,-481.45 906.66,-483.86"/>
</g>
<!-- 26&#45;&gt;10 -->
<g id="edge32" class="edge">
<title>26&#45;&gt;10</title>
<path fill="none" stroke="grey" stroke-width="2" d="M632.23,-513.72C600.93,-502.18 557.79,-484.96 544,-473 515.67,-448.43 513.24,-436.09 500,-401 459.05,-292.51 530.61,-231.92 455,-144 448.62,-136.58 404.82,-122.19 364.96,-110.28"/>
<polygon fill="grey" stroke="grey" stroke-width="2" points="365.78,-106.87 355.2,-107.39 363.79,-113.58 365.78,-106.87"/>
</g>
<!-- 26&#45;&gt;11 -->
<g id="edge37" class="edge">
<title>26&#45;&gt;11</title>
<path fill="none" stroke="grey" stroke-width="2" d="M670.33,-508.61C681.44,-450.55 717.32,-263.07 730.81,-192.61"/>
<polygon fill="grey" stroke="grey" stroke-width="2" points="734.26,-193.19 732.71,-182.71 727.39,-191.88 734.26,-193.19"/>
</g>
<!-- 26&#45;&gt;12 -->
<g id="edge43" class="edge">
<title>26&#45;&gt;12</title>
<path fill="none" stroke="grey" stroke-width="2" d="M683.45,-508.83C721.62,-468.18 817.21,-361.57 873,-257 883.48,-237.36 891.42,-213.5 896.64,-195.07"/>
<polygon fill="grey" stroke="grey" stroke-width="2" points="900.09,-195.75 899.33,-185.18 893.33,-193.91 900.09,-195.75"/>
</g>
<!-- 26&#45;&gt;13 -->
<g id="edge49" class="edge">
<title>26&#45;&gt;13</title>
<path fill="none" stroke="grey" stroke-width="2" d="M698.72,-508.91C784.43,-462.09 1017.26,-330.34 1063,-257 1074.41,-238.71 1077.42,-214.41 1077.71,-195.45"/>
<polygon fill="grey" stroke="grey" stroke-width="2" points="1081.21,-195.23 1077.62,-185.26 1074.21,-195.29 1081.21,-195.23"/>
</g>
<!-- 26&#45;&gt;24 -->
<g id="edge64" class="edge">
<title>26&#45;&gt;24</title>
<path fill="none" stroke="grey" stroke-width="2" d="M632.24,-513.86C626.52,-512.09 620.62,-510.39 615,-509 523.08,-486.23 473.3,-538.59 405,-473 375.83,-444.99 386,-424.45 386,-384 386,-384 386,-384 386,-310 386,-269.29 386,-222.13 386,-193.06"/>
<polygon fill="grey" stroke="grey" stroke-width="2" points="389.5,-192.85 386,-182.85 382.5,-192.85 389.5,-192.85"/>
</g>
<!-- 26&#45;&gt;29 -->
<g id="edge71" class="edge">
<title>26&#45;&gt;29</title>
<path fill="none" stroke="grey" stroke-width="2" d="M632.49,-514.44C599.71,-503.46 549.92,-486.79 511.91,-474.06"/>
<polygon fill="grey" stroke="grey" stroke-width="2" points="512.61,-470.6 502.02,-470.74 510.39,-477.24 512.61,-470.6"/>
</g>
<!-- 26&#45;&gt;30 -->
<g id="edge75" class="edge">
<title>26&#45;&gt;30</title>
<path fill="none" stroke="grey" stroke-width="2" d="M701.58,-516.12C740.62,-504.97 804.83,-486.62 852.07,-473.12"/>
<polygon fill="grey" stroke="grey" stroke-width="2" points="853.23,-476.43 861.88,-470.32 851.3,-469.7 853.23,-476.43"/>
</g>
<!-- 27&#45;&gt;10 -->
<g id="edge33" class="edge">
<title>27&#45;&gt;10</title>
<path fill="none" stroke="grey" stroke-width="2" d="M852.22,-514.13C898.46,-501.8 963.75,-482.94 971,-473 980.43,-460.07 975.14,-452.46 971,-437 961.28,-400.7 833.74,-164.12 802,-144 719.7,-91.84 461.14,-123.87 365,-108 364.9,-107.98 364.8,-107.97 364.7,-107.95"/>
<polygon fill="grey" stroke="grey" stroke-width="2" points="365.58,-104.55 355.11,-106.19 364.31,-111.44 365.58,-104.55"/>
</g>
<!-- 27&#45;&gt;11 -->
<g id="edge38" class="edge">
<title>27&#45;&gt;11</title>
<path fill="none" stroke="grey" stroke-width="2" d="M802.62,-508.61C791.35,-450.55 754.95,-263.07 741.26,-192.61"/>
<polygon fill="grey" stroke="grey" stroke-width="2" points="744.68,-191.86 739.34,-182.71 737.81,-193.2 744.68,-191.86"/>
</g>
<!-- 27&#45;&gt;12 -->
<g id="edge44" class="edge">
<title>27&#45;&gt;12</title>
<path fill="none" stroke="grey" stroke-width="2" d="M852.25,-520.13C904.79,-512.4 985.64,-496.92 1004,-473 1022.65,-448.7 1025.84,-374.05 949,-221 944.02,-211.09 937.03,-201.33 930.04,-192.82"/>
<polygon fill="grey" stroke="grey" stroke-width="2" points="932.57,-190.4 923.41,-185.09 927.26,-194.96 932.57,-190.4"/>
</g>
<!-- 27&#45;&gt;13 -->
<g id="edge50" class="edge">
<title>27&#45;&gt;13</title>
<path fill="none" stroke="grey" stroke-width="2" d="M852.02,-523.13C898.3,-518.41 970.19,-505.95 1023,-473 1058.34,-450.95 1066.41,-439.21 1083,-401 1115.01,-327.25 1117.89,-299.61 1101,-221 1099.05,-211.92 1095.49,-202.53 1091.66,-194.11"/>
<polygon fill="grey" stroke="grey" stroke-width="2" points="1094.8,-192.57 1087.28,-185.09 1088.5,-195.62 1094.8,-192.57"/>
</g>
<!-- 27&#45;&gt;24 -->
<g id="edge65" class="edge">
<title>27&#45;&gt;24</title>
<path fill="none" stroke="grey" stroke-width="2" d="M759.93,-517.96C694.66,-504.41 574.89,-471.31 500,-401 437.04,-341.89 404.72,-240.69 392.25,-192.52"/>
<polygon fill="grey" stroke="grey" stroke-width="2" points="395.58,-191.39 389.76,-182.54 388.79,-193.09 395.58,-191.39"/>
</g>
<!-- 27&#45;&gt;29 -->
<g id="edge72" class="edge">
<title>27&#45;&gt;29</title>
<path fill="none" stroke="grey" stroke-width="2" d="M759.79,-516.7C695.78,-503.83 580.34,-480.61 512.29,-466.92"/>
<polygon fill="grey" stroke="grey" stroke-width="2" points="512.7,-463.43 502.2,-464.89 511.31,-470.29 512.7,-463.43"/>
</g>
<!-- 27&#45;&gt;30 -->
<g id="edge76" class="edge">
<title>27&#45;&gt;30</title>
<path fill="none" stroke="grey" stroke-width="2" d="M831.93,-508.88C845.66,-499.81 862.71,-488.55 877.54,-478.76"/>
<polygon fill="grey" stroke="grey" stroke-width="2" points="879.55,-481.62 885.97,-473.19 875.7,-475.78 879.55,-481.62"/>
</g>
<!-- 28&#45;&gt;10 -->
<g id="edge34" class="edge">
<title>28&#45;&gt;10</title>
<path fill="none" stroke="grey" stroke-width="2" d="M543.94,-522.38C488.52,-515.36 375.63,-498.31 346,-473 313.56,-445.29 310,-426.67 310,-384 310,-384 310,-384 310,-310 310,-240.77 303.45,-159.45 299.65,-118.11"/>
<polygon fill="grey" stroke="grey" stroke-width="2" points="303.12,-117.65 298.7,-108.02 296.15,-118.3 303.12,-117.65"/>
</g>
<!-- 28&#45;&gt;11 -->
<g id="edge39" class="edge">
<title>28&#45;&gt;11</title>
<path fill="none" stroke="grey" stroke-width="2" d="M576.71,-508.87C578.88,-490.64 583.43,-461.17 592,-437 610.21,-385.65 624.43,-377.11 650,-329 675.65,-280.75 705.25,-224.3 722.18,-191.94"/>
<polygon fill="grey" stroke="grey" stroke-width="2" points="725.48,-193.19 727.01,-182.71 719.27,-189.95 725.48,-193.19"/>
</g>
<!-- 28&#45;&gt;12 -->
<g id="edge45" class="edge">
<title>28&#45;&gt;12</title>
<path fill="none" stroke="grey" stroke-width="2" d="M590.87,-508.61C643.77,-450.65 814.38,-263.7 878.94,-192.96"/>
<polygon fill="grey" stroke="grey" stroke-width="2" points="881.76,-195.06 885.92,-185.31 876.59,-190.34 881.76,-195.06"/>
</g>
<!-- 28&#45;&gt;13 -->
<g id="edge51" class="edge">
<title>28&#45;&gt;13</title>
<path fill="none" stroke="grey" stroke-width="2" d="M600.79,-508.78C616.05,-498.51 635.72,-485.15 653,-473 798.6,-370.65 969.25,-244.74 1041.21,-191.37"/>
<polygon fill="grey" stroke="grey" stroke-width="2" points="1043.54,-193.99 1049.49,-185.22 1039.37,-188.37 1043.54,-193.99"/>
</g>
<!-- 28&#45;&gt;24 -->
<g id="edge66" class="edge">
<title>28&#45;&gt;24</title>
<path fill="none" stroke="grey" stroke-width="2" d="M543.89,-526.97C499.54,-526.58 418.42,-519.05 372,-473 342.92,-444.15 348,-424.97 348,-384 348,-384 348,-384 348,-310 348,-267.77 363.37,-220.81 374.56,-192.22"/>
<polygon fill="grey" stroke="grey" stroke-width="2" points="377.82,-193.49 378.31,-182.91 371.33,-190.87 377.82,-193.49"/>
</g>
<!-- 28&#45;&gt;29 -->
<g id="edge73" class="edge">
<title>28&#45;&gt;29</title>
<path fill="none" stroke="grey" stroke-width="2" d="M546.38,-508.88C531.08,-499.72 512.06,-488.34 495.58,-478.48"/>
<polygon fill="grey" stroke="grey" stroke-width="2" points="497.11,-475.32 486.73,-473.19 493.52,-481.33 497.11,-475.32"/>
</g>
<!-- 28&#45;&gt;30 -->
<g id="edge77" class="edge">
<title>28&#45;&gt;30</title>
<path fill="none" stroke="grey" stroke-width="2" d="M606.15,-514.4C612.03,-512.44 618.17,-510.54 624,-509 701.56,-488.54 792.91,-473.17 851.6,-464.38"/>
<polygon fill="grey" stroke="grey" stroke-width="2" points="852.42,-467.8 861.8,-462.87 851.4,-460.87 852.42,-467.8"/>
</g>
<!-- 29&#45;&gt;20 -->
<g id="edge58" class="edge">
<title>29&#45;&gt;20</title>
<path fill="none" stroke="grey" stroke-width="2" d="M481.24,-436.7C493.19,-427.8 507.92,-416.82 520.85,-407.2"/>
<polygon fill="grey" stroke="grey" stroke-width="2" points="523.1,-409.88 529.03,-401.1 518.92,-404.27 523.1,-409.88"/>
</g>
<!-- 30&#45;&gt;22 -->
<g id="edge60" class="edge">
<title>30&#45;&gt;22</title>
<path fill="none" stroke="grey" stroke-width="2" d="M962.02,-443.67C1025.13,-430.64 1133.21,-408.32 1197.79,-394.99"/>
<polygon fill="grey" stroke="grey" stroke-width="2" points="1198.68,-398.38 1207.77,-392.93 1197.27,-391.52 1198.68,-398.38"/>
</g>
</g>
</svg>
