<?xml version="1.0" encoding="UTF-8" standalone="no"?>
<!DOCTYPE svg PUBLIC "-//W3C//DTD SVG 1.1//EN"
 "http://www.w3.org/Graphics/SVG/1.1/DTD/svg11.dtd">
<!-- Generated by graphviz version 2.43.0 (0)
 -->
<!-- Title: snakemake_dag Pages: 1 -->
<svg width="1081pt" height="856pt"
 viewBox="0.00 0.00 1081.00 856.00" xmlns="http://www.w3.org/2000/svg" xmlns:xlink="http://www.w3.org/1999/xlink">
<g id="graph0" class="graph" transform="scale(1 1) rotate(0) translate(4 852)">
<title>snakemake_dag</title>
<polygon fill="white" stroke="transparent" points="-4,4 -4,-852 1077,-852 1077,4 -4,4"/>
<!-- 0 -->
<g id="node1" class="node">
<title>0</title>
<path fill="none" stroke="#56b9d8" stroke-width="2" d="M688.5,-36C688.5,-36 658.5,-36 658.5,-36 652.5,-36 646.5,-30 646.5,-24 646.5,-24 646.5,-12 646.5,-12 646.5,-6 652.5,0 658.5,0 658.5,0 688.5,0 688.5,0 694.5,0 700.5,-6 700.5,-12 700.5,-12 700.5,-24 700.5,-24 700.5,-30 694.5,-36 688.5,-36"/>
<text text-anchor="middle" x="673.5" y="-15.5" font-family="sans" font-size="10.00">all</text>
</g>
<!-- 1 -->
<g id="node2" class="node">
<title>1</title>
<path fill="none" stroke="#56d88a" stroke-width="2" d="M1061,-190C1061,-190 882,-190 882,-190 876,-190 870,-184 870,-178 870,-178 870,-161 870,-161 870,-155 876,-149 882,-149 882,-149 1061,-149 1061,-149 1067,-149 1073,-155 1073,-161 1073,-161 1073,-178 1073,-178 1073,-184 1067,-190 1061,-190"/>
<text text-anchor="middle" x="971.5" y="-178" font-family="sans" font-size="10.00">cp_vcfs</text>
<text text-anchor="middle" x="971.5" y="-167" font-family="sans" font-size="10.00">caller2mv: mutect2</text>
<text text-anchor="middle" x="971.5" y="-156" font-family="sans" font-size="10.00">library: N100_R2_AF0.6_NR7000_REP1</text>
</g>
<!-- 1&#45;&gt;0 -->
<g id="edge1" class="edge">
<title>1&#45;&gt;0</title>
<path fill="none" stroke="grey" stroke-width="2" d="M973.31,-148.89C974.17,-127 971.86,-92.04 951.5,-72 917.93,-38.96 778.69,-25.68 710.91,-21.1"/>
<polygon fill="grey" stroke="grey" stroke-width="2" points="710.87,-17.59 700.67,-20.43 710.42,-24.57 710.87,-17.59"/>
</g>
<!-- 2 -->
<g id="node3" class="node">
<title>2</title>
<path fill="none" stroke="#56d88a" stroke-width="2" d="M191,-113C191,-113 12,-113 12,-113 6,-113 0,-107 0,-101 0,-101 0,-84 0,-84 0,-78 6,-72 12,-72 12,-72 191,-72 191,-72 197,-72 203,-78 203,-84 203,-84 203,-101 203,-101 203,-107 197,-113 191,-113"/>
<text text-anchor="middle" x="101.5" y="-101" font-family="sans" font-size="10.00">cp_vcfs</text>
<text text-anchor="middle" x="101.5" y="-90" font-family="sans" font-size="10.00">caller2mv: freebayes</text>
<text text-anchor="middle" x="101.5" y="-79" font-family="sans" font-size="10.00">library: N100_R2_AF0.6_NR7000_REP1</text>
</g>
<!-- 2&#45;&gt;0 -->
<g id="edge2" class="edge">
<title>2&#45;&gt;0</title>
<path fill="none" stroke="grey" stroke-width="2" d="M203.05,-73.26C205.9,-72.83 208.72,-72.41 211.5,-72 368.68,-49.07 557.14,-30.08 635.97,-22.52"/>
<polygon fill="grey" stroke="grey" stroke-width="2" points="636.72,-25.96 646.35,-21.53 636.06,-18.99 636.72,-25.96"/>
</g>
<!-- 3 -->
<g id="node4" class="node">
<title>3</title>
<path fill="none" stroke="#56d88a" stroke-width="2" d="M633,-113C633,-113 454,-113 454,-113 448,-113 442,-107 442,-101 442,-101 442,-84 442,-84 442,-78 448,-72 454,-72 454,-72 633,-72 633,-72 639,-72 645,-78 645,-84 645,-84 645,-101 645,-101 645,-107 639,-113 633,-113"/>
<text text-anchor="middle" x="543.5" y="-101" font-family="sans" font-size="10.00">cp_vcfs</text>
<text text-anchor="middle" x="543.5" y="-90" font-family="sans" font-size="10.00">caller2mv: gatk</text>
<text text-anchor="middle" x="543.5" y="-79" font-family="sans" font-size="10.00">library: N100_R2_AF0.6_NR7000_REP1</text>
</g>
<!-- 3&#45;&gt;0 -->
<g id="edge3" class="edge">
<title>3&#45;&gt;0</title>
<path fill="none" stroke="grey" stroke-width="2" d="M578.68,-71.88C596.82,-61.76 618.92,-49.44 637.21,-39.24"/>
<polygon fill="grey" stroke="grey" stroke-width="2" points="639.1,-42.19 646.13,-34.27 635.69,-36.08 639.1,-42.19"/>
</g>
<!-- 4 -->
<g id="node5" class="node">
<title>4</title>
<path fill="none" stroke="#56d88a" stroke-width="2" d="M671,-190C671,-190 492,-190 492,-190 486,-190 480,-184 480,-178 480,-178 480,-161 480,-161 480,-155 486,-149 492,-149 492,-149 671,-149 671,-149 677,-149 683,-155 683,-161 683,-161 683,-178 683,-178 683,-184 677,-190 671,-190"/>
<text text-anchor="middle" x="581.5" y="-178" font-family="sans" font-size="10.00">cp_vcfs</text>
<text text-anchor="middle" x="581.5" y="-167" font-family="sans" font-size="10.00">caller2mv: strelka2</text>
<text text-anchor="middle" x="581.5" y="-156" font-family="sans" font-size="10.00">library: N100_R2_AF0.6_NR7000_REP1</text>
</g>
<!-- 4&#45;&gt;0 -->
<g id="edge4" class="edge">
<title>4&#45;&gt;0</title>
<path fill="none" stroke="grey" stroke-width="2" d="M616.76,-148.76C630.19,-139.56 644.42,-127.42 653.5,-113 666.1,-92.99 670.88,-66.32 672.63,-46.5"/>
<polygon fill="grey" stroke="grey" stroke-width="2" points="676.14,-46.49 673.33,-36.28 669.16,-46.02 676.14,-46.49"/>
</g>
<!-- 5 -->
<g id="node6" class="node">
<title>5</title>
<path fill="none" stroke="#56d88a" stroke-width="2" d="M412,-113C412,-113 233,-113 233,-113 227,-113 221,-107 221,-101 221,-101 221,-84 221,-84 221,-78 227,-72 233,-72 233,-72 412,-72 412,-72 418,-72 424,-78 424,-84 424,-84 424,-101 424,-101 424,-107 418,-113 412,-113"/>
<text text-anchor="middle" x="322.5" y="-101" font-family="sans" font-size="10.00">cp_vcfs</text>
<text text-anchor="middle" x="322.5" y="-90" font-family="sans" font-size="10.00">caller2mv: varscan</text>
<text text-anchor="middle" x="322.5" y="-79" font-family="sans" font-size="10.00">library: N100_R2_AF0.6_NR7000_REP1</text>
</g>
<!-- 5&#45;&gt;0 -->
<g id="edge5" class="edge">
<title>5&#45;&gt;0</title>
<path fill="none" stroke="grey" stroke-width="2" d="M417.02,-71.98C489.02,-57.11 584.3,-37.42 636.09,-26.73"/>
<polygon fill="grey" stroke="grey" stroke-width="2" points="637.06,-30.1 646.15,-24.65 635.65,-23.24 637.06,-30.1"/>
</g>
<!-- 6 -->
<g id="node7" class="node">
<title>6</title>
<path fill="none" stroke="#56d88a" stroke-width="2" d="M801,-267C801,-267 622,-267 622,-267 616,-267 610,-261 610,-255 610,-255 610,-238 610,-238 610,-232 616,-226 622,-226 622,-226 801,-226 801,-226 807,-226 813,-232 813,-238 813,-238 813,-255 813,-255 813,-261 807,-267 801,-267"/>
<text text-anchor="middle" x="711.5" y="-255" font-family="sans" font-size="10.00">cp_vcfs</text>
<text text-anchor="middle" x="711.5" y="-244" font-family="sans" font-size="10.00">caller2mv: somaticsniper</text>
<text text-anchor="middle" x="711.5" y="-233" font-family="sans" font-size="10.00">library: N100_R2_AF0.6_NR7000_REP1</text>
</g>
<!-- 6&#45;&gt;0 -->
<g id="edge6" class="edge">
<title>6&#45;&gt;0</title>
<path fill="none" stroke="grey" stroke-width="2" d="M708.19,-225.8C701.39,-185.26 685.82,-92.45 678.07,-46.21"/>
<polygon fill="grey" stroke="grey" stroke-width="2" points="681.51,-45.59 676.4,-36.3 674.61,-46.74 681.51,-45.59"/>
</g>
<!-- 7 -->
<g id="node8" class="node">
<title>7</title>
<path fill="none" stroke="#56d88a" stroke-width="2" d="M931,-113C931,-113 752,-113 752,-113 746,-113 740,-107 740,-101 740,-101 740,-84 740,-84 740,-78 746,-72 752,-72 752,-72 931,-72 931,-72 937,-72 943,-78 943,-84 943,-84 943,-101 943,-101 943,-107 937,-113 931,-113"/>
<text text-anchor="middle" x="841.5" y="-101" font-family="sans" font-size="10.00">cp_vcfs</text>
<text text-anchor="middle" x="841.5" y="-90" font-family="sans" font-size="10.00">caller2mv: muse</text>
<text text-anchor="middle" x="841.5" y="-79" font-family="sans" font-size="10.00">library: N100_R2_AF0.6_NR7000_REP1</text>
</g>
<!-- 7&#45;&gt;0 -->
<g id="edge7" class="edge">
<title>7&#45;&gt;0</title>
<path fill="none" stroke="grey" stroke-width="2" d="M796.04,-71.88C768.98,-60.2 735.11,-45.59 709.84,-34.68"/>
<polygon fill="grey" stroke="grey" stroke-width="2" points="711.18,-31.45 700.61,-30.7 708.41,-37.88 711.18,-31.45"/>
</g>
<!-- 8 -->
<g id="node9" class="node">
<title>8</title>
<path fill="none" stroke="#afd856" stroke-width="2" d="M979,-339C979,-339 894,-339 894,-339 888,-339 882,-333 882,-327 882,-327 882,-315 882,-315 882,-309 888,-303 894,-303 894,-303 979,-303 979,-303 985,-303 991,-309 991,-315 991,-315 991,-327 991,-327 991,-333 985,-339 979,-339"/>
<text text-anchor="middle" x="936.5" y="-324" font-family="sans" font-size="10.00">bedtools_substract</text>
<text text-anchor="middle" x="936.5" y="-313" font-family="sans" font-size="10.00">caller: mutect2</text>
</g>
<!-- 8&#45;&gt;1 -->
<g id="edge8" class="edge">
<title>8&#45;&gt;1</title>
<path fill="none" stroke="grey" stroke-width="2" d="M940.51,-302.85C946.36,-277.88 957.3,-231.14 964.5,-200.42"/>
<polygon fill="grey" stroke="grey" stroke-width="2" points="968,-200.82 966.87,-190.28 961.18,-199.22 968,-200.82"/>
</g>
<!-- 9 -->
<g id="node10" class="node">
<title>9</title>
<path fill="none" stroke="#afd856" stroke-width="2" d="M144,-339C144,-339 59,-339 59,-339 53,-339 47,-333 47,-327 47,-327 47,-315 47,-315 47,-309 53,-303 59,-303 59,-303 144,-303 144,-303 150,-303 156,-309 156,-315 156,-315 156,-327 156,-327 156,-333 150,-339 144,-339"/>
<text text-anchor="middle" x="101.5" y="-324" font-family="sans" font-size="10.00">bedtools_substract</text>
<text text-anchor="middle" x="101.5" y="-313" font-family="sans" font-size="10.00">caller: freebayes</text>
</g>
<!-- 9&#45;&gt;2 -->
<g id="edge9" class="edge">
<title>9&#45;&gt;2</title>
<path fill="none" stroke="grey" stroke-width="2" d="M101.5,-302.98C101.5,-264.72 101.5,-171.53 101.5,-123.39"/>
<polygon fill="grey" stroke="grey" stroke-width="2" points="105,-123.28 101.5,-113.28 98,-123.28 105,-123.28"/>
</g>
<!-- 10 -->
<g id="node11" class="node">
<title>10</title>
<path fill="none" stroke="#afd856" stroke-width="2" d="M495,-264.5C495,-264.5 410,-264.5 410,-264.5 404,-264.5 398,-258.5 398,-252.5 398,-252.5 398,-240.5 398,-240.5 398,-234.5 404,-228.5 410,-228.5 410,-228.5 495,-228.5 495,-228.5 501,-228.5 507,-234.5 507,-240.5 507,-240.5 507,-252.5 507,-252.5 507,-258.5 501,-264.5 495,-264.5"/>
<text text-anchor="middle" x="452.5" y="-249.5" font-family="sans" font-size="10.00">bedtools_substract</text>
<text text-anchor="middle" x="452.5" y="-238.5" font-family="sans" font-size="10.00">caller: gatk</text>
</g>
<!-- 10&#45;&gt;3 -->
<g id="edge10" class="edge">
<title>10&#45;&gt;3</title>
<path fill="none" stroke="grey" stroke-width="2" d="M452.08,-228.49C452.35,-208.12 455.29,-173.66 470.5,-149 477.69,-137.34 488.3,-127.24 499.21,-118.98"/>
<polygon fill="grey" stroke="grey" stroke-width="2" points="501.45,-121.68 507.56,-113.03 497.39,-115.98 501.45,-121.68"/>
</g>
<!-- 11 -->
<g id="node12" class="node">
<title>11</title>
<path fill="none" stroke="#afd856" stroke-width="2" d="M626,-339C626,-339 541,-339 541,-339 535,-339 529,-333 529,-327 529,-327 529,-315 529,-315 529,-309 535,-303 541,-303 541,-303 626,-303 626,-303 632,-303 638,-309 638,-315 638,-315 638,-327 638,-327 638,-333 632,-339 626,-339"/>
<text text-anchor="middle" x="583.5" y="-324" font-family="sans" font-size="10.00">bedtools_substract</text>
<text text-anchor="middle" x="583.5" y="-313" font-family="sans" font-size="10.00">caller: strelka2</text>
</g>
<!-- 11&#45;&gt;4 -->
<g id="edge11" class="edge">
<title>11&#45;&gt;4</title>
<path fill="none" stroke="grey" stroke-width="2" d="M583.27,-302.85C582.94,-277.88 582.31,-231.14 581.9,-200.42"/>
<polygon fill="grey" stroke="grey" stroke-width="2" points="585.4,-200.24 581.76,-190.28 578.4,-200.33 585.4,-200.24"/>
</g>
<!-- 12 -->
<g id="node13" class="node">
<title>12</title>
<path fill="none" stroke="#afd856" stroke-width="2" d="M348,-187.5C348,-187.5 263,-187.5 263,-187.5 257,-187.5 251,-181.5 251,-175.5 251,-175.5 251,-163.5 251,-163.5 251,-157.5 257,-151.5 263,-151.5 263,-151.5 348,-151.5 348,-151.5 354,-151.5 360,-157.5 360,-163.5 360,-163.5 360,-175.5 360,-175.5 360,-181.5 354,-187.5 348,-187.5"/>
<text text-anchor="middle" x="305.5" y="-172.5" font-family="sans" font-size="10.00">bedtools_substract</text>
<text text-anchor="middle" x="305.5" y="-161.5" font-family="sans" font-size="10.00">caller: varscan</text>
</g>
<!-- 12&#45;&gt;5 -->
<g id="edge12" class="edge">
<title>12&#45;&gt;5</title>
<path fill="none" stroke="grey" stroke-width="2" d="M309.36,-151.48C311.26,-143.1 313.6,-132.76 315.78,-123.13"/>
<polygon fill="grey" stroke="grey" stroke-width="2" points="319.26,-123.63 318.06,-113.1 312.43,-122.08 319.26,-123.63"/>
</g>
<!-- 13 -->
<g id="node14" class="node">
<title>13</title>
<path fill="none" stroke="#afd856" stroke-width="2" d="M763,-339C763,-339 668,-339 668,-339 662,-339 656,-333 656,-327 656,-327 656,-315 656,-315 656,-309 662,-303 668,-303 668,-303 763,-303 763,-303 769,-303 775,-309 775,-315 775,-315 775,-327 775,-327 775,-333 769,-339 763,-339"/>
<text text-anchor="middle" x="715.5" y="-324" font-family="sans" font-size="10.00">bedtools_substract</text>
<text text-anchor="middle" x="715.5" y="-313" font-family="sans" font-size="10.00">caller: somaticsniper</text>
</g>
<!-- 13&#45;&gt;6 -->
<g id="edge13" class="edge">
<title>13&#45;&gt;6</title>
<path fill="none" stroke="grey" stroke-width="2" d="M714.55,-302.82C714.13,-295.2 713.62,-286 713.15,-277.32"/>
<polygon fill="grey" stroke="grey" stroke-width="2" points="716.63,-276.91 712.58,-267.12 709.64,-277.3 716.63,-276.91"/>
</g>
<!-- 14 -->
<g id="node15" class="node">
<title>14</title>
<path fill="none" stroke="#56d8c1" stroke-width="2" d="M781.5,-411C781.5,-411 751.5,-411 751.5,-411 745.5,-411 739.5,-405 739.5,-399 739.5,-399 739.5,-387 739.5,-387 739.5,-381 745.5,-375 751.5,-375 751.5,-375 781.5,-375 781.5,-375 787.5,-375 793.5,-381 793.5,-387 793.5,-387 793.5,-399 793.5,-399 793.5,-405 787.5,-411 781.5,-411"/>
<text text-anchor="middle" x="766.5" y="-390.5" font-family="sans" font-size="10.00">muse</text>
</g>
<!-- 14&#45;&gt;7 -->
<g id="edge14" class="edge">
<title>14&#45;&gt;7</title>
<path fill="none" stroke="grey" stroke-width="2" d="M776.06,-374.81C788.68,-351.25 810.59,-307.28 821.5,-267 834.87,-217.67 839.3,-158.08 840.77,-123.13"/>
<polygon fill="grey" stroke="grey" stroke-width="2" points="844.27,-123.23 841.14,-113.11 837.28,-122.98 844.27,-123.23"/>
</g>
<!-- 15 -->
<g id="node16" class="node">
<title>15</title>
<path fill="none" stroke="#56d8d0" stroke-width="2" d="M883.5,-411C883.5,-411 823.5,-411 823.5,-411 817.5,-411 811.5,-405 811.5,-399 811.5,-399 811.5,-387 811.5,-387 811.5,-381 817.5,-375 823.5,-375 823.5,-375 883.5,-375 883.5,-375 889.5,-375 895.5,-381 895.5,-387 895.5,-387 895.5,-399 895.5,-399 895.5,-405 889.5,-411 883.5,-411"/>
<text text-anchor="middle" x="853.5" y="-390.5" font-family="sans" font-size="10.00">gatk_mutect2</text>
</g>
<!-- 15&#45;&gt;8 -->
<g id="edge15" class="edge">
<title>15&#45;&gt;8</title>
<path fill="none" stroke="grey" stroke-width="2" d="M874.02,-374.7C884.37,-365.97 897.09,-355.24 908.34,-345.75"/>
<polygon fill="grey" stroke="grey" stroke-width="2" points="910.83,-348.23 916.22,-339.1 906.32,-342.88 910.83,-348.23"/>
</g>
<!-- 16 -->
<g id="node17" class="node">
<title>16</title>
<path fill="none" stroke="#88d856" stroke-width="2" d="M231,-411C231,-411 190,-411 190,-411 184,-411 178,-405 178,-399 178,-399 178,-387 178,-387 178,-381 184,-375 190,-375 190,-375 231,-375 231,-375 237,-375 243,-381 243,-387 243,-387 243,-399 243,-399 243,-405 237,-411 231,-411"/>
<text text-anchor="middle" x="210.5" y="-390.5" font-family="sans" font-size="10.00">freebayes</text>
</g>
<!-- 16&#45;&gt;9 -->
<g id="edge16" class="edge">
<title>16&#45;&gt;9</title>
<path fill="none" stroke="grey" stroke-width="2" d="M183.84,-374.88C169.72,-365.81 152.19,-354.55 136.94,-344.76"/>
<polygon fill="grey" stroke="grey" stroke-width="2" points="138.57,-341.65 128.27,-339.19 134.79,-347.54 138.57,-341.65"/>
</g>
<!-- 17 -->
<g id="node18" class="node">
<title>17</title>
<path fill="none" stroke="#d8a456" stroke-width="2" d="M498.5,-339C498.5,-339 406.5,-339 406.5,-339 400.5,-339 394.5,-333 394.5,-327 394.5,-327 394.5,-315 394.5,-315 394.5,-309 400.5,-303 406.5,-303 406.5,-303 498.5,-303 498.5,-303 504.5,-303 510.5,-309 510.5,-315 510.5,-315 510.5,-327 510.5,-327 510.5,-333 504.5,-339 498.5,-339"/>
<text text-anchor="middle" x="452.5" y="-318.5" font-family="sans" font-size="10.00">gatk_genotypegvcfs</text>
</g>
<!-- 17&#45;&gt;10 -->
<g id="edge17" class="edge">
<title>17&#45;&gt;10</title>
<path fill="none" stroke="grey" stroke-width="2" d="M452.5,-302.82C452.5,-294.42 452.5,-284.12 452.5,-274.69"/>
<polygon fill="grey" stroke="grey" stroke-width="2" points="456,-274.56 452.5,-264.56 449,-274.56 456,-274.56"/>
</g>
<!-- 18 -->
<g id="node19" class="node">
<title>18</title>
<path fill="none" stroke="#566bd8" stroke-width="2" d="M605.5,-411C605.5,-411 573.5,-411 573.5,-411 567.5,-411 561.5,-405 561.5,-399 561.5,-399 561.5,-387 561.5,-387 561.5,-381 567.5,-375 573.5,-375 573.5,-375 605.5,-375 605.5,-375 611.5,-375 617.5,-381 617.5,-387 617.5,-387 617.5,-399 617.5,-399 617.5,-405 611.5,-411 605.5,-411"/>
<text text-anchor="middle" x="589.5" y="-390.5" font-family="sans" font-size="10.00">strelka2</text>
</g>
<!-- 18&#45;&gt;11 -->
<g id="edge18" class="edge">
<title>18&#45;&gt;11</title>
<path fill="none" stroke="grey" stroke-width="2" d="M588.02,-374.7C587.36,-366.98 586.56,-357.71 585.82,-349.11"/>
<polygon fill="grey" stroke="grey" stroke-width="2" points="589.31,-348.77 584.97,-339.1 582.33,-349.37 589.31,-348.77"/>
</g>
<!-- 19 -->
<g id="node20" class="node">
<title>19</title>
<path fill="none" stroke="#56d873" stroke-width="2" d="M354,-267C354,-267 223,-267 223,-267 217,-267 211,-261 211,-255 211,-255 211,-238 211,-238 211,-232 217,-226 223,-226 223,-226 354,-226 354,-226 360,-226 366,-232 366,-238 366,-238 366,-255 366,-255 366,-261 360,-267 354,-267"/>
<text text-anchor="middle" x="288.5" y="-255" font-family="sans" font-size="10.00">varscan2vcf</text>
<text text-anchor="middle" x="288.5" y="-244" font-family="sans" font-size="10.00">REP: 1</text>
<text text-anchor="middle" x="288.5" y="-233" font-family="sans" font-size="10.00">lib: N100_R2_AF0.6_NR7000</text>
</g>
<!-- 19&#45;&gt;12 -->
<g id="edge19" class="edge">
<title>19&#45;&gt;12</title>
<path fill="none" stroke="grey" stroke-width="2" d="M292.97,-225.79C294.91,-217.22 297.22,-207.02 299.33,-197.74"/>
<polygon fill="grey" stroke="grey" stroke-width="2" points="302.79,-198.3 301.58,-187.78 295.96,-196.76 302.79,-198.3"/>
</g>
<!-- 20 -->
<g id="node21" class="node">
<title>20</title>
<path fill="none" stroke="#61d856" stroke-width="2" d="M709.5,-411C709.5,-411 647.5,-411 647.5,-411 641.5,-411 635.5,-405 635.5,-399 635.5,-399 635.5,-387 635.5,-387 635.5,-381 641.5,-375 647.5,-375 647.5,-375 709.5,-375 709.5,-375 715.5,-375 721.5,-381 721.5,-387 721.5,-387 721.5,-399 721.5,-399 721.5,-405 715.5,-411 709.5,-411"/>
<text text-anchor="middle" x="678.5" y="-390.5" font-family="sans" font-size="10.00">somaticsniper</text>
</g>
<!-- 20&#45;&gt;13 -->
<g id="edge20" class="edge">
<title>20&#45;&gt;13</title>
<path fill="none" stroke="grey" stroke-width="2" d="M687.65,-374.7C691.9,-366.64 697.06,-356.89 701.77,-347.98"/>
<polygon fill="grey" stroke="grey" stroke-width="2" points="704.88,-349.58 706.46,-339.1 698.69,-346.31 704.88,-349.58"/>
</g>
<!-- 21 -->
<g id="node22" class="node">
<title>21</title>
<path fill="none" stroke="#d88d56" stroke-width="2" d="M673,-555C673,-555 578,-555 578,-555 572,-555 566,-549 566,-543 566,-543 566,-531 566,-531 566,-525 572,-519 578,-519 578,-519 673,-519 673,-519 679,-519 685,-525 685,-531 685,-531 685,-543 685,-543 685,-549 679,-555 673,-555"/>
<text text-anchor="middle" x="625.5" y="-534.5" font-family="sans" font-size="10.00">gatk_markduplicates</text>
</g>
<!-- 21&#45;&gt;14 -->
<g id="edge21" class="edge">
<title>21&#45;&gt;14</title>
<path fill="none" stroke="grey" stroke-width="2" d="M645.59,-518.79C657.21,-508.63 671.96,-495.38 684.5,-483 705.63,-462.13 728.43,-437.18 744.61,-419.01"/>
<polygon fill="grey" stroke="grey" stroke-width="2" points="747.53,-420.98 751.54,-411.18 742.29,-416.34 747.53,-420.98"/>
</g>
<!-- 21&#45;&gt;15 -->
<g id="edge25" class="edge">
<title>21&#45;&gt;15</title>
<path fill="none" stroke="grey" stroke-width="2" d="M685.07,-528.8C741.26,-520.74 819.86,-505.74 840.5,-483 855.47,-466.51 857.79,-440.78 856.92,-421.22"/>
<polygon fill="grey" stroke="grey" stroke-width="2" points="860.4,-420.79 856.16,-411.08 853.42,-421.31 860.4,-420.79"/>
</g>
<!-- 21&#45;&gt;16 -->
<g id="edge29" class="edge">
<title>21&#45;&gt;16</title>
<path fill="none" stroke="grey" stroke-width="2" d="M565.91,-529.37C512.21,-522.11 431.76,-508.03 365.5,-483 320.59,-466.03 273.34,-437.07 242.99,-416.8"/>
<polygon fill="grey" stroke="grey" stroke-width="2" points="244.76,-413.77 234.52,-411.07 240.84,-419.57 244.76,-413.77"/>
</g>
<!-- 21&#45;&gt;18 -->
<g id="edge34" class="edge">
<title>21&#45;&gt;18</title>
<path fill="none" stroke="grey" stroke-width="2" d="M636.6,-518.7C646.87,-500.34 659.09,-470.76 648.5,-447 643.42,-435.6 634.54,-425.63 625.19,-417.51"/>
<polygon fill="grey" stroke="grey" stroke-width="2" points="627.28,-414.69 617.3,-411.13 622.87,-420.14 627.28,-414.69"/>
</g>
<!-- 21&#45;&gt;20 -->
<g id="edge38" class="edge">
<title>21&#45;&gt;20</title>
<path fill="none" stroke="grey" stroke-width="2" d="M642.04,-518.78C650.43,-509.04 659.99,-496.19 665.5,-483 673.71,-463.34 676.87,-439.35 678.02,-421.24"/>
<polygon fill="grey" stroke="grey" stroke-width="2" points="681.52,-421.22 678.5,-411.07 674.53,-420.89 681.52,-421.22"/>
</g>
<!-- 22 -->
<g id="node23" class="node">
<title>22</title>
<path fill="none" stroke="#d85656" stroke-width="2" d="M628,-483C628,-483 537,-483 537,-483 531,-483 525,-477 525,-471 525,-471 525,-459 525,-459 525,-453 531,-447 537,-447 537,-447 628,-447 628,-447 634,-447 640,-453 640,-459 640,-459 640,-471 640,-471 640,-477 634,-483 628,-483"/>
<text text-anchor="middle" x="582.5" y="-462.5" font-family="sans" font-size="10.00">samtools_index_md</text>
</g>
<!-- 21&#45;&gt;22 -->
<g id="edge43" class="edge">
<title>21&#45;&gt;22</title>
<path fill="none" stroke="grey" stroke-width="2" d="M614.87,-518.7C609.87,-510.56 603.81,-500.69 598.29,-491.7"/>
<polygon fill="grey" stroke="grey" stroke-width="2" points="601.22,-489.79 593.01,-483.1 595.26,-493.46 601.22,-489.79"/>
</g>
<!-- 25 -->
<g id="node26" class="node">
<title>25</title>
<path fill="none" stroke="#70d856" stroke-width="2" d="M493,-411C493,-411 398,-411 398,-411 392,-411 386,-405 386,-399 386,-399 386,-387 386,-387 386,-381 392,-375 398,-375 398,-375 493,-375 493,-375 499,-375 505,-381 505,-387 505,-387 505,-399 505,-399 505,-405 499,-411 493,-411"/>
<text text-anchor="middle" x="445.5" y="-390.5" font-family="sans" font-size="10.00">gatk_haplotypecaller</text>
</g>
<!-- 21&#45;&gt;25 -->
<g id="edge44" class="edge">
<title>21&#45;&gt;25</title>
<path fill="none" stroke="grey" stroke-width="2" d="M565.5,-527.93C513.89,-519.62 445.2,-504.78 428.5,-483 414.83,-465.16 421.71,-439.52 430.46,-420.33"/>
<polygon fill="grey" stroke="grey" stroke-width="2" points="433.67,-421.75 434.97,-411.23 427.4,-418.64 433.67,-421.75"/>
</g>
<!-- 29 -->
<g id="node30" class="node">
<title>29</title>
<path fill="none" stroke="#bed856" stroke-width="2" d="M356,-411C356,-411 273,-411 273,-411 267,-411 261,-405 261,-399 261,-399 261,-387 261,-387 261,-381 267,-375 273,-375 273,-375 356,-375 356,-375 362,-375 368,-381 368,-387 368,-387 368,-399 368,-399 368,-405 362,-411 356,-411"/>
<text text-anchor="middle" x="314.5" y="-390.5" font-family="sans" font-size="10.00">samtools_mpileup</text>
</g>
<!-- 21&#45;&gt;29 -->
<g id="edge50" class="edge">
<title>21&#45;&gt;29</title>
<path fill="none" stroke="grey" stroke-width="2" d="M565.95,-528.32C522.86,-521.02 464.25,-507.4 417.5,-483 385.92,-466.52 355.82,-438.59 336.4,-418.4"/>
<polygon fill="grey" stroke="grey" stroke-width="2" points="338.91,-415.96 329.5,-411.09 333.82,-420.77 338.91,-415.96"/>
</g>
<!-- 22&#45;&gt;14 -->
<g id="edge22" class="edge">
<title>22&#45;&gt;14</title>
<path fill="none" stroke="grey" stroke-width="2" d="M634,-446.94C660.43,-437.86 693.24,-426.11 730.06,-411.01"/>
<polygon fill="grey" stroke="grey" stroke-width="2" points="731.6,-414.16 739.5,-407.1 728.92,-407.69 731.6,-414.16"/>
</g>
<!-- 22&#45;&gt;15 -->
<g id="edge26" class="edge">
<title>22&#45;&gt;15</title>
<path fill="none" stroke="grey" stroke-width="2" d="M640.29,-451.5C682.6,-442.02 741.57,-428.14 801.64,-411.14"/>
<polygon fill="grey" stroke="grey" stroke-width="2" points="802.63,-414.49 811.29,-408.38 800.71,-407.76 802.63,-414.49"/>
</g>
<!-- 22&#45;&gt;16 -->
<g id="edge30" class="edge">
<title>22&#45;&gt;16</title>
<path fill="none" stroke="grey" stroke-width="2" d="M524.85,-448.93C521.69,-448.25 518.56,-447.6 515.5,-447 402.44,-425.02 367.7,-441.01 253.21,-411.11"/>
<polygon fill="grey" stroke="grey" stroke-width="2" points="253.93,-407.68 243.36,-408.48 252.12,-414.44 253.93,-407.68"/>
</g>
<!-- 22&#45;&gt;18 -->
<g id="edge35" class="edge">
<title>22&#45;&gt;18</title>
<path fill="none" stroke="grey" stroke-width="2" d="M584.23,-446.7C585,-438.98 585.93,-429.71 586.79,-421.11"/>
<polygon fill="grey" stroke="grey" stroke-width="2" points="590.28,-421.4 587.79,-411.1 583.31,-420.71 590.28,-421.4"/>
</g>
<!-- 22&#45;&gt;20 -->
<g id="edge39" class="edge">
<title>22&#45;&gt;20</title>
<path fill="none" stroke="grey" stroke-width="2" d="M606.23,-446.7C618.44,-437.8 633.49,-426.82 646.68,-417.2"/>
<polygon fill="grey" stroke="grey" stroke-width="2" points="649.02,-419.82 655.04,-411.1 644.9,-414.17 649.02,-419.82"/>
</g>
<!-- 22&#45;&gt;25 -->
<g id="edge45" class="edge">
<title>22&#45;&gt;25</title>
<path fill="none" stroke="grey" stroke-width="2" d="M548.99,-446.88C530.66,-437.51 507.76,-425.81 488.17,-415.8"/>
<polygon fill="grey" stroke="grey" stroke-width="2" points="489.64,-412.62 479.14,-411.19 486.46,-418.86 489.64,-412.62"/>
</g>
<!-- 22&#45;&gt;29 -->
<g id="edge51" class="edge">
<title>22&#45;&gt;29</title>
<path fill="none" stroke="grey" stroke-width="2" d="M524.52,-449.19C478.2,-437.34 416,-421.39 378.23,-411.43"/>
<polygon fill="grey" stroke="grey" stroke-width="2" points="378.82,-407.97 368.25,-408.79 377.03,-414.74 378.82,-407.97"/>
</g>
<!-- 23 -->
<g id="node24" class="node">
<title>23</title>
<path fill="none" stroke="#d87d56" stroke-width="2" d="M495,-483C495,-483 450,-483 450,-483 444,-483 438,-477 438,-471 438,-471 438,-459 438,-459 438,-453 444,-447 450,-447 450,-447 495,-447 495,-447 501,-447 507,-453 507,-459 507,-459 507,-471 507,-471 507,-477 501,-483 495,-483"/>
<text text-anchor="middle" x="472.5" y="-468" font-family="sans" font-size="10.00">bwa_index</text>
<text text-anchor="middle" x="472.5" y="-457" font-family="sans" font-size="10.00">REP: 1</text>
</g>
<!-- 23&#45;&gt;14 -->
<g id="edge23" class="edge">
<title>23&#45;&gt;14</title>
<path fill="none" stroke="grey" stroke-width="2" d="M507.02,-449.63C509.86,-448.67 512.72,-447.77 515.5,-447 605.84,-421.88 636.09,-438.79 729.73,-410.75"/>
<polygon fill="grey" stroke="grey" stroke-width="2" points="730.77,-414.09 739.3,-407.8 728.71,-407.4 730.77,-414.09"/>
</g>
<!-- 23&#45;&gt;15 -->
<g id="edge27" class="edge">
<title>23&#45;&gt;15</title>
<path fill="none" stroke="grey" stroke-width="2" d="M507.46,-449.35C510.16,-448.47 512.86,-447.68 515.5,-447 636.88,-415.93 675.2,-438.26 801.34,-410.99"/>
<polygon fill="grey" stroke="grey" stroke-width="2" points="802.38,-414.34 811.38,-408.75 800.86,-407.51 802.38,-414.34"/>
</g>
<!-- 23&#45;&gt;16 -->
<g id="edge31" class="edge">
<title>23&#45;&gt;16</title>
<path fill="none" stroke="grey" stroke-width="2" d="M437.96,-457.48C396.04,-449.18 323.15,-433.52 253.29,-411.36"/>
<polygon fill="grey" stroke="grey" stroke-width="2" points="254.04,-407.92 243.45,-408.19 251.89,-414.59 254.04,-407.92"/>
</g>
<!-- 23&#45;&gt;17 -->
<g id="edge33" class="edge">
<title>23&#45;&gt;17</title>
<path fill="none" stroke="grey" stroke-width="2" d="M490.67,-446.68C499.38,-437.1 508.91,-424.43 513.5,-411 518.67,-395.86 520.14,-389.56 513.5,-375 508.27,-363.53 499.2,-353.58 489.63,-345.5"/>
<polygon fill="grey" stroke="grey" stroke-width="2" points="491.57,-342.58 481.54,-339.16 487.25,-348.09 491.57,-342.58"/>
</g>
<!-- 23&#45;&gt;18 -->
<g id="edge36" class="edge">
<title>23&#45;&gt;18</title>
<path fill="none" stroke="grey" stroke-width="2" d="M501.12,-446.88C516.53,-437.66 535.73,-426.17 552.29,-416.26"/>
<polygon fill="grey" stroke="grey" stroke-width="2" points="554.39,-419.08 561.17,-410.95 550.8,-413.08 554.39,-419.08"/>
</g>
<!-- 23&#45;&gt;20 -->
<g id="edge40" class="edge">
<title>23&#45;&gt;20</title>
<path fill="none" stroke="grey" stroke-width="2" d="M507.16,-450.08C509.98,-449.02 512.78,-447.98 515.5,-447 561.45,-430.49 575.55,-427.39 625.59,-411.28"/>
<polygon fill="grey" stroke="grey" stroke-width="2" points="626.94,-414.52 635.37,-408.11 624.78,-407.86 626.94,-414.52"/>
</g>
<!-- 23&#45;&gt;25 -->
<g id="edge46" class="edge">
<title>23&#45;&gt;25</title>
<path fill="none" stroke="grey" stroke-width="2" d="M465.83,-446.7C462.79,-438.81 459.12,-429.3 455.74,-420.55"/>
<polygon fill="grey" stroke="grey" stroke-width="2" points="458.96,-419.17 452.1,-411.1 452.43,-421.69 458.96,-419.17"/>
</g>
<!-- 23&#45;&gt;29 -->
<g id="edge52" class="edge">
<title>23&#45;&gt;29</title>
<path fill="none" stroke="grey" stroke-width="2" d="M437.83,-448.64C415.69,-438.83 386.7,-425.99 362.38,-415.21"/>
<polygon fill="grey" stroke="grey" stroke-width="2" points="363.53,-411.89 352.97,-411.04 360.7,-418.29 363.53,-411.89"/>
</g>
<!-- 24 -->
<g id="node25" class="node">
<title>24</title>
<path fill="none" stroke="#97d856" stroke-width="2" d="M820,-483C820,-483 785,-483 785,-483 779,-483 773,-477 773,-471 773,-471 773,-459 773,-459 773,-453 779,-447 785,-447 785,-447 820,-447 820,-447 826,-447 832,-453 832,-459 832,-459 832,-471 832,-471 832,-477 826,-483 820,-483"/>
<text text-anchor="middle" x="802.5" y="-468" font-family="sans" font-size="10.00">gatk_idx</text>
<text text-anchor="middle" x="802.5" y="-457" font-family="sans" font-size="10.00">REP: 1</text>
</g>
<!-- 24&#45;&gt;14 -->
<g id="edge24" class="edge">
<title>24&#45;&gt;14</title>
<path fill="none" stroke="grey" stroke-width="2" d="M793.6,-446.7C789.5,-438.73 784.55,-429.1 780.01,-420.26"/>
<polygon fill="grey" stroke="grey" stroke-width="2" points="782.98,-418.4 775.3,-411.1 776.76,-421.6 782.98,-418.4"/>
</g>
<!-- 24&#45;&gt;15 -->
<g id="edge28" class="edge">
<title>24&#45;&gt;15</title>
<path fill="none" stroke="grey" stroke-width="2" d="M815.11,-446.7C821.1,-438.47 828.38,-428.48 834.98,-419.42"/>
<polygon fill="grey" stroke="grey" stroke-width="2" points="837.98,-421.25 841.04,-411.1 832.32,-417.13 837.98,-421.25"/>
</g>
<!-- 25&#45;&gt;17 -->
<g id="edge32" class="edge">
<title>25&#45;&gt;17</title>
<path fill="none" stroke="grey" stroke-width="2" d="M447.23,-374.7C448,-366.98 448.93,-357.71 449.79,-349.11"/>
<polygon fill="grey" stroke="grey" stroke-width="2" points="453.28,-349.4 450.79,-339.1 446.31,-348.71 453.28,-349.4"/>
</g>
<!-- 26 -->
<g id="node27" class="node">
<title>26</title>
<path fill="none" stroke="#d8b456" stroke-width="2" d="M365,-339C365,-339 186,-339 186,-339 180,-339 174,-333 174,-327 174,-327 174,-315 174,-315 174,-309 180,-303 186,-303 186,-303 365,-303 365,-303 371,-303 377,-309 377,-315 377,-315 377,-327 377,-327 377,-333 371,-339 365,-339"/>
<text text-anchor="middle" x="275.5" y="-324" font-family="sans" font-size="10.00">varscan</text>
<text text-anchor="middle" x="275.5" y="-313" font-family="sans" font-size="10.00">library: N100_R2_AF0.6_NR7000_REP1</text>
</g>
<!-- 26&#45;&gt;19 -->
<g id="edge37" class="edge">
<title>26&#45;&gt;19</title>
<path fill="none" stroke="grey" stroke-width="2" d="M278.58,-302.82C279.96,-295.11 281.63,-285.8 283.2,-277.03"/>
<polygon fill="grey" stroke="grey" stroke-width="2" points="286.66,-277.58 284.98,-267.12 279.77,-276.34 286.66,-277.58"/>
</g>
<!-- 27 -->
<g id="node28" class="node">
<title>27</title>
<path fill="none" stroke="#56d863" stroke-width="2" d="M656.5,-699C656.5,-699 594.5,-699 594.5,-699 588.5,-699 582.5,-693 582.5,-687 582.5,-687 582.5,-675 582.5,-675 582.5,-669 588.5,-663 594.5,-663 594.5,-663 656.5,-663 656.5,-663 662.5,-663 668.5,-669 668.5,-675 668.5,-675 668.5,-687 668.5,-687 668.5,-693 662.5,-699 656.5,-699"/>
<text text-anchor="middle" x="625.5" y="-678.5" font-family="sans" font-size="10.00">samtools_sort</text>
</g>
<!-- 27&#45;&gt;21 -->
<g id="edge41" class="edge">
<title>27&#45;&gt;21</title>
<path fill="none" stroke="grey" stroke-width="2" d="M618.02,-662.7C614.03,-652.52 609.53,-639.27 607.5,-627 604.89,-611.21 604.89,-606.79 607.5,-591 608.94,-582.28 611.63,-573.06 614.5,-564.8"/>
<polygon fill="grey" stroke="grey" stroke-width="2" points="617.83,-565.89 618.02,-555.3 611.27,-563.46 617.83,-565.89"/>
</g>
<!-- 28 -->
<g id="node29" class="node">
<title>28</title>
<path fill="none" stroke="#d6d856" stroke-width="2" d="M698.5,-627C698.5,-627 628.5,-627 628.5,-627 622.5,-627 616.5,-621 616.5,-615 616.5,-615 616.5,-603 616.5,-603 616.5,-597 622.5,-591 628.5,-591 628.5,-591 698.5,-591 698.5,-591 704.5,-591 710.5,-597 710.5,-603 710.5,-603 710.5,-615 710.5,-615 710.5,-621 704.5,-627 698.5,-627"/>
<text text-anchor="middle" x="663.5" y="-606.5" font-family="sans" font-size="10.00">samtools_index</text>
</g>
<!-- 27&#45;&gt;28 -->
<g id="edge49" class="edge">
<title>27&#45;&gt;28</title>
<path fill="none" stroke="grey" stroke-width="2" d="M634.89,-662.7C639.26,-654.64 644.56,-644.89 649.4,-635.98"/>
<polygon fill="grey" stroke="grey" stroke-width="2" points="652.52,-637.56 654.21,-627.1 646.37,-634.22 652.52,-637.56"/>
</g>
<!-- 28&#45;&gt;21 -->
<g id="edge42" class="edge">
<title>28&#45;&gt;21</title>
<path fill="none" stroke="grey" stroke-width="2" d="M654.11,-590.7C649.74,-582.64 644.44,-572.89 639.6,-563.98"/>
<polygon fill="grey" stroke="grey" stroke-width="2" points="642.63,-562.22 634.79,-555.1 636.48,-565.56 642.63,-562.22"/>
</g>
<!-- 29&#45;&gt;26 -->
<g id="edge47" class="edge">
<title>29&#45;&gt;26</title>
<path fill="none" stroke="grey" stroke-width="2" d="M304.86,-374.7C300.37,-366.64 294.94,-356.89 289.98,-347.98"/>
<polygon fill="grey" stroke="grey" stroke-width="2" points="292.95,-346.14 285.03,-339.1 286.84,-349.54 292.95,-346.14"/>
</g>
<!-- 30 -->
<g id="node31" class="node">
<title>30</title>
<path fill="none" stroke="#d86656" stroke-width="2" d="M691,-776C691,-776 560,-776 560,-776 554,-776 548,-770 548,-764 548,-764 548,-747 548,-747 548,-741 554,-735 560,-735 560,-735 691,-735 691,-735 697,-735 703,-741 703,-747 703,-747 703,-764 703,-764 703,-770 697,-776 691,-776"/>
<text text-anchor="middle" x="625.5" y="-764" font-family="sans" font-size="10.00">bwa_mem</text>
<text text-anchor="middle" x="625.5" y="-753" font-family="sans" font-size="10.00">REP: 1</text>
<text text-anchor="middle" x="625.5" y="-742" font-family="sans" font-size="10.00">lib: N100_R2_AF0.6_NR7000</text>
</g>
<!-- 30&#45;&gt;27 -->
<g id="edge48" class="edge">
<title>30&#45;&gt;27</title>
<path fill="none" stroke="grey" stroke-width="2" d="M625.5,-734.69C625.5,-726.91 625.5,-717.84 625.5,-709.45"/>
<polygon fill="grey" stroke="grey" stroke-width="2" points="629,-709.32 625.5,-699.32 622,-709.32 629,-709.32"/>
</g>
<!-- 31 -->
<g id="node32" class="node">
<title>31</title>
<path fill="none" stroke="#567bd8" stroke-width="2" d="M715,-848C715,-848 536,-848 536,-848 530,-848 524,-842 524,-836 524,-836 524,-824 524,-824 524,-818 530,-812 536,-812 536,-812 715,-812 715,-812 721,-812 727,-818 727,-824 727,-824 727,-836 727,-836 727,-842 721,-848 715,-848"/>
<text text-anchor="middle" x="625.5" y="-833" font-family="sans" font-size="10.00">trimmomatic</text>
<text text-anchor="middle" x="625.5" y="-822" font-family="sans" font-size="10.00">library: N100_R2_AF0.6_NR7000_REP1</text>
</g>
<!-- 31&#45;&gt;30 -->
<g id="edge53" class="edge">
<title>31&#45;&gt;30</title>
<path fill="none" stroke="grey" stroke-width="2" d="M625.5,-811.82C625.5,-804.2 625.5,-795 625.5,-786.32"/>
<polygon fill="grey" stroke="grey" stroke-width="2" points="629,-786.12 625.5,-776.12 622,-786.12 629,-786.12"/>
</g>
</g>
</svg>
