<?xml version="1.0" encoding="UTF-8" standalone="no"?>
<!DOCTYPE svg PUBLIC "-//W3C//DTD SVG 1.1//EN"
 "http://www.w3.org/Graphics/SVG/1.1/DTD/svg11.dtd">
<!-- Generated by graphviz version 2.43.0 (0)
 -->
<!-- Title: snakemake_dag Pages: 1 -->
<svg width="1927pt" height="769pt"
 viewBox="0.00 0.00 1926.97 769.00" xmlns="http://www.w3.org/2000/svg" xmlns:xlink="http://www.w3.org/1999/xlink">
<g id="graph0" class="graph" transform="scale(1 1) rotate(0) translate(4 765)">
<title>snakemake_dag</title>
<polygon fill="white" stroke="transparent" points="-4,4 -4,-765 1922.97,-765 1922.97,4 -4,4"/>
<!-- 0 -->
<g id="node1" class="node">
<title>0</title>
<path fill="none" stroke="#d87556" stroke-width="2" stroke-dasharray="5,2" d="M924,-36C924,-36 894,-36 894,-36 888,-36 882,-30 882,-24 882,-24 882,-12 882,-12 882,-6 888,0 894,0 894,0 924,0 924,0 930,0 936,-6 936,-12 936,-12 936,-24 936,-24 936,-30 930,-36 924,-36"/>
<text text-anchor="middle" x="909" y="-15.5" font-family="sans" font-size="10.00">all</text>
</g>
<!-- 1 -->
<g id="node2" class="node">
<title>1</title>
<path fill="none" stroke="#5673d8" stroke-width="2" stroke-dasharray="5,2" d="M1676.5,-257C1676.5,-257 1589.5,-257 1589.5,-257 1583.5,-257 1577.5,-251 1577.5,-245 1577.5,-245 1577.5,-233 1577.5,-233 1577.5,-227 1583.5,-221 1589.5,-221 1589.5,-221 1676.5,-221 1676.5,-221 1682.5,-221 1688.5,-227 1688.5,-233 1688.5,-233 1688.5,-245 1688.5,-245 1688.5,-251 1682.5,-257 1676.5,-257"/>
<text text-anchor="middle" x="1633" y="-236.5" font-family="sans" font-size="10.00">samtools_view_md</text>
</g>
<!-- 1&#45;&gt;0 -->
<g id="edge1" class="edge">
<title>1&#45;&gt;0</title>
<path fill="none" stroke="grey" stroke-width="2" d="M1577.39,-221.18C1435.82,-178.36 1064.62,-66.07 946.01,-30.19"/>
<polygon fill="grey" stroke="grey" stroke-width="2" points="946.88,-26.8 936.29,-27.26 944.85,-33.5 946.88,-26.8"/>
</g>
<!-- 6 -->
<g id="node7" class="node">
<title>6</title>
<path fill="none" stroke="#56d882" stroke-width="2" stroke-dasharray="5,2" d="M1664,-113C1664,-113 1606,-113 1606,-113 1600,-113 1594,-107 1594,-101 1594,-101 1594,-84 1594,-84 1594,-78 1600,-72 1606,-72 1606,-72 1664,-72 1664,-72 1670,-72 1676,-78 1676,-84 1676,-84 1676,-101 1676,-101 1676,-107 1670,-113 1664,-113"/>
<text text-anchor="middle" x="1635" y="-101" font-family="sans" font-size="10.00">strelka2</text>
<text text-anchor="middle" x="1635" y="-90" font-family="sans" font-size="10.00">normal: test2</text>
<text text-anchor="middle" x="1635" y="-79" font-family="sans" font-size="10.00">tumor: test1</text>
</g>
<!-- 1&#45;&gt;6 -->
<g id="edge34" class="edge">
<title>1&#45;&gt;6</title>
<path fill="none" stroke="grey" stroke-width="2" d="M1666.36,-220.86C1679.71,-212.09 1693.64,-200.06 1701,-185 1708.02,-170.62 1707.75,-163.5 1701,-149 1695.61,-137.43 1686.5,-127.42 1676.74,-119.2"/>
<polygon fill="grey" stroke="grey" stroke-width="2" points="1678.86,-116.42 1668.83,-113 1674.54,-121.93 1678.86,-116.42"/>
</g>
<!-- 27 -->
<g id="node28" class="node">
<title>27</title>
<path fill="none" stroke="#d85656" stroke-width="2" stroke-dasharray="5,2" d="M1680.5,-185C1680.5,-185 1589.5,-185 1589.5,-185 1583.5,-185 1577.5,-179 1577.5,-173 1577.5,-173 1577.5,-161 1577.5,-161 1577.5,-155 1583.5,-149 1589.5,-149 1589.5,-149 1680.5,-149 1680.5,-149 1686.5,-149 1692.5,-155 1692.5,-161 1692.5,-161 1692.5,-173 1692.5,-173 1692.5,-179 1686.5,-185 1680.5,-185"/>
<text text-anchor="middle" x="1635" y="-164.5" font-family="sans" font-size="10.00">samtools_index_md</text>
</g>
<!-- 1&#45;&gt;27 -->
<g id="edge69" class="edge">
<title>1&#45;&gt;27</title>
<path fill="none" stroke="grey" stroke-width="2" d="M1633.49,-220.7C1633.71,-212.98 1633.98,-203.71 1634.23,-195.11"/>
<polygon fill="grey" stroke="grey" stroke-width="2" points="1637.72,-195.2 1634.51,-185.1 1630.73,-195 1637.72,-195.2"/>
</g>
<!-- 2 -->
<g id="node3" class="node">
<title>2</title>
<path fill="none" stroke="#5673d8" stroke-width="2" stroke-dasharray="5,2" d="M187.5,-257C187.5,-257 100.5,-257 100.5,-257 94.5,-257 88.5,-251 88.5,-245 88.5,-245 88.5,-233 88.5,-233 88.5,-227 94.5,-221 100.5,-221 100.5,-221 187.5,-221 187.5,-221 193.5,-221 199.5,-227 199.5,-233 199.5,-233 199.5,-245 199.5,-245 199.5,-251 193.5,-257 187.5,-257"/>
<text text-anchor="middle" x="144" y="-236.5" font-family="sans" font-size="10.00">samtools_view_md</text>
</g>
<!-- 2&#45;&gt;0 -->
<g id="edge2" class="edge">
<title>2&#45;&gt;0</title>
<path fill="none" stroke="grey" stroke-width="2" d="M97.48,-220.85C81.75,-212.56 65.92,-200.88 57,-185 49.16,-171.05 48.84,-162.76 57,-149 93.43,-87.59 129.52,-92.22 198,-72 326.17,-34.15 743.96,-22.45 871.62,-19.71"/>
<polygon fill="grey" stroke="grey" stroke-width="2" points="871.76,-23.21 881.68,-19.5 871.61,-16.21 871.76,-23.21"/>
</g>
<!-- 7 -->
<g id="node8" class="node">
<title>7</title>
<path fill="none" stroke="#56d882" stroke-width="2" stroke-dasharray="5,2" d="M277,-113C277,-113 219,-113 219,-113 213,-113 207,-107 207,-101 207,-101 207,-84 207,-84 207,-78 213,-72 219,-72 219,-72 277,-72 277,-72 283,-72 289,-78 289,-84 289,-84 289,-101 289,-101 289,-107 283,-113 277,-113"/>
<text text-anchor="middle" x="248" y="-101" font-family="sans" font-size="10.00">strelka2</text>
<text text-anchor="middle" x="248" y="-90" font-family="sans" font-size="10.00">normal: test2</text>
<text text-anchor="middle" x="248" y="-79" font-family="sans" font-size="10.00">tumor: test1</text>
</g>
<!-- 2&#45;&gt;7 -->
<g id="edge40" class="edge">
<title>2&#45;&gt;7</title>
<path fill="none" stroke="grey" stroke-width="2" d="M160.02,-220.88C169.19,-210.76 180.69,-197.51 190,-185 205.08,-164.74 220.3,-140.55 231.37,-122.13"/>
<polygon fill="grey" stroke="grey" stroke-width="2" points="234.49,-123.72 236.6,-113.34 228.48,-120.15 234.49,-123.72"/>
</g>
<!-- 30 -->
<g id="node31" class="node">
<title>30</title>
<path fill="none" stroke="#d85656" stroke-width="2" stroke-dasharray="5,2" d="M169.5,-185C169.5,-185 78.5,-185 78.5,-185 72.5,-185 66.5,-179 66.5,-173 66.5,-173 66.5,-161 66.5,-161 66.5,-155 72.5,-149 78.5,-149 78.5,-149 169.5,-149 169.5,-149 175.5,-149 181.5,-155 181.5,-161 181.5,-161 181.5,-173 181.5,-173 181.5,-179 175.5,-185 169.5,-185"/>
<text text-anchor="middle" x="124" y="-164.5" font-family="sans" font-size="10.00">samtools_index_md</text>
</g>
<!-- 2&#45;&gt;30 -->
<g id="edge72" class="edge">
<title>2&#45;&gt;30</title>
<path fill="none" stroke="grey" stroke-width="2" d="M139.06,-220.7C136.83,-212.9 134.15,-203.51 131.67,-194.83"/>
<polygon fill="grey" stroke="grey" stroke-width="2" points="135,-193.76 128.89,-185.1 128.27,-195.68 135,-193.76"/>
</g>
<!-- 3 -->
<g id="node4" class="node">
<title>3</title>
<path fill="none" stroke="#5673d8" stroke-width="2" stroke-dasharray="5,2" d="M1805.5,-257C1805.5,-257 1718.5,-257 1718.5,-257 1712.5,-257 1706.5,-251 1706.5,-245 1706.5,-245 1706.5,-233 1706.5,-233 1706.5,-227 1712.5,-221 1718.5,-221 1718.5,-221 1805.5,-221 1805.5,-221 1811.5,-221 1817.5,-227 1817.5,-233 1817.5,-233 1817.5,-245 1817.5,-245 1817.5,-251 1811.5,-257 1805.5,-257"/>
<text text-anchor="middle" x="1762" y="-236.5" font-family="sans" font-size="10.00">samtools_view_md</text>
</g>
<!-- 3&#45;&gt;0 -->
<g id="edge3" class="edge">
<title>3&#45;&gt;0</title>
<path fill="none" stroke="grey" stroke-width="2" d="M1817.54,-233.89C1850.83,-228.22 1890.71,-215.1 1912,-185 1921.24,-171.94 1921.32,-162 1912,-149 1849.94,-62.41 1789.46,-92.92 1685,-72 1540.94,-43.15 1081.09,-25.05 946.41,-20.27"/>
<polygon fill="grey" stroke="grey" stroke-width="2" points="946.31,-16.77 936.19,-19.91 946.06,-23.76 946.31,-16.77"/>
</g>
<!-- 3&#45;&gt;6 -->
<g id="edge33" class="edge">
<title>3&#45;&gt;6</title>
<path fill="none" stroke="grey" stroke-width="2" d="M1756.51,-220.71C1749.77,-201.54 1736.87,-170.51 1718,-149 1707.78,-137.36 1694.58,-127.08 1681.73,-118.63"/>
<polygon fill="grey" stroke="grey" stroke-width="2" points="1683.25,-115.45 1672.92,-113.08 1679.52,-121.37 1683.25,-115.45"/>
</g>
<!-- 26 -->
<g id="node27" class="node">
<title>26</title>
<path fill="none" stroke="#d85656" stroke-width="2" stroke-dasharray="5,2" d="M1890.5,-185C1890.5,-185 1799.5,-185 1799.5,-185 1793.5,-185 1787.5,-179 1787.5,-173 1787.5,-173 1787.5,-161 1787.5,-161 1787.5,-155 1793.5,-149 1799.5,-149 1799.5,-149 1890.5,-149 1890.5,-149 1896.5,-149 1902.5,-155 1902.5,-161 1902.5,-161 1902.5,-173 1902.5,-173 1902.5,-179 1896.5,-185 1890.5,-185"/>
<text text-anchor="middle" x="1845" y="-164.5" font-family="sans" font-size="10.00">samtools_index_md</text>
</g>
<!-- 3&#45;&gt;26 -->
<g id="edge68" class="edge">
<title>3&#45;&gt;26</title>
<path fill="none" stroke="grey" stroke-width="2" d="M1782.52,-220.7C1792.87,-211.97 1805.59,-201.24 1816.84,-191.75"/>
<polygon fill="grey" stroke="grey" stroke-width="2" points="1819.33,-194.23 1824.72,-185.1 1814.82,-188.88 1819.33,-194.23"/>
</g>
<!-- 4 -->
<g id="node5" class="node">
<title>4</title>
<path fill="none" stroke="#5673d8" stroke-width="2" stroke-dasharray="5,2" d="M355.5,-257C355.5,-257 268.5,-257 268.5,-257 262.5,-257 256.5,-251 256.5,-245 256.5,-245 256.5,-233 256.5,-233 256.5,-227 262.5,-221 268.5,-221 268.5,-221 355.5,-221 355.5,-221 361.5,-221 367.5,-227 367.5,-233 367.5,-233 367.5,-245 367.5,-245 367.5,-251 361.5,-257 355.5,-257"/>
<text text-anchor="middle" x="312" y="-236.5" font-family="sans" font-size="10.00">samtools_view_md</text>
</g>
<!-- 4&#45;&gt;0 -->
<g id="edge4" class="edge">
<title>4&#45;&gt;0</title>
<path fill="none" stroke="grey" stroke-width="2" d="M358.35,-221C473.13,-178.89 768.81,-70.43 872.45,-32.41"/>
<polygon fill="grey" stroke="grey" stroke-width="2" points="873.68,-35.68 881.86,-28.95 871.27,-29.11 873.68,-35.68"/>
</g>
<!-- 4&#45;&gt;7 -->
<g id="edge39" class="edge">
<title>4&#45;&gt;7</title>
<path fill="none" stroke="grey" stroke-width="2" d="M304.41,-220.86C293.7,-196.68 274.01,-152.22 260.96,-122.76"/>
<polygon fill="grey" stroke="grey" stroke-width="2" points="264.06,-121.12 256.81,-113.39 257.66,-123.95 264.06,-121.12"/>
</g>
<!-- 29 -->
<g id="node30" class="node">
<title>29</title>
<path fill="none" stroke="#d85656" stroke-width="2" stroke-dasharray="5,2" d="M417.5,-185C417.5,-185 326.5,-185 326.5,-185 320.5,-185 314.5,-179 314.5,-173 314.5,-173 314.5,-161 314.5,-161 314.5,-155 320.5,-149 326.5,-149 326.5,-149 417.5,-149 417.5,-149 423.5,-149 429.5,-155 429.5,-161 429.5,-161 429.5,-173 429.5,-173 429.5,-179 423.5,-185 417.5,-185"/>
<text text-anchor="middle" x="372" y="-164.5" font-family="sans" font-size="10.00">samtools_index_md</text>
</g>
<!-- 4&#45;&gt;29 -->
<g id="edge71" class="edge">
<title>4&#45;&gt;29</title>
<path fill="none" stroke="grey" stroke-width="2" d="M326.83,-220.7C334.02,-212.3 342.8,-202.07 350.69,-192.86"/>
<polygon fill="grey" stroke="grey" stroke-width="2" points="353.49,-194.97 357.34,-185.1 348.17,-190.42 353.49,-194.97"/>
</g>
<!-- 5 -->
<g id="node6" class="node">
<title>5</title>
<path fill="none" stroke="#56d863" stroke-width="2" stroke-dasharray="5,2" d="M924,-185C924,-185 894,-185 894,-185 888,-185 882,-179 882,-173 882,-173 882,-161 882,-161 882,-155 888,-149 894,-149 894,-149 924,-149 924,-149 930,-149 936,-155 936,-161 936,-161 936,-173 936,-173 936,-179 930,-185 924,-185"/>
<text text-anchor="middle" x="909" y="-164.5" font-family="sans" font-size="10.00">multiqc</text>
</g>
<!-- 5&#45;&gt;0 -->
<g id="edge5" class="edge">
<title>5&#45;&gt;0</title>
<path fill="none" stroke="grey" stroke-width="2" d="M909,-148.85C909,-123.62 909,-76.26 909,-46.24"/>
<polygon fill="grey" stroke="grey" stroke-width="2" points="912.5,-46.04 909,-36.04 905.5,-46.04 912.5,-46.04"/>
</g>
<!-- 6&#45;&gt;0 -->
<g id="edge6" class="edge">
<title>6&#45;&gt;0</title>
<path fill="none" stroke="grey" stroke-width="2" d="M1593.87,-83.31C1573.26,-79.43 1547.88,-75.01 1525,-72 1306.51,-43.29 1042.28,-26.54 946.2,-21.03"/>
<polygon fill="grey" stroke="grey" stroke-width="2" points="946.3,-17.53 936.11,-20.46 945.9,-24.52 946.3,-17.53"/>
</g>
<!-- 7&#45;&gt;0 -->
<g id="edge7" class="edge">
<title>7&#45;&gt;0</title>
<path fill="none" stroke="grey" stroke-width="2" d="M289.35,-86.96C409.39,-73.8 756.7,-35.7 871.6,-23.1"/>
<polygon fill="grey" stroke="grey" stroke-width="2" points="872.11,-26.57 881.67,-22 871.35,-19.61 872.11,-26.57"/>
</g>
<!-- 8 -->
<g id="node9" class="node">
<title>8</title>
<path fill="none" stroke="#d8ac56" stroke-width="2" stroke-dasharray="5,2" d="M1350.5,-329C1350.5,-329 1255.5,-329 1255.5,-329 1249.5,-329 1243.5,-323 1243.5,-317 1243.5,-317 1243.5,-305 1243.5,-305 1243.5,-299 1249.5,-293 1255.5,-293 1255.5,-293 1350.5,-293 1350.5,-293 1356.5,-293 1362.5,-299 1362.5,-305 1362.5,-305 1362.5,-317 1362.5,-317 1362.5,-323 1356.5,-329 1350.5,-329"/>
<text text-anchor="middle" x="1303" y="-308.5" font-family="sans" font-size="10.00">gatk_markduplicates</text>
</g>
<!-- 8&#45;&gt;1 -->
<g id="edge8" class="edge">
<title>8&#45;&gt;1</title>
<path fill="none" stroke="grey" stroke-width="2" d="M1362.76,-297.32C1420.44,-285.09 1507.56,-266.61 1567.19,-253.96"/>
<polygon fill="grey" stroke="grey" stroke-width="2" points="1568.2,-257.32 1577.26,-251.82 1566.75,-250.48 1568.2,-257.32"/>
</g>
<!-- 8&#45;&gt;5 -->
<g id="edge28" class="edge">
<title>8&#45;&gt;5</title>
<path fill="none" stroke="grey" stroke-width="2" d="M1287.39,-292.73C1265.03,-268.15 1225.59,-225.55 1217,-221 1128.32,-174.1 1007.07,-167.3 946.56,-167.14"/>
<polygon fill="grey" stroke="grey" stroke-width="2" points="946.32,-163.64 936.33,-167.18 946.35,-170.64 946.32,-163.64"/>
</g>
<!-- 18 -->
<g id="node19" class="node">
<title>18</title>
<path fill="none" stroke="#61d856" stroke-width="2" stroke-dasharray="5,2" d="M1343.5,-257C1343.5,-257 1276.5,-257 1276.5,-257 1270.5,-257 1264.5,-251 1264.5,-245 1264.5,-245 1264.5,-233 1264.5,-233 1264.5,-227 1270.5,-221 1276.5,-221 1276.5,-221 1343.5,-221 1343.5,-221 1349.5,-221 1355.5,-227 1355.5,-233 1355.5,-233 1355.5,-245 1355.5,-245 1355.5,-251 1349.5,-257 1343.5,-257"/>
<text text-anchor="middle" x="1310" y="-236.5" font-family="sans" font-size="10.00">samtools_stats</text>
</g>
<!-- 8&#45;&gt;18 -->
<g id="edge60" class="edge">
<title>8&#45;&gt;18</title>
<path fill="none" stroke="grey" stroke-width="2" d="M1304.73,-292.7C1305.5,-284.98 1306.43,-275.71 1307.29,-267.11"/>
<polygon fill="grey" stroke="grey" stroke-width="2" points="1310.78,-267.4 1308.29,-257.1 1303.81,-266.71 1310.78,-267.4"/>
</g>
<!-- 22 -->
<g id="node23" class="node">
<title>22</title>
<path fill="none" stroke="#56a9d8" stroke-width="2" stroke-dasharray="5,2" d="M1196,-257C1196,-257 1158,-257 1158,-257 1152,-257 1146,-251 1146,-245 1146,-245 1146,-233 1146,-233 1146,-227 1152,-221 1158,-221 1158,-221 1196,-221 1196,-221 1202,-221 1208,-227 1208,-233 1208,-233 1208,-245 1208,-245 1208,-251 1202,-257 1196,-257"/>
<text text-anchor="middle" x="1177" y="-236.5" font-family="sans" font-size="10.00">qualimap</text>
</g>
<!-- 8&#45;&gt;22 -->
<g id="edge64" class="edge">
<title>8&#45;&gt;22</title>
<path fill="none" stroke="grey" stroke-width="2" d="M1272.18,-292.88C1255.55,-283.64 1234.84,-272.13 1216.98,-262.21"/>
<polygon fill="grey" stroke="grey" stroke-width="2" points="1218.38,-258.99 1207.94,-257.19 1214.98,-265.11 1218.38,-258.99"/>
</g>
<!-- 9 -->
<g id="node10" class="node">
<title>9</title>
<path fill="none" stroke="#80d856" stroke-width="2" stroke-dasharray="5,2" d="M1388.5,-761C1388.5,-761 1269.5,-761 1269.5,-761 1263.5,-761 1257.5,-755 1257.5,-749 1257.5,-749 1257.5,-737 1257.5,-737 1257.5,-731 1263.5,-725 1269.5,-725 1269.5,-725 1388.5,-725 1388.5,-725 1394.5,-725 1400.5,-731 1400.5,-737 1400.5,-737 1400.5,-749 1400.5,-749 1400.5,-755 1394.5,-761 1388.5,-761"/>
<text text-anchor="middle" x="1329" y="-746" font-family="sans" font-size="10.00">samtools_faidx_split</text>
<text text-anchor="middle" x="1329" y="-735" font-family="sans" font-size="10.00">chromosome: Qrob_Chr01</text>
</g>
<!-- 9&#45;&gt;1 -->
<g id="edge9" class="edge">
<title>9&#45;&gt;1</title>
<path fill="none" stroke="grey" stroke-width="2" d="M1400.71,-734.59C1461.13,-726.81 1541.14,-712.4 1563,-689 1620.59,-627.35 1630.81,-355.37 1632.62,-267.49"/>
<polygon fill="grey" stroke="grey" stroke-width="2" points="1636.12,-267.32 1632.8,-257.25 1629.12,-267.19 1636.12,-267.32"/>
</g>
<!-- 9&#45;&gt;3 -->
<g id="edge13" class="edge">
<title>9&#45;&gt;3</title>
<path fill="none" stroke="grey" stroke-width="2" d="M1400.65,-741.84C1498.79,-737.41 1663,-713.1 1663,-600 1663,-600 1663,-600 1663,-382 1663,-333.38 1702.54,-289.5 1731.65,-263.78"/>
<polygon fill="grey" stroke="grey" stroke-width="2" points="1734.22,-266.19 1739.54,-257.03 1729.66,-260.87 1734.22,-266.19"/>
</g>
<!-- 9&#45;&gt;6 -->
<g id="edge32" class="edge">
<title>9&#45;&gt;6</title>
<path fill="none" stroke="grey" stroke-width="2" d="M1400.73,-727.17C1464.93,-709.2 1549,-671.94 1549,-600 1549,-600 1549,-600 1549,-238 1549,-197.55 1547.04,-183.59 1568,-149 1574.79,-137.79 1584.68,-127.8 1594.79,-119.49"/>
<polygon fill="grey" stroke="grey" stroke-width="2" points="1597.13,-122.1 1602.88,-113.2 1592.84,-116.57 1597.13,-122.1"/>
</g>
<!-- 9&#45;&gt;8 -->
<g id="edge45" class="edge">
<title>9&#45;&gt;8</title>
<path fill="none" stroke="grey" stroke-width="2" d="M1400.51,-732.42C1426.82,-725.04 1454.07,-712.01 1470,-689 1479.11,-675.85 1473.61,-668.59 1470,-653 1440.61,-526.17 1357.17,-392.07 1320.57,-337.41"/>
<polygon fill="grey" stroke="grey" stroke-width="2" points="1323.41,-335.36 1314.91,-329.03 1317.61,-339.28 1323.41,-335.36"/>
</g>
<!-- 12 -->
<g id="node13" class="node">
<title>12</title>
<path fill="none" stroke="#d8ac56" stroke-width="2" stroke-dasharray="5,2" d="M1087.5,-329C1087.5,-329 992.5,-329 992.5,-329 986.5,-329 980.5,-323 980.5,-317 980.5,-317 980.5,-305 980.5,-305 980.5,-299 986.5,-293 992.5,-293 992.5,-293 1087.5,-293 1087.5,-293 1093.5,-293 1099.5,-299 1099.5,-305 1099.5,-305 1099.5,-317 1099.5,-317 1099.5,-323 1093.5,-329 1087.5,-329"/>
<text text-anchor="middle" x="1040" y="-308.5" font-family="sans" font-size="10.00">gatk_markduplicates</text>
</g>
<!-- 9&#45;&gt;12 -->
<g id="edge51" class="edge">
<title>9&#45;&gt;12</title>
<path fill="none" stroke="grey" stroke-width="2" d="M1257.23,-739.51C1177.99,-735.09 1057.79,-722.84 1029,-689 1008.26,-664.62 1028.22,-649 1028,-617 1027.89,-601 1023.36,-596.31 1028,-581 1033.57,-562.6 1046.43,-563.4 1052,-545 1054.42,-537.01 1051.73,-469.11 1050,-437 1048.19,-403.33 1044.91,-364.65 1042.6,-339.34"/>
<polygon fill="grey" stroke="grey" stroke-width="2" points="1046.08,-339.01 1041.68,-329.37 1039.11,-339.65 1046.08,-339.01"/>
</g>
<!-- 28 -->
<g id="node29" class="node">
<title>28</title>
<path fill="none" stroke="#ced856" stroke-width="2" stroke-dasharray="5,2" d="M1432.5,-689C1432.5,-689 1387.5,-689 1387.5,-689 1381.5,-689 1375.5,-683 1375.5,-677 1375.5,-677 1375.5,-665 1375.5,-665 1375.5,-659 1381.5,-653 1387.5,-653 1387.5,-653 1432.5,-653 1432.5,-653 1438.5,-653 1444.5,-659 1444.5,-665 1444.5,-665 1444.5,-677 1444.5,-677 1444.5,-683 1438.5,-689 1432.5,-689"/>
<text text-anchor="middle" x="1410" y="-668.5" font-family="sans" font-size="10.00">bwa_index</text>
</g>
<!-- 9&#45;&gt;28 -->
<g id="edge70" class="edge">
<title>9&#45;&gt;28</title>
<path fill="none" stroke="grey" stroke-width="2" d="M1349.02,-724.7C1359.13,-715.97 1371.54,-705.24 1382.52,-695.75"/>
<polygon fill="grey" stroke="grey" stroke-width="2" points="1384.93,-698.29 1390.21,-689.1 1380.35,-692.99 1384.93,-698.29"/>
</g>
<!-- 42 -->
<g id="node43" class="node">
<title>42</title>
<path fill="none" stroke="#b6d856" stroke-width="2" stroke-dasharray="5,2" d="M1329,-545C1329,-545 1263,-545 1263,-545 1257,-545 1251,-539 1251,-533 1251,-533 1251,-521 1251,-521 1251,-515 1257,-509 1263,-509 1263,-509 1329,-509 1329,-509 1335,-509 1341,-515 1341,-521 1341,-521 1341,-533 1341,-533 1341,-539 1335,-545 1329,-545"/>
<text text-anchor="middle" x="1296" y="-524.5" font-family="sans" font-size="10.00">samtools_view</text>
</g>
<!-- 9&#45;&gt;42 -->
<g id="edge83" class="edge">
<title>9&#45;&gt;42</title>
<path fill="none" stroke="grey" stroke-width="2" d="M1400.56,-727.25C1420.94,-719.39 1440.88,-707.37 1453,-689 1461.81,-675.65 1459.95,-667.41 1453,-653 1430.2,-605.7 1379.82,-570.76 1342.24,-550.03"/>
<polygon fill="grey" stroke="grey" stroke-width="2" points="1343.46,-546.71 1332.99,-545.07 1340.15,-552.88 1343.46,-546.71"/>
</g>
<!-- 44 -->
<g id="node45" class="node">
<title>44</title>
<path fill="none" stroke="#b6d856" stroke-width="2" stroke-dasharray="5,2" d="M1031,-545C1031,-545 965,-545 965,-545 959,-545 953,-539 953,-533 953,-533 953,-521 953,-521 953,-515 959,-509 965,-509 965,-509 1031,-509 1031,-509 1037,-509 1043,-515 1043,-521 1043,-521 1043,-533 1043,-533 1043,-539 1037,-545 1031,-545"/>
<text text-anchor="middle" x="998" y="-524.5" font-family="sans" font-size="10.00">samtools_view</text>
</g>
<!-- 9&#45;&gt;44 -->
<g id="edge87" class="edge">
<title>9&#45;&gt;44</title>
<path fill="none" stroke="grey" stroke-width="2" d="M1257.35,-742.06C1163.2,-740.43 1005.49,-731.25 969,-689 936.28,-651.11 962.36,-589.08 981.79,-554.11"/>
<polygon fill="grey" stroke="grey" stroke-width="2" points="984.83,-555.83 986.79,-545.42 978.77,-552.34 984.83,-555.83"/>
</g>
<!-- 46 -->
<g id="node47" class="node">
<title>46</title>
<path fill="none" stroke="#56c1d8" stroke-width="2" stroke-dasharray="5,2" d="M1305,-617C1305,-617 1261,-617 1261,-617 1255,-617 1249,-611 1249,-605 1249,-605 1249,-593 1249,-593 1249,-587 1255,-581 1261,-581 1261,-581 1305,-581 1305,-581 1311,-581 1317,-587 1317,-593 1317,-593 1317,-605 1317,-605 1317,-611 1311,-617 1305,-617"/>
<text text-anchor="middle" x="1283" y="-596.5" font-family="sans" font-size="10.00">bwa_mem</text>
</g>
<!-- 9&#45;&gt;46 -->
<g id="edge90" class="edge">
<title>9&#45;&gt;46</title>
<path fill="none" stroke="grey" stroke-width="2" d="M1299.96,-724.84C1287.68,-715.87 1274.69,-703.68 1268,-689 1259.01,-669.27 1264.12,-644.87 1270.71,-626.61"/>
<polygon fill="grey" stroke="grey" stroke-width="2" points="1274.03,-627.75 1274.45,-617.16 1267.52,-625.17 1274.03,-627.75"/>
</g>
<!-- 48 -->
<g id="node49" class="node">
<title>48</title>
<path fill="none" stroke="#56c1d8" stroke-width="2" stroke-dasharray="5,2" d="M1093,-617C1093,-617 1049,-617 1049,-617 1043,-617 1037,-611 1037,-605 1037,-605 1037,-593 1037,-593 1037,-587 1043,-581 1049,-581 1049,-581 1093,-581 1093,-581 1099,-581 1105,-587 1105,-593 1105,-593 1105,-605 1105,-605 1105,-611 1099,-617 1093,-617"/>
<text text-anchor="middle" x="1071" y="-596.5" font-family="sans" font-size="10.00">bwa_mem</text>
</g>
<!-- 9&#45;&gt;48 -->
<g id="edge100" class="edge">
<title>9&#45;&gt;48</title>
<path fill="none" stroke="grey" stroke-width="2" d="M1257.35,-739.04C1180.92,-734.19 1067.14,-721.58 1040,-689 1024.83,-670.8 1036.75,-644.71 1049.95,-625.48"/>
<polygon fill="grey" stroke="grey" stroke-width="2" points="1052.95,-627.32 1056.02,-617.18 1047.29,-623.19 1052.95,-627.32"/>
</g>
<!-- 50 -->
<g id="node51" class="node">
<title>50</title>
<path fill="none" stroke="#568ad8" stroke-width="2" stroke-dasharray="5,2" d="M1209,-689C1209,-689 1141,-689 1141,-689 1135,-689 1129,-683 1129,-677 1129,-677 1129,-665 1129,-665 1129,-659 1135,-653 1141,-653 1141,-653 1209,-653 1209,-653 1215,-653 1221,-659 1221,-665 1221,-665 1221,-677 1221,-677 1221,-683 1215,-689 1209,-689"/>
<text text-anchor="middle" x="1175" y="-668.5" font-family="sans" font-size="10.00">samtools_faidx</text>
</g>
<!-- 9&#45;&gt;50 -->
<g id="edge110" class="edge">
<title>9&#45;&gt;50</title>
<path fill="none" stroke="grey" stroke-width="2" d="M1291.33,-724.88C1270.37,-715.35 1244.1,-703.41 1221.82,-693.28"/>
<polygon fill="grey" stroke="grey" stroke-width="2" points="1223.1,-690.02 1212.55,-689.07 1220.21,-696.39 1223.1,-690.02"/>
</g>
<!-- 51 -->
<g id="node52" class="node">
<title>51</title>
<path fill="none" stroke="#d88d56" stroke-width="2" stroke-dasharray="5,2" d="M1099,-689C1099,-689 1061,-689 1061,-689 1055,-689 1049,-683 1049,-677 1049,-677 1049,-665 1049,-665 1049,-659 1055,-653 1061,-653 1061,-653 1099,-653 1099,-653 1105,-653 1111,-659 1111,-665 1111,-665 1111,-677 1111,-677 1111,-683 1105,-689 1099,-689"/>
<text text-anchor="middle" x="1080" y="-668.5" font-family="sans" font-size="10.00">gatk_dict</text>
</g>
<!-- 9&#45;&gt;51 -->
<g id="edge111" class="edge">
<title>9&#45;&gt;51</title>
<path fill="none" stroke="grey" stroke-width="2" d="M1257.11,-726.65C1218.89,-717.81 1171.08,-705.7 1120.98,-689.09"/>
<polygon fill="grey" stroke="grey" stroke-width="2" points="1121.86,-685.7 1111.27,-685.83 1119.63,-692.33 1121.86,-685.7"/>
</g>
<!-- 10 -->
<g id="node11" class="node">
<title>10</title>
<path fill="none" stroke="#d8ac56" stroke-width="2" stroke-dasharray="5,2" d="M743.5,-329C743.5,-329 648.5,-329 648.5,-329 642.5,-329 636.5,-323 636.5,-317 636.5,-317 636.5,-305 636.5,-305 636.5,-299 642.5,-293 648.5,-293 648.5,-293 743.5,-293 743.5,-293 749.5,-293 755.5,-299 755.5,-305 755.5,-305 755.5,-317 755.5,-317 755.5,-323 749.5,-329 743.5,-329"/>
<text text-anchor="middle" x="696" y="-308.5" font-family="sans" font-size="10.00">gatk_markduplicates</text>
</g>
<!-- 10&#45;&gt;2 -->
<g id="edge10" class="edge">
<title>10&#45;&gt;2</title>
<path fill="none" stroke="grey" stroke-width="2" d="M636.33,-303.84C550.21,-294.75 386.12,-276.68 247,-257 234.82,-255.28 221.86,-253.27 209.39,-251.26"/>
<polygon fill="grey" stroke="grey" stroke-width="2" points="209.95,-247.8 199.52,-249.65 208.83,-254.71 209.95,-247.8"/>
</g>
<!-- 10&#45;&gt;5 -->
<g id="edge30" class="edge">
<title>10&#45;&gt;5</title>
<path fill="none" stroke="grey" stroke-width="2" d="M673.54,-292.95C651.64,-274.28 624.18,-243.94 643,-221 671.49,-186.27 805.26,-173.87 871.56,-169.8"/>
<polygon fill="grey" stroke="grey" stroke-width="2" points="871.82,-173.3 881.6,-169.22 871.41,-166.31 871.82,-173.3"/>
</g>
<!-- 20 -->
<g id="node21" class="node">
<title>20</title>
<path fill="none" stroke="#61d856" stroke-width="2" stroke-dasharray="5,2" d="M731.5,-257C731.5,-257 664.5,-257 664.5,-257 658.5,-257 652.5,-251 652.5,-245 652.5,-245 652.5,-233 652.5,-233 652.5,-227 658.5,-221 664.5,-221 664.5,-221 731.5,-221 731.5,-221 737.5,-221 743.5,-227 743.5,-233 743.5,-233 743.5,-245 743.5,-245 743.5,-251 737.5,-257 731.5,-257"/>
<text text-anchor="middle" x="698" y="-236.5" font-family="sans" font-size="10.00">samtools_stats</text>
</g>
<!-- 10&#45;&gt;20 -->
<g id="edge62" class="edge">
<title>10&#45;&gt;20</title>
<path fill="none" stroke="grey" stroke-width="2" d="M696.49,-292.7C696.71,-284.98 696.98,-275.71 697.23,-267.11"/>
<polygon fill="grey" stroke="grey" stroke-width="2" points="700.72,-267.2 697.51,-257.1 693.73,-267 700.72,-267.2"/>
</g>
<!-- 24 -->
<g id="node25" class="node">
<title>24</title>
<path fill="none" stroke="#56a9d8" stroke-width="2" stroke-dasharray="5,2" d="M812,-257C812,-257 774,-257 774,-257 768,-257 762,-251 762,-245 762,-245 762,-233 762,-233 762,-227 768,-221 774,-221 774,-221 812,-221 812,-221 818,-221 824,-227 824,-233 824,-233 824,-245 824,-245 824,-251 818,-257 812,-257"/>
<text text-anchor="middle" x="793" y="-236.5" font-family="sans" font-size="10.00">qualimap</text>
</g>
<!-- 10&#45;&gt;24 -->
<g id="edge66" class="edge">
<title>10&#45;&gt;24</title>
<path fill="none" stroke="grey" stroke-width="2" d="M719.98,-292.7C732.31,-283.8 747.52,-272.82 760.85,-263.2"/>
<polygon fill="grey" stroke="grey" stroke-width="2" points="763.24,-265.79 769.3,-257.1 759.14,-260.12 763.24,-265.79"/>
</g>
<!-- 11 -->
<g id="node12" class="node">
<title>11</title>
<path fill="none" stroke="#80d856" stroke-width="2" stroke-dasharray="5,2" d="M470.5,-761C470.5,-761 351.5,-761 351.5,-761 345.5,-761 339.5,-755 339.5,-749 339.5,-749 339.5,-737 339.5,-737 339.5,-731 345.5,-725 351.5,-725 351.5,-725 470.5,-725 470.5,-725 476.5,-725 482.5,-731 482.5,-737 482.5,-737 482.5,-749 482.5,-749 482.5,-755 476.5,-761 470.5,-761"/>
<text text-anchor="middle" x="411" y="-746" font-family="sans" font-size="10.00">samtools_faidx_split</text>
<text text-anchor="middle" x="411" y="-735" font-family="sans" font-size="10.00">chromosome: Qrob_Chr02</text>
</g>
<!-- 11&#45;&gt;2 -->
<g id="edge11" class="edge">
<title>11&#45;&gt;2</title>
<path fill="none" stroke="grey" stroke-width="2" d="M339.48,-731.54C267.16,-716.44 166,-680.87 166,-600 166,-600 166,-600 166,-382 166,-341.74 157.26,-295.81 150.79,-267.36"/>
<polygon fill="grey" stroke="grey" stroke-width="2" points="154.14,-266.29 148.45,-257.35 147.32,-267.89 154.14,-266.29"/>
</g>
<!-- 11&#45;&gt;4 -->
<g id="edge15" class="edge">
<title>11&#45;&gt;4</title>
<path fill="none" stroke="grey" stroke-width="2" d="M360.53,-725C343.03,-716.72 324.85,-705.02 313,-689 250.16,-604.08 266,-561.64 266,-456 266,-456 266,-456 266,-382 266,-340.04 284.4,-294.36 297.93,-266.44"/>
<polygon fill="grey" stroke="grey" stroke-width="2" points="301.13,-267.86 302.47,-257.34 294.87,-264.73 301.13,-267.86"/>
</g>
<!-- 11&#45;&gt;7 -->
<g id="edge38" class="edge">
<title>11&#45;&gt;7</title>
<path fill="none" stroke="grey" stroke-width="2" d="M339.41,-732.29C221.66,-714.28 0,-670.96 0,-600 0,-600 0,-600 0,-238 0,-147.69 124.28,-112.83 196.89,-100.17"/>
<polygon fill="grey" stroke="grey" stroke-width="2" points="197.48,-103.62 206.77,-98.53 196.33,-96.71 197.48,-103.62"/>
</g>
<!-- 11&#45;&gt;10 -->
<g id="edge48" class="edge">
<title>11&#45;&gt;10</title>
<path fill="none" stroke="grey" stroke-width="2" d="M482.83,-736.32C560.71,-728.99 678.88,-714.1 716,-689 754.52,-662.95 771,-646.5 771,-600 771,-600 771,-600 771,-454 771,-413.55 771.8,-400.27 752,-365 745.86,-354.06 736.7,-344.02 727.57,-335.7"/>
<polygon fill="grey" stroke="grey" stroke-width="2" points="729.82,-333.02 719.96,-329.12 725.24,-338.31 729.82,-333.02"/>
</g>
<!-- 13 -->
<g id="node14" class="node">
<title>13</title>
<path fill="none" stroke="#d8ac56" stroke-width="2" stroke-dasharray="5,2" d="M463.5,-329C463.5,-329 368.5,-329 368.5,-329 362.5,-329 356.5,-323 356.5,-317 356.5,-317 356.5,-305 356.5,-305 356.5,-299 362.5,-293 368.5,-293 368.5,-293 463.5,-293 463.5,-293 469.5,-293 475.5,-299 475.5,-305 475.5,-305 475.5,-317 475.5,-317 475.5,-323 469.5,-329 463.5,-329"/>
<text text-anchor="middle" x="416" y="-308.5" font-family="sans" font-size="10.00">gatk_markduplicates</text>
</g>
<!-- 11&#45;&gt;13 -->
<g id="edge54" class="edge">
<title>11&#45;&gt;13</title>
<path fill="none" stroke="grey" stroke-width="2" d="M401.87,-724.88C396.99,-714.76 391.49,-701.51 389,-689 385.87,-673.31 388.08,-668.97 389,-653 395.46,-540.45 411.54,-513.55 418,-401 419.19,-380.3 418.58,-356.85 417.73,-339.22"/>
<polygon fill="grey" stroke="grey" stroke-width="2" points="421.22,-338.87 417.19,-329.08 414.23,-339.25 421.22,-338.87"/>
</g>
<!-- 31 -->
<g id="node32" class="node">
<title>31</title>
<path fill="none" stroke="#ced856" stroke-width="2" stroke-dasharray="5,2" d="M464.5,-689C464.5,-689 419.5,-689 419.5,-689 413.5,-689 407.5,-683 407.5,-677 407.5,-677 407.5,-665 407.5,-665 407.5,-659 413.5,-653 419.5,-653 419.5,-653 464.5,-653 464.5,-653 470.5,-653 476.5,-659 476.5,-665 476.5,-665 476.5,-677 476.5,-677 476.5,-683 470.5,-689 464.5,-689"/>
<text text-anchor="middle" x="442" y="-668.5" font-family="sans" font-size="10.00">bwa_index</text>
</g>
<!-- 11&#45;&gt;31 -->
<g id="edge73" class="edge">
<title>11&#45;&gt;31</title>
<path fill="none" stroke="grey" stroke-width="2" d="M418.66,-724.7C422.19,-716.73 426.46,-707.1 430.37,-698.26"/>
<polygon fill="grey" stroke="grey" stroke-width="2" points="433.58,-699.67 434.43,-689.1 427.18,-696.83 433.58,-699.67"/>
</g>
<!-- 43 -->
<g id="node44" class="node">
<title>43</title>
<path fill="none" stroke="#b6d856" stroke-width="2" stroke-dasharray="5,2" d="M704,-545C704,-545 638,-545 638,-545 632,-545 626,-539 626,-533 626,-533 626,-521 626,-521 626,-515 632,-509 638,-509 638,-509 704,-509 704,-509 710,-509 716,-515 716,-521 716,-521 716,-533 716,-533 716,-539 710,-545 704,-545"/>
<text text-anchor="middle" x="671" y="-524.5" font-family="sans" font-size="10.00">samtools_view</text>
</g>
<!-- 11&#45;&gt;43 -->
<g id="edge85" class="edge">
<title>11&#45;&gt;43</title>
<path fill="none" stroke="grey" stroke-width="2" d="M482.53,-738.72C557.38,-733.61 667.62,-720.78 694,-689 725.65,-650.87 703.1,-589.36 685.78,-554.44"/>
<polygon fill="grey" stroke="grey" stroke-width="2" points="688.78,-552.62 681.09,-545.34 682.56,-555.83 688.78,-552.62"/>
</g>
<!-- 45 -->
<g id="node46" class="node">
<title>45</title>
<path fill="none" stroke="#b6d856" stroke-width="2" stroke-dasharray="5,2" d="M379,-545C379,-545 313,-545 313,-545 307,-545 301,-539 301,-533 301,-533 301,-521 301,-521 301,-515 307,-509 313,-509 313,-509 379,-509 379,-509 385,-509 391,-515 391,-521 391,-521 391,-533 391,-533 391,-539 385,-545 379,-545"/>
<text text-anchor="middle" x="346" y="-524.5" font-family="sans" font-size="10.00">samtools_view</text>
</g>
<!-- 11&#45;&gt;45 -->
<g id="edge89" class="edge">
<title>11&#45;&gt;45</title>
<path fill="none" stroke="grey" stroke-width="2" d="M366.93,-724.98C351.45,-716.62 335.74,-704.85 327,-689 303.6,-646.56 320.27,-588.38 333.7,-554.83"/>
<polygon fill="grey" stroke="grey" stroke-width="2" points="337.07,-555.82 337.71,-545.25 330.62,-553.12 337.07,-555.82"/>
</g>
<!-- 47 -->
<g id="node48" class="node">
<title>47</title>
<path fill="none" stroke="#56c1d8" stroke-width="2" stroke-dasharray="5,2" d="M668,-617C668,-617 624,-617 624,-617 618,-617 612,-611 612,-605 612,-605 612,-593 612,-593 612,-587 618,-581 624,-581 624,-581 668,-581 668,-581 674,-581 680,-587 680,-593 680,-593 680,-605 680,-605 680,-611 674,-617 668,-617"/>
<text text-anchor="middle" x="646" y="-596.5" font-family="sans" font-size="10.00">bwa_mem</text>
</g>
<!-- 11&#45;&gt;47 -->
<g id="edge95" class="edge">
<title>11&#45;&gt;47</title>
<path fill="none" stroke="grey" stroke-width="2" d="M482.53,-737.67C552.49,-731.77 651.94,-718.34 676,-689 690.97,-670.74 679.4,-644.66 666.53,-625.45"/>
<polygon fill="grey" stroke="grey" stroke-width="2" points="669.27,-623.26 660.62,-617.16 663.58,-627.33 669.27,-623.26"/>
</g>
<!-- 49 -->
<g id="node50" class="node">
<title>49</title>
<path fill="none" stroke="#56c1d8" stroke-width="2" stroke-dasharray="5,2" d="M495,-617C495,-617 451,-617 451,-617 445,-617 439,-611 439,-605 439,-605 439,-593 439,-593 439,-587 445,-581 451,-581 451,-581 495,-581 495,-581 501,-581 507,-587 507,-593 507,-593 507,-605 507,-605 507,-611 501,-617 495,-617"/>
<text text-anchor="middle" x="473" y="-596.5" font-family="sans" font-size="10.00">bwa_mem</text>
</g>
<!-- 11&#45;&gt;49 -->
<g id="edge105" class="edge">
<title>11&#45;&gt;49</title>
<path fill="none" stroke="grey" stroke-width="2" d="M402.75,-724.93C394.98,-706.24 386.15,-675.88 398,-653 405.03,-639.43 417.31,-628.59 429.93,-620.33"/>
<polygon fill="grey" stroke="grey" stroke-width="2" points="431.93,-623.22 438.66,-615.03 428.29,-617.23 431.93,-623.22"/>
</g>
<!-- 52 -->
<g id="node53" class="node">
<title>52</title>
<path fill="none" stroke="#568ad8" stroke-width="2" stroke-dasharray="5,2" d="M655,-689C655,-689 587,-689 587,-689 581,-689 575,-683 575,-677 575,-677 575,-665 575,-665 575,-659 581,-653 587,-653 587,-653 655,-653 655,-653 661,-653 667,-659 667,-665 667,-665 667,-677 667,-677 667,-683 661,-689 655,-689"/>
<text text-anchor="middle" x="621" y="-668.5" font-family="sans" font-size="10.00">samtools_faidx</text>
</g>
<!-- 11&#45;&gt;52 -->
<g id="edge112" class="edge">
<title>11&#45;&gt;52</title>
<path fill="none" stroke="grey" stroke-width="2" d="M462.1,-724.97C493.24,-714.59 533.05,-701.32 565.04,-690.65"/>
<polygon fill="grey" stroke="grey" stroke-width="2" points="566.31,-693.92 574.69,-687.44 564.1,-687.28 566.31,-693.92"/>
</g>
<!-- 53 -->
<g id="node54" class="node">
<title>53</title>
<path fill="none" stroke="#d88d56" stroke-width="2" stroke-dasharray="5,2" d="M545,-689C545,-689 507,-689 507,-689 501,-689 495,-683 495,-677 495,-677 495,-665 495,-665 495,-659 501,-653 507,-653 507,-653 545,-653 545,-653 551,-653 557,-659 557,-665 557,-665 557,-677 557,-677 557,-683 551,-689 545,-689"/>
<text text-anchor="middle" x="526" y="-668.5" font-family="sans" font-size="10.00">gatk_dict</text>
</g>
<!-- 11&#45;&gt;53 -->
<g id="edge113" class="edge">
<title>11&#45;&gt;53</title>
<path fill="none" stroke="grey" stroke-width="2" d="M439.13,-724.88C454.17,-715.72 472.87,-704.34 489.06,-694.48"/>
<polygon fill="grey" stroke="grey" stroke-width="2" points="491.04,-697.38 497.76,-689.19 487.4,-691.4 491.04,-697.38"/>
</g>
<!-- 12&#45;&gt;3 -->
<g id="edge12" class="edge">
<title>12&#45;&gt;3</title>
<path fill="none" stroke="grey" stroke-width="2" d="M1099.85,-304.6C1138.19,-301.18 1189.02,-296.72 1234,-293 1436.48,-276.26 1491.75,-290.78 1696.6,-256.87"/>
<polygon fill="grey" stroke="grey" stroke-width="2" points="1697.19,-260.32 1706.47,-255.22 1696.03,-253.42 1697.19,-260.32"/>
</g>
<!-- 12&#45;&gt;5 -->
<g id="edge29" class="edge">
<title>12&#45;&gt;5</title>
<path fill="none" stroke="grey" stroke-width="2" d="M997.03,-292.84C979.69,-284.19 960.6,-272.26 947,-257 931.25,-239.33 921.32,-214.15 915.58,-195.08"/>
<polygon fill="grey" stroke="grey" stroke-width="2" points="918.88,-193.88 912.81,-185.2 912.14,-195.77 918.88,-193.88"/>
</g>
<!-- 19 -->
<g id="node20" class="node">
<title>19</title>
<path fill="none" stroke="#61d856" stroke-width="2" stroke-dasharray="5,2" d="M1035.5,-257C1035.5,-257 968.5,-257 968.5,-257 962.5,-257 956.5,-251 956.5,-245 956.5,-245 956.5,-233 956.5,-233 956.5,-227 962.5,-221 968.5,-221 968.5,-221 1035.5,-221 1035.5,-221 1041.5,-221 1047.5,-227 1047.5,-233 1047.5,-233 1047.5,-245 1047.5,-245 1047.5,-251 1041.5,-257 1035.5,-257"/>
<text text-anchor="middle" x="1002" y="-236.5" font-family="sans" font-size="10.00">samtools_stats</text>
</g>
<!-- 12&#45;&gt;19 -->
<g id="edge61" class="edge">
<title>12&#45;&gt;19</title>
<path fill="none" stroke="grey" stroke-width="2" d="M1030.61,-292.7C1026.24,-284.64 1020.94,-274.89 1016.1,-265.98"/>
<polygon fill="grey" stroke="grey" stroke-width="2" points="1019.13,-264.22 1011.29,-257.1 1012.98,-267.56 1019.13,-264.22"/>
</g>
<!-- 23 -->
<g id="node24" class="node">
<title>23</title>
<path fill="none" stroke="#56a9d8" stroke-width="2" stroke-dasharray="5,2" d="M1116,-257C1116,-257 1078,-257 1078,-257 1072,-257 1066,-251 1066,-245 1066,-245 1066,-233 1066,-233 1066,-227 1072,-221 1078,-221 1078,-221 1116,-221 1116,-221 1122,-221 1128,-227 1128,-233 1128,-233 1128,-245 1128,-245 1128,-251 1122,-257 1116,-257"/>
<text text-anchor="middle" x="1097" y="-236.5" font-family="sans" font-size="10.00">qualimap</text>
</g>
<!-- 12&#45;&gt;23 -->
<g id="edge65" class="edge">
<title>12&#45;&gt;23</title>
<path fill="none" stroke="grey" stroke-width="2" d="M1054.09,-292.7C1060.92,-284.3 1069.26,-274.07 1076.76,-264.86"/>
<polygon fill="grey" stroke="grey" stroke-width="2" points="1079.47,-267.07 1083.07,-257.1 1074.04,-262.65 1079.47,-267.07"/>
</g>
<!-- 13&#45;&gt;4 -->
<g id="edge14" class="edge">
<title>13&#45;&gt;4</title>
<path fill="none" stroke="grey" stroke-width="2" d="M390.56,-292.88C377.21,-283.89 360.68,-272.76 346.22,-263.03"/>
<polygon fill="grey" stroke="grey" stroke-width="2" points="347.79,-259.87 337.54,-257.19 343.88,-265.68 347.79,-259.87"/>
</g>
<!-- 13&#45;&gt;5 -->
<g id="edge31" class="edge">
<title>13&#45;&gt;5</title>
<path fill="none" stroke="grey" stroke-width="2" d="M409.68,-292.88C403.57,-272.99 397.55,-240.43 415,-221 422.66,-212.47 758.34,-181.55 871.9,-171.32"/>
<polygon fill="grey" stroke="grey" stroke-width="2" points="872.22,-174.8 881.87,-170.42 871.6,-167.83 872.22,-174.8"/>
</g>
<!-- 21 -->
<g id="node22" class="node">
<title>21</title>
<path fill="none" stroke="#61d856" stroke-width="2" stroke-dasharray="5,2" d="M503.5,-257C503.5,-257 436.5,-257 436.5,-257 430.5,-257 424.5,-251 424.5,-245 424.5,-245 424.5,-233 424.5,-233 424.5,-227 430.5,-221 436.5,-221 436.5,-221 503.5,-221 503.5,-221 509.5,-221 515.5,-227 515.5,-233 515.5,-233 515.5,-245 515.5,-245 515.5,-251 509.5,-257 503.5,-257"/>
<text text-anchor="middle" x="470" y="-236.5" font-family="sans" font-size="10.00">samtools_stats</text>
</g>
<!-- 13&#45;&gt;21 -->
<g id="edge63" class="edge">
<title>13&#45;&gt;21</title>
<path fill="none" stroke="grey" stroke-width="2" d="M429.35,-292.7C435.76,-284.39 443.56,-274.28 450.61,-265.14"/>
<polygon fill="grey" stroke="grey" stroke-width="2" points="453.47,-267.16 456.81,-257.1 447.93,-262.88 453.47,-267.16"/>
</g>
<!-- 25 -->
<g id="node26" class="node">
<title>25</title>
<path fill="none" stroke="#56a9d8" stroke-width="2" stroke-dasharray="5,2" d="M584,-257C584,-257 546,-257 546,-257 540,-257 534,-251 534,-245 534,-245 534,-233 534,-233 534,-227 540,-221 546,-221 546,-221 584,-221 584,-221 590,-221 596,-227 596,-233 596,-233 596,-245 596,-245 596,-251 590,-257 584,-257"/>
<text text-anchor="middle" x="565" y="-236.5" font-family="sans" font-size="10.00">qualimap</text>
</g>
<!-- 13&#45;&gt;25 -->
<g id="edge67" class="edge">
<title>13&#45;&gt;25</title>
<path fill="none" stroke="grey" stroke-width="2" d="M452.45,-292.88C474.31,-282.61 502.15,-269.53 524.67,-258.95"/>
<polygon fill="grey" stroke="grey" stroke-width="2" points="526.4,-262 533.96,-254.58 523.42,-255.67 526.4,-262"/>
</g>
<!-- 14 -->
<g id="node15" class="node">
<title>14</title>
<path fill="none" stroke="#97d856" stroke-width="2" stroke-dasharray="5,2" d="M1733,-617C1733,-617 1703,-617 1703,-617 1697,-617 1691,-611 1691,-605 1691,-605 1691,-593 1691,-593 1691,-587 1697,-581 1703,-581 1703,-581 1733,-581 1733,-581 1739,-581 1745,-587 1745,-593 1745,-593 1745,-605 1745,-605 1745,-611 1739,-617 1733,-617"/>
<text text-anchor="middle" x="1718" y="-596.5" font-family="sans" font-size="10.00">fastqc</text>
</g>
<!-- 14&#45;&gt;5 -->
<g id="edge16" class="edge">
<title>14&#45;&gt;5</title>
<path fill="none" stroke="grey" stroke-width="2" d="M1709.96,-580.92C1679.98,-519.43 1568.06,-308.43 1405,-221 1325.57,-178.41 1047.44,-170.04 946.21,-168.4"/>
<polygon fill="grey" stroke="grey" stroke-width="2" points="946.19,-164.9 936.14,-168.25 946.09,-171.9 946.19,-164.9"/>
</g>
<!-- 15 -->
<g id="node16" class="node">
<title>15</title>
<path fill="none" stroke="#97d856" stroke-width="2" stroke-dasharray="5,2" d="M922,-545C922,-545 892,-545 892,-545 886,-545 880,-539 880,-533 880,-533 880,-521 880,-521 880,-515 886,-509 892,-509 892,-509 922,-509 922,-509 928,-509 934,-515 934,-521 934,-521 934,-533 934,-533 934,-539 928,-545 922,-545"/>
<text text-anchor="middle" x="907" y="-524.5" font-family="sans" font-size="10.00">fastqc</text>
</g>
<!-- 15&#45;&gt;5 -->
<g id="edge17" class="edge">
<title>15&#45;&gt;5</title>
<path fill="none" stroke="grey" stroke-width="2" d="M903.56,-508.59C898.59,-481.9 890,-429.19 890,-384 890,-384 890,-384 890,-310 890,-269.86 897.55,-223.9 903.13,-195.4"/>
<polygon fill="grey" stroke="grey" stroke-width="2" points="906.61,-195.88 905.16,-185.39 899.74,-194.5 906.61,-195.88"/>
</g>
<!-- 16 -->
<g id="node17" class="node">
<title>16</title>
<path fill="none" stroke="#56d89a" stroke-width="2" stroke-dasharray="5,2" d="M1345,-689C1345,-689 1289,-689 1289,-689 1283,-689 1277,-683 1277,-677 1277,-677 1277,-665 1277,-665 1277,-659 1283,-653 1289,-653 1289,-653 1345,-653 1345,-653 1351,-653 1357,-659 1357,-665 1357,-665 1357,-677 1357,-677 1357,-683 1351,-689 1345,-689"/>
<text text-anchor="middle" x="1317" y="-668.5" font-family="sans" font-size="10.00">trimmomatic</text>
</g>
<!-- 16&#45;&gt;5 -->
<g id="edge18" class="edge">
<title>16&#45;&gt;5</title>
<path fill="none" stroke="grey" stroke-width="2" d="M1333.06,-652.69C1354.82,-627.36 1391,-577.76 1391,-528 1391,-528 1391,-528 1391,-310 1391,-268.66 1395.72,-247.51 1364,-221 1300.99,-168.34 1043.56,-166.15 946.38,-167.27"/>
<polygon fill="grey" stroke="grey" stroke-width="2" points="946.09,-163.78 936.14,-167.41 946.19,-170.78 946.09,-163.78"/>
</g>
<!-- 16&#45;&gt;46 -->
<g id="edge91" class="edge">
<title>16&#45;&gt;46</title>
<path fill="none" stroke="grey" stroke-width="2" d="M1308.6,-652.7C1304.73,-644.73 1300.05,-635.1 1295.76,-626.26"/>
<polygon fill="grey" stroke="grey" stroke-width="2" points="1298.83,-624.57 1291.31,-617.1 1292.53,-627.63 1298.83,-624.57"/>
</g>
<!-- 16&#45;&gt;47 -->
<g id="edge96" class="edge">
<title>16&#45;&gt;47</title>
<path fill="none" stroke="grey" stroke-width="2" d="M1276.86,-661.27C1262.18,-658.31 1245.39,-655.2 1230,-653 1029.44,-624.38 787.8,-608.23 690.14,-602.46"/>
<polygon fill="grey" stroke="grey" stroke-width="2" points="690.23,-598.96 680.04,-601.87 689.82,-605.94 690.23,-598.96"/>
</g>
<!-- 17 -->
<g id="node18" class="node">
<title>17</title>
<path fill="none" stroke="#56d89a" stroke-width="2" stroke-dasharray="5,2" d="M867,-689C867,-689 811,-689 811,-689 805,-689 799,-683 799,-677 799,-677 799,-665 799,-665 799,-659 805,-653 811,-653 811,-653 867,-653 867,-653 873,-653 879,-659 879,-665 879,-665 879,-677 879,-677 879,-683 873,-689 867,-689"/>
<text text-anchor="middle" x="839" y="-668.5" font-family="sans" font-size="10.00">trimmomatic</text>
</g>
<!-- 17&#45;&gt;5 -->
<g id="edge19" class="edge">
<title>17&#45;&gt;5</title>
<path fill="none" stroke="grey" stroke-width="2" d="M841.57,-653C845.36,-626.4 852,-573.3 852,-528 852,-528 852,-528 852,-310 852,-266.8 875,-221.19 891.78,-193.66"/>
<polygon fill="grey" stroke="grey" stroke-width="2" points="894.83,-195.37 897.19,-185.04 888.91,-191.65 894.83,-195.37"/>
</g>
<!-- 17&#45;&gt;48 -->
<g id="edge101" class="edge">
<title>17&#45;&gt;48</title>
<path fill="none" stroke="grey" stroke-width="2" d="M879.15,-657.89C920.45,-645.42 984.6,-626.07 1027.19,-613.22"/>
<polygon fill="grey" stroke="grey" stroke-width="2" points="1028.43,-616.5 1037,-610.26 1026.41,-609.8 1028.43,-616.5"/>
</g>
<!-- 17&#45;&gt;49 -->
<g id="edge106" class="edge">
<title>17&#45;&gt;49</title>
<path fill="none" stroke="grey" stroke-width="2" d="M798.78,-662.31C729.67,-649.09 588.88,-622.16 517.15,-608.44"/>
<polygon fill="grey" stroke="grey" stroke-width="2" points="517.56,-604.96 507.08,-606.52 516.24,-611.83 517.56,-604.96"/>
</g>
<!-- 18&#45;&gt;5 -->
<g id="edge20" class="edge">
<title>18&#45;&gt;5</title>
<path fill="none" stroke="grey" stroke-width="2" d="M1264.28,-224.43C1259.48,-223.19 1254.65,-222.02 1250,-221 1140.72,-197.12 1009.47,-179.88 946.41,-172.3"/>
<polygon fill="grey" stroke="grey" stroke-width="2" points="946.52,-168.79 936.17,-171.08 945.69,-175.74 946.52,-168.79"/>
</g>
<!-- 19&#45;&gt;5 -->
<g id="edge21" class="edge">
<title>19&#45;&gt;5</title>
<path fill="none" stroke="grey" stroke-width="2" d="M979.01,-220.7C967.19,-211.8 952.61,-200.82 939.82,-191.2"/>
<polygon fill="grey" stroke="grey" stroke-width="2" points="941.82,-188.32 931.72,-185.1 937.61,-193.91 941.82,-188.32"/>
</g>
<!-- 20&#45;&gt;5 -->
<g id="edge22" class="edge">
<title>20&#45;&gt;5</title>
<path fill="none" stroke="grey" stroke-width="2" d="M743.52,-222.9C782.06,-210.11 836.58,-192.02 872.36,-180.16"/>
<polygon fill="grey" stroke="grey" stroke-width="2" points="873.53,-183.45 881.92,-176.98 871.33,-176.81 873.53,-183.45"/>
</g>
<!-- 21&#45;&gt;5 -->
<g id="edge23" class="edge">
<title>21&#45;&gt;5</title>
<path fill="none" stroke="grey" stroke-width="2" d="M515.77,-223.24C518.88,-222.43 521.98,-221.67 525,-221 650.35,-193.17 802.15,-177.38 871.35,-171.15"/>
<polygon fill="grey" stroke="grey" stroke-width="2" points="872.08,-174.6 881.73,-170.23 871.46,-167.62 872.08,-174.6"/>
</g>
<!-- 22&#45;&gt;5 -->
<g id="edge24" class="edge">
<title>22&#45;&gt;5</title>
<path fill="none" stroke="grey" stroke-width="2" d="M1145.75,-224.11C1142.82,-222.99 1139.87,-221.94 1137,-221 1071.04,-199.5 991.67,-183.11 946.1,-174.57"/>
<polygon fill="grey" stroke="grey" stroke-width="2" points="946.56,-171.1 936.09,-172.72 945.29,-177.98 946.56,-171.1"/>
</g>
<!-- 23&#45;&gt;5 -->
<g id="edge25" class="edge">
<title>23&#45;&gt;5</title>
<path fill="none" stroke="grey" stroke-width="2" d="M1065.72,-224.85C1062.45,-223.53 1059.16,-222.22 1056,-221 1018.73,-206.56 975.66,-191.19 945.82,-180.74"/>
<polygon fill="grey" stroke="grey" stroke-width="2" points="946.83,-177.38 936.24,-177.39 944.52,-183.99 946.83,-177.38"/>
</g>
<!-- 24&#45;&gt;5 -->
<g id="edge26" class="edge">
<title>24&#45;&gt;5</title>
<path fill="none" stroke="grey" stroke-width="2" d="M821.38,-220.88C836.88,-211.52 856.25,-199.83 872.83,-189.83"/>
<polygon fill="grey" stroke="grey" stroke-width="2" points="874.96,-192.63 881.71,-184.47 871.34,-186.64 874.96,-192.63"/>
</g>
<!-- 25&#45;&gt;5 -->
<g id="edge27" class="edge">
<title>25&#45;&gt;5</title>
<path fill="none" stroke="grey" stroke-width="2" d="M596.23,-225.35C600.8,-223.75 605.49,-222.24 610,-221 702.6,-195.54 814.81,-179.48 871.84,-172.33"/>
<polygon fill="grey" stroke="grey" stroke-width="2" points="872.33,-175.8 881.82,-171.1 871.47,-168.85 872.33,-175.8"/>
</g>
<!-- 26&#45;&gt;6 -->
<g id="edge35" class="edge">
<title>26&#45;&gt;6</title>
<path fill="none" stroke="grey" stroke-width="2" d="M1795.5,-148.91C1762.39,-137.48 1718.95,-122.48 1685.61,-110.97"/>
<polygon fill="grey" stroke="grey" stroke-width="2" points="1686.65,-107.63 1676.05,-107.67 1684.36,-114.24 1686.65,-107.63"/>
</g>
<!-- 27&#45;&gt;6 -->
<g id="edge36" class="edge">
<title>27&#45;&gt;6</title>
<path fill="none" stroke="grey" stroke-width="2" d="M1635,-148.82C1635,-141.2 1635,-132 1635,-123.32"/>
<polygon fill="grey" stroke="grey" stroke-width="2" points="1638.5,-123.12 1635,-113.12 1631.5,-123.12 1638.5,-123.12"/>
</g>
<!-- 28&#45;&gt;6 -->
<g id="edge37" class="edge">
<title>28&#45;&gt;6</title>
<path fill="none" stroke="grey" stroke-width="2" d="M1415.26,-652.68C1430.4,-601.27 1473,-444.84 1473,-312 1473,-312 1473,-312 1473,-238 1473,-177.41 1536.9,-135.93 1584.44,-113.45"/>
<polygon fill="grey" stroke="grey" stroke-width="2" points="1586.07,-116.56 1593.7,-109.21 1583.15,-110.19 1586.07,-116.56"/>
</g>
<!-- 28&#45;&gt;46 -->
<g id="edge92" class="edge">
<title>28&#45;&gt;46</title>
<path fill="none" stroke="grey" stroke-width="2" d="M1378.93,-652.88C1362.17,-643.64 1341.29,-632.13 1323.3,-622.21"/>
<polygon fill="grey" stroke="grey" stroke-width="2" points="1324.63,-618.95 1314.19,-617.19 1321.26,-625.08 1324.63,-618.95"/>
</g>
<!-- 28&#45;&gt;48 -->
<g id="edge102" class="edge">
<title>28&#45;&gt;48</title>
<path fill="none" stroke="grey" stroke-width="2" d="M1375.14,-655.84C1372.07,-654.8 1369,-653.84 1366,-653 1278.56,-628.49 1173.24,-612.77 1115.05,-605.24"/>
<polygon fill="grey" stroke="grey" stroke-width="2" points="1115.46,-601.77 1105.1,-603.97 1114.58,-608.71 1115.46,-601.77"/>
</g>
<!-- 29&#45;&gt;7 -->
<g id="edge41" class="edge">
<title>29&#45;&gt;7</title>
<path fill="none" stroke="grey" stroke-width="2" d="M342.61,-148.82C327,-139.69 307.53,-128.31 290.32,-118.24"/>
<polygon fill="grey" stroke="grey" stroke-width="2" points="291.96,-115.15 281.56,-113.12 288.42,-121.19 291.96,-115.15"/>
</g>
<!-- 30&#45;&gt;7 -->
<g id="edge42" class="edge">
<title>30&#45;&gt;7</title>
<path fill="none" stroke="grey" stroke-width="2" d="M153.39,-148.82C169,-139.69 188.47,-128.31 205.68,-118.24"/>
<polygon fill="grey" stroke="grey" stroke-width="2" points="207.58,-121.19 214.44,-113.12 204.04,-115.15 207.58,-121.19"/>
</g>
<!-- 31&#45;&gt;7 -->
<g id="edge43" class="edge">
<title>31&#45;&gt;7</title>
<path fill="none" stroke="grey" stroke-width="2" d="M407.14,-654.8C346.5,-625.72 228,-556.09 228,-456 228,-456 228,-456 228,-310 228,-242.98 237.62,-164.79 243.52,-123.16"/>
<polygon fill="grey" stroke="grey" stroke-width="2" points="247,-123.54 244.96,-113.15 240.07,-122.54 247,-123.54"/>
</g>
<!-- 31&#45;&gt;47 -->
<g id="edge97" class="edge">
<title>31&#45;&gt;47</title>
<path fill="none" stroke="grey" stroke-width="2" d="M476.53,-656.48C479.72,-655.28 482.92,-654.11 486,-653 525.07,-638.99 569.96,-624.24 602.22,-613.86"/>
<polygon fill="grey" stroke="grey" stroke-width="2" points="603.36,-617.18 611.81,-610.79 601.22,-610.51 603.36,-617.18"/>
</g>
<!-- 31&#45;&gt;49 -->
<g id="edge107" class="edge">
<title>31&#45;&gt;49</title>
<path fill="none" stroke="grey" stroke-width="2" d="M449.66,-652.7C453.19,-644.73 457.46,-635.1 461.37,-626.26"/>
<polygon fill="grey" stroke="grey" stroke-width="2" points="464.58,-627.67 465.43,-617.1 458.18,-624.83 464.58,-627.67"/>
</g>
<!-- 32 -->
<g id="node33" class="node">
<title>32</title>
<path fill="none" stroke="#d8c356" stroke-width="2" stroke-dasharray="5,2" d="M1327,-473C1327,-473 1265,-473 1265,-473 1259,-473 1253,-467 1253,-461 1253,-461 1253,-449 1253,-449 1253,-443 1259,-437 1265,-437 1265,-437 1327,-437 1327,-437 1333,-437 1339,-443 1339,-449 1339,-449 1339,-461 1339,-461 1339,-467 1333,-473 1327,-473"/>
<text text-anchor="middle" x="1296" y="-452.5" font-family="sans" font-size="10.00">samtools_sort</text>
</g>
<!-- 32&#45;&gt;8 -->
<g id="edge44" class="edge">
<title>32&#45;&gt;8</title>
<path fill="none" stroke="grey" stroke-width="2" d="M1296.84,-436.87C1298.04,-412.67 1300.23,-368.21 1301.65,-339.39"/>
<polygon fill="grey" stroke="grey" stroke-width="2" points="1305.16,-339.35 1302.15,-329.19 1298.16,-339 1305.16,-339.35"/>
</g>
<!-- 33 -->
<g id="node34" class="node">
<title>33</title>
<path fill="none" stroke="#56d8d0" stroke-width="2" stroke-dasharray="5,2" d="M1269,-401C1269,-401 1199,-401 1199,-401 1193,-401 1187,-395 1187,-389 1187,-389 1187,-377 1187,-377 1187,-371 1193,-365 1199,-365 1199,-365 1269,-365 1269,-365 1275,-365 1281,-371 1281,-377 1281,-377 1281,-389 1281,-389 1281,-395 1275,-401 1269,-401"/>
<text text-anchor="middle" x="1234" y="-380.5" font-family="sans" font-size="10.00">samtools_index</text>
</g>
<!-- 32&#45;&gt;33 -->
<g id="edge75" class="edge">
<title>32&#45;&gt;33</title>
<path fill="none" stroke="grey" stroke-width="2" d="M1280.67,-436.7C1273.24,-428.3 1264.18,-418.07 1256.02,-408.86"/>
<polygon fill="grey" stroke="grey" stroke-width="2" points="1258.4,-406.27 1249.15,-401.1 1253.16,-410.91 1258.4,-406.27"/>
</g>
<!-- 33&#45;&gt;8 -->
<g id="edge46" class="edge">
<title>33&#45;&gt;8</title>
<path fill="none" stroke="grey" stroke-width="2" d="M1251.06,-364.7C1259.5,-356.14 1269.82,-345.66 1279.04,-336.3"/>
<polygon fill="grey" stroke="grey" stroke-width="2" points="1281.61,-338.68 1286.14,-329.1 1276.63,-333.77 1281.61,-338.68"/>
</g>
<!-- 34 -->
<g id="node35" class="node">
<title>34</title>
<path fill="none" stroke="#d8c356" stroke-width="2" stroke-dasharray="5,2" d="M702,-473C702,-473 640,-473 640,-473 634,-473 628,-467 628,-461 628,-461 628,-449 628,-449 628,-443 634,-437 640,-437 640,-437 702,-437 702,-437 708,-437 714,-443 714,-449 714,-449 714,-461 714,-461 714,-467 708,-473 702,-473"/>
<text text-anchor="middle" x="671" y="-452.5" font-family="sans" font-size="10.00">samtools_sort</text>
</g>
<!-- 34&#45;&gt;10 -->
<g id="edge47" class="edge">
<title>34&#45;&gt;10</title>
<path fill="none" stroke="grey" stroke-width="2" d="M657.52,-437C644.91,-418.88 629.46,-389.5 640,-365 644.79,-353.87 653.19,-343.99 662.05,-335.86"/>
<polygon fill="grey" stroke="grey" stroke-width="2" points="664.54,-338.34 669.88,-329.18 660,-333.01 664.54,-338.34"/>
</g>
<!-- 35 -->
<g id="node36" class="node">
<title>35</title>
<path fill="none" stroke="#56d8d0" stroke-width="2" stroke-dasharray="5,2" d="M731,-401C731,-401 661,-401 661,-401 655,-401 649,-395 649,-389 649,-389 649,-377 649,-377 649,-371 655,-365 661,-365 661,-365 731,-365 731,-365 737,-365 743,-371 743,-377 743,-377 743,-389 743,-389 743,-395 737,-401 731,-401"/>
<text text-anchor="middle" x="696" y="-380.5" font-family="sans" font-size="10.00">samtools_index</text>
</g>
<!-- 34&#45;&gt;35 -->
<g id="edge77" class="edge">
<title>34&#45;&gt;35</title>
<path fill="none" stroke="grey" stroke-width="2" d="M677.18,-436.7C680,-428.81 683.39,-419.3 686.52,-410.55"/>
<polygon fill="grey" stroke="grey" stroke-width="2" points="689.82,-411.7 689.89,-401.1 683.23,-409.34 689.82,-411.7"/>
</g>
<!-- 35&#45;&gt;10 -->
<g id="edge49" class="edge">
<title>35&#45;&gt;10</title>
<path fill="none" stroke="grey" stroke-width="2" d="M696,-364.7C696,-356.98 696,-347.71 696,-339.11"/>
<polygon fill="grey" stroke="grey" stroke-width="2" points="699.5,-339.1 696,-329.1 692.5,-339.1 699.5,-339.1"/>
</g>
<!-- 36 -->
<g id="node37" class="node">
<title>36</title>
<path fill="none" stroke="#d8c356" stroke-width="2" stroke-dasharray="5,2" d="M1029,-473C1029,-473 967,-473 967,-473 961,-473 955,-467 955,-461 955,-461 955,-449 955,-449 955,-443 961,-437 967,-437 967,-437 1029,-437 1029,-437 1035,-437 1041,-443 1041,-449 1041,-449 1041,-461 1041,-461 1041,-467 1035,-473 1029,-473"/>
<text text-anchor="middle" x="998" y="-452.5" font-family="sans" font-size="10.00">samtools_sort</text>
</g>
<!-- 36&#45;&gt;12 -->
<g id="edge50" class="edge">
<title>36&#45;&gt;12</title>
<path fill="none" stroke="grey" stroke-width="2" d="M1006.56,-436.67C1011.33,-426.48 1017.08,-413.23 1021,-401 1027.49,-380.72 1032.42,-357.12 1035.62,-339.32"/>
<polygon fill="grey" stroke="grey" stroke-width="2" points="1039.1,-339.78 1037.35,-329.33 1032.2,-338.58 1039.1,-339.78"/>
</g>
<!-- 37 -->
<g id="node38" class="node">
<title>37</title>
<path fill="none" stroke="#56d8d0" stroke-width="2" stroke-dasharray="5,2" d="M1000,-401C1000,-401 930,-401 930,-401 924,-401 918,-395 918,-389 918,-389 918,-377 918,-377 918,-371 924,-365 930,-365 930,-365 1000,-365 1000,-365 1006,-365 1012,-371 1012,-377 1012,-377 1012,-389 1012,-389 1012,-395 1006,-401 1000,-401"/>
<text text-anchor="middle" x="965" y="-380.5" font-family="sans" font-size="10.00">samtools_index</text>
</g>
<!-- 36&#45;&gt;37 -->
<g id="edge79" class="edge">
<title>36&#45;&gt;37</title>
<path fill="none" stroke="grey" stroke-width="2" d="M989.84,-436.7C986.09,-428.73 981.55,-419.1 977.38,-410.26"/>
<polygon fill="grey" stroke="grey" stroke-width="2" points="980.49,-408.66 973.06,-401.1 974.16,-411.64 980.49,-408.66"/>
</g>
<!-- 37&#45;&gt;12 -->
<g id="edge52" class="edge">
<title>37&#45;&gt;12</title>
<path fill="none" stroke="grey" stroke-width="2" d="M983.54,-364.7C992.8,-356.05 1004.16,-345.45 1014.26,-336.03"/>
<polygon fill="grey" stroke="grey" stroke-width="2" points="1016.75,-338.49 1021.67,-329.1 1011.98,-333.37 1016.75,-338.49"/>
</g>
<!-- 38 -->
<g id="node39" class="node">
<title>38</title>
<path fill="none" stroke="#d8c356" stroke-width="2" stroke-dasharray="5,2" d="M377,-473C377,-473 315,-473 315,-473 309,-473 303,-467 303,-461 303,-461 303,-449 303,-449 303,-443 309,-437 315,-437 315,-437 377,-437 377,-437 383,-437 389,-443 389,-449 389,-449 389,-461 389,-461 389,-467 383,-473 377,-473"/>
<text text-anchor="middle" x="346" y="-452.5" font-family="sans" font-size="10.00">samtools_sort</text>
</g>
<!-- 38&#45;&gt;13 -->
<g id="edge53" class="edge">
<title>38&#45;&gt;13</title>
<path fill="none" stroke="grey" stroke-width="2" d="M367.28,-436.95C377.77,-427.44 389.69,-414.76 397,-401 407.22,-381.75 411.94,-357.41 414.13,-339.05"/>
<polygon fill="grey" stroke="grey" stroke-width="2" points="417.62,-339.32 415.14,-329.01 410.65,-338.61 417.62,-339.32"/>
</g>
<!-- 39 -->
<g id="node40" class="node">
<title>39</title>
<path fill="none" stroke="#56d8d0" stroke-width="2" stroke-dasharray="5,2" d="M376,-401C376,-401 306,-401 306,-401 300,-401 294,-395 294,-389 294,-389 294,-377 294,-377 294,-371 300,-365 306,-365 306,-365 376,-365 376,-365 382,-365 388,-371 388,-377 388,-377 388,-389 388,-389 388,-395 382,-401 376,-401"/>
<text text-anchor="middle" x="341" y="-380.5" font-family="sans" font-size="10.00">samtools_index</text>
</g>
<!-- 38&#45;&gt;39 -->
<g id="edge81" class="edge">
<title>38&#45;&gt;39</title>
<path fill="none" stroke="grey" stroke-width="2" d="M344.76,-436.7C344.21,-428.98 343.55,-419.71 342.94,-411.11"/>
<polygon fill="grey" stroke="grey" stroke-width="2" points="346.43,-410.83 342.22,-401.1 339.44,-411.33 346.43,-410.83"/>
</g>
<!-- 39&#45;&gt;13 -->
<g id="edge55" class="edge">
<title>39&#45;&gt;13</title>
<path fill="none" stroke="grey" stroke-width="2" d="M359.54,-364.7C368.8,-356.05 380.16,-345.45 390.26,-336.03"/>
<polygon fill="grey" stroke="grey" stroke-width="2" points="392.75,-338.49 397.67,-329.1 387.98,-333.37 392.75,-338.49"/>
</g>
<!-- 40 -->
<g id="node41" class="node">
<title>40</title>
<path fill="none" stroke="#56d8b9" stroke-width="2" stroke-dasharray="5,2" d="M1655,-761C1655,-761 1601,-761 1601,-761 1595,-761 1589,-755 1589,-749 1589,-749 1589,-737 1589,-737 1589,-731 1595,-725 1601,-725 1601,-725 1655,-725 1655,-725 1661,-725 1667,-731 1667,-737 1667,-737 1667,-749 1667,-749 1667,-755 1661,-761 1655,-761"/>
<text text-anchor="middle" x="1628" y="-746" font-family="sans" font-size="10.00">cp_reads</text>
<text text-anchor="middle" x="1628" y="-735" font-family="sans" font-size="10.00">library: test2</text>
</g>
<!-- 40&#45;&gt;14 -->
<g id="edge56" class="edge">
<title>40&#45;&gt;14</title>
<path fill="none" stroke="grey" stroke-width="2" d="M1646.76,-724.56C1656.6,-714.76 1668.37,-701.92 1677,-689 1690.08,-669.43 1701,-645.01 1708.27,-626.7"/>
<polygon fill="grey" stroke="grey" stroke-width="2" points="1711.59,-627.82 1711.93,-617.23 1705.06,-625.3 1711.59,-627.82"/>
</g>
<!-- 40&#45;&gt;16 -->
<g id="edge58" class="edge">
<title>40&#45;&gt;16</title>
<path fill="none" stroke="grey" stroke-width="2" d="M1589,-735.8C1539.38,-727.54 1450.99,-711.59 1366.94,-689.07"/>
<polygon fill="grey" stroke="grey" stroke-width="2" points="1367.81,-685.68 1357.24,-686.44 1365.98,-692.44 1367.81,-685.68"/>
</g>
<!-- 41 -->
<g id="node42" class="node">
<title>41</title>
<path fill="none" stroke="#56d8b9" stroke-width="2" stroke-dasharray="5,2" d="M900,-761C900,-761 846,-761 846,-761 840,-761 834,-755 834,-749 834,-749 834,-737 834,-737 834,-731 840,-725 846,-725 846,-725 900,-725 900,-725 906,-725 912,-731 912,-737 912,-737 912,-749 912,-749 912,-755 906,-761 900,-761"/>
<text text-anchor="middle" x="873" y="-746" font-family="sans" font-size="10.00">cp_reads</text>
<text text-anchor="middle" x="873" y="-735" font-family="sans" font-size="10.00">library: test1</text>
</g>
<!-- 41&#45;&gt;15 -->
<g id="edge57" class="edge">
<title>41&#45;&gt;15</title>
<path fill="none" stroke="grey" stroke-width="2" d="M878.56,-724.98C881.74,-714.67 885.57,-701.19 888,-689 897.29,-642.38 902.59,-587.19 905.12,-555.04"/>
<polygon fill="grey" stroke="grey" stroke-width="2" points="908.61,-555.3 905.88,-545.06 901.63,-554.77 908.61,-555.3"/>
</g>
<!-- 41&#45;&gt;17 -->
<g id="edge59" class="edge">
<title>41&#45;&gt;17</title>
<path fill="none" stroke="grey" stroke-width="2" d="M864.6,-724.7C860.73,-716.73 856.05,-707.1 851.76,-698.26"/>
<polygon fill="grey" stroke="grey" stroke-width="2" points="854.83,-696.57 847.31,-689.1 848.53,-699.63 854.83,-696.57"/>
</g>
<!-- 42&#45;&gt;32 -->
<g id="edge74" class="edge">
<title>42&#45;&gt;32</title>
<path fill="none" stroke="grey" stroke-width="2" d="M1296,-508.7C1296,-500.98 1296,-491.71 1296,-483.11"/>
<polygon fill="grey" stroke="grey" stroke-width="2" points="1299.5,-483.1 1296,-473.1 1292.5,-483.1 1299.5,-483.1"/>
</g>
<!-- 43&#45;&gt;34 -->
<g id="edge76" class="edge">
<title>43&#45;&gt;34</title>
<path fill="none" stroke="grey" stroke-width="2" d="M671,-508.7C671,-500.98 671,-491.71 671,-483.11"/>
<polygon fill="grey" stroke="grey" stroke-width="2" points="674.5,-483.1 671,-473.1 667.5,-483.1 674.5,-483.1"/>
</g>
<!-- 44&#45;&gt;36 -->
<g id="edge78" class="edge">
<title>44&#45;&gt;36</title>
<path fill="none" stroke="grey" stroke-width="2" d="M998,-508.7C998,-500.98 998,-491.71 998,-483.11"/>
<polygon fill="grey" stroke="grey" stroke-width="2" points="1001.5,-483.1 998,-473.1 994.5,-483.1 1001.5,-483.1"/>
</g>
<!-- 45&#45;&gt;38 -->
<g id="edge80" class="edge">
<title>45&#45;&gt;38</title>
<path fill="none" stroke="grey" stroke-width="2" d="M346,-508.7C346,-500.98 346,-491.71 346,-483.11"/>
<polygon fill="grey" stroke="grey" stroke-width="2" points="349.5,-483.1 346,-473.1 342.5,-483.1 349.5,-483.1"/>
</g>
<!-- 46&#45;&gt;42 -->
<g id="edge82" class="edge">
<title>46&#45;&gt;42</title>
<path fill="none" stroke="grey" stroke-width="2" d="M1286.21,-580.7C1287.65,-572.98 1289.37,-563.71 1290.96,-555.11"/>
<polygon fill="grey" stroke="grey" stroke-width="2" points="1294.44,-555.58 1292.82,-545.1 1287.56,-554.3 1294.44,-555.58"/>
</g>
<!-- 47&#45;&gt;43 -->
<g id="edge84" class="edge">
<title>47&#45;&gt;43</title>
<path fill="none" stroke="grey" stroke-width="2" d="M652.18,-580.7C655,-572.81 658.39,-563.3 661.52,-554.55"/>
<polygon fill="grey" stroke="grey" stroke-width="2" points="664.82,-555.7 664.89,-545.1 658.23,-553.34 664.82,-555.7"/>
</g>
<!-- 48&#45;&gt;44 -->
<g id="edge86" class="edge">
<title>48&#45;&gt;44</title>
<path fill="none" stroke="grey" stroke-width="2" d="M1052.96,-580.7C1043.94,-572.05 1032.88,-561.45 1023.06,-552.03"/>
<polygon fill="grey" stroke="grey" stroke-width="2" points="1025.48,-549.5 1015.84,-545.1 1020.63,-554.55 1025.48,-549.5"/>
</g>
<!-- 49&#45;&gt;45 -->
<g id="edge88" class="edge">
<title>49&#45;&gt;45</title>
<path fill="none" stroke="grey" stroke-width="2" d="M441.93,-580.88C425.17,-571.64 404.29,-560.13 386.3,-550.21"/>
<polygon fill="grey" stroke="grey" stroke-width="2" points="387.63,-546.95 377.19,-545.19 384.26,-553.08 387.63,-546.95"/>
</g>
<!-- 50&#45;&gt;46 -->
<g id="edge93" class="edge">
<title>50&#45;&gt;46</title>
<path fill="none" stroke="grey" stroke-width="2" d="M1201.42,-652.88C1215.41,-643.81 1232.78,-632.55 1247.89,-622.76"/>
<polygon fill="grey" stroke="grey" stroke-width="2" points="1249.99,-625.57 1256.48,-617.19 1246.18,-619.69 1249.99,-625.57"/>
</g>
<!-- 50&#45;&gt;48 -->
<g id="edge103" class="edge">
<title>50&#45;&gt;48</title>
<path fill="none" stroke="grey" stroke-width="2" d="M1149.56,-652.88C1136.21,-643.89 1119.68,-632.76 1105.22,-623.03"/>
<polygon fill="grey" stroke="grey" stroke-width="2" points="1106.79,-619.87 1096.54,-617.19 1102.88,-625.68 1106.79,-619.87"/>
</g>
<!-- 51&#45;&gt;46 -->
<g id="edge94" class="edge">
<title>51&#45;&gt;46</title>
<path fill="none" stroke="grey" stroke-width="2" d="M1111.34,-656.37C1114.25,-655.2 1117.17,-654.06 1120,-653 1159.91,-638.07 1206.16,-623.26 1239.19,-613.1"/>
<polygon fill="grey" stroke="grey" stroke-width="2" points="1240.45,-616.38 1248.99,-610.11 1238.4,-609.69 1240.45,-616.38"/>
</g>
<!-- 51&#45;&gt;48 -->
<g id="edge104" class="edge">
<title>51&#45;&gt;48</title>
<path fill="none" stroke="grey" stroke-width="2" d="M1077.78,-652.7C1076.78,-644.98 1075.59,-635.71 1074.49,-627.11"/>
<polygon fill="grey" stroke="grey" stroke-width="2" points="1077.95,-626.58 1073.2,-617.1 1071,-627.47 1077.95,-626.58"/>
</g>
<!-- 52&#45;&gt;47 -->
<g id="edge98" class="edge">
<title>52&#45;&gt;47</title>
<path fill="none" stroke="grey" stroke-width="2" d="M627.18,-652.7C630,-644.81 633.39,-635.3 636.52,-626.55"/>
<polygon fill="grey" stroke="grey" stroke-width="2" points="639.82,-627.7 639.89,-617.1 633.23,-625.34 639.82,-627.7"/>
</g>
<!-- 52&#45;&gt;49 -->
<g id="edge108" class="edge">
<title>52&#45;&gt;49</title>
<path fill="none" stroke="grey" stroke-width="2" d="M584.8,-652.88C564.05,-643.07 537.9,-630.69 516.1,-620.38"/>
<polygon fill="grey" stroke="grey" stroke-width="2" points="517.59,-617.22 507.05,-616.11 514.6,-623.55 517.59,-617.22"/>
</g>
<!-- 53&#45;&gt;47 -->
<g id="edge99" class="edge">
<title>53&#45;&gt;47</title>
<path fill="none" stroke="grey" stroke-width="2" d="M555.36,-652.88C571.05,-643.72 590.56,-632.34 607.45,-622.48"/>
<polygon fill="grey" stroke="grey" stroke-width="2" points="609.66,-625.25 616.53,-617.19 606.13,-619.21 609.66,-625.25"/>
</g>
<!-- 53&#45;&gt;49 -->
<g id="edge109" class="edge">
<title>53&#45;&gt;49</title>
<path fill="none" stroke="grey" stroke-width="2" d="M512.9,-652.7C506.61,-644.39 498.95,-634.28 492.04,-625.14"/>
<polygon fill="grey" stroke="grey" stroke-width="2" points="494.78,-622.96 485.95,-617.1 489.2,-627.19 494.78,-622.96"/>
</g>
</g>
</svg>
