<?xml version="1.0" encoding="UTF-8" standalone="no"?>
<!DOCTYPE svg PUBLIC "-//W3C//DTD SVG 1.1//EN"
 "http://www.w3.org/Graphics/SVG/1.1/DTD/svg11.dtd">
<!-- Generated by graphviz version 2.43.0 (0)
 -->
<!-- Title: snakemake_dag Pages: 1 -->
<svg width="845pt" height="692pt"
 viewBox="0.00 0.00 845.24 692.00" xmlns="http://www.w3.org/2000/svg" xmlns:xlink="http://www.w3.org/1999/xlink">
<g id="graph0" class="graph" transform="scale(1 1) rotate(0) translate(4 688)">
<title>snakemake_dag</title>
<polygon fill="white" stroke="transparent" points="-4,4 -4,-688 841.24,-688 841.24,4 -4,4"/>
<!-- 0 -->
<g id="node1" class="node">
<title>0</title>
<path fill="none" stroke="#56b9d8" stroke-width="2" stroke-dasharray="5,2" d="M551.5,-36C551.5,-36 521.5,-36 521.5,-36 515.5,-36 509.5,-30 509.5,-24 509.5,-24 509.5,-12 509.5,-12 509.5,-6 515.5,0 521.5,0 521.5,0 551.5,0 551.5,0 557.5,0 563.5,-6 563.5,-12 563.5,-12 563.5,-24 563.5,-24 563.5,-30 557.5,-36 551.5,-36"/>
<text text-anchor="middle" x="536.5" y="-15.5" font-family="sans" font-size="10.00">all</text>
</g>
<!-- 1 -->
<g id="node2" class="node">
<title>1</title>
<path fill="none" stroke="#56a2d8" stroke-width="2" stroke-dasharray="5,2" d="M689.5,-180C689.5,-180 629.5,-180 629.5,-180 623.5,-180 617.5,-174 617.5,-168 617.5,-168 617.5,-156 617.5,-156 617.5,-150 623.5,-144 629.5,-144 629.5,-144 689.5,-144 689.5,-144 695.5,-144 701.5,-150 701.5,-156 701.5,-156 701.5,-168 701.5,-168 701.5,-174 695.5,-180 689.5,-180"/>
<text text-anchor="middle" x="659.5" y="-159.5" font-family="sans" font-size="10.00">gatk_mutect2</text>
</g>
<!-- 1&#45;&gt;0 -->
<g id="edge1" class="edge">
<title>1&#45;&gt;0</title>
<path fill="none" stroke="grey" stroke-width="2" d="M617.27,-149.15C595.68,-140.99 570.81,-127.93 555.5,-108 542,-90.43 537.59,-65.39 536.36,-46.35"/>
<polygon fill="grey" stroke="grey" stroke-width="2" points="539.85,-46.06 535.97,-36.2 532.86,-46.33 539.85,-46.06"/>
</g>
<!-- 2 -->
<g id="node3" class="node">
<title>2</title>
<path fill="none" stroke="#d8d356" stroke-width="2" stroke-dasharray="5,2" d="M662,-108C662,-108 577,-108 577,-108 571,-108 565,-102 565,-96 565,-96 565,-84 565,-84 565,-78 571,-72 577,-72 577,-72 662,-72 662,-72 668,-72 674,-78 674,-84 674,-84 674,-96 674,-96 674,-102 668,-108 662,-108"/>
<text text-anchor="middle" x="619.5" y="-87.5" font-family="sans" font-size="10.00">bedtools_substract</text>
</g>
<!-- 2&#45;&gt;0 -->
<g id="edge2" class="edge">
<title>2&#45;&gt;0</title>
<path fill="none" stroke="grey" stroke-width="2" d="M598.98,-71.7C588.63,-62.97 575.91,-52.24 564.66,-42.75"/>
<polygon fill="grey" stroke="grey" stroke-width="2" points="566.68,-39.88 556.78,-36.1 562.17,-45.23 566.68,-39.88"/>
</g>
<!-- 3 -->
<g id="node4" class="node">
<title>3</title>
<path fill="none" stroke="#56d892" stroke-width="2" stroke-dasharray="5,2" d="M197.5,-180C197.5,-180 167.5,-180 167.5,-180 161.5,-180 155.5,-174 155.5,-168 155.5,-168 155.5,-156 155.5,-156 155.5,-150 161.5,-144 167.5,-144 167.5,-144 197.5,-144 197.5,-144 203.5,-144 209.5,-150 209.5,-156 209.5,-156 209.5,-168 209.5,-168 209.5,-174 203.5,-180 197.5,-180"/>
<text text-anchor="middle" x="182.5" y="-159.5" font-family="sans" font-size="10.00">multiqc</text>
</g>
<!-- 3&#45;&gt;0 -->
<g id="edge3" class="edge">
<title>3&#45;&gt;0</title>
<path fill="none" stroke="grey" stroke-width="2" d="M209.69,-150.09C272.62,-124.85 428.37,-62.37 499.73,-33.75"/>
<polygon fill="grey" stroke="grey" stroke-width="2" points="501.24,-36.92 509.22,-29.94 498.63,-30.42 501.24,-36.92"/>
</g>
<!-- 4 -->
<g id="node5" class="node">
<title>4</title>
<path fill="none" stroke="#56d87b" stroke-width="2" stroke-dasharray="5,2" d="M488.5,-684C488.5,-684 432.5,-684 432.5,-684 426.5,-684 420.5,-678 420.5,-672 420.5,-672 420.5,-660 420.5,-660 420.5,-654 426.5,-648 432.5,-648 432.5,-648 488.5,-648 488.5,-648 494.5,-648 500.5,-654 500.5,-660 500.5,-660 500.5,-672 500.5,-672 500.5,-678 494.5,-684 488.5,-684"/>
<text text-anchor="middle" x="460.5" y="-663.5" font-family="sans" font-size="10.00">cp_reference</text>
</g>
<!-- 4&#45;&gt;1 -->
<g id="edge4" class="edge">
<title>4&#45;&gt;1</title>
<path fill="none" stroke="grey" stroke-width="2" d="M500.7,-659.54C568.32,-647.85 697.5,-613.66 697.5,-523 697.5,-523 697.5,-523 697.5,-305 697.5,-263.63 682.27,-217.72 671.09,-189.61"/>
<polygon fill="grey" stroke="grey" stroke-width="2" points="674.22,-188.02 667.19,-180.09 667.74,-190.67 674.22,-188.02"/>
</g>
<!-- 8 -->
<g id="node9" class="node">
<title>8</title>
<path fill="none" stroke="#c6d856" stroke-width="2" stroke-dasharray="5,2" d="M515,-612C515,-612 470,-612 470,-612 464,-612 458,-606 458,-600 458,-600 458,-588 458,-588 458,-582 464,-576 470,-576 470,-576 515,-576 515,-576 521,-576 527,-582 527,-588 527,-588 527,-600 527,-600 527,-606 521,-612 515,-612"/>
<text text-anchor="middle" x="492.5" y="-591.5" font-family="sans" font-size="10.00">bwa_index</text>
</g>
<!-- 4&#45;&gt;8 -->
<g id="edge20" class="edge">
<title>4&#45;&gt;8</title>
<path fill="none" stroke="grey" stroke-width="2" d="M468.41,-647.7C472.05,-639.73 476.45,-630.1 480.49,-621.26"/>
<polygon fill="grey" stroke="grey" stroke-width="2" points="483.71,-622.65 484.68,-612.1 477.34,-619.74 483.71,-622.65"/>
</g>
<!-- 10 -->
<g id="node11" class="node">
<title>10</title>
<path fill="none" stroke="#d86e56" stroke-width="2" stroke-dasharray="5,2" d="M518,-180C518,-180 477,-180 477,-180 471,-180 465,-174 465,-168 465,-168 465,-156 465,-156 465,-150 471,-144 477,-144 477,-144 518,-144 518,-144 524,-144 530,-150 530,-156 530,-156 530,-168 530,-168 530,-174 524,-180 518,-180"/>
<text text-anchor="middle" x="497.5" y="-159.5" font-family="sans" font-size="10.00">freebayes</text>
</g>
<!-- 4&#45;&gt;10 -->
<g id="edge22" class="edge">
<title>4&#45;&gt;10</title>
<path fill="none" stroke="grey" stroke-width="2" d="M490.59,-647.89C527,-624.7 583.5,-579.59 583.5,-523 583.5,-523 583.5,-523 583.5,-305 583.5,-264.46 584.95,-250.4 563.5,-216 556.25,-204.37 545.53,-194.19 534.82,-185.93"/>
<polygon fill="grey" stroke="grey" stroke-width="2" points="536.84,-183.07 526.7,-180 532.71,-188.73 536.84,-183.07"/>
</g>
<!-- 18 -->
<g id="node19" class="node">
<title>18</title>
<path fill="none" stroke="#78d856" stroke-width="2" stroke-dasharray="5,2" d="M364.5,-540C364.5,-540 320.5,-540 320.5,-540 314.5,-540 308.5,-534 308.5,-528 308.5,-528 308.5,-516 308.5,-516 308.5,-510 314.5,-504 320.5,-504 320.5,-504 364.5,-504 364.5,-504 370.5,-504 376.5,-510 376.5,-516 376.5,-516 376.5,-528 376.5,-528 376.5,-534 370.5,-540 364.5,-540"/>
<text text-anchor="middle" x="342.5" y="-519.5" font-family="sans" font-size="10.00">bwa_mem</text>
</g>
<!-- 4&#45;&gt;18 -->
<g id="edge32" class="edge">
<title>4&#45;&gt;18</title>
<path fill="none" stroke="grey" stroke-width="2" d="M453.27,-647.66C444.83,-628.73 429.57,-598.17 410.5,-576 401,-564.95 388.89,-554.64 377.53,-546.1"/>
<polygon fill="grey" stroke="grey" stroke-width="2" points="379.58,-543.27 369.43,-540.22 375.46,-548.93 379.58,-543.27"/>
</g>
<!-- 19 -->
<g id="node20" class="node">
<title>19</title>
<path fill="none" stroke="#d85656" stroke-width="2" stroke-dasharray="5,2" d="M309.5,-612C309.5,-612 241.5,-612 241.5,-612 235.5,-612 229.5,-606 229.5,-600 229.5,-600 229.5,-588 229.5,-588 229.5,-582 235.5,-576 241.5,-576 241.5,-576 309.5,-576 309.5,-576 315.5,-576 321.5,-582 321.5,-588 321.5,-588 321.5,-600 321.5,-600 321.5,-606 315.5,-612 309.5,-612"/>
<text text-anchor="middle" x="275.5" y="-591.5" font-family="sans" font-size="10.00">samtools_faidx</text>
</g>
<!-- 4&#45;&gt;19 -->
<g id="edge37" class="edge">
<title>4&#45;&gt;19</title>
<path fill="none" stroke="grey" stroke-width="2" d="M420.36,-649.81C393.91,-639.8 358.95,-626.58 330,-615.62"/>
<polygon fill="grey" stroke="grey" stroke-width="2" points="331.02,-612.27 320.43,-612 328.55,-618.81 331.02,-612.27"/>
</g>
<!-- 20 -->
<g id="node21" class="node">
<title>20</title>
<path fill="none" stroke="#5673d8" stroke-width="2" stroke-dasharray="5,2" d="M389.5,-612C389.5,-612 351.5,-612 351.5,-612 345.5,-612 339.5,-606 339.5,-600 339.5,-600 339.5,-588 339.5,-588 339.5,-582 345.5,-576 351.5,-576 351.5,-576 389.5,-576 389.5,-576 395.5,-576 401.5,-582 401.5,-588 401.5,-588 401.5,-600 401.5,-600 401.5,-606 395.5,-612 389.5,-612"/>
<text text-anchor="middle" x="370.5" y="-591.5" font-family="sans" font-size="10.00">gatk_dict</text>
</g>
<!-- 4&#45;&gt;20 -->
<g id="edge38" class="edge">
<title>4&#45;&gt;20</title>
<path fill="none" stroke="grey" stroke-width="2" d="M438.25,-647.7C426.92,-638.88 412.97,-628.03 400.68,-618.47"/>
<polygon fill="grey" stroke="grey" stroke-width="2" points="402.53,-615.48 392.49,-612.1 398.24,-621.01 402.53,-615.48"/>
</g>
<!-- 5 -->
<g id="node6" class="node">
<title>5</title>
<path fill="none" stroke="#d8a456" stroke-width="2" stroke-dasharray="5,2" d="M366,-324C366,-324 271,-324 271,-324 265,-324 259,-318 259,-312 259,-312 259,-300 259,-300 259,-294 265,-288 271,-288 271,-288 366,-288 366,-288 372,-288 378,-294 378,-300 378,-300 378,-312 378,-312 378,-318 372,-324 366,-324"/>
<text text-anchor="middle" x="318.5" y="-303.5" font-family="sans" font-size="10.00">gatk_markduplicates</text>
</g>
<!-- 5&#45;&gt;1 -->
<g id="edge5" class="edge">
<title>5&#45;&gt;1</title>
<path fill="none" stroke="grey" stroke-width="2" d="M378.16,-300.97C429.71,-295.48 504.93,-282.51 563.5,-252 593.75,-236.24 621.52,-208.37 639.33,-188.01"/>
<polygon fill="grey" stroke="grey" stroke-width="2" points="642.05,-190.22 645.88,-180.34 636.72,-185.67 642.05,-190.22"/>
</g>
<!-- 5&#45;&gt;3 -->
<g id="edge16" class="edge">
<title>5&#45;&gt;3</title>
<path fill="none" stroke="grey" stroke-width="2" d="M258.82,-300.87C225.23,-295.12 185.85,-281.92 164.5,-252 151.42,-233.67 158.54,-208.08 167.4,-189.04"/>
<polygon fill="grey" stroke="grey" stroke-width="2" points="170.57,-190.53 171.94,-180.02 164.32,-187.38 170.57,-190.53"/>
</g>
<!-- 7 -->
<g id="node8" class="node">
<title>7</title>
<path fill="none" stroke="#56d8c9" stroke-width="2" stroke-dasharray="5,2" d="M543,-252C543,-252 452,-252 452,-252 446,-252 440,-246 440,-240 440,-240 440,-228 440,-228 440,-222 446,-216 452,-216 452,-216 543,-216 543,-216 549,-216 555,-222 555,-228 555,-228 555,-240 555,-240 555,-246 549,-252 543,-252"/>
<text text-anchor="middle" x="497.5" y="-231.5" font-family="sans" font-size="10.00">samtools_index_md</text>
</g>
<!-- 5&#45;&gt;7 -->
<g id="edge19" class="edge">
<title>5&#45;&gt;7</title>
<path fill="none" stroke="grey" stroke-width="2" d="M362.29,-287.88C387.08,-278.18 418.28,-265.98 444.46,-255.74"/>
<polygon fill="grey" stroke="grey" stroke-width="2" points="445.82,-258.97 453.85,-252.07 443.27,-252.45 445.82,-258.97"/>
</g>
<!-- 5&#45;&gt;10 -->
<g id="edge23" class="edge">
<title>5&#45;&gt;10</title>
<path fill="none" stroke="grey" stroke-width="2" d="M330.67,-287.94C345.02,-268.7 370.37,-237.32 397.5,-216 415.08,-202.19 436.78,-190.18 455.48,-181.11"/>
<polygon fill="grey" stroke="grey" stroke-width="2" points="457.11,-184.2 464.66,-176.76 454.12,-177.88 457.11,-184.2"/>
</g>
<!-- 13 -->
<g id="node14" class="node">
<title>13</title>
<path fill="none" stroke="#56d0d8" stroke-width="2" stroke-dasharray="5,2" d="M253,-252C253,-252 186,-252 186,-252 180,-252 174,-246 174,-240 174,-240 174,-228 174,-228 174,-222 180,-216 186,-216 186,-216 253,-216 253,-216 259,-216 265,-222 265,-228 265,-228 265,-240 265,-240 265,-246 259,-252 253,-252"/>
<text text-anchor="middle" x="219.5" y="-231.5" font-family="sans" font-size="10.00">samtools_stats</text>
</g>
<!-- 5&#45;&gt;13 -->
<g id="edge28" class="edge">
<title>5&#45;&gt;13</title>
<path fill="none" stroke="grey" stroke-width="2" d="M294.28,-287.88C281.58,-278.89 265.84,-267.76 252.08,-258.03"/>
<polygon fill="grey" stroke="grey" stroke-width="2" points="254,-255.11 243.81,-252.19 249.96,-260.82 254,-255.11"/>
</g>
<!-- 14 -->
<g id="node15" class="node">
<title>14</title>
<path fill="none" stroke="#97d856" stroke-width="2" stroke-dasharray="5,2" d="M333.5,-252C333.5,-252 295.5,-252 295.5,-252 289.5,-252 283.5,-246 283.5,-240 283.5,-240 283.5,-228 283.5,-228 283.5,-222 289.5,-216 295.5,-216 295.5,-216 333.5,-216 333.5,-216 339.5,-216 345.5,-222 345.5,-228 345.5,-228 345.5,-240 345.5,-240 345.5,-246 339.5,-252 333.5,-252"/>
<text text-anchor="middle" x="314.5" y="-231.5" font-family="sans" font-size="10.00">qualimap</text>
</g>
<!-- 5&#45;&gt;14 -->
<g id="edge29" class="edge">
<title>5&#45;&gt;14</title>
<path fill="none" stroke="grey" stroke-width="2" d="M317.51,-287.7C317.07,-279.98 316.54,-270.71 316.05,-262.11"/>
<polygon fill="grey" stroke="grey" stroke-width="2" points="319.54,-261.89 315.48,-252.1 312.55,-262.29 319.54,-261.89"/>
</g>
<!-- 6 -->
<g id="node7" class="node">
<title>6</title>
<path fill="none" stroke="#61d856" stroke-width="2" stroke-dasharray="5,2" d="M809.5,-324C809.5,-324 777.5,-324 777.5,-324 771.5,-324 765.5,-318 765.5,-312 765.5,-312 765.5,-300 765.5,-300 765.5,-294 771.5,-288 777.5,-288 777.5,-288 809.5,-288 809.5,-288 815.5,-288 821.5,-294 821.5,-300 821.5,-300 821.5,-312 821.5,-312 821.5,-318 815.5,-324 809.5,-324"/>
<text text-anchor="middle" x="793.5" y="-303.5" font-family="sans" font-size="10.00">cp_snps</text>
</g>
<!-- 6&#45;&gt;1 -->
<g id="edge6" class="edge">
<title>6&#45;&gt;1</title>
<path fill="none" stroke="grey" stroke-width="2" d="M777.94,-287.79C761.56,-269.75 734.95,-240.67 711.5,-216 702.48,-206.51 692.43,-196.21 683.59,-187.23"/>
<polygon fill="grey" stroke="grey" stroke-width="2" points="686.02,-184.71 676.5,-180.05 681.04,-189.63 686.02,-184.71"/>
</g>
<!-- 6&#45;&gt;2 -->
<g id="edge11" class="edge">
<title>6&#45;&gt;2</title>
<path fill="none" stroke="grey" stroke-width="2" d="M810.6,-287.75C826.6,-269.43 846.13,-239.88 832.5,-216 800.94,-160.73 734.37,-127.53 684,-109.39"/>
<polygon fill="grey" stroke="grey" stroke-width="2" points="685.07,-106.05 674.48,-106.07 682.77,-112.66 685.07,-106.05"/>
</g>
<!-- 9 -->
<g id="node10" class="node">
<title>9</title>
<path fill="none" stroke="#568ad8" stroke-width="2" stroke-dasharray="5,2" d="M811,-252C811,-252 776,-252 776,-252 770,-252 764,-246 764,-240 764,-240 764,-228 764,-228 764,-222 770,-216 776,-216 776,-216 811,-216 811,-216 817,-216 823,-222 823,-228 823,-228 823,-240 823,-240 823,-246 817,-252 811,-252"/>
<text text-anchor="middle" x="793.5" y="-231.5" font-family="sans" font-size="10.00">gatk_idx</text>
</g>
<!-- 6&#45;&gt;9 -->
<g id="edge21" class="edge">
<title>6&#45;&gt;9</title>
<path fill="none" stroke="grey" stroke-width="2" d="M793.5,-287.7C793.5,-279.98 793.5,-270.71 793.5,-262.11"/>
<polygon fill="grey" stroke="grey" stroke-width="2" points="797,-262.1 793.5,-252.1 790,-262.1 797,-262.1"/>
</g>
<!-- 7&#45;&gt;1 -->
<g id="edge7" class="edge">
<title>7&#45;&gt;1</title>
<path fill="none" stroke="grey" stroke-width="2" d="M537.13,-215.88C559.28,-206.31 587.06,-194.3 610.56,-184.15"/>
<polygon fill="grey" stroke="grey" stroke-width="2" points="612.21,-187.25 620,-180.07 609.43,-180.82 612.21,-187.25"/>
</g>
<!-- 7&#45;&gt;10 -->
<g id="edge24" class="edge">
<title>7&#45;&gt;10</title>
<path fill="none" stroke="grey" stroke-width="2" d="M497.5,-215.7C497.5,-207.98 497.5,-198.71 497.5,-190.11"/>
<polygon fill="grey" stroke="grey" stroke-width="2" points="501,-190.1 497.5,-180.1 494,-190.1 501,-190.1"/>
</g>
<!-- 8&#45;&gt;1 -->
<g id="edge8" class="edge">
<title>8&#45;&gt;1</title>
<path fill="none" stroke="grey" stroke-width="2" d="M499.15,-575.88C524.86,-509.67 617.9,-270.11 649.17,-189.6"/>
<polygon fill="grey" stroke="grey" stroke-width="2" points="652.47,-190.76 652.83,-180.17 645.95,-188.23 652.47,-190.76"/>
</g>
<!-- 8&#45;&gt;10 -->
<g id="edge25" class="edge">
<title>8&#45;&gt;10</title>
<path fill="none" stroke="grey" stroke-width="2" d="M474.92,-575.98C451.1,-550.99 411.5,-501.8 411.5,-451 411.5,-451 411.5,-451 411.5,-305 411.5,-264.55 409.15,-250.36 430.5,-216 437.74,-204.35 448.48,-194.21 459.26,-186"/>
<polygon fill="grey" stroke="grey" stroke-width="2" points="461.38,-188.79 467.45,-180.1 457.29,-183.1 461.38,-188.79"/>
</g>
<!-- 8&#45;&gt;18 -->
<g id="edge34" class="edge">
<title>8&#45;&gt;18</title>
<path fill="none" stroke="grey" stroke-width="2" d="M457.71,-576.76C436.26,-566.75 408.58,-553.84 385.73,-543.17"/>
<polygon fill="grey" stroke="grey" stroke-width="2" points="387.13,-539.96 376.58,-538.91 384.17,-546.31 387.13,-539.96"/>
</g>
<!-- 9&#45;&gt;1 -->
<g id="edge9" class="edge">
<title>9&#45;&gt;1</title>
<path fill="none" stroke="grey" stroke-width="2" d="M763.76,-217.46C745.44,-207.89 721.67,-195.48 701.45,-184.92"/>
<polygon fill="grey" stroke="grey" stroke-width="2" points="702.93,-181.74 692.45,-180.21 699.69,-187.94 702.93,-181.74"/>
</g>
<!-- 10&#45;&gt;2 -->
<g id="edge10" class="edge">
<title>10&#45;&gt;2</title>
<path fill="none" stroke="grey" stroke-width="2" d="M527.34,-143.88C543.44,-134.64 563.5,-123.13 580.79,-113.21"/>
<polygon fill="grey" stroke="grey" stroke-width="2" points="582.61,-116.2 589.54,-108.19 579.13,-110.13 582.61,-116.2"/>
</g>
<!-- 11 -->
<g id="node12" class="node">
<title>11</title>
<path fill="none" stroke="#56d8a9" stroke-width="2" stroke-dasharray="5,2" d="M67.5,-540C67.5,-540 37.5,-540 37.5,-540 31.5,-540 25.5,-534 25.5,-528 25.5,-528 25.5,-516 25.5,-516 25.5,-510 31.5,-504 37.5,-504 37.5,-504 67.5,-504 67.5,-504 73.5,-504 79.5,-510 79.5,-516 79.5,-516 79.5,-528 79.5,-528 79.5,-534 73.5,-540 67.5,-540"/>
<text text-anchor="middle" x="52.5" y="-519.5" font-family="sans" font-size="10.00">fastqc</text>
</g>
<!-- 11&#45;&gt;3 -->
<g id="edge12" class="edge">
<title>11&#45;&gt;3</title>
<path fill="none" stroke="grey" stroke-width="2" d="M54.28,-503.97C56.9,-477.34 61.5,-424.21 61.5,-379 61.5,-379 61.5,-379 61.5,-305 61.5,-262.97 66.76,-248.43 93.5,-216 107.43,-199.1 128.25,-186.29 146.24,-177.5"/>
<polygon fill="grey" stroke="grey" stroke-width="2" points="147.75,-180.65 155.35,-173.26 144.8,-174.31 147.75,-180.65"/>
</g>
<!-- 12 -->
<g id="node13" class="node">
<title>12</title>
<path fill="none" stroke="#d88556" stroke-width="2" stroke-dasharray="5,2" d="M148.5,-612C148.5,-612 92.5,-612 92.5,-612 86.5,-612 80.5,-606 80.5,-600 80.5,-600 80.5,-588 80.5,-588 80.5,-582 86.5,-576 92.5,-576 92.5,-576 148.5,-576 148.5,-576 154.5,-576 160.5,-582 160.5,-588 160.5,-588 160.5,-600 160.5,-600 160.5,-606 154.5,-612 148.5,-612"/>
<text text-anchor="middle" x="120.5" y="-591.5" font-family="sans" font-size="10.00">trimmomatic</text>
</g>
<!-- 12&#45;&gt;3 -->
<g id="edge13" class="edge">
<title>12&#45;&gt;3</title>
<path fill="none" stroke="grey" stroke-width="2" d="M117.93,-576C114.14,-549.4 107.5,-496.3 107.5,-451 107.5,-451 107.5,-451 107.5,-305 107.5,-259.77 137.62,-214.85 159.68,-188"/>
<polygon fill="grey" stroke="grey" stroke-width="2" points="162.44,-190.16 166.23,-180.27 157.09,-185.64 162.44,-190.16"/>
</g>
<!-- 12&#45;&gt;18 -->
<g id="edge33" class="edge">
<title>12&#45;&gt;18</title>
<path fill="none" stroke="grey" stroke-width="2" d="M160.7,-580.32C199.64,-568.05 258.51,-549.48 298.64,-536.83"/>
<polygon fill="grey" stroke="grey" stroke-width="2" points="299.93,-540.09 308.41,-533.75 297.82,-533.42 299.93,-540.09"/>
</g>
<!-- 13&#45;&gt;3 -->
<g id="edge14" class="edge">
<title>13&#45;&gt;3</title>
<path fill="none" stroke="grey" stroke-width="2" d="M210.35,-215.7C206.1,-207.64 200.94,-197.89 196.23,-188.98"/>
<polygon fill="grey" stroke="grey" stroke-width="2" points="199.31,-187.31 191.54,-180.1 193.12,-190.58 199.31,-187.31"/>
</g>
<!-- 14&#45;&gt;3 -->
<g id="edge15" class="edge">
<title>14&#45;&gt;3</title>
<path fill="none" stroke="grey" stroke-width="2" d="M283.22,-216.41C263.78,-206.1 238.73,-192.82 218.47,-182.08"/>
<polygon fill="grey" stroke="grey" stroke-width="2" points="220.01,-178.93 209.54,-177.34 216.73,-185.12 220.01,-178.93"/>
</g>
<!-- 15 -->
<g id="node16" class="node">
<title>15</title>
<path fill="none" stroke="#afd856" stroke-width="2" stroke-dasharray="5,2" d="M367.5,-468C367.5,-468 305.5,-468 305.5,-468 299.5,-468 293.5,-462 293.5,-456 293.5,-456 293.5,-444 293.5,-444 293.5,-438 299.5,-432 305.5,-432 305.5,-432 367.5,-432 367.5,-432 373.5,-432 379.5,-438 379.5,-444 379.5,-444 379.5,-456 379.5,-456 379.5,-462 373.5,-468 367.5,-468"/>
<text text-anchor="middle" x="336.5" y="-447.5" font-family="sans" font-size="10.00">samtools_sort</text>
</g>
<!-- 15&#45;&gt;5 -->
<g id="edge17" class="edge">
<title>15&#45;&gt;5</title>
<path fill="none" stroke="grey" stroke-width="2" d="M310.38,-431.82C298.92,-422.69 286.69,-410.39 280.5,-396 274.17,-381.3 275.6,-375.23 280.5,-360 283.69,-350.08 289.5,-340.44 295.63,-332.17"/>
<polygon fill="grey" stroke="grey" stroke-width="2" points="298.57,-334.09 302.04,-324.08 293.08,-329.74 298.57,-334.09"/>
</g>
<!-- 16 -->
<g id="node17" class="node">
<title>16</title>
<path fill="none" stroke="#d8bc56" stroke-width="2" stroke-dasharray="5,2" d="M371.5,-396C371.5,-396 301.5,-396 301.5,-396 295.5,-396 289.5,-390 289.5,-384 289.5,-384 289.5,-372 289.5,-372 289.5,-366 295.5,-360 301.5,-360 301.5,-360 371.5,-360 371.5,-360 377.5,-360 383.5,-366 383.5,-372 383.5,-372 383.5,-384 383.5,-384 383.5,-390 377.5,-396 371.5,-396"/>
<text text-anchor="middle" x="336.5" y="-375.5" font-family="sans" font-size="10.00">samtools_index</text>
</g>
<!-- 15&#45;&gt;16 -->
<g id="edge31" class="edge">
<title>15&#45;&gt;16</title>
<path fill="none" stroke="grey" stroke-width="2" d="M336.5,-431.7C336.5,-423.98 336.5,-414.71 336.5,-406.11"/>
<polygon fill="grey" stroke="grey" stroke-width="2" points="340,-406.1 336.5,-396.1 333,-406.1 340,-406.1"/>
</g>
<!-- 16&#45;&gt;5 -->
<g id="edge18" class="edge">
<title>16&#45;&gt;5</title>
<path fill="none" stroke="grey" stroke-width="2" d="M332.05,-359.7C330.05,-351.9 327.63,-342.51 325.4,-333.83"/>
<polygon fill="grey" stroke="grey" stroke-width="2" points="328.78,-332.92 322.9,-324.1 322,-334.66 328.78,-332.92"/>
</g>
<!-- 17 -->
<g id="node18" class="node">
<title>17</title>
<path fill="none" stroke="#56d863" stroke-width="2" stroke-dasharray="5,2" d="M161,-684C161,-684 12,-684 12,-684 6,-684 0,-678 0,-672 0,-672 0,-660 0,-660 0,-654 6,-648 12,-648 12,-648 161,-648 161,-648 167,-648 173,-654 173,-660 173,-660 173,-672 173,-672 173,-678 167,-684 161,-684"/>
<text text-anchor="middle" x="86.5" y="-669" font-family="sans" font-size="10.00">cp_reads</text>
<text text-anchor="middle" x="86.5" y="-658" font-family="sans" font-size="10.00">library: N100_R2_AF0.6_NR7000</text>
</g>
<!-- 17&#45;&gt;11 -->
<g id="edge26" class="edge">
<title>17&#45;&gt;11</title>
<path fill="none" stroke="grey" stroke-width="2" d="M81.35,-647.89C78.31,-637.54 74.49,-624.07 71.5,-612 66.4,-591.43 61.43,-567.97 57.85,-550.31"/>
<polygon fill="grey" stroke="grey" stroke-width="2" points="61.21,-549.26 55.81,-540.14 54.34,-550.63 61.21,-549.26"/>
</g>
<!-- 17&#45;&gt;12 -->
<g id="edge27" class="edge">
<title>17&#45;&gt;12</title>
<path fill="none" stroke="grey" stroke-width="2" d="M94.9,-647.7C98.77,-639.73 103.45,-630.1 107.74,-621.26"/>
<polygon fill="grey" stroke="grey" stroke-width="2" points="110.97,-622.63 112.19,-612.1 104.67,-619.57 110.97,-622.63"/>
</g>
<!-- 18&#45;&gt;15 -->
<g id="edge30" class="edge">
<title>18&#45;&gt;15</title>
<path fill="none" stroke="grey" stroke-width="2" d="M341.02,-503.7C340.36,-495.98 339.56,-486.71 338.82,-478.11"/>
<polygon fill="grey" stroke="grey" stroke-width="2" points="342.31,-477.77 337.97,-468.1 335.33,-478.37 342.31,-477.77"/>
</g>
<!-- 19&#45;&gt;18 -->
<g id="edge35" class="edge">
<title>19&#45;&gt;18</title>
<path fill="none" stroke="grey" stroke-width="2" d="M292.06,-575.7C300.18,-567.22 310.09,-556.86 318.97,-547.58"/>
<polygon fill="grey" stroke="grey" stroke-width="2" points="321.74,-549.75 326.13,-540.1 316.69,-544.91 321.74,-549.75"/>
</g>
<!-- 20&#45;&gt;18 -->
<g id="edge36" class="edge">
<title>20&#45;&gt;18</title>
<path fill="none" stroke="grey" stroke-width="2" d="M363.58,-575.7C360.43,-567.81 356.62,-558.3 353.12,-549.55"/>
<polygon fill="grey" stroke="grey" stroke-width="2" points="356.31,-548.09 349.34,-540.1 349.81,-550.69 356.31,-548.09"/>
</g>
</g>
</svg>
