<?xml version="1.0" encoding="UTF-8" standalone="no"?>
<!DOCTYPE svg PUBLIC "-//W3C//DTD SVG 1.1//EN"
 "http://www.w3.org/Graphics/SVG/1.1/DTD/svg11.dtd">
<!-- Generated by graphviz version 2.43.0 (0)
 -->
<!-- Title: snakemake_dag Pages: 1 -->
<svg width="900pt" height="620pt"
 viewBox="0.00 0.00 899.50 620.00" xmlns="http://www.w3.org/2000/svg" xmlns:xlink="http://www.w3.org/1999/xlink">
<g id="graph0" class="graph" transform="scale(1 1) rotate(0) translate(4 616)">
<title>snakemake_dag</title>
<polygon fill="white" stroke="transparent" points="-4,4 -4,-616 895.5,-616 895.5,4 -4,4"/>
<!-- 0 -->
<g id="node1" class="node">
<title>0</title>
<path fill="none" stroke="#d88d56" stroke-width="2" stroke-dasharray="5,2" d="M441,-36C441,-36 411,-36 411,-36 405,-36 399,-30 399,-24 399,-24 399,-12 399,-12 399,-6 405,0 411,0 411,0 441,0 441,0 447,0 453,-6 453,-12 453,-12 453,-24 453,-24 453,-30 447,-36 441,-36"/>
<text text-anchor="middle" x="426" y="-15.5" font-family="sans" font-size="10.00">all</text>
</g>
<!-- 1 -->
<g id="node2" class="node">
<title>1</title>
<path fill="none" stroke="#c6d856" stroke-width="2" stroke-dasharray="5,2" d="M42,-396C42,-396 12,-396 12,-396 6,-396 0,-390 0,-384 0,-384 0,-372 0,-372 0,-366 6,-360 12,-360 12,-360 42,-360 42,-360 48,-360 54,-366 54,-372 54,-372 54,-384 54,-384 54,-390 48,-396 42,-396"/>
<text text-anchor="middle" x="27" y="-375.5" font-family="sans" font-size="10.00">multiqc</text>
</g>
<!-- 1&#45;&gt;0 -->
<g id="edge1" class="edge">
<title>1&#45;&gt;0</title>
<path fill="none" stroke="grey" stroke-width="2" d="M22.75,-359.63C16.61,-332.99 6,-280.36 6,-235 6,-235 6,-235 6,-161 6,-108.98 36.56,-97.32 82,-72 134.11,-42.96 310.5,-27.18 388.44,-21.49"/>
<polygon fill="grey" stroke="grey" stroke-width="2" points="389.04,-24.96 398.76,-20.75 388.54,-17.97 389.04,-24.96"/>
</g>
<!-- 2 -->
<g id="node3" class="node">
<title>2</title>
<path fill="none" stroke="#c6d856" stroke-width="2" stroke-dasharray="5,2" d="M875,-324C875,-324 845,-324 845,-324 839,-324 833,-318 833,-312 833,-312 833,-300 833,-300 833,-294 839,-288 845,-288 845,-288 875,-288 875,-288 881,-288 887,-294 887,-300 887,-300 887,-312 887,-312 887,-318 881,-324 875,-324"/>
<text text-anchor="middle" x="860" y="-303.5" font-family="sans" font-size="10.00">multiqc</text>
</g>
<!-- 2&#45;&gt;0 -->
<g id="edge2" class="edge">
<title>2&#45;&gt;0</title>
<path fill="none" stroke="grey" stroke-width="2" d="M865.58,-287.87C878.34,-245.1 904.38,-132.68 848,-72 821.97,-43.98 561.63,-26.6 463.32,-20.99"/>
<polygon fill="grey" stroke="grey" stroke-width="2" points="463.42,-17.49 453.24,-20.42 463.03,-24.48 463.42,-17.49"/>
</g>
<!-- 3 -->
<g id="node4" class="node">
<title>3</title>
<path fill="none" stroke="#56d892" stroke-width="2" stroke-dasharray="5,2" d="M171,-108C171,-108 133,-108 133,-108 127,-108 121,-102 121,-96 121,-96 121,-84 121,-84 121,-78 127,-72 133,-72 133,-72 171,-72 171,-72 177,-72 183,-78 183,-84 183,-84 183,-96 183,-96 183,-102 177,-108 171,-108"/>
<text text-anchor="middle" x="152" y="-87.5" font-family="sans" font-size="10.00">qualimap</text>
</g>
<!-- 3&#45;&gt;0 -->
<g id="edge3" class="edge">
<title>3&#45;&gt;0</title>
<path fill="none" stroke="grey" stroke-width="2" d="M183.08,-77.43C188.68,-75.51 194.49,-73.62 200,-72 265.83,-52.69 344.05,-35.62 389.07,-26.36"/>
<polygon fill="grey" stroke="grey" stroke-width="2" points="389.87,-29.77 398.96,-24.34 388.46,-22.91 389.87,-29.77"/>
</g>
<!-- 4 -->
<g id="node5" class="node">
<title>4</title>
<path fill="none" stroke="#56d892" stroke-width="2" stroke-dasharray="5,2" d="M827,-108C827,-108 789,-108 789,-108 783,-108 777,-102 777,-96 777,-96 777,-84 777,-84 777,-78 783,-72 789,-72 789,-72 827,-72 827,-72 833,-72 839,-78 839,-84 839,-84 839,-96 839,-96 839,-102 833,-108 827,-108"/>
<text text-anchor="middle" x="808" y="-87.5" font-family="sans" font-size="10.00">qualimap</text>
</g>
<!-- 4&#45;&gt;0 -->
<g id="edge4" class="edge">
<title>4&#45;&gt;0</title>
<path fill="none" stroke="grey" stroke-width="2" d="M776.8,-76.27C772.22,-74.68 767.52,-73.2 763,-72 656.1,-43.72 525.88,-28.5 463.22,-22.33"/>
<polygon fill="grey" stroke="grey" stroke-width="2" points="463.33,-18.83 453.04,-21.35 462.65,-25.79 463.33,-18.83"/>
</g>
<!-- 5 -->
<g id="node6" class="node">
<title>5</title>
<path fill="none" stroke="#56d873" stroke-width="2" stroke-dasharray="5,2" d="M204.5,-252C204.5,-252 109.5,-252 109.5,-252 103.5,-252 97.5,-246 97.5,-240 97.5,-240 97.5,-228 97.5,-228 97.5,-222 103.5,-216 109.5,-216 109.5,-216 204.5,-216 204.5,-216 210.5,-216 216.5,-222 216.5,-228 216.5,-228 216.5,-240 216.5,-240 216.5,-246 210.5,-252 204.5,-252"/>
<text text-anchor="middle" x="157" y="-231.5" font-family="sans" font-size="10.00">gatk_markduplicates</text>
</g>
<!-- 5&#45;&gt;0 -->
<g id="edge5" class="edge">
<title>5&#45;&gt;0</title>
<path fill="none" stroke="grey" stroke-width="2" d="M126.23,-215.91C113.46,-207.02 100,-194.88 93,-180 72.26,-135.9 76.01,-104.86 112,-72 151.89,-35.58 313.8,-23.88 388.24,-20.38"/>
<polygon fill="grey" stroke="grey" stroke-width="2" points="388.73,-23.86 398.56,-19.92 388.42,-16.87 388.73,-23.86"/>
</g>
<!-- 5&#45;&gt;3 -->
<g id="edge13" class="edge">
<title>5&#45;&gt;3</title>
<path fill="none" stroke="grey" stroke-width="2" d="M130.88,-215.82C119.42,-206.69 107.19,-194.39 101,-180 94.67,-165.3 95.02,-158.84 101,-144 105.35,-133.21 113.06,-123.39 121.19,-115.21"/>
<polygon fill="grey" stroke="grey" stroke-width="2" points="123.79,-117.57 128.7,-108.18 119,-112.46 123.79,-117.57"/>
</g>
<!-- 6 -->
<g id="node7" class="node">
<title>6</title>
<path fill="none" stroke="#d87556" stroke-width="2" stroke-dasharray="5,2" d="M213.5,-180C213.5,-180 122.5,-180 122.5,-180 116.5,-180 110.5,-174 110.5,-168 110.5,-168 110.5,-156 110.5,-156 110.5,-150 116.5,-144 122.5,-144 122.5,-144 213.5,-144 213.5,-144 219.5,-144 225.5,-150 225.5,-156 225.5,-156 225.5,-168 225.5,-168 225.5,-174 219.5,-180 213.5,-180"/>
<text text-anchor="middle" x="168" y="-159.5" font-family="sans" font-size="10.00">samtools_index_md</text>
</g>
<!-- 5&#45;&gt;6 -->
<g id="edge17" class="edge">
<title>5&#45;&gt;6</title>
<path fill="none" stroke="grey" stroke-width="2" d="M159.72,-215.7C160.93,-207.98 162.39,-198.71 163.74,-190.11"/>
<polygon fill="grey" stroke="grey" stroke-width="2" points="167.22,-190.53 165.31,-180.1 160.3,-189.44 167.22,-190.53"/>
</g>
<!-- 9 -->
<g id="node10" class="node">
<title>9</title>
<path fill="none" stroke="#56c9d8" stroke-width="2" stroke-dasharray="5,2" d="M360,-108C360,-108 300,-108 300,-108 294,-108 288,-102 288,-96 288,-96 288,-84 288,-84 288,-78 294,-72 300,-72 300,-72 360,-72 360,-72 366,-72 372,-78 372,-84 372,-84 372,-96 372,-96 372,-102 366,-108 360,-108"/>
<text text-anchor="middle" x="330" y="-87.5" font-family="sans" font-size="10.00">gatk_mutect2</text>
</g>
<!-- 5&#45;&gt;9 -->
<g id="edge22" class="edge">
<title>5&#45;&gt;9</title>
<path fill="none" stroke="grey" stroke-width="2" d="M184.05,-215.77C199.14,-205.82 218.04,-192.78 234,-180 259.46,-159.61 286.54,-134.12 305.43,-115.65"/>
<polygon fill="grey" stroke="grey" stroke-width="2" points="308.32,-117.71 312.99,-108.19 303.41,-112.72 308.32,-117.71"/>
</g>
<!-- 6&#45;&gt;0 -->
<g id="edge6" class="edge">
<title>6&#45;&gt;0</title>
<path fill="none" stroke="grey" stroke-width="2" d="M185.5,-143.87C206.31,-124.28 242.8,-92.29 279,-72 314.29,-52.22 358.36,-37.49 388.99,-28.65"/>
<polygon fill="grey" stroke="grey" stroke-width="2" points="390.16,-31.96 398.83,-25.88 388.26,-25.22 390.16,-31.96"/>
</g>
<!-- 6&#45;&gt;9 -->
<g id="edge24" class="edge">
<title>6&#45;&gt;9</title>
<path fill="none" stroke="grey" stroke-width="2" d="M207.63,-143.88C229.78,-134.31 257.56,-122.3 281.06,-112.15"/>
<polygon fill="grey" stroke="grey" stroke-width="2" points="282.71,-115.25 290.5,-108.07 279.93,-108.82 282.71,-115.25"/>
</g>
<!-- 7 -->
<g id="node8" class="node">
<title>7</title>
<path fill="none" stroke="#56d873" stroke-width="2" stroke-dasharray="5,2" d="M737.5,-252C737.5,-252 642.5,-252 642.5,-252 636.5,-252 630.5,-246 630.5,-240 630.5,-240 630.5,-228 630.5,-228 630.5,-222 636.5,-216 642.5,-216 642.5,-216 737.5,-216 737.5,-216 743.5,-216 749.5,-222 749.5,-228 749.5,-228 749.5,-240 749.5,-240 749.5,-246 743.5,-252 737.5,-252"/>
<text text-anchor="middle" x="690" y="-231.5" font-family="sans" font-size="10.00">gatk_markduplicates</text>
</g>
<!-- 7&#45;&gt;0 -->
<g id="edge7" class="edge">
<title>7&#45;&gt;0</title>
<path fill="none" stroke="grey" stroke-width="2" d="M719.04,-215.84C731.32,-206.87 744.31,-194.68 751,-180 757.64,-165.44 759.31,-157.67 751,-144 690.19,-44.02 535.54,-23.77 463.72,-19.84"/>
<polygon fill="grey" stroke="grey" stroke-width="2" points="463.49,-16.32 453.33,-19.35 463.16,-23.32 463.49,-16.32"/>
</g>
<!-- 7&#45;&gt;4 -->
<g id="edge14" class="edge">
<title>7&#45;&gt;4</title>
<path fill="none" stroke="grey" stroke-width="2" d="M736.45,-215.89C753.61,-207.47 771.82,-195.68 784,-180 797.77,-162.27 803.65,-137.26 806.16,-118.26"/>
<polygon fill="grey" stroke="grey" stroke-width="2" points="809.66,-118.46 807.26,-108.14 802.7,-117.7 809.66,-118.46"/>
</g>
<!-- 8 -->
<g id="node9" class="node">
<title>8</title>
<path fill="none" stroke="#d87556" stroke-width="2" stroke-dasharray="5,2" d="M729.5,-180C729.5,-180 638.5,-180 638.5,-180 632.5,-180 626.5,-174 626.5,-168 626.5,-168 626.5,-156 626.5,-156 626.5,-150 632.5,-144 638.5,-144 638.5,-144 729.5,-144 729.5,-144 735.5,-144 741.5,-150 741.5,-156 741.5,-156 741.5,-168 741.5,-168 741.5,-174 735.5,-180 729.5,-180"/>
<text text-anchor="middle" x="684" y="-159.5" font-family="sans" font-size="10.00">samtools_index_md</text>
</g>
<!-- 7&#45;&gt;8 -->
<g id="edge20" class="edge">
<title>7&#45;&gt;8</title>
<path fill="none" stroke="grey" stroke-width="2" d="M688.52,-215.7C687.86,-207.98 687.06,-198.71 686.32,-190.11"/>
<polygon fill="grey" stroke="grey" stroke-width="2" points="689.81,-189.77 685.47,-180.1 682.83,-190.37 689.81,-189.77"/>
</g>
<!-- 10 -->
<g id="node11" class="node">
<title>10</title>
<path fill="none" stroke="#56c9d8" stroke-width="2" stroke-dasharray="5,2" d="M552,-108C552,-108 492,-108 492,-108 486,-108 480,-102 480,-96 480,-96 480,-84 480,-84 480,-78 486,-72 492,-72 492,-72 552,-72 552,-72 558,-72 564,-78 564,-84 564,-84 564,-96 564,-96 564,-102 558,-108 552,-108"/>
<text text-anchor="middle" x="522" y="-87.5" font-family="sans" font-size="10.00">gatk_mutect2</text>
</g>
<!-- 7&#45;&gt;10 -->
<g id="edge28" class="edge">
<title>7&#45;&gt;10</title>
<path fill="none" stroke="grey" stroke-width="2" d="M665.48,-216C651.31,-205.91 633.31,-192.66 618,-180 592.76,-159.12 565.51,-133.54 546.51,-115.17"/>
<polygon fill="grey" stroke="grey" stroke-width="2" points="548.77,-112.48 539.16,-108.02 543.89,-117.5 548.77,-112.48"/>
</g>
<!-- 8&#45;&gt;0 -->
<g id="edge8" class="edge">
<title>8&#45;&gt;0</title>
<path fill="none" stroke="grey" stroke-width="2" d="M666.5,-143.87C645.69,-124.28 609.2,-92.29 573,-72 537.71,-52.22 493.64,-37.49 463.01,-28.65"/>
<polygon fill="grey" stroke="grey" stroke-width="2" points="463.74,-25.22 453.17,-25.88 461.84,-31.96 463.74,-25.22"/>
</g>
<!-- 8&#45;&gt;10 -->
<g id="edge30" class="edge">
<title>8&#45;&gt;10</title>
<path fill="none" stroke="grey" stroke-width="2" d="M644.37,-143.88C622.22,-134.31 594.44,-122.3 570.94,-112.15"/>
<polygon fill="grey" stroke="grey" stroke-width="2" points="572.07,-108.82 561.5,-108.07 569.29,-115.25 572.07,-108.82"/>
</g>
<!-- 9&#45;&gt;0 -->
<g id="edge9" class="edge">
<title>9&#45;&gt;0</title>
<path fill="none" stroke="grey" stroke-width="2" d="M353.73,-71.7C365.94,-62.8 380.99,-51.82 394.18,-42.2"/>
<polygon fill="grey" stroke="grey" stroke-width="2" points="396.52,-44.82 402.54,-36.1 392.4,-39.17 396.52,-44.82"/>
</g>
<!-- 10&#45;&gt;0 -->
<g id="edge10" class="edge">
<title>10&#45;&gt;0</title>
<path fill="none" stroke="grey" stroke-width="2" d="M498.27,-71.7C486.06,-62.8 471.01,-51.82 457.82,-42.2"/>
<polygon fill="grey" stroke="grey" stroke-width="2" points="459.6,-39.17 449.46,-36.1 455.48,-44.82 459.6,-39.17"/>
</g>
<!-- 11 -->
<g id="node12" class="node">
<title>11</title>
<path fill="none" stroke="#d8cb56" stroke-width="2" stroke-dasharray="5,2" d="M77,-540C77,-540 47,-540 47,-540 41,-540 35,-534 35,-528 35,-528 35,-516 35,-516 35,-510 41,-504 47,-504 47,-504 77,-504 77,-504 83,-504 89,-510 89,-516 89,-516 89,-528 89,-528 89,-534 83,-540 77,-540"/>
<text text-anchor="middle" x="62" y="-519.5" font-family="sans" font-size="10.00">fastqc</text>
</g>
<!-- 11&#45;&gt;1 -->
<g id="edge11" class="edge">
<title>11&#45;&gt;1</title>
<path fill="none" stroke="grey" stroke-width="2" d="M57.78,-503.87C51.79,-479.56 40.76,-434.82 33.66,-406.01"/>
<polygon fill="grey" stroke="grey" stroke-width="2" points="37.03,-405.06 31.24,-396.19 30.23,-406.74 37.03,-405.06"/>
</g>
<!-- 12 -->
<g id="node13" class="node">
<title>12</title>
<path fill="none" stroke="#d8cb56" stroke-width="2" stroke-dasharray="5,2" d="M873,-540C873,-540 843,-540 843,-540 837,-540 831,-534 831,-528 831,-528 831,-516 831,-516 831,-510 837,-504 843,-504 843,-504 873,-504 873,-504 879,-504 885,-510 885,-516 885,-516 885,-528 885,-528 885,-534 879,-540 873,-540"/>
<text text-anchor="middle" x="858" y="-519.5" font-family="sans" font-size="10.00">fastqc</text>
</g>
<!-- 12&#45;&gt;2 -->
<g id="edge12" class="edge">
<title>12&#45;&gt;2</title>
<path fill="none" stroke="grey" stroke-width="2" d="M858.16,-503.85C858.51,-466.83 859.33,-379.18 859.74,-334.39"/>
<polygon fill="grey" stroke="grey" stroke-width="2" points="863.25,-334.26 859.84,-324.23 856.25,-334.2 863.25,-334.26"/>
</g>
<!-- 13 -->
<g id="node14" class="node">
<title>13</title>
<path fill="none" stroke="#d85656" stroke-width="2" stroke-dasharray="5,2" d="M252,-396C252,-396 190,-396 190,-396 184,-396 178,-390 178,-384 178,-384 178,-372 178,-372 178,-366 184,-360 190,-360 190,-360 252,-360 252,-360 258,-360 264,-366 264,-372 264,-372 264,-384 264,-384 264,-390 258,-396 252,-396"/>
<text text-anchor="middle" x="221" y="-375.5" font-family="sans" font-size="10.00">samtools_sort</text>
</g>
<!-- 13&#45;&gt;5 -->
<g id="edge15" class="edge">
<title>13&#45;&gt;5</title>
<path fill="none" stroke="grey" stroke-width="2" d="M221.54,-359.69C221.43,-341.05 219.27,-311 208,-288 202.74,-277.27 194.51,-267.3 186.19,-258.97"/>
<polygon fill="grey" stroke="grey" stroke-width="2" points="188.59,-256.42 178.92,-252.1 183.78,-261.51 188.59,-256.42"/>
</g>
<!-- 14 -->
<g id="node15" class="node">
<title>14</title>
<path fill="none" stroke="#56d8a9" stroke-width="2" stroke-dasharray="5,2" d="M187,-324C187,-324 117,-324 117,-324 111,-324 105,-318 105,-312 105,-312 105,-300 105,-300 105,-294 111,-288 117,-288 117,-288 187,-288 187,-288 193,-288 199,-294 199,-300 199,-300 199,-312 199,-312 199,-318 193,-324 187,-324"/>
<text text-anchor="middle" x="152" y="-303.5" font-family="sans" font-size="10.00">samtools_index</text>
</g>
<!-- 13&#45;&gt;14 -->
<g id="edge36" class="edge">
<title>13&#45;&gt;14</title>
<path fill="none" stroke="grey" stroke-width="2" d="M203.94,-359.7C195.5,-351.14 185.18,-340.66 175.96,-331.3"/>
<polygon fill="grey" stroke="grey" stroke-width="2" points="178.37,-328.77 168.86,-324.1 173.39,-333.68 178.37,-328.77"/>
</g>
<!-- 14&#45;&gt;5 -->
<g id="edge16" class="edge">
<title>14&#45;&gt;5</title>
<path fill="none" stroke="grey" stroke-width="2" d="M153.24,-287.7C153.79,-279.98 154.45,-270.71 155.06,-262.11"/>
<polygon fill="grey" stroke="grey" stroke-width="2" points="158.56,-262.33 155.78,-252.1 151.57,-261.83 158.56,-262.33"/>
</g>
<!-- 15 -->
<g id="node16" class="node">
<title>15</title>
<path fill="none" stroke="#d85656" stroke-width="2" stroke-dasharray="5,2" d="M662,-396C662,-396 600,-396 600,-396 594,-396 588,-390 588,-384 588,-384 588,-372 588,-372 588,-366 594,-360 600,-360 600,-360 662,-360 662,-360 668,-360 674,-366 674,-372 674,-372 674,-384 674,-384 674,-390 668,-396 662,-396"/>
<text text-anchor="middle" x="631" y="-375.5" font-family="sans" font-size="10.00">samtools_sort</text>
</g>
<!-- 15&#45;&gt;7 -->
<g id="edge18" class="edge">
<title>15&#45;&gt;7</title>
<path fill="none" stroke="grey" stroke-width="2" d="M629.27,-359.75C628.13,-341.16 628.44,-311.15 639,-288 643.87,-277.33 651.81,-267.49 659.99,-259.26"/>
<polygon fill="grey" stroke="grey" stroke-width="2" points="662.63,-261.59 667.5,-252.18 657.82,-256.5 662.63,-261.59"/>
</g>
<!-- 16 -->
<g id="node17" class="node">
<title>16</title>
<path fill="none" stroke="#56d8a9" stroke-width="2" stroke-dasharray="5,2" d="M730,-324C730,-324 660,-324 660,-324 654,-324 648,-318 648,-312 648,-312 648,-300 648,-300 648,-294 654,-288 660,-288 660,-288 730,-288 730,-288 736,-288 742,-294 742,-300 742,-300 742,-312 742,-312 742,-318 736,-324 730,-324"/>
<text text-anchor="middle" x="695" y="-303.5" font-family="sans" font-size="10.00">samtools_index</text>
</g>
<!-- 15&#45;&gt;16 -->
<g id="edge38" class="edge">
<title>15&#45;&gt;16</title>
<path fill="none" stroke="grey" stroke-width="2" d="M646.82,-359.7C654.57,-351.22 664.04,-340.86 672.52,-331.58"/>
<polygon fill="grey" stroke="grey" stroke-width="2" points="675.2,-333.85 679.36,-324.1 670.03,-329.12 675.2,-333.85"/>
</g>
<!-- 16&#45;&gt;7 -->
<g id="edge19" class="edge">
<title>16&#45;&gt;7</title>
<path fill="none" stroke="grey" stroke-width="2" d="M693.76,-287.7C693.21,-279.98 692.55,-270.71 691.94,-262.11"/>
<polygon fill="grey" stroke="grey" stroke-width="2" points="695.43,-261.83 691.22,-252.1 688.44,-262.33 695.43,-261.83"/>
</g>
<!-- 17 -->
<g id="node18" class="node">
<title>17</title>
<path fill="none" stroke="#5692d8" stroke-width="2" stroke-dasharray="5,2" d="M448,-612C448,-612 392,-612 392,-612 386,-612 380,-606 380,-600 380,-600 380,-588 380,-588 380,-582 386,-576 392,-576 392,-576 448,-576 448,-576 454,-576 460,-582 460,-588 460,-588 460,-600 460,-600 460,-606 454,-612 448,-612"/>
<text text-anchor="middle" x="420" y="-591.5" font-family="sans" font-size="10.00">cp_reference</text>
</g>
<!-- 17&#45;&gt;9 -->
<g id="edge21" class="edge">
<title>17&#45;&gt;9</title>
<path fill="none" stroke="grey" stroke-width="2" d="M379.86,-586.89C348.25,-580.22 304.83,-566.69 276,-540 239.17,-505.9 225.91,-479.19 243,-432 250.09,-412.42 263.89,-414.73 273,-396 290.69,-359.62 292,-347.45 292,-307 292,-307 292,-307 292,-233 292,-191.63 307.23,-145.72 318.41,-117.61"/>
<polygon fill="grey" stroke="grey" stroke-width="2" points="321.76,-118.67 322.31,-108.09 315.28,-116.02 321.76,-118.67"/>
</g>
<!-- 17&#45;&gt;10 -->
<g id="edge27" class="edge">
<title>17&#45;&gt;10</title>
<path fill="none" stroke="grey" stroke-width="2" d="M460.25,-590.93C498.3,-586.8 554.43,-574.76 588,-540 621.92,-504.89 624.24,-478.04 608,-432 601.17,-412.62 587.83,-414.55 579,-396 561.62,-359.48 560,-347.45 560,-307 560,-307 560,-307 560,-233 560,-191.63 544.77,-145.72 533.59,-117.61"/>
<polygon fill="grey" stroke="grey" stroke-width="2" points="536.72,-116.02 529.69,-108.09 530.24,-118.67 536.72,-116.02"/>
</g>
<!-- 19 -->
<g id="node20" class="node">
<title>19</title>
<path fill="none" stroke="#59d856" stroke-width="2" stroke-dasharray="5,2" d="M358.5,-540C358.5,-540 313.5,-540 313.5,-540 307.5,-540 301.5,-534 301.5,-528 301.5,-528 301.5,-516 301.5,-516 301.5,-510 307.5,-504 313.5,-504 313.5,-504 358.5,-504 358.5,-504 364.5,-504 370.5,-510 370.5,-516 370.5,-516 370.5,-528 370.5,-528 370.5,-534 364.5,-540 358.5,-540"/>
<text text-anchor="middle" x="336" y="-519.5" font-family="sans" font-size="10.00">bwa_index</text>
</g>
<!-- 17&#45;&gt;19 -->
<g id="edge39" class="edge">
<title>17&#45;&gt;19</title>
<path fill="none" stroke="grey" stroke-width="2" d="M399.24,-575.7C388.76,-566.97 375.89,-556.24 364.5,-546.75"/>
<polygon fill="grey" stroke="grey" stroke-width="2" points="366.45,-543.82 356.53,-540.1 361.97,-549.19 366.45,-543.82"/>
</g>
<!-- 23 -->
<g id="node24" class="node">
<title>23</title>
<path fill="none" stroke="#70d856" stroke-width="2" stroke-dasharray="5,2" d="M308,-468C308,-468 264,-468 264,-468 258,-468 252,-462 252,-456 252,-456 252,-444 252,-444 252,-438 258,-432 264,-432 264,-432 308,-432 308,-432 314,-432 320,-438 320,-444 320,-444 320,-456 320,-456 320,-462 314,-468 308,-468"/>
<text text-anchor="middle" x="286" y="-447.5" font-family="sans" font-size="10.00">bwa_mem</text>
</g>
<!-- 17&#45;&gt;23 -->
<g id="edge41" class="edge">
<title>17&#45;&gt;23</title>
<path fill="none" stroke="grey" stroke-width="2" d="M379.93,-587.44C350.85,-581.15 313.18,-567.86 293,-540 280.25,-522.4 279.37,-497.37 281.18,-478.33"/>
<polygon fill="grey" stroke="grey" stroke-width="2" points="284.68,-478.55 282.44,-468.19 277.73,-477.68 284.68,-478.55"/>
</g>
<!-- 24 -->
<g id="node25" class="node">
<title>24</title>
<path fill="none" stroke="#70d856" stroke-width="2" stroke-dasharray="5,2" d="M587,-468C587,-468 543,-468 543,-468 537,-468 531,-462 531,-456 531,-456 531,-444 531,-444 531,-438 537,-432 543,-432 543,-432 587,-432 587,-432 593,-432 599,-438 599,-444 599,-444 599,-456 599,-456 599,-462 593,-468 587,-468"/>
<text text-anchor="middle" x="565" y="-447.5" font-family="sans" font-size="10.00">bwa_mem</text>
</g>
<!-- 17&#45;&gt;24 -->
<g id="edge46" class="edge">
<title>17&#45;&gt;24</title>
<path fill="none" stroke="grey" stroke-width="2" d="M460.08,-591.08C495.51,-587.01 545.28,-574.95 570,-540 582.65,-522.11 579.78,-496.8 574.69,-477.73"/>
<polygon fill="grey" stroke="grey" stroke-width="2" points="578.04,-476.71 571.8,-468.14 571.33,-478.72 578.04,-476.71"/>
</g>
<!-- 26 -->
<g id="node27" class="node">
<title>26</title>
<path fill="none" stroke="#afd856" stroke-width="2" stroke-dasharray="5,2" d="M549,-540C549,-540 481,-540 481,-540 475,-540 469,-534 469,-528 469,-528 469,-516 469,-516 469,-510 475,-504 481,-504 481,-504 549,-504 549,-504 555,-504 561,-510 561,-516 561,-516 561,-528 561,-528 561,-534 555,-540 549,-540"/>
<text text-anchor="middle" x="515" y="-519.5" font-family="sans" font-size="10.00">samtools_faidx</text>
</g>
<!-- 17&#45;&gt;26 -->
<g id="edge52" class="edge">
<title>17&#45;&gt;26</title>
<path fill="none" stroke="grey" stroke-width="2" d="M443.48,-575.7C455.56,-566.8 470.45,-555.82 483.52,-546.2"/>
<polygon fill="grey" stroke="grey" stroke-width="2" points="485.81,-548.85 491.79,-540.1 481.66,-543.22 485.81,-548.85"/>
</g>
<!-- 27 -->
<g id="node28" class="node">
<title>27</title>
<path fill="none" stroke="#8fd856" stroke-width="2" stroke-dasharray="5,2" d="M439,-540C439,-540 401,-540 401,-540 395,-540 389,-534 389,-528 389,-528 389,-516 389,-516 389,-510 395,-504 401,-504 401,-504 439,-504 439,-504 445,-504 451,-510 451,-516 451,-516 451,-528 451,-528 451,-534 445,-540 439,-540"/>
<text text-anchor="middle" x="420" y="-519.5" font-family="sans" font-size="10.00">gatk_dict</text>
</g>
<!-- 17&#45;&gt;27 -->
<g id="edge53" class="edge">
<title>17&#45;&gt;27</title>
<path fill="none" stroke="grey" stroke-width="2" d="M420,-575.7C420,-567.98 420,-558.71 420,-550.11"/>
<polygon fill="grey" stroke="grey" stroke-width="2" points="423.5,-550.1 420,-540.1 416.5,-550.1 423.5,-550.1"/>
</g>
<!-- 18 -->
<g id="node19" class="node">
<title>18</title>
<path fill="none" stroke="#d8ac56" stroke-width="2" stroke-dasharray="5,2" d="M442,-252C442,-252 410,-252 410,-252 404,-252 398,-246 398,-240 398,-240 398,-228 398,-228 398,-222 404,-216 410,-216 410,-216 442,-216 442,-216 448,-216 454,-222 454,-228 454,-228 454,-240 454,-240 454,-246 448,-252 442,-252"/>
<text text-anchor="middle" x="426" y="-231.5" font-family="sans" font-size="10.00">cp_snps</text>
</g>
<!-- 18&#45;&gt;9 -->
<g id="edge23" class="edge">
<title>18&#45;&gt;9</title>
<path fill="none" stroke="grey" stroke-width="2" d="M413.48,-215.95C405.98,-205.63 396.31,-192.15 388,-180 373.64,-159 357.91,-134.79 346.46,-116.92"/>
<polygon fill="grey" stroke="grey" stroke-width="2" points="349.23,-114.75 340.9,-108.21 343.33,-118.52 349.23,-114.75"/>
</g>
<!-- 18&#45;&gt;10 -->
<g id="edge29" class="edge">
<title>18&#45;&gt;10</title>
<path fill="none" stroke="grey" stroke-width="2" d="M439.29,-215.54C446.97,-205.3 456.72,-192.05 465,-180 479.33,-159.14 494.77,-134.91 505.96,-117.01"/>
<polygon fill="grey" stroke="grey" stroke-width="2" points="509.09,-118.62 511.4,-108.28 503.14,-114.92 509.09,-118.62"/>
</g>
<!-- 20 -->
<g id="node21" class="node">
<title>20</title>
<path fill="none" stroke="#56d8c9" stroke-width="2" stroke-dasharray="5,2" d="M443.5,-180C443.5,-180 408.5,-180 408.5,-180 402.5,-180 396.5,-174 396.5,-168 396.5,-168 396.5,-156 396.5,-156 396.5,-150 402.5,-144 408.5,-144 408.5,-144 443.5,-144 443.5,-144 449.5,-144 455.5,-150 455.5,-156 455.5,-156 455.5,-168 455.5,-168 455.5,-174 449.5,-180 443.5,-180"/>
<text text-anchor="middle" x="426" y="-159.5" font-family="sans" font-size="10.00">gatk_idx</text>
</g>
<!-- 18&#45;&gt;20 -->
<g id="edge40" class="edge">
<title>18&#45;&gt;20</title>
<path fill="none" stroke="grey" stroke-width="2" d="M426,-215.7C426,-207.98 426,-198.71 426,-190.11"/>
<polygon fill="grey" stroke="grey" stroke-width="2" points="429.5,-190.1 426,-180.1 422.5,-190.1 429.5,-190.1"/>
</g>
<!-- 19&#45;&gt;9 -->
<g id="edge25" class="edge">
<title>19&#45;&gt;9</title>
<path fill="none" stroke="grey" stroke-width="2" d="M335.76,-503.88C334.84,-437.94 331.52,-200.06 330.39,-118.59"/>
<polygon fill="grey" stroke="grey" stroke-width="2" points="333.88,-118.12 330.24,-108.17 326.88,-118.22 333.88,-118.12"/>
</g>
<!-- 19&#45;&gt;10 -->
<g id="edge31" class="edge">
<title>19&#45;&gt;10</title>
<path fill="none" stroke="grey" stroke-width="2" d="M344.67,-503.91C365.96,-461.69 422.08,-348.8 463,-252 476.31,-220.52 478.22,-212.08 490,-180 497.67,-159.13 506.18,-135.43 512.49,-117.74"/>
<polygon fill="grey" stroke="grey" stroke-width="2" points="515.87,-118.68 515.93,-108.09 509.28,-116.33 515.87,-118.68"/>
</g>
<!-- 19&#45;&gt;23 -->
<g id="edge43" class="edge">
<title>19&#45;&gt;23</title>
<path fill="none" stroke="grey" stroke-width="2" d="M323.64,-503.7C317.77,-495.47 310.63,-485.48 304.16,-476.42"/>
<polygon fill="grey" stroke="grey" stroke-width="2" points="306.88,-474.21 298.22,-468.1 301.18,-478.28 306.88,-474.21"/>
</g>
<!-- 19&#45;&gt;24 -->
<g id="edge48" class="edge">
<title>19&#45;&gt;24</title>
<path fill="none" stroke="grey" stroke-width="2" d="M370.94,-507.1C373.99,-506.01 377.04,-504.96 380,-504 439.9,-484.63 456.83,-486.52 517,-468 518.4,-467.57 519.82,-467.12 521.25,-466.67"/>
<polygon fill="grey" stroke="grey" stroke-width="2" points="522.37,-469.98 530.77,-463.51 520.17,-463.33 522.37,-469.98"/>
</g>
<!-- 20&#45;&gt;9 -->
<g id="edge26" class="edge">
<title>20&#45;&gt;9</title>
<path fill="none" stroke="grey" stroke-width="2" d="M402.27,-143.7C390.06,-134.8 375.01,-123.82 361.82,-114.2"/>
<polygon fill="grey" stroke="grey" stroke-width="2" points="363.6,-111.17 353.46,-108.1 359.48,-116.82 363.6,-111.17"/>
</g>
<!-- 20&#45;&gt;10 -->
<g id="edge32" class="edge">
<title>20&#45;&gt;10</title>
<path fill="none" stroke="grey" stroke-width="2" d="M449.73,-143.7C461.94,-134.8 476.99,-123.82 490.18,-114.2"/>
<polygon fill="grey" stroke="grey" stroke-width="2" points="492.52,-116.82 498.54,-108.1 488.4,-111.17 492.52,-116.82"/>
</g>
<!-- 21 -->
<g id="node22" class="node">
<title>21</title>
<path fill="none" stroke="#5673d8" stroke-width="2" stroke-dasharray="5,2" d="M185.5,-612C185.5,-612 30.5,-612 30.5,-612 24.5,-612 18.5,-606 18.5,-600 18.5,-600 18.5,-588 18.5,-588 18.5,-582 24.5,-576 30.5,-576 30.5,-576 185.5,-576 185.5,-576 191.5,-576 197.5,-582 197.5,-588 197.5,-588 197.5,-600 197.5,-600 197.5,-606 191.5,-612 185.5,-612"/>
<text text-anchor="middle" x="108" y="-597" font-family="sans" font-size="10.00">cp_reads</text>
<text text-anchor="middle" x="108" y="-586" font-family="sans" font-size="10.00">library: N100_R2_AF0.8_NR50000</text>
</g>
<!-- 21&#45;&gt;11 -->
<g id="edge33" class="edge">
<title>21&#45;&gt;11</title>
<path fill="none" stroke="grey" stroke-width="2" d="M96.63,-575.7C91.28,-567.56 84.8,-557.69 78.89,-548.7"/>
<polygon fill="grey" stroke="grey" stroke-width="2" points="81.66,-546.54 73.24,-540.1 75.81,-550.38 81.66,-546.54"/>
</g>
<!-- 25 -->
<g id="node26" class="node">
<title>25</title>
<path fill="none" stroke="#56a9d8" stroke-width="2" stroke-dasharray="5,2" d="M181,-540C181,-540 125,-540 125,-540 119,-540 113,-534 113,-528 113,-528 113,-516 113,-516 113,-510 119,-504 125,-504 125,-504 181,-504 181,-504 187,-504 193,-510 193,-516 193,-516 193,-528 193,-528 193,-534 187,-540 181,-540"/>
<text text-anchor="middle" x="153" y="-519.5" font-family="sans" font-size="10.00">trimmomatic</text>
</g>
<!-- 21&#45;&gt;25 -->
<g id="edge51" class="edge">
<title>21&#45;&gt;25</title>
<path fill="none" stroke="grey" stroke-width="2" d="M119.12,-575.7C124.36,-567.56 130.7,-557.69 136.48,-548.7"/>
<polygon fill="grey" stroke="grey" stroke-width="2" points="139.54,-550.41 142,-540.1 133.65,-546.62 139.54,-550.41"/>
</g>
<!-- 22 -->
<g id="node23" class="node">
<title>22</title>
<path fill="none" stroke="#5673d8" stroke-width="2" stroke-dasharray="5,2" d="M879.5,-612C879.5,-612 724.5,-612 724.5,-612 718.5,-612 712.5,-606 712.5,-600 712.5,-600 712.5,-588 712.5,-588 712.5,-582 718.5,-576 724.5,-576 724.5,-576 879.5,-576 879.5,-576 885.5,-576 891.5,-582 891.5,-588 891.5,-588 891.5,-600 891.5,-600 891.5,-606 885.5,-612 879.5,-612"/>
<text text-anchor="middle" x="802" y="-597" font-family="sans" font-size="10.00">cp_reads</text>
<text text-anchor="middle" x="802" y="-586" font-family="sans" font-size="10.00">library: N100_R2_AF0.6_NR50000</text>
</g>
<!-- 22&#45;&gt;12 -->
<g id="edge34" class="edge">
<title>22&#45;&gt;12</title>
<path fill="none" stroke="grey" stroke-width="2" d="M815.84,-575.7C822.49,-567.39 830.58,-557.28 837.89,-548.14"/>
<polygon fill="grey" stroke="grey" stroke-width="2" points="840.8,-550.1 844.32,-540.1 835.34,-545.73 840.8,-550.1"/>
</g>
<!-- 28 -->
<g id="node29" class="node">
<title>28</title>
<path fill="none" stroke="#56a9d8" stroke-width="2" stroke-dasharray="5,2" d="M775,-540C775,-540 719,-540 719,-540 713,-540 707,-534 707,-528 707,-528 707,-516 707,-516 707,-510 713,-504 719,-504 719,-504 775,-504 775,-504 781,-504 787,-510 787,-516 787,-516 787,-528 787,-528 787,-534 781,-540 775,-540"/>
<text text-anchor="middle" x="747" y="-519.5" font-family="sans" font-size="10.00">trimmomatic</text>
</g>
<!-- 22&#45;&gt;28 -->
<g id="edge54" class="edge">
<title>22&#45;&gt;28</title>
<path fill="none" stroke="grey" stroke-width="2" d="M788.4,-575.7C781.88,-567.39 773.93,-557.28 766.75,-548.14"/>
<polygon fill="grey" stroke="grey" stroke-width="2" points="769.37,-545.81 760.44,-540.1 763.87,-550.13 769.37,-545.81"/>
</g>
<!-- 23&#45;&gt;13 -->
<g id="edge35" class="edge">
<title>23&#45;&gt;13</title>
<path fill="none" stroke="grey" stroke-width="2" d="M269.93,-431.7C262.06,-423.22 252.44,-412.86 243.83,-403.58"/>
<polygon fill="grey" stroke="grey" stroke-width="2" points="246.25,-401.05 236.88,-396.1 241.12,-405.81 246.25,-401.05"/>
</g>
<!-- 24&#45;&gt;15 -->
<g id="edge37" class="edge">
<title>24&#45;&gt;15</title>
<path fill="none" stroke="grey" stroke-width="2" d="M581.31,-431.7C589.31,-423.22 599.07,-412.86 607.82,-403.58"/>
<polygon fill="grey" stroke="grey" stroke-width="2" points="610.56,-405.78 614.87,-396.1 605.47,-400.98 610.56,-405.78"/>
</g>
<!-- 25&#45;&gt;23 -->
<g id="edge42" class="edge">
<title>25&#45;&gt;23</title>
<path fill="none" stroke="grey" stroke-width="2" d="M185.54,-503.88C203.25,-494.55 225.35,-482.92 244.32,-472.94"/>
<polygon fill="grey" stroke="grey" stroke-width="2" points="246.12,-475.94 253.34,-468.19 242.86,-469.75 246.12,-475.94"/>
</g>
<!-- 26&#45;&gt;23 -->
<g id="edge44" class="edge">
<title>26&#45;&gt;23</title>
<path fill="none" stroke="grey" stroke-width="2" d="M468.79,-506.7C465.82,-505.79 462.87,-504.88 460,-504 415.76,-490.43 365.16,-475.03 329.97,-464.34"/>
<polygon fill="grey" stroke="grey" stroke-width="2" points="330.61,-460.87 320.02,-461.32 328.57,-467.57 330.61,-460.87"/>
</g>
<!-- 26&#45;&gt;24 -->
<g id="edge49" class="edge">
<title>26&#45;&gt;24</title>
<path fill="none" stroke="grey" stroke-width="2" d="M527.36,-503.7C533.23,-495.47 540.37,-485.48 546.84,-476.42"/>
<polygon fill="grey" stroke="grey" stroke-width="2" points="549.82,-478.28 552.78,-468.1 544.12,-474.21 549.82,-478.28"/>
</g>
<!-- 27&#45;&gt;23 -->
<g id="edge45" class="edge">
<title>27&#45;&gt;23</title>
<path fill="none" stroke="grey" stroke-width="2" d="M388.92,-504.76C370.77,-495.28 347.62,-483.19 327.87,-472.87"/>
<polygon fill="grey" stroke="grey" stroke-width="2" points="329.26,-469.65 318.78,-468.12 326.02,-475.86 329.26,-469.65"/>
</g>
<!-- 27&#45;&gt;24 -->
<g id="edge50" class="edge">
<title>27&#45;&gt;24</title>
<path fill="none" stroke="grey" stroke-width="2" d="M451.11,-505.98C471.73,-496.03 499.08,-482.82 521.8,-471.85"/>
<polygon fill="grey" stroke="grey" stroke-width="2" points="523.42,-474.96 530.91,-467.46 520.38,-468.66 523.42,-474.96"/>
</g>
<!-- 28&#45;&gt;24 -->
<g id="edge47" class="edge">
<title>28&#45;&gt;24</title>
<path fill="none" stroke="grey" stroke-width="2" d="M706.61,-505.46C677.63,-494.32 638.61,-479.31 608.87,-467.87"/>
<polygon fill="grey" stroke="grey" stroke-width="2" points="609.76,-464.46 599.17,-464.14 607.24,-471 609.76,-464.46"/>
</g>
</g>
</svg>
